%TF.GenerationSoftware,KiCad,Pcbnew,6.0.0~rc2+dfsg1-1*%
%TF.CreationDate,2022-01-14T16:17:07+00:00*%
%TF.ProjectId,LiRX_tht_nutzen,4c695258-5f74-4687-945f-6e75747a656e,rev?*%
%TF.SameCoordinates,Original*%
%TF.FileFunction,Soldermask,Bot*%
%TF.FilePolarity,Negative*%
%FSLAX46Y46*%
G04 Gerber Fmt 4.6, Leading zero omitted, Abs format (unit mm)*
G04 Created by KiCad (PCBNEW 6.0.0~rc2+dfsg1-1) date 2022-01-14 16:17:07*
%MOMM*%
%LPD*%
G01*
G04 APERTURE LIST*
%ADD10C,2.340000*%
%ADD11C,1.400000*%
%ADD12O,1.400000X1.400000*%
%ADD13R,1.600000X1.600000*%
%ADD14C,1.600000*%
%ADD15O,2.200000X3.500000*%
%ADD16R,1.500000X2.500000*%
%ADD17O,1.500000X2.500000*%
%ADD18R,1.800000X1.800000*%
%ADD19C,1.800000*%
%ADD20R,2.400000X1.600000*%
%ADD21O,2.400000X1.600000*%
%ADD22O,4.000000X2.200000*%
%ADD23O,2.200000X4.000000*%
%ADD24R,4.000000X2.200000*%
%ADD25C,3.200000*%
%ADD26R,1.700000X1.700000*%
%ADD27O,1.700000X1.700000*%
G04 APERTURE END LIST*
D10*
%TO.C,RV3*%
X122705000Y-74355489D03*
X122705000Y-69355489D03*
X122705000Y-64355489D03*
%TD*%
%TO.C,RV1*%
X128010000Y-74285489D03*
X128010000Y-69285489D03*
X128010000Y-64285489D03*
%TD*%
D11*
%TO.C,R20*%
X71030000Y-50155489D03*
D12*
X71030000Y-57775489D03*
%TD*%
D11*
%TO.C,R19*%
X81230000Y-65395489D03*
D12*
X81230000Y-73015489D03*
%TD*%
D13*
%TO.C,C8*%
X91985000Y-52060489D03*
X93585000Y-51389552D03*
D14*
X91985000Y-54560489D03*
X90385000Y-55231426D03*
%TD*%
D15*
%TO.C,SW1*%
X99410000Y-73650489D03*
X107610000Y-73650489D03*
D16*
X101510000Y-73650489D03*
D17*
X103510000Y-73650489D03*
X105510000Y-73650489D03*
%TD*%
D15*
%TO.C,SW2*%
X107420000Y-51425489D03*
X99220000Y-51425489D03*
D16*
X105320000Y-51425489D03*
D17*
X103320000Y-51425489D03*
X101320000Y-51425489D03*
%TD*%
D14*
%TO.C,C12*%
X100240000Y-57775489D03*
X102740000Y-57775489D03*
%TD*%
D11*
%TO.C,R18*%
X83730000Y-50155489D03*
D12*
X83730000Y-57775489D03*
%TD*%
D11*
%TO.C,R17*%
X76785000Y-67300489D03*
D12*
X69165000Y-67300489D03*
%TD*%
D11*
%TO.C,R1*%
X82500000Y-61585489D03*
D12*
X74880000Y-61585489D03*
%TD*%
D14*
%TO.C,C10*%
X88830000Y-74285489D03*
X90080000Y-74285489D03*
X85080000Y-74285489D03*
X86330000Y-74285489D03*
%TD*%
D11*
%TO.C,R15*%
X100240000Y-55235489D03*
D12*
X107860000Y-55235489D03*
%TD*%
D11*
%TO.C,R14*%
X81190000Y-50155489D03*
D12*
X73570000Y-50155489D03*
%TD*%
D11*
%TO.C,R3*%
X106590000Y-57775489D03*
D12*
X114210000Y-57775489D03*
%TD*%
D11*
%TO.C,R2*%
X118020000Y-67935489D03*
D12*
X110400000Y-67935489D03*
%TD*%
D13*
%TO.C,C13*%
X114210000Y-71745489D03*
D14*
X114210000Y-73745489D03*
%TD*%
%TO.C,C9*%
X72300000Y-61585489D03*
X71050000Y-61585489D03*
X68550000Y-61585489D03*
X67300000Y-61585489D03*
%TD*%
%TO.C,C3*%
X72975000Y-74285489D03*
X72975000Y-71785489D03*
%TD*%
D18*
%TO.C,Q3*%
X63410000Y-61355489D03*
D19*
X63410000Y-63895489D03*
%TD*%
D13*
%TO.C,C14*%
X77380000Y-55235489D03*
D14*
X77380000Y-57235489D03*
%TD*%
D13*
%TO.C,C11*%
X112940000Y-61585489D03*
D14*
X112940000Y-63585489D03*
%TD*%
D20*
%TO.C,U3*%
X93945000Y-69195489D03*
D21*
X93945000Y-66655489D03*
X93945000Y-64115489D03*
X93945000Y-61575489D03*
X86325000Y-61575489D03*
X86325000Y-64115489D03*
X86325000Y-66655489D03*
X86325000Y-69195489D03*
%TD*%
D22*
%TO.C,J4*%
X120815000Y-59405489D03*
X122015000Y-56705489D03*
D23*
X128815000Y-54205489D03*
D24*
X124915000Y-49605489D03*
D23*
X117615000Y-50105489D03*
%TD*%
D20*
%TO.C,U2*%
X106605000Y-69195489D03*
D21*
X106605000Y-66655489D03*
X106605000Y-64115489D03*
X106605000Y-61575489D03*
X98985000Y-61575489D03*
X98985000Y-64115489D03*
X98985000Y-66655489D03*
X98985000Y-69195489D03*
%TD*%
D25*
%TO.C,H2*%
X64640000Y-73605489D03*
%TD*%
%TO.C,H1*%
X64640000Y-51605489D03*
%TD*%
D26*
%TO.C,BT1*%
X111035000Y-50155489D03*
D27*
X113575000Y-50155489D03*
%TD*%
D11*
%TO.C,R15*%
X100240000Y-89999511D03*
D12*
X107860000Y-89999511D03*
%TD*%
D11*
%TO.C,R14*%
X81190000Y-84919511D03*
D12*
X73570000Y-84919511D03*
%TD*%
D11*
%TO.C,R3*%
X106590000Y-92539511D03*
D12*
X114210000Y-92539511D03*
%TD*%
D11*
%TO.C,R2*%
X118020000Y-102699511D03*
D12*
X110400000Y-102699511D03*
%TD*%
D13*
%TO.C,C8*%
X91985000Y-86824511D03*
X93585000Y-86153574D03*
D14*
X91985000Y-89324511D03*
X90385000Y-89995448D03*
%TD*%
D15*
%TO.C,SW1*%
X99410000Y-108414511D03*
X107610000Y-108414511D03*
D16*
X101510000Y-108414511D03*
D17*
X103510000Y-108414511D03*
X105510000Y-108414511D03*
%TD*%
D15*
%TO.C,SW2*%
X107420000Y-86189511D03*
X99220000Y-86189511D03*
D16*
X105320000Y-86189511D03*
D17*
X103320000Y-86189511D03*
X101320000Y-86189511D03*
%TD*%
D10*
%TO.C,RV3*%
X122705000Y-109119511D03*
X122705000Y-104119511D03*
X122705000Y-99119511D03*
%TD*%
%TO.C,RV1*%
X128010000Y-109049511D03*
X128010000Y-104049511D03*
X128010000Y-99049511D03*
%TD*%
D11*
%TO.C,R20*%
X71030000Y-84919511D03*
D12*
X71030000Y-92539511D03*
%TD*%
D11*
%TO.C,R19*%
X81230000Y-100159511D03*
D12*
X81230000Y-107779511D03*
%TD*%
D11*
%TO.C,R18*%
X83730000Y-84919511D03*
D12*
X83730000Y-92539511D03*
%TD*%
D11*
%TO.C,R17*%
X76785000Y-102064511D03*
D12*
X69165000Y-102064511D03*
%TD*%
D11*
%TO.C,R1*%
X82500000Y-96349511D03*
D12*
X74880000Y-96349511D03*
%TD*%
D14*
%TO.C,C10*%
X88830000Y-109049511D03*
X90080000Y-109049511D03*
X85080000Y-109049511D03*
X86330000Y-109049511D03*
%TD*%
%TO.C,C9*%
X72300000Y-96349511D03*
X71050000Y-96349511D03*
X68550000Y-96349511D03*
X67300000Y-96349511D03*
%TD*%
%TO.C,C3*%
X72975000Y-109049511D03*
X72975000Y-106549511D03*
%TD*%
D18*
%TO.C,Q3*%
X63410000Y-96119511D03*
D19*
X63410000Y-98659511D03*
%TD*%
D13*
%TO.C,C14*%
X77380000Y-89999511D03*
D14*
X77380000Y-91999511D03*
%TD*%
D13*
%TO.C,C13*%
X114210000Y-106509511D03*
D14*
X114210000Y-108509511D03*
%TD*%
D13*
%TO.C,C11*%
X112940000Y-96349511D03*
D14*
X112940000Y-98349511D03*
%TD*%
D20*
%TO.C,U3*%
X93945000Y-103959511D03*
D21*
X93945000Y-101419511D03*
X93945000Y-98879511D03*
X93945000Y-96339511D03*
X86325000Y-96339511D03*
X86325000Y-98879511D03*
X86325000Y-101419511D03*
X86325000Y-103959511D03*
%TD*%
D14*
%TO.C,C12*%
X100240000Y-92539511D03*
X102740000Y-92539511D03*
%TD*%
D22*
%TO.C,J4*%
X120815000Y-94169511D03*
X122015000Y-91469511D03*
D23*
X128815000Y-88969511D03*
D24*
X124915000Y-84369511D03*
D23*
X117615000Y-84869511D03*
%TD*%
D20*
%TO.C,U2*%
X106605000Y-103959511D03*
D21*
X106605000Y-101419511D03*
X106605000Y-98879511D03*
X106605000Y-96339511D03*
X98985000Y-96339511D03*
X98985000Y-98879511D03*
X98985000Y-101419511D03*
X98985000Y-103959511D03*
%TD*%
D25*
%TO.C,H2*%
X64640000Y-108369511D03*
%TD*%
%TO.C,H1*%
X64640000Y-86369511D03*
%TD*%
D26*
%TO.C,BT1*%
X111035000Y-84919511D03*
D27*
X113575000Y-84919511D03*
%TD*%
D26*
%TO.C,BT1*%
X111035000Y-119750000D03*
D27*
X113575000Y-119750000D03*
%TD*%
D14*
%TO.C,C12*%
X100240000Y-127370000D03*
X102740000Y-127370000D03*
%TD*%
D22*
%TO.C,J4*%
X120815000Y-129000000D03*
X122015000Y-126300000D03*
D23*
X128815000Y-123800000D03*
D24*
X124915000Y-119200000D03*
D23*
X117615000Y-119700000D03*
%TD*%
D20*
%TO.C,U2*%
X106605000Y-138790000D03*
D21*
X106605000Y-136250000D03*
X106605000Y-133710000D03*
X106605000Y-131170000D03*
X98985000Y-131170000D03*
X98985000Y-133710000D03*
X98985000Y-136250000D03*
X98985000Y-138790000D03*
%TD*%
D25*
%TO.C,H1*%
X64640000Y-121200000D03*
%TD*%
%TO.C,H2*%
X64640000Y-143200000D03*
%TD*%
D20*
%TO.C,U3*%
X93945000Y-138790000D03*
D21*
X93945000Y-136250000D03*
X93945000Y-133710000D03*
X93945000Y-131170000D03*
X86325000Y-131170000D03*
X86325000Y-133710000D03*
X86325000Y-136250000D03*
X86325000Y-138790000D03*
%TD*%
D13*
%TO.C,C11*%
X112940000Y-131180000D03*
D14*
X112940000Y-133180000D03*
%TD*%
D13*
%TO.C,C13*%
X114210000Y-141340000D03*
D14*
X114210000Y-143340000D03*
%TD*%
D13*
%TO.C,C14*%
X77380000Y-124830000D03*
D14*
X77380000Y-126830000D03*
%TD*%
D18*
%TO.C,Q3*%
X63410000Y-130950000D03*
D19*
X63410000Y-133490000D03*
%TD*%
D14*
%TO.C,C3*%
X72975000Y-143880000D03*
X72975000Y-141380000D03*
%TD*%
%TO.C,C9*%
X72300000Y-131180000D03*
X71050000Y-131180000D03*
X68550000Y-131180000D03*
X67300000Y-131180000D03*
%TD*%
%TO.C,C10*%
X88830000Y-143880000D03*
X90080000Y-143880000D03*
X85080000Y-143880000D03*
X86330000Y-143880000D03*
%TD*%
D11*
%TO.C,R1*%
X82500000Y-131180000D03*
D12*
X74880000Y-131180000D03*
%TD*%
D11*
%TO.C,R17*%
X76785000Y-136895000D03*
D12*
X69165000Y-136895000D03*
%TD*%
D11*
%TO.C,R18*%
X83730000Y-119750000D03*
D12*
X83730000Y-127370000D03*
%TD*%
D11*
%TO.C,R19*%
X81230000Y-134990000D03*
D12*
X81230000Y-142610000D03*
%TD*%
D11*
%TO.C,R20*%
X71030000Y-119750000D03*
D12*
X71030000Y-127370000D03*
%TD*%
D10*
%TO.C,RV1*%
X128010000Y-143880000D03*
X128010000Y-138880000D03*
X128010000Y-133880000D03*
%TD*%
%TO.C,RV3*%
X122705000Y-143950000D03*
X122705000Y-138950000D03*
X122705000Y-133950000D03*
%TD*%
D15*
%TO.C,SW2*%
X107420000Y-121020000D03*
X99220000Y-121020000D03*
D16*
X105320000Y-121020000D03*
D17*
X103320000Y-121020000D03*
X101320000Y-121020000D03*
%TD*%
D15*
%TO.C,SW1*%
X99410000Y-143245000D03*
X107610000Y-143245000D03*
D16*
X101510000Y-143245000D03*
D17*
X103510000Y-143245000D03*
X105510000Y-143245000D03*
%TD*%
D13*
%TO.C,C8*%
X91985000Y-121655000D03*
X93585000Y-120984063D03*
D14*
X91985000Y-124155000D03*
X90385000Y-124825937D03*
%TD*%
D11*
%TO.C,R2*%
X118020000Y-137530000D03*
D12*
X110400000Y-137530000D03*
%TD*%
D11*
%TO.C,R3*%
X106590000Y-127370000D03*
D12*
X114210000Y-127370000D03*
%TD*%
D11*
%TO.C,R14*%
X81190000Y-119750000D03*
D12*
X73570000Y-119750000D03*
%TD*%
D11*
%TO.C,R15*%
X100240000Y-124830000D03*
D12*
X107860000Y-124830000D03*
%TD*%
M02*
