%FSLAX45Y45*%
G04 Gerber Fmt 4.5, Leading zero omitted, Abs format (unit mm)*
G04 Created by KiCad (PCBNEW 6.0.0~rc2+dfsg1-1) date 2022-01-14 16:16:32*
%MOMM*%
%LPD*%
G01*
G04 APERTURE LIST*
%TA.AperFunction,Profile*%
%ADD10C,0.050000*%
%TD*%
%ADD11C,0.200000*%
%ADD12C,0.040000*%
%ADD13C,0.070000*%
%ADD14C,0.080000*%
%ADD15C,0.090000*%
%ADD16C,0.100000*%
%ADD17C,0.130000*%
%ADD18C,0.150000*%
%ADD19C,0.320000*%
G04 APERTURE END LIST*
D10*
X11392166Y-11717363D02*
G75*
G03*
X11534666Y-11582166I0J142697D01*
G01*
X7043741Y-11719636D02*
G75*
G03*
X7139666Y-11624666I3425J92470D01*
G01*
X6464000Y-11720000D02*
X7043741Y-11719636D01*
X7647144Y-11319666D02*
X7634610Y-11627166D01*
X12167166Y-11719666D02*
X13064000Y-11720000D01*
X11534666Y-11582166D02*
X11532374Y-11391791D01*
X7729643Y-11719666D02*
X11392166Y-11717363D01*
X6464000Y-11236951D02*
X7044666Y-11242166D01*
X11387466Y-11238510D02*
X7729643Y-11242015D01*
X11532374Y-11391791D02*
G75*
G03*
X11387466Y-11238510I-147408J5781D01*
G01*
X12177500Y-11237500D02*
G75*
G03*
X12025000Y-11390000I0J-152500D01*
G01*
X13064000Y-11236951D02*
X12177500Y-11237500D01*
X7729643Y-11242015D02*
G75*
G03*
X7647144Y-11319666I23J-82675D01*
G01*
X7132203Y-11327166D02*
G75*
G03*
X7044666Y-11242166I-85026J12D01*
G01*
X7634610Y-11627166D02*
G75*
G03*
X7729643Y-11719666I92534J0D01*
G01*
X12025000Y-11390000D02*
X12024666Y-11577166D01*
X7139666Y-11624666D02*
X7132203Y-11327166D01*
X12024666Y-11577166D02*
G75*
G03*
X12167166Y-11719666I142500J0D01*
G01*
X7647477Y-7837500D02*
X7634944Y-8145000D01*
X7140000Y-8142500D02*
X7132537Y-7845000D01*
X7729977Y-8237500D02*
X11392500Y-8235197D01*
X11387800Y-7756344D02*
X7729977Y-7759849D01*
X11535000Y-8100000D02*
X11532708Y-7909625D01*
X12167500Y-8237500D02*
X13064000Y-8236951D01*
X12025334Y-7907834D02*
X12025000Y-8095000D01*
X13064000Y-7760549D02*
X12177834Y-7755334D01*
X11532708Y-7909625D02*
G75*
G03*
X11387800Y-7756344I-147408J5781D01*
G01*
X11392500Y-8235197D02*
G75*
G03*
X11535000Y-8100000I0J142697D01*
G01*
X12177834Y-7755334D02*
G75*
G03*
X12025334Y-7907834I0J-152500D01*
G01*
X12025000Y-8095000D02*
G75*
G03*
X12167500Y-8237500I142500J0D01*
G01*
X7634944Y-8145000D02*
G75*
G03*
X7729977Y-8237500I92534J0D01*
G01*
X7729977Y-7759849D02*
G75*
G03*
X7647477Y-7837500I23J-82675D01*
G01*
X7044075Y-8237470D02*
G75*
G03*
X7140000Y-8142500I3425J92470D01*
G01*
X7132537Y-7845000D02*
G75*
G03*
X7045000Y-7760000I-85026J12D01*
G01*
X6464000Y-8236951D02*
X7044075Y-8237470D01*
X6464000Y-7760549D02*
X7045000Y-7760000D01*
X6064000Y-7360549D02*
G75*
G03*
X6464000Y-7760549I400000J0D01*
G01*
X13064000Y-4760549D02*
X13064000Y-7760549D01*
X6464000Y-4760549D02*
G75*
G03*
X6064000Y-5160549I0J-400000D01*
G01*
X6064000Y-7360549D02*
X6064000Y-5160549D01*
X6464000Y-4760549D02*
X13064000Y-4760549D01*
X13064000Y-8236951D02*
X13064000Y-11236951D01*
X6064000Y-10836951D02*
G75*
G03*
X6464000Y-11236951I400000J0D01*
G01*
X6464000Y-8236951D02*
G75*
G03*
X6064000Y-8636951I0J-400000D01*
G01*
X6064000Y-10836951D02*
X6064000Y-8636951D01*
X6064000Y-14320000D02*
X6064000Y-12120000D01*
X6464000Y-11720000D02*
G75*
G03*
X6064000Y-12120000I0J-400000D01*
G01*
X6464000Y-14720000D02*
X13064000Y-14720000D01*
X6064000Y-14320000D02*
G75*
G03*
X6464000Y-14720000I400000J0D01*
G01*
X13064000Y-11720000D02*
X13064000Y-14720000D01*
D11*
D12*
X6194000Y-5503549D02*
X6234000Y-5543549D01*
X6234000Y-5503549D02*
X6194000Y-5543549D01*
X6194000Y-7027549D02*
X6234000Y-7067549D01*
X6234000Y-7027549D02*
X6194000Y-7067549D01*
X6194000Y-8979951D02*
X6234000Y-9019951D01*
X6234000Y-8979951D02*
X6194000Y-9019951D01*
X6194000Y-10503951D02*
X6234000Y-10543951D01*
X6234000Y-10503951D02*
X6194000Y-10543951D01*
X6194000Y-12463000D02*
X6234000Y-12503000D01*
X6234000Y-12463000D02*
X6194000Y-12503000D01*
X6194000Y-13987000D02*
X6234000Y-14027000D01*
X6234000Y-13987000D02*
X6194000Y-14027000D01*
X6829000Y-4868549D02*
X6869000Y-4908549D01*
X6869000Y-4868549D02*
X6829000Y-4908549D01*
X6829000Y-7535549D02*
X6869000Y-7575549D01*
X6869000Y-7535549D02*
X6829000Y-7575549D01*
X6829000Y-8344951D02*
X6869000Y-8384951D01*
X6869000Y-8344951D02*
X6829000Y-8384951D01*
X6829000Y-11011951D02*
X6869000Y-11051951D01*
X6869000Y-11011951D02*
X6829000Y-11051951D01*
X6829000Y-11828000D02*
X6869000Y-11868000D01*
X6869000Y-11828000D02*
X6829000Y-11868000D01*
X6829000Y-14495000D02*
X6869000Y-14535000D01*
X6869000Y-14495000D02*
X6829000Y-14535000D01*
X11147000Y-5249549D02*
X11187000Y-5289549D01*
X11187000Y-5249549D02*
X11147000Y-5289549D01*
X11147000Y-8725951D02*
X11187000Y-8765951D01*
X11187000Y-8725951D02*
X11147000Y-8765951D01*
X11147000Y-12209000D02*
X11187000Y-12249000D01*
X11187000Y-12209000D02*
X11147000Y-12249000D01*
X11545000Y-8740000D02*
X11585000Y-8780000D01*
X11585000Y-8740000D02*
X11545000Y-8780000D01*
X11550000Y-12210000D02*
X11590000Y-12250000D01*
X11590000Y-12210000D02*
X11550000Y-12250000D01*
X11552500Y-5260000D02*
X11592500Y-5300000D01*
X11592500Y-5260000D02*
X11552500Y-5300000D01*
X11782000Y-7535549D02*
X11822000Y-7575549D01*
X11822000Y-7535549D02*
X11782000Y-7575549D01*
X11782000Y-11011951D02*
X11822000Y-11051951D01*
X11822000Y-11011951D02*
X11782000Y-11051951D01*
X11782000Y-14495000D02*
X11822000Y-14535000D01*
X11822000Y-14495000D02*
X11782000Y-14535000D01*
X12855000Y-11907500D02*
X12895000Y-11947500D01*
X12895000Y-11907500D02*
X12855000Y-11947500D01*
X12860000Y-4940000D02*
X12900000Y-4980000D01*
X12900000Y-4940000D02*
X12860000Y-4980000D01*
X12867500Y-8425000D02*
X12907500Y-8465000D01*
X12907500Y-8425000D02*
X12867500Y-8465000D01*
D13*
X6951500Y-6730049D02*
G75*
G03*
X6951500Y-6730049I-35000J0D01*
G01*
X6951500Y-10206451D02*
G75*
G03*
X6951500Y-10206451I-35000J0D01*
G01*
X6951500Y-13689500D02*
G75*
G03*
X6951500Y-13689500I-35000J0D01*
G01*
X7138000Y-5015549D02*
G75*
G03*
X7138000Y-5015549I-35000J0D01*
G01*
X7138000Y-5777549D02*
G75*
G03*
X7138000Y-5777549I-35000J0D01*
G01*
X7138000Y-8491951D02*
G75*
G03*
X7138000Y-8491951I-35000J0D01*
G01*
X7138000Y-9253951D02*
G75*
G03*
X7138000Y-9253951I-35000J0D01*
G01*
X7138000Y-11975000D02*
G75*
G03*
X7138000Y-11975000I-35000J0D01*
G01*
X7138000Y-12737000D02*
G75*
G03*
X7138000Y-12737000I-35000J0D01*
G01*
X7392000Y-5015549D02*
G75*
G03*
X7392000Y-5015549I-35000J0D01*
G01*
X7392000Y-8491951D02*
G75*
G03*
X7392000Y-8491951I-35000J0D01*
G01*
X7392000Y-11975000D02*
G75*
G03*
X7392000Y-11975000I-35000J0D01*
G01*
X7523000Y-6158549D02*
G75*
G03*
X7523000Y-6158549I-35000J0D01*
G01*
X7523000Y-9634951D02*
G75*
G03*
X7523000Y-9634951I-35000J0D01*
G01*
X7523000Y-13118000D02*
G75*
G03*
X7523000Y-13118000I-35000J0D01*
G01*
X7713500Y-6730049D02*
G75*
G03*
X7713500Y-6730049I-35000J0D01*
G01*
X7713500Y-10206451D02*
G75*
G03*
X7713500Y-10206451I-35000J0D01*
G01*
X7713500Y-13689500D02*
G75*
G03*
X7713500Y-13689500I-35000J0D01*
G01*
X8154000Y-5015549D02*
G75*
G03*
X8154000Y-5015549I-35000J0D01*
G01*
X8154000Y-8491951D02*
G75*
G03*
X8154000Y-8491951I-35000J0D01*
G01*
X8154000Y-11975000D02*
G75*
G03*
X8154000Y-11975000I-35000J0D01*
G01*
X8158000Y-6539549D02*
G75*
G03*
X8158000Y-6539549I-35000J0D01*
G01*
X8158000Y-7301549D02*
G75*
G03*
X8158000Y-7301549I-35000J0D01*
G01*
X8158000Y-10015951D02*
G75*
G03*
X8158000Y-10015951I-35000J0D01*
G01*
X8158000Y-10777951D02*
G75*
G03*
X8158000Y-10777951I-35000J0D01*
G01*
X8158000Y-13499000D02*
G75*
G03*
X8158000Y-13499000I-35000J0D01*
G01*
X8158000Y-14261000D02*
G75*
G03*
X8158000Y-14261000I-35000J0D01*
G01*
X8285000Y-6158549D02*
G75*
G03*
X8285000Y-6158549I-35000J0D01*
G01*
X8285000Y-9634951D02*
G75*
G03*
X8285000Y-9634951I-35000J0D01*
G01*
X8285000Y-13118000D02*
G75*
G03*
X8285000Y-13118000I-35000J0D01*
G01*
X8408000Y-5015549D02*
G75*
G03*
X8408000Y-5015549I-35000J0D01*
G01*
X8408000Y-5777549D02*
G75*
G03*
X8408000Y-5777549I-35000J0D01*
G01*
X8408000Y-8491951D02*
G75*
G03*
X8408000Y-8491951I-35000J0D01*
G01*
X8408000Y-9253951D02*
G75*
G03*
X8408000Y-9253951I-35000J0D01*
G01*
X8408000Y-11975000D02*
G75*
G03*
X8408000Y-11975000I-35000J0D01*
G01*
X8408000Y-12737000D02*
G75*
G03*
X8408000Y-12737000I-35000J0D01*
G01*
X10059000Y-5523549D02*
G75*
G03*
X10059000Y-5523549I-35000J0D01*
G01*
X10059000Y-8999951D02*
G75*
G03*
X10059000Y-8999951I-35000J0D01*
G01*
X10059000Y-12483000D02*
G75*
G03*
X10059000Y-12483000I-35000J0D01*
G01*
X10694000Y-5777549D02*
G75*
G03*
X10694000Y-5777549I-35000J0D01*
G01*
X10694000Y-9253951D02*
G75*
G03*
X10694000Y-9253951I-35000J0D01*
G01*
X10694000Y-12737000D02*
G75*
G03*
X10694000Y-12737000I-35000J0D01*
G01*
X10821000Y-5523549D02*
G75*
G03*
X10821000Y-5523549I-35000J0D01*
G01*
X10821000Y-8999951D02*
G75*
G03*
X10821000Y-8999951I-35000J0D01*
G01*
X10821000Y-12483000D02*
G75*
G03*
X10821000Y-12483000I-35000J0D01*
G01*
X11075000Y-6793549D02*
G75*
G03*
X11075000Y-6793549I-35000J0D01*
G01*
X11075000Y-10269951D02*
G75*
G03*
X11075000Y-10269951I-35000J0D01*
G01*
X11075000Y-13753000D02*
G75*
G03*
X11075000Y-13753000I-35000J0D01*
G01*
X11456000Y-5777549D02*
G75*
G03*
X11456000Y-5777549I-35000J0D01*
G01*
X11456000Y-9253951D02*
G75*
G03*
X11456000Y-9253951I-35000J0D01*
G01*
X11456000Y-12737000D02*
G75*
G03*
X11456000Y-12737000I-35000J0D01*
G01*
X11837000Y-6793549D02*
G75*
G03*
X11837000Y-6793549I-35000J0D01*
G01*
X11837000Y-10269951D02*
G75*
G03*
X11837000Y-10269951I-35000J0D01*
G01*
X11837000Y-13753000D02*
G75*
G03*
X11837000Y-13753000I-35000J0D01*
G01*
D14*
X6730000Y-6118549D02*
X6730000Y-6198549D01*
X6690000Y-6158549D02*
X6770000Y-6158549D01*
X6730000Y-9594951D02*
X6730000Y-9674951D01*
X6690000Y-9634951D02*
X6770000Y-9634951D01*
X6730000Y-13078000D02*
X6730000Y-13158000D01*
X6690000Y-13118000D02*
X6770000Y-13118000D01*
X6855000Y-6118549D02*
X6855000Y-6198549D01*
X6815000Y-6158549D02*
X6895000Y-6158549D01*
X6855000Y-9594951D02*
X6855000Y-9674951D01*
X6815000Y-9634951D02*
X6895000Y-9634951D01*
X6855000Y-13078000D02*
X6855000Y-13158000D01*
X6815000Y-13118000D02*
X6895000Y-13118000D01*
X7105000Y-6118549D02*
X7105000Y-6198549D01*
X7065000Y-6158549D02*
X7145000Y-6158549D01*
X7105000Y-9594951D02*
X7105000Y-9674951D01*
X7065000Y-9634951D02*
X7145000Y-9634951D01*
X7105000Y-13078000D02*
X7105000Y-13158000D01*
X7065000Y-13118000D02*
X7145000Y-13118000D01*
X7230000Y-6118549D02*
X7230000Y-6198549D01*
X7190000Y-6158549D02*
X7270000Y-6158549D01*
X7230000Y-9594951D02*
X7230000Y-9674951D01*
X7190000Y-9634951D02*
X7270000Y-9634951D01*
X7230000Y-13078000D02*
X7230000Y-13158000D01*
X7190000Y-13118000D02*
X7270000Y-13118000D01*
X7297500Y-7138549D02*
X7297500Y-7218549D01*
X7257500Y-7178549D02*
X7337500Y-7178549D01*
X7297500Y-7388549D02*
X7297500Y-7468549D01*
X7257500Y-7428549D02*
X7337500Y-7428549D01*
X7297500Y-10614951D02*
X7297500Y-10694951D01*
X7257500Y-10654951D02*
X7337500Y-10654951D01*
X7297500Y-10864951D02*
X7297500Y-10944951D01*
X7257500Y-10904951D02*
X7337500Y-10904951D01*
X7297500Y-14098000D02*
X7297500Y-14178000D01*
X7257500Y-14138000D02*
X7337500Y-14138000D01*
X7297500Y-14348000D02*
X7297500Y-14428000D01*
X7257500Y-14388000D02*
X7337500Y-14388000D01*
X7738000Y-5483549D02*
X7738000Y-5563549D01*
X7698000Y-5523549D02*
X7778000Y-5523549D01*
X7738000Y-5683549D02*
X7738000Y-5763549D01*
X7698000Y-5723549D02*
X7778000Y-5723549D01*
X7738000Y-8959951D02*
X7738000Y-9039951D01*
X7698000Y-8999951D02*
X7778000Y-8999951D01*
X7738000Y-9159951D02*
X7738000Y-9239951D01*
X7698000Y-9199951D02*
X7778000Y-9199951D01*
X7738000Y-12443000D02*
X7738000Y-12523000D01*
X7698000Y-12483000D02*
X7778000Y-12483000D01*
X7738000Y-12643000D02*
X7738000Y-12723000D01*
X7698000Y-12683000D02*
X7778000Y-12683000D01*
X8508000Y-7388549D02*
X8508000Y-7468549D01*
X8468000Y-7428549D02*
X8548000Y-7428549D01*
X8508000Y-10864951D02*
X8508000Y-10944951D01*
X8468000Y-10904951D02*
X8548000Y-10904951D01*
X8508000Y-14348000D02*
X8508000Y-14428000D01*
X8468000Y-14388000D02*
X8548000Y-14388000D01*
X8632500Y-6117549D02*
X8632500Y-6197549D01*
X8592500Y-6157549D02*
X8672500Y-6157549D01*
X8632500Y-6371549D02*
X8632500Y-6451549D01*
X8592500Y-6411549D02*
X8672500Y-6411549D01*
X8632500Y-6625549D02*
X8632500Y-6705549D01*
X8592500Y-6665549D02*
X8672500Y-6665549D01*
X8632500Y-6879549D02*
X8632500Y-6959549D01*
X8592500Y-6919549D02*
X8672500Y-6919549D01*
X8632500Y-9593951D02*
X8632500Y-9673951D01*
X8592500Y-9633951D02*
X8672500Y-9633951D01*
X8632500Y-9847951D02*
X8632500Y-9927951D01*
X8592500Y-9887951D02*
X8672500Y-9887951D01*
X8632500Y-10101951D02*
X8632500Y-10181951D01*
X8592500Y-10141951D02*
X8672500Y-10141951D01*
X8632500Y-10355951D02*
X8632500Y-10435951D01*
X8592500Y-10395951D02*
X8672500Y-10395951D01*
X8632500Y-13077000D02*
X8632500Y-13157000D01*
X8592500Y-13117000D02*
X8672500Y-13117000D01*
X8632500Y-13331000D02*
X8632500Y-13411000D01*
X8592500Y-13371000D02*
X8672500Y-13371000D01*
X8632500Y-13585000D02*
X8632500Y-13665000D01*
X8592500Y-13625000D02*
X8672500Y-13625000D01*
X8632500Y-13839000D02*
X8632500Y-13919000D01*
X8592500Y-13879000D02*
X8672500Y-13879000D01*
X8633000Y-7388549D02*
X8633000Y-7468549D01*
X8593000Y-7428549D02*
X8673000Y-7428549D01*
X8633000Y-10864951D02*
X8633000Y-10944951D01*
X8593000Y-10904951D02*
X8673000Y-10904951D01*
X8633000Y-14348000D02*
X8633000Y-14428000D01*
X8593000Y-14388000D02*
X8673000Y-14388000D01*
X8883000Y-7388549D02*
X8883000Y-7468549D01*
X8843000Y-7428549D02*
X8923000Y-7428549D01*
X8883000Y-10864951D02*
X8883000Y-10944951D01*
X8843000Y-10904951D02*
X8923000Y-10904951D01*
X8883000Y-14348000D02*
X8883000Y-14428000D01*
X8843000Y-14388000D02*
X8923000Y-14388000D01*
X9008000Y-7388549D02*
X9008000Y-7468549D01*
X8968000Y-7428549D02*
X9048000Y-7428549D01*
X9008000Y-10864951D02*
X9008000Y-10944951D01*
X8968000Y-10904951D02*
X9048000Y-10904951D01*
X9008000Y-14348000D02*
X9008000Y-14428000D01*
X8968000Y-14388000D02*
X9048000Y-14388000D01*
X9038500Y-5483143D02*
X9038500Y-5563143D01*
X8998500Y-5523143D02*
X9078500Y-5523143D01*
X9038500Y-8959545D02*
X9038500Y-9039545D01*
X8998500Y-8999545D02*
X9078500Y-8999545D01*
X9038500Y-12442594D02*
X9038500Y-12522594D01*
X8998500Y-12482594D02*
X9078500Y-12482594D01*
X9198500Y-5166049D02*
X9198500Y-5246049D01*
X9158500Y-5206049D02*
X9238500Y-5206049D01*
X9198500Y-5416049D02*
X9198500Y-5496049D01*
X9158500Y-5456049D02*
X9238500Y-5456049D01*
X9198500Y-8642451D02*
X9198500Y-8722451D01*
X9158500Y-8682451D02*
X9238500Y-8682451D01*
X9198500Y-8892451D02*
X9198500Y-8972451D01*
X9158500Y-8932451D02*
X9238500Y-8932451D01*
X9198500Y-12125500D02*
X9198500Y-12205500D01*
X9158500Y-12165500D02*
X9238500Y-12165500D01*
X9198500Y-12375500D02*
X9198500Y-12455500D01*
X9158500Y-12415500D02*
X9238500Y-12415500D01*
X9358500Y-5098955D02*
X9358500Y-5178955D01*
X9318500Y-5138955D02*
X9398500Y-5138955D01*
X9358500Y-8575357D02*
X9358500Y-8655357D01*
X9318500Y-8615357D02*
X9398500Y-8615357D01*
X9358500Y-12058406D02*
X9358500Y-12138406D01*
X9318500Y-12098406D02*
X9398500Y-12098406D01*
X9394500Y-6117549D02*
X9394500Y-6197549D01*
X9354500Y-6157549D02*
X9434500Y-6157549D01*
X9394500Y-6371549D02*
X9394500Y-6451549D01*
X9354500Y-6411549D02*
X9434500Y-6411549D01*
X9394500Y-6625549D02*
X9394500Y-6705549D01*
X9354500Y-6665549D02*
X9434500Y-6665549D01*
X9394500Y-6879549D02*
X9394500Y-6959549D01*
X9354500Y-6919549D02*
X9434500Y-6919549D01*
X9394500Y-9593951D02*
X9394500Y-9673951D01*
X9354500Y-9633951D02*
X9434500Y-9633951D01*
X9394500Y-9847951D02*
X9394500Y-9927951D01*
X9354500Y-9887951D02*
X9434500Y-9887951D01*
X9394500Y-10101951D02*
X9394500Y-10181951D01*
X9354500Y-10141951D02*
X9434500Y-10141951D01*
X9394500Y-10355951D02*
X9394500Y-10435951D01*
X9354500Y-10395951D02*
X9434500Y-10395951D01*
X9394500Y-13077000D02*
X9394500Y-13157000D01*
X9354500Y-13117000D02*
X9434500Y-13117000D01*
X9394500Y-13331000D02*
X9394500Y-13411000D01*
X9354500Y-13371000D02*
X9434500Y-13371000D01*
X9394500Y-13585000D02*
X9394500Y-13665000D01*
X9354500Y-13625000D02*
X9434500Y-13625000D01*
X9394500Y-13839000D02*
X9394500Y-13919000D01*
X9354500Y-13879000D02*
X9434500Y-13879000D01*
X9898500Y-6117549D02*
X9898500Y-6197549D01*
X9858500Y-6157549D02*
X9938500Y-6157549D01*
X9898500Y-6371549D02*
X9898500Y-6451549D01*
X9858500Y-6411549D02*
X9938500Y-6411549D01*
X9898500Y-6625549D02*
X9898500Y-6705549D01*
X9858500Y-6665549D02*
X9938500Y-6665549D01*
X9898500Y-6879549D02*
X9898500Y-6959549D01*
X9858500Y-6919549D02*
X9938500Y-6919549D01*
X9898500Y-9593951D02*
X9898500Y-9673951D01*
X9858500Y-9633951D02*
X9938500Y-9633951D01*
X9898500Y-9847951D02*
X9898500Y-9927951D01*
X9858500Y-9887951D02*
X9938500Y-9887951D01*
X9898500Y-10101951D02*
X9898500Y-10181951D01*
X9858500Y-10141951D02*
X9938500Y-10141951D01*
X9898500Y-10355951D02*
X9898500Y-10435951D01*
X9858500Y-10395951D02*
X9938500Y-10395951D01*
X9898500Y-13077000D02*
X9898500Y-13157000D01*
X9858500Y-13117000D02*
X9938500Y-13117000D01*
X9898500Y-13331000D02*
X9898500Y-13411000D01*
X9858500Y-13371000D02*
X9938500Y-13371000D01*
X9898500Y-13585000D02*
X9898500Y-13665000D01*
X9858500Y-13625000D02*
X9938500Y-13625000D01*
X9898500Y-13839000D02*
X9898500Y-13919000D01*
X9858500Y-13879000D02*
X9938500Y-13879000D01*
X10024000Y-5737549D02*
X10024000Y-5817549D01*
X9984000Y-5777549D02*
X10064000Y-5777549D01*
X10024000Y-9213951D02*
X10024000Y-9293951D01*
X9984000Y-9253951D02*
X10064000Y-9253951D01*
X10024000Y-12697000D02*
X10024000Y-12777000D01*
X9984000Y-12737000D02*
X10064000Y-12737000D01*
X10274000Y-5737549D02*
X10274000Y-5817549D01*
X10234000Y-5777549D02*
X10314000Y-5777549D01*
X10274000Y-9213951D02*
X10274000Y-9293951D01*
X10234000Y-9253951D02*
X10314000Y-9253951D01*
X10274000Y-12697000D02*
X10274000Y-12777000D01*
X10234000Y-12737000D02*
X10314000Y-12737000D01*
X10660500Y-6117549D02*
X10660500Y-6197549D01*
X10620500Y-6157549D02*
X10700500Y-6157549D01*
X10660500Y-6371549D02*
X10660500Y-6451549D01*
X10620500Y-6411549D02*
X10700500Y-6411549D01*
X10660500Y-6625549D02*
X10660500Y-6705549D01*
X10620500Y-6665549D02*
X10700500Y-6665549D01*
X10660500Y-6879549D02*
X10660500Y-6959549D01*
X10620500Y-6919549D02*
X10700500Y-6919549D01*
X10660500Y-9593951D02*
X10660500Y-9673951D01*
X10620500Y-9633951D02*
X10700500Y-9633951D01*
X10660500Y-9847951D02*
X10660500Y-9927951D01*
X10620500Y-9887951D02*
X10700500Y-9887951D01*
X10660500Y-10101951D02*
X10660500Y-10181951D01*
X10620500Y-10141951D02*
X10700500Y-10141951D01*
X10660500Y-10355951D02*
X10660500Y-10435951D01*
X10620500Y-10395951D02*
X10700500Y-10395951D01*
X10660500Y-13077000D02*
X10660500Y-13157000D01*
X10620500Y-13117000D02*
X10700500Y-13117000D01*
X10660500Y-13331000D02*
X10660500Y-13411000D01*
X10620500Y-13371000D02*
X10700500Y-13371000D01*
X10660500Y-13585000D02*
X10660500Y-13665000D01*
X10620500Y-13625000D02*
X10700500Y-13625000D01*
X10660500Y-13839000D02*
X10660500Y-13919000D01*
X10620500Y-13879000D02*
X10700500Y-13879000D01*
X11294000Y-6118549D02*
X11294000Y-6198549D01*
X11254000Y-6158549D02*
X11334000Y-6158549D01*
X11294000Y-6318549D02*
X11294000Y-6398549D01*
X11254000Y-6358549D02*
X11334000Y-6358549D01*
X11294000Y-9594951D02*
X11294000Y-9674951D01*
X11254000Y-9634951D02*
X11334000Y-9634951D01*
X11294000Y-9794951D02*
X11294000Y-9874951D01*
X11254000Y-9834951D02*
X11334000Y-9834951D01*
X11294000Y-13078000D02*
X11294000Y-13158000D01*
X11254000Y-13118000D02*
X11334000Y-13118000D01*
X11294000Y-13278000D02*
X11294000Y-13358000D01*
X11254000Y-13318000D02*
X11334000Y-13318000D01*
X11421000Y-7134549D02*
X11421000Y-7214549D01*
X11381000Y-7174549D02*
X11461000Y-7174549D01*
X11421000Y-7334549D02*
X11421000Y-7414549D01*
X11381000Y-7374549D02*
X11461000Y-7374549D01*
X11421000Y-10610951D02*
X11421000Y-10690951D01*
X11381000Y-10650951D02*
X11461000Y-10650951D01*
X11421000Y-10810951D02*
X11421000Y-10890951D01*
X11381000Y-10850951D02*
X11461000Y-10850951D01*
X11421000Y-14094000D02*
X11421000Y-14174000D01*
X11381000Y-14134000D02*
X11461000Y-14134000D01*
X11421000Y-14294000D02*
X11421000Y-14374000D01*
X11381000Y-14334000D02*
X11461000Y-14334000D01*
D15*
X6372820Y-6167369D02*
X6372820Y-6103729D01*
X6309180Y-6103729D01*
X6309180Y-6167369D01*
X6372820Y-6167369D01*
X6372820Y-6421369D02*
X6372820Y-6357729D01*
X6309180Y-6357729D01*
X6309180Y-6421369D01*
X6372820Y-6421369D01*
X6372820Y-9643771D02*
X6372820Y-9580131D01*
X6309180Y-9580131D01*
X6309180Y-9643771D01*
X6372820Y-9643771D01*
X6372820Y-9897771D02*
X6372820Y-9834131D01*
X6309180Y-9834131D01*
X6309180Y-9897771D01*
X6372820Y-9897771D01*
X6372820Y-13126820D02*
X6372820Y-13063180D01*
X6309180Y-13063180D01*
X6309180Y-13126820D01*
X6372820Y-13126820D01*
X6372820Y-13380820D02*
X6372820Y-13317180D01*
X6309180Y-13317180D01*
X6309180Y-13380820D01*
X6372820Y-13380820D01*
X10163820Y-5174369D02*
X10163820Y-5110729D01*
X10100180Y-5110729D01*
X10100180Y-5174369D01*
X10163820Y-5174369D01*
X10163820Y-8650771D02*
X10163820Y-8587131D01*
X10100180Y-8587131D01*
X10100180Y-8650771D01*
X10163820Y-8650771D01*
X10163820Y-12133820D02*
X10163820Y-12070180D01*
X10100180Y-12070180D01*
X10100180Y-12133820D01*
X10163820Y-12133820D01*
X10182820Y-7396869D02*
X10182820Y-7333229D01*
X10119180Y-7333229D01*
X10119180Y-7396869D01*
X10182820Y-7396869D01*
X10182820Y-10873271D02*
X10182820Y-10809631D01*
X10119180Y-10809631D01*
X10119180Y-10873271D01*
X10182820Y-10873271D01*
X10182820Y-14356320D02*
X10182820Y-14292680D01*
X10119180Y-14292680D01*
X10119180Y-14356320D01*
X10182820Y-14356320D01*
X10363820Y-5174369D02*
X10363820Y-5110729D01*
X10300180Y-5110729D01*
X10300180Y-5174369D01*
X10363820Y-5174369D01*
X10363820Y-8650771D02*
X10363820Y-8587131D01*
X10300180Y-8587131D01*
X10300180Y-8650771D01*
X10363820Y-8650771D01*
X10363820Y-12133820D02*
X10363820Y-12070180D01*
X10300180Y-12070180D01*
X10300180Y-12133820D01*
X10363820Y-12133820D01*
X10382820Y-7396869D02*
X10382820Y-7333229D01*
X10319180Y-7333229D01*
X10319180Y-7396869D01*
X10382820Y-7396869D01*
X10382820Y-10873271D02*
X10382820Y-10809631D01*
X10319180Y-10809631D01*
X10319180Y-10873271D01*
X10382820Y-10873271D01*
X10382820Y-14356320D02*
X10382820Y-14292680D01*
X10319180Y-14292680D01*
X10319180Y-14356320D01*
X10382820Y-14356320D01*
X10563820Y-5174369D02*
X10563820Y-5110729D01*
X10500180Y-5110729D01*
X10500180Y-5174369D01*
X10563820Y-5174369D01*
X10563820Y-8650771D02*
X10563820Y-8587131D01*
X10500180Y-8587131D01*
X10500180Y-8650771D01*
X10563820Y-8650771D01*
X10563820Y-12133820D02*
X10563820Y-12070180D01*
X10500180Y-12070180D01*
X10500180Y-12133820D01*
X10563820Y-12133820D01*
X10582820Y-7396869D02*
X10582820Y-7333229D01*
X10519180Y-7333229D01*
X10519180Y-7396869D01*
X10582820Y-7396869D01*
X10582820Y-10873271D02*
X10582820Y-10809631D01*
X10519180Y-10809631D01*
X10519180Y-10873271D01*
X10582820Y-10873271D01*
X10582820Y-14356320D02*
X10582820Y-14292680D01*
X10519180Y-14292680D01*
X10519180Y-14356320D01*
X10582820Y-14356320D01*
D16*
X11103500Y-5065549D02*
X11153500Y-5015549D01*
X11103500Y-4965549D01*
X11053500Y-5015549D01*
X11103500Y-5065549D01*
X11103500Y-8541951D02*
X11153500Y-8491951D01*
X11103500Y-8441951D01*
X11053500Y-8491951D01*
X11103500Y-8541951D01*
X11103500Y-12025000D02*
X11153500Y-11975000D01*
X11103500Y-11925000D01*
X11053500Y-11975000D01*
X11103500Y-12025000D01*
X11357500Y-5065549D02*
X11407500Y-5015549D01*
X11357500Y-4965549D01*
X11307500Y-5015549D01*
X11357500Y-5065549D01*
X11357500Y-8541951D02*
X11407500Y-8491951D01*
X11357500Y-8441951D01*
X11307500Y-8491951D01*
X11357500Y-8541951D01*
X11357500Y-12025000D02*
X11407500Y-11975000D01*
X11357500Y-11925000D01*
X11307500Y-11975000D01*
X11357500Y-12025000D01*
D17*
X11696500Y-4945549D02*
X11826500Y-5075549D01*
X11826500Y-4945549D02*
X11696500Y-5075549D01*
X11826500Y-5010549D02*
G75*
G03*
X11826500Y-5010549I-65000J0D01*
G01*
X11696500Y-8421951D02*
X11826500Y-8551951D01*
X11826500Y-8421951D02*
X11696500Y-8551951D01*
X11826500Y-8486951D02*
G75*
G03*
X11826500Y-8486951I-65000J0D01*
G01*
X11696500Y-11905000D02*
X11826500Y-12035000D01*
X11826500Y-11905000D02*
X11696500Y-12035000D01*
X11826500Y-11970000D02*
G75*
G03*
X11826500Y-11970000I-65000J0D01*
G01*
X12016500Y-5875549D02*
X12146500Y-6005549D01*
X12146500Y-5875549D02*
X12016500Y-6005549D01*
X12146500Y-5940549D02*
G75*
G03*
X12146500Y-5940549I-65000J0D01*
G01*
X12016500Y-9351951D02*
X12146500Y-9481951D01*
X12146500Y-9351951D02*
X12016500Y-9481951D01*
X12146500Y-9416951D02*
G75*
G03*
X12146500Y-9416951I-65000J0D01*
G01*
X12016500Y-12835000D02*
X12146500Y-12965000D01*
X12146500Y-12835000D02*
X12016500Y-12965000D01*
X12146500Y-12900000D02*
G75*
G03*
X12146500Y-12900000I-65000J0D01*
G01*
X12136500Y-5605549D02*
X12266500Y-5735549D01*
X12266500Y-5605549D02*
X12136500Y-5735549D01*
X12266500Y-5670549D02*
G75*
G03*
X12266500Y-5670549I-65000J0D01*
G01*
X12136500Y-9081951D02*
X12266500Y-9211951D01*
X12266500Y-9081951D02*
X12136500Y-9211951D01*
X12266500Y-9146951D02*
G75*
G03*
X12266500Y-9146951I-65000J0D01*
G01*
X12136500Y-12565000D02*
X12266500Y-12695000D01*
X12266500Y-12565000D02*
X12136500Y-12695000D01*
X12266500Y-12630000D02*
G75*
G03*
X12266500Y-12630000I-65000J0D01*
G01*
X12205500Y-6370549D02*
X12335500Y-6500549D01*
X12335500Y-6370549D02*
X12205500Y-6500549D01*
X12335500Y-6435549D02*
G75*
G03*
X12335500Y-6435549I-65000J0D01*
G01*
X12205500Y-6870549D02*
X12335500Y-7000549D01*
X12335500Y-6870549D02*
X12205500Y-7000549D01*
X12335500Y-6935549D02*
G75*
G03*
X12335500Y-6935549I-65000J0D01*
G01*
X12205500Y-7370549D02*
X12335500Y-7500549D01*
X12335500Y-7370549D02*
X12205500Y-7500549D01*
X12335500Y-7435549D02*
G75*
G03*
X12335500Y-7435549I-65000J0D01*
G01*
X12205500Y-9846951D02*
X12335500Y-9976951D01*
X12335500Y-9846951D02*
X12205500Y-9976951D01*
X12335500Y-9911951D02*
G75*
G03*
X12335500Y-9911951I-65000J0D01*
G01*
X12205500Y-10346951D02*
X12335500Y-10476951D01*
X12335500Y-10346951D02*
X12205500Y-10476951D01*
X12335500Y-10411951D02*
G75*
G03*
X12335500Y-10411951I-65000J0D01*
G01*
X12205500Y-10846951D02*
X12335500Y-10976951D01*
X12335500Y-10846951D02*
X12205500Y-10976951D01*
X12335500Y-10911951D02*
G75*
G03*
X12335500Y-10911951I-65000J0D01*
G01*
X12205500Y-13330000D02*
X12335500Y-13460000D01*
X12335500Y-13330000D02*
X12205500Y-13460000D01*
X12335500Y-13395000D02*
G75*
G03*
X12335500Y-13395000I-65000J0D01*
G01*
X12205500Y-13830000D02*
X12335500Y-13960000D01*
X12335500Y-13830000D02*
X12205500Y-13960000D01*
X12335500Y-13895000D02*
G75*
G03*
X12335500Y-13895000I-65000J0D01*
G01*
X12205500Y-14330000D02*
X12335500Y-14460000D01*
X12335500Y-14330000D02*
X12205500Y-14460000D01*
X12335500Y-14395000D02*
G75*
G03*
X12335500Y-14395000I-65000J0D01*
G01*
X12426500Y-4895549D02*
X12556500Y-5025549D01*
X12556500Y-4895549D02*
X12426500Y-5025549D01*
X12556500Y-4960549D02*
G75*
G03*
X12556500Y-4960549I-65000J0D01*
G01*
X12426500Y-8371951D02*
X12556500Y-8501951D01*
X12556500Y-8371951D02*
X12426500Y-8501951D01*
X12556500Y-8436951D02*
G75*
G03*
X12556500Y-8436951I-65000J0D01*
G01*
X12426500Y-11855000D02*
X12556500Y-11985000D01*
X12556500Y-11855000D02*
X12426500Y-11985000D01*
X12556500Y-11920000D02*
G75*
G03*
X12556500Y-11920000I-65000J0D01*
G01*
X12736000Y-6363549D02*
X12866000Y-6493549D01*
X12866000Y-6363549D02*
X12736000Y-6493549D01*
X12866000Y-6428549D02*
G75*
G03*
X12866000Y-6428549I-65000J0D01*
G01*
X12736000Y-6863549D02*
X12866000Y-6993549D01*
X12866000Y-6863549D02*
X12736000Y-6993549D01*
X12866000Y-6928549D02*
G75*
G03*
X12866000Y-6928549I-65000J0D01*
G01*
X12736000Y-7363549D02*
X12866000Y-7493549D01*
X12866000Y-7363549D02*
X12736000Y-7493549D01*
X12866000Y-7428549D02*
G75*
G03*
X12866000Y-7428549I-65000J0D01*
G01*
X12736000Y-9839951D02*
X12866000Y-9969951D01*
X12866000Y-9839951D02*
X12736000Y-9969951D01*
X12866000Y-9904951D02*
G75*
G03*
X12866000Y-9904951I-65000J0D01*
G01*
X12736000Y-10339951D02*
X12866000Y-10469951D01*
X12866000Y-10339951D02*
X12736000Y-10469951D01*
X12866000Y-10404951D02*
G75*
G03*
X12866000Y-10404951I-65000J0D01*
G01*
X12736000Y-10839951D02*
X12866000Y-10969951D01*
X12866000Y-10839951D02*
X12736000Y-10969951D01*
X12866000Y-10904951D02*
G75*
G03*
X12866000Y-10904951I-65000J0D01*
G01*
X12736000Y-13323000D02*
X12866000Y-13453000D01*
X12866000Y-13323000D02*
X12736000Y-13453000D01*
X12866000Y-13388000D02*
G75*
G03*
X12866000Y-13388000I-65000J0D01*
G01*
X12736000Y-13823000D02*
X12866000Y-13953000D01*
X12866000Y-13823000D02*
X12736000Y-13953000D01*
X12866000Y-13888000D02*
G75*
G03*
X12866000Y-13888000I-65000J0D01*
G01*
X12736000Y-14323000D02*
X12866000Y-14453000D01*
X12866000Y-14323000D02*
X12736000Y-14453000D01*
X12866000Y-14388000D02*
G75*
G03*
X12866000Y-14388000I-65000J0D01*
G01*
X12816500Y-5355549D02*
X12946500Y-5485549D01*
X12946500Y-5355549D02*
X12816500Y-5485549D01*
X12946500Y-5420549D02*
G75*
G03*
X12946500Y-5420549I-65000J0D01*
G01*
X12816500Y-8831951D02*
X12946500Y-8961951D01*
X12946500Y-8831951D02*
X12816500Y-8961951D01*
X12946500Y-8896951D02*
G75*
G03*
X12946500Y-8896951I-65000J0D01*
G01*
X12816500Y-12315000D02*
X12946500Y-12445000D01*
X12946500Y-12315000D02*
X12816500Y-12445000D01*
X12946500Y-12380000D02*
G75*
G03*
X12946500Y-12380000I-65000J0D01*
G01*
D18*
X9847000Y-5067549D02*
X9997000Y-5217549D01*
X9997000Y-5067549D02*
X9847000Y-5217549D01*
X9922000Y-5067549D02*
X9922000Y-5217549D01*
X9847000Y-5142549D02*
X9997000Y-5142549D01*
X9847000Y-8543951D02*
X9997000Y-8693951D01*
X9997000Y-8543951D02*
X9847000Y-8693951D01*
X9922000Y-8543951D02*
X9922000Y-8693951D01*
X9847000Y-8618951D02*
X9997000Y-8618951D01*
X9847000Y-12027000D02*
X9997000Y-12177000D01*
X9997000Y-12027000D02*
X9847000Y-12177000D01*
X9922000Y-12027000D02*
X9922000Y-12177000D01*
X9847000Y-12102000D02*
X9997000Y-12102000D01*
X9866000Y-7290049D02*
X10016000Y-7440049D01*
X10016000Y-7290049D02*
X9866000Y-7440049D01*
X9941000Y-7290049D02*
X9941000Y-7440049D01*
X9866000Y-7365049D02*
X10016000Y-7365049D01*
X9866000Y-10766451D02*
X10016000Y-10916451D01*
X10016000Y-10766451D02*
X9866000Y-10916451D01*
X9941000Y-10766451D02*
X9941000Y-10916451D01*
X9866000Y-10841451D02*
X10016000Y-10841451D01*
X9866000Y-14249500D02*
X10016000Y-14399500D01*
X10016000Y-14249500D02*
X9866000Y-14399500D01*
X9941000Y-14249500D02*
X9941000Y-14399500D01*
X9866000Y-14324500D02*
X10016000Y-14324500D01*
X10667000Y-5067549D02*
X10817000Y-5217549D01*
X10817000Y-5067549D02*
X10667000Y-5217549D01*
X10742000Y-5067549D02*
X10742000Y-5217549D01*
X10667000Y-5142549D02*
X10817000Y-5142549D01*
X10667000Y-8543951D02*
X10817000Y-8693951D01*
X10817000Y-8543951D02*
X10667000Y-8693951D01*
X10742000Y-8543951D02*
X10742000Y-8693951D01*
X10667000Y-8618951D02*
X10817000Y-8618951D01*
X10667000Y-12027000D02*
X10817000Y-12177000D01*
X10817000Y-12027000D02*
X10667000Y-12177000D01*
X10742000Y-12027000D02*
X10742000Y-12177000D01*
X10667000Y-12102000D02*
X10817000Y-12102000D01*
X10686000Y-7290049D02*
X10836000Y-7440049D01*
X10836000Y-7290049D02*
X10686000Y-7440049D01*
X10761000Y-7290049D02*
X10761000Y-7440049D01*
X10686000Y-7365049D02*
X10836000Y-7365049D01*
X10686000Y-10766451D02*
X10836000Y-10916451D01*
X10836000Y-10766451D02*
X10686000Y-10916451D01*
X10761000Y-10766451D02*
X10761000Y-10916451D01*
X10686000Y-10841451D02*
X10836000Y-10841451D01*
X10686000Y-14249500D02*
X10836000Y-14399500D01*
X10836000Y-14249500D02*
X10686000Y-14399500D01*
X10761000Y-14249500D02*
X10761000Y-14399500D01*
X10686000Y-14324500D02*
X10836000Y-14324500D01*
D19*
X6304000Y-5000549D02*
X6624000Y-5320549D01*
X6624000Y-5000549D02*
X6304000Y-5320549D01*
X6577138Y-5273687D02*
X6577138Y-5047411D01*
X6350862Y-5047411D01*
X6350862Y-5273687D01*
X6577138Y-5273687D01*
X6304000Y-7200549D02*
X6624000Y-7520549D01*
X6624000Y-7200549D02*
X6304000Y-7520549D01*
X6577138Y-7473687D02*
X6577138Y-7247411D01*
X6350862Y-7247411D01*
X6350862Y-7473687D01*
X6577138Y-7473687D01*
X6304000Y-8476951D02*
X6624000Y-8796951D01*
X6624000Y-8476951D02*
X6304000Y-8796951D01*
X6577138Y-8750089D02*
X6577138Y-8523813D01*
X6350862Y-8523813D01*
X6350862Y-8750089D01*
X6577138Y-8750089D01*
X6304000Y-10676951D02*
X6624000Y-10996951D01*
X6624000Y-10676951D02*
X6304000Y-10996951D01*
X6577138Y-10950089D02*
X6577138Y-10723813D01*
X6350862Y-10723813D01*
X6350862Y-10950089D01*
X6577138Y-10950089D01*
X6304000Y-11960000D02*
X6624000Y-12280000D01*
X6624000Y-11960000D02*
X6304000Y-12280000D01*
X6577138Y-12233138D02*
X6577138Y-12006862D01*
X6350862Y-12006862D01*
X6350862Y-12233138D01*
X6577138Y-12233138D01*
X6304000Y-14160000D02*
X6624000Y-14480000D01*
X6624000Y-14160000D02*
X6304000Y-14480000D01*
X6577138Y-14433138D02*
X6577138Y-14206862D01*
X6350862Y-14206862D01*
X6350862Y-14433138D01*
X6577138Y-14433138D01*
D11*
X6319119Y-15032976D02*
X6319119Y-14832976D01*
X6366738Y-14832976D01*
X6395309Y-14842500D01*
X6414357Y-14861548D01*
X6423881Y-14880595D01*
X6433405Y-14918690D01*
X6433405Y-14947262D01*
X6423881Y-14985357D01*
X6414357Y-15004405D01*
X6395309Y-15023452D01*
X6366738Y-15032976D01*
X6319119Y-15032976D01*
X6519119Y-15032976D02*
X6519119Y-14899643D01*
X6519119Y-14937738D02*
X6528643Y-14918690D01*
X6538167Y-14909167D01*
X6557214Y-14899643D01*
X6576262Y-14899643D01*
X6642928Y-15032976D02*
X6642928Y-14899643D01*
X6642928Y-14832976D02*
X6633405Y-14842500D01*
X6642928Y-14852024D01*
X6652452Y-14842500D01*
X6642928Y-14832976D01*
X6642928Y-14852024D01*
X6766738Y-15032976D02*
X6747690Y-15023452D01*
X6738167Y-15004405D01*
X6738167Y-14832976D01*
X6871500Y-15032976D02*
X6852452Y-15023452D01*
X6842928Y-15004405D01*
X6842928Y-14832976D01*
X7100071Y-15032976D02*
X7100071Y-14832976D01*
X7166738Y-14975833D01*
X7233405Y-14832976D01*
X7233405Y-15032976D01*
X7414357Y-15032976D02*
X7414357Y-14928214D01*
X7404833Y-14909167D01*
X7385786Y-14899643D01*
X7347690Y-14899643D01*
X7328643Y-14909167D01*
X7414357Y-15023452D02*
X7395309Y-15032976D01*
X7347690Y-15032976D01*
X7328643Y-15023452D01*
X7319119Y-15004405D01*
X7319119Y-14985357D01*
X7328643Y-14966309D01*
X7347690Y-14956786D01*
X7395309Y-14956786D01*
X7414357Y-14947262D01*
X7509595Y-14899643D02*
X7509595Y-15099643D01*
X7509595Y-14909167D02*
X7528643Y-14899643D01*
X7566738Y-14899643D01*
X7585786Y-14909167D01*
X7595309Y-14918690D01*
X7604833Y-14937738D01*
X7604833Y-14994881D01*
X7595309Y-15013928D01*
X7585786Y-15023452D01*
X7566738Y-15032976D01*
X7528643Y-15032976D01*
X7509595Y-15023452D01*
X7690548Y-15013928D02*
X7700071Y-15023452D01*
X7690548Y-15032976D01*
X7681024Y-15023452D01*
X7690548Y-15013928D01*
X7690548Y-15032976D01*
X7690548Y-14909167D02*
X7700071Y-14918690D01*
X7690548Y-14928214D01*
X7681024Y-14918690D01*
X7690548Y-14909167D01*
X7690548Y-14928214D01*
D12*
X6021500Y-15342500D02*
X6061500Y-15382500D01*
X6061500Y-15342500D02*
X6021500Y-15382500D01*
D11*
X6357214Y-15252976D02*
X6376262Y-15252976D01*
X6395309Y-15262500D01*
X6404833Y-15272024D01*
X6414357Y-15291071D01*
X6423881Y-15329167D01*
X6423881Y-15376786D01*
X6414357Y-15414881D01*
X6404833Y-15433928D01*
X6395309Y-15443452D01*
X6376262Y-15452976D01*
X6357214Y-15452976D01*
X6338167Y-15443452D01*
X6328643Y-15433928D01*
X6319119Y-15414881D01*
X6309595Y-15376786D01*
X6309595Y-15329167D01*
X6319119Y-15291071D01*
X6328643Y-15272024D01*
X6338167Y-15262500D01*
X6357214Y-15252976D01*
X6509595Y-15433928D02*
X6519119Y-15443452D01*
X6509595Y-15452976D01*
X6500071Y-15443452D01*
X6509595Y-15433928D01*
X6509595Y-15452976D01*
X6690548Y-15319643D02*
X6690548Y-15452976D01*
X6642928Y-15243452D02*
X6595309Y-15386309D01*
X6719119Y-15386309D01*
X6833405Y-15252976D02*
X6852452Y-15252976D01*
X6871500Y-15262500D01*
X6881024Y-15272024D01*
X6890548Y-15291071D01*
X6900071Y-15329167D01*
X6900071Y-15376786D01*
X6890548Y-15414881D01*
X6881024Y-15433928D01*
X6871500Y-15443452D01*
X6852452Y-15452976D01*
X6833405Y-15452976D01*
X6814357Y-15443452D01*
X6804833Y-15433928D01*
X6795309Y-15414881D01*
X6785786Y-15376786D01*
X6785786Y-15329167D01*
X6795309Y-15291071D01*
X6804833Y-15272024D01*
X6814357Y-15262500D01*
X6833405Y-15252976D01*
X7023881Y-15252976D02*
X7042928Y-15252976D01*
X7061976Y-15262500D01*
X7071500Y-15272024D01*
X7081024Y-15291071D01*
X7090548Y-15329167D01*
X7090548Y-15376786D01*
X7081024Y-15414881D01*
X7071500Y-15433928D01*
X7061976Y-15443452D01*
X7042928Y-15452976D01*
X7023881Y-15452976D01*
X7004833Y-15443452D01*
X6995309Y-15433928D01*
X6985786Y-15414881D01*
X6976262Y-15376786D01*
X6976262Y-15329167D01*
X6985786Y-15291071D01*
X6995309Y-15272024D01*
X7004833Y-15262500D01*
X7023881Y-15252976D01*
X7176262Y-15452976D02*
X7176262Y-15319643D01*
X7176262Y-15338690D02*
X7185786Y-15329167D01*
X7204833Y-15319643D01*
X7233405Y-15319643D01*
X7252452Y-15329167D01*
X7261976Y-15348214D01*
X7261976Y-15452976D01*
X7261976Y-15348214D02*
X7271500Y-15329167D01*
X7290548Y-15319643D01*
X7319119Y-15319643D01*
X7338167Y-15329167D01*
X7347690Y-15348214D01*
X7347690Y-15452976D01*
X7442928Y-15452976D02*
X7442928Y-15319643D01*
X7442928Y-15338690D02*
X7452452Y-15329167D01*
X7471500Y-15319643D01*
X7500071Y-15319643D01*
X7519119Y-15329167D01*
X7528643Y-15348214D01*
X7528643Y-15452976D01*
X7528643Y-15348214D02*
X7538167Y-15329167D01*
X7557214Y-15319643D01*
X7585786Y-15319643D01*
X7604833Y-15329167D01*
X7614357Y-15348214D01*
X7614357Y-15452976D01*
X8004833Y-15243452D02*
X7833405Y-15500595D01*
X8261976Y-15252976D02*
X8281024Y-15252976D01*
X8300071Y-15262500D01*
X8309595Y-15272024D01*
X8319119Y-15291071D01*
X8328643Y-15329167D01*
X8328643Y-15376786D01*
X8319119Y-15414881D01*
X8309595Y-15433928D01*
X8300071Y-15443452D01*
X8281024Y-15452976D01*
X8261976Y-15452976D01*
X8242928Y-15443452D01*
X8233405Y-15433928D01*
X8223881Y-15414881D01*
X8214357Y-15376786D01*
X8214357Y-15329167D01*
X8223881Y-15291071D01*
X8233405Y-15272024D01*
X8242928Y-15262500D01*
X8261976Y-15252976D01*
X8414357Y-15433928D02*
X8423881Y-15443452D01*
X8414357Y-15452976D01*
X8404833Y-15443452D01*
X8414357Y-15433928D01*
X8414357Y-15452976D01*
X8547690Y-15252976D02*
X8566738Y-15252976D01*
X8585786Y-15262500D01*
X8595310Y-15272024D01*
X8604833Y-15291071D01*
X8614357Y-15329167D01*
X8614357Y-15376786D01*
X8604833Y-15414881D01*
X8595310Y-15433928D01*
X8585786Y-15443452D01*
X8566738Y-15452976D01*
X8547690Y-15452976D01*
X8528643Y-15443452D01*
X8519119Y-15433928D01*
X8509595Y-15414881D01*
X8500071Y-15376786D01*
X8500071Y-15329167D01*
X8509595Y-15291071D01*
X8519119Y-15272024D01*
X8528643Y-15262500D01*
X8547690Y-15252976D01*
X8804833Y-15452976D02*
X8690548Y-15452976D01*
X8747690Y-15452976D02*
X8747690Y-15252976D01*
X8728643Y-15281548D01*
X8709595Y-15300595D01*
X8690548Y-15310119D01*
X8985786Y-15252976D02*
X8890548Y-15252976D01*
X8881024Y-15348214D01*
X8890548Y-15338690D01*
X8909595Y-15329167D01*
X8957214Y-15329167D01*
X8976262Y-15338690D01*
X8985786Y-15348214D01*
X8995310Y-15367262D01*
X8995310Y-15414881D01*
X8985786Y-15433928D01*
X8976262Y-15443452D01*
X8957214Y-15452976D01*
X8909595Y-15452976D01*
X8890548Y-15443452D01*
X8881024Y-15433928D01*
X9061976Y-15252976D02*
X9195310Y-15252976D01*
X9109595Y-15452976D01*
X9261976Y-15252976D02*
X9261976Y-15291071D01*
X9338167Y-15252976D02*
X9338167Y-15291071D01*
X9633405Y-15529167D02*
X9623881Y-15519643D01*
X9604833Y-15491071D01*
X9595310Y-15472024D01*
X9585786Y-15443452D01*
X9576262Y-15395833D01*
X9576262Y-15357738D01*
X9585786Y-15310119D01*
X9595310Y-15281548D01*
X9604833Y-15262500D01*
X9623881Y-15233928D01*
X9633405Y-15224405D01*
X9700071Y-15272024D02*
X9709595Y-15262500D01*
X9728643Y-15252976D01*
X9776262Y-15252976D01*
X9795310Y-15262500D01*
X9804833Y-15272024D01*
X9814357Y-15291071D01*
X9814357Y-15310119D01*
X9804833Y-15338690D01*
X9690548Y-15452976D01*
X9814357Y-15452976D01*
X9985786Y-15319643D02*
X9985786Y-15452976D01*
X9938167Y-15243452D02*
X9890548Y-15386309D01*
X10014357Y-15386309D01*
X10242929Y-15452976D02*
X10242929Y-15252976D01*
X10328643Y-15452976D02*
X10328643Y-15348214D01*
X10319119Y-15329167D01*
X10300071Y-15319643D01*
X10271500Y-15319643D01*
X10252452Y-15329167D01*
X10242929Y-15338690D01*
X10452452Y-15452976D02*
X10433405Y-15443452D01*
X10423881Y-15433928D01*
X10414357Y-15414881D01*
X10414357Y-15357738D01*
X10423881Y-15338690D01*
X10433405Y-15329167D01*
X10452452Y-15319643D01*
X10481024Y-15319643D01*
X10500071Y-15329167D01*
X10509595Y-15338690D01*
X10519119Y-15357738D01*
X10519119Y-15414881D01*
X10509595Y-15433928D01*
X10500071Y-15443452D01*
X10481024Y-15452976D01*
X10452452Y-15452976D01*
X10633405Y-15452976D02*
X10614357Y-15443452D01*
X10604833Y-15424405D01*
X10604833Y-15252976D01*
X10785786Y-15443452D02*
X10766738Y-15452976D01*
X10728643Y-15452976D01*
X10709595Y-15443452D01*
X10700071Y-15424405D01*
X10700071Y-15348214D01*
X10709595Y-15329167D01*
X10728643Y-15319643D01*
X10766738Y-15319643D01*
X10785786Y-15329167D01*
X10795310Y-15348214D01*
X10795310Y-15367262D01*
X10700071Y-15386309D01*
X10871500Y-15443452D02*
X10890548Y-15452976D01*
X10928643Y-15452976D01*
X10947690Y-15443452D01*
X10957214Y-15424405D01*
X10957214Y-15414881D01*
X10947690Y-15395833D01*
X10928643Y-15386309D01*
X10900071Y-15386309D01*
X10881024Y-15376786D01*
X10871500Y-15357738D01*
X10871500Y-15348214D01*
X10881024Y-15329167D01*
X10900071Y-15319643D01*
X10928643Y-15319643D01*
X10947690Y-15329167D01*
X11023881Y-15529167D02*
X11033405Y-15519643D01*
X11052452Y-15491071D01*
X11061976Y-15472024D01*
X11071500Y-15443452D01*
X11081024Y-15395833D01*
X11081024Y-15357738D01*
X11071500Y-15310119D01*
X11061976Y-15281548D01*
X11052452Y-15262500D01*
X11033405Y-15233928D01*
X11023881Y-15224405D01*
D13*
X6061500Y-15626500D02*
G75*
G03*
X6061500Y-15626500I-35000J0D01*
G01*
D11*
X6357214Y-15516976D02*
X6376262Y-15516976D01*
X6395309Y-15526500D01*
X6404833Y-15536024D01*
X6414357Y-15555071D01*
X6423881Y-15593167D01*
X6423881Y-15640786D01*
X6414357Y-15678881D01*
X6404833Y-15697928D01*
X6395309Y-15707452D01*
X6376262Y-15716976D01*
X6357214Y-15716976D01*
X6338167Y-15707452D01*
X6328643Y-15697928D01*
X6319119Y-15678881D01*
X6309595Y-15640786D01*
X6309595Y-15593167D01*
X6319119Y-15555071D01*
X6328643Y-15536024D01*
X6338167Y-15526500D01*
X6357214Y-15516976D01*
X6509595Y-15697928D02*
X6519119Y-15707452D01*
X6509595Y-15716976D01*
X6500071Y-15707452D01*
X6509595Y-15697928D01*
X6509595Y-15716976D01*
X6585786Y-15516976D02*
X6719119Y-15516976D01*
X6633405Y-15716976D01*
X6833405Y-15516976D02*
X6852452Y-15516976D01*
X6871500Y-15526500D01*
X6881024Y-15536024D01*
X6890548Y-15555071D01*
X6900071Y-15593167D01*
X6900071Y-15640786D01*
X6890548Y-15678881D01*
X6881024Y-15697928D01*
X6871500Y-15707452D01*
X6852452Y-15716976D01*
X6833405Y-15716976D01*
X6814357Y-15707452D01*
X6804833Y-15697928D01*
X6795309Y-15678881D01*
X6785786Y-15640786D01*
X6785786Y-15593167D01*
X6795309Y-15555071D01*
X6804833Y-15536024D01*
X6814357Y-15526500D01*
X6833405Y-15516976D01*
X7023881Y-15516976D02*
X7042928Y-15516976D01*
X7061976Y-15526500D01*
X7071500Y-15536024D01*
X7081024Y-15555071D01*
X7090548Y-15593167D01*
X7090548Y-15640786D01*
X7081024Y-15678881D01*
X7071500Y-15697928D01*
X7061976Y-15707452D01*
X7042928Y-15716976D01*
X7023881Y-15716976D01*
X7004833Y-15707452D01*
X6995309Y-15697928D01*
X6985786Y-15678881D01*
X6976262Y-15640786D01*
X6976262Y-15593167D01*
X6985786Y-15555071D01*
X6995309Y-15536024D01*
X7004833Y-15526500D01*
X7023881Y-15516976D01*
X7176262Y-15716976D02*
X7176262Y-15583643D01*
X7176262Y-15602690D02*
X7185786Y-15593167D01*
X7204833Y-15583643D01*
X7233405Y-15583643D01*
X7252452Y-15593167D01*
X7261976Y-15612214D01*
X7261976Y-15716976D01*
X7261976Y-15612214D02*
X7271500Y-15593167D01*
X7290548Y-15583643D01*
X7319119Y-15583643D01*
X7338167Y-15593167D01*
X7347690Y-15612214D01*
X7347690Y-15716976D01*
X7442928Y-15716976D02*
X7442928Y-15583643D01*
X7442928Y-15602690D02*
X7452452Y-15593167D01*
X7471500Y-15583643D01*
X7500071Y-15583643D01*
X7519119Y-15593167D01*
X7528643Y-15612214D01*
X7528643Y-15716976D01*
X7528643Y-15612214D02*
X7538167Y-15593167D01*
X7557214Y-15583643D01*
X7585786Y-15583643D01*
X7604833Y-15593167D01*
X7614357Y-15612214D01*
X7614357Y-15716976D01*
X8004833Y-15507452D02*
X7833405Y-15764595D01*
X8261976Y-15516976D02*
X8281024Y-15516976D01*
X8300071Y-15526500D01*
X8309595Y-15536024D01*
X8319119Y-15555071D01*
X8328643Y-15593167D01*
X8328643Y-15640786D01*
X8319119Y-15678881D01*
X8309595Y-15697928D01*
X8300071Y-15707452D01*
X8281024Y-15716976D01*
X8261976Y-15716976D01*
X8242928Y-15707452D01*
X8233405Y-15697928D01*
X8223881Y-15678881D01*
X8214357Y-15640786D01*
X8214357Y-15593167D01*
X8223881Y-15555071D01*
X8233405Y-15536024D01*
X8242928Y-15526500D01*
X8261976Y-15516976D01*
X8414357Y-15697928D02*
X8423881Y-15707452D01*
X8414357Y-15716976D01*
X8404833Y-15707452D01*
X8414357Y-15697928D01*
X8414357Y-15716976D01*
X8547690Y-15516976D02*
X8566738Y-15516976D01*
X8585786Y-15526500D01*
X8595310Y-15536024D01*
X8604833Y-15555071D01*
X8614357Y-15593167D01*
X8614357Y-15640786D01*
X8604833Y-15678881D01*
X8595310Y-15697928D01*
X8585786Y-15707452D01*
X8566738Y-15716976D01*
X8547690Y-15716976D01*
X8528643Y-15707452D01*
X8519119Y-15697928D01*
X8509595Y-15678881D01*
X8500071Y-15640786D01*
X8500071Y-15593167D01*
X8509595Y-15555071D01*
X8519119Y-15536024D01*
X8528643Y-15526500D01*
X8547690Y-15516976D01*
X8690548Y-15536024D02*
X8700071Y-15526500D01*
X8719119Y-15516976D01*
X8766738Y-15516976D01*
X8785786Y-15526500D01*
X8795310Y-15536024D01*
X8804833Y-15555071D01*
X8804833Y-15574119D01*
X8795310Y-15602690D01*
X8681024Y-15716976D01*
X8804833Y-15716976D01*
X8871500Y-15516976D02*
X9004833Y-15516976D01*
X8919119Y-15716976D01*
X9166738Y-15516976D02*
X9128643Y-15516976D01*
X9109595Y-15526500D01*
X9100071Y-15536024D01*
X9081024Y-15564595D01*
X9071500Y-15602690D01*
X9071500Y-15678881D01*
X9081024Y-15697928D01*
X9090548Y-15707452D01*
X9109595Y-15716976D01*
X9147690Y-15716976D01*
X9166738Y-15707452D01*
X9176262Y-15697928D01*
X9185786Y-15678881D01*
X9185786Y-15631262D01*
X9176262Y-15612214D01*
X9166738Y-15602690D01*
X9147690Y-15593167D01*
X9109595Y-15593167D01*
X9090548Y-15602690D01*
X9081024Y-15612214D01*
X9071500Y-15631262D01*
X9261976Y-15516976D02*
X9261976Y-15555071D01*
X9338167Y-15516976D02*
X9338167Y-15555071D01*
X9633405Y-15793167D02*
X9623881Y-15783643D01*
X9604833Y-15755071D01*
X9595310Y-15736024D01*
X9585786Y-15707452D01*
X9576262Y-15659833D01*
X9576262Y-15621738D01*
X9585786Y-15574119D01*
X9595310Y-15545548D01*
X9604833Y-15526500D01*
X9623881Y-15497928D01*
X9633405Y-15488405D01*
X9804833Y-15516976D02*
X9709595Y-15516976D01*
X9700071Y-15612214D01*
X9709595Y-15602690D01*
X9728643Y-15593167D01*
X9776262Y-15593167D01*
X9795310Y-15602690D01*
X9804833Y-15612214D01*
X9814357Y-15631262D01*
X9814357Y-15678881D01*
X9804833Y-15697928D01*
X9795310Y-15707452D01*
X9776262Y-15716976D01*
X9728643Y-15716976D01*
X9709595Y-15707452D01*
X9700071Y-15697928D01*
X9985786Y-15583643D02*
X9985786Y-15716976D01*
X9938167Y-15507452D02*
X9890548Y-15650309D01*
X10014357Y-15650309D01*
X10242929Y-15716976D02*
X10242929Y-15516976D01*
X10328643Y-15716976D02*
X10328643Y-15612214D01*
X10319119Y-15593167D01*
X10300071Y-15583643D01*
X10271500Y-15583643D01*
X10252452Y-15593167D01*
X10242929Y-15602690D01*
X10452452Y-15716976D02*
X10433405Y-15707452D01*
X10423881Y-15697928D01*
X10414357Y-15678881D01*
X10414357Y-15621738D01*
X10423881Y-15602690D01*
X10433405Y-15593167D01*
X10452452Y-15583643D01*
X10481024Y-15583643D01*
X10500071Y-15593167D01*
X10509595Y-15602690D01*
X10519119Y-15621738D01*
X10519119Y-15678881D01*
X10509595Y-15697928D01*
X10500071Y-15707452D01*
X10481024Y-15716976D01*
X10452452Y-15716976D01*
X10633405Y-15716976D02*
X10614357Y-15707452D01*
X10604833Y-15688405D01*
X10604833Y-15516976D01*
X10785786Y-15707452D02*
X10766738Y-15716976D01*
X10728643Y-15716976D01*
X10709595Y-15707452D01*
X10700071Y-15688405D01*
X10700071Y-15612214D01*
X10709595Y-15593167D01*
X10728643Y-15583643D01*
X10766738Y-15583643D01*
X10785786Y-15593167D01*
X10795310Y-15612214D01*
X10795310Y-15631262D01*
X10700071Y-15650309D01*
X10871500Y-15707452D02*
X10890548Y-15716976D01*
X10928643Y-15716976D01*
X10947690Y-15707452D01*
X10957214Y-15688405D01*
X10957214Y-15678881D01*
X10947690Y-15659833D01*
X10928643Y-15650309D01*
X10900071Y-15650309D01*
X10881024Y-15640786D01*
X10871500Y-15621738D01*
X10871500Y-15612214D01*
X10881024Y-15593167D01*
X10900071Y-15583643D01*
X10928643Y-15583643D01*
X10947690Y-15593167D01*
X11023881Y-15793167D02*
X11033405Y-15783643D01*
X11052452Y-15755071D01*
X11061976Y-15736024D01*
X11071500Y-15707452D01*
X11081024Y-15659833D01*
X11081024Y-15621738D01*
X11071500Y-15574119D01*
X11061976Y-15545548D01*
X11052452Y-15526500D01*
X11033405Y-15497928D01*
X11023881Y-15488405D01*
D14*
X6021500Y-15850500D02*
X6021500Y-15930500D01*
X5981500Y-15890500D02*
X6061500Y-15890500D01*
D11*
X6357214Y-15780976D02*
X6376262Y-15780976D01*
X6395309Y-15790500D01*
X6404833Y-15800024D01*
X6414357Y-15819071D01*
X6423881Y-15857167D01*
X6423881Y-15904786D01*
X6414357Y-15942881D01*
X6404833Y-15961928D01*
X6395309Y-15971452D01*
X6376262Y-15980976D01*
X6357214Y-15980976D01*
X6338167Y-15971452D01*
X6328643Y-15961928D01*
X6319119Y-15942881D01*
X6309595Y-15904786D01*
X6309595Y-15857167D01*
X6319119Y-15819071D01*
X6328643Y-15800024D01*
X6338167Y-15790500D01*
X6357214Y-15780976D01*
X6509595Y-15961928D02*
X6519119Y-15971452D01*
X6509595Y-15980976D01*
X6500071Y-15971452D01*
X6509595Y-15961928D01*
X6509595Y-15980976D01*
X6633405Y-15866690D02*
X6614357Y-15857167D01*
X6604833Y-15847643D01*
X6595309Y-15828595D01*
X6595309Y-15819071D01*
X6604833Y-15800024D01*
X6614357Y-15790500D01*
X6633405Y-15780976D01*
X6671500Y-15780976D01*
X6690548Y-15790500D01*
X6700071Y-15800024D01*
X6709595Y-15819071D01*
X6709595Y-15828595D01*
X6700071Y-15847643D01*
X6690548Y-15857167D01*
X6671500Y-15866690D01*
X6633405Y-15866690D01*
X6614357Y-15876214D01*
X6604833Y-15885738D01*
X6595309Y-15904786D01*
X6595309Y-15942881D01*
X6604833Y-15961928D01*
X6614357Y-15971452D01*
X6633405Y-15980976D01*
X6671500Y-15980976D01*
X6690548Y-15971452D01*
X6700071Y-15961928D01*
X6709595Y-15942881D01*
X6709595Y-15904786D01*
X6700071Y-15885738D01*
X6690548Y-15876214D01*
X6671500Y-15866690D01*
X6833405Y-15780976D02*
X6852452Y-15780976D01*
X6871500Y-15790500D01*
X6881024Y-15800024D01*
X6890548Y-15819071D01*
X6900071Y-15857167D01*
X6900071Y-15904786D01*
X6890548Y-15942881D01*
X6881024Y-15961928D01*
X6871500Y-15971452D01*
X6852452Y-15980976D01*
X6833405Y-15980976D01*
X6814357Y-15971452D01*
X6804833Y-15961928D01*
X6795309Y-15942881D01*
X6785786Y-15904786D01*
X6785786Y-15857167D01*
X6795309Y-15819071D01*
X6804833Y-15800024D01*
X6814357Y-15790500D01*
X6833405Y-15780976D01*
X7023881Y-15780976D02*
X7042928Y-15780976D01*
X7061976Y-15790500D01*
X7071500Y-15800024D01*
X7081024Y-15819071D01*
X7090548Y-15857167D01*
X7090548Y-15904786D01*
X7081024Y-15942881D01*
X7071500Y-15961928D01*
X7061976Y-15971452D01*
X7042928Y-15980976D01*
X7023881Y-15980976D01*
X7004833Y-15971452D01*
X6995309Y-15961928D01*
X6985786Y-15942881D01*
X6976262Y-15904786D01*
X6976262Y-15857167D01*
X6985786Y-15819071D01*
X6995309Y-15800024D01*
X7004833Y-15790500D01*
X7023881Y-15780976D01*
X7176262Y-15980976D02*
X7176262Y-15847643D01*
X7176262Y-15866690D02*
X7185786Y-15857167D01*
X7204833Y-15847643D01*
X7233405Y-15847643D01*
X7252452Y-15857167D01*
X7261976Y-15876214D01*
X7261976Y-15980976D01*
X7261976Y-15876214D02*
X7271500Y-15857167D01*
X7290548Y-15847643D01*
X7319119Y-15847643D01*
X7338167Y-15857167D01*
X7347690Y-15876214D01*
X7347690Y-15980976D01*
X7442928Y-15980976D02*
X7442928Y-15847643D01*
X7442928Y-15866690D02*
X7452452Y-15857167D01*
X7471500Y-15847643D01*
X7500071Y-15847643D01*
X7519119Y-15857167D01*
X7528643Y-15876214D01*
X7528643Y-15980976D01*
X7528643Y-15876214D02*
X7538167Y-15857167D01*
X7557214Y-15847643D01*
X7585786Y-15847643D01*
X7604833Y-15857167D01*
X7614357Y-15876214D01*
X7614357Y-15980976D01*
X8004833Y-15771452D02*
X7833405Y-16028595D01*
X8261976Y-15780976D02*
X8281024Y-15780976D01*
X8300071Y-15790500D01*
X8309595Y-15800024D01*
X8319119Y-15819071D01*
X8328643Y-15857167D01*
X8328643Y-15904786D01*
X8319119Y-15942881D01*
X8309595Y-15961928D01*
X8300071Y-15971452D01*
X8281024Y-15980976D01*
X8261976Y-15980976D01*
X8242928Y-15971452D01*
X8233405Y-15961928D01*
X8223881Y-15942881D01*
X8214357Y-15904786D01*
X8214357Y-15857167D01*
X8223881Y-15819071D01*
X8233405Y-15800024D01*
X8242928Y-15790500D01*
X8261976Y-15780976D01*
X8414357Y-15961928D02*
X8423881Y-15971452D01*
X8414357Y-15980976D01*
X8404833Y-15971452D01*
X8414357Y-15961928D01*
X8414357Y-15980976D01*
X8547690Y-15780976D02*
X8566738Y-15780976D01*
X8585786Y-15790500D01*
X8595310Y-15800024D01*
X8604833Y-15819071D01*
X8614357Y-15857167D01*
X8614357Y-15904786D01*
X8604833Y-15942881D01*
X8595310Y-15961928D01*
X8585786Y-15971452D01*
X8566738Y-15980976D01*
X8547690Y-15980976D01*
X8528643Y-15971452D01*
X8519119Y-15961928D01*
X8509595Y-15942881D01*
X8500071Y-15904786D01*
X8500071Y-15857167D01*
X8509595Y-15819071D01*
X8519119Y-15800024D01*
X8528643Y-15790500D01*
X8547690Y-15780976D01*
X8681024Y-15780976D02*
X8804833Y-15780976D01*
X8738167Y-15857167D01*
X8766738Y-15857167D01*
X8785786Y-15866690D01*
X8795310Y-15876214D01*
X8804833Y-15895262D01*
X8804833Y-15942881D01*
X8795310Y-15961928D01*
X8785786Y-15971452D01*
X8766738Y-15980976D01*
X8709595Y-15980976D01*
X8690548Y-15971452D01*
X8681024Y-15961928D01*
X8995310Y-15980976D02*
X8881024Y-15980976D01*
X8938167Y-15980976D02*
X8938167Y-15780976D01*
X8919119Y-15809548D01*
X8900071Y-15828595D01*
X8881024Y-15838119D01*
X9176262Y-15780976D02*
X9081024Y-15780976D01*
X9071500Y-15876214D01*
X9081024Y-15866690D01*
X9100071Y-15857167D01*
X9147690Y-15857167D01*
X9166738Y-15866690D01*
X9176262Y-15876214D01*
X9185786Y-15895262D01*
X9185786Y-15942881D01*
X9176262Y-15961928D01*
X9166738Y-15971452D01*
X9147690Y-15980976D01*
X9100071Y-15980976D01*
X9081024Y-15971452D01*
X9071500Y-15961928D01*
X9261976Y-15780976D02*
X9261976Y-15819071D01*
X9338167Y-15780976D02*
X9338167Y-15819071D01*
X9633405Y-16057167D02*
X9623881Y-16047643D01*
X9604833Y-16019071D01*
X9595310Y-16000024D01*
X9585786Y-15971452D01*
X9576262Y-15923833D01*
X9576262Y-15885738D01*
X9585786Y-15838119D01*
X9595310Y-15809548D01*
X9604833Y-15790500D01*
X9623881Y-15761928D01*
X9633405Y-15752405D01*
X9814357Y-15980976D02*
X9700071Y-15980976D01*
X9757214Y-15980976D02*
X9757214Y-15780976D01*
X9738167Y-15809548D01*
X9719119Y-15828595D01*
X9700071Y-15838119D01*
X10004833Y-15980976D02*
X9890548Y-15980976D01*
X9947690Y-15980976D02*
X9947690Y-15780976D01*
X9928643Y-15809548D01*
X9909595Y-15828595D01*
X9890548Y-15838119D01*
X10176262Y-15847643D02*
X10176262Y-15980976D01*
X10128643Y-15771452D02*
X10081024Y-15914309D01*
X10204833Y-15914309D01*
X10433405Y-15980976D02*
X10433405Y-15780976D01*
X10519119Y-15980976D02*
X10519119Y-15876214D01*
X10509595Y-15857167D01*
X10490548Y-15847643D01*
X10461976Y-15847643D01*
X10442929Y-15857167D01*
X10433405Y-15866690D01*
X10642929Y-15980976D02*
X10623881Y-15971452D01*
X10614357Y-15961928D01*
X10604833Y-15942881D01*
X10604833Y-15885738D01*
X10614357Y-15866690D01*
X10623881Y-15857167D01*
X10642929Y-15847643D01*
X10671500Y-15847643D01*
X10690548Y-15857167D01*
X10700071Y-15866690D01*
X10709595Y-15885738D01*
X10709595Y-15942881D01*
X10700071Y-15961928D01*
X10690548Y-15971452D01*
X10671500Y-15980976D01*
X10642929Y-15980976D01*
X10823881Y-15980976D02*
X10804833Y-15971452D01*
X10795310Y-15952405D01*
X10795310Y-15780976D01*
X10976262Y-15971452D02*
X10957214Y-15980976D01*
X10919119Y-15980976D01*
X10900071Y-15971452D01*
X10890548Y-15952405D01*
X10890548Y-15876214D01*
X10900071Y-15857167D01*
X10919119Y-15847643D01*
X10957214Y-15847643D01*
X10976262Y-15857167D01*
X10985786Y-15876214D01*
X10985786Y-15895262D01*
X10890548Y-15914309D01*
X11061976Y-15971452D02*
X11081024Y-15980976D01*
X11119119Y-15980976D01*
X11138167Y-15971452D01*
X11147690Y-15952405D01*
X11147690Y-15942881D01*
X11138167Y-15923833D01*
X11119119Y-15914309D01*
X11090548Y-15914309D01*
X11071500Y-15904786D01*
X11061976Y-15885738D01*
X11061976Y-15876214D01*
X11071500Y-15857167D01*
X11090548Y-15847643D01*
X11119119Y-15847643D01*
X11138167Y-15857167D01*
X11214357Y-16057167D02*
X11223881Y-16047643D01*
X11242928Y-16019071D01*
X11252452Y-16000024D01*
X11261976Y-15971452D01*
X11271500Y-15923833D01*
X11271500Y-15885738D01*
X11261976Y-15838119D01*
X11252452Y-15809548D01*
X11242928Y-15790500D01*
X11223881Y-15761928D01*
X11214357Y-15752405D01*
D15*
X6048320Y-16186320D02*
X6048320Y-16122680D01*
X5984680Y-16122680D01*
X5984680Y-16186320D01*
X6048320Y-16186320D01*
D11*
X6357214Y-16044976D02*
X6376262Y-16044976D01*
X6395309Y-16054500D01*
X6404833Y-16064024D01*
X6414357Y-16083071D01*
X6423881Y-16121167D01*
X6423881Y-16168786D01*
X6414357Y-16206881D01*
X6404833Y-16225928D01*
X6395309Y-16235452D01*
X6376262Y-16244976D01*
X6357214Y-16244976D01*
X6338167Y-16235452D01*
X6328643Y-16225928D01*
X6319119Y-16206881D01*
X6309595Y-16168786D01*
X6309595Y-16121167D01*
X6319119Y-16083071D01*
X6328643Y-16064024D01*
X6338167Y-16054500D01*
X6357214Y-16044976D01*
X6509595Y-16225928D02*
X6519119Y-16235452D01*
X6509595Y-16244976D01*
X6500071Y-16235452D01*
X6509595Y-16225928D01*
X6509595Y-16244976D01*
X6614357Y-16244976D02*
X6652452Y-16244976D01*
X6671500Y-16235452D01*
X6681024Y-16225928D01*
X6700071Y-16197357D01*
X6709595Y-16159262D01*
X6709595Y-16083071D01*
X6700071Y-16064024D01*
X6690548Y-16054500D01*
X6671500Y-16044976D01*
X6633405Y-16044976D01*
X6614357Y-16054500D01*
X6604833Y-16064024D01*
X6595309Y-16083071D01*
X6595309Y-16130690D01*
X6604833Y-16149738D01*
X6614357Y-16159262D01*
X6633405Y-16168786D01*
X6671500Y-16168786D01*
X6690548Y-16159262D01*
X6700071Y-16149738D01*
X6709595Y-16130690D01*
X6833405Y-16044976D02*
X6852452Y-16044976D01*
X6871500Y-16054500D01*
X6881024Y-16064024D01*
X6890548Y-16083071D01*
X6900071Y-16121167D01*
X6900071Y-16168786D01*
X6890548Y-16206881D01*
X6881024Y-16225928D01*
X6871500Y-16235452D01*
X6852452Y-16244976D01*
X6833405Y-16244976D01*
X6814357Y-16235452D01*
X6804833Y-16225928D01*
X6795309Y-16206881D01*
X6785786Y-16168786D01*
X6785786Y-16121167D01*
X6795309Y-16083071D01*
X6804833Y-16064024D01*
X6814357Y-16054500D01*
X6833405Y-16044976D01*
X7023881Y-16044976D02*
X7042928Y-16044976D01*
X7061976Y-16054500D01*
X7071500Y-16064024D01*
X7081024Y-16083071D01*
X7090548Y-16121167D01*
X7090548Y-16168786D01*
X7081024Y-16206881D01*
X7071500Y-16225928D01*
X7061976Y-16235452D01*
X7042928Y-16244976D01*
X7023881Y-16244976D01*
X7004833Y-16235452D01*
X6995309Y-16225928D01*
X6985786Y-16206881D01*
X6976262Y-16168786D01*
X6976262Y-16121167D01*
X6985786Y-16083071D01*
X6995309Y-16064024D01*
X7004833Y-16054500D01*
X7023881Y-16044976D01*
X7176262Y-16244976D02*
X7176262Y-16111643D01*
X7176262Y-16130690D02*
X7185786Y-16121167D01*
X7204833Y-16111643D01*
X7233405Y-16111643D01*
X7252452Y-16121167D01*
X7261976Y-16140214D01*
X7261976Y-16244976D01*
X7261976Y-16140214D02*
X7271500Y-16121167D01*
X7290548Y-16111643D01*
X7319119Y-16111643D01*
X7338167Y-16121167D01*
X7347690Y-16140214D01*
X7347690Y-16244976D01*
X7442928Y-16244976D02*
X7442928Y-16111643D01*
X7442928Y-16130690D02*
X7452452Y-16121167D01*
X7471500Y-16111643D01*
X7500071Y-16111643D01*
X7519119Y-16121167D01*
X7528643Y-16140214D01*
X7528643Y-16244976D01*
X7528643Y-16140214D02*
X7538167Y-16121167D01*
X7557214Y-16111643D01*
X7585786Y-16111643D01*
X7604833Y-16121167D01*
X7614357Y-16140214D01*
X7614357Y-16244976D01*
X8004833Y-16035452D02*
X7833405Y-16292595D01*
X8261976Y-16044976D02*
X8281024Y-16044976D01*
X8300071Y-16054500D01*
X8309595Y-16064024D01*
X8319119Y-16083071D01*
X8328643Y-16121167D01*
X8328643Y-16168786D01*
X8319119Y-16206881D01*
X8309595Y-16225928D01*
X8300071Y-16235452D01*
X8281024Y-16244976D01*
X8261976Y-16244976D01*
X8242928Y-16235452D01*
X8233405Y-16225928D01*
X8223881Y-16206881D01*
X8214357Y-16168786D01*
X8214357Y-16121167D01*
X8223881Y-16083071D01*
X8233405Y-16064024D01*
X8242928Y-16054500D01*
X8261976Y-16044976D01*
X8414357Y-16225928D02*
X8423881Y-16235452D01*
X8414357Y-16244976D01*
X8404833Y-16235452D01*
X8414357Y-16225928D01*
X8414357Y-16244976D01*
X8547690Y-16044976D02*
X8566738Y-16044976D01*
X8585786Y-16054500D01*
X8595310Y-16064024D01*
X8604833Y-16083071D01*
X8614357Y-16121167D01*
X8614357Y-16168786D01*
X8604833Y-16206881D01*
X8595310Y-16225928D01*
X8585786Y-16235452D01*
X8566738Y-16244976D01*
X8547690Y-16244976D01*
X8528643Y-16235452D01*
X8519119Y-16225928D01*
X8509595Y-16206881D01*
X8500071Y-16168786D01*
X8500071Y-16121167D01*
X8509595Y-16083071D01*
X8519119Y-16064024D01*
X8528643Y-16054500D01*
X8547690Y-16044976D01*
X8681024Y-16044976D02*
X8804833Y-16044976D01*
X8738167Y-16121167D01*
X8766738Y-16121167D01*
X8785786Y-16130690D01*
X8795310Y-16140214D01*
X8804833Y-16159262D01*
X8804833Y-16206881D01*
X8795310Y-16225928D01*
X8785786Y-16235452D01*
X8766738Y-16244976D01*
X8709595Y-16244976D01*
X8690548Y-16235452D01*
X8681024Y-16225928D01*
X8985786Y-16044976D02*
X8890548Y-16044976D01*
X8881024Y-16140214D01*
X8890548Y-16130690D01*
X8909595Y-16121167D01*
X8957214Y-16121167D01*
X8976262Y-16130690D01*
X8985786Y-16140214D01*
X8995310Y-16159262D01*
X8995310Y-16206881D01*
X8985786Y-16225928D01*
X8976262Y-16235452D01*
X8957214Y-16244976D01*
X8909595Y-16244976D01*
X8890548Y-16235452D01*
X8881024Y-16225928D01*
X9166738Y-16111643D02*
X9166738Y-16244976D01*
X9119119Y-16035452D02*
X9071500Y-16178309D01*
X9195310Y-16178309D01*
X9261976Y-16044976D02*
X9261976Y-16083071D01*
X9338167Y-16044976D02*
X9338167Y-16083071D01*
X9633405Y-16321167D02*
X9623881Y-16311643D01*
X9604833Y-16283071D01*
X9595310Y-16264024D01*
X9585786Y-16235452D01*
X9576262Y-16187833D01*
X9576262Y-16149738D01*
X9585786Y-16102119D01*
X9595310Y-16073548D01*
X9604833Y-16054500D01*
X9623881Y-16025928D01*
X9633405Y-16016405D01*
X9700071Y-16064024D02*
X9709595Y-16054500D01*
X9728643Y-16044976D01*
X9776262Y-16044976D01*
X9795310Y-16054500D01*
X9804833Y-16064024D01*
X9814357Y-16083071D01*
X9814357Y-16102119D01*
X9804833Y-16130690D01*
X9690548Y-16244976D01*
X9814357Y-16244976D01*
X9985786Y-16111643D02*
X9985786Y-16244976D01*
X9938167Y-16035452D02*
X9890548Y-16178309D01*
X10014357Y-16178309D01*
X10242929Y-16244976D02*
X10242929Y-16044976D01*
X10328643Y-16244976D02*
X10328643Y-16140214D01*
X10319119Y-16121167D01*
X10300071Y-16111643D01*
X10271500Y-16111643D01*
X10252452Y-16121167D01*
X10242929Y-16130690D01*
X10452452Y-16244976D02*
X10433405Y-16235452D01*
X10423881Y-16225928D01*
X10414357Y-16206881D01*
X10414357Y-16149738D01*
X10423881Y-16130690D01*
X10433405Y-16121167D01*
X10452452Y-16111643D01*
X10481024Y-16111643D01*
X10500071Y-16121167D01*
X10509595Y-16130690D01*
X10519119Y-16149738D01*
X10519119Y-16206881D01*
X10509595Y-16225928D01*
X10500071Y-16235452D01*
X10481024Y-16244976D01*
X10452452Y-16244976D01*
X10633405Y-16244976D02*
X10614357Y-16235452D01*
X10604833Y-16216405D01*
X10604833Y-16044976D01*
X10785786Y-16235452D02*
X10766738Y-16244976D01*
X10728643Y-16244976D01*
X10709595Y-16235452D01*
X10700071Y-16216405D01*
X10700071Y-16140214D01*
X10709595Y-16121167D01*
X10728643Y-16111643D01*
X10766738Y-16111643D01*
X10785786Y-16121167D01*
X10795310Y-16140214D01*
X10795310Y-16159262D01*
X10700071Y-16178309D01*
X10871500Y-16235452D02*
X10890548Y-16244976D01*
X10928643Y-16244976D01*
X10947690Y-16235452D01*
X10957214Y-16216405D01*
X10957214Y-16206881D01*
X10947690Y-16187833D01*
X10928643Y-16178309D01*
X10900071Y-16178309D01*
X10881024Y-16168786D01*
X10871500Y-16149738D01*
X10871500Y-16140214D01*
X10881024Y-16121167D01*
X10900071Y-16111643D01*
X10928643Y-16111643D01*
X10947690Y-16121167D01*
X11023881Y-16321167D02*
X11033405Y-16311643D01*
X11052452Y-16283071D01*
X11061976Y-16264024D01*
X11071500Y-16235452D01*
X11081024Y-16187833D01*
X11081024Y-16149738D01*
X11071500Y-16102119D01*
X11061976Y-16073548D01*
X11052452Y-16054500D01*
X11033405Y-16025928D01*
X11023881Y-16016405D01*
D16*
X6011500Y-16468500D02*
X6061500Y-16418500D01*
X6011500Y-16368500D01*
X5961500Y-16418500D01*
X6011500Y-16468500D01*
D11*
X6423881Y-16508976D02*
X6309595Y-16508976D01*
X6366738Y-16508976D02*
X6366738Y-16308976D01*
X6347690Y-16337548D01*
X6328643Y-16356595D01*
X6309595Y-16366119D01*
X6509595Y-16489928D02*
X6519119Y-16499452D01*
X6509595Y-16508976D01*
X6500071Y-16499452D01*
X6509595Y-16489928D01*
X6509595Y-16508976D01*
X6642928Y-16308976D02*
X6661976Y-16308976D01*
X6681024Y-16318500D01*
X6690548Y-16328024D01*
X6700071Y-16347071D01*
X6709595Y-16385167D01*
X6709595Y-16432786D01*
X6700071Y-16470881D01*
X6690548Y-16489928D01*
X6681024Y-16499452D01*
X6661976Y-16508976D01*
X6642928Y-16508976D01*
X6623881Y-16499452D01*
X6614357Y-16489928D01*
X6604833Y-16470881D01*
X6595309Y-16432786D01*
X6595309Y-16385167D01*
X6604833Y-16347071D01*
X6614357Y-16328024D01*
X6623881Y-16318500D01*
X6642928Y-16308976D01*
X6833405Y-16308976D02*
X6852452Y-16308976D01*
X6871500Y-16318500D01*
X6881024Y-16328024D01*
X6890548Y-16347071D01*
X6900071Y-16385167D01*
X6900071Y-16432786D01*
X6890548Y-16470881D01*
X6881024Y-16489928D01*
X6871500Y-16499452D01*
X6852452Y-16508976D01*
X6833405Y-16508976D01*
X6814357Y-16499452D01*
X6804833Y-16489928D01*
X6795309Y-16470881D01*
X6785786Y-16432786D01*
X6785786Y-16385167D01*
X6795309Y-16347071D01*
X6804833Y-16328024D01*
X6814357Y-16318500D01*
X6833405Y-16308976D01*
X7023881Y-16308976D02*
X7042928Y-16308976D01*
X7061976Y-16318500D01*
X7071500Y-16328024D01*
X7081024Y-16347071D01*
X7090548Y-16385167D01*
X7090548Y-16432786D01*
X7081024Y-16470881D01*
X7071500Y-16489928D01*
X7061976Y-16499452D01*
X7042928Y-16508976D01*
X7023881Y-16508976D01*
X7004833Y-16499452D01*
X6995309Y-16489928D01*
X6985786Y-16470881D01*
X6976262Y-16432786D01*
X6976262Y-16385167D01*
X6985786Y-16347071D01*
X6995309Y-16328024D01*
X7004833Y-16318500D01*
X7023881Y-16308976D01*
X7176262Y-16508976D02*
X7176262Y-16375643D01*
X7176262Y-16394690D02*
X7185786Y-16385167D01*
X7204833Y-16375643D01*
X7233405Y-16375643D01*
X7252452Y-16385167D01*
X7261976Y-16404214D01*
X7261976Y-16508976D01*
X7261976Y-16404214D02*
X7271500Y-16385167D01*
X7290548Y-16375643D01*
X7319119Y-16375643D01*
X7338167Y-16385167D01*
X7347690Y-16404214D01*
X7347690Y-16508976D01*
X7442928Y-16508976D02*
X7442928Y-16375643D01*
X7442928Y-16394690D02*
X7452452Y-16385167D01*
X7471500Y-16375643D01*
X7500071Y-16375643D01*
X7519119Y-16385167D01*
X7528643Y-16404214D01*
X7528643Y-16508976D01*
X7528643Y-16404214D02*
X7538167Y-16385167D01*
X7557214Y-16375643D01*
X7585786Y-16375643D01*
X7604833Y-16385167D01*
X7614357Y-16404214D01*
X7614357Y-16508976D01*
X8004833Y-16299452D02*
X7833405Y-16556595D01*
X8261976Y-16308976D02*
X8281024Y-16308976D01*
X8300071Y-16318500D01*
X8309595Y-16328024D01*
X8319119Y-16347071D01*
X8328643Y-16385167D01*
X8328643Y-16432786D01*
X8319119Y-16470881D01*
X8309595Y-16489928D01*
X8300071Y-16499452D01*
X8281024Y-16508976D01*
X8261976Y-16508976D01*
X8242928Y-16499452D01*
X8233405Y-16489928D01*
X8223881Y-16470881D01*
X8214357Y-16432786D01*
X8214357Y-16385167D01*
X8223881Y-16347071D01*
X8233405Y-16328024D01*
X8242928Y-16318500D01*
X8261976Y-16308976D01*
X8414357Y-16489928D02*
X8423881Y-16499452D01*
X8414357Y-16508976D01*
X8404833Y-16499452D01*
X8414357Y-16489928D01*
X8414357Y-16508976D01*
X8547690Y-16308976D02*
X8566738Y-16308976D01*
X8585786Y-16318500D01*
X8595310Y-16328024D01*
X8604833Y-16347071D01*
X8614357Y-16385167D01*
X8614357Y-16432786D01*
X8604833Y-16470881D01*
X8595310Y-16489928D01*
X8585786Y-16499452D01*
X8566738Y-16508976D01*
X8547690Y-16508976D01*
X8528643Y-16499452D01*
X8519119Y-16489928D01*
X8509595Y-16470881D01*
X8500071Y-16432786D01*
X8500071Y-16385167D01*
X8509595Y-16347071D01*
X8519119Y-16328024D01*
X8528643Y-16318500D01*
X8547690Y-16308976D01*
X8681024Y-16308976D02*
X8804833Y-16308976D01*
X8738167Y-16385167D01*
X8766738Y-16385167D01*
X8785786Y-16394690D01*
X8795310Y-16404214D01*
X8804833Y-16423262D01*
X8804833Y-16470881D01*
X8795310Y-16489928D01*
X8785786Y-16499452D01*
X8766738Y-16508976D01*
X8709595Y-16508976D01*
X8690548Y-16499452D01*
X8681024Y-16489928D01*
X8900071Y-16508976D02*
X8938167Y-16508976D01*
X8957214Y-16499452D01*
X8966738Y-16489928D01*
X8985786Y-16461357D01*
X8995310Y-16423262D01*
X8995310Y-16347071D01*
X8985786Y-16328024D01*
X8976262Y-16318500D01*
X8957214Y-16308976D01*
X8919119Y-16308976D01*
X8900071Y-16318500D01*
X8890548Y-16328024D01*
X8881024Y-16347071D01*
X8881024Y-16394690D01*
X8890548Y-16413738D01*
X8900071Y-16423262D01*
X8919119Y-16432786D01*
X8957214Y-16432786D01*
X8976262Y-16423262D01*
X8985786Y-16413738D01*
X8995310Y-16394690D01*
X9166738Y-16375643D02*
X9166738Y-16508976D01*
X9119119Y-16299452D02*
X9071500Y-16442309D01*
X9195310Y-16442309D01*
X9261976Y-16308976D02*
X9261976Y-16347071D01*
X9338167Y-16308976D02*
X9338167Y-16347071D01*
X9633405Y-16585167D02*
X9623881Y-16575643D01*
X9604833Y-16547071D01*
X9595310Y-16528024D01*
X9585786Y-16499452D01*
X9576262Y-16451833D01*
X9576262Y-16413738D01*
X9585786Y-16366119D01*
X9595310Y-16337548D01*
X9604833Y-16318500D01*
X9623881Y-16289928D01*
X9633405Y-16280405D01*
X9795310Y-16308976D02*
X9757214Y-16308976D01*
X9738167Y-16318500D01*
X9728643Y-16328024D01*
X9709595Y-16356595D01*
X9700071Y-16394690D01*
X9700071Y-16470881D01*
X9709595Y-16489928D01*
X9719119Y-16499452D01*
X9738167Y-16508976D01*
X9776262Y-16508976D01*
X9795310Y-16499452D01*
X9804833Y-16489928D01*
X9814357Y-16470881D01*
X9814357Y-16423262D01*
X9804833Y-16404214D01*
X9795310Y-16394690D01*
X9776262Y-16385167D01*
X9738167Y-16385167D01*
X9719119Y-16394690D01*
X9709595Y-16404214D01*
X9700071Y-16423262D01*
X10052452Y-16508976D02*
X10052452Y-16308976D01*
X10138167Y-16508976D02*
X10138167Y-16404214D01*
X10128643Y-16385167D01*
X10109595Y-16375643D01*
X10081024Y-16375643D01*
X10061976Y-16385167D01*
X10052452Y-16394690D01*
X10261976Y-16508976D02*
X10242929Y-16499452D01*
X10233405Y-16489928D01*
X10223881Y-16470881D01*
X10223881Y-16413738D01*
X10233405Y-16394690D01*
X10242929Y-16385167D01*
X10261976Y-16375643D01*
X10290548Y-16375643D01*
X10309595Y-16385167D01*
X10319119Y-16394690D01*
X10328643Y-16413738D01*
X10328643Y-16470881D01*
X10319119Y-16489928D01*
X10309595Y-16499452D01*
X10290548Y-16508976D01*
X10261976Y-16508976D01*
X10442929Y-16508976D02*
X10423881Y-16499452D01*
X10414357Y-16480405D01*
X10414357Y-16308976D01*
X10595310Y-16499452D02*
X10576262Y-16508976D01*
X10538167Y-16508976D01*
X10519119Y-16499452D01*
X10509595Y-16480405D01*
X10509595Y-16404214D01*
X10519119Y-16385167D01*
X10538167Y-16375643D01*
X10576262Y-16375643D01*
X10595310Y-16385167D01*
X10604833Y-16404214D01*
X10604833Y-16423262D01*
X10509595Y-16442309D01*
X10681024Y-16499452D02*
X10700071Y-16508976D01*
X10738167Y-16508976D01*
X10757214Y-16499452D01*
X10766738Y-16480405D01*
X10766738Y-16470881D01*
X10757214Y-16451833D01*
X10738167Y-16442309D01*
X10709595Y-16442309D01*
X10690548Y-16432786D01*
X10681024Y-16413738D01*
X10681024Y-16404214D01*
X10690548Y-16385167D01*
X10709595Y-16375643D01*
X10738167Y-16375643D01*
X10757214Y-16385167D01*
X10833405Y-16585167D02*
X10842929Y-16575643D01*
X10861976Y-16547071D01*
X10871500Y-16528024D01*
X10881024Y-16499452D01*
X10890548Y-16451833D01*
X10890548Y-16413738D01*
X10881024Y-16366119D01*
X10871500Y-16337548D01*
X10861976Y-16318500D01*
X10842929Y-16289928D01*
X10833405Y-16280405D01*
D17*
X5931500Y-16617500D02*
X6061500Y-16747500D01*
X6061500Y-16617500D02*
X5931500Y-16747500D01*
X6061500Y-16682500D02*
G75*
G03*
X6061500Y-16682500I-65000J0D01*
G01*
D11*
X6423881Y-16772976D02*
X6309595Y-16772976D01*
X6366738Y-16772976D02*
X6366738Y-16572976D01*
X6347690Y-16601548D01*
X6328643Y-16620595D01*
X6309595Y-16630119D01*
X6509595Y-16753928D02*
X6519119Y-16763452D01*
X6509595Y-16772976D01*
X6500071Y-16763452D01*
X6509595Y-16753928D01*
X6509595Y-16772976D01*
X6585786Y-16572976D02*
X6709595Y-16572976D01*
X6642928Y-16649167D01*
X6671500Y-16649167D01*
X6690548Y-16658690D01*
X6700071Y-16668214D01*
X6709595Y-16687262D01*
X6709595Y-16734881D01*
X6700071Y-16753928D01*
X6690548Y-16763452D01*
X6671500Y-16772976D01*
X6614357Y-16772976D01*
X6595309Y-16763452D01*
X6585786Y-16753928D01*
X6833405Y-16572976D02*
X6852452Y-16572976D01*
X6871500Y-16582500D01*
X6881024Y-16592024D01*
X6890548Y-16611071D01*
X6900071Y-16649167D01*
X6900071Y-16696786D01*
X6890548Y-16734881D01*
X6881024Y-16753928D01*
X6871500Y-16763452D01*
X6852452Y-16772976D01*
X6833405Y-16772976D01*
X6814357Y-16763452D01*
X6804833Y-16753928D01*
X6795309Y-16734881D01*
X6785786Y-16696786D01*
X6785786Y-16649167D01*
X6795309Y-16611071D01*
X6804833Y-16592024D01*
X6814357Y-16582500D01*
X6833405Y-16572976D01*
X7023881Y-16572976D02*
X7042928Y-16572976D01*
X7061976Y-16582500D01*
X7071500Y-16592024D01*
X7081024Y-16611071D01*
X7090548Y-16649167D01*
X7090548Y-16696786D01*
X7081024Y-16734881D01*
X7071500Y-16753928D01*
X7061976Y-16763452D01*
X7042928Y-16772976D01*
X7023881Y-16772976D01*
X7004833Y-16763452D01*
X6995309Y-16753928D01*
X6985786Y-16734881D01*
X6976262Y-16696786D01*
X6976262Y-16649167D01*
X6985786Y-16611071D01*
X6995309Y-16592024D01*
X7004833Y-16582500D01*
X7023881Y-16572976D01*
X7176262Y-16772976D02*
X7176262Y-16639643D01*
X7176262Y-16658690D02*
X7185786Y-16649167D01*
X7204833Y-16639643D01*
X7233405Y-16639643D01*
X7252452Y-16649167D01*
X7261976Y-16668214D01*
X7261976Y-16772976D01*
X7261976Y-16668214D02*
X7271500Y-16649167D01*
X7290548Y-16639643D01*
X7319119Y-16639643D01*
X7338167Y-16649167D01*
X7347690Y-16668214D01*
X7347690Y-16772976D01*
X7442928Y-16772976D02*
X7442928Y-16639643D01*
X7442928Y-16658690D02*
X7452452Y-16649167D01*
X7471500Y-16639643D01*
X7500071Y-16639643D01*
X7519119Y-16649167D01*
X7528643Y-16668214D01*
X7528643Y-16772976D01*
X7528643Y-16668214D02*
X7538167Y-16649167D01*
X7557214Y-16639643D01*
X7585786Y-16639643D01*
X7604833Y-16649167D01*
X7614357Y-16668214D01*
X7614357Y-16772976D01*
X8004833Y-16563452D02*
X7833405Y-16820595D01*
X8261976Y-16572976D02*
X8281024Y-16572976D01*
X8300071Y-16582500D01*
X8309595Y-16592024D01*
X8319119Y-16611071D01*
X8328643Y-16649167D01*
X8328643Y-16696786D01*
X8319119Y-16734881D01*
X8309595Y-16753928D01*
X8300071Y-16763452D01*
X8281024Y-16772976D01*
X8261976Y-16772976D01*
X8242928Y-16763452D01*
X8233405Y-16753928D01*
X8223881Y-16734881D01*
X8214357Y-16696786D01*
X8214357Y-16649167D01*
X8223881Y-16611071D01*
X8233405Y-16592024D01*
X8242928Y-16582500D01*
X8261976Y-16572976D01*
X8414357Y-16753928D02*
X8423881Y-16763452D01*
X8414357Y-16772976D01*
X8404833Y-16763452D01*
X8414357Y-16753928D01*
X8414357Y-16772976D01*
X8547690Y-16572976D02*
X8566738Y-16572976D01*
X8585786Y-16582500D01*
X8595310Y-16592024D01*
X8604833Y-16611071D01*
X8614357Y-16649167D01*
X8614357Y-16696786D01*
X8604833Y-16734881D01*
X8595310Y-16753928D01*
X8585786Y-16763452D01*
X8566738Y-16772976D01*
X8547690Y-16772976D01*
X8528643Y-16763452D01*
X8519119Y-16753928D01*
X8509595Y-16734881D01*
X8500071Y-16696786D01*
X8500071Y-16649167D01*
X8509595Y-16611071D01*
X8519119Y-16592024D01*
X8528643Y-16582500D01*
X8547690Y-16572976D01*
X8795310Y-16572976D02*
X8700071Y-16572976D01*
X8690548Y-16668214D01*
X8700071Y-16658690D01*
X8719119Y-16649167D01*
X8766738Y-16649167D01*
X8785786Y-16658690D01*
X8795310Y-16668214D01*
X8804833Y-16687262D01*
X8804833Y-16734881D01*
X8795310Y-16753928D01*
X8785786Y-16763452D01*
X8766738Y-16772976D01*
X8719119Y-16772976D01*
X8700071Y-16763452D01*
X8690548Y-16753928D01*
X8995310Y-16772976D02*
X8881024Y-16772976D01*
X8938167Y-16772976D02*
X8938167Y-16572976D01*
X8919119Y-16601548D01*
X8900071Y-16620595D01*
X8881024Y-16630119D01*
X9071500Y-16592024D02*
X9081024Y-16582500D01*
X9100071Y-16572976D01*
X9147690Y-16572976D01*
X9166738Y-16582500D01*
X9176262Y-16592024D01*
X9185786Y-16611071D01*
X9185786Y-16630119D01*
X9176262Y-16658690D01*
X9061976Y-16772976D01*
X9185786Y-16772976D01*
X9261976Y-16572976D02*
X9261976Y-16611071D01*
X9338167Y-16572976D02*
X9338167Y-16611071D01*
X9633405Y-16849167D02*
X9623881Y-16839643D01*
X9604833Y-16811071D01*
X9595310Y-16792024D01*
X9585786Y-16763452D01*
X9576262Y-16715833D01*
X9576262Y-16677738D01*
X9585786Y-16630119D01*
X9595310Y-16601548D01*
X9604833Y-16582500D01*
X9623881Y-16553928D01*
X9633405Y-16544405D01*
X9690548Y-16572976D02*
X9814357Y-16572976D01*
X9747690Y-16649167D01*
X9776262Y-16649167D01*
X9795310Y-16658690D01*
X9804833Y-16668214D01*
X9814357Y-16687262D01*
X9814357Y-16734881D01*
X9804833Y-16753928D01*
X9795310Y-16763452D01*
X9776262Y-16772976D01*
X9719119Y-16772976D01*
X9700071Y-16763452D01*
X9690548Y-16753928D01*
X9881024Y-16572976D02*
X10004833Y-16572976D01*
X9938167Y-16649167D01*
X9966738Y-16649167D01*
X9985786Y-16658690D01*
X9995310Y-16668214D01*
X10004833Y-16687262D01*
X10004833Y-16734881D01*
X9995310Y-16753928D01*
X9985786Y-16763452D01*
X9966738Y-16772976D01*
X9909595Y-16772976D01*
X9890548Y-16763452D01*
X9881024Y-16753928D01*
X10242929Y-16772976D02*
X10242929Y-16572976D01*
X10328643Y-16772976D02*
X10328643Y-16668214D01*
X10319119Y-16649167D01*
X10300071Y-16639643D01*
X10271500Y-16639643D01*
X10252452Y-16649167D01*
X10242929Y-16658690D01*
X10452452Y-16772976D02*
X10433405Y-16763452D01*
X10423881Y-16753928D01*
X10414357Y-16734881D01*
X10414357Y-16677738D01*
X10423881Y-16658690D01*
X10433405Y-16649167D01*
X10452452Y-16639643D01*
X10481024Y-16639643D01*
X10500071Y-16649167D01*
X10509595Y-16658690D01*
X10519119Y-16677738D01*
X10519119Y-16734881D01*
X10509595Y-16753928D01*
X10500071Y-16763452D01*
X10481024Y-16772976D01*
X10452452Y-16772976D01*
X10633405Y-16772976D02*
X10614357Y-16763452D01*
X10604833Y-16744405D01*
X10604833Y-16572976D01*
X10785786Y-16763452D02*
X10766738Y-16772976D01*
X10728643Y-16772976D01*
X10709595Y-16763452D01*
X10700071Y-16744405D01*
X10700071Y-16668214D01*
X10709595Y-16649167D01*
X10728643Y-16639643D01*
X10766738Y-16639643D01*
X10785786Y-16649167D01*
X10795310Y-16668214D01*
X10795310Y-16687262D01*
X10700071Y-16706309D01*
X10871500Y-16763452D02*
X10890548Y-16772976D01*
X10928643Y-16772976D01*
X10947690Y-16763452D01*
X10957214Y-16744405D01*
X10957214Y-16734881D01*
X10947690Y-16715833D01*
X10928643Y-16706309D01*
X10900071Y-16706309D01*
X10881024Y-16696786D01*
X10871500Y-16677738D01*
X10871500Y-16668214D01*
X10881024Y-16649167D01*
X10900071Y-16639643D01*
X10928643Y-16639643D01*
X10947690Y-16649167D01*
X11023881Y-16849167D02*
X11033405Y-16839643D01*
X11052452Y-16811071D01*
X11061976Y-16792024D01*
X11071500Y-16763452D01*
X11081024Y-16715833D01*
X11081024Y-16677738D01*
X11071500Y-16630119D01*
X11061976Y-16601548D01*
X11052452Y-16582500D01*
X11033405Y-16553928D01*
X11023881Y-16544405D01*
D18*
X5911500Y-16871500D02*
X6061500Y-17021500D01*
X6061500Y-16871500D02*
X5911500Y-17021500D01*
X5986500Y-16871500D02*
X5986500Y-17021500D01*
X5911500Y-16946500D02*
X6061500Y-16946500D01*
D11*
X6423881Y-17036976D02*
X6309595Y-17036976D01*
X6366738Y-17036976D02*
X6366738Y-16836976D01*
X6347690Y-16865548D01*
X6328643Y-16884595D01*
X6309595Y-16894119D01*
X6509595Y-17017929D02*
X6519119Y-17027452D01*
X6509595Y-17036976D01*
X6500071Y-17027452D01*
X6509595Y-17017929D01*
X6509595Y-17036976D01*
X6700071Y-16836976D02*
X6604833Y-16836976D01*
X6595309Y-16932214D01*
X6604833Y-16922690D01*
X6623881Y-16913167D01*
X6671500Y-16913167D01*
X6690548Y-16922690D01*
X6700071Y-16932214D01*
X6709595Y-16951262D01*
X6709595Y-16998881D01*
X6700071Y-17017929D01*
X6690548Y-17027452D01*
X6671500Y-17036976D01*
X6623881Y-17036976D01*
X6604833Y-17027452D01*
X6595309Y-17017929D01*
X6833405Y-16836976D02*
X6852452Y-16836976D01*
X6871500Y-16846500D01*
X6881024Y-16856024D01*
X6890548Y-16875071D01*
X6900071Y-16913167D01*
X6900071Y-16960786D01*
X6890548Y-16998881D01*
X6881024Y-17017929D01*
X6871500Y-17027452D01*
X6852452Y-17036976D01*
X6833405Y-17036976D01*
X6814357Y-17027452D01*
X6804833Y-17017929D01*
X6795309Y-16998881D01*
X6785786Y-16960786D01*
X6785786Y-16913167D01*
X6795309Y-16875071D01*
X6804833Y-16856024D01*
X6814357Y-16846500D01*
X6833405Y-16836976D01*
X7023881Y-16836976D02*
X7042928Y-16836976D01*
X7061976Y-16846500D01*
X7071500Y-16856024D01*
X7081024Y-16875071D01*
X7090548Y-16913167D01*
X7090548Y-16960786D01*
X7081024Y-16998881D01*
X7071500Y-17017929D01*
X7061976Y-17027452D01*
X7042928Y-17036976D01*
X7023881Y-17036976D01*
X7004833Y-17027452D01*
X6995309Y-17017929D01*
X6985786Y-16998881D01*
X6976262Y-16960786D01*
X6976262Y-16913167D01*
X6985786Y-16875071D01*
X6995309Y-16856024D01*
X7004833Y-16846500D01*
X7023881Y-16836976D01*
X7176262Y-17036976D02*
X7176262Y-16903643D01*
X7176262Y-16922690D02*
X7185786Y-16913167D01*
X7204833Y-16903643D01*
X7233405Y-16903643D01*
X7252452Y-16913167D01*
X7261976Y-16932214D01*
X7261976Y-17036976D01*
X7261976Y-16932214D02*
X7271500Y-16913167D01*
X7290548Y-16903643D01*
X7319119Y-16903643D01*
X7338167Y-16913167D01*
X7347690Y-16932214D01*
X7347690Y-17036976D01*
X7442928Y-17036976D02*
X7442928Y-16903643D01*
X7442928Y-16922690D02*
X7452452Y-16913167D01*
X7471500Y-16903643D01*
X7500071Y-16903643D01*
X7519119Y-16913167D01*
X7528643Y-16932214D01*
X7528643Y-17036976D01*
X7528643Y-16932214D02*
X7538167Y-16913167D01*
X7557214Y-16903643D01*
X7585786Y-16903643D01*
X7604833Y-16913167D01*
X7614357Y-16932214D01*
X7614357Y-17036976D01*
X8004833Y-16827452D02*
X7833405Y-17084595D01*
X8261976Y-16836976D02*
X8281024Y-16836976D01*
X8300071Y-16846500D01*
X8309595Y-16856024D01*
X8319119Y-16875071D01*
X8328643Y-16913167D01*
X8328643Y-16960786D01*
X8319119Y-16998881D01*
X8309595Y-17017929D01*
X8300071Y-17027452D01*
X8281024Y-17036976D01*
X8261976Y-17036976D01*
X8242928Y-17027452D01*
X8233405Y-17017929D01*
X8223881Y-16998881D01*
X8214357Y-16960786D01*
X8214357Y-16913167D01*
X8223881Y-16875071D01*
X8233405Y-16856024D01*
X8242928Y-16846500D01*
X8261976Y-16836976D01*
X8414357Y-17017929D02*
X8423881Y-17027452D01*
X8414357Y-17036976D01*
X8404833Y-17027452D01*
X8414357Y-17017929D01*
X8414357Y-17036976D01*
X8547690Y-16836976D02*
X8566738Y-16836976D01*
X8585786Y-16846500D01*
X8595310Y-16856024D01*
X8604833Y-16875071D01*
X8614357Y-16913167D01*
X8614357Y-16960786D01*
X8604833Y-16998881D01*
X8595310Y-17017929D01*
X8585786Y-17027452D01*
X8566738Y-17036976D01*
X8547690Y-17036976D01*
X8528643Y-17027452D01*
X8519119Y-17017929D01*
X8509595Y-16998881D01*
X8500071Y-16960786D01*
X8500071Y-16913167D01*
X8509595Y-16875071D01*
X8519119Y-16856024D01*
X8528643Y-16846500D01*
X8547690Y-16836976D01*
X8795310Y-16836976D02*
X8700071Y-16836976D01*
X8690548Y-16932214D01*
X8700071Y-16922690D01*
X8719119Y-16913167D01*
X8766738Y-16913167D01*
X8785786Y-16922690D01*
X8795310Y-16932214D01*
X8804833Y-16951262D01*
X8804833Y-16998881D01*
X8795310Y-17017929D01*
X8785786Y-17027452D01*
X8766738Y-17036976D01*
X8719119Y-17036976D01*
X8700071Y-17027452D01*
X8690548Y-17017929D01*
X8900071Y-17036976D02*
X8938167Y-17036976D01*
X8957214Y-17027452D01*
X8966738Y-17017929D01*
X8985786Y-16989357D01*
X8995310Y-16951262D01*
X8995310Y-16875071D01*
X8985786Y-16856024D01*
X8976262Y-16846500D01*
X8957214Y-16836976D01*
X8919119Y-16836976D01*
X8900071Y-16846500D01*
X8890548Y-16856024D01*
X8881024Y-16875071D01*
X8881024Y-16922690D01*
X8890548Y-16941738D01*
X8900071Y-16951262D01*
X8919119Y-16960786D01*
X8957214Y-16960786D01*
X8976262Y-16951262D01*
X8985786Y-16941738D01*
X8995310Y-16922690D01*
X9185786Y-17036976D02*
X9071500Y-17036976D01*
X9128643Y-17036976D02*
X9128643Y-16836976D01*
X9109595Y-16865548D01*
X9090548Y-16884595D01*
X9071500Y-16894119D01*
X9261976Y-16836976D02*
X9261976Y-16875071D01*
X9338167Y-16836976D02*
X9338167Y-16875071D01*
X9633405Y-17113167D02*
X9623881Y-17103643D01*
X9604833Y-17075071D01*
X9595310Y-17056024D01*
X9585786Y-17027452D01*
X9576262Y-16979833D01*
X9576262Y-16941738D01*
X9585786Y-16894119D01*
X9595310Y-16865548D01*
X9604833Y-16846500D01*
X9623881Y-16817929D01*
X9633405Y-16808405D01*
X9814357Y-17036976D02*
X9700071Y-17036976D01*
X9757214Y-17036976D02*
X9757214Y-16836976D01*
X9738167Y-16865548D01*
X9719119Y-16884595D01*
X9700071Y-16894119D01*
X9890548Y-16856024D02*
X9900071Y-16846500D01*
X9919119Y-16836976D01*
X9966738Y-16836976D01*
X9985786Y-16846500D01*
X9995310Y-16856024D01*
X10004833Y-16875071D01*
X10004833Y-16894119D01*
X9995310Y-16922690D01*
X9881024Y-17036976D01*
X10004833Y-17036976D01*
X10242929Y-17036976D02*
X10242929Y-16836976D01*
X10328643Y-17036976D02*
X10328643Y-16932214D01*
X10319119Y-16913167D01*
X10300071Y-16903643D01*
X10271500Y-16903643D01*
X10252452Y-16913167D01*
X10242929Y-16922690D01*
X10452452Y-17036976D02*
X10433405Y-17027452D01*
X10423881Y-17017929D01*
X10414357Y-16998881D01*
X10414357Y-16941738D01*
X10423881Y-16922690D01*
X10433405Y-16913167D01*
X10452452Y-16903643D01*
X10481024Y-16903643D01*
X10500071Y-16913167D01*
X10509595Y-16922690D01*
X10519119Y-16941738D01*
X10519119Y-16998881D01*
X10509595Y-17017929D01*
X10500071Y-17027452D01*
X10481024Y-17036976D01*
X10452452Y-17036976D01*
X10633405Y-17036976D02*
X10614357Y-17027452D01*
X10604833Y-17008405D01*
X10604833Y-16836976D01*
X10785786Y-17027452D02*
X10766738Y-17036976D01*
X10728643Y-17036976D01*
X10709595Y-17027452D01*
X10700071Y-17008405D01*
X10700071Y-16932214D01*
X10709595Y-16913167D01*
X10728643Y-16903643D01*
X10766738Y-16903643D01*
X10785786Y-16913167D01*
X10795310Y-16932214D01*
X10795310Y-16951262D01*
X10700071Y-16970310D01*
X10871500Y-17027452D02*
X10890548Y-17036976D01*
X10928643Y-17036976D01*
X10947690Y-17027452D01*
X10957214Y-17008405D01*
X10957214Y-16998881D01*
X10947690Y-16979833D01*
X10928643Y-16970310D01*
X10900071Y-16970310D01*
X10881024Y-16960786D01*
X10871500Y-16941738D01*
X10871500Y-16932214D01*
X10881024Y-16913167D01*
X10900071Y-16903643D01*
X10928643Y-16903643D01*
X10947690Y-16913167D01*
X11023881Y-17113167D02*
X11033405Y-17103643D01*
X11052452Y-17075071D01*
X11061976Y-17056024D01*
X11071500Y-17027452D01*
X11081024Y-16979833D01*
X11081024Y-16941738D01*
X11071500Y-16894119D01*
X11061976Y-16865548D01*
X11052452Y-16846500D01*
X11033405Y-16817929D01*
X11023881Y-16808405D01*
X5861500Y-17116500D02*
X6061500Y-17316500D01*
X6061500Y-17116500D02*
X5861500Y-17316500D01*
X6032211Y-17287211D02*
X6032211Y-17145789D01*
X5890789Y-17145789D01*
X5890789Y-17287211D01*
X6032211Y-17287211D01*
X6300071Y-17106976D02*
X6423881Y-17106976D01*
X6357214Y-17183167D01*
X6385786Y-17183167D01*
X6404833Y-17192690D01*
X6414357Y-17202214D01*
X6423881Y-17221262D01*
X6423881Y-17268881D01*
X6414357Y-17287929D01*
X6404833Y-17297452D01*
X6385786Y-17306976D01*
X6328643Y-17306976D01*
X6309595Y-17297452D01*
X6300071Y-17287929D01*
X6509595Y-17287929D02*
X6519119Y-17297452D01*
X6509595Y-17306976D01*
X6500071Y-17297452D01*
X6509595Y-17287929D01*
X6509595Y-17306976D01*
X6595309Y-17126024D02*
X6604833Y-17116500D01*
X6623881Y-17106976D01*
X6671500Y-17106976D01*
X6690548Y-17116500D01*
X6700071Y-17126024D01*
X6709595Y-17145071D01*
X6709595Y-17164119D01*
X6700071Y-17192690D01*
X6585786Y-17306976D01*
X6709595Y-17306976D01*
X6833405Y-17106976D02*
X6852452Y-17106976D01*
X6871500Y-17116500D01*
X6881024Y-17126024D01*
X6890548Y-17145071D01*
X6900071Y-17183167D01*
X6900071Y-17230786D01*
X6890548Y-17268881D01*
X6881024Y-17287929D01*
X6871500Y-17297452D01*
X6852452Y-17306976D01*
X6833405Y-17306976D01*
X6814357Y-17297452D01*
X6804833Y-17287929D01*
X6795309Y-17268881D01*
X6785786Y-17230786D01*
X6785786Y-17183167D01*
X6795309Y-17145071D01*
X6804833Y-17126024D01*
X6814357Y-17116500D01*
X6833405Y-17106976D01*
X7023881Y-17106976D02*
X7042928Y-17106976D01*
X7061976Y-17116500D01*
X7071500Y-17126024D01*
X7081024Y-17145071D01*
X7090548Y-17183167D01*
X7090548Y-17230786D01*
X7081024Y-17268881D01*
X7071500Y-17287929D01*
X7061976Y-17297452D01*
X7042928Y-17306976D01*
X7023881Y-17306976D01*
X7004833Y-17297452D01*
X6995309Y-17287929D01*
X6985786Y-17268881D01*
X6976262Y-17230786D01*
X6976262Y-17183167D01*
X6985786Y-17145071D01*
X6995309Y-17126024D01*
X7004833Y-17116500D01*
X7023881Y-17106976D01*
X7176262Y-17306976D02*
X7176262Y-17173643D01*
X7176262Y-17192690D02*
X7185786Y-17183167D01*
X7204833Y-17173643D01*
X7233405Y-17173643D01*
X7252452Y-17183167D01*
X7261976Y-17202214D01*
X7261976Y-17306976D01*
X7261976Y-17202214D02*
X7271500Y-17183167D01*
X7290548Y-17173643D01*
X7319119Y-17173643D01*
X7338167Y-17183167D01*
X7347690Y-17202214D01*
X7347690Y-17306976D01*
X7442928Y-17306976D02*
X7442928Y-17173643D01*
X7442928Y-17192690D02*
X7452452Y-17183167D01*
X7471500Y-17173643D01*
X7500071Y-17173643D01*
X7519119Y-17183167D01*
X7528643Y-17202214D01*
X7528643Y-17306976D01*
X7528643Y-17202214D02*
X7538167Y-17183167D01*
X7557214Y-17173643D01*
X7585786Y-17173643D01*
X7604833Y-17183167D01*
X7614357Y-17202214D01*
X7614357Y-17306976D01*
X8004833Y-17097452D02*
X7833405Y-17354595D01*
X8261976Y-17106976D02*
X8281024Y-17106976D01*
X8300071Y-17116500D01*
X8309595Y-17126024D01*
X8319119Y-17145071D01*
X8328643Y-17183167D01*
X8328643Y-17230786D01*
X8319119Y-17268881D01*
X8309595Y-17287929D01*
X8300071Y-17297452D01*
X8281024Y-17306976D01*
X8261976Y-17306976D01*
X8242928Y-17297452D01*
X8233405Y-17287929D01*
X8223881Y-17268881D01*
X8214357Y-17230786D01*
X8214357Y-17183167D01*
X8223881Y-17145071D01*
X8233405Y-17126024D01*
X8242928Y-17116500D01*
X8261976Y-17106976D01*
X8414357Y-17287929D02*
X8423881Y-17297452D01*
X8414357Y-17306976D01*
X8404833Y-17297452D01*
X8414357Y-17287929D01*
X8414357Y-17306976D01*
X8614357Y-17306976D02*
X8500071Y-17306976D01*
X8557214Y-17306976D02*
X8557214Y-17106976D01*
X8538167Y-17135548D01*
X8519119Y-17154595D01*
X8500071Y-17164119D01*
X8690548Y-17126024D02*
X8700071Y-17116500D01*
X8719119Y-17106976D01*
X8766738Y-17106976D01*
X8785786Y-17116500D01*
X8795310Y-17126024D01*
X8804833Y-17145071D01*
X8804833Y-17164119D01*
X8795310Y-17192690D01*
X8681024Y-17306976D01*
X8804833Y-17306976D01*
X8976262Y-17106976D02*
X8938167Y-17106976D01*
X8919119Y-17116500D01*
X8909595Y-17126024D01*
X8890548Y-17154595D01*
X8881024Y-17192690D01*
X8881024Y-17268881D01*
X8890548Y-17287929D01*
X8900071Y-17297452D01*
X8919119Y-17306976D01*
X8957214Y-17306976D01*
X8976262Y-17297452D01*
X8985786Y-17287929D01*
X8995310Y-17268881D01*
X8995310Y-17221262D01*
X8985786Y-17202214D01*
X8976262Y-17192690D01*
X8957214Y-17183167D01*
X8919119Y-17183167D01*
X8900071Y-17192690D01*
X8890548Y-17202214D01*
X8881024Y-17221262D01*
X9119119Y-17106976D02*
X9138167Y-17106976D01*
X9157214Y-17116500D01*
X9166738Y-17126024D01*
X9176262Y-17145071D01*
X9185786Y-17183167D01*
X9185786Y-17230786D01*
X9176262Y-17268881D01*
X9166738Y-17287929D01*
X9157214Y-17297452D01*
X9138167Y-17306976D01*
X9119119Y-17306976D01*
X9100071Y-17297452D01*
X9090548Y-17287929D01*
X9081024Y-17268881D01*
X9071500Y-17230786D01*
X9071500Y-17183167D01*
X9081024Y-17145071D01*
X9090548Y-17126024D01*
X9100071Y-17116500D01*
X9119119Y-17106976D01*
X9261976Y-17106976D02*
X9261976Y-17145071D01*
X9338167Y-17106976D02*
X9338167Y-17145071D01*
X9633405Y-17383167D02*
X9623881Y-17373643D01*
X9604833Y-17345071D01*
X9595310Y-17326024D01*
X9585786Y-17297452D01*
X9576262Y-17249833D01*
X9576262Y-17211738D01*
X9585786Y-17164119D01*
X9595310Y-17135548D01*
X9604833Y-17116500D01*
X9623881Y-17087929D01*
X9633405Y-17078405D01*
X9795310Y-17106976D02*
X9757214Y-17106976D01*
X9738167Y-17116500D01*
X9728643Y-17126024D01*
X9709595Y-17154595D01*
X9700071Y-17192690D01*
X9700071Y-17268881D01*
X9709595Y-17287929D01*
X9719119Y-17297452D01*
X9738167Y-17306976D01*
X9776262Y-17306976D01*
X9795310Y-17297452D01*
X9804833Y-17287929D01*
X9814357Y-17268881D01*
X9814357Y-17221262D01*
X9804833Y-17202214D01*
X9795310Y-17192690D01*
X9776262Y-17183167D01*
X9738167Y-17183167D01*
X9719119Y-17192690D01*
X9709595Y-17202214D01*
X9700071Y-17221262D01*
X10052452Y-17306976D02*
X10052452Y-17106976D01*
X10138167Y-17306976D02*
X10138167Y-17202214D01*
X10128643Y-17183167D01*
X10109595Y-17173643D01*
X10081024Y-17173643D01*
X10061976Y-17183167D01*
X10052452Y-17192690D01*
X10261976Y-17306976D02*
X10242929Y-17297452D01*
X10233405Y-17287929D01*
X10223881Y-17268881D01*
X10223881Y-17211738D01*
X10233405Y-17192690D01*
X10242929Y-17183167D01*
X10261976Y-17173643D01*
X10290548Y-17173643D01*
X10309595Y-17183167D01*
X10319119Y-17192690D01*
X10328643Y-17211738D01*
X10328643Y-17268881D01*
X10319119Y-17287929D01*
X10309595Y-17297452D01*
X10290548Y-17306976D01*
X10261976Y-17306976D01*
X10442929Y-17306976D02*
X10423881Y-17297452D01*
X10414357Y-17278405D01*
X10414357Y-17106976D01*
X10595310Y-17297452D02*
X10576262Y-17306976D01*
X10538167Y-17306976D01*
X10519119Y-17297452D01*
X10509595Y-17278405D01*
X10509595Y-17202214D01*
X10519119Y-17183167D01*
X10538167Y-17173643D01*
X10576262Y-17173643D01*
X10595310Y-17183167D01*
X10604833Y-17202214D01*
X10604833Y-17221262D01*
X10509595Y-17240310D01*
X10681024Y-17297452D02*
X10700071Y-17306976D01*
X10738167Y-17306976D01*
X10757214Y-17297452D01*
X10766738Y-17278405D01*
X10766738Y-17268881D01*
X10757214Y-17249833D01*
X10738167Y-17240310D01*
X10709595Y-17240310D01*
X10690548Y-17230786D01*
X10681024Y-17211738D01*
X10681024Y-17202214D01*
X10690548Y-17183167D01*
X10709595Y-17173643D01*
X10738167Y-17173643D01*
X10757214Y-17183167D01*
X10833405Y-17383167D02*
X10842929Y-17373643D01*
X10861976Y-17345071D01*
X10871500Y-17326024D01*
X10881024Y-17297452D01*
X10890548Y-17249833D01*
X10890548Y-17211738D01*
X10881024Y-17164119D01*
X10871500Y-17135548D01*
X10861976Y-17116500D01*
X10842929Y-17087929D01*
X10833405Y-17078405D01*
X11195309Y-17383167D02*
X11185786Y-17373643D01*
X11166738Y-17345071D01*
X11157214Y-17326024D01*
X11147690Y-17297452D01*
X11138167Y-17249833D01*
X11138167Y-17211738D01*
X11147690Y-17164119D01*
X11157214Y-17135548D01*
X11166738Y-17116500D01*
X11185786Y-17087929D01*
X11195309Y-17078405D01*
X11271500Y-17173643D02*
X11271500Y-17306976D01*
X11271500Y-17192690D02*
X11281024Y-17183167D01*
X11300071Y-17173643D01*
X11328643Y-17173643D01*
X11347690Y-17183167D01*
X11357214Y-17202214D01*
X11357214Y-17306976D01*
X11481024Y-17306976D02*
X11461976Y-17297452D01*
X11452452Y-17287929D01*
X11442928Y-17268881D01*
X11442928Y-17211738D01*
X11452452Y-17192690D01*
X11461976Y-17183167D01*
X11481024Y-17173643D01*
X11509595Y-17173643D01*
X11528643Y-17183167D01*
X11538167Y-17192690D01*
X11547690Y-17211738D01*
X11547690Y-17268881D01*
X11538167Y-17287929D01*
X11528643Y-17297452D01*
X11509595Y-17306976D01*
X11481024Y-17306976D01*
X11604833Y-17173643D02*
X11681024Y-17173643D01*
X11633405Y-17106976D02*
X11633405Y-17278405D01*
X11642928Y-17297452D01*
X11661976Y-17306976D01*
X11681024Y-17306976D01*
X11900071Y-17173643D02*
X11900071Y-17373643D01*
X11900071Y-17183167D02*
X11919119Y-17173643D01*
X11957214Y-17173643D01*
X11976262Y-17183167D01*
X11985786Y-17192690D01*
X11995309Y-17211738D01*
X11995309Y-17268881D01*
X11985786Y-17287929D01*
X11976262Y-17297452D01*
X11957214Y-17306976D01*
X11919119Y-17306976D01*
X11900071Y-17297452D01*
X12109595Y-17306976D02*
X12090548Y-17297452D01*
X12081024Y-17278405D01*
X12081024Y-17106976D01*
X12271500Y-17306976D02*
X12271500Y-17202214D01*
X12261976Y-17183167D01*
X12242928Y-17173643D01*
X12204833Y-17173643D01*
X12185786Y-17183167D01*
X12271500Y-17297452D02*
X12252452Y-17306976D01*
X12204833Y-17306976D01*
X12185786Y-17297452D01*
X12176262Y-17278405D01*
X12176262Y-17259357D01*
X12185786Y-17240310D01*
X12204833Y-17230786D01*
X12252452Y-17230786D01*
X12271500Y-17221262D01*
X12338167Y-17173643D02*
X12414357Y-17173643D01*
X12366738Y-17106976D02*
X12366738Y-17278405D01*
X12376262Y-17297452D01*
X12395309Y-17306976D01*
X12414357Y-17306976D01*
X12557214Y-17297452D02*
X12538167Y-17306976D01*
X12500071Y-17306976D01*
X12481024Y-17297452D01*
X12471500Y-17278405D01*
X12471500Y-17202214D01*
X12481024Y-17183167D01*
X12500071Y-17173643D01*
X12538167Y-17173643D01*
X12557214Y-17183167D01*
X12566738Y-17202214D01*
X12566738Y-17221262D01*
X12471500Y-17240310D01*
X12738167Y-17306976D02*
X12738167Y-17106976D01*
X12738167Y-17297452D02*
X12719119Y-17306976D01*
X12681024Y-17306976D01*
X12661976Y-17297452D01*
X12652452Y-17287929D01*
X12642928Y-17268881D01*
X12642928Y-17211738D01*
X12652452Y-17192690D01*
X12661976Y-17183167D01*
X12681024Y-17173643D01*
X12719119Y-17173643D01*
X12738167Y-17183167D01*
X12814357Y-17383167D02*
X12823881Y-17373643D01*
X12842928Y-17345071D01*
X12852452Y-17326024D01*
X12861976Y-17297452D01*
X12871500Y-17249833D01*
X12871500Y-17211738D01*
X12861976Y-17164119D01*
X12852452Y-17135548D01*
X12842928Y-17116500D01*
X12823881Y-17087929D01*
X12814357Y-17078405D01*
M02*
