M48
; DRILL file {KiCad 6.0.0~rc2+dfsg1-1} date Fri 14 Jan 2022 16:17:11 UTC
; FORMAT={3:3/ absolute / metric / suppress leading zeros}
; #@! TF.CreationDate,2022-01-14T16:17:11+00:00
; #@! TF.GenerationSoftware,Kicad,Pcbnew,6.0.0~rc2+dfsg1-1
; #@! TF.FileFunction,MixedPlating,1,2
FMAT,2
METRIC,TZ
; #@! TA.AperFunction,Plated,PTH,ViaDrill
T1C0.400
; #@! TA.AperFunction,Plated,PTH,ComponentDrill
T2C0.700
; #@! TA.AperFunction,Plated,PTH,ComponentDrill
T3C0.800
; #@! TA.AperFunction,Plated,PTH,ComponentDrill
T4C0.900
; #@! TA.AperFunction,Plated,PTH,ComponentDrill
T5C1.000
; #@! TA.AperFunction,Plated,PTH,ComponentDrill
T6C1.300
; #@! TA.AperFunction,Plated,PTH,ComponentDrill
T7C1.500
; #@! TA.AperFunction,NonPlated,NPTH,ComponentDrill
T8C3.200
%
G90
G05
T1
X62140Y-55235
X62140Y-70475
X62140Y-90000
X62140Y-105240
X62140Y-124830
X62140Y-140070
X68490Y-48885
X68490Y-75555
X68490Y-83650
X68490Y-110320
X68490Y-118480
X68490Y-145150
X111670Y-52695
X111670Y-87460
X111670Y-122290
X115650Y-87600
X115700Y-122300
X115725Y-52800
X118020Y-75555
X118020Y-110320
X118020Y-145150
X128750Y-119275
X128800Y-49600
X128875Y-84450
T2
X69165Y-67300
X69165Y-102065
X69165Y-136895
X71030Y-50155
X71030Y-57775
X71030Y-84920
X71030Y-92540
X71030Y-119750
X71030Y-127370
X73570Y-50155
X73570Y-84920
X73570Y-119750
X74880Y-61585
X74880Y-96350
X74880Y-131180
X76785Y-67300
X76785Y-102065
X76785Y-136895
X81190Y-50155
X81190Y-84920
X81190Y-119750
X81230Y-65395
X81230Y-73015
X81230Y-100160
X81230Y-107780
X81230Y-134990
X81230Y-142610
X82500Y-61585
X82500Y-96350
X82500Y-131180
X83730Y-50155
X83730Y-57775
X83730Y-84920
X83730Y-92540
X83730Y-119750
X83730Y-127370
X100240Y-55235
X100240Y-90000
X100240Y-124830
X106590Y-57775
X106590Y-92540
X106590Y-127370
X107860Y-55235
X107860Y-90000
X107860Y-124830
X110400Y-67935
X110400Y-102700
X110400Y-137530
X114210Y-57775
X114210Y-92540
X114210Y-127370
X118020Y-67935
X118020Y-102700
X118020Y-137530
T3
X67300Y-61585
X67300Y-96350
X67300Y-131180
X68550Y-61585
X68550Y-96350
X68550Y-131180
X71050Y-61585
X71050Y-96350
X71050Y-131180
X72300Y-61585
X72300Y-96350
X72300Y-131180
X72975Y-71785
X72975Y-74285
X72975Y-106550
X72975Y-109050
X72975Y-141380
X72975Y-143880
X77380Y-55235
X77380Y-57235
X77380Y-90000
X77380Y-92000
X77380Y-124830
X77380Y-126830
X85080Y-74285
X85080Y-109050
X85080Y-143880
X86325Y-61575
X86325Y-64115
X86325Y-66655
X86325Y-69195
X86325Y-96340
X86325Y-98880
X86325Y-101420
X86325Y-103960
X86325Y-131170
X86325Y-133710
X86325Y-136250
X86325Y-138790
X86330Y-74285
X86330Y-109050
X86330Y-143880
X88830Y-74285
X88830Y-109050
X88830Y-143880
X90080Y-74285
X90080Y-109050
X90080Y-143880
X90385Y-55231
X90385Y-89995
X90385Y-124826
X91985Y-52060
X91985Y-54560
X91985Y-86825
X91985Y-89325
X91985Y-121655
X91985Y-124155
X93585Y-51390
X93585Y-86154
X93585Y-120984
X93945Y-61575
X93945Y-64115
X93945Y-66655
X93945Y-69195
X93945Y-96340
X93945Y-98880
X93945Y-101420
X93945Y-103960
X93945Y-131170
X93945Y-133710
X93945Y-136250
X93945Y-138790
X98985Y-61575
X98985Y-64115
X98985Y-66655
X98985Y-69195
X98985Y-96340
X98985Y-98880
X98985Y-101420
X98985Y-103960
X98985Y-131170
X98985Y-133710
X98985Y-136250
X98985Y-138790
X100240Y-57775
X100240Y-92540
X100240Y-127370
X102740Y-57775
X102740Y-92540
X102740Y-127370
X106605Y-61575
X106605Y-64115
X106605Y-66655
X106605Y-69195
X106605Y-96340
X106605Y-98880
X106605Y-101420
X106605Y-103960
X106605Y-131170
X106605Y-133710
X106605Y-136250
X106605Y-138790
X112940Y-61585
X112940Y-63585
X112940Y-96350
X112940Y-98350
X112940Y-131180
X112940Y-133180
X114210Y-71745
X114210Y-73745
X114210Y-106510
X114210Y-108510
X114210Y-141340
X114210Y-143340
T4
X63410Y-61355
X63410Y-63895
X63410Y-96120
X63410Y-98660
X63410Y-130950
X63410Y-133490
X101320Y-51425
X101320Y-86190
X101320Y-121020
X101510Y-73650
X101510Y-108415
X101510Y-143245
X103320Y-51425
X103320Y-86190
X103320Y-121020
X103510Y-73650
X103510Y-108415
X103510Y-143245
X105320Y-51425
X105320Y-86190
X105320Y-121020
X105510Y-73650
X105510Y-108415
X105510Y-143245
T5
X111035Y-50155
X111035Y-84920
X111035Y-119750
X113575Y-50155
X113575Y-84920
X113575Y-119750
T6
X117615Y-50105
X117615Y-84870
X117615Y-119700
X120815Y-59405
X120815Y-94170
X120815Y-129000
X122015Y-56705
X122015Y-91470
X122015Y-126300
X122705Y-64355
X122705Y-69355
X122705Y-74355
X122705Y-99120
X122705Y-104120
X122705Y-109120
X122705Y-133950
X122705Y-138950
X122705Y-143950
X124915Y-49605
X124915Y-84370
X124915Y-119200
X128010Y-64285
X128010Y-69285
X128010Y-74285
X128010Y-99050
X128010Y-104050
X128010Y-109050
X128010Y-133880
X128010Y-138880
X128010Y-143880
X128815Y-54205
X128815Y-88970
X128815Y-123800
T7
X99220Y-51425
X99220Y-86190
X99220Y-121020
X99410Y-73650
X99410Y-108415
X99410Y-143245
X107420Y-51425
X107420Y-86190
X107420Y-121020
X107610Y-73650
X107610Y-108415
X107610Y-143245
T8
X64640Y-51605
X64640Y-73605
X64640Y-86370
X64640Y-108370
X64640Y-121200
X64640Y-143200
T0
M30
