%TF.GenerationSoftware,KiCad,Pcbnew,6.0.0~rc2+dfsg1-1*%
%TF.CreationDate,2022-01-14T16:17:06+00:00*%
%TF.ProjectId,LiRX_tht_nutzen,4c695258-5f74-4687-945f-6e75747a656e,rev?*%
%TF.SameCoordinates,Original*%
%TF.FileFunction,Legend,Bot*%
%TF.FilePolarity,Positive*%
%FSLAX46Y46*%
G04 Gerber Fmt 4.6, Leading zero omitted, Abs format (unit mm)*
G04 Created by KiCad (PCBNEW 6.0.0~rc2+dfsg1-1) date 2022-01-14 16:17:06*
%MOMM*%
%LPD*%
G01*
G04 APERTURE LIST*
%ADD10C,2.000000*%
G04 APERTURE END LIST*
D10*
X115795238Y-74800012D02*
X125319047Y-74800012D01*
X125319047Y-49800012D01*
X109128571Y-74800012D02*
X109128571Y-58133346D01*
X109128571Y-49800012D02*
X110080952Y-50990489D01*
X109128571Y-52180965D01*
X108176190Y-50990489D01*
X109128571Y-49800012D01*
X109128571Y-52180965D01*
X88176190Y-74800012D02*
X94842857Y-62895250D01*
X99604761Y-74800012D02*
X99604761Y-49800012D01*
X91985714Y-49800012D01*
X90080952Y-50990489D01*
X89128571Y-52180965D01*
X88176190Y-54561917D01*
X88176190Y-58133346D01*
X89128571Y-60514298D01*
X90080952Y-61704774D01*
X91985714Y-62895250D01*
X99604761Y-62895250D01*
X81509523Y-49800012D02*
X68176190Y-74800012D01*
X68176190Y-49800012D02*
X81509523Y-74800012D01*
X115795238Y-109564034D02*
X125319047Y-109564034D01*
X125319047Y-84564034D01*
X109128571Y-109564034D02*
X109128571Y-92897368D01*
X109128571Y-84564034D02*
X110080952Y-85754511D01*
X109128571Y-86944987D01*
X108176190Y-85754511D01*
X109128571Y-84564034D01*
X109128571Y-86944987D01*
X88176190Y-109564034D02*
X94842857Y-97659272D01*
X99604761Y-109564034D02*
X99604761Y-84564034D01*
X91985714Y-84564034D01*
X90080952Y-85754511D01*
X89128571Y-86944987D01*
X88176190Y-89325939D01*
X88176190Y-92897368D01*
X89128571Y-95278320D01*
X90080952Y-96468796D01*
X91985714Y-97659272D01*
X99604761Y-97659272D01*
X81509523Y-84564034D02*
X68176190Y-109564034D01*
X68176190Y-84564034D02*
X81509523Y-109564034D01*
X115795238Y-144394523D02*
X125319047Y-144394523D01*
X125319047Y-119394523D01*
X109128571Y-144394523D02*
X109128571Y-127727857D01*
X109128571Y-119394523D02*
X110080952Y-120585000D01*
X109128571Y-121775476D01*
X108176190Y-120585000D01*
X109128571Y-119394523D01*
X109128571Y-121775476D01*
X88176190Y-144394523D02*
X94842857Y-132489761D01*
X99604761Y-144394523D02*
X99604761Y-119394523D01*
X91985714Y-119394523D01*
X90080952Y-120585000D01*
X89128571Y-121775476D01*
X88176190Y-124156428D01*
X88176190Y-127727857D01*
X89128571Y-130108809D01*
X90080952Y-131299285D01*
X91985714Y-132489761D01*
X99604761Y-132489761D01*
X81509523Y-119394523D02*
X68176190Y-144394523D01*
X68176190Y-119394523D02*
X81509523Y-144394523D01*
M02*
