%TF.GenerationSoftware,KiCad,Pcbnew,6.0.0~rc2+dfsg1-1*%
%TF.CreationDate,2022-01-14T16:17:07+00:00*%
%TF.ProjectId,LiRX_tht_nutzen,4c695258-5f74-4687-945f-6e75747a656e,rev?*%
%TF.SameCoordinates,Original*%
%TF.FileFunction,Profile,NP*%
%FSLAX46Y46*%
G04 Gerber Fmt 4.6, Leading zero omitted, Abs format (unit mm)*
G04 Created by KiCad (PCBNEW 6.0.0~rc2+dfsg1-1) date 2022-01-14 16:17:07*
%MOMM*%
%LPD*%
G01*
G04 APERTURE LIST*
%TA.AperFunction,Profile*%
%ADD10C,0.050000*%
%TD*%
G04 APERTURE END LIST*
D10*
X113921662Y-117173634D02*
G75*
G03*
X115346662Y-115821662I0J1426972D01*
G01*
X70437414Y-117196365D02*
G75*
G03*
X71396661Y-116246662I34248J924703D01*
G01*
X64640000Y-117200000D02*
X70437414Y-117196365D01*
X76471436Y-113196662D02*
X76346098Y-116271662D01*
X121671662Y-117196662D02*
X130640000Y-117200000D01*
X115346662Y-115821662D02*
X115323741Y-113917911D01*
X77296435Y-117196661D02*
X113921662Y-117173634D01*
X64640000Y-112369511D02*
X70446662Y-112421663D01*
X113874663Y-112385105D02*
X77296435Y-112420149D01*
X115323741Y-113917911D02*
G75*
G03*
X113874663Y-112385105I-1474078J57807D01*
G01*
X121775000Y-112375000D02*
G75*
G03*
X120250000Y-113900000I0J-1525000D01*
G01*
X130640000Y-112369511D02*
X121775000Y-112375000D01*
X77296435Y-112420151D02*
G75*
G03*
X76471436Y-113196662I227J-826754D01*
G01*
X71322028Y-113271662D02*
G75*
G03*
X70446662Y-112421663I-850255J115D01*
G01*
X76346098Y-116271662D02*
G75*
G03*
X77296435Y-117196661I925337J0D01*
G01*
X120250000Y-113900000D02*
X120246662Y-115771662D01*
X71396661Y-116246662D02*
X71322029Y-113271662D01*
X120246662Y-115771662D02*
G75*
G03*
X121671662Y-117196662I1425000J0D01*
G01*
X76474774Y-78375000D02*
X76349436Y-81450000D01*
X71399999Y-81425000D02*
X71325367Y-78450000D01*
X77299773Y-82374999D02*
X113925000Y-82351972D01*
X113878001Y-77563443D02*
X77299773Y-77598487D01*
X115350000Y-81000000D02*
X115327079Y-79096249D01*
X121675000Y-82375000D02*
X130640000Y-82369511D01*
X120253338Y-79078338D02*
X120250000Y-80950000D01*
X130640000Y-77605489D02*
X121778338Y-77553338D01*
X115327079Y-79096249D02*
G75*
G03*
X113878001Y-77563443I-1474078J57807D01*
G01*
X113925000Y-82351972D02*
G75*
G03*
X115350000Y-81000000I0J1426972D01*
G01*
X121778338Y-77553338D02*
G75*
G03*
X120253338Y-79078338I0J-1525000D01*
G01*
X120250000Y-80950000D02*
G75*
G03*
X121675000Y-82375000I1425000J0D01*
G01*
X76349436Y-81450000D02*
G75*
G03*
X77299773Y-82374999I925337J0D01*
G01*
X77299773Y-77598489D02*
G75*
G03*
X76474774Y-78375000I227J-826754D01*
G01*
X70440752Y-82374703D02*
G75*
G03*
X71399999Y-81425000I34248J924703D01*
G01*
X71325366Y-78450000D02*
G75*
G03*
X70450000Y-77600001I-850255J115D01*
G01*
X64640000Y-82369511D02*
X70440752Y-82374703D01*
X64640000Y-77605489D02*
X70450000Y-77600001D01*
X60640000Y-73605489D02*
G75*
G03*
X64640000Y-77605489I4000000J0D01*
G01*
X130640000Y-47605489D02*
X130640000Y-77605489D01*
X64640000Y-47605489D02*
G75*
G03*
X60640000Y-51605489I0J-4000000D01*
G01*
X60640000Y-73605489D02*
X60640000Y-51605489D01*
X64640000Y-47605489D02*
X130640000Y-47605489D01*
X130640000Y-82369511D02*
X130640000Y-112369511D01*
X60640000Y-108369511D02*
G75*
G03*
X64640000Y-112369511I4000000J0D01*
G01*
X64640000Y-82369511D02*
G75*
G03*
X60640000Y-86369511I0J-4000000D01*
G01*
X60640000Y-108369511D02*
X60640000Y-86369511D01*
X60640000Y-143200000D02*
X60640000Y-121200000D01*
X64640000Y-117200000D02*
G75*
G03*
X60640000Y-121200000I0J-4000000D01*
G01*
X64640000Y-147200000D02*
X130640000Y-147200000D01*
X60640000Y-143200000D02*
G75*
G03*
X64640000Y-147200000I4000000J0D01*
G01*
X130640000Y-117200000D02*
X130640000Y-147200000D01*
M02*
