<?xml version="1.0" encoding="UTF-8"?>
<svg width="212.20mm" height="160.30mm" viewBox="0.0 0.0 212.20 160.30" xmlns="http://www.w3.org/2000/svg" xmlns:dc="http://purl.org/dc/elements/1.1/" xmlns:cc="http://creativecommons.org/ns#" xmlns:rdf="http://www.w3.org/1999/02/22-rdf-syntax-ns#" xmlns:svg="http://www.w3.org/2000/svg" xmlns:xlink="http://www.w3.org/1999/xlink" xmlns:inkscape="http://www.inkscape.org/namespaces/inkscape">
<!--
ClosedBox - Fully closed box


This box is more of a building block than a finished item.
Use a vector graphics program (like Inkscape) to add holes or adjust the base
plate.

See BasedBox for variant with a base.


Created with Boxes.py (https://festi.info/boxes.py)
Creation date: 2022-10-06 16:54:18
Command line (remove spaces between dashes): boxes ClosedBox - -FingerJoint_angle=90.0 - -FingerJoint_style=rectangular - -FingerJoint_surroundingspaces=2.0 - -FingerJoint_edge_width=1.0 - -FingerJoint_extra_length=0.0 - -FingerJoint_finger=2.0 - -FingerJoint_play=0.0 - -FingerJoint_space=2.0 - -FingerJoint_width=1.0 - -x=95 - -y=65 - -h=30 - -outside=0 - -outside=1 - -thickness=3.0 - -format=svg - -tabs=0.0 - -debug=0 - -labels=0 - -labels=1 - -reference=100 - -inner_corners=loop - -burn=0.1
Url: http://www.festi.info/ClosedBox?FingerJoint_angle=90.0&FingerJoint_style=rectangular&FingerJoint_surroundingspaces=2.0&FingerJoint_edge_width=1.0&FingerJoint_extra_length=0.0&FingerJoint_finger=2.0&FingerJoint_play=0.0&FingerJoint_space=2.0&FingerJoint_width=1.0&x=95&y=65&h=30&outside=0&outside=1&thickness=3.0&format=svg&tabs=0.0&debug=0&labels=0&labels=1&reference=100&inner_corners=loop&burn=0.1&render=1
SettingsUrl: http://www.festi.info/ClosedBox?FingerJoint_angle=90.0&FingerJoint_style=rectangular&FingerJoint_surroundingspaces=2.0&FingerJoint_edge_width=1.0&FingerJoint_extra_length=0.0&FingerJoint_finger=2.0&FingerJoint_play=0.0&FingerJoint_space=2.0&FingerJoint_width=1.0&x=95&y=65&h=30&outside=0&outside=1&thickness=3.0&format=svg&tabs=0.0&debug=0&labels=0&labels=1&reference=100&inner_corners=loop&burn=0.1
-->
<title>ClosedBox</title>
<metadata>
<rdf:RDF><cc:Work>
<dc:title>Box - ClosedBox</dc:title>
<dc:date>2022-10-06 16:54:18</dc:date>
<dc:source>http://www.festi.info/ClosedBox?FingerJoint_angle=90.0&amp;FingerJoint_style=rectangular&amp;FingerJoint_surroundingspaces=2.0&amp;FingerJoint_edge_width=1.0&amp;FingerJoint_extra_length=0.0&amp;FingerJoint_finger=2.0&amp;FingerJoint_play=0.0&amp;FingerJoint_space=2.0&amp;FingerJoint_width=1.0&amp;x=95&amp;y=65&amp;h=30&amp;outside=0&amp;outside=1&amp;thickness=3.0&amp;format=svg&amp;tabs=0.0&amp;debug=0&amp;labels=0&amp;labels=1&amp;reference=100&amp;inner_corners=loop&amp;burn=0.1&amp;render=1</dc:source>
<dc:description>Fully closed box

This box is more of a building block than a finished item.
Use a vector graphics program (like Inkscape) to add holes or adjust the base
plate.

See BasedBox for variant with a base.

Created with Boxes.py (https://festi.info/boxes.py)
Command line: boxes ClosedBox --FingerJoint_angle=90.0 --FingerJoint_style=rectangular --FingerJoint_surroundingspaces=2.0 --FingerJoint_edge_width=1.0 --FingerJoint_extra_length=0.0 --FingerJoint_finger=2.0 --FingerJoint_play=0.0 --FingerJoint_space=2.0 --FingerJoint_width=1.0 --x=95 --y=65 --h=30 --outside=0 --outside=1 --thickness=3.0 --format=svg --tabs=0.0 --debug=0 --labels=0 --labels=1 --reference=100 --inner_corners=loop --burn=0.1
Url: http://www.festi.info/ClosedBox?FingerJoint_angle=90.0&amp;FingerJoint_style=rectangular&amp;FingerJoint_surroundingspaces=2.0&amp;FingerJoint_edge_width=1.0&amp;FingerJoint_extra_length=0.0&amp;FingerJoint_finger=2.0&amp;FingerJoint_play=0.0&amp;FingerJoint_space=2.0&amp;FingerJoint_width=1.0&amp;x=95&amp;y=65&amp;h=30&amp;outside=0&amp;outside=1&amp;thickness=3.0&amp;format=svg&amp;tabs=0.0&amp;debug=0&amp;labels=0&amp;labels=1&amp;reference=100&amp;inner_corners=loop&amp;burn=0.1&amp;render=1
SettingsUrl: http://www.festi.info/ClosedBox?FingerJoint_angle=90.0&amp;FingerJoint_style=rectangular&amp;FingerJoint_surroundingspaces=2.0&amp;FingerJoint_edge_width=1.0&amp;FingerJoint_extra_length=0.0&amp;FingerJoint_finger=2.0&amp;FingerJoint_play=0.0&amp;FingerJoint_space=2.0&amp;FingerJoint_width=1.0&amp;x=95&amp;y=65&amp;h=30&amp;outside=0&amp;outside=1&amp;thickness=3.0&amp;format=svg&amp;tabs=0.0&amp;debug=0&amp;labels=0&amp;labels=1&amp;reference=100&amp;inner_corners=loop&amp;burn=0.1
</dc:description>
</cc:Work></rdf:RDF></metadata>
<g id="p-0" style="fill:none;stroke-linecap:round;stroke-linejoin:round;">
  <path d="M 10.400 150.300 H 110.400 V 140.300 H 10.400 V 150.300 Z" stroke="rgb(0,0,0)" stroke-width="0.20"/>
  <text transform="matrix( 1.000 0.000 0.000 1.000 60.400 141.300 )" style="font-family: sans-serif ; font-weight: normal; font-style: normal; fill: rgb(255,0,0)" font-size="8px" text-anchor="middle" dominant-baseline="hanging">100mm, burn:0.10mm</text>
</g>
<g id="p-1" style="fill:none;stroke-linecap:round;stroke-linejoin:round;">
  <text transform="matrix( 1.000 0.000 0.000 1.000 57.900 121.600 )" style="font-family: sans-serif ; font-weight: normal; font-style: normal; fill: rgb(255,0,0)" font-size="4px" text-anchor="middle" dominant-baseline="hanging">Wall 1</text><path d="M 13.400 138.600 H 24.900 C 24.955 138.600 25.000 138.555 25.000 138.500 V 135.600 C 25.000 135.500 24.900 135.600 25.000 135.600 H 30.800 C 30.900 135.600 30.800 135.500 30.800 135.600 V 138.500 C 30.800 138.555 30.845 138.600 30.900 138.600 H 36.900 C 36.955 138.600 37.000 138.555 37.000 138.500 V 135.600 C 37.000 135.500 36.900 135.600 37.000 135.600 H 42.800 C 42.900 135.600 42.800 135.500 42.800 135.600 V 138.500 C 42.800 138.555 42.845 138.600 42.900 138.600 H 48.900 C 48.955 138.600 49.000 138.555 49.000 138.500 V 135.600 C 49.000 135.500 48.900 135.600 49.000 135.600 H 54.800 C 54.900 135.600 54.800 135.500 54.800 135.600 V 138.500 C 54.800 138.555 54.845 138.600 54.900 138.600 H 60.900 C 60.955 138.600 61.000 138.555 61.000 138.500 V 135.600 C 61.000 135.500 60.900 135.600 61.000 135.600 H 66.800 C 66.900 135.600 66.800 135.500 66.800 135.600 V 138.500 C 66.800 138.555 66.845 138.600 66.900 138.600 H 72.900 C 72.955 138.600 73.000 138.555 73.000 138.500 V 135.600 C 73.000 135.500 72.900 135.600 73.000 135.600 H 78.800 C 78.900 135.600 78.800 135.500 78.800 135.600 V 138.500 C 78.800 138.555 78.845 138.600 78.900 138.600 H 84.900 C 84.955 138.600 85.000 138.555 85.000 138.500 V 135.600 C 85.000 135.500 84.900 135.600 85.000 135.600 H 90.800 C 90.900 135.600 90.800 135.500 90.800 135.600 V 138.500 C 90.800 138.555 90.845 138.600 90.900 138.600 H 102.400 H 105.400 C 105.455 138.600 105.500 138.555 105.500 138.500 V 135.500 V 126.500 C 105.500 126.445 105.455 126.400 105.400 126.400 H 102.500 C 102.400 126.400 102.500 126.500 102.500 126.400 V 120.600 C 102.500 120.500 102.400 120.600 102.500 120.600 H 105.400 C 105.455 120.600 105.500 120.555 105.500 120.500 V 111.500 V 108.500 C 105.500 108.445 105.455 108.400 105.400 108.400 H 102.400 H 90.900 C 90.845 108.400 90.800 108.445 90.800 108.500 V 111.400 C 90.800 111.500 90.900 111.400 90.800 111.400 H 85.000 C 84.900 111.400 85.000 111.500 85.000 111.400 V 108.500 C 85.000 108.445 84.955 108.400 84.900 108.400 H 78.900 C 78.845 108.400 78.800 108.445 78.800 108.500 V 111.400 C 78.800 111.500 78.900 111.400 78.800 111.400 H 73.000 C 72.900 111.400 73.000 111.500 73.000 111.400 V 108.500 C 73.000 108.445 72.955 108.400 72.900 108.400 H 66.900 C 66.845 108.400 66.800 108.445 66.800 108.500 V 111.400 C 66.800 111.500 66.900 111.400 66.800 111.400 H 61.000 C 60.900 111.400 61.000 111.500 61.000 111.400 V 108.500 C 61.000 108.445 60.955 108.400 60.900 108.400 H 54.900 C 54.845 108.400 54.800 108.445 54.800 108.500 V 111.400 C 54.800 111.500 54.900 111.400 54.800 111.400 H 49.000 C 48.900 111.400 49.000 111.500 49.000 111.400 V 108.500 C 49.000 108.445 48.955 108.400 48.900 108.400 H 42.900 C 42.845 108.400 42.800 108.445 42.800 108.500 V 111.400 C 42.800 111.500 42.900 111.400 42.800 111.400 H 37.000 C 36.900 111.400 37.000 111.500 37.000 111.400 V 108.500 C 37.000 108.445 36.955 108.400 36.900 108.400 H 30.900 C 30.845 108.400 30.800 108.445 30.800 108.500 V 111.400 C 30.800 111.500 30.900 111.400 30.800 111.400 H 25.000 C 24.900 111.400 25.000 111.500 25.000 111.400 V 108.500 C 25.000 108.445 24.955 108.400 24.900 108.400 H 13.400 H 10.400 C 10.345 108.400 10.300 108.445 10.300 108.500 V 111.500 V 120.500 C 10.300 120.555 10.345 120.600 10.400 120.600 H 13.300 C 13.400 120.600 13.300 120.500 13.300 120.600 V 126.400 C 13.300 126.500 13.400 126.400 13.300 126.400 H 10.400 C 10.345 126.400 10.300 126.445 10.300 126.500 V 135.500 V 138.500 C 10.300 138.555 10.345 138.600 10.400 138.600 H 13.400" stroke="rgb(0,0,0)" stroke-width="0.20"/>
</g>
<g id="p-2" style="fill:none;stroke-linecap:round;stroke-linejoin:round;">
  <text transform="matrix( 1.000 0.000 0.000 1.000 139.600 121.600 )" style="font-family: sans-serif ; font-weight: normal; font-style: normal; fill: rgb(255,0,0)" font-size="4px" text-anchor="middle" dominant-baseline="hanging">Wall 2</text><path d="M 110.100 138.600 H 118.600 C 118.655 138.600 118.700 138.555 118.700 138.500 V 135.600 C 118.700 135.500 118.600 135.600 118.700 135.600 H 124.500 C 124.600 135.600 124.500 135.500 124.500 135.600 V 138.500 C 124.500 138.555 124.545 138.600 124.600 138.600 H 130.600 C 130.655 138.600 130.700 138.555 130.700 138.500 V 135.600 C 130.700 135.500 130.600 135.600 130.700 135.600 H 136.500 C 136.600 135.600 136.500 135.500 136.500 135.600 V 138.500 C 136.500 138.555 136.545 138.600 136.600 138.600 H 142.600 C 142.655 138.600 142.700 138.555 142.700 138.500 V 135.600 C 142.700 135.500 142.600 135.600 142.700 135.600 H 148.500 C 148.600 135.600 148.500 135.500 148.500 135.600 V 138.500 C 148.500 138.555 148.545 138.600 148.600 138.600 H 154.600 C 154.655 138.600 154.700 138.555 154.700 138.500 V 135.600 C 154.700 135.500 154.600 135.600 154.700 135.600 H 160.500 C 160.600 135.600 160.500 135.500 160.500 135.600 V 138.500 C 160.500 138.555 160.545 138.600 160.600 138.600 H 169.100 C 169.155 138.600 169.200 138.555 169.200 138.500 V 135.500 V 126.600 C 169.200 126.500 169.100 126.600 169.200 126.600 H 172.100 C 172.155 126.600 172.200 126.555 172.200 126.500 V 120.500 C 172.200 120.445 172.155 120.400 172.100 120.400 H 169.200 C 169.100 120.400 169.200 120.500 169.200 120.400 V 111.500 V 108.500 C 169.200 108.445 169.155 108.400 169.100 108.400 H 160.600 C 160.545 108.400 160.500 108.445 160.500 108.500 V 111.400 C 160.500 111.500 160.600 111.400 160.500 111.400 H 154.700 C 154.600 111.400 154.700 111.500 154.700 111.400 V 108.500 C 154.700 108.445 154.655 108.400 154.600 108.400 H 148.600 C 148.545 108.400 148.500 108.445 148.500 108.500 V 111.400 C 148.500 111.500 148.600 111.400 148.500 111.400 H 142.700 C 142.600 111.400 142.700 111.500 142.700 111.400 V 108.500 C 142.700 108.445 142.655 108.400 142.600 108.400 H 136.600 C 136.545 108.400 136.500 108.445 136.500 108.500 V 111.400 C 136.500 111.500 136.600 111.400 136.500 111.400 H 130.700 C 130.600 111.400 130.700 111.500 130.700 111.400 V 108.500 C 130.700 108.445 130.655 108.400 130.600 108.400 H 124.600 C 124.545 108.400 124.500 108.445 124.500 108.500 V 111.400 C 124.500 111.500 124.600 111.400 124.500 111.400 H 118.700 C 118.600 111.400 118.700 111.500 118.700 111.400 V 108.500 C 118.700 108.445 118.655 108.400 118.600 108.400 H 110.100 C 110.045 108.400 110.000 108.445 110.000 108.500 V 111.500 V 120.400 C 110.000 120.500 110.100 120.400 110.000 120.400 H 107.100 C 107.045 120.400 107.000 120.445 107.000 120.500 V 126.500 C 107.000 126.555 107.045 126.600 107.100 126.600 H 110.000 C 110.100 126.600 110.000 126.500 110.000 126.600 V 135.500 V 138.500 C 110.000 138.555 110.045 138.600 110.100 138.600" stroke="rgb(0,0,0)" stroke-width="0.20"/>
</g>
<g id="p-3" style="fill:none;stroke-linecap:round;stroke-linejoin:round;">
  <text transform="matrix( 1.000 0.000 0.000 1.000 139.600 89.900 )" style="font-family: sans-serif ; font-weight: normal; font-style: normal; fill: rgb(255,0,0)" font-size="4px" text-anchor="middle" dominant-baseline="hanging">Wall 4</text><path d="M 110.100 106.900 H 118.600 C 118.655 106.900 118.700 106.855 118.700 106.800 V 103.900 C 118.700 103.800 118.600 103.900 118.700 103.900 H 124.500 C 124.600 103.900 124.500 103.800 124.500 103.900 V 106.800 C 124.500 106.855 124.545 106.900 124.600 106.900 H 130.600 C 130.655 106.900 130.700 106.855 130.700 106.800 V 103.900 C 130.700 103.800 130.600 103.900 130.700 103.900 H 136.500 C 136.600 103.900 136.500 103.800 136.500 103.900 V 106.800 C 136.500 106.855 136.545 106.900 136.600 106.900 H 142.600 C 142.655 106.900 142.700 106.855 142.700 106.800 V 103.900 C 142.700 103.800 142.600 103.900 142.700 103.900 H 148.500 C 148.600 103.900 148.500 103.800 148.500 103.900 V 106.800 C 148.500 106.855 148.545 106.900 148.600 106.900 H 154.600 C 154.655 106.900 154.700 106.855 154.700 106.800 V 103.900 C 154.700 103.800 154.600 103.900 154.700 103.900 H 160.500 C 160.600 103.900 160.500 103.800 160.500 103.900 V 106.800 C 160.500 106.855 160.545 106.900 160.600 106.900 H 169.100 C 169.155 106.900 169.200 106.855 169.200 106.800 V 103.800 V 94.900 C 169.200 94.800 169.100 94.900 169.200 94.900 H 172.100 C 172.155 94.900 172.200 94.855 172.200 94.800 V 88.800 C 172.200 88.745 172.155 88.700 172.100 88.700 H 169.200 C 169.100 88.700 169.200 88.800 169.200 88.700 V 79.800 V 76.800 C 169.200 76.745 169.155 76.700 169.100 76.700 H 160.600 C 160.545 76.700 160.500 76.745 160.500 76.800 V 79.700 C 160.500 79.800 160.600 79.700 160.500 79.700 H 154.700 C 154.600 79.700 154.700 79.800 154.700 79.700 V 76.800 C 154.700 76.745 154.655 76.700 154.600 76.700 H 148.600 C 148.545 76.700 148.500 76.745 148.500 76.800 V 79.700 C 148.500 79.800 148.600 79.700 148.500 79.700 H 142.700 C 142.600 79.700 142.700 79.800 142.700 79.700 V 76.800 C 142.700 76.745 142.655 76.700 142.600 76.700 H 136.600 C 136.545 76.700 136.500 76.745 136.500 76.800 V 79.700 C 136.500 79.800 136.600 79.700 136.500 79.700 H 130.700 C 130.600 79.700 130.700 79.800 130.700 79.700 V 76.800 C 130.700 76.745 130.655 76.700 130.600 76.700 H 124.600 C 124.545 76.700 124.500 76.745 124.500 76.800 V 79.700 C 124.500 79.800 124.600 79.700 124.500 79.700 H 118.700 C 118.600 79.700 118.700 79.800 118.700 79.700 V 76.800 C 118.700 76.745 118.655 76.700 118.600 76.700 H 110.100 C 110.045 76.700 110.000 76.745 110.000 76.800 V 79.800 V 88.700 C 110.000 88.800 110.100 88.700 110.000 88.700 H 107.100 C 107.045 88.700 107.000 88.745 107.000 88.800 V 94.800 C 107.000 94.855 107.045 94.900 107.100 94.900 H 110.000 C 110.100 94.900 110.000 94.800 110.000 94.900 V 103.800 V 106.800 C 110.000 106.855 110.045 106.900 110.100 106.900" stroke="rgb(0,0,0)" stroke-width="0.20"/>
</g>
<g id="p-4" style="fill:none;stroke-linecap:round;stroke-linejoin:round;">
  <text transform="matrix( 1.000 0.000 0.000 1.000 57.900 89.900 )" style="font-family: sans-serif ; font-weight: normal; font-style: normal; fill: rgb(255,0,0)" font-size="4px" text-anchor="middle" dominant-baseline="hanging">Wall 3</text><path d="M 13.400 106.900 H 24.900 C 24.955 106.900 25.000 106.855 25.000 106.800 V 103.900 C 25.000 103.800 24.900 103.900 25.000 103.900 H 30.800 C 30.900 103.900 30.800 103.800 30.800 103.900 V 106.800 C 30.800 106.855 30.845 106.900 30.900 106.900 H 36.900 C 36.955 106.900 37.000 106.855 37.000 106.800 V 103.900 C 37.000 103.800 36.900 103.900 37.000 103.900 H 42.800 C 42.900 103.900 42.800 103.800 42.800 103.900 V 106.800 C 42.800 106.855 42.845 106.900 42.900 106.900 H 48.900 C 48.955 106.900 49.000 106.855 49.000 106.800 V 103.900 C 49.000 103.800 48.900 103.900 49.000 103.900 H 54.800 C 54.900 103.900 54.800 103.800 54.800 103.900 V 106.800 C 54.800 106.855 54.845 106.900 54.900 106.900 H 60.900 C 60.955 106.900 61.000 106.855 61.000 106.800 V 103.900 C 61.000 103.800 60.900 103.900 61.000 103.900 H 66.800 C 66.900 103.900 66.800 103.800 66.800 103.900 V 106.800 C 66.800 106.855 66.845 106.900 66.900 106.900 H 72.900 C 72.955 106.900 73.000 106.855 73.000 106.800 V 103.900 C 73.000 103.800 72.900 103.900 73.000 103.900 H 78.800 C 78.900 103.900 78.800 103.800 78.800 103.900 V 106.800 C 78.800 106.855 78.845 106.900 78.900 106.900 H 84.900 C 84.955 106.900 85.000 106.855 85.000 106.800 V 103.900 C 85.000 103.800 84.900 103.900 85.000 103.900 H 90.800 C 90.900 103.900 90.800 103.800 90.800 103.900 V 106.800 C 90.800 106.855 90.845 106.900 90.900 106.900 H 102.400 H 105.400 C 105.455 106.900 105.500 106.855 105.500 106.800 V 103.800 V 94.800 C 105.500 94.745 105.455 94.700 105.400 94.700 H 102.500 C 102.400 94.700 102.500 94.800 102.500 94.700 V 88.900 C 102.500 88.800 102.400 88.900 102.500 88.900 H 105.400 C 105.455 88.900 105.500 88.855 105.500 88.800 V 79.800 V 76.800 C 105.500 76.745 105.455 76.700 105.400 76.700 H 102.400 H 90.900 C 90.845 76.700 90.800 76.745 90.800 76.800 V 79.700 C 90.800 79.800 90.900 79.700 90.800 79.700 H 85.000 C 84.900 79.700 85.000 79.800 85.000 79.700 V 76.800 C 85.000 76.745 84.955 76.700 84.900 76.700 H 78.900 C 78.845 76.700 78.800 76.745 78.800 76.800 V 79.700 C 78.800 79.800 78.900 79.700 78.800 79.700 H 73.000 C 72.900 79.700 73.000 79.800 73.000 79.700 V 76.800 C 73.000 76.745 72.955 76.700 72.900 76.700 H 66.900 C 66.845 76.700 66.800 76.745 66.800 76.800 V 79.700 C 66.800 79.800 66.900 79.700 66.800 79.700 H 61.000 C 60.900 79.700 61.000 79.800 61.000 79.700 V 76.800 C 61.000 76.745 60.955 76.700 60.900 76.700 H 54.900 C 54.845 76.700 54.800 76.745 54.800 76.800 V 79.700 C 54.800 79.800 54.900 79.700 54.800 79.700 H 49.000 C 48.900 79.700 49.000 79.800 49.000 79.700 V 76.800 C 49.000 76.745 48.955 76.700 48.900 76.700 H 42.900 C 42.845 76.700 42.800 76.745 42.800 76.800 V 79.700 C 42.800 79.800 42.900 79.700 42.800 79.700 H 37.000 C 36.900 79.700 37.000 79.800 37.000 79.700 V 76.800 C 37.000 76.745 36.955 76.700 36.900 76.700 H 30.900 C 30.845 76.700 30.800 76.745 30.800 76.800 V 79.700 C 30.800 79.800 30.900 79.700 30.800 79.700 H 25.000 C 24.900 79.700 25.000 79.800 25.000 79.700 V 76.800 C 25.000 76.745 24.955 76.700 24.900 76.700 H 13.400 H 10.400 C 10.345 76.700 10.300 76.745 10.300 76.800 V 79.800 V 88.800 C 10.300 88.855 10.345 88.900 10.400 88.900 H 13.300 C 13.400 88.900 13.300 88.800 13.300 88.900 V 94.700 C 13.300 94.800 13.400 94.700 13.300 94.700 H 10.400 C 10.345 94.700 10.300 94.745 10.300 94.800 V 103.800 V 106.800 C 10.300 106.855 10.345 106.900 10.400 106.900 H 13.400" stroke="rgb(0,0,0)" stroke-width="0.20"/>
</g>
<g id="p-5" style="fill:none;stroke-linecap:round;stroke-linejoin:round;">
  <text transform="matrix( 1.000 0.000 0.000 1.000 57.900 40.700 )" style="font-family: sans-serif ; font-weight: normal; font-style: normal; fill: rgb(255,0,0)" font-size="4px" text-anchor="middle" dominant-baseline="hanging">Top</text><path d="M 13.400 72.200 H 24.800 C 24.900 72.200 24.800 72.100 24.800 72.200 V 75.100 C 24.800 75.155 24.845 75.200 24.900 75.200 H 30.900 C 30.955 75.200 31.000 75.155 31.000 75.100 V 72.200 C 31.000 72.100 30.900 72.200 31.000 72.200 H 36.800 C 36.900 72.200 36.800 72.100 36.800 72.200 V 75.100 C 36.800 75.155 36.845 75.200 36.900 75.200 H 42.900 C 42.955 75.200 43.000 75.155 43.000 75.100 V 72.200 C 43.000 72.100 42.900 72.200 43.000 72.200 H 48.800 C 48.900 72.200 48.800 72.100 48.800 72.200 V 75.100 C 48.800 75.155 48.845 75.200 48.900 75.200 H 54.900 C 54.955 75.200 55.000 75.155 55.000 75.100 V 72.200 C 55.000 72.100 54.900 72.200 55.000 72.200 H 60.800 C 60.900 72.200 60.800 72.100 60.800 72.200 V 75.100 C 60.800 75.155 60.845 75.200 60.900 75.200 H 66.900 C 66.955 75.200 67.000 75.155 67.000 75.100 V 72.200 C 67.000 72.100 66.900 72.200 67.000 72.200 H 72.800 C 72.900 72.200 72.800 72.100 72.800 72.200 V 75.100 C 72.800 75.155 72.845 75.200 72.900 75.200 H 78.900 C 78.955 75.200 79.000 75.155 79.000 75.100 V 72.200 C 79.000 72.100 78.900 72.200 79.000 72.200 H 84.800 C 84.900 72.200 84.800 72.100 84.800 72.200 V 75.100 C 84.800 75.155 84.845 75.200 84.900 75.200 H 90.900 C 90.955 75.200 91.000 75.155 91.000 75.100 V 72.200 C 91.000 72.100 90.900 72.200 91.000 72.200 H 102.400 C 102.455 72.200 102.500 72.155 102.500 72.100 V 63.700 C 102.500 63.600 102.400 63.700 102.500 63.700 H 105.400 C 105.455 63.700 105.500 63.655 105.500 63.600 V 57.600 C 105.500 57.545 105.455 57.500 105.400 57.500 H 102.500 C 102.400 57.500 102.500 57.600 102.500 57.500 V 51.700 C 102.500 51.600 102.400 51.700 102.500 51.700 H 105.400 C 105.455 51.700 105.500 51.655 105.500 51.600 V 45.600 C 105.500 45.545 105.455 45.500 105.400 45.500 H 102.500 C 102.400 45.500 102.500 45.600 102.500 45.500 V 39.700 C 102.500 39.600 102.400 39.700 102.500 39.700 H 105.400 C 105.455 39.700 105.500 39.655 105.500 39.600 V 33.600 C 105.500 33.545 105.455 33.500 105.400 33.500 H 102.500 C 102.400 33.500 102.500 33.600 102.500 33.500 V 27.700 C 102.500 27.600 102.400 27.700 102.500 27.700 H 105.400 C 105.455 27.700 105.500 27.655 105.500 27.600 V 21.600 C 105.500 21.545 105.455 21.500 105.400 21.500 H 102.500 C 102.400 21.500 102.500 21.600 102.500 21.500 V 13.100 C 102.500 13.045 102.455 13.000 102.400 13.000 H 91.000 C 90.900 13.000 91.000 13.100 91.000 13.000 V 10.100 C 91.000 10.045 90.955 10.000 90.900 10.000 H 84.900 C 84.845 10.000 84.800 10.045 84.800 10.100 V 13.000 C 84.800 13.100 84.900 13.000 84.800 13.000 H 79.000 C 78.900 13.000 79.000 13.100 79.000 13.000 V 10.100 C 79.000 10.045 78.955 10.000 78.900 10.000 H 72.900 C 72.845 10.000 72.800 10.045 72.800 10.100 V 13.000 C 72.800 13.100 72.900 13.000 72.800 13.000 H 67.000 C 66.900 13.000 67.000 13.100 67.000 13.000 V 10.100 C 67.000 10.045 66.955 10.000 66.900 10.000 H 60.900 C 60.845 10.000 60.800 10.045 60.800 10.100 V 13.000 C 60.800 13.100 60.900 13.000 60.800 13.000 H 55.000 C 54.900 13.000 55.000 13.100 55.000 13.000 V 10.100 C 55.000 10.045 54.955 10.000 54.900 10.000 H 48.900 C 48.845 10.000 48.800 10.045 48.800 10.100 V 13.000 C 48.800 13.100 48.900 13.000 48.800 13.000 H 43.000 C 42.900 13.000 43.000 13.100 43.000 13.000 V 10.100 C 43.000 10.045 42.955 10.000 42.900 10.000 H 36.900 C 36.845 10.000 36.800 10.045 36.800 10.100 V 13.000 C 36.800 13.100 36.900 13.000 36.800 13.000 H 31.000 C 30.900 13.000 31.000 13.100 31.000 13.000 V 10.100 C 31.000 10.045 30.955 10.000 30.900 10.000 H 24.900 C 24.845 10.000 24.800 10.045 24.800 10.100 V 13.000 C 24.800 13.100 24.900 13.000 24.800 13.000 H 13.400 C 13.345 13.000 13.300 13.045 13.300 13.100 V 21.500 C 13.300 21.600 13.400 21.500 13.300 21.500 H 10.400 C 10.345 21.500 10.300 21.545 10.300 21.600 V 27.600 C 10.300 27.655 10.345 27.700 10.400 27.700 H 13.300 C 13.400 27.700 13.300 27.600 13.300 27.700 V 33.500 C 13.300 33.600 13.400 33.500 13.300 33.500 H 10.400 C 10.345 33.500 10.300 33.545 10.300 33.600 V 39.600 C 10.300 39.655 10.345 39.700 10.400 39.700 H 13.300 C 13.400 39.700 13.300 39.600 13.300 39.700 V 45.500 C 13.300 45.600 13.400 45.500 13.300 45.500 H 10.400 C 10.345 45.500 10.300 45.545 10.300 45.600 V 51.600 C 10.300 51.655 10.345 51.700 10.400 51.700 H 13.300 C 13.400 51.700 13.300 51.600 13.300 51.700 V 57.500 C 13.300 57.600 13.400 57.500 13.300 57.500 H 10.400 C 10.345 57.500 10.300 57.545 10.300 57.600 V 63.600 C 10.300 63.655 10.345 63.700 10.400 63.700 H 13.300 C 13.400 63.700 13.300 63.600 13.300 63.700 V 72.100 C 13.300 72.155 13.345 72.200 13.400 72.200" stroke="rgb(0,0,0)" stroke-width="0.20"/>
</g>
<g id="p-6" style="fill:none;stroke-linecap:round;stroke-linejoin:round;">
  <text transform="matrix( 1.000 0.000 0.000 1.000 154.600 40.700 )" style="font-family: sans-serif ; font-weight: normal; font-style: normal; fill: rgb(255,0,0)" font-size="4px" text-anchor="middle" dominant-baseline="hanging">Bottom</text><path d="M 110.100 72.200 H 121.500 C 121.600 72.200 121.500 72.100 121.500 72.200 V 75.100 C 121.500 75.155 121.545 75.200 121.600 75.200 H 127.600 C 127.655 75.200 127.700 75.155 127.700 75.100 V 72.200 C 127.700 72.100 127.600 72.200 127.700 72.200 H 133.500 C 133.600 72.200 133.500 72.100 133.500 72.200 V 75.100 C 133.500 75.155 133.545 75.200 133.600 75.200 H 139.600 C 139.655 75.200 139.700 75.155 139.700 75.100 V 72.200 C 139.700 72.100 139.600 72.200 139.700 72.200 H 145.500 C 145.600 72.200 145.500 72.100 145.500 72.200 V 75.100 C 145.500 75.155 145.545 75.200 145.600 75.200 H 151.600 C 151.655 75.200 151.700 75.155 151.700 75.100 V 72.200 C 151.700 72.100 151.600 72.200 151.700 72.200 H 157.500 C 157.600 72.200 157.500 72.100 157.500 72.200 V 75.100 C 157.500 75.155 157.545 75.200 157.600 75.200 H 163.600 C 163.655 75.200 163.700 75.155 163.700 75.100 V 72.200 C 163.700 72.100 163.600 72.200 163.700 72.200 H 169.500 C 169.600 72.200 169.500 72.100 169.500 72.200 V 75.100 C 169.500 75.155 169.545 75.200 169.600 75.200 H 175.600 C 175.655 75.200 175.700 75.155 175.700 75.100 V 72.200 C 175.700 72.100 175.600 72.200 175.700 72.200 H 181.500 C 181.600 72.200 181.500 72.100 181.500 72.200 V 75.100 C 181.500 75.155 181.545 75.200 181.600 75.200 H 187.600 C 187.655 75.200 187.700 75.155 187.700 75.100 V 72.200 C 187.700 72.100 187.600 72.200 187.700 72.200 H 199.100 C 199.155 72.200 199.200 72.155 199.200 72.100 V 63.700 C 199.200 63.600 199.100 63.700 199.200 63.700 H 202.100 C 202.155 63.700 202.200 63.655 202.200 63.600 V 57.600 C 202.200 57.545 202.155 57.500 202.100 57.500 H 199.200 C 199.100 57.500 199.200 57.600 199.200 57.500 V 51.700 C 199.200 51.600 199.100 51.700 199.200 51.700 H 202.100 C 202.155 51.700 202.200 51.655 202.200 51.600 V 45.600 C 202.200 45.545 202.155 45.500 202.100 45.500 H 199.200 C 199.100 45.500 199.200 45.600 199.200 45.500 V 39.700 C 199.200 39.600 199.100 39.700 199.200 39.700 H 202.100 C 202.155 39.700 202.200 39.655 202.200 39.600 V 33.600 C 202.200 33.545 202.155 33.500 202.100 33.500 H 199.200 C 199.100 33.500 199.200 33.600 199.200 33.500 V 27.700 C 199.200 27.600 199.100 27.700 199.200 27.700 H 202.100 C 202.155 27.700 202.200 27.655 202.200 27.600 V 21.600 C 202.200 21.545 202.155 21.500 202.100 21.500 H 199.200 C 199.100 21.500 199.200 21.600 199.200 21.500 V 13.100 C 199.200 13.045 199.155 13.000 199.100 13.000 H 187.700 C 187.600 13.000 187.700 13.100 187.700 13.000 V 10.100 C 187.700 10.045 187.655 10.000 187.600 10.000 H 181.600 C 181.545 10.000 181.500 10.045 181.500 10.100 V 13.000 C 181.500 13.100 181.600 13.000 181.500 13.000 H 175.700 C 175.600 13.000 175.700 13.100 175.700 13.000 V 10.100 C 175.700 10.045 175.655 10.000 175.600 10.000 H 169.600 C 169.545 10.000 169.500 10.045 169.500 10.100 V 13.000 C 169.500 13.100 169.600 13.000 169.500 13.000 H 163.700 C 163.600 13.000 163.700 13.100 163.700 13.000 V 10.100 C 163.700 10.045 163.655 10.000 163.600 10.000 H 157.600 C 157.545 10.000 157.500 10.045 157.500 10.100 V 13.000 C 157.500 13.100 157.600 13.000 157.500 13.000 H 151.700 C 151.600 13.000 151.700 13.100 151.700 13.000 V 10.100 C 151.700 10.045 151.655 10.000 151.600 10.000 H 145.600 C 145.545 10.000 145.500 10.045 145.500 10.100 V 13.000 C 145.500 13.100 145.600 13.000 145.500 13.000 H 139.700 C 139.600 13.000 139.700 13.100 139.700 13.000 V 10.100 C 139.700 10.045 139.655 10.000 139.600 10.000 H 133.600 C 133.545 10.000 133.500 10.045 133.500 10.100 V 13.000 C 133.500 13.100 133.600 13.000 133.500 13.000 H 127.700 C 127.600 13.000 127.700 13.100 127.700 13.000 V 10.100 C 127.700 10.045 127.655 10.000 127.600 10.000 H 121.600 C 121.545 10.000 121.500 10.045 121.500 10.100 V 13.000 C 121.500 13.100 121.600 13.000 121.500 13.000 H 110.100 C 110.045 13.000 110.000 13.045 110.000 13.100 V 21.500 C 110.000 21.600 110.100 21.500 110.000 21.500 H 107.100 C 107.045 21.500 107.000 21.545 107.000 21.600 V 27.600 C 107.000 27.655 107.045 27.700 107.100 27.700 H 110.000 C 110.100 27.700 110.000 27.600 110.000 27.700 V 33.500 C 110.000 33.600 110.100 33.500 110.000 33.500 H 107.100 C 107.045 33.500 107.000 33.545 107.000 33.600 V 39.600 C 107.000 39.655 107.045 39.700 107.100 39.700 H 110.000 C 110.100 39.700 110.000 39.600 110.000 39.700 V 45.500 C 110.000 45.600 110.100 45.500 110.000 45.500 H 107.100 C 107.045 45.500 107.000 45.545 107.000 45.600 V 51.600 C 107.000 51.655 107.045 51.700 107.100 51.700 H 110.000 C 110.100 51.700 110.000 51.600 110.000 51.700 V 57.500 C 110.000 57.600 110.100 57.500 110.000 57.500 H 107.100 C 107.045 57.500 107.000 57.545 107.000 57.600 V 63.600 C 107.000 63.655 107.045 63.700 107.100 63.700 H 110.000 C 110.100 63.700 110.000 63.600 110.000 63.700 V 72.100 C 110.000 72.155 110.045 72.200 110.100 72.200" stroke="rgb(0,0,0)" stroke-width="0.20"/>
</g>
</svg>