%TF.GenerationSoftware,KiCad,Pcbnew,6.0.0~rc2+dfsg1-1*%
%TF.CreationDate,2022-01-05T20:23:20+00:00*%
%TF.ProjectId,LiRX_tht,4c695258-5f74-4687-942e-6b696361645f,rev?*%
%TF.SameCoordinates,Original*%
%TF.FileFunction,Soldermask,Top*%
%TF.FilePolarity,Negative*%
%FSLAX46Y46*%
G04 Gerber Fmt 4.6, Leading zero omitted, Abs format (unit mm)*
G04 Created by KiCad (PCBNEW 6.0.0~rc2+dfsg1-1) date 2022-01-05 20:23:20*
%MOMM*%
%LPD*%
G01*
G04 APERTURE LIST*
%ADD10C,1.400000*%
%ADD11O,1.400000X1.400000*%
%ADD12O,2.400000X1.600000*%
%ADD13R,2.400000X1.600000*%
%ADD14R,1.600000X1.600000*%
%ADD15C,1.600000*%
%ADD16R,1.700000X1.700000*%
%ADD17O,1.700000X1.700000*%
%ADD18R,4.000000X2.200000*%
%ADD19O,2.200000X4.000000*%
%ADD20O,4.000000X2.200000*%
%ADD21C,3.200000*%
%ADD22R,1.800000X1.800000*%
%ADD23C,1.800000*%
%ADD24C,2.340000*%
%ADD25O,2.200000X3.500000*%
%ADD26O,1.500000X2.500000*%
%ADD27R,1.500000X2.500000*%
G04 APERTURE END LIST*
D10*
%TO.C,R20*%
X72390000Y-82550000D03*
D11*
X72390000Y-90170000D03*
%TD*%
D10*
%TO.C,R19*%
X82590000Y-97790000D03*
D11*
X82590000Y-105410000D03*
%TD*%
D10*
%TO.C,R18*%
X85090000Y-82550000D03*
D11*
X85090000Y-90170000D03*
%TD*%
D10*
%TO.C,R17*%
X78145000Y-99695000D03*
D11*
X70525000Y-99695000D03*
%TD*%
D10*
%TO.C,R15*%
X101600000Y-87630000D03*
D11*
X109220000Y-87630000D03*
%TD*%
D10*
%TO.C,R14*%
X82550000Y-82550000D03*
D11*
X74930000Y-82550000D03*
%TD*%
D10*
%TO.C,R3*%
X107950000Y-90170000D03*
D11*
X115570000Y-90170000D03*
%TD*%
D10*
%TO.C,R2*%
X119380000Y-100330000D03*
D11*
X111760000Y-100330000D03*
%TD*%
D10*
%TO.C,R1*%
X83860000Y-93980000D03*
D11*
X76240000Y-93980000D03*
%TD*%
D12*
%TO.C,U2*%
X100345000Y-101590000D03*
X107965000Y-93970000D03*
X100345000Y-99050000D03*
X107965000Y-96510000D03*
X100345000Y-96510000D03*
X107965000Y-99050000D03*
X100345000Y-93970000D03*
D13*
X107965000Y-101590000D03*
%TD*%
D14*
%TO.C,C11*%
X114300000Y-93980000D03*
D15*
X114300000Y-95980000D03*
%TD*%
D16*
%TO.C,BT1*%
X112395000Y-82550000D03*
D17*
X114935000Y-82550000D03*
%TD*%
D15*
%TO.C,C12*%
X104100000Y-90170000D03*
X101600000Y-90170000D03*
%TD*%
D18*
%TO.C,J4*%
X126275000Y-82000000D03*
D19*
X118975000Y-82500000D03*
D20*
X123375000Y-89100000D03*
X122175000Y-91800000D03*
D19*
X130175000Y-86600000D03*
%TD*%
D21*
%TO.C,H1*%
X66000000Y-84000000D03*
%TD*%
%TO.C,H2*%
X66000000Y-106000000D03*
%TD*%
D13*
%TO.C,U3*%
X95305000Y-101590000D03*
D12*
X87685000Y-93970000D03*
X95305000Y-99050000D03*
X87685000Y-96510000D03*
X95305000Y-96510000D03*
X87685000Y-99050000D03*
X95305000Y-93970000D03*
X87685000Y-101590000D03*
%TD*%
D15*
%TO.C,C13*%
X115570000Y-106140000D03*
D14*
X115570000Y-104140000D03*
%TD*%
%TO.C,C14*%
X78740000Y-87630000D03*
D15*
X78740000Y-89630000D03*
%TD*%
D22*
%TO.C,Q3*%
X64770000Y-93750000D03*
D23*
X64770000Y-96290000D03*
%TD*%
D15*
%TO.C,C3*%
X74335000Y-106680000D03*
X74335000Y-104180000D03*
%TD*%
%TO.C,C9*%
X68660000Y-93980000D03*
X73660000Y-93980000D03*
X69910000Y-93980000D03*
X72410000Y-93980000D03*
%TD*%
%TO.C,C10*%
X90190000Y-106680000D03*
X87690000Y-106680000D03*
X91440000Y-106680000D03*
X86440000Y-106680000D03*
%TD*%
D24*
%TO.C,RV1*%
X129370000Y-96680000D03*
X129370000Y-101680000D03*
X129370000Y-106680000D03*
%TD*%
%TO.C,RV3*%
X124065000Y-96750000D03*
X124065000Y-101750000D03*
X124065000Y-106750000D03*
%TD*%
D25*
%TO.C,SW1*%
X108970000Y-106045000D03*
X100770000Y-106045000D03*
D26*
X106870000Y-106045000D03*
X104870000Y-106045000D03*
D27*
X102870000Y-106045000D03*
%TD*%
%TO.C,SW2*%
X106680000Y-83820000D03*
D26*
X104680000Y-83820000D03*
X102680000Y-83820000D03*
D25*
X108780000Y-83820000D03*
X100580000Y-83820000D03*
%TD*%
D14*
%TO.C,C8*%
X93345000Y-84455000D03*
D15*
X93345000Y-86955000D03*
D14*
X94945000Y-83784063D03*
D15*
X91745000Y-87625937D03*
%TD*%
M02*
