%TF.GenerationSoftware,KiCad,Pcbnew,6.0.0~rc2+dfsg1-1*%
%TF.CreationDate,2022-01-05T20:23:19+00:00*%
%TF.ProjectId,LiRX_tht,4c695258-5f74-4687-942e-6b696361645f,rev?*%
%TF.SameCoordinates,Original*%
%TF.FileFunction,Copper,L1,Top*%
%TF.FilePolarity,Positive*%
%FSLAX46Y46*%
G04 Gerber Fmt 4.6, Leading zero omitted, Abs format (unit mm)*
G04 Created by KiCad (PCBNEW 6.0.0~rc2+dfsg1-1) date 2022-01-05 20:23:19*
%MOMM*%
%LPD*%
G01*
G04 APERTURE LIST*
%TA.AperFunction,ComponentPad*%
%ADD10C,1.400000*%
%TD*%
%TA.AperFunction,ComponentPad*%
%ADD11O,1.400000X1.400000*%
%TD*%
%TA.AperFunction,ComponentPad*%
%ADD12O,2.400000X1.600000*%
%TD*%
%TA.AperFunction,ComponentPad*%
%ADD13R,2.400000X1.600000*%
%TD*%
%TA.AperFunction,ComponentPad*%
%ADD14R,1.600000X1.600000*%
%TD*%
%TA.AperFunction,ComponentPad*%
%ADD15C,1.600000*%
%TD*%
%TA.AperFunction,ComponentPad*%
%ADD16R,1.700000X1.700000*%
%TD*%
%TA.AperFunction,ComponentPad*%
%ADD17O,1.700000X1.700000*%
%TD*%
%TA.AperFunction,ComponentPad*%
%ADD18R,4.000000X2.200000*%
%TD*%
%TA.AperFunction,ComponentPad*%
%ADD19O,2.200000X4.000000*%
%TD*%
%TA.AperFunction,ComponentPad*%
%ADD20O,4.000000X2.200000*%
%TD*%
%TA.AperFunction,ComponentPad*%
%ADD21R,1.800000X1.800000*%
%TD*%
%TA.AperFunction,ComponentPad*%
%ADD22C,1.800000*%
%TD*%
%TA.AperFunction,ComponentPad*%
%ADD23C,2.340000*%
%TD*%
%TA.AperFunction,ComponentPad*%
%ADD24O,2.200000X3.500000*%
%TD*%
%TA.AperFunction,ComponentPad*%
%ADD25O,1.500000X2.500000*%
%TD*%
%TA.AperFunction,ComponentPad*%
%ADD26R,1.500000X2.500000*%
%TD*%
%TA.AperFunction,ViaPad*%
%ADD27C,0.800000*%
%TD*%
%TA.AperFunction,Conductor*%
%ADD28C,1.000000*%
%TD*%
G04 APERTURE END LIST*
D10*
%TO.P,R20,1*%
%TO.N,TP2*%
X72390000Y-82550000D03*
D11*
%TO.P,R20,2*%
%TO.N,TP4*%
X72390000Y-90170000D03*
%TD*%
D10*
%TO.P,R19,1*%
%TO.N,Net-(R18-Pad2)*%
X82590000Y-97790000D03*
D11*
%TO.P,R19,2*%
%TO.N,GND*%
X82590000Y-105410000D03*
%TD*%
D10*
%TO.P,R18,1*%
%TO.N,TP2*%
X85090000Y-82550000D03*
D11*
%TO.P,R18,2*%
%TO.N,Net-(R18-Pad2)*%
X85090000Y-90170000D03*
%TD*%
D10*
%TO.P,R17,1*%
%TO.N,TP6*%
X78145000Y-99695000D03*
D11*
%TO.P,R17,2*%
%TO.N,TP5*%
X70525000Y-99695000D03*
%TD*%
D10*
%TO.P,R15,1*%
%TO.N,GND*%
X101600000Y-87630000D03*
D11*
%TO.P,R15,2*%
%TO.N,Net-(C12-Pad2)*%
X109220000Y-87630000D03*
%TD*%
D10*
%TO.P,R14,1*%
%TO.N,Net-(C8-Pad1)*%
X82550000Y-82550000D03*
D11*
%TO.P,R14,2*%
%TO.N,TP2*%
X74930000Y-82550000D03*
%TD*%
D10*
%TO.P,R3,1*%
%TO.N,Net-(C12-Pad1)*%
X107950000Y-90170000D03*
D11*
%TO.P,R3,2*%
%TO.N,Net-(C11-Pad1)*%
X115570000Y-90170000D03*
%TD*%
D10*
%TO.P,R2,1*%
%TO.N,Net-(R2-Pad1)*%
X119380000Y-100330000D03*
D11*
%TO.P,R2,2*%
%TO.N,GND*%
X111760000Y-100330000D03*
%TD*%
D10*
%TO.P,R1,1*%
%TO.N,TP5*%
X83860000Y-93980000D03*
D11*
%TO.P,R1,2*%
%TO.N,Net-(C9-Pad1)*%
X76240000Y-93980000D03*
%TD*%
D12*
%TO.P,U2,8,GAIN*%
%TO.N,Net-(C13-Pad2)*%
X100345000Y-101590000D03*
%TO.P,U2,4,GND*%
%TO.N,GND*%
X107965000Y-93970000D03*
%TO.P,U2,7,BYPASS*%
%TO.N,unconnected-(U2-Pad7)*%
X100345000Y-99050000D03*
%TO.P,U2,3,+*%
%TO.N,GND*%
X107965000Y-96510000D03*
%TO.P,U2,6,V+*%
%TO.N,Net-(C8-Pad1)*%
X100345000Y-96510000D03*
%TO.P,U2,2,-*%
%TO.N,Net-(R2-Pad1)*%
X107965000Y-99050000D03*
%TO.P,U2,5*%
%TO.N,Net-(C12-Pad1)*%
X100345000Y-93970000D03*
D13*
%TO.P,U2,1,GAIN*%
%TO.N,Net-(SW1-Pad2)*%
X107965000Y-101590000D03*
%TD*%
D14*
%TO.P,C11,1*%
%TO.N,Net-(C11-Pad1)*%
X114300000Y-93980000D03*
D15*
%TO.P,C11,2*%
%TO.N,Net-(C11-Pad2)*%
X114300000Y-95980000D03*
%TD*%
D16*
%TO.P,BT1,1,+*%
%TO.N,VCC*%
X112395000Y-82550000D03*
D17*
%TO.P,BT1,2,-*%
%TO.N,GND*%
X114935000Y-82550000D03*
%TD*%
D15*
%TO.P,C12,2*%
%TO.N,Net-(C12-Pad2)*%
X104100000Y-90170000D03*
%TO.P,C12,1*%
%TO.N,Net-(C12-Pad1)*%
X101600000Y-90170000D03*
%TD*%
D18*
%TO.P,J4,T*%
%TO.N,Net-(C11-Pad2)*%
X126275000Y-82000000D03*
D19*
%TO.P,J4,TN*%
X118975000Y-82500000D03*
D20*
%TO.P,J4,RN*%
X123375000Y-89100000D03*
%TO.P,J4,R*%
X122175000Y-91800000D03*
D19*
%TO.P,J4,S*%
%TO.N,GND*%
X130175000Y-86600000D03*
%TD*%
D13*
%TO.P,U3,1*%
%TO.N,Net-(U3-Pad1)*%
X95305000Y-101590000D03*
D12*
%TO.P,U3,5,+*%
%TO.N,Net-(R18-Pad2)*%
X87685000Y-93970000D03*
%TO.P,U3,2,-*%
%TO.N,Net-(U3-Pad1)*%
X95305000Y-99050000D03*
%TO.P,U3,6,-*%
%TO.N,TP5*%
X87685000Y-96510000D03*
%TO.P,U3,3,+*%
%TO.N,GND*%
X95305000Y-96510000D03*
%TO.P,U3,7*%
%TO.N,TP6*%
X87685000Y-99050000D03*
%TO.P,U3,4,V-*%
%TO.N,GND*%
X95305000Y-93970000D03*
%TO.P,U3,8,V+*%
%TO.N,TP2*%
X87685000Y-101590000D03*
%TD*%
D15*
%TO.P,C13,2*%
%TO.N,Net-(C13-Pad2)*%
X115570000Y-106140000D03*
D14*
%TO.P,C13,1*%
%TO.N,Net-(C13-Pad1)*%
X115570000Y-104140000D03*
%TD*%
%TO.P,C14,1*%
%TO.N,TP2*%
X78740000Y-87630000D03*
D15*
%TO.P,C14,2*%
%TO.N,GND*%
X78740000Y-89630000D03*
%TD*%
D21*
%TO.P,Q3,1,C*%
%TO.N,TP4*%
X64770000Y-93750000D03*
D22*
%TO.P,Q3,2,E*%
%TO.N,GND*%
X64770000Y-96290000D03*
%TD*%
D15*
%TO.P,C3,1*%
%TO.N,TP6*%
X74335000Y-106680000D03*
%TO.P,C3,2*%
%TO.N,TP5*%
X74335000Y-104180000D03*
%TD*%
%TO.P,C9,2*%
%TO.N,TP4*%
X68660000Y-93980000D03*
%TO.P,C9,1*%
%TO.N,Net-(C9-Pad1)*%
X73660000Y-93980000D03*
%TO.P,C9,2*%
%TO.N,TP4*%
X69910000Y-93980000D03*
%TO.P,C9,1*%
%TO.N,Net-(C9-Pad1)*%
X72410000Y-93980000D03*
%TD*%
%TO.P,C10,1*%
%TO.N,Net-(C10-Pad1)*%
X90190000Y-106680000D03*
%TO.P,C10,2*%
%TO.N,TP6*%
X87690000Y-106680000D03*
%TO.P,C10,1*%
%TO.N,Net-(C10-Pad1)*%
X91440000Y-106680000D03*
%TO.P,C10,2*%
%TO.N,TP6*%
X86440000Y-106680000D03*
%TD*%
D23*
%TO.P,RV1,3,3*%
%TO.N,Net-(C10-Pad1)*%
X129370000Y-96680000D03*
%TO.P,RV1,2,2*%
%TO.N,Net-(R2-Pad1)*%
X129370000Y-101680000D03*
%TO.P,RV1,1,1*%
%TO.N,GND*%
X129370000Y-106680000D03*
%TD*%
%TO.P,RV3,3,3*%
%TO.N,Net-(C10-Pad1)*%
X124065000Y-96750000D03*
%TO.P,RV3,2,2*%
%TO.N,Net-(R2-Pad1)*%
X124065000Y-101750000D03*
%TO.P,RV3,1,1*%
%TO.N,GND*%
X124065000Y-106750000D03*
%TD*%
D24*
%TO.P,SW1,*%
%TO.N,*%
X108970000Y-106045000D03*
X100770000Y-106045000D03*
D25*
%TO.P,SW1,3,C*%
%TO.N,Net-(C13-Pad1)*%
X106870000Y-106045000D03*
%TO.P,SW1,2,B*%
%TO.N,Net-(SW1-Pad2)*%
X104870000Y-106045000D03*
D26*
%TO.P,SW1,1,A*%
%TO.N,unconnected-(SW1-Pad1)*%
X102870000Y-106045000D03*
%TD*%
%TO.P,SW2,1,A*%
%TO.N,unconnected-(SW2-Pad1)*%
X106680000Y-83820000D03*
D25*
%TO.P,SW2,2,B*%
%TO.N,VCC*%
X104680000Y-83820000D03*
%TO.P,SW2,3,C*%
%TO.N,Net-(C8-Pad1)*%
X102680000Y-83820000D03*
D24*
%TO.P,SW2,*%
%TO.N,*%
X108780000Y-83820000D03*
X100580000Y-83820000D03*
%TD*%
D14*
%TO.P,C8,1*%
%TO.N,Net-(C8-Pad1)*%
X93345000Y-84455000D03*
D15*
%TO.P,C8,2*%
%TO.N,GND*%
X93345000Y-86955000D03*
D14*
%TO.P,C8,1*%
%TO.N,Net-(C8-Pad1)*%
X94945000Y-83784063D03*
D15*
%TO.P,C8,2*%
%TO.N,GND*%
X91745000Y-87625937D03*
%TD*%
D27*
%TO.N,GND*%
X118110000Y-85090000D03*
X113030000Y-85090000D03*
X130810000Y-82550000D03*
X119380000Y-107950000D03*
X69850000Y-107950000D03*
X63500000Y-102870000D03*
X63500000Y-87630000D03*
X69850000Y-81280000D03*
%TD*%
D28*
%TO.N,Net-(C10-Pad1)*%
X124065000Y-96750000D02*
X129300000Y-96750000D01*
X129300000Y-96750000D02*
X129370000Y-96680000D01*
%TO.N,Net-(C11-Pad2)*%
X119655000Y-91800000D02*
X121010000Y-91800000D01*
X121010000Y-91800000D02*
X122175000Y-91800000D01*
X123375000Y-84900000D02*
X125727500Y-82547500D01*
X125727500Y-82547500D02*
X126275000Y-82000000D01*
%TO.N,Net-(R2-Pad1)*%
X124065000Y-101750000D02*
X129300000Y-101750000D01*
X129300000Y-101750000D02*
X129370000Y-101680000D01*
X119380000Y-100330000D02*
X122645000Y-100330000D01*
X122645000Y-100330000D02*
X124065000Y-101750000D01*
%TO.N,VCC*%
X105630498Y-81270480D02*
X111115480Y-81270480D01*
X111115480Y-81270480D02*
X112395000Y-82550000D01*
%TO.N,Net-(C11-Pad2)*%
X123375000Y-84900000D02*
X123375000Y-84640000D01*
X123375000Y-84640000D02*
X121235000Y-82500000D01*
X121235000Y-82500000D02*
X118975000Y-82500000D01*
X123375000Y-89100000D02*
X123375000Y-84900000D01*
X122175000Y-91800000D02*
X122175000Y-90300000D01*
X122175000Y-90300000D02*
X123375000Y-89100000D01*
X118840000Y-92639022D02*
X118840000Y-92615000D01*
X118840000Y-92615000D02*
X119655000Y-91800000D01*
%TO.N,Net-(U3-Pad1)*%
X95305000Y-101590000D02*
X95305000Y-99050000D01*
%TO.N,Net-(C11-Pad1)*%
X115570000Y-90170000D02*
X115570000Y-92710000D01*
X115570000Y-92710000D02*
X114300000Y-93980000D01*
%TO.N,Net-(C11-Pad2)*%
X118840000Y-92639022D02*
X115499022Y-95980000D01*
X115499022Y-95980000D02*
X114300000Y-95980000D01*
%TO.N,Net-(C12-Pad1)*%
X100345000Y-93970000D02*
X101610000Y-93970000D01*
X101610000Y-93970000D02*
X103505000Y-92075000D01*
X101600000Y-90170000D02*
X103505000Y-92075000D01*
X106045000Y-92075000D02*
X107950000Y-90170000D01*
X103505000Y-92075000D02*
X106045000Y-92075000D01*
%TO.N,Net-(C12-Pad2)*%
X104100000Y-90170000D02*
X106640000Y-87630000D01*
X106640000Y-87630000D02*
X109220000Y-87630000D01*
%TO.N,VCC*%
X104680000Y-83820000D02*
X104680000Y-82220978D01*
X104680000Y-82220978D02*
X105630498Y-81270480D01*
%TO.N,Net-(C8-Pad1)*%
X94945000Y-83784063D02*
X97458583Y-81270480D01*
X97458583Y-81270480D02*
X101366806Y-81270480D01*
X101366806Y-81270480D02*
X102680000Y-82583674D01*
X102680000Y-82583674D02*
X102680000Y-83820000D01*
%TO.N,Net-(R18-Pad2)*%
X85090000Y-90170000D02*
X85090000Y-91375000D01*
X85090000Y-91375000D02*
X87685000Y-93970000D01*
%TO.N,GND*%
X91745000Y-87625937D02*
X92674063Y-87625937D01*
X92674063Y-87625937D02*
X93345000Y-86955000D01*
%TO.N,TP2*%
X85090000Y-82550000D02*
X80010000Y-87630000D01*
X80010000Y-87630000D02*
X78740000Y-87630000D01*
%TO.N,Net-(C8-Pad1)*%
X93345000Y-84455000D02*
X94274063Y-84455000D01*
X94274063Y-84455000D02*
X94945000Y-83784063D01*
X82550000Y-82550000D02*
X84049511Y-81050489D01*
X84049511Y-81050489D02*
X89940489Y-81050489D01*
X89940489Y-81050489D02*
X93345000Y-84455000D01*
%TO.N,TP2*%
X74930000Y-82550000D02*
X74930000Y-83820000D01*
X74930000Y-83820000D02*
X78740000Y-87630000D01*
X72390000Y-82550000D02*
X74930000Y-82550000D01*
%TO.N,TP4*%
X69910000Y-93980000D02*
X69910000Y-92650000D01*
X69910000Y-92650000D02*
X72390000Y-90170000D01*
X64770000Y-93750000D02*
X68430000Y-93750000D01*
X68430000Y-93750000D02*
X68660000Y-93980000D01*
X69910000Y-93980000D02*
X68660000Y-93980000D01*
%TO.N,Net-(C9-Pad1)*%
X76240000Y-93980000D02*
X72410000Y-93980000D01*
%TO.N,TP6*%
X74335000Y-106680000D02*
X78145000Y-102870000D01*
X78145000Y-102870000D02*
X78145000Y-99695000D01*
%TO.N,TP5*%
X83860000Y-93980000D02*
X86390000Y-96510000D01*
X86390000Y-96510000D02*
X87685000Y-96510000D01*
X74335000Y-104180000D02*
X74335000Y-101384370D01*
X74335000Y-101384370D02*
X81739370Y-93980000D01*
X81739370Y-93980000D02*
X83860000Y-93980000D01*
X70525000Y-99695000D02*
X70525000Y-100370000D01*
X70525000Y-100370000D02*
X74335000Y-104180000D01*
%TO.N,TP6*%
X87685000Y-99050000D02*
X87040000Y-99695000D01*
X87040000Y-99695000D02*
X78145000Y-99695000D01*
X87690000Y-106680000D02*
X89684520Y-104685480D01*
X89684520Y-104685480D02*
X89684520Y-100479520D01*
X89684520Y-100479520D02*
X88255000Y-99050000D01*
X88255000Y-99050000D02*
X87685000Y-99050000D01*
X86440000Y-106680000D02*
X87690000Y-106680000D01*
%TO.N,Net-(C13-Pad1)*%
X117169511Y-106802540D02*
X115377531Y-108594520D01*
X115377531Y-108594520D02*
X108183194Y-108594520D01*
X117169511Y-105477460D02*
X117169511Y-106802540D01*
X115832051Y-104140000D02*
X117169511Y-105477460D01*
X115570000Y-104140000D02*
X115832051Y-104140000D01*
X108183194Y-108594520D02*
X107109337Y-107520663D01*
%TO.N,Net-(C13-Pad2)*%
X100345000Y-101590000D02*
X102250480Y-103495480D01*
X102250480Y-103495480D02*
X111115480Y-103495480D01*
X111115480Y-103495480D02*
X113760000Y-106140000D01*
X113760000Y-106140000D02*
X115570000Y-106140000D01*
%TO.N,GND*%
X124530000Y-106680000D02*
X124460000Y-106750000D01*
%TO.N,VCC*%
X104680000Y-82550000D02*
X104680000Y-83990002D01*
%TD*%
%TA.AperFunction,Conductor*%
%TO.N,GND*%
G36*
X82292953Y-80678954D02*
G01*
X82373735Y-80732930D01*
X82427711Y-80813712D01*
X82446665Y-80909000D01*
X82427711Y-81004288D01*
X82373735Y-81085070D01*
X82280452Y-81178353D01*
X82199670Y-81232329D01*
X82181744Y-81238960D01*
X82020978Y-81291507D01*
X81822537Y-81394808D01*
X81643632Y-81529134D01*
X81636569Y-81536525D01*
X81511904Y-81666980D01*
X81489069Y-81690875D01*
X81483316Y-81699308D01*
X81483314Y-81699311D01*
X81401700Y-81818954D01*
X81362998Y-81875689D01*
X81358702Y-81884943D01*
X81358699Y-81884949D01*
X81291962Y-82028722D01*
X81268804Y-82078612D01*
X81235328Y-82199323D01*
X81211868Y-82283919D01*
X81209018Y-82294194D01*
X81207932Y-82304355D01*
X81207931Y-82304361D01*
X81186331Y-82506479D01*
X81186331Y-82506485D01*
X81185245Y-82516646D01*
X81198123Y-82739994D01*
X81247306Y-82958239D01*
X81331475Y-83165521D01*
X81336815Y-83174235D01*
X81336816Y-83174237D01*
X81437970Y-83339305D01*
X81448368Y-83356273D01*
X81594845Y-83525372D01*
X81602707Y-83531899D01*
X81602711Y-83531903D01*
X81730483Y-83637980D01*
X81766975Y-83668276D01*
X81840074Y-83710991D01*
X81844013Y-83713293D01*
X81916721Y-83777733D01*
X81959235Y-83865092D01*
X81965082Y-83962071D01*
X81933372Y-84053906D01*
X81894456Y-84104349D01*
X79889095Y-86109710D01*
X79808313Y-86163686D01*
X79713025Y-86182640D01*
X79669264Y-86178301D01*
X79661251Y-86175790D01*
X79648102Y-86174582D01*
X79648098Y-86174581D01*
X79598468Y-86170021D01*
X79598462Y-86170021D01*
X79592795Y-86169500D01*
X79023835Y-86169500D01*
X78928547Y-86150546D01*
X78847765Y-86096570D01*
X76194749Y-83443554D01*
X76140773Y-83362772D01*
X76121819Y-83267484D01*
X76140773Y-83172196D01*
X76147575Y-83157200D01*
X76199296Y-83052550D01*
X76264332Y-82838493D01*
X76293533Y-82616688D01*
X76294275Y-82586352D01*
X76295001Y-82556626D01*
X76295163Y-82550000D01*
X76276832Y-82327033D01*
X76268584Y-82294194D01*
X76235659Y-82163118D01*
X76222331Y-82110055D01*
X76208660Y-82078612D01*
X76137198Y-81914262D01*
X76137196Y-81914258D01*
X76133123Y-81904891D01*
X76127576Y-81896317D01*
X76127573Y-81896311D01*
X76017153Y-81725628D01*
X76011605Y-81717052D01*
X75861039Y-81551583D01*
X75685470Y-81412927D01*
X75489612Y-81304807D01*
X75479989Y-81301399D01*
X75479986Y-81301398D01*
X75288353Y-81233537D01*
X75288348Y-81233536D01*
X75278725Y-81230128D01*
X75268665Y-81228336D01*
X75068540Y-81192689D01*
X75068538Y-81192689D01*
X75058473Y-81190896D01*
X75048250Y-81190771D01*
X75048249Y-81190771D01*
X74931130Y-81189340D01*
X74834771Y-81188162D01*
X74824670Y-81189708D01*
X74824665Y-81189708D01*
X74670258Y-81213336D01*
X74613626Y-81222002D01*
X74603910Y-81225178D01*
X74603909Y-81225178D01*
X74542285Y-81245320D01*
X74400978Y-81291507D01*
X74391909Y-81296228D01*
X74266779Y-81361366D01*
X74173505Y-81388553D01*
X74151804Y-81389500D01*
X73167196Y-81389500D01*
X73071908Y-81370546D01*
X73046858Y-81358490D01*
X72958555Y-81309744D01*
X72949612Y-81304807D01*
X72939989Y-81301399D01*
X72939986Y-81301398D01*
X72748353Y-81233537D01*
X72748348Y-81233536D01*
X72738725Y-81230128D01*
X72728665Y-81228336D01*
X72528540Y-81192689D01*
X72528538Y-81192689D01*
X72518473Y-81190896D01*
X72508250Y-81190771D01*
X72508249Y-81190771D01*
X72391130Y-81189340D01*
X72294771Y-81188162D01*
X72284670Y-81189708D01*
X72284665Y-81189708D01*
X72130258Y-81213336D01*
X72073626Y-81222002D01*
X72063910Y-81225178D01*
X72063909Y-81225178D01*
X72002285Y-81245320D01*
X71860978Y-81291507D01*
X71662537Y-81394808D01*
X71483632Y-81529134D01*
X71476569Y-81536525D01*
X71351904Y-81666980D01*
X71329069Y-81690875D01*
X71323316Y-81699308D01*
X71323314Y-81699311D01*
X71241700Y-81818954D01*
X71202998Y-81875689D01*
X71198702Y-81884943D01*
X71198699Y-81884949D01*
X71131962Y-82028722D01*
X71108804Y-82078612D01*
X71075328Y-82199323D01*
X71051868Y-82283919D01*
X71049018Y-82294194D01*
X71047932Y-82304355D01*
X71047931Y-82304361D01*
X71026331Y-82506479D01*
X71026331Y-82506485D01*
X71025245Y-82516646D01*
X71038123Y-82739994D01*
X71087306Y-82958239D01*
X71171475Y-83165521D01*
X71176815Y-83174235D01*
X71176816Y-83174237D01*
X71277970Y-83339305D01*
X71288368Y-83356273D01*
X71434845Y-83525372D01*
X71442707Y-83531899D01*
X71442711Y-83531903D01*
X71570483Y-83637980D01*
X71606975Y-83668276D01*
X71800133Y-83781148D01*
X71809676Y-83784792D01*
X71809682Y-83784795D01*
X71999583Y-83857311D01*
X71999587Y-83857312D01*
X72009132Y-83860957D01*
X72120916Y-83883700D01*
X72218346Y-83903523D01*
X72218348Y-83903523D01*
X72228359Y-83905560D01*
X72326397Y-83909155D01*
X72441716Y-83913384D01*
X72441722Y-83913384D01*
X72451928Y-83913758D01*
X72462058Y-83912460D01*
X72462064Y-83912460D01*
X72564742Y-83899306D01*
X72673833Y-83885331D01*
X72683617Y-83882396D01*
X72683620Y-83882395D01*
X72878327Y-83823980D01*
X72878329Y-83823979D01*
X72888116Y-83821043D01*
X72897291Y-83816548D01*
X72897294Y-83816547D01*
X73061933Y-83735891D01*
X73155843Y-83710991D01*
X73171478Y-83710500D01*
X73527089Y-83710500D01*
X73622377Y-83729454D01*
X73703159Y-83783430D01*
X73757135Y-83864212D01*
X73774362Y-83930224D01*
X73775292Y-83938079D01*
X73775975Y-83944570D01*
X73784044Y-84032390D01*
X73787143Y-84043378D01*
X73787350Y-84044496D01*
X73787607Y-84046189D01*
X73788008Y-84048206D01*
X73788414Y-84049849D01*
X73788654Y-84050980D01*
X73789996Y-84062315D01*
X73793381Y-84073215D01*
X73793381Y-84073217D01*
X73816153Y-84146555D01*
X73818004Y-84152803D01*
X73841938Y-84237668D01*
X73846990Y-84247912D01*
X73847399Y-84248978D01*
X73847963Y-84250605D01*
X73848712Y-84252482D01*
X73849422Y-84254050D01*
X73849859Y-84255104D01*
X73853244Y-84266007D01*
X73858558Y-84276107D01*
X73858562Y-84276117D01*
X73894311Y-84344064D01*
X73897270Y-84349870D01*
X73936272Y-84428957D01*
X73943108Y-84438110D01*
X73943684Y-84439051D01*
X73944545Y-84440565D01*
X73945637Y-84442296D01*
X73946606Y-84443686D01*
X73947238Y-84444659D01*
X73952553Y-84454762D01*
X73959621Y-84463728D01*
X73959623Y-84463731D01*
X74007176Y-84524052D01*
X74011141Y-84529220D01*
X74063886Y-84599853D01*
X74072273Y-84607606D01*
X74072274Y-84607607D01*
X74123389Y-84654857D01*
X74130438Y-84661633D01*
X77206571Y-87737766D01*
X77260547Y-87818548D01*
X77279501Y-87913836D01*
X77279501Y-88482794D01*
X77285790Y-88551251D01*
X77289740Y-88563856D01*
X77289741Y-88563860D01*
X77295370Y-88581822D01*
X77305779Y-88678417D01*
X77278431Y-88771644D01*
X77217488Y-88847308D01*
X77132228Y-88893890D01*
X77035633Y-88904299D01*
X76942406Y-88876951D01*
X76881695Y-88832355D01*
X76689541Y-88640201D01*
X76672200Y-88628614D01*
X76672139Y-88628655D01*
X76663170Y-88641172D01*
X76614119Y-88740637D01*
X76607901Y-88755648D01*
X76516221Y-89025730D01*
X76512014Y-89041431D01*
X76456375Y-89321150D01*
X76454251Y-89337277D01*
X76435598Y-89621868D01*
X76435598Y-89638132D01*
X76454251Y-89922723D01*
X76456375Y-89938850D01*
X76512014Y-90218569D01*
X76516221Y-90234270D01*
X76607901Y-90504352D01*
X76614119Y-90519363D01*
X76661353Y-90615144D01*
X76674050Y-90631691D01*
X76674120Y-90631672D01*
X76686637Y-90622703D01*
X77661999Y-89647341D01*
X77673586Y-89630000D01*
X77661999Y-89612659D01*
X77537645Y-89488305D01*
X77483669Y-89407523D01*
X77464715Y-89312235D01*
X77483669Y-89216947D01*
X77537645Y-89136165D01*
X77618427Y-89082189D01*
X77713715Y-89063235D01*
X77788178Y-89074630D01*
X77806137Y-89080258D01*
X77806141Y-89080259D01*
X77818749Y-89084210D01*
X77831903Y-89085419D01*
X77831905Y-89085419D01*
X77881532Y-89089979D01*
X77881538Y-89089979D01*
X77887205Y-89090500D01*
X77909284Y-89090500D01*
X79158020Y-89090499D01*
X79253307Y-89109453D01*
X79334089Y-89163429D01*
X80790459Y-90619799D01*
X80807800Y-90631386D01*
X80807861Y-90631345D01*
X80816830Y-90618828D01*
X80865881Y-90519363D01*
X80872099Y-90504352D01*
X80963779Y-90234270D01*
X80967986Y-90218569D01*
X81023625Y-89938850D01*
X81025749Y-89922723D01*
X81044402Y-89638132D01*
X81044402Y-89621868D01*
X81025749Y-89337277D01*
X81023625Y-89321150D01*
X80967986Y-89041431D01*
X80963779Y-89025730D01*
X80872102Y-88755659D01*
X80865876Y-88740629D01*
X80837353Y-88682789D01*
X80812208Y-88588944D01*
X80824890Y-88492620D01*
X80873468Y-88408482D01*
X80884605Y-88396590D01*
X81647126Y-87634069D01*
X89440598Y-87634069D01*
X89459251Y-87918660D01*
X89461375Y-87934787D01*
X89517014Y-88214506D01*
X89521221Y-88230207D01*
X89612901Y-88500289D01*
X89619119Y-88515300D01*
X89666353Y-88611081D01*
X89679050Y-88627628D01*
X89679120Y-88627609D01*
X89691637Y-88618640D01*
X90219807Y-88090470D01*
X93275946Y-88090470D01*
X93287530Y-88107807D01*
X93753890Y-88574167D01*
X93807866Y-88654949D01*
X93826820Y-88750237D01*
X93807866Y-88845525D01*
X93753890Y-88926307D01*
X93442882Y-89237315D01*
X93433498Y-89251360D01*
X93443989Y-89253447D01*
X93637723Y-89240749D01*
X93653850Y-89238625D01*
X93933569Y-89182986D01*
X93949270Y-89178779D01*
X94219352Y-89087099D01*
X94234363Y-89080881D01*
X94330144Y-89033647D01*
X94346691Y-89020950D01*
X94346672Y-89020880D01*
X94337703Y-89008363D01*
X93362341Y-88033001D01*
X93345000Y-88021414D01*
X93327659Y-88033002D01*
X93287533Y-88073128D01*
X93275946Y-88090470D01*
X90219807Y-88090470D01*
X90666999Y-87643278D01*
X90678586Y-87625937D01*
X90666999Y-87608596D01*
X89694541Y-86636138D01*
X89677200Y-86624551D01*
X89677139Y-86624592D01*
X89668170Y-86637109D01*
X89619119Y-86736574D01*
X89612901Y-86751585D01*
X89521221Y-87021667D01*
X89517014Y-87037368D01*
X89461375Y-87317087D01*
X89459251Y-87333214D01*
X89440598Y-87617805D01*
X89440598Y-87634069D01*
X81647126Y-87634069D01*
X85360919Y-83920276D01*
X85441701Y-83866300D01*
X85465433Y-83857850D01*
X85588116Y-83821043D01*
X85789022Y-83722620D01*
X85971155Y-83592706D01*
X86129624Y-83434789D01*
X86260173Y-83253111D01*
X86359296Y-83052550D01*
X86424332Y-82838493D01*
X86453533Y-82616688D01*
X86454275Y-82586352D01*
X86455001Y-82556626D01*
X86455163Y-82550000D01*
X86449440Y-82480391D01*
X86460523Y-82383871D01*
X86507698Y-82298939D01*
X86583785Y-82238524D01*
X86677200Y-82211826D01*
X86697603Y-82210989D01*
X89356654Y-82210989D01*
X89451942Y-82229943D01*
X89532724Y-82283919D01*
X91811571Y-84562766D01*
X91865547Y-84643548D01*
X91884501Y-84738836D01*
X91884501Y-85078645D01*
X91865547Y-85173933D01*
X91811571Y-85254715D01*
X91730789Y-85308691D01*
X91651786Y-85327112D01*
X91452277Y-85340188D01*
X91436150Y-85342312D01*
X91156431Y-85397951D01*
X91140730Y-85402158D01*
X90870648Y-85493838D01*
X90855637Y-85500056D01*
X90759856Y-85547290D01*
X90743309Y-85559987D01*
X90743328Y-85560057D01*
X90752297Y-85572574D01*
X91727659Y-86547936D01*
X91745001Y-86559523D01*
X91762340Y-86547938D01*
X91802466Y-86507812D01*
X91814055Y-86490468D01*
X91802471Y-86473131D01*
X91336110Y-86006770D01*
X91282134Y-85925988D01*
X91263180Y-85830700D01*
X91282134Y-85735412D01*
X91336110Y-85654630D01*
X91536936Y-85453804D01*
X91617718Y-85399828D01*
X91713006Y-85380874D01*
X91808294Y-85399828D01*
X91889076Y-85453804D01*
X91936679Y-85522679D01*
X91938597Y-85528801D01*
X91946368Y-85541632D01*
X91946370Y-85541637D01*
X91971116Y-85582497D01*
X92021412Y-85665545D01*
X92134455Y-85778588D01*
X92271199Y-85861403D01*
X92423749Y-85909210D01*
X92436903Y-85910419D01*
X92436905Y-85910419D01*
X92486532Y-85914979D01*
X92486538Y-85914979D01*
X92492205Y-85915500D01*
X93263022Y-85915500D01*
X93358307Y-85934453D01*
X93439089Y-85988429D01*
X95395459Y-87944799D01*
X95412800Y-87956386D01*
X95412861Y-87956345D01*
X95421830Y-87943828D01*
X95470881Y-87844363D01*
X95477099Y-87829352D01*
X95568779Y-87559270D01*
X95572986Y-87543569D01*
X95628625Y-87263850D01*
X95630749Y-87247723D01*
X95649402Y-86963132D01*
X95649402Y-86946868D01*
X95630749Y-86662277D01*
X95628625Y-86646150D01*
X95572986Y-86366431D01*
X95568779Y-86350730D01*
X95477102Y-86080659D01*
X95470874Y-86065624D01*
X95344735Y-85809839D01*
X95336605Y-85795758D01*
X95227118Y-85631898D01*
X95189938Y-85542139D01*
X95189939Y-85444984D01*
X95227118Y-85355224D01*
X95295818Y-85286526D01*
X95385577Y-85249346D01*
X95434154Y-85244562D01*
X95797794Y-85244562D01*
X95866251Y-85238273D01*
X96018801Y-85190466D01*
X96155545Y-85107651D01*
X96268588Y-84994608D01*
X96351403Y-84857864D01*
X96399210Y-84705314D01*
X96403224Y-84661633D01*
X96404979Y-84642531D01*
X96404979Y-84642525D01*
X96405500Y-84636858D01*
X96405500Y-84067898D01*
X96424454Y-83972610D01*
X96478430Y-83891828D01*
X97866348Y-82503910D01*
X97947130Y-82449934D01*
X98042418Y-82430980D01*
X98631070Y-82430980D01*
X98726358Y-82449934D01*
X98807140Y-82503910D01*
X98861116Y-82584692D01*
X98880070Y-82679980D01*
X98872409Y-82741271D01*
X98843658Y-82854479D01*
X98843657Y-82854486D01*
X98841384Y-82863435D01*
X98840458Y-82872626D01*
X98840458Y-82872629D01*
X98823327Y-83042764D01*
X98819500Y-83080765D01*
X98819500Y-84536435D01*
X98819843Y-84541044D01*
X98819843Y-84541057D01*
X98824213Y-84599853D01*
X98833955Y-84730948D01*
X98835994Y-84739961D01*
X98835995Y-84739965D01*
X98848327Y-84794464D01*
X98891704Y-84986164D01*
X98935122Y-85097811D01*
X98969853Y-85187121D01*
X98986543Y-85230040D01*
X98991129Y-85238064D01*
X98991130Y-85238066D01*
X99014746Y-85279385D01*
X99116386Y-85457220D01*
X99122100Y-85464469D01*
X99122104Y-85464474D01*
X99145253Y-85493838D01*
X99278383Y-85662712D01*
X99468974Y-85842002D01*
X99476562Y-85847266D01*
X99476567Y-85847270D01*
X99574921Y-85915500D01*
X99683973Y-85991152D01*
X99703979Y-86001018D01*
X99781056Y-86060162D01*
X99829633Y-86144301D01*
X99842314Y-86240625D01*
X99817168Y-86334469D01*
X99800882Y-86362676D01*
X99695183Y-86520864D01*
X99687053Y-86534947D01*
X99566711Y-86778975D01*
X99560484Y-86794010D01*
X99473020Y-87051668D01*
X99468816Y-87067359D01*
X99415732Y-87334235D01*
X99413609Y-87350358D01*
X99395813Y-87621868D01*
X99395813Y-87638132D01*
X99413609Y-87909642D01*
X99415732Y-87925765D01*
X99468816Y-88192641D01*
X99473020Y-88208332D01*
X99560485Y-88465996D01*
X99566707Y-88481016D01*
X99619381Y-88587830D01*
X99632076Y-88604374D01*
X99632147Y-88604355D01*
X99644664Y-88595386D01*
X101600000Y-86640051D01*
X102433866Y-85806184D01*
X102514648Y-85752208D01*
X102608949Y-85733450D01*
X102613316Y-85734029D01*
X102852518Y-85725048D01*
X102862828Y-85722885D01*
X102862834Y-85722884D01*
X103076471Y-85678059D01*
X103076474Y-85678058D01*
X103086788Y-85675894D01*
X103096592Y-85672022D01*
X103096596Y-85672021D01*
X103299614Y-85591845D01*
X103299615Y-85591845D01*
X103309426Y-85587970D01*
X103436641Y-85510773D01*
X103505052Y-85469260D01*
X103505053Y-85469259D01*
X103514066Y-85463790D01*
X103522028Y-85456881D01*
X103530551Y-85450666D01*
X103531570Y-85452064D01*
X103604324Y-85410569D01*
X103700714Y-85398397D01*
X103794424Y-85424037D01*
X103831744Y-85446997D01*
X103934041Y-85523108D01*
X103943437Y-85527885D01*
X103943440Y-85527887D01*
X104138015Y-85626814D01*
X104147417Y-85631594D01*
X104157491Y-85634722D01*
X104365953Y-85699451D01*
X104365955Y-85699451D01*
X104376021Y-85702577D01*
X104509426Y-85720259D01*
X104602866Y-85732644D01*
X104602867Y-85732644D01*
X104613316Y-85734029D01*
X104623842Y-85733634D01*
X104623847Y-85733634D01*
X104723415Y-85729895D01*
X104852518Y-85725048D01*
X104862828Y-85722885D01*
X104862834Y-85722884D01*
X105076471Y-85678059D01*
X105076474Y-85678058D01*
X105086788Y-85675894D01*
X105096592Y-85672022D01*
X105096596Y-85672021D01*
X105309426Y-85587970D01*
X105310132Y-85589757D01*
X105390035Y-85568131D01*
X105486391Y-85580569D01*
X105535936Y-85603570D01*
X105615114Y-85651521D01*
X105656199Y-85676403D01*
X105808749Y-85724210D01*
X105821903Y-85725419D01*
X105821905Y-85725419D01*
X105871532Y-85729979D01*
X105871538Y-85729979D01*
X105877205Y-85730500D01*
X106126221Y-85730500D01*
X107451731Y-85730499D01*
X107547019Y-85749453D01*
X107622342Y-85798135D01*
X107668974Y-85842002D01*
X107676562Y-85847266D01*
X107676567Y-85847270D01*
X107774921Y-85915500D01*
X107883973Y-85991152D01*
X107896195Y-85997179D01*
X107898309Y-85998801D01*
X107900220Y-85999927D01*
X107900082Y-86000162D01*
X107973271Y-86056320D01*
X108021849Y-86140458D01*
X108034532Y-86236782D01*
X108009388Y-86330627D01*
X107950245Y-86407706D01*
X107866107Y-86456284D01*
X107786065Y-86469500D01*
X106687413Y-86469500D01*
X106671127Y-86468967D01*
X106609491Y-86464927D01*
X106598154Y-86466269D01*
X106598151Y-86466269D01*
X106521913Y-86475293D01*
X106515430Y-86475975D01*
X106427610Y-86484044D01*
X106416622Y-86487143D01*
X106415504Y-86487350D01*
X106413811Y-86487607D01*
X106411794Y-86488008D01*
X106410151Y-86488414D01*
X106409020Y-86488654D01*
X106397685Y-86489996D01*
X106386785Y-86493381D01*
X106386783Y-86493381D01*
X106313445Y-86516153D01*
X106307197Y-86518004D01*
X106222332Y-86541938D01*
X106212088Y-86546990D01*
X106211022Y-86547399D01*
X106209395Y-86547963D01*
X106207518Y-86548712D01*
X106205950Y-86549422D01*
X106204896Y-86549859D01*
X106193993Y-86553244D01*
X106183893Y-86558558D01*
X106183883Y-86558562D01*
X106115936Y-86594311D01*
X106110130Y-86597270D01*
X106031043Y-86636272D01*
X106021890Y-86643108D01*
X106020949Y-86643684D01*
X106019435Y-86644545D01*
X106017704Y-86645637D01*
X106016314Y-86646606D01*
X106015341Y-86647238D01*
X106005238Y-86652553D01*
X105996272Y-86659621D01*
X105996269Y-86659623D01*
X105935948Y-86707176D01*
X105930780Y-86711141D01*
X105860147Y-86763886D01*
X105852394Y-86772273D01*
X105852393Y-86772274D01*
X105805143Y-86823389D01*
X105798367Y-86830438D01*
X104125716Y-88503089D01*
X104044934Y-88557065D01*
X103949646Y-88576019D01*
X103854358Y-88557065D01*
X103773576Y-88503089D01*
X103719600Y-88422307D01*
X103700646Y-88327019D01*
X103713860Y-88246981D01*
X103726980Y-88208332D01*
X103731184Y-88192641D01*
X103784268Y-87925765D01*
X103786391Y-87909642D01*
X103804187Y-87638132D01*
X103804187Y-87621868D01*
X103786391Y-87350358D01*
X103784268Y-87334235D01*
X103731184Y-87067359D01*
X103726980Y-87051668D01*
X103639515Y-86794004D01*
X103633293Y-86778984D01*
X103580619Y-86672170D01*
X103567924Y-86655626D01*
X103567853Y-86655645D01*
X103555336Y-86664614D01*
X101600000Y-88619949D01*
X101572152Y-88647797D01*
X101491370Y-88701773D01*
X101433746Y-88717862D01*
X101335179Y-88732945D01*
X101260372Y-88744392D01*
X101250658Y-88747567D01*
X101250654Y-88747568D01*
X101100379Y-88796686D01*
X101032094Y-88819005D01*
X101023027Y-88823725D01*
X100828851Y-88924807D01*
X100819067Y-88929900D01*
X100810892Y-88936038D01*
X100635182Y-89067964D01*
X100635178Y-89067968D01*
X100627013Y-89074098D01*
X100461089Y-89247728D01*
X100325751Y-89446126D01*
X100295112Y-89512133D01*
X100240400Y-89630000D01*
X100224634Y-89663964D01*
X100221907Y-89673799D01*
X100221905Y-89673803D01*
X100163234Y-89885364D01*
X100160453Y-89895392D01*
X100153846Y-89957214D01*
X100136314Y-90121267D01*
X100134932Y-90134195D01*
X100148757Y-90373959D01*
X100151004Y-90383928D01*
X100151004Y-90383931D01*
X100196928Y-90587709D01*
X100201556Y-90608246D01*
X100291911Y-90830763D01*
X100297254Y-90839482D01*
X100407909Y-91020054D01*
X100417396Y-91035536D01*
X100424085Y-91043258D01*
X100536768Y-91173342D01*
X100574640Y-91217063D01*
X100582501Y-91223589D01*
X100731289Y-91347115D01*
X100759421Y-91370471D01*
X100768242Y-91375626D01*
X100768244Y-91375627D01*
X100819381Y-91405509D01*
X100966776Y-91491640D01*
X100976316Y-91495283D01*
X101181588Y-91573669D01*
X101181592Y-91573670D01*
X101191137Y-91577315D01*
X101300160Y-91599496D01*
X101337377Y-91607068D01*
X101426973Y-91644639D01*
X101463804Y-91674999D01*
X101687735Y-91898930D01*
X101741711Y-91979712D01*
X101760665Y-92075000D01*
X101741711Y-92170288D01*
X101687735Y-92251070D01*
X101426631Y-92512174D01*
X101345849Y-92566150D01*
X101250561Y-92585104D01*
X101184019Y-92576048D01*
X101029461Y-92533185D01*
X101029455Y-92533184D01*
X101019608Y-92530453D01*
X100889703Y-92516570D01*
X100830137Y-92510204D01*
X100830134Y-92510204D01*
X100823548Y-92509500D01*
X99884124Y-92509500D01*
X99705645Y-92524174D01*
X99695739Y-92526662D01*
X99695734Y-92526663D01*
X99482634Y-92580190D01*
X99482631Y-92580191D01*
X99472718Y-92582681D01*
X99396133Y-92615981D01*
X99261845Y-92674370D01*
X99261841Y-92674372D01*
X99252474Y-92678445D01*
X99050829Y-92808896D01*
X99043276Y-92815769D01*
X99043273Y-92815771D01*
X98905523Y-92941114D01*
X98873197Y-92970528D01*
X98864466Y-92981583D01*
X98733441Y-93147491D01*
X98724350Y-93159002D01*
X98608283Y-93369256D01*
X98604875Y-93378879D01*
X98604874Y-93378882D01*
X98540782Y-93559873D01*
X98528115Y-93595643D01*
X98485999Y-93832084D01*
X98483065Y-94072228D01*
X98519392Y-94309628D01*
X98522567Y-94319342D01*
X98522568Y-94319346D01*
X98530743Y-94344357D01*
X98594005Y-94537906D01*
X98598725Y-94546973D01*
X98690955Y-94724144D01*
X98704900Y-94750933D01*
X98711038Y-94759108D01*
X98842964Y-94934818D01*
X98842968Y-94934822D01*
X98849098Y-94942987D01*
X98969518Y-95058062D01*
X98972028Y-95060461D01*
X99027824Y-95139997D01*
X99048935Y-95234830D01*
X99032148Y-95330524D01*
X98980018Y-95412509D01*
X98967589Y-95424638D01*
X98873197Y-95510528D01*
X98866861Y-95518551D01*
X98736165Y-95684042D01*
X98724350Y-95699002D01*
X98608283Y-95909256D01*
X98604875Y-95918879D01*
X98604874Y-95918882D01*
X98531525Y-96126013D01*
X98528115Y-96135643D01*
X98485999Y-96372084D01*
X98485874Y-96382305D01*
X98485874Y-96382306D01*
X98485164Y-96440443D01*
X98483065Y-96612228D01*
X98519392Y-96849628D01*
X98522567Y-96859342D01*
X98522568Y-96859346D01*
X98559947Y-96973707D01*
X98594005Y-97077906D01*
X98598725Y-97086973D01*
X98690955Y-97264144D01*
X98704900Y-97290933D01*
X98711038Y-97299108D01*
X98842964Y-97474818D01*
X98842968Y-97474822D01*
X98849098Y-97482987D01*
X98951672Y-97581008D01*
X98972028Y-97600461D01*
X99027824Y-97679997D01*
X99048935Y-97774830D01*
X99032148Y-97870524D01*
X98980018Y-97952509D01*
X98967589Y-97964638D01*
X98873197Y-98050528D01*
X98866861Y-98058551D01*
X98756543Y-98198239D01*
X98724350Y-98239002D01*
X98608283Y-98449256D01*
X98604875Y-98458879D01*
X98604874Y-98458882D01*
X98531525Y-98666013D01*
X98528115Y-98675643D01*
X98485999Y-98912084D01*
X98485874Y-98922305D01*
X98485874Y-98922306D01*
X98485148Y-98981722D01*
X98483065Y-99152228D01*
X98519392Y-99389628D01*
X98522567Y-99399342D01*
X98522568Y-99399346D01*
X98546326Y-99472033D01*
X98594005Y-99617906D01*
X98704900Y-99830933D01*
X98715280Y-99844758D01*
X98842964Y-100014818D01*
X98842968Y-100014822D01*
X98849098Y-100022987D01*
X98935787Y-100105828D01*
X98972028Y-100140461D01*
X99027824Y-100219997D01*
X99048935Y-100314830D01*
X99032148Y-100410524D01*
X98980018Y-100492509D01*
X98967589Y-100504638D01*
X98873197Y-100590528D01*
X98866861Y-100598551D01*
X98739582Y-100759715D01*
X98724350Y-100779002D01*
X98608283Y-100989256D01*
X98604875Y-100998879D01*
X98604874Y-100998882D01*
X98531527Y-101206008D01*
X98528115Y-101215643D01*
X98485999Y-101452084D01*
X98485874Y-101462305D01*
X98485874Y-101462306D01*
X98485298Y-101509454D01*
X98483065Y-101692228D01*
X98519392Y-101929628D01*
X98594005Y-102157906D01*
X98598725Y-102166973D01*
X98660773Y-102286165D01*
X98704900Y-102370933D01*
X98711038Y-102379108D01*
X98842964Y-102554818D01*
X98842968Y-102554822D01*
X98849098Y-102562987D01*
X99022728Y-102728911D01*
X99104529Y-102784712D01*
X99212680Y-102858488D01*
X99212684Y-102858490D01*
X99221126Y-102864249D01*
X99321914Y-102911033D01*
X99429702Y-102961067D01*
X99429705Y-102961068D01*
X99438964Y-102965366D01*
X99448799Y-102968093D01*
X99448803Y-102968095D01*
X99660543Y-103026816D01*
X99660547Y-103026817D01*
X99670392Y-103029547D01*
X99800053Y-103043404D01*
X99859863Y-103049796D01*
X99859866Y-103049796D01*
X99866452Y-103050500D01*
X100061165Y-103050500D01*
X100156453Y-103069454D01*
X100237235Y-103123430D01*
X100398989Y-103285184D01*
X100452965Y-103365966D01*
X100471919Y-103461254D01*
X100452965Y-103556542D01*
X100398989Y-103637324D01*
X100318207Y-103691300D01*
X100292617Y-103700299D01*
X100151731Y-103741364D01*
X100143346Y-103745229D01*
X100143342Y-103745231D01*
X99988989Y-103816389D01*
X99914099Y-103850914D01*
X99695270Y-103994385D01*
X99688381Y-104000534D01*
X99688378Y-104000536D01*
X99601903Y-104077718D01*
X99500051Y-104168624D01*
X99332730Y-104369806D01*
X99300308Y-104423236D01*
X99201773Y-104585615D01*
X99201770Y-104585621D01*
X99196984Y-104593508D01*
X99193415Y-104602019D01*
X99193413Y-104602023D01*
X99153332Y-104697607D01*
X99095794Y-104834819D01*
X99093520Y-104843773D01*
X99093519Y-104843776D01*
X99084615Y-104878836D01*
X99031384Y-105088435D01*
X99030458Y-105097626D01*
X99030458Y-105097629D01*
X99013795Y-105263115D01*
X99009500Y-105305765D01*
X99009500Y-106761435D01*
X99009843Y-106766044D01*
X99009843Y-106766057D01*
X99017218Y-106865294D01*
X99023955Y-106955948D01*
X99025994Y-106964961D01*
X99025995Y-106964965D01*
X99070133Y-107160028D01*
X99081704Y-107211164D01*
X99102539Y-107264741D01*
X99168669Y-107434791D01*
X99176543Y-107455040D01*
X99306386Y-107682220D01*
X99312100Y-107689469D01*
X99312104Y-107689474D01*
X99374709Y-107768887D01*
X99468383Y-107887712D01*
X99658974Y-108067002D01*
X99666562Y-108072266D01*
X99666567Y-108072270D01*
X99727843Y-108114778D01*
X99873973Y-108216152D01*
X99953045Y-108255146D01*
X100039034Y-108297551D01*
X100108656Y-108331885D01*
X100169065Y-108351222D01*
X100349069Y-108408842D01*
X100349072Y-108408843D01*
X100357867Y-108411658D01*
X100483998Y-108432200D01*
X100607017Y-108452235D01*
X100607023Y-108452236D01*
X100616132Y-108453719D01*
X100625362Y-108453840D01*
X100625364Y-108453840D01*
X100800034Y-108456126D01*
X100877777Y-108457144D01*
X100931413Y-108449844D01*
X101127909Y-108423103D01*
X101127913Y-108423102D01*
X101137055Y-108421858D01*
X101388269Y-108348636D01*
X101396654Y-108344771D01*
X101396658Y-108344769D01*
X101617511Y-108242954D01*
X101617513Y-108242953D01*
X101625901Y-108239086D01*
X101770937Y-108143996D01*
X101837002Y-108100682D01*
X101837005Y-108100680D01*
X101844730Y-108095615D01*
X101927895Y-108021388D01*
X101930872Y-108018731D01*
X102014584Y-107969421D01*
X102096676Y-107955500D01*
X103412392Y-107955499D01*
X103672794Y-107955499D01*
X103741251Y-107949210D01*
X103893801Y-107901403D01*
X104018056Y-107826152D01*
X104109380Y-107793003D01*
X104206439Y-107797326D01*
X104259889Y-107817177D01*
X104337417Y-107856594D01*
X104347491Y-107859722D01*
X104555953Y-107924451D01*
X104555955Y-107924451D01*
X104566021Y-107927577D01*
X104719231Y-107947884D01*
X104792866Y-107957644D01*
X104792867Y-107957644D01*
X104803316Y-107959029D01*
X104813842Y-107958634D01*
X104813847Y-107958634D01*
X104913415Y-107954895D01*
X105042518Y-107950048D01*
X105052828Y-107947885D01*
X105052834Y-107947884D01*
X105266471Y-107903059D01*
X105266474Y-107903058D01*
X105276788Y-107900894D01*
X105286592Y-107897022D01*
X105286596Y-107897021D01*
X105489614Y-107816845D01*
X105489615Y-107816845D01*
X105499426Y-107812970D01*
X105635427Y-107730442D01*
X105726721Y-107697213D01*
X105823784Y-107701451D01*
X105911836Y-107742510D01*
X105977474Y-107814140D01*
X106002401Y-107869475D01*
X106027229Y-107949435D01*
X106032581Y-107966670D01*
X106131890Y-108155425D01*
X106239846Y-108292367D01*
X106862409Y-108914930D01*
X106916385Y-108995712D01*
X106935339Y-109091000D01*
X106916385Y-109186288D01*
X106862409Y-109267070D01*
X106781627Y-109321046D01*
X106686339Y-109340000D01*
X66059827Y-109340000D01*
X66027326Y-109337870D01*
X66006962Y-109335189D01*
X65992046Y-109336836D01*
X65985270Y-109336765D01*
X65954947Y-109337639D01*
X65931430Y-109336407D01*
X65663893Y-109322385D01*
X65637987Y-109319662D01*
X65318466Y-109269055D01*
X65292978Y-109263637D01*
X64980480Y-109179903D01*
X64955692Y-109171849D01*
X64653690Y-109055921D01*
X64629881Y-109045321D01*
X64341623Y-108898447D01*
X64319056Y-108885418D01*
X64047741Y-108709224D01*
X64026655Y-108693904D01*
X63775250Y-108490320D01*
X63755881Y-108472881D01*
X63527119Y-108244119D01*
X63509680Y-108224750D01*
X63306096Y-107973345D01*
X63290776Y-107952259D01*
X63228650Y-107856594D01*
X63114582Y-107680944D01*
X63101553Y-107658377D01*
X62954679Y-107370119D01*
X62944079Y-107346310D01*
X62828151Y-107044308D01*
X62820097Y-107019520D01*
X62736363Y-106707022D01*
X62730944Y-106681528D01*
X62729656Y-106673394D01*
X62680338Y-106362013D01*
X62677614Y-106336099D01*
X62671054Y-106210909D01*
X62662969Y-106056643D01*
X62663077Y-106047446D01*
X63734938Y-106047446D01*
X63761110Y-106346598D01*
X63826618Y-106639661D01*
X63930309Y-106921486D01*
X63934157Y-106928785D01*
X63934160Y-106928791D01*
X63981996Y-107019520D01*
X64070362Y-107187121D01*
X64075141Y-107193845D01*
X64075143Y-107193849D01*
X64239530Y-107425163D01*
X64244318Y-107431900D01*
X64249953Y-107437943D01*
X64249954Y-107437944D01*
X64405548Y-107604798D01*
X64449118Y-107651521D01*
X64489763Y-107684907D01*
X64674310Y-107836496D01*
X64681166Y-107842128D01*
X64936384Y-108000370D01*
X64977239Y-108018731D01*
X65190953Y-108114778D01*
X65210289Y-108123468D01*
X65218193Y-108125824D01*
X65218195Y-108125825D01*
X65490165Y-108206902D01*
X65490169Y-108206903D01*
X65498069Y-108209258D01*
X65794667Y-108256235D01*
X65801608Y-108256550D01*
X65801616Y-108256551D01*
X65841965Y-108258383D01*
X65888591Y-108260500D01*
X66076166Y-108260500D01*
X66080256Y-108260228D01*
X66080266Y-108260228D01*
X66178479Y-108253704D01*
X66299635Y-108245657D01*
X66594005Y-108186302D01*
X66877939Y-108088535D01*
X67146449Y-107954076D01*
X67153272Y-107949439D01*
X67153279Y-107949435D01*
X67319462Y-107836496D01*
X67394817Y-107785285D01*
X67400971Y-107779783D01*
X67612528Y-107590630D01*
X67612532Y-107590626D01*
X67618680Y-107585129D01*
X67703694Y-107485942D01*
X67808728Y-107363396D01*
X67808732Y-107363391D01*
X67814104Y-107357123D01*
X67891700Y-107237636D01*
X67973154Y-107112208D01*
X67973156Y-107112204D01*
X67977656Y-107105275D01*
X68068605Y-106913736D01*
X68102918Y-106841474D01*
X68102919Y-106841473D01*
X68106463Y-106834008D01*
X68198262Y-106548088D01*
X68206632Y-106501569D01*
X68249979Y-106260662D01*
X68249980Y-106260654D01*
X68251440Y-106252539D01*
X68261349Y-106034318D01*
X68264688Y-105960794D01*
X68264688Y-105960791D01*
X68265062Y-105952554D01*
X68238890Y-105653402D01*
X68173382Y-105360339D01*
X68069691Y-105078514D01*
X68065615Y-105070782D01*
X67964413Y-104878836D01*
X67929638Y-104812879D01*
X67901588Y-104773408D01*
X67760470Y-104574837D01*
X67760468Y-104574835D01*
X67755682Y-104568100D01*
X67688603Y-104496166D01*
X67556520Y-104354525D01*
X67550882Y-104348479D01*
X67375947Y-104204785D01*
X67325221Y-104163118D01*
X67325218Y-104163116D01*
X67318834Y-104157872D01*
X67063616Y-103999630D01*
X66875667Y-103915162D01*
X66797239Y-103879915D01*
X66797236Y-103879914D01*
X66789711Y-103876532D01*
X66781805Y-103874175D01*
X66509835Y-103793098D01*
X66509831Y-103793097D01*
X66501931Y-103790742D01*
X66205333Y-103743765D01*
X66198392Y-103743450D01*
X66198384Y-103743449D01*
X66158035Y-103741617D01*
X66111409Y-103739500D01*
X65923834Y-103739500D01*
X65919744Y-103739772D01*
X65919734Y-103739772D01*
X65821521Y-103746296D01*
X65700365Y-103754343D01*
X65405995Y-103813698D01*
X65122061Y-103911465D01*
X64853551Y-104045924D01*
X64846728Y-104050561D01*
X64846721Y-104050565D01*
X64791685Y-104087968D01*
X64605183Y-104214715D01*
X64599032Y-104220215D01*
X64599029Y-104220217D01*
X64387472Y-104409370D01*
X64387468Y-104409374D01*
X64381320Y-104414871D01*
X64363023Y-104436219D01*
X64191272Y-104636604D01*
X64191268Y-104636609D01*
X64185896Y-104642877D01*
X64158234Y-104685473D01*
X64039373Y-104868503D01*
X64022344Y-104894725D01*
X63893537Y-105165992D01*
X63801738Y-105451912D01*
X63800275Y-105460043D01*
X63750021Y-105739338D01*
X63750020Y-105739346D01*
X63748560Y-105747461D01*
X63734938Y-106047446D01*
X62663077Y-106047446D01*
X62663345Y-106024732D01*
X62663554Y-106021986D01*
X62664701Y-106013924D01*
X62664847Y-106000000D01*
X62661803Y-105974844D01*
X62660000Y-105944931D01*
X62660000Y-99661646D01*
X69160245Y-99661646D01*
X69173123Y-99884994D01*
X69190838Y-99963601D01*
X69216976Y-100079586D01*
X69222306Y-100103239D01*
X69226150Y-100112705D01*
X69226151Y-100112709D01*
X69290776Y-100271860D01*
X69306475Y-100310521D01*
X69311815Y-100319235D01*
X69311817Y-100319239D01*
X69330976Y-100350504D01*
X69365943Y-100451336D01*
X69367017Y-100460405D01*
X69370293Y-100488085D01*
X69370975Y-100494570D01*
X69379044Y-100582390D01*
X69382143Y-100593378D01*
X69382350Y-100594496D01*
X69382607Y-100596189D01*
X69383008Y-100598206D01*
X69383414Y-100599849D01*
X69383654Y-100600980D01*
X69384996Y-100612315D01*
X69388381Y-100623215D01*
X69388381Y-100623217D01*
X69411153Y-100696555D01*
X69413004Y-100702803D01*
X69436938Y-100787668D01*
X69441990Y-100797912D01*
X69442399Y-100798978D01*
X69442963Y-100800605D01*
X69443712Y-100802482D01*
X69444422Y-100804050D01*
X69444859Y-100805104D01*
X69448244Y-100816007D01*
X69453558Y-100826107D01*
X69453562Y-100826117D01*
X69489311Y-100894064D01*
X69492270Y-100899870D01*
X69531272Y-100978957D01*
X69538108Y-100988110D01*
X69538684Y-100989051D01*
X69539545Y-100990565D01*
X69540637Y-100992296D01*
X69541606Y-100993686D01*
X69542238Y-100994659D01*
X69547553Y-101004762D01*
X69554621Y-101013728D01*
X69554623Y-101013731D01*
X69602176Y-101074052D01*
X69606141Y-101079220D01*
X69658886Y-101149853D01*
X69667273Y-101157606D01*
X69667274Y-101157607D01*
X69718389Y-101204857D01*
X69725438Y-101211633D01*
X72828696Y-104314891D01*
X72882672Y-104395673D01*
X72895534Y-104436219D01*
X72925394Y-104568715D01*
X72936556Y-104618246D01*
X73026911Y-104840763D01*
X73032254Y-104849482D01*
X73137571Y-105021343D01*
X73152396Y-105045536D01*
X73159085Y-105053258D01*
X73301846Y-105218065D01*
X73309640Y-105227063D01*
X73317502Y-105233590D01*
X73317508Y-105233596D01*
X73323653Y-105238698D01*
X73384859Y-105314149D01*
X73412532Y-105407280D01*
X73402459Y-105503911D01*
X73356173Y-105589332D01*
X73344615Y-105602304D01*
X73196089Y-105757728D01*
X73177158Y-105785480D01*
X73068388Y-105944931D01*
X73060751Y-105956126D01*
X73022187Y-106039206D01*
X72987402Y-106114144D01*
X72959634Y-106173964D01*
X72956907Y-106183799D01*
X72956905Y-106183803D01*
X72907481Y-106362020D01*
X72895453Y-106405392D01*
X72885557Y-106497992D01*
X72871279Y-106631595D01*
X72869932Y-106644195D01*
X72883757Y-106883959D01*
X72886004Y-106893928D01*
X72886004Y-106893931D01*
X72934241Y-107107973D01*
X72936556Y-107118246D01*
X73026911Y-107340763D01*
X73032254Y-107349482D01*
X73144694Y-107532967D01*
X73152396Y-107545536D01*
X73159085Y-107553258D01*
X73287484Y-107701485D01*
X73309640Y-107727063D01*
X73317501Y-107733589D01*
X73469429Y-107859722D01*
X73494421Y-107880471D01*
X73503242Y-107885626D01*
X73503244Y-107885627D01*
X73537920Y-107905890D01*
X73701776Y-108001640D01*
X73711316Y-108005283D01*
X73916588Y-108083669D01*
X73916592Y-108083670D01*
X73926137Y-108087315D01*
X74040310Y-108110544D01*
X74151465Y-108133159D01*
X74151467Y-108133159D01*
X74161478Y-108135196D01*
X74261360Y-108138858D01*
X74391267Y-108143622D01*
X74391273Y-108143622D01*
X74401480Y-108143996D01*
X74411611Y-108142698D01*
X74411616Y-108142698D01*
X74543328Y-108125825D01*
X74639696Y-108113480D01*
X74649478Y-108110545D01*
X74649484Y-108110544D01*
X74859940Y-108047404D01*
X74859942Y-108047403D01*
X74869729Y-108044467D01*
X74878904Y-108039972D01*
X74878907Y-108039971D01*
X75007913Y-107976771D01*
X75085401Y-107938810D01*
X75280921Y-107799347D01*
X75451038Y-107629823D01*
X75591183Y-107434791D01*
X75667683Y-107280004D01*
X75693061Y-107228656D01*
X75693061Y-107228655D01*
X75697592Y-107219488D01*
X75738326Y-107085418D01*
X75764436Y-106999481D01*
X75764437Y-106999477D01*
X75767408Y-106989698D01*
X75771674Y-106957292D01*
X75802902Y-106865294D01*
X75842474Y-106813721D01*
X76542051Y-106114144D01*
X80508375Y-106114144D01*
X80510883Y-106129330D01*
X80550483Y-106245990D01*
X80556711Y-106261025D01*
X80677053Y-106505053D01*
X80685181Y-106519132D01*
X80836349Y-106745369D01*
X80846254Y-106758278D01*
X81025646Y-106962835D01*
X81037165Y-106974354D01*
X81241722Y-107153746D01*
X81254631Y-107163651D01*
X81480868Y-107314819D01*
X81494947Y-107322947D01*
X81738975Y-107443289D01*
X81754010Y-107449517D01*
X81866778Y-107487796D01*
X81887455Y-107490518D01*
X81887493Y-107490453D01*
X81890000Y-107475265D01*
X81890000Y-106134527D01*
X81885931Y-106114069D01*
X81865473Y-106110000D01*
X80528848Y-106110000D01*
X80508390Y-106114069D01*
X80508375Y-106114144D01*
X76542051Y-106114144D01*
X77948740Y-104707455D01*
X80509482Y-104707455D01*
X80509547Y-104707493D01*
X80524735Y-104710000D01*
X81865473Y-104710000D01*
X81885931Y-104705931D01*
X81890000Y-104685473D01*
X83290000Y-104685473D01*
X83294069Y-104705931D01*
X83314527Y-104710000D01*
X84651152Y-104710000D01*
X84671610Y-104705931D01*
X84671625Y-104705856D01*
X84669117Y-104690670D01*
X84629517Y-104574010D01*
X84623289Y-104558975D01*
X84502947Y-104314947D01*
X84494819Y-104300868D01*
X84343651Y-104074631D01*
X84333746Y-104061722D01*
X84154354Y-103857165D01*
X84142835Y-103845646D01*
X83938278Y-103666254D01*
X83925369Y-103656349D01*
X83699132Y-103505181D01*
X83685053Y-103497053D01*
X83441025Y-103376711D01*
X83425990Y-103370483D01*
X83313222Y-103332204D01*
X83292545Y-103329482D01*
X83292507Y-103329547D01*
X83290000Y-103344735D01*
X83290000Y-104685473D01*
X81890000Y-104685473D01*
X81890000Y-103348848D01*
X81885931Y-103328390D01*
X81885856Y-103328375D01*
X81870670Y-103330883D01*
X81754010Y-103370483D01*
X81738975Y-103376711D01*
X81494947Y-103497053D01*
X81480868Y-103505181D01*
X81254631Y-103656349D01*
X81241722Y-103666254D01*
X81037165Y-103845646D01*
X81025646Y-103857165D01*
X80846254Y-104061722D01*
X80836349Y-104074631D01*
X80685181Y-104300868D01*
X80677053Y-104314947D01*
X80556711Y-104558975D01*
X80550483Y-104574010D01*
X80512204Y-104686778D01*
X80509482Y-104707455D01*
X77948740Y-104707455D01*
X78932082Y-103724113D01*
X78943975Y-103712975D01*
X78981823Y-103679784D01*
X78981827Y-103679780D01*
X78990404Y-103672258D01*
X79045035Y-103602959D01*
X79049093Y-103597948D01*
X79105496Y-103530131D01*
X79111074Y-103520171D01*
X79111723Y-103519226D01*
X79112730Y-103517859D01*
X79113881Y-103516136D01*
X79114766Y-103514671D01*
X79115379Y-103513728D01*
X79122447Y-103504762D01*
X79132371Y-103485901D01*
X79163516Y-103426703D01*
X79166596Y-103421030D01*
X79209712Y-103344040D01*
X79213382Y-103333228D01*
X79213849Y-103332180D01*
X79214598Y-103330637D01*
X79215398Y-103328774D01*
X79216000Y-103327174D01*
X79216441Y-103326110D01*
X79221756Y-103316007D01*
X79225140Y-103305109D01*
X79247908Y-103231784D01*
X79249922Y-103225587D01*
X79274599Y-103152890D01*
X79274600Y-103152885D01*
X79278270Y-103142074D01*
X79279909Y-103130769D01*
X79280174Y-103129667D01*
X79280636Y-103127987D01*
X79281075Y-103126046D01*
X79281377Y-103124356D01*
X79281619Y-103123217D01*
X79285004Y-103112315D01*
X79290463Y-103066199D01*
X79295373Y-103024712D01*
X79296224Y-103018251D01*
X79307236Y-102942300D01*
X79308875Y-102930996D01*
X79306422Y-102868552D01*
X79305692Y-102849987D01*
X79305500Y-102840211D01*
X79305500Y-101104500D01*
X79324454Y-101009212D01*
X79378430Y-100928430D01*
X79459212Y-100874454D01*
X79554500Y-100855500D01*
X85643321Y-100855500D01*
X85738609Y-100874454D01*
X85819391Y-100928430D01*
X85873367Y-101009212D01*
X85892321Y-101104500D01*
X85878039Y-101187617D01*
X85871526Y-101206008D01*
X85871525Y-101206013D01*
X85868115Y-101215643D01*
X85825999Y-101452084D01*
X85825874Y-101462305D01*
X85825874Y-101462306D01*
X85825298Y-101509454D01*
X85823065Y-101692228D01*
X85859392Y-101929628D01*
X85934005Y-102157906D01*
X85938725Y-102166973D01*
X86000773Y-102286165D01*
X86044900Y-102370933D01*
X86051038Y-102379108D01*
X86182964Y-102554818D01*
X86182968Y-102554822D01*
X86189098Y-102562987D01*
X86362728Y-102728911D01*
X86444529Y-102784712D01*
X86552680Y-102858488D01*
X86552684Y-102858490D01*
X86561126Y-102864249D01*
X86661914Y-102911033D01*
X86769702Y-102961067D01*
X86769705Y-102961068D01*
X86778964Y-102965366D01*
X86788799Y-102968093D01*
X86788803Y-102968095D01*
X87000543Y-103026816D01*
X87000547Y-103026817D01*
X87010392Y-103029547D01*
X87140053Y-103043404D01*
X87199863Y-103049796D01*
X87199866Y-103049796D01*
X87206452Y-103050500D01*
X88145876Y-103050500D01*
X88190512Y-103046830D01*
X88254618Y-103041560D01*
X88351138Y-103052643D01*
X88436071Y-103099819D01*
X88496485Y-103175906D01*
X88523183Y-103269321D01*
X88524020Y-103289723D01*
X88524020Y-104101645D01*
X88505066Y-104196933D01*
X88451090Y-104277715D01*
X87554541Y-105174264D01*
X87473759Y-105228240D01*
X87416134Y-105244329D01*
X87360478Y-105252845D01*
X87360471Y-105252847D01*
X87350372Y-105254392D01*
X87340658Y-105257567D01*
X87340654Y-105257568D01*
X87212254Y-105299536D01*
X87139395Y-105323350D01*
X87042934Y-105334938D01*
X86978918Y-105321389D01*
X86823994Y-105266527D01*
X86823987Y-105266525D01*
X86814357Y-105263115D01*
X86577916Y-105220999D01*
X86567695Y-105220874D01*
X86567694Y-105220874D01*
X86426832Y-105219153D01*
X86337772Y-105218065D01*
X86100372Y-105254392D01*
X86090658Y-105257567D01*
X86090654Y-105257568D01*
X85924047Y-105312024D01*
X85872094Y-105329005D01*
X85659067Y-105439900D01*
X85639737Y-105454413D01*
X85475182Y-105577964D01*
X85475178Y-105577968D01*
X85467013Y-105584098D01*
X85301089Y-105757728D01*
X85282158Y-105785480D01*
X85173388Y-105944931D01*
X85165751Y-105956126D01*
X85161449Y-105965394D01*
X85161445Y-105965401D01*
X85107363Y-106081912D01*
X85050052Y-106160363D01*
X84967081Y-106210909D01*
X84871083Y-106225857D01*
X84776672Y-106202929D01*
X84698221Y-106145618D01*
X84683964Y-106128657D01*
X84672462Y-106113668D01*
X84670453Y-106112507D01*
X84655265Y-106110000D01*
X83314527Y-106110000D01*
X83294069Y-106114069D01*
X83290000Y-106134527D01*
X83290000Y-107471152D01*
X83294069Y-107491610D01*
X83294144Y-107491625D01*
X83309330Y-107489117D01*
X83425990Y-107449517D01*
X83441025Y-107443289D01*
X83685053Y-107322947D01*
X83699132Y-107314819D01*
X83925369Y-107163651D01*
X83938278Y-107153746D01*
X84142835Y-106974354D01*
X84154354Y-106962835D01*
X84333746Y-106758278D01*
X84343651Y-106745369D01*
X84494819Y-106519132D01*
X84502944Y-106505059D01*
X84504665Y-106501569D01*
X84505852Y-106500022D01*
X84507024Y-106497992D01*
X84507291Y-106498146D01*
X84563810Y-106424490D01*
X84647948Y-106375913D01*
X84744272Y-106363231D01*
X84838116Y-106388376D01*
X84915195Y-106447521D01*
X84963772Y-106531659D01*
X84975905Y-106623810D01*
X84976268Y-106623819D01*
X84976211Y-106626140D01*
X84976454Y-106627983D01*
X84976052Y-106632646D01*
X84976018Y-106634029D01*
X84974932Y-106644195D01*
X84988757Y-106883959D01*
X84991004Y-106893928D01*
X84991004Y-106893931D01*
X85039241Y-107107973D01*
X85041556Y-107118246D01*
X85131911Y-107340763D01*
X85137254Y-107349482D01*
X85249694Y-107532967D01*
X85257396Y-107545536D01*
X85264085Y-107553258D01*
X85392484Y-107701485D01*
X85414640Y-107727063D01*
X85422501Y-107733589D01*
X85574429Y-107859722D01*
X85599421Y-107880471D01*
X85608242Y-107885626D01*
X85608244Y-107885627D01*
X85642920Y-107905890D01*
X85806776Y-108001640D01*
X85816316Y-108005283D01*
X86021588Y-108083669D01*
X86021592Y-108083670D01*
X86031137Y-108087315D01*
X86145310Y-108110544D01*
X86256465Y-108133159D01*
X86256467Y-108133159D01*
X86266478Y-108135196D01*
X86366360Y-108138858D01*
X86496267Y-108143622D01*
X86496273Y-108143622D01*
X86506480Y-108143996D01*
X86516611Y-108142698D01*
X86516616Y-108142698D01*
X86648328Y-108125825D01*
X86744696Y-108113480D01*
X86754478Y-108110545D01*
X86754484Y-108110544D01*
X86964948Y-108047402D01*
X86964954Y-108047400D01*
X86974729Y-108044467D01*
X86981035Y-108041378D01*
X87075349Y-108024491D01*
X87159397Y-108040827D01*
X87281137Y-108087315D01*
X87395310Y-108110544D01*
X87506465Y-108133159D01*
X87506467Y-108133159D01*
X87516478Y-108135196D01*
X87616360Y-108138858D01*
X87746267Y-108143622D01*
X87746273Y-108143622D01*
X87756480Y-108143996D01*
X87766611Y-108142698D01*
X87766616Y-108142698D01*
X87898328Y-108125825D01*
X87994696Y-108113480D01*
X88004478Y-108110545D01*
X88004484Y-108110544D01*
X88214940Y-108047404D01*
X88214942Y-108047403D01*
X88224729Y-108044467D01*
X88233904Y-108039972D01*
X88233907Y-108039971D01*
X88362913Y-107976771D01*
X88440401Y-107938810D01*
X88635921Y-107799347D01*
X88764154Y-107671561D01*
X88845030Y-107617726D01*
X88940351Y-107598938D01*
X89035606Y-107618059D01*
X89116293Y-107672176D01*
X89128123Y-107684907D01*
X89142484Y-107701485D01*
X89164640Y-107727063D01*
X89172501Y-107733589D01*
X89324429Y-107859722D01*
X89349421Y-107880471D01*
X89358242Y-107885626D01*
X89358244Y-107885627D01*
X89392920Y-107905890D01*
X89556776Y-108001640D01*
X89566316Y-108005283D01*
X89771588Y-108083669D01*
X89771592Y-108083670D01*
X89781137Y-108087315D01*
X89895310Y-108110544D01*
X90006465Y-108133159D01*
X90006467Y-108133159D01*
X90016478Y-108135196D01*
X90116360Y-108138858D01*
X90246267Y-108143622D01*
X90246273Y-108143622D01*
X90256480Y-108143996D01*
X90266611Y-108142698D01*
X90266616Y-108142698D01*
X90398328Y-108125825D01*
X90494696Y-108113480D01*
X90504478Y-108110545D01*
X90504484Y-108110544D01*
X90714948Y-108047402D01*
X90714954Y-108047400D01*
X90724729Y-108044467D01*
X90731035Y-108041378D01*
X90825349Y-108024491D01*
X90909397Y-108040827D01*
X91031137Y-108087315D01*
X91145310Y-108110544D01*
X91256465Y-108133159D01*
X91256467Y-108133159D01*
X91266478Y-108135196D01*
X91366360Y-108138858D01*
X91496267Y-108143622D01*
X91496273Y-108143622D01*
X91506480Y-108143996D01*
X91516611Y-108142698D01*
X91516616Y-108142698D01*
X91648328Y-108125825D01*
X91744696Y-108113480D01*
X91754478Y-108110545D01*
X91754484Y-108110544D01*
X91964940Y-108047404D01*
X91964942Y-108047403D01*
X91974729Y-108044467D01*
X91983904Y-108039972D01*
X91983907Y-108039971D01*
X92112913Y-107976771D01*
X92190401Y-107938810D01*
X92385921Y-107799347D01*
X92556038Y-107629823D01*
X92696183Y-107434791D01*
X92772683Y-107280004D01*
X92798061Y-107228656D01*
X92798061Y-107228655D01*
X92802592Y-107219488D01*
X92843326Y-107085418D01*
X92869436Y-106999481D01*
X92869437Y-106999477D01*
X92872408Y-106989698D01*
X92892905Y-106834008D01*
X92902891Y-106758155D01*
X92902891Y-106758150D01*
X92903755Y-106751590D01*
X92904845Y-106707022D01*
X92905343Y-106686626D01*
X92905505Y-106680000D01*
X92903401Y-106654402D01*
X92890708Y-106500022D01*
X92885826Y-106440645D01*
X92881769Y-106424490D01*
X92829810Y-106217634D01*
X92829809Y-106217631D01*
X92827319Y-106207718D01*
X92777061Y-106092132D01*
X92735630Y-105996845D01*
X92735628Y-105996841D01*
X92731555Y-105987474D01*
X92704033Y-105944931D01*
X92606652Y-105794405D01*
X92601104Y-105785829D01*
X92588102Y-105771539D01*
X92446352Y-105615758D01*
X92439472Y-105608197D01*
X92333965Y-105524873D01*
X92259015Y-105465681D01*
X92259012Y-105465679D01*
X92250998Y-105459350D01*
X92040744Y-105343283D01*
X92031121Y-105339875D01*
X92031118Y-105339874D01*
X91823987Y-105266525D01*
X91823985Y-105266525D01*
X91814357Y-105263115D01*
X91577916Y-105220999D01*
X91567695Y-105220874D01*
X91567694Y-105220874D01*
X91426832Y-105219153D01*
X91337772Y-105218065D01*
X91100372Y-105254392D01*
X91099959Y-105251693D01*
X91021092Y-105254648D01*
X90930004Y-105220856D01*
X90858780Y-105154778D01*
X90818266Y-105066473D01*
X90814628Y-104969386D01*
X90815853Y-104963259D01*
X90817789Y-104957554D01*
X90819427Y-104946260D01*
X90819692Y-104945155D01*
X90820151Y-104943488D01*
X90820597Y-104941512D01*
X90820897Y-104939835D01*
X90821139Y-104938698D01*
X90824524Y-104927795D01*
X90834897Y-104840150D01*
X90835738Y-104833758D01*
X90848394Y-104746476D01*
X90846863Y-104707493D01*
X90845212Y-104665483D01*
X90845020Y-104655708D01*
X90845020Y-100526934D01*
X90845553Y-100510648D01*
X90846742Y-100492509D01*
X90849593Y-100449011D01*
X90844409Y-100405209D01*
X90839227Y-100361433D01*
X90838545Y-100354948D01*
X90831520Y-100278494D01*
X90830476Y-100267130D01*
X90827377Y-100256142D01*
X90827170Y-100255024D01*
X90826913Y-100253331D01*
X90826512Y-100251314D01*
X90826106Y-100249671D01*
X90825866Y-100248540D01*
X90824524Y-100237205D01*
X90818756Y-100218628D01*
X90798367Y-100152965D01*
X90796515Y-100146714D01*
X90794819Y-100140699D01*
X90772582Y-100061852D01*
X90767530Y-100051608D01*
X90767121Y-100050542D01*
X90766557Y-100048915D01*
X90765808Y-100047038D01*
X90765098Y-100045470D01*
X90764661Y-100044416D01*
X90761276Y-100033513D01*
X90755962Y-100023413D01*
X90755958Y-100023403D01*
X90720209Y-99955456D01*
X90717250Y-99949650D01*
X90705623Y-99926074D01*
X90678248Y-99870563D01*
X90671412Y-99861410D01*
X90670836Y-99860469D01*
X90669975Y-99858955D01*
X90668883Y-99857224D01*
X90667914Y-99855834D01*
X90667282Y-99854861D01*
X90661967Y-99844758D01*
X90651069Y-99830933D01*
X90607344Y-99775468D01*
X90603378Y-99770299D01*
X90557467Y-99708818D01*
X90550634Y-99699667D01*
X90491130Y-99644662D01*
X90484082Y-99637887D01*
X89530398Y-98684203D01*
X89476422Y-98603421D01*
X89469800Y-98585522D01*
X89435995Y-98482094D01*
X89339491Y-98296711D01*
X89329819Y-98278132D01*
X89325100Y-98269067D01*
X89236666Y-98151284D01*
X89187036Y-98085182D01*
X89187032Y-98085178D01*
X89180902Y-98077013D01*
X89057972Y-97959539D01*
X89002176Y-97880003D01*
X88981065Y-97785170D01*
X88997852Y-97689476D01*
X89049982Y-97607491D01*
X89062411Y-97595362D01*
X89156803Y-97509472D01*
X89217071Y-97433159D01*
X89299319Y-97329015D01*
X89299321Y-97329012D01*
X89305650Y-97320998D01*
X89337035Y-97264144D01*
X92734744Y-97264144D01*
X92737252Y-97279330D01*
X92772898Y-97384341D01*
X92779125Y-97399375D01*
X92905265Y-97655161D01*
X92913395Y-97669242D01*
X93071836Y-97906368D01*
X93081750Y-97919289D01*
X93269790Y-98133706D01*
X93281301Y-98145217D01*
X93455563Y-98298041D01*
X93514707Y-98375119D01*
X93539853Y-98468964D01*
X93526103Y-98568368D01*
X93491527Y-98666006D01*
X93491525Y-98666013D01*
X93488115Y-98675643D01*
X93445999Y-98912084D01*
X93445874Y-98922305D01*
X93445874Y-98922306D01*
X93445148Y-98981722D01*
X93443065Y-99152228D01*
X93479392Y-99389628D01*
X93482567Y-99399342D01*
X93482568Y-99399346D01*
X93506326Y-99472033D01*
X93554005Y-99617906D01*
X93664900Y-99830933D01*
X93671037Y-99839106D01*
X93671039Y-99839110D01*
X93711952Y-99893601D01*
X93732789Y-99921352D01*
X93736334Y-99926074D01*
X93778390Y-100013655D01*
X93783729Y-100110663D01*
X93751538Y-100202330D01*
X93696342Y-100265269D01*
X93694455Y-100266412D01*
X93581412Y-100379455D01*
X93498597Y-100516199D01*
X93450790Y-100668749D01*
X93449581Y-100681903D01*
X93449581Y-100681905D01*
X93447950Y-100699661D01*
X93444500Y-100737205D01*
X93444501Y-102442794D01*
X93450790Y-102511251D01*
X93498597Y-102663801D01*
X93581412Y-102800545D01*
X93694455Y-102913588D01*
X93831199Y-102996403D01*
X93983749Y-103044210D01*
X93996903Y-103045419D01*
X93996905Y-103045419D01*
X94046532Y-103049979D01*
X94046538Y-103049979D01*
X94052205Y-103050500D01*
X95304670Y-103050500D01*
X96557794Y-103050499D01*
X96626251Y-103044210D01*
X96778801Y-102996403D01*
X96915545Y-102913588D01*
X97028588Y-102800545D01*
X97111403Y-102663801D01*
X97159210Y-102511251D01*
X97160419Y-102498095D01*
X97164979Y-102448468D01*
X97164979Y-102448462D01*
X97165500Y-102442795D01*
X97165499Y-100737206D01*
X97159210Y-100668749D01*
X97111403Y-100516199D01*
X97028588Y-100379455D01*
X96915545Y-100266412D01*
X96914185Y-100265588D01*
X96856279Y-100198149D01*
X96826014Y-100105828D01*
X96833382Y-100008953D01*
X96877800Y-99921587D01*
X96919319Y-99869015D01*
X96919321Y-99869012D01*
X96925650Y-99860998D01*
X97041717Y-99650744D01*
X97050531Y-99625856D01*
X97118475Y-99433987D01*
X97118475Y-99433985D01*
X97121885Y-99424357D01*
X97164001Y-99187916D01*
X97166935Y-98947772D01*
X97130608Y-98710372D01*
X97127431Y-98700651D01*
X97082228Y-98562352D01*
X97070640Y-98465891D01*
X97096848Y-98372338D01*
X97154728Y-98297787D01*
X97328698Y-98145218D01*
X97340210Y-98133706D01*
X97528257Y-97919281D01*
X97538155Y-97906380D01*
X97696607Y-97669241D01*
X97704735Y-97655161D01*
X97830875Y-97399375D01*
X97837102Y-97384341D01*
X97871427Y-97283222D01*
X97874149Y-97262545D01*
X97874084Y-97262507D01*
X97858896Y-97260000D01*
X92755217Y-97260000D01*
X92734759Y-97264069D01*
X92734744Y-97264144D01*
X89337035Y-97264144D01*
X89421717Y-97110744D01*
X89428043Y-97092882D01*
X89498475Y-96893987D01*
X89498475Y-96893985D01*
X89501885Y-96884357D01*
X89544001Y-96647916D01*
X89546935Y-96407772D01*
X89510608Y-96170372D01*
X89506899Y-96159022D01*
X89439172Y-95951814D01*
X89435995Y-95942094D01*
X89339085Y-95755931D01*
X89329819Y-95738132D01*
X89325100Y-95729067D01*
X89268383Y-95653527D01*
X89187036Y-95545182D01*
X89187032Y-95545178D01*
X89180902Y-95537013D01*
X89057972Y-95419539D01*
X89002176Y-95340003D01*
X88981065Y-95245170D01*
X88997852Y-95149476D01*
X89049982Y-95067491D01*
X89062411Y-95055362D01*
X89156803Y-94969472D01*
X89250184Y-94851231D01*
X89299319Y-94789015D01*
X89299321Y-94789012D01*
X89305650Y-94780998D01*
X89337035Y-94724144D01*
X92734744Y-94724144D01*
X92737252Y-94739330D01*
X92772898Y-94844341D01*
X92779125Y-94859375D01*
X92905262Y-95115155D01*
X92905463Y-95115503D01*
X92905528Y-95115693D01*
X92908868Y-95122467D01*
X92907976Y-95122907D01*
X92936691Y-95207502D01*
X92930336Y-95304449D01*
X92908435Y-95357318D01*
X92908868Y-95357532D01*
X92905609Y-95364140D01*
X92905456Y-95364510D01*
X92905256Y-95364856D01*
X92779125Y-95620625D01*
X92772898Y-95635659D01*
X92738573Y-95736778D01*
X92735851Y-95757455D01*
X92735916Y-95757493D01*
X92751104Y-95760000D01*
X94530473Y-95760000D01*
X94550931Y-95755931D01*
X94555000Y-95735473D01*
X96055000Y-95735473D01*
X96059069Y-95755931D01*
X96079527Y-95760000D01*
X97854783Y-95760000D01*
X97875241Y-95755931D01*
X97875256Y-95755856D01*
X97872748Y-95740670D01*
X97837102Y-95635659D01*
X97830875Y-95620625D01*
X97704738Y-95364845D01*
X97704537Y-95364497D01*
X97704472Y-95364307D01*
X97701132Y-95357533D01*
X97702024Y-95357093D01*
X97673309Y-95272498D01*
X97679664Y-95175551D01*
X97701565Y-95122682D01*
X97701132Y-95122468D01*
X97704391Y-95115860D01*
X97704544Y-95115490D01*
X97704744Y-95115144D01*
X97830875Y-94859375D01*
X97837102Y-94844341D01*
X97871427Y-94743222D01*
X97874149Y-94722545D01*
X97874084Y-94722507D01*
X97858896Y-94720000D01*
X96079527Y-94720000D01*
X96059069Y-94724069D01*
X96055000Y-94744527D01*
X96055000Y-95735473D01*
X94555000Y-95735473D01*
X94555000Y-94744527D01*
X94550931Y-94724069D01*
X94530473Y-94720000D01*
X92755217Y-94720000D01*
X92734759Y-94724069D01*
X92734744Y-94724144D01*
X89337035Y-94724144D01*
X89421717Y-94570744D01*
X89501885Y-94344357D01*
X89544001Y-94107916D01*
X89546935Y-93867772D01*
X89510608Y-93630372D01*
X89502546Y-93605704D01*
X89439172Y-93411814D01*
X89435995Y-93402094D01*
X89351263Y-93239326D01*
X89339878Y-93217455D01*
X92735851Y-93217455D01*
X92735916Y-93217493D01*
X92751104Y-93220000D01*
X94530473Y-93220000D01*
X94550931Y-93215931D01*
X94555000Y-93195473D01*
X96055000Y-93195473D01*
X96059069Y-93215931D01*
X96079527Y-93220000D01*
X97854783Y-93220000D01*
X97875241Y-93215931D01*
X97875256Y-93215856D01*
X97872748Y-93200670D01*
X97837102Y-93095659D01*
X97830875Y-93080625D01*
X97704735Y-92824839D01*
X97696605Y-92810758D01*
X97538164Y-92573632D01*
X97528250Y-92560711D01*
X97340210Y-92346294D01*
X97328706Y-92334790D01*
X97114289Y-92146750D01*
X97101368Y-92136836D01*
X96864242Y-91978395D01*
X96850161Y-91970265D01*
X96594376Y-91844126D01*
X96579341Y-91837898D01*
X96309272Y-91746222D01*
X96293573Y-91742015D01*
X96079051Y-91699344D01*
X96058197Y-91699344D01*
X96055000Y-91707063D01*
X96055000Y-93195473D01*
X94555000Y-93195473D01*
X94555000Y-91719087D01*
X94550931Y-91698629D01*
X94542736Y-91696999D01*
X94316427Y-91742015D01*
X94300728Y-91746222D01*
X94030659Y-91837898D01*
X94015624Y-91844126D01*
X93759839Y-91970265D01*
X93745758Y-91978395D01*
X93508632Y-92136836D01*
X93495711Y-92146750D01*
X93281294Y-92334790D01*
X93269790Y-92346294D01*
X93081743Y-92560719D01*
X93071845Y-92573620D01*
X92913393Y-92810759D01*
X92905265Y-92824839D01*
X92779125Y-93080625D01*
X92772898Y-93095659D01*
X92738573Y-93196778D01*
X92735851Y-93217455D01*
X89339878Y-93217455D01*
X89329819Y-93198132D01*
X89325100Y-93189067D01*
X89278653Y-93127205D01*
X89187036Y-93005182D01*
X89187032Y-93005178D01*
X89180902Y-92997013D01*
X89007272Y-92831089D01*
X88873594Y-92739900D01*
X88817320Y-92701512D01*
X88817316Y-92701510D01*
X88808874Y-92695751D01*
X88665082Y-92629005D01*
X88600298Y-92598933D01*
X88600295Y-92598932D01*
X88591036Y-92594634D01*
X88581201Y-92591907D01*
X88581197Y-92591905D01*
X88369457Y-92533184D01*
X88369453Y-92533183D01*
X88359608Y-92530453D01*
X88229703Y-92516570D01*
X88170137Y-92510204D01*
X88170134Y-92510204D01*
X88163548Y-92509500D01*
X87968835Y-92509500D01*
X87873547Y-92490546D01*
X87792765Y-92436570D01*
X86376249Y-91020054D01*
X86322273Y-90939272D01*
X86303319Y-90843984D01*
X86322273Y-90748696D01*
X86329093Y-90733661D01*
X86331613Y-90728562D01*
X86359296Y-90672550D01*
X86424332Y-90458493D01*
X86453533Y-90236688D01*
X86455163Y-90170000D01*
X86453059Y-90144402D01*
X86437669Y-89957214D01*
X86436832Y-89947033D01*
X86428584Y-89914194D01*
X86397280Y-89789571D01*
X86382331Y-89730055D01*
X86377207Y-89718269D01*
X86366540Y-89693737D01*
X90743614Y-89693737D01*
X90743655Y-89693798D01*
X90756172Y-89702767D01*
X90855637Y-89751818D01*
X90870648Y-89758036D01*
X91140730Y-89849716D01*
X91156431Y-89853923D01*
X91436150Y-89909562D01*
X91452277Y-89911686D01*
X91736868Y-89930339D01*
X91753132Y-89930339D01*
X92037723Y-89911686D01*
X92053850Y-89909562D01*
X92333569Y-89853923D01*
X92349270Y-89849716D01*
X92619352Y-89758036D01*
X92634363Y-89751818D01*
X92730144Y-89704584D01*
X92746691Y-89691887D01*
X92746672Y-89691817D01*
X92737703Y-89679300D01*
X91762341Y-88703938D01*
X91745000Y-88692351D01*
X91727659Y-88703938D01*
X90755201Y-89676396D01*
X90743614Y-89693737D01*
X86366540Y-89693737D01*
X86297198Y-89534262D01*
X86297196Y-89534258D01*
X86293123Y-89524891D01*
X86287576Y-89516317D01*
X86287573Y-89516311D01*
X86177153Y-89345628D01*
X86171605Y-89337052D01*
X86021039Y-89171583D01*
X85845470Y-89032927D01*
X85649612Y-88924807D01*
X85639989Y-88921399D01*
X85639986Y-88921398D01*
X85448353Y-88853537D01*
X85448348Y-88853536D01*
X85438725Y-88850128D01*
X85428665Y-88848336D01*
X85228540Y-88812689D01*
X85228538Y-88812689D01*
X85218473Y-88810896D01*
X85208250Y-88810771D01*
X85208249Y-88810771D01*
X85091130Y-88809340D01*
X84994771Y-88808162D01*
X84984670Y-88809708D01*
X84984665Y-88809708D01*
X84836669Y-88832355D01*
X84773626Y-88842002D01*
X84763910Y-88845178D01*
X84763909Y-88845178D01*
X84666701Y-88876951D01*
X84560978Y-88911507D01*
X84362537Y-89014808D01*
X84183632Y-89149134D01*
X84176569Y-89156525D01*
X84062560Y-89275829D01*
X84029069Y-89310875D01*
X83902998Y-89495689D01*
X83898702Y-89504943D01*
X83898699Y-89504949D01*
X83836878Y-89638132D01*
X83808804Y-89698612D01*
X83803353Y-89718269D01*
X83756964Y-89885543D01*
X83749018Y-89914194D01*
X83747932Y-89924355D01*
X83747931Y-89924361D01*
X83726331Y-90126479D01*
X83726331Y-90126485D01*
X83725245Y-90136646D01*
X83738123Y-90359994D01*
X83760320Y-90458493D01*
X83782722Y-90557896D01*
X83787306Y-90578239D01*
X83791150Y-90587705D01*
X83791151Y-90587709D01*
X83814534Y-90645293D01*
X83871475Y-90785521D01*
X83889261Y-90814545D01*
X83892808Y-90820333D01*
X83926435Y-90911483D01*
X83929500Y-90950434D01*
X83929500Y-91327587D01*
X83928967Y-91343872D01*
X83924927Y-91405509D01*
X83926269Y-91416846D01*
X83926269Y-91416849D01*
X83935293Y-91493087D01*
X83935975Y-91499570D01*
X83944044Y-91587390D01*
X83947143Y-91598378D01*
X83947350Y-91599496D01*
X83947607Y-91601189D01*
X83948008Y-91603206D01*
X83948414Y-91604849D01*
X83948654Y-91605980D01*
X83949996Y-91617315D01*
X83953381Y-91628215D01*
X83953381Y-91628217D01*
X83976153Y-91701555D01*
X83978004Y-91707803D01*
X84001938Y-91792668D01*
X84006990Y-91802912D01*
X84007399Y-91803978D01*
X84007963Y-91805605D01*
X84008712Y-91807482D01*
X84009422Y-91809050D01*
X84009859Y-91810104D01*
X84013244Y-91821007D01*
X84018558Y-91831107D01*
X84018562Y-91831117D01*
X84054311Y-91899064D01*
X84057270Y-91904870D01*
X84096272Y-91983957D01*
X84103108Y-91993110D01*
X84103684Y-91994051D01*
X84104545Y-91995565D01*
X84105637Y-91997296D01*
X84106606Y-91998686D01*
X84107238Y-91999659D01*
X84112553Y-92009762D01*
X84119621Y-92018728D01*
X84119623Y-92018731D01*
X84167176Y-92079052D01*
X84171141Y-92084220D01*
X84223886Y-92154853D01*
X84280306Y-92207007D01*
X84337413Y-92285606D01*
X84360093Y-92380077D01*
X84344895Y-92476036D01*
X84294131Y-92558874D01*
X84215532Y-92615981D01*
X84121061Y-92638661D01*
X84067621Y-92634994D01*
X83988473Y-92620896D01*
X83978250Y-92620771D01*
X83978249Y-92620771D01*
X83861130Y-92619340D01*
X83764771Y-92618162D01*
X83754670Y-92619708D01*
X83754665Y-92619708D01*
X83600605Y-92643283D01*
X83543626Y-92652002D01*
X83330978Y-92721507D01*
X83321909Y-92726228D01*
X83196779Y-92791366D01*
X83103505Y-92818553D01*
X83081804Y-92819500D01*
X81786783Y-92819500D01*
X81770497Y-92818967D01*
X81764181Y-92818553D01*
X81708861Y-92814927D01*
X81697524Y-92816269D01*
X81697521Y-92816269D01*
X81630946Y-92824149D01*
X81625119Y-92824839D01*
X81621283Y-92825293D01*
X81614800Y-92825975D01*
X81526980Y-92834044D01*
X81515992Y-92837143D01*
X81514874Y-92837350D01*
X81513181Y-92837607D01*
X81511164Y-92838008D01*
X81509521Y-92838414D01*
X81508390Y-92838654D01*
X81497055Y-92839996D01*
X81486155Y-92843381D01*
X81486153Y-92843381D01*
X81412815Y-92866153D01*
X81406567Y-92868004D01*
X81321702Y-92891938D01*
X81311458Y-92896990D01*
X81310392Y-92897399D01*
X81308765Y-92897963D01*
X81306888Y-92898712D01*
X81305320Y-92899422D01*
X81304266Y-92899859D01*
X81293363Y-92903244D01*
X81283263Y-92908558D01*
X81283253Y-92908562D01*
X81215306Y-92944311D01*
X81209500Y-92947270D01*
X81130413Y-92986272D01*
X81121260Y-92993108D01*
X81120319Y-92993684D01*
X81118805Y-92994545D01*
X81117074Y-92995637D01*
X81115684Y-92996606D01*
X81114711Y-92997238D01*
X81104608Y-93002553D01*
X81095642Y-93009621D01*
X81095639Y-93009623D01*
X81035318Y-93057176D01*
X81030150Y-93061141D01*
X80959517Y-93113886D01*
X80951764Y-93122273D01*
X80951763Y-93122274D01*
X80904513Y-93173389D01*
X80897737Y-93180438D01*
X73547918Y-100530257D01*
X73536025Y-100541395D01*
X73498177Y-100574586D01*
X73498173Y-100574590D01*
X73489596Y-100582112D01*
X73434983Y-100651389D01*
X73430907Y-100656422D01*
X73374504Y-100724239D01*
X73368926Y-100734199D01*
X73368277Y-100735144D01*
X73367270Y-100736511D01*
X73366119Y-100738234D01*
X73365234Y-100739699D01*
X73364621Y-100740642D01*
X73357553Y-100749608D01*
X73352237Y-100759711D01*
X73352235Y-100759715D01*
X73316484Y-100827667D01*
X73313404Y-100833340D01*
X73270288Y-100910330D01*
X73266617Y-100921145D01*
X73266161Y-100922170D01*
X73265416Y-100923706D01*
X73264596Y-100925614D01*
X73263992Y-100927220D01*
X73263566Y-100928249D01*
X73258244Y-100938363D01*
X73254856Y-100949274D01*
X73250487Y-100959821D01*
X73248407Y-100958959D01*
X73210086Y-101029535D01*
X73134582Y-101090676D01*
X73041427Y-101118268D01*
X72944805Y-101108111D01*
X72859424Y-101061751D01*
X72842577Y-101046382D01*
X71936894Y-100140699D01*
X71882918Y-100059917D01*
X71863964Y-99964629D01*
X71866094Y-99932128D01*
X71866737Y-99927249D01*
X71888533Y-99761688D01*
X71890163Y-99695000D01*
X71871832Y-99472033D01*
X71863584Y-99439194D01*
X71847911Y-99376801D01*
X71817331Y-99255055D01*
X71805172Y-99227090D01*
X71732198Y-99059262D01*
X71732196Y-99059258D01*
X71728123Y-99049891D01*
X71722576Y-99041317D01*
X71722573Y-99041311D01*
X71612153Y-98870628D01*
X71606605Y-98862052D01*
X71456039Y-98696583D01*
X71280470Y-98557927D01*
X71084612Y-98449807D01*
X71074989Y-98446399D01*
X71074986Y-98446398D01*
X70883353Y-98378537D01*
X70883348Y-98378536D01*
X70873725Y-98375128D01*
X70858062Y-98372338D01*
X70663540Y-98337689D01*
X70663538Y-98337689D01*
X70653473Y-98335896D01*
X70643250Y-98335771D01*
X70643249Y-98335771D01*
X70526130Y-98334340D01*
X70429771Y-98333162D01*
X70419670Y-98334708D01*
X70419665Y-98334708D01*
X70265258Y-98358336D01*
X70208626Y-98367002D01*
X70198910Y-98370178D01*
X70198909Y-98370178D01*
X70173335Y-98378537D01*
X69995978Y-98436507D01*
X69797537Y-98539808D01*
X69618632Y-98674134D01*
X69611569Y-98681525D01*
X69518213Y-98779217D01*
X69464069Y-98835875D01*
X69337998Y-99020689D01*
X69333702Y-99029943D01*
X69333699Y-99029949D01*
X69256282Y-99196731D01*
X69243804Y-99223612D01*
X69220298Y-99308373D01*
X69188133Y-99424357D01*
X69184018Y-99439194D01*
X69182932Y-99449355D01*
X69182931Y-99449361D01*
X69161331Y-99651479D01*
X69161331Y-99651485D01*
X69160245Y-99661646D01*
X62660000Y-99661646D01*
X62660000Y-98433481D01*
X63692934Y-98433481D01*
X63694563Y-98435919D01*
X63702627Y-98441973D01*
X63739252Y-98462108D01*
X63753389Y-98468760D01*
X64019606Y-98574163D01*
X64034482Y-98578997D01*
X64311810Y-98650202D01*
X64327162Y-98653131D01*
X64611245Y-98689020D01*
X64626830Y-98690000D01*
X64913170Y-98690000D01*
X64928755Y-98689020D01*
X65212838Y-98653131D01*
X65228190Y-98650202D01*
X65505518Y-98578997D01*
X65520394Y-98574163D01*
X65786611Y-98468760D01*
X65800748Y-98462108D01*
X65831331Y-98445295D01*
X65847294Y-98431876D01*
X65846411Y-98429081D01*
X65840356Y-98421017D01*
X64787341Y-97368001D01*
X64770000Y-97356414D01*
X64752659Y-97368001D01*
X63704521Y-98416140D01*
X63692934Y-98433481D01*
X62660000Y-98433481D01*
X62660000Y-97442479D01*
X62678954Y-97347191D01*
X62732931Y-97266409D01*
X63691997Y-96307344D01*
X63703586Y-96290000D01*
X63691997Y-96272656D01*
X62732931Y-95313591D01*
X62678954Y-95232809D01*
X62660000Y-95137521D01*
X62660000Y-92797205D01*
X63209500Y-92797205D01*
X63209501Y-94702794D01*
X63215790Y-94771251D01*
X63263597Y-94923801D01*
X63346412Y-95060545D01*
X63459455Y-95173588D01*
X63596199Y-95256403D01*
X63748749Y-95304210D01*
X63761903Y-95305419D01*
X63761905Y-95305419D01*
X63811532Y-95309979D01*
X63811538Y-95309979D01*
X63817205Y-95310500D01*
X64748022Y-95310500D01*
X64843307Y-95329453D01*
X64924089Y-95383429D01*
X66895748Y-97355087D01*
X66912757Y-97366452D01*
X66922272Y-97352913D01*
X67002540Y-97182333D01*
X67008294Y-97167801D01*
X67096777Y-96895480D01*
X67100662Y-96880350D01*
X67154317Y-96599079D01*
X67156274Y-96583586D01*
X67174254Y-96297804D01*
X67174254Y-96282196D01*
X67156274Y-95996414D01*
X67154317Y-95980921D01*
X67100662Y-95699650D01*
X67096777Y-95684520D01*
X67008293Y-95412194D01*
X67002544Y-95397674D01*
X66940356Y-95265519D01*
X66916934Y-95171229D01*
X66931379Y-95075154D01*
X66981490Y-94991920D01*
X67059639Y-94934198D01*
X67153929Y-94910776D01*
X67165658Y-94910500D01*
X67419932Y-94910500D01*
X67515220Y-94929454D01*
X67596002Y-94983430D01*
X67608132Y-94996462D01*
X67634640Y-95027063D01*
X67682311Y-95066640D01*
X67798352Y-95162979D01*
X67819421Y-95180471D01*
X67828242Y-95185626D01*
X67828244Y-95185627D01*
X67893388Y-95223694D01*
X68026776Y-95301640D01*
X68036316Y-95305283D01*
X68241588Y-95383669D01*
X68241592Y-95383670D01*
X68251137Y-95387315D01*
X68337383Y-95404862D01*
X68476465Y-95433159D01*
X68476467Y-95433159D01*
X68486478Y-95435196D01*
X68586360Y-95438858D01*
X68716267Y-95443622D01*
X68716273Y-95443622D01*
X68726480Y-95443996D01*
X68736611Y-95442698D01*
X68736616Y-95442698D01*
X68863951Y-95426386D01*
X68964696Y-95413480D01*
X68974478Y-95410545D01*
X68974484Y-95410544D01*
X69184948Y-95347402D01*
X69184954Y-95347400D01*
X69194729Y-95344467D01*
X69201035Y-95341378D01*
X69295349Y-95324491D01*
X69379397Y-95340827D01*
X69501137Y-95387315D01*
X69587383Y-95404862D01*
X69726465Y-95433159D01*
X69726467Y-95433159D01*
X69736478Y-95435196D01*
X69836360Y-95438858D01*
X69966267Y-95443622D01*
X69966273Y-95443622D01*
X69976480Y-95443996D01*
X69986611Y-95442698D01*
X69986616Y-95442698D01*
X70113951Y-95426386D01*
X70214696Y-95413480D01*
X70224478Y-95410545D01*
X70224484Y-95410544D01*
X70434940Y-95347404D01*
X70434942Y-95347403D01*
X70444729Y-95344467D01*
X70453904Y-95339972D01*
X70453907Y-95339971D01*
X70624489Y-95256403D01*
X70660401Y-95238810D01*
X70855921Y-95099347D01*
X70984154Y-94971561D01*
X71065030Y-94917726D01*
X71160351Y-94898938D01*
X71255606Y-94918059D01*
X71336293Y-94972176D01*
X71348123Y-94984907D01*
X71364809Y-95004169D01*
X71384640Y-95027063D01*
X71432311Y-95066640D01*
X71548352Y-95162979D01*
X71569421Y-95180471D01*
X71578242Y-95185626D01*
X71578244Y-95185627D01*
X71643388Y-95223694D01*
X71776776Y-95301640D01*
X71786316Y-95305283D01*
X71991588Y-95383669D01*
X71991592Y-95383670D01*
X72001137Y-95387315D01*
X72087383Y-95404862D01*
X72226465Y-95433159D01*
X72226467Y-95433159D01*
X72236478Y-95435196D01*
X72336360Y-95438858D01*
X72466267Y-95443622D01*
X72466273Y-95443622D01*
X72476480Y-95443996D01*
X72486611Y-95442698D01*
X72486616Y-95442698D01*
X72613951Y-95426386D01*
X72714696Y-95413480D01*
X72724478Y-95410545D01*
X72724484Y-95410544D01*
X72934948Y-95347402D01*
X72934954Y-95347400D01*
X72944729Y-95344467D01*
X72951035Y-95341378D01*
X73045349Y-95324491D01*
X73129397Y-95340827D01*
X73251137Y-95387315D01*
X73337383Y-95404862D01*
X73476465Y-95433159D01*
X73476467Y-95433159D01*
X73486478Y-95435196D01*
X73586360Y-95438858D01*
X73716267Y-95443622D01*
X73716273Y-95443622D01*
X73726480Y-95443996D01*
X73736611Y-95442698D01*
X73736616Y-95442698D01*
X73863951Y-95426386D01*
X73964696Y-95413480D01*
X73974478Y-95410545D01*
X73974484Y-95410544D01*
X74184940Y-95347404D01*
X74184942Y-95347403D01*
X74194729Y-95344467D01*
X74203904Y-95339972D01*
X74203907Y-95339971D01*
X74374489Y-95256403D01*
X74410401Y-95238810D01*
X74431593Y-95223694D01*
X74483339Y-95186785D01*
X74571921Y-95146882D01*
X74627933Y-95140500D01*
X75461814Y-95140500D01*
X75557102Y-95159454D01*
X75587441Y-95174514D01*
X75650133Y-95211148D01*
X75659676Y-95214792D01*
X75659682Y-95214795D01*
X75849583Y-95287311D01*
X75849587Y-95287312D01*
X75859132Y-95290957D01*
X75970380Y-95313591D01*
X76068346Y-95333523D01*
X76068348Y-95333523D01*
X76078359Y-95335560D01*
X76176397Y-95339155D01*
X76291716Y-95343384D01*
X76291722Y-95343384D01*
X76301928Y-95343758D01*
X76312058Y-95342460D01*
X76312064Y-95342460D01*
X76413595Y-95329453D01*
X76523833Y-95315331D01*
X76533617Y-95312396D01*
X76533620Y-95312395D01*
X76728327Y-95253980D01*
X76728329Y-95253979D01*
X76738116Y-95251043D01*
X76747291Y-95246548D01*
X76747294Y-95246547D01*
X76835198Y-95203483D01*
X76939022Y-95152620D01*
X77121155Y-95022706D01*
X77279624Y-94864789D01*
X77410173Y-94683111D01*
X77477456Y-94546973D01*
X77504765Y-94491718D01*
X77504765Y-94491717D01*
X77509296Y-94482550D01*
X77574332Y-94268493D01*
X77603533Y-94046688D01*
X77605163Y-93980000D01*
X77586832Y-93757033D01*
X77532331Y-93540055D01*
X77510713Y-93490335D01*
X77447198Y-93344262D01*
X77447196Y-93344258D01*
X77443123Y-93334891D01*
X77437576Y-93326317D01*
X77437573Y-93326311D01*
X77327153Y-93155628D01*
X77321605Y-93147052D01*
X77184709Y-92996606D01*
X77177911Y-92989135D01*
X77177910Y-92989134D01*
X77171039Y-92981583D01*
X76995470Y-92842927D01*
X76799612Y-92734807D01*
X76789989Y-92731399D01*
X76789986Y-92731398D01*
X76598353Y-92663537D01*
X76598348Y-92663536D01*
X76588725Y-92660128D01*
X76578665Y-92658336D01*
X76378540Y-92622689D01*
X76378538Y-92622689D01*
X76368473Y-92620896D01*
X76358250Y-92620771D01*
X76358249Y-92620771D01*
X76241130Y-92619340D01*
X76144771Y-92618162D01*
X76134670Y-92619708D01*
X76134665Y-92619708D01*
X75980605Y-92643283D01*
X75923626Y-92652002D01*
X75710978Y-92721507D01*
X75701909Y-92726228D01*
X75576779Y-92791366D01*
X75483505Y-92818553D01*
X75461804Y-92819500D01*
X74633628Y-92819500D01*
X74538340Y-92800546D01*
X74487817Y-92770904D01*
X74487529Y-92771338D01*
X74479769Y-92766182D01*
X74479304Y-92765909D01*
X74470998Y-92759350D01*
X74260744Y-92643283D01*
X74251121Y-92639875D01*
X74251118Y-92639874D01*
X74043987Y-92566525D01*
X74043985Y-92566525D01*
X74034357Y-92563115D01*
X73797916Y-92520999D01*
X73787695Y-92520874D01*
X73787694Y-92520874D01*
X73646832Y-92519153D01*
X73557772Y-92518065D01*
X73320372Y-92554392D01*
X73310658Y-92557567D01*
X73310654Y-92557568D01*
X73221348Y-92586758D01*
X73109395Y-92623350D01*
X73012934Y-92634938D01*
X72948918Y-92621389D01*
X72793994Y-92566527D01*
X72793987Y-92566525D01*
X72784357Y-92563115D01*
X72547916Y-92520999D01*
X72537695Y-92520874D01*
X72537694Y-92520874D01*
X72373680Y-92518870D01*
X72307772Y-92518065D01*
X72299041Y-92519401D01*
X72203244Y-92507213D01*
X72118895Y-92459003D01*
X72059415Y-92382183D01*
X72033860Y-92288449D01*
X72046122Y-92192071D01*
X72094332Y-92107722D01*
X72106184Y-92095011D01*
X72503395Y-91697800D01*
X77738614Y-91697800D01*
X77738655Y-91697861D01*
X77751172Y-91706830D01*
X77850637Y-91755881D01*
X77865648Y-91762099D01*
X78135730Y-91853779D01*
X78151431Y-91857986D01*
X78431150Y-91913625D01*
X78447277Y-91915749D01*
X78731868Y-91934402D01*
X78748132Y-91934402D01*
X79032723Y-91915749D01*
X79048850Y-91913625D01*
X79328569Y-91857986D01*
X79344270Y-91853779D01*
X79614352Y-91762099D01*
X79629363Y-91755881D01*
X79725144Y-91708647D01*
X79741691Y-91695950D01*
X79741672Y-91695880D01*
X79732703Y-91683363D01*
X78757341Y-90708001D01*
X78740000Y-90696414D01*
X78722659Y-90708001D01*
X77750201Y-91680459D01*
X77738614Y-91697800D01*
X72503395Y-91697800D01*
X72660919Y-91540276D01*
X72741701Y-91486300D01*
X72765433Y-91477850D01*
X72888116Y-91441043D01*
X73089022Y-91342620D01*
X73271155Y-91212706D01*
X73429624Y-91054789D01*
X73560173Y-90873111D01*
X73641775Y-90708001D01*
X73654765Y-90681718D01*
X73654767Y-90681713D01*
X73659296Y-90672550D01*
X73724332Y-90458493D01*
X73753533Y-90236688D01*
X73755163Y-90170000D01*
X73753059Y-90144402D01*
X73737669Y-89957214D01*
X73736832Y-89947033D01*
X73728584Y-89914194D01*
X73697280Y-89789571D01*
X73682331Y-89730055D01*
X73677207Y-89718269D01*
X73597198Y-89534262D01*
X73597196Y-89534258D01*
X73593123Y-89524891D01*
X73587576Y-89516317D01*
X73587573Y-89516311D01*
X73477153Y-89345628D01*
X73471605Y-89337052D01*
X73321039Y-89171583D01*
X73145470Y-89032927D01*
X72949612Y-88924807D01*
X72939989Y-88921399D01*
X72939986Y-88921398D01*
X72748353Y-88853537D01*
X72748348Y-88853536D01*
X72738725Y-88850128D01*
X72728665Y-88848336D01*
X72528540Y-88812689D01*
X72528538Y-88812689D01*
X72518473Y-88810896D01*
X72508250Y-88810771D01*
X72508249Y-88810771D01*
X72391130Y-88809340D01*
X72294771Y-88808162D01*
X72284670Y-88809708D01*
X72284665Y-88809708D01*
X72136669Y-88832355D01*
X72073626Y-88842002D01*
X72063910Y-88845178D01*
X72063909Y-88845178D01*
X71966701Y-88876951D01*
X71860978Y-88911507D01*
X71662537Y-89014808D01*
X71483632Y-89149134D01*
X71476569Y-89156525D01*
X71362560Y-89275829D01*
X71329069Y-89310875D01*
X71202998Y-89495689D01*
X71198702Y-89504943D01*
X71198699Y-89504949D01*
X71136878Y-89638132D01*
X71108804Y-89698612D01*
X71106074Y-89708457D01*
X71106073Y-89708460D01*
X71083579Y-89789571D01*
X71039850Y-89876329D01*
X71019705Y-89899100D01*
X69122918Y-91795887D01*
X69111025Y-91807025D01*
X69073177Y-91840216D01*
X69073173Y-91840220D01*
X69064596Y-91847742D01*
X69010984Y-91915749D01*
X69009983Y-91917019D01*
X69005907Y-91922052D01*
X68949504Y-91989869D01*
X68943926Y-91999829D01*
X68943277Y-92000774D01*
X68942270Y-92002141D01*
X68941119Y-92003864D01*
X68940234Y-92005329D01*
X68939621Y-92006272D01*
X68932553Y-92015238D01*
X68927237Y-92025341D01*
X68927235Y-92025345D01*
X68891484Y-92093297D01*
X68888404Y-92098970D01*
X68845288Y-92175960D01*
X68841617Y-92186775D01*
X68841161Y-92187800D01*
X68840416Y-92189336D01*
X68839596Y-92191244D01*
X68838992Y-92192850D01*
X68838566Y-92193879D01*
X68833244Y-92203993D01*
X68829856Y-92214903D01*
X68829856Y-92214904D01*
X68807090Y-92288224D01*
X68805075Y-92294425D01*
X68786262Y-92349846D01*
X68737685Y-92433984D01*
X68660607Y-92493129D01*
X68567887Y-92518189D01*
X68557772Y-92518065D01*
X68547670Y-92519611D01*
X68547667Y-92519611D01*
X68330468Y-92552847D01*
X68330467Y-92552847D01*
X68320372Y-92554392D01*
X68310662Y-92557566D01*
X68310661Y-92557566D01*
X68250658Y-92577178D01*
X68173300Y-92589500D01*
X66424763Y-92589500D01*
X66329475Y-92570546D01*
X66248693Y-92516570D01*
X66211777Y-92469487D01*
X66201365Y-92452295D01*
X66201361Y-92452290D01*
X66193588Y-92439455D01*
X66080545Y-92326412D01*
X65943801Y-92243597D01*
X65791251Y-92195790D01*
X65778097Y-92194581D01*
X65778095Y-92194581D01*
X65728468Y-92190021D01*
X65728462Y-92190021D01*
X65722795Y-92189500D01*
X64770251Y-92189500D01*
X63817206Y-92189501D01*
X63748749Y-92195790D01*
X63596199Y-92243597D01*
X63459455Y-92326412D01*
X63346412Y-92439455D01*
X63263597Y-92576199D01*
X63215790Y-92728749D01*
X63214581Y-92741903D01*
X63214581Y-92741905D01*
X63210037Y-92791366D01*
X63209500Y-92797205D01*
X62660000Y-92797205D01*
X62660000Y-84064585D01*
X62661213Y-84047446D01*
X63734938Y-84047446D01*
X63761110Y-84346598D01*
X63826618Y-84639661D01*
X63930309Y-84921486D01*
X63934157Y-84928785D01*
X63934160Y-84928791D01*
X63968947Y-84994770D01*
X64070362Y-85187121D01*
X64075141Y-85193845D01*
X64075143Y-85193849D01*
X64223181Y-85402158D01*
X64244318Y-85431900D01*
X64249953Y-85437943D01*
X64249954Y-85437944D01*
X64375499Y-85572574D01*
X64449118Y-85651521D01*
X64681166Y-85842128D01*
X64936384Y-86000370D01*
X65054194Y-86053316D01*
X65138541Y-86091223D01*
X65210289Y-86123468D01*
X65218193Y-86125824D01*
X65218195Y-86125825D01*
X65490165Y-86206902D01*
X65490169Y-86206903D01*
X65498069Y-86209258D01*
X65794667Y-86256235D01*
X65801608Y-86256550D01*
X65801616Y-86256551D01*
X65841965Y-86258383D01*
X65888591Y-86260500D01*
X66076166Y-86260500D01*
X66080256Y-86260228D01*
X66080266Y-86260228D01*
X66178479Y-86253704D01*
X66299635Y-86245657D01*
X66594005Y-86186302D01*
X66877939Y-86088535D01*
X67146449Y-85954076D01*
X67153272Y-85949439D01*
X67153279Y-85949435D01*
X67282813Y-85861403D01*
X67394817Y-85785285D01*
X67400971Y-85779783D01*
X67612528Y-85590630D01*
X67612532Y-85590626D01*
X67618680Y-85585129D01*
X67705499Y-85483835D01*
X67808728Y-85363396D01*
X67808732Y-85363391D01*
X67814104Y-85357123D01*
X67902227Y-85221426D01*
X67973154Y-85112208D01*
X67973156Y-85112204D01*
X67977656Y-85105275D01*
X68089041Y-84870698D01*
X68102918Y-84841474D01*
X68102919Y-84841473D01*
X68106463Y-84834008D01*
X68198262Y-84548088D01*
X68220374Y-84425194D01*
X68249979Y-84260662D01*
X68249980Y-84260654D01*
X68251440Y-84252539D01*
X68262476Y-84009499D01*
X68264688Y-83960794D01*
X68264688Y-83960791D01*
X68265062Y-83952554D01*
X68238890Y-83653402D01*
X68173382Y-83360339D01*
X68069691Y-83078514D01*
X68050843Y-83042764D01*
X67968278Y-82886166D01*
X67929638Y-82812879D01*
X67884930Y-82749968D01*
X67760470Y-82574837D01*
X67760468Y-82574835D01*
X67755682Y-82568100D01*
X67738804Y-82550000D01*
X67556520Y-82354525D01*
X67550882Y-82348479D01*
X67417021Y-82238524D01*
X67325221Y-82163118D01*
X67325218Y-82163116D01*
X67318834Y-82157872D01*
X67063616Y-81999630D01*
X66873664Y-81914262D01*
X66797239Y-81879915D01*
X66797236Y-81879914D01*
X66789711Y-81876532D01*
X66781805Y-81874175D01*
X66509835Y-81793098D01*
X66509831Y-81793097D01*
X66501931Y-81790742D01*
X66268666Y-81753796D01*
X66212209Y-81744854D01*
X66212208Y-81744854D01*
X66205333Y-81743765D01*
X66198392Y-81743450D01*
X66198384Y-81743449D01*
X66158035Y-81741617D01*
X66111409Y-81739500D01*
X65923834Y-81739500D01*
X65919744Y-81739772D01*
X65919734Y-81739772D01*
X65821521Y-81746296D01*
X65700365Y-81754343D01*
X65405995Y-81813698D01*
X65122061Y-81911465D01*
X64853551Y-82045924D01*
X64846728Y-82050561D01*
X64846721Y-82050565D01*
X64725871Y-82132695D01*
X64605183Y-82214715D01*
X64599032Y-82220215D01*
X64599029Y-82220217D01*
X64387472Y-82409370D01*
X64387468Y-82409374D01*
X64381320Y-82414871D01*
X64348894Y-82452703D01*
X64191272Y-82636604D01*
X64191268Y-82636609D01*
X64185896Y-82642877D01*
X64161801Y-82679980D01*
X64043069Y-82862812D01*
X64022344Y-82894725D01*
X63994528Y-82953305D01*
X63921981Y-83106090D01*
X63893537Y-83165992D01*
X63801738Y-83451912D01*
X63800275Y-83460043D01*
X63750021Y-83739338D01*
X63750020Y-83739346D01*
X63748560Y-83747461D01*
X63734938Y-84047446D01*
X62661213Y-84047446D01*
X62662484Y-84029500D01*
X62663552Y-84021994D01*
X62664701Y-84013924D01*
X62664847Y-84000000D01*
X62663868Y-83991909D01*
X62663420Y-83983766D01*
X62663724Y-83983749D01*
X62662594Y-83950517D01*
X62673661Y-83739338D01*
X62677615Y-83663895D01*
X62680339Y-83637980D01*
X62682619Y-83623588D01*
X62730945Y-83318466D01*
X62736363Y-83292978D01*
X62820097Y-82980480D01*
X62828151Y-82955692D01*
X62944079Y-82653690D01*
X62954679Y-82629881D01*
X63101553Y-82341623D01*
X63114585Y-82319051D01*
X63130728Y-82294194D01*
X63270728Y-82078612D01*
X63290776Y-82047741D01*
X63306096Y-82026655D01*
X63509680Y-81775250D01*
X63527119Y-81755881D01*
X63755881Y-81527119D01*
X63775250Y-81509680D01*
X64026655Y-81306096D01*
X64047741Y-81290776D01*
X64153644Y-81222002D01*
X64319056Y-81114582D01*
X64341623Y-81101553D01*
X64629881Y-80954679D01*
X64653690Y-80944079D01*
X64955692Y-80828151D01*
X64980480Y-80820097D01*
X65292978Y-80736363D01*
X65318466Y-80730945D01*
X65637987Y-80680338D01*
X65663893Y-80677615D01*
X65946039Y-80662828D01*
X65963136Y-80663502D01*
X65963144Y-80662695D01*
X65978158Y-80662852D01*
X65993038Y-80664811D01*
X66007956Y-80663164D01*
X66022991Y-80661504D01*
X66050316Y-80660000D01*
X82197665Y-80660000D01*
X82292953Y-80678954D01*
G37*
%TD.AperFunction*%
%TA.AperFunction,Conductor*%
G36*
X131186288Y-80678954D02*
G01*
X131267070Y-80732930D01*
X131321046Y-80813712D01*
X131340000Y-80909000D01*
X131340000Y-82999884D01*
X131321046Y-83095172D01*
X131267070Y-83175954D01*
X131186288Y-83229930D01*
X131091000Y-83248884D01*
X131020281Y-83238630D01*
X130948514Y-83217372D01*
X130927746Y-83215464D01*
X130926537Y-83217761D01*
X130925000Y-83228364D01*
X130925000Y-89966293D01*
X130929069Y-89986751D01*
X130929419Y-89986820D01*
X130944105Y-89984429D01*
X131011991Y-89961714D01*
X131108369Y-89949453D01*
X131202103Y-89975007D01*
X131278922Y-90034487D01*
X131327132Y-90118837D01*
X131340000Y-90197846D01*
X131340000Y-95504780D01*
X131321046Y-95600068D01*
X131267070Y-95680850D01*
X131186288Y-95734826D01*
X131091000Y-95753780D01*
X130995712Y-95734826D01*
X130914930Y-95680850D01*
X130892172Y-95653241D01*
X130891809Y-95653527D01*
X130723371Y-95439864D01*
X130525201Y-95253445D01*
X130301654Y-95098365D01*
X130095033Y-94996471D01*
X130065926Y-94982117D01*
X130065924Y-94982116D01*
X130057640Y-94978031D01*
X129870288Y-94918059D01*
X129807318Y-94897902D01*
X129807315Y-94897901D01*
X129798520Y-94895086D01*
X129656768Y-94872000D01*
X129539101Y-94852836D01*
X129539095Y-94852835D01*
X129529986Y-94851352D01*
X129520756Y-94851231D01*
X129520754Y-94851231D01*
X129341835Y-94848889D01*
X129257937Y-94847791D01*
X128988350Y-94884480D01*
X128951963Y-94895086D01*
X128736015Y-94958029D01*
X128736009Y-94958031D01*
X128727148Y-94960614D01*
X128575305Y-95030614D01*
X128528835Y-95052037D01*
X128480067Y-95074519D01*
X128416865Y-95115956D01*
X128260263Y-95218628D01*
X128260257Y-95218632D01*
X128252537Y-95223694D01*
X128049556Y-95404862D01*
X128020445Y-95439864D01*
X127970662Y-95499721D01*
X127895158Y-95560862D01*
X127802004Y-95588455D01*
X127779221Y-95589500D01*
X125599978Y-95589500D01*
X125504690Y-95570546D01*
X125423908Y-95516570D01*
X125422488Y-95515087D01*
X125418371Y-95509864D01*
X125220201Y-95323445D01*
X124996654Y-95168365D01*
X124846416Y-95094276D01*
X124760926Y-95052117D01*
X124760924Y-95052116D01*
X124752640Y-95048031D01*
X124591567Y-94996471D01*
X124502318Y-94967902D01*
X124502315Y-94967901D01*
X124493520Y-94965086D01*
X124362249Y-94943707D01*
X124234101Y-94922836D01*
X124234095Y-94922835D01*
X124224986Y-94921352D01*
X124215756Y-94921231D01*
X124215754Y-94921231D01*
X124036835Y-94918889D01*
X123952937Y-94917791D01*
X123683350Y-94954480D01*
X123651622Y-94963728D01*
X123431015Y-95028029D01*
X123431009Y-95028031D01*
X123422148Y-95030614D01*
X123267522Y-95101897D01*
X123204167Y-95131104D01*
X123175067Y-95144519D01*
X123130658Y-95173635D01*
X122955263Y-95288628D01*
X122955257Y-95288632D01*
X122947537Y-95293694D01*
X122744556Y-95474862D01*
X122570583Y-95684042D01*
X122536220Y-95740670D01*
X122434228Y-95908747D01*
X122434225Y-95908753D01*
X122429439Y-95916640D01*
X122324226Y-96167545D01*
X122257254Y-96431246D01*
X122256328Y-96440443D01*
X122235430Y-96647988D01*
X122229996Y-96701949D01*
X122243050Y-96973707D01*
X122244849Y-96982752D01*
X122244850Y-96982759D01*
X122272508Y-97121803D01*
X122296128Y-97240552D01*
X122299248Y-97249241D01*
X122299248Y-97249242D01*
X122383172Y-97482987D01*
X122388066Y-97496619D01*
X122392437Y-97504753D01*
X122392437Y-97504754D01*
X122492396Y-97690786D01*
X122516843Y-97736285D01*
X122561225Y-97795720D01*
X122666110Y-97936178D01*
X122679630Y-97954284D01*
X122686193Y-97960790D01*
X122785533Y-98059266D01*
X122872852Y-98145826D01*
X122930738Y-98188270D01*
X123040633Y-98268848D01*
X123092263Y-98306705D01*
X123100428Y-98311001D01*
X123100433Y-98311004D01*
X123233071Y-98380788D01*
X123333043Y-98433386D01*
X123341770Y-98436434D01*
X123341771Y-98436434D01*
X123367145Y-98445295D01*
X123589903Y-98523085D01*
X123857200Y-98573833D01*
X123866422Y-98574195D01*
X123866428Y-98574196D01*
X123993132Y-98579174D01*
X124129063Y-98584515D01*
X124138238Y-98583510D01*
X124138243Y-98583510D01*
X124390333Y-98555901D01*
X124390334Y-98555901D01*
X124399518Y-98554895D01*
X124408454Y-98552542D01*
X124408456Y-98552542D01*
X124593465Y-98503833D01*
X124662624Y-98485625D01*
X124912601Y-98378226D01*
X124920453Y-98373367D01*
X124920457Y-98373365D01*
X125096000Y-98264735D01*
X125143958Y-98235058D01*
X125351612Y-98059266D01*
X125357701Y-98052323D01*
X125357709Y-98052315D01*
X125407691Y-97995322D01*
X125484769Y-97936178D01*
X125578614Y-97911033D01*
X125594898Y-97910500D01*
X127908573Y-97910500D01*
X128003861Y-97929454D01*
X128083872Y-97982663D01*
X128177852Y-98075826D01*
X128397263Y-98236705D01*
X128405428Y-98241001D01*
X128405433Y-98241004D01*
X128540131Y-98311872D01*
X128638043Y-98363386D01*
X128894903Y-98453085D01*
X129162200Y-98503833D01*
X129171422Y-98504195D01*
X129171428Y-98504196D01*
X129298131Y-98509174D01*
X129434063Y-98514515D01*
X129443238Y-98513510D01*
X129443243Y-98513510D01*
X129695333Y-98485901D01*
X129695334Y-98485901D01*
X129704518Y-98484895D01*
X129713454Y-98482542D01*
X129713456Y-98482542D01*
X129873852Y-98440313D01*
X129967624Y-98415625D01*
X130217601Y-98308226D01*
X130225453Y-98303367D01*
X130225457Y-98303365D01*
X130395338Y-98198239D01*
X130448958Y-98165058D01*
X130656612Y-97989266D01*
X130662702Y-97982322D01*
X130829909Y-97791660D01*
X130829911Y-97791658D01*
X130836002Y-97784712D01*
X130881581Y-97713851D01*
X130949070Y-97643963D01*
X131038167Y-97605223D01*
X131135307Y-97603527D01*
X131225702Y-97639134D01*
X131295590Y-97706623D01*
X131334330Y-97795720D01*
X131340000Y-97848553D01*
X131340000Y-100504780D01*
X131321046Y-100600068D01*
X131267070Y-100680850D01*
X131186288Y-100734826D01*
X131091000Y-100753780D01*
X130995712Y-100734826D01*
X130914930Y-100680850D01*
X130892172Y-100653241D01*
X130891809Y-100653527D01*
X130723371Y-100439864D01*
X130525201Y-100253445D01*
X130301654Y-100098365D01*
X130057640Y-99978031D01*
X129898997Y-99927249D01*
X129807318Y-99897902D01*
X129807315Y-99897901D01*
X129798520Y-99895086D01*
X129635014Y-99868457D01*
X129539101Y-99852836D01*
X129539095Y-99852835D01*
X129529986Y-99851352D01*
X129520756Y-99851231D01*
X129520754Y-99851231D01*
X129341835Y-99848889D01*
X129257937Y-99847791D01*
X128988350Y-99884480D01*
X128952368Y-99894968D01*
X128736015Y-99958029D01*
X128736009Y-99958031D01*
X128727148Y-99960614D01*
X128590947Y-100023403D01*
X128502143Y-100064342D01*
X128480067Y-100074519D01*
X128401885Y-100125777D01*
X128260263Y-100218628D01*
X128260257Y-100218632D01*
X128252537Y-100223694D01*
X128049556Y-100404862D01*
X128010904Y-100451336D01*
X127970662Y-100499721D01*
X127895158Y-100560862D01*
X127802004Y-100588455D01*
X127779221Y-100589500D01*
X125599978Y-100589500D01*
X125504690Y-100570546D01*
X125423908Y-100516570D01*
X125422488Y-100515087D01*
X125418371Y-100509864D01*
X125220201Y-100323445D01*
X124996654Y-100168365D01*
X124826310Y-100084361D01*
X124760926Y-100052117D01*
X124760924Y-100052116D01*
X124752640Y-100048031D01*
X124614613Y-100003848D01*
X124502318Y-99967902D01*
X124502315Y-99967901D01*
X124493520Y-99965086D01*
X124362249Y-99943707D01*
X124234101Y-99922836D01*
X124234095Y-99922835D01*
X124224986Y-99921352D01*
X124215756Y-99921231D01*
X124215754Y-99921231D01*
X124079650Y-99919450D01*
X123974165Y-99918069D01*
X123879134Y-99897869D01*
X123801355Y-99845160D01*
X123499113Y-99542918D01*
X123487975Y-99531025D01*
X123454784Y-99493177D01*
X123454780Y-99493173D01*
X123447258Y-99484596D01*
X123377959Y-99429965D01*
X123372948Y-99425907D01*
X123305131Y-99369504D01*
X123295171Y-99363926D01*
X123294226Y-99363277D01*
X123292859Y-99362270D01*
X123291136Y-99361119D01*
X123289671Y-99360234D01*
X123288728Y-99359621D01*
X123279762Y-99352553D01*
X123269659Y-99347237D01*
X123269655Y-99347235D01*
X123201703Y-99311484D01*
X123196030Y-99308404D01*
X123119040Y-99265288D01*
X123108225Y-99261617D01*
X123107200Y-99261161D01*
X123105664Y-99260416D01*
X123103756Y-99259596D01*
X123102150Y-99258992D01*
X123101121Y-99258566D01*
X123091007Y-99253244D01*
X123006768Y-99227087D01*
X123000576Y-99225076D01*
X122917074Y-99196731D01*
X122905780Y-99195093D01*
X122904671Y-99194827D01*
X122903006Y-99194369D01*
X122901032Y-99193923D01*
X122899355Y-99193623D01*
X122898218Y-99193381D01*
X122887315Y-99189996D01*
X122875978Y-99188654D01*
X122875977Y-99188654D01*
X122857927Y-99186518D01*
X122799670Y-99179623D01*
X122793278Y-99178782D01*
X122705996Y-99166126D01*
X122694588Y-99166574D01*
X122694585Y-99166574D01*
X122625003Y-99169308D01*
X122615228Y-99169500D01*
X120157196Y-99169500D01*
X120061908Y-99150546D01*
X120036858Y-99138490D01*
X119948555Y-99089744D01*
X119939612Y-99084807D01*
X119929989Y-99081399D01*
X119929986Y-99081398D01*
X119738353Y-99013537D01*
X119738348Y-99013536D01*
X119728725Y-99010128D01*
X119718665Y-99008336D01*
X119518540Y-98972689D01*
X119518538Y-98972689D01*
X119508473Y-98970896D01*
X119498250Y-98970771D01*
X119498249Y-98970771D01*
X119381130Y-98969340D01*
X119284771Y-98968162D01*
X119274670Y-98969708D01*
X119274665Y-98969708D01*
X119120258Y-98993336D01*
X119063626Y-99002002D01*
X118850978Y-99071507D01*
X118652537Y-99174808D01*
X118473632Y-99309134D01*
X118466569Y-99316525D01*
X118327433Y-99462123D01*
X118319069Y-99470875D01*
X118313316Y-99479308D01*
X118313314Y-99479311D01*
X118273851Y-99537162D01*
X118192998Y-99655689D01*
X118188702Y-99664943D01*
X118188699Y-99664949D01*
X118103105Y-99849346D01*
X118098804Y-99858612D01*
X118092650Y-99880804D01*
X118046274Y-100048031D01*
X118039018Y-100074194D01*
X118037932Y-100084355D01*
X118037931Y-100084361D01*
X118016331Y-100286479D01*
X118016331Y-100286485D01*
X118015245Y-100296646D01*
X118028123Y-100519994D01*
X118077306Y-100738239D01*
X118081150Y-100747705D01*
X118081151Y-100747709D01*
X118109747Y-100818132D01*
X118161475Y-100945521D01*
X118166815Y-100954235D01*
X118166816Y-100954237D01*
X118272951Y-101127433D01*
X118278368Y-101136273D01*
X118424845Y-101305372D01*
X118432707Y-101311899D01*
X118432711Y-101311903D01*
X118511169Y-101377039D01*
X118596975Y-101448276D01*
X118790133Y-101561148D01*
X118799676Y-101564792D01*
X118799682Y-101564795D01*
X118989583Y-101637311D01*
X118989587Y-101637312D01*
X118999132Y-101640957D01*
X119118932Y-101665331D01*
X119208346Y-101683523D01*
X119208348Y-101683523D01*
X119218359Y-101685560D01*
X119316397Y-101689155D01*
X119431716Y-101693384D01*
X119431722Y-101693384D01*
X119441928Y-101693758D01*
X119452058Y-101692460D01*
X119452064Y-101692460D01*
X119562767Y-101678278D01*
X119663833Y-101665331D01*
X119673617Y-101662396D01*
X119673620Y-101662395D01*
X119868327Y-101603980D01*
X119868329Y-101603979D01*
X119878116Y-101601043D01*
X119887291Y-101596548D01*
X119887294Y-101596547D01*
X120051933Y-101515891D01*
X120145843Y-101490991D01*
X120161478Y-101490500D01*
X121982513Y-101490500D01*
X122077801Y-101509454D01*
X122158583Y-101563430D01*
X122212559Y-101644212D01*
X122231226Y-101727552D01*
X122243050Y-101973707D01*
X122244849Y-101982752D01*
X122244850Y-101982759D01*
X122264919Y-102083651D01*
X122296128Y-102240552D01*
X122299248Y-102249241D01*
X122299248Y-102249242D01*
X122378470Y-102469891D01*
X122388066Y-102496619D01*
X122392437Y-102504753D01*
X122392437Y-102504754D01*
X122491834Y-102689740D01*
X122516843Y-102736285D01*
X122584599Y-102827021D01*
X122666110Y-102936178D01*
X122679630Y-102954284D01*
X122872852Y-103145826D01*
X122913876Y-103175906D01*
X123069103Y-103289723D01*
X123092263Y-103306705D01*
X123100428Y-103311001D01*
X123100433Y-103311004D01*
X123235131Y-103381872D01*
X123333043Y-103433386D01*
X123589903Y-103523085D01*
X123598977Y-103524808D01*
X123598978Y-103524808D01*
X123626856Y-103530101D01*
X123857200Y-103573833D01*
X123866422Y-103574195D01*
X123866428Y-103574196D01*
X123944297Y-103577255D01*
X124025594Y-103580450D01*
X124085952Y-103594940D01*
X124136798Y-103583668D01*
X124384480Y-103556542D01*
X124390333Y-103555901D01*
X124390334Y-103555901D01*
X124399518Y-103554895D01*
X124408454Y-103552542D01*
X124408456Y-103552542D01*
X124588345Y-103505181D01*
X124662624Y-103485625D01*
X124912601Y-103378226D01*
X124920453Y-103373367D01*
X124920457Y-103373365D01*
X125068857Y-103281532D01*
X125143958Y-103235058D01*
X125351612Y-103059266D01*
X125357701Y-103052323D01*
X125357709Y-103052315D01*
X125407691Y-102995322D01*
X125484769Y-102936178D01*
X125578614Y-102911033D01*
X125594898Y-102910500D01*
X127908573Y-102910500D01*
X128003861Y-102929454D01*
X128083872Y-102982663D01*
X128177852Y-103075826D01*
X128397263Y-103236705D01*
X128405428Y-103241001D01*
X128405433Y-103241004D01*
X128540131Y-103311872D01*
X128638043Y-103363386D01*
X128894903Y-103453085D01*
X129162200Y-103503833D01*
X129171422Y-103504195D01*
X129171428Y-103504196D01*
X129249297Y-103507255D01*
X129330594Y-103510450D01*
X129390952Y-103524940D01*
X129441798Y-103513668D01*
X129680970Y-103487474D01*
X129695333Y-103485901D01*
X129695334Y-103485901D01*
X129704518Y-103484895D01*
X129713454Y-103482542D01*
X129713456Y-103482542D01*
X129900163Y-103433386D01*
X129967624Y-103415625D01*
X130217601Y-103308226D01*
X130225453Y-103303367D01*
X130225457Y-103303365D01*
X130374112Y-103211374D01*
X130448958Y-103165058D01*
X130656612Y-102989266D01*
X130693788Y-102946875D01*
X130829909Y-102791660D01*
X130829911Y-102791658D01*
X130836002Y-102784712D01*
X130881581Y-102713851D01*
X130949070Y-102643963D01*
X131038167Y-102605223D01*
X131135307Y-102603527D01*
X131225702Y-102639134D01*
X131295590Y-102706623D01*
X131334330Y-102795720D01*
X131340000Y-102848553D01*
X131340000Y-104319715D01*
X131321046Y-104415003D01*
X131267070Y-104495785D01*
X131186288Y-104549761D01*
X131091000Y-104568715D01*
X130995712Y-104549761D01*
X130936846Y-104515260D01*
X130902472Y-104488162D01*
X130890183Y-104479621D01*
X130628064Y-104319937D01*
X130614825Y-104312927D01*
X130335421Y-104185889D01*
X130321439Y-104180522D01*
X130028784Y-104087968D01*
X130014281Y-104084325D01*
X129712623Y-104027598D01*
X129697765Y-104025721D01*
X129452625Y-104009654D01*
X129397397Y-103994856D01*
X129334500Y-104007881D01*
X129070037Y-104022435D01*
X129055176Y-104024155D01*
X128752946Y-104077718D01*
X128738389Y-104081213D01*
X128444791Y-104170695D01*
X128430749Y-104175917D01*
X128150021Y-104300026D01*
X128136723Y-104306890D01*
X128108163Y-104323882D01*
X128092661Y-104337840D01*
X128094366Y-104342656D01*
X128098042Y-104347382D01*
X130254590Y-106503930D01*
X130308566Y-106584712D01*
X130327520Y-106680000D01*
X130308566Y-106775288D01*
X130254590Y-106856070D01*
X128102544Y-109008116D01*
X128090282Y-109026468D01*
X128093456Y-109042424D01*
X128093455Y-109139579D01*
X128056275Y-109229338D01*
X127987576Y-109298037D01*
X127897816Y-109335216D01*
X127849240Y-109340000D01*
X125592112Y-109340000D01*
X125496824Y-109321046D01*
X125416042Y-109267070D01*
X125362066Y-109186288D01*
X125345255Y-109101773D01*
X125340292Y-109087277D01*
X125335870Y-109081530D01*
X124082341Y-107828001D01*
X124065000Y-107816414D01*
X124047659Y-107828001D01*
X122797544Y-109078116D01*
X122784710Y-109097323D01*
X122776306Y-109139576D01*
X122739127Y-109229336D01*
X122670428Y-109298035D01*
X122580669Y-109335215D01*
X122532090Y-109340000D01*
X116874386Y-109340000D01*
X116779098Y-109321046D01*
X116698316Y-109267070D01*
X116644340Y-109186288D01*
X116625386Y-109091000D01*
X116644340Y-108995712D01*
X116698316Y-108914930D01*
X117956593Y-107656653D01*
X117968486Y-107645515D01*
X118006334Y-107612324D01*
X118006338Y-107612320D01*
X118014915Y-107604798D01*
X118021980Y-107595837D01*
X118021983Y-107595833D01*
X118069534Y-107535515D01*
X118073615Y-107530474D01*
X118130006Y-107462671D01*
X118135587Y-107452704D01*
X118136222Y-107451781D01*
X118137243Y-107450395D01*
X118138387Y-107448684D01*
X118139263Y-107447233D01*
X118139891Y-107446266D01*
X118146958Y-107437302D01*
X118152273Y-107427201D01*
X118152277Y-107427194D01*
X118188029Y-107359241D01*
X118191138Y-107353514D01*
X118193396Y-107349482D01*
X118234223Y-107276580D01*
X118237892Y-107265769D01*
X118238350Y-107264741D01*
X118239091Y-107263214D01*
X118239916Y-107261293D01*
X118240519Y-107259690D01*
X118240945Y-107258661D01*
X118246267Y-107248547D01*
X118272424Y-107164308D01*
X118274435Y-107158116D01*
X118275235Y-107155760D01*
X118302780Y-107074614D01*
X118304418Y-107063320D01*
X118304684Y-107062211D01*
X118305142Y-107060546D01*
X118305588Y-107058572D01*
X118305888Y-107056895D01*
X118306130Y-107055758D01*
X118309515Y-107044855D01*
X118319888Y-106957210D01*
X118320729Y-106950818D01*
X118333385Y-106863536D01*
X118332519Y-106841474D01*
X118330203Y-106782543D01*
X118330011Y-106772768D01*
X118330011Y-106729474D01*
X121390640Y-106729474D01*
X121405901Y-107036034D01*
X121407544Y-107050915D01*
X121459524Y-107353428D01*
X121462941Y-107367993D01*
X121550886Y-107662060D01*
X121556032Y-107676122D01*
X121678672Y-107957505D01*
X121685462Y-107970830D01*
X121709334Y-108011437D01*
X121723207Y-108027008D01*
X121727716Y-108025438D01*
X121732952Y-108021388D01*
X122986999Y-106767341D01*
X122998586Y-106750000D01*
X125131414Y-106750000D01*
X125143001Y-106767341D01*
X126393371Y-108017711D01*
X126410432Y-108029110D01*
X126419872Y-108015715D01*
X126508154Y-107829375D01*
X126566081Y-107751378D01*
X126649446Y-107701485D01*
X126745559Y-107687292D01*
X126839787Y-107710960D01*
X126917784Y-107768887D01*
X126961439Y-107836496D01*
X126983668Y-107887497D01*
X126990462Y-107900830D01*
X127014334Y-107941437D01*
X127028207Y-107957008D01*
X127032716Y-107955438D01*
X127037952Y-107951388D01*
X128291999Y-106697341D01*
X128303586Y-106680000D01*
X128291999Y-106662659D01*
X127042432Y-105413092D01*
X127025091Y-105401505D01*
X127020008Y-105404902D01*
X127017474Y-105408107D01*
X127016555Y-105409597D01*
X127009476Y-105422799D01*
X126927784Y-105600005D01*
X126870678Y-105678606D01*
X126787840Y-105729369D01*
X126691881Y-105744568D01*
X126597411Y-105721888D01*
X126518810Y-105664782D01*
X126474449Y-105597633D01*
X126438551Y-105517569D01*
X126431628Y-105504328D01*
X126421619Y-105487702D01*
X126407581Y-105472276D01*
X126402460Y-105474120D01*
X126398242Y-105477418D01*
X125143001Y-106732659D01*
X125131414Y-106750000D01*
X122998586Y-106750000D01*
X122986999Y-106732659D01*
X121737432Y-105483092D01*
X121720091Y-105471505D01*
X121715008Y-105474902D01*
X121712474Y-105478107D01*
X121711555Y-105479597D01*
X121704479Y-105492793D01*
X121575977Y-105771539D01*
X121570541Y-105785480D01*
X121476450Y-106077661D01*
X121472734Y-106092132D01*
X121414426Y-106393507D01*
X121412475Y-106408332D01*
X121390796Y-106714512D01*
X121390640Y-106729474D01*
X118330011Y-106729474D01*
X118330011Y-105524873D01*
X118330544Y-105508587D01*
X118330823Y-105504328D01*
X118334584Y-105446951D01*
X118330577Y-105413092D01*
X118324218Y-105359373D01*
X118323536Y-105352888D01*
X118320642Y-105321389D01*
X118315467Y-105265070D01*
X118312368Y-105254082D01*
X118312161Y-105252964D01*
X118311904Y-105251271D01*
X118311503Y-105249254D01*
X118311097Y-105247611D01*
X118310857Y-105246480D01*
X118309515Y-105235145D01*
X118305679Y-105222792D01*
X118283358Y-105150905D01*
X118281506Y-105144654D01*
X118277793Y-105131487D01*
X118257573Y-105059792D01*
X118252521Y-105049548D01*
X118252112Y-105048482D01*
X118251548Y-105046855D01*
X118250799Y-105044978D01*
X118250089Y-105043410D01*
X118249652Y-105042356D01*
X118246267Y-105031453D01*
X118240953Y-105021353D01*
X118240949Y-105021343D01*
X118205200Y-104953396D01*
X118202241Y-104947590D01*
X118192479Y-104927795D01*
X118163239Y-104868503D01*
X118156403Y-104859350D01*
X118155827Y-104858409D01*
X118154966Y-104856895D01*
X118153874Y-104855164D01*
X118152905Y-104853774D01*
X118152273Y-104852801D01*
X118146958Y-104842698D01*
X118139866Y-104833701D01*
X118092335Y-104773408D01*
X118088369Y-104768239D01*
X118080555Y-104757775D01*
X118035625Y-104697607D01*
X118000874Y-104665483D01*
X117976122Y-104642603D01*
X117969073Y-104635827D01*
X117741086Y-104407840D01*
X122787661Y-104407840D01*
X122789366Y-104412656D01*
X122793042Y-104417382D01*
X124047659Y-105671999D01*
X124065000Y-105683586D01*
X124082341Y-105671999D01*
X125331412Y-104422928D01*
X125342999Y-104405587D01*
X125339790Y-104400784D01*
X125336072Y-104397862D01*
X125323062Y-104389936D01*
X125309829Y-104382929D01*
X125030421Y-104255889D01*
X125016439Y-104250522D01*
X124723784Y-104157968D01*
X124709281Y-104154325D01*
X124407623Y-104097598D01*
X124392765Y-104095721D01*
X124147625Y-104079654D01*
X124092397Y-104064856D01*
X124029500Y-104077881D01*
X123765037Y-104092435D01*
X123750176Y-104094155D01*
X123447946Y-104147718D01*
X123433389Y-104151213D01*
X123139791Y-104240695D01*
X123125749Y-104245917D01*
X122845021Y-104370026D01*
X122831723Y-104376890D01*
X122803163Y-104393882D01*
X122787661Y-104407840D01*
X117741086Y-104407840D01*
X117103429Y-103770183D01*
X117049453Y-103689401D01*
X117030499Y-103594113D01*
X117030499Y-103287206D01*
X117024210Y-103218749D01*
X116976403Y-103066199D01*
X116893588Y-102929455D01*
X116780545Y-102816412D01*
X116643801Y-102733597D01*
X116491251Y-102685790D01*
X116478097Y-102684581D01*
X116478095Y-102684581D01*
X116428468Y-102680021D01*
X116428462Y-102680021D01*
X116422795Y-102679500D01*
X115570225Y-102679500D01*
X114717206Y-102679501D01*
X114648749Y-102685790D01*
X114496199Y-102733597D01*
X114359455Y-102816412D01*
X114246412Y-102929455D01*
X114163597Y-103066199D01*
X114115790Y-103218749D01*
X114114581Y-103231903D01*
X114114581Y-103231905D01*
X114113845Y-103239921D01*
X114109500Y-103287205D01*
X114109501Y-104064856D01*
X114109501Y-104247166D01*
X114090547Y-104342454D01*
X114036571Y-104423235D01*
X113955789Y-104477212D01*
X113860501Y-104496166D01*
X113765213Y-104477212D01*
X113684431Y-104423236D01*
X112151372Y-102890177D01*
X112097396Y-102809395D01*
X112078442Y-102714107D01*
X112097396Y-102618819D01*
X112151372Y-102538037D01*
X112232154Y-102484061D01*
X112278867Y-102469891D01*
X112322637Y-102461185D01*
X112338332Y-102456980D01*
X112595990Y-102369516D01*
X112611025Y-102363289D01*
X112855053Y-102242947D01*
X112869132Y-102234819D01*
X113095369Y-102083651D01*
X113108278Y-102073746D01*
X113312835Y-101894354D01*
X113324354Y-101882835D01*
X113503746Y-101678278D01*
X113513651Y-101665369D01*
X113664819Y-101439132D01*
X113672947Y-101425053D01*
X113793289Y-101181025D01*
X113799517Y-101165990D01*
X113837796Y-101053222D01*
X113840518Y-101032545D01*
X113840453Y-101032507D01*
X113825265Y-101030000D01*
X111309000Y-101030000D01*
X111213712Y-101011046D01*
X111132930Y-100957070D01*
X111078954Y-100876288D01*
X111060000Y-100781000D01*
X111060000Y-99605473D01*
X112460000Y-99605473D01*
X112464069Y-99625931D01*
X112484527Y-99630000D01*
X113821152Y-99630000D01*
X113841610Y-99625931D01*
X113841625Y-99625856D01*
X113839117Y-99610670D01*
X113799517Y-99494010D01*
X113793289Y-99478975D01*
X113672947Y-99234947D01*
X113664819Y-99220868D01*
X113513651Y-98994631D01*
X113503746Y-98981722D01*
X113324354Y-98777165D01*
X113312835Y-98765646D01*
X113108278Y-98586254D01*
X113095369Y-98576349D01*
X112869132Y-98425181D01*
X112855053Y-98417053D01*
X112611025Y-98296711D01*
X112595990Y-98290483D01*
X112483222Y-98252204D01*
X112462545Y-98249482D01*
X112462507Y-98249547D01*
X112460000Y-98264735D01*
X112460000Y-99605473D01*
X111060000Y-99605473D01*
X111060000Y-98268848D01*
X111055931Y-98248390D01*
X111055856Y-98248375D01*
X111040670Y-98250883D01*
X110924010Y-98290483D01*
X110908975Y-98296711D01*
X110664947Y-98417053D01*
X110650868Y-98425181D01*
X110424631Y-98576349D01*
X110411722Y-98586254D01*
X110207165Y-98765646D01*
X110193594Y-98779217D01*
X110112812Y-98833193D01*
X110017524Y-98852147D01*
X109922236Y-98833193D01*
X109841454Y-98779217D01*
X109787478Y-98698435D01*
X109780853Y-98680527D01*
X109742227Y-98562350D01*
X109730640Y-98465890D01*
X109756849Y-98372337D01*
X109814728Y-98297787D01*
X109988698Y-98145218D01*
X110000210Y-98133706D01*
X110188257Y-97919281D01*
X110198155Y-97906380D01*
X110356607Y-97669241D01*
X110364735Y-97655161D01*
X110490875Y-97399375D01*
X110497102Y-97384341D01*
X110531427Y-97283222D01*
X110534149Y-97262545D01*
X110534084Y-97262507D01*
X110518896Y-97260000D01*
X105415217Y-97260000D01*
X105394759Y-97264069D01*
X105394744Y-97264144D01*
X105397252Y-97279330D01*
X105432898Y-97384341D01*
X105439125Y-97399375D01*
X105565265Y-97655161D01*
X105573395Y-97669242D01*
X105731836Y-97906368D01*
X105741750Y-97919289D01*
X105929790Y-98133706D01*
X105941301Y-98145217D01*
X106115563Y-98298041D01*
X106174707Y-98375119D01*
X106199853Y-98468964D01*
X106186103Y-98568368D01*
X106151527Y-98666006D01*
X106151525Y-98666013D01*
X106148115Y-98675643D01*
X106105999Y-98912084D01*
X106105874Y-98922305D01*
X106105874Y-98922306D01*
X106105148Y-98981722D01*
X106103065Y-99152228D01*
X106139392Y-99389628D01*
X106142567Y-99399342D01*
X106142568Y-99399346D01*
X106166326Y-99472033D01*
X106214005Y-99617906D01*
X106324900Y-99830933D01*
X106331037Y-99839106D01*
X106331039Y-99839110D01*
X106371952Y-99893601D01*
X106392789Y-99921352D01*
X106396334Y-99926074D01*
X106438390Y-100013655D01*
X106443729Y-100110663D01*
X106411538Y-100202330D01*
X106356342Y-100265269D01*
X106354455Y-100266412D01*
X106241412Y-100379455D01*
X106158597Y-100516199D01*
X106110790Y-100668749D01*
X106109581Y-100681903D01*
X106109581Y-100681905D01*
X106107950Y-100699661D01*
X106104500Y-100737205D01*
X106104501Y-101515891D01*
X106104501Y-102085980D01*
X106085547Y-102181268D01*
X106031571Y-102262049D01*
X105950789Y-102316026D01*
X105855501Y-102334980D01*
X102834315Y-102334980D01*
X102739027Y-102316026D01*
X102658245Y-102262050D01*
X102277230Y-101881035D01*
X102223254Y-101800253D01*
X102204319Y-101701924D01*
X102206810Y-101497999D01*
X102206935Y-101487772D01*
X102170608Y-101250372D01*
X102164903Y-101232916D01*
X102099172Y-101031814D01*
X102095995Y-101022094D01*
X101985100Y-100809067D01*
X101948046Y-100759715D01*
X101847036Y-100625182D01*
X101847032Y-100625178D01*
X101840902Y-100617013D01*
X101717972Y-100499539D01*
X101662176Y-100420003D01*
X101641065Y-100325170D01*
X101657852Y-100229476D01*
X101709982Y-100147491D01*
X101722411Y-100135362D01*
X101816803Y-100049472D01*
X101868910Y-99983493D01*
X101959319Y-99869015D01*
X101959321Y-99869012D01*
X101965650Y-99860998D01*
X102081717Y-99650744D01*
X102090531Y-99625856D01*
X102158475Y-99433987D01*
X102158475Y-99433985D01*
X102161885Y-99424357D01*
X102204001Y-99187916D01*
X102206935Y-98947772D01*
X102170608Y-98710372D01*
X102166707Y-98698435D01*
X102099172Y-98491814D01*
X102095995Y-98482094D01*
X101999491Y-98296711D01*
X101989819Y-98278132D01*
X101985100Y-98269067D01*
X101896666Y-98151284D01*
X101847036Y-98085182D01*
X101847032Y-98085178D01*
X101840902Y-98077013D01*
X101717972Y-97959539D01*
X101662176Y-97880003D01*
X101641065Y-97785170D01*
X101657852Y-97689476D01*
X101709982Y-97607491D01*
X101722411Y-97595362D01*
X101816803Y-97509472D01*
X101877071Y-97433159D01*
X101959319Y-97329015D01*
X101959321Y-97329012D01*
X101965650Y-97320998D01*
X102081717Y-97110744D01*
X102088043Y-97092882D01*
X102158475Y-96893987D01*
X102158475Y-96893985D01*
X102161885Y-96884357D01*
X102204001Y-96647916D01*
X102206935Y-96407772D01*
X102170608Y-96170372D01*
X102166899Y-96159022D01*
X102099172Y-95951814D01*
X102095995Y-95942094D01*
X101999085Y-95755931D01*
X101989819Y-95738132D01*
X101985100Y-95729067D01*
X101928383Y-95653527D01*
X101847036Y-95545182D01*
X101847032Y-95545178D01*
X101840902Y-95537013D01*
X101812362Y-95509740D01*
X101756567Y-95430206D01*
X101735455Y-95335372D01*
X101752242Y-95239678D01*
X101804371Y-95157693D01*
X101883906Y-95101897D01*
X101910553Y-95091921D01*
X101936556Y-95083847D01*
X101942806Y-95081995D01*
X101951348Y-95079586D01*
X102027668Y-95058062D01*
X102037912Y-95053010D01*
X102038978Y-95052601D01*
X102040605Y-95052037D01*
X102042482Y-95051288D01*
X102044050Y-95050578D01*
X102045104Y-95050141D01*
X102056007Y-95046756D01*
X102066107Y-95041442D01*
X102066117Y-95041438D01*
X102134064Y-95005689D01*
X102139870Y-95002730D01*
X102176011Y-94984907D01*
X102218957Y-94963728D01*
X102228110Y-94956892D01*
X102229051Y-94956316D01*
X102230565Y-94955455D01*
X102232296Y-94954363D01*
X102233686Y-94953394D01*
X102234659Y-94952762D01*
X102244762Y-94947447D01*
X102253728Y-94940379D01*
X102253731Y-94940377D01*
X102314052Y-94892824D01*
X102319221Y-94888858D01*
X102358703Y-94859375D01*
X102389853Y-94836114D01*
X102444858Y-94776610D01*
X102451633Y-94769562D01*
X102497051Y-94724144D01*
X105394744Y-94724144D01*
X105397252Y-94739330D01*
X105432898Y-94844341D01*
X105439125Y-94859375D01*
X105565262Y-95115155D01*
X105565463Y-95115503D01*
X105565528Y-95115693D01*
X105568868Y-95122467D01*
X105567976Y-95122907D01*
X105596691Y-95207502D01*
X105590336Y-95304449D01*
X105568435Y-95357318D01*
X105568868Y-95357532D01*
X105565609Y-95364140D01*
X105565456Y-95364510D01*
X105565256Y-95364856D01*
X105439125Y-95620625D01*
X105432898Y-95635659D01*
X105398573Y-95736778D01*
X105395851Y-95757455D01*
X105395916Y-95757493D01*
X105411104Y-95760000D01*
X107190473Y-95760000D01*
X107210931Y-95755931D01*
X107215000Y-95735473D01*
X108715000Y-95735473D01*
X108719069Y-95755931D01*
X108739527Y-95760000D01*
X110514783Y-95760000D01*
X110535241Y-95755931D01*
X110535256Y-95755856D01*
X110532748Y-95740670D01*
X110497102Y-95635659D01*
X110490875Y-95620625D01*
X110364738Y-95364845D01*
X110364537Y-95364497D01*
X110364472Y-95364307D01*
X110361132Y-95357533D01*
X110362024Y-95357093D01*
X110333309Y-95272498D01*
X110339664Y-95175551D01*
X110361565Y-95122682D01*
X110361132Y-95122468D01*
X110364391Y-95115860D01*
X110364544Y-95115490D01*
X110364744Y-95115144D01*
X110490875Y-94859375D01*
X110497102Y-94844341D01*
X110531427Y-94743222D01*
X110534149Y-94722545D01*
X110534084Y-94722507D01*
X110518896Y-94720000D01*
X108739527Y-94720000D01*
X108719069Y-94724069D01*
X108715000Y-94744527D01*
X108715000Y-95735473D01*
X107215000Y-95735473D01*
X107215000Y-94744527D01*
X107210931Y-94724069D01*
X107190473Y-94720000D01*
X105415217Y-94720000D01*
X105394759Y-94724069D01*
X105394744Y-94724144D01*
X102497051Y-94724144D01*
X103912765Y-93308430D01*
X103993547Y-93254454D01*
X104088835Y-93235500D01*
X105997587Y-93235500D01*
X106013872Y-93236033D01*
X106075509Y-93240073D01*
X106086846Y-93238731D01*
X106086849Y-93238731D01*
X106163087Y-93229707D01*
X106169572Y-93229025D01*
X106256432Y-93221044D01*
X106279215Y-93220000D01*
X110514783Y-93220000D01*
X110535241Y-93215931D01*
X110535256Y-93215856D01*
X110532748Y-93200670D01*
X110497102Y-93095659D01*
X110490875Y-93080625D01*
X110364735Y-92824839D01*
X110356605Y-92810758D01*
X110198164Y-92573632D01*
X110188250Y-92560711D01*
X110000210Y-92346294D01*
X109988706Y-92334790D01*
X109774289Y-92146750D01*
X109761368Y-92136836D01*
X109524242Y-91978395D01*
X109510161Y-91970265D01*
X109254376Y-91844126D01*
X109239341Y-91837898D01*
X108969270Y-91746221D01*
X108953569Y-91742014D01*
X108842621Y-91719945D01*
X108752861Y-91682766D01*
X108684163Y-91614066D01*
X108646983Y-91524307D01*
X108646984Y-91427152D01*
X108684163Y-91337392D01*
X108746605Y-91273015D01*
X108822833Y-91218643D01*
X108822840Y-91218637D01*
X108831155Y-91212706D01*
X108989624Y-91054789D01*
X109120173Y-90873111D01*
X109201775Y-90708001D01*
X109214765Y-90681718D01*
X109214767Y-90681713D01*
X109219296Y-90672550D01*
X109284332Y-90458493D01*
X109313533Y-90236688D01*
X109315163Y-90170000D01*
X109313059Y-90144402D01*
X109297669Y-89957214D01*
X109296832Y-89947033D01*
X109288584Y-89914194D01*
X109257280Y-89789571D01*
X109242331Y-89730055D01*
X109237207Y-89718269D01*
X109157198Y-89534262D01*
X109157196Y-89534258D01*
X109153123Y-89524891D01*
X109147576Y-89516317D01*
X109147573Y-89516311D01*
X109057853Y-89377625D01*
X109022010Y-89287324D01*
X109023451Y-89190179D01*
X109061958Y-89100981D01*
X109131669Y-89033309D01*
X109221970Y-88997466D01*
X109261543Y-88994595D01*
X109261509Y-88993847D01*
X109271718Y-88993384D01*
X109281928Y-88993758D01*
X109292058Y-88992460D01*
X109292064Y-88992460D01*
X109392880Y-88979545D01*
X109503833Y-88965331D01*
X109513617Y-88962396D01*
X109513620Y-88962395D01*
X109708327Y-88903980D01*
X109708329Y-88903979D01*
X109718116Y-88901043D01*
X109727291Y-88896548D01*
X109727294Y-88896547D01*
X109838633Y-88842002D01*
X109919022Y-88802620D01*
X110101155Y-88672706D01*
X110259624Y-88514789D01*
X110390173Y-88333111D01*
X110489296Y-88132550D01*
X110554332Y-87918493D01*
X110583533Y-87696688D01*
X110585163Y-87630000D01*
X110584495Y-87621868D01*
X110567669Y-87417214D01*
X110566832Y-87407033D01*
X110553492Y-87353922D01*
X110514819Y-87199962D01*
X110512331Y-87190055D01*
X110497532Y-87156018D01*
X110427198Y-86994262D01*
X110427196Y-86994258D01*
X110423123Y-86984891D01*
X110417576Y-86976317D01*
X110417573Y-86976311D01*
X110307153Y-86805628D01*
X110301605Y-86797052D01*
X110151039Y-86631583D01*
X109975470Y-86492927D01*
X109779612Y-86384807D01*
X109771788Y-86382036D01*
X109693302Y-86326156D01*
X109641746Y-86243809D01*
X109625627Y-86148000D01*
X109647399Y-86053316D01*
X109703748Y-85974172D01*
X109737992Y-85947152D01*
X109847002Y-85875682D01*
X109847005Y-85875680D01*
X109854730Y-85870615D01*
X109865052Y-85861403D01*
X110043054Y-85702530D01*
X110049949Y-85696376D01*
X110217270Y-85495194D01*
X110305258Y-85350195D01*
X110348227Y-85279385D01*
X110348230Y-85279379D01*
X110353016Y-85271492D01*
X110360052Y-85254715D01*
X110421720Y-85107651D01*
X110454206Y-85030181D01*
X110518616Y-84776565D01*
X110521031Y-84752586D01*
X110539873Y-84565464D01*
X110539873Y-84565459D01*
X110540500Y-84559235D01*
X110540500Y-83908283D01*
X110559454Y-83812995D01*
X110613430Y-83732213D01*
X110694212Y-83678237D01*
X110789500Y-83659283D01*
X110884788Y-83678237D01*
X110965570Y-83732213D01*
X111002487Y-83779296D01*
X111011046Y-83793428D01*
X111021412Y-83810545D01*
X111134455Y-83923588D01*
X111271199Y-84006403D01*
X111423749Y-84054210D01*
X111436903Y-84055419D01*
X111436905Y-84055419D01*
X111486532Y-84059979D01*
X111486538Y-84059979D01*
X111492205Y-84060500D01*
X111528674Y-84060500D01*
X113021188Y-84060499D01*
X113116475Y-84079453D01*
X113197256Y-84133429D01*
X113208395Y-84145322D01*
X113264352Y-84209129D01*
X113275871Y-84220648D01*
X113495210Y-84413004D01*
X113508120Y-84422909D01*
X113750707Y-84585001D01*
X113764786Y-84593129D01*
X114026451Y-84722168D01*
X114041487Y-84728396D01*
X114161773Y-84769229D01*
X114182455Y-84771952D01*
X114182491Y-84771889D01*
X114185000Y-84756696D01*
X114185000Y-82049000D01*
X114203954Y-81953712D01*
X114257930Y-81872930D01*
X114338712Y-81818954D01*
X114434000Y-81800000D01*
X115436000Y-81800000D01*
X115531288Y-81818954D01*
X115612070Y-81872930D01*
X115666046Y-81953712D01*
X115685000Y-82049000D01*
X115685000Y-84752586D01*
X115689069Y-84773044D01*
X115689142Y-84773058D01*
X115704335Y-84770550D01*
X115828513Y-84728396D01*
X115843549Y-84722168D01*
X116105214Y-84593129D01*
X116119293Y-84585001D01*
X116361880Y-84422909D01*
X116374790Y-84413004D01*
X116594129Y-84220648D01*
X116605648Y-84209129D01*
X116798004Y-83989790D01*
X116807909Y-83976880D01*
X116859743Y-83899306D01*
X116928442Y-83830607D01*
X117018202Y-83793427D01*
X117115357Y-83793428D01*
X117205116Y-83830607D01*
X117273815Y-83899306D01*
X117298849Y-83947395D01*
X117347779Y-84073217D01*
X117381543Y-84160040D01*
X117386129Y-84168064D01*
X117386130Y-84168066D01*
X117434410Y-84252539D01*
X117511386Y-84387220D01*
X117517100Y-84394469D01*
X117517104Y-84394474D01*
X117546920Y-84432295D01*
X117673383Y-84592712D01*
X117863974Y-84772002D01*
X117871562Y-84777266D01*
X117871567Y-84777270D01*
X117967104Y-84843546D01*
X118078973Y-84921152D01*
X118133322Y-84947954D01*
X118300062Y-85030181D01*
X118313656Y-85036885D01*
X118374065Y-85056222D01*
X118554069Y-85113842D01*
X118554072Y-85113843D01*
X118562867Y-85116658D01*
X118688998Y-85137200D01*
X118812017Y-85157235D01*
X118812023Y-85157236D01*
X118821132Y-85158719D01*
X118830362Y-85158840D01*
X118830364Y-85158840D01*
X119005034Y-85161126D01*
X119082777Y-85162144D01*
X119164111Y-85151075D01*
X119332909Y-85128103D01*
X119332913Y-85128102D01*
X119342055Y-85126858D01*
X119593269Y-85053636D01*
X119601654Y-85049771D01*
X119601658Y-85049769D01*
X119822511Y-84947954D01*
X119822513Y-84947953D01*
X119830901Y-84944086D01*
X119987410Y-84841474D01*
X120042002Y-84805682D01*
X120042005Y-84805680D01*
X120049730Y-84800615D01*
X120081789Y-84772002D01*
X120238054Y-84632530D01*
X120244949Y-84626376D01*
X120412270Y-84425194D01*
X120469052Y-84331620D01*
X120543227Y-84209385D01*
X120543230Y-84209379D01*
X120548016Y-84201492D01*
X120588568Y-84104787D01*
X120625365Y-84017036D01*
X120679694Y-83936491D01*
X120760710Y-83882868D01*
X120856080Y-83864330D01*
X120951285Y-83883700D01*
X121031063Y-83937258D01*
X122141570Y-85047765D01*
X122195546Y-85128547D01*
X122214500Y-85223835D01*
X122214500Y-87154902D01*
X122195546Y-87250190D01*
X122141570Y-87330972D01*
X122060788Y-87384948D01*
X122020465Y-87397759D01*
X121958836Y-87411704D01*
X121714960Y-87506543D01*
X121487780Y-87636386D01*
X121480531Y-87642100D01*
X121480526Y-87642104D01*
X121411287Y-87696688D01*
X121282288Y-87798383D01*
X121102998Y-87988974D01*
X121097734Y-87996562D01*
X121097730Y-87996567D01*
X121044618Y-88073128D01*
X120953848Y-88203973D01*
X120838115Y-88438656D01*
X120758342Y-88687867D01*
X120744965Y-88770004D01*
X120717925Y-88936038D01*
X120716281Y-88946132D01*
X120716160Y-88955362D01*
X120716160Y-88955364D01*
X120714458Y-89085419D01*
X120712856Y-89207777D01*
X120730480Y-89337277D01*
X120745294Y-89446126D01*
X120748142Y-89467055D01*
X120821364Y-89718269D01*
X120825229Y-89726654D01*
X120825231Y-89726658D01*
X120854844Y-89790893D01*
X120877524Y-89885364D01*
X120862326Y-89981322D01*
X120811562Y-90064161D01*
X120732962Y-90121267D01*
X120718964Y-90127209D01*
X120537324Y-90197846D01*
X120514960Y-90206543D01*
X120506936Y-90211129D01*
X120506934Y-90211130D01*
X120473792Y-90230072D01*
X120287780Y-90336386D01*
X120280531Y-90342100D01*
X120280526Y-90342104D01*
X120213572Y-90394887D01*
X120082288Y-90498383D01*
X120075957Y-90505113D01*
X120023279Y-90561111D01*
X119944183Y-90617529D01*
X119841915Y-90639500D01*
X119702413Y-90639500D01*
X119686127Y-90638967D01*
X119624491Y-90634927D01*
X119613154Y-90636269D01*
X119613151Y-90636269D01*
X119536913Y-90645293D01*
X119530430Y-90645975D01*
X119442610Y-90654044D01*
X119431622Y-90657143D01*
X119430504Y-90657350D01*
X119428811Y-90657607D01*
X119426794Y-90658008D01*
X119425151Y-90658414D01*
X119424020Y-90658654D01*
X119412685Y-90659996D01*
X119401785Y-90663381D01*
X119401783Y-90663381D01*
X119328445Y-90686153D01*
X119322197Y-90688004D01*
X119237332Y-90711938D01*
X119227088Y-90716990D01*
X119226022Y-90717399D01*
X119224395Y-90717963D01*
X119222518Y-90718712D01*
X119220950Y-90719422D01*
X119219896Y-90719859D01*
X119208993Y-90723244D01*
X119198893Y-90728558D01*
X119198883Y-90728562D01*
X119130936Y-90764311D01*
X119125130Y-90767270D01*
X119046043Y-90806272D01*
X119036890Y-90813108D01*
X119035949Y-90813684D01*
X119034435Y-90814545D01*
X119032704Y-90815637D01*
X119031314Y-90816606D01*
X119030341Y-90817238D01*
X119020238Y-90822553D01*
X119011272Y-90829621D01*
X119011269Y-90829623D01*
X118950948Y-90877176D01*
X118945780Y-90881141D01*
X118875147Y-90933886D01*
X118867394Y-90942273D01*
X118867393Y-90942274D01*
X118820143Y-90993389D01*
X118813367Y-91000438D01*
X118052918Y-91760887D01*
X118041025Y-91772025D01*
X118003177Y-91805216D01*
X118003173Y-91805220D01*
X117994596Y-91812742D01*
X117959942Y-91856701D01*
X117939983Y-91882019D01*
X117935907Y-91887052D01*
X117879504Y-91954869D01*
X117879241Y-91954649D01*
X117859792Y-91978035D01*
X117155570Y-92682257D01*
X117074788Y-92736233D01*
X116979500Y-92755187D01*
X116884212Y-92736233D01*
X116803430Y-92682257D01*
X116749454Y-92601475D01*
X116730500Y-92506187D01*
X116730500Y-90950855D01*
X116749454Y-90855567D01*
X116756275Y-90840531D01*
X116834765Y-90681718D01*
X116834767Y-90681713D01*
X116839296Y-90672550D01*
X116904332Y-90458493D01*
X116933533Y-90236688D01*
X116935163Y-90170000D01*
X116933059Y-90144402D01*
X116917669Y-89957214D01*
X116916832Y-89947033D01*
X116908584Y-89914194D01*
X116877280Y-89789571D01*
X116862331Y-89730055D01*
X116857207Y-89718269D01*
X116777198Y-89534262D01*
X116777196Y-89534258D01*
X116773123Y-89524891D01*
X116767576Y-89516317D01*
X116767573Y-89516311D01*
X116657153Y-89345628D01*
X116651605Y-89337052D01*
X116501039Y-89171583D01*
X116325470Y-89032927D01*
X116129612Y-88924807D01*
X116119989Y-88921399D01*
X116119986Y-88921398D01*
X115928353Y-88853537D01*
X115928348Y-88853536D01*
X115918725Y-88850128D01*
X115908665Y-88848336D01*
X115708540Y-88812689D01*
X115708538Y-88812689D01*
X115698473Y-88810896D01*
X115688250Y-88810771D01*
X115688249Y-88810771D01*
X115571130Y-88809340D01*
X115474771Y-88808162D01*
X115464670Y-88809708D01*
X115464665Y-88809708D01*
X115316669Y-88832355D01*
X115253626Y-88842002D01*
X115243910Y-88845178D01*
X115243909Y-88845178D01*
X115146701Y-88876951D01*
X115040978Y-88911507D01*
X114842537Y-89014808D01*
X114663632Y-89149134D01*
X114656569Y-89156525D01*
X114542560Y-89275829D01*
X114509069Y-89310875D01*
X114382998Y-89495689D01*
X114378702Y-89504943D01*
X114378699Y-89504949D01*
X114316878Y-89638132D01*
X114288804Y-89698612D01*
X114283353Y-89718269D01*
X114236964Y-89885543D01*
X114229018Y-89914194D01*
X114227932Y-89924355D01*
X114227931Y-89924361D01*
X114206331Y-90126479D01*
X114206331Y-90126485D01*
X114205245Y-90136646D01*
X114218123Y-90359994D01*
X114240320Y-90458493D01*
X114262722Y-90557896D01*
X114267306Y-90578239D01*
X114271150Y-90587705D01*
X114271151Y-90587709D01*
X114294534Y-90645293D01*
X114351475Y-90785521D01*
X114369261Y-90814545D01*
X114372808Y-90820333D01*
X114406435Y-90911483D01*
X114409500Y-90950434D01*
X114409500Y-92126165D01*
X114390546Y-92221453D01*
X114336570Y-92302235D01*
X114192234Y-92446571D01*
X114111452Y-92500547D01*
X114016164Y-92519501D01*
X113447206Y-92519501D01*
X113378749Y-92525790D01*
X113226199Y-92573597D01*
X113089455Y-92656412D01*
X112976412Y-92769455D01*
X112893597Y-92906199D01*
X112845790Y-93058749D01*
X112844581Y-93071903D01*
X112844581Y-93071905D01*
X112841352Y-93107053D01*
X112839500Y-93127205D01*
X112839501Y-94832794D01*
X112845790Y-94901251D01*
X112893597Y-95053801D01*
X112901370Y-95066636D01*
X112901372Y-95066640D01*
X112952847Y-95151636D01*
X112985996Y-95242961D01*
X112981673Y-95340020D01*
X112965715Y-95385461D01*
X112928935Y-95464697D01*
X112928933Y-95464703D01*
X112924634Y-95473964D01*
X112921907Y-95483799D01*
X112921905Y-95483803D01*
X112868343Y-95676941D01*
X112860453Y-95705392D01*
X112857238Y-95735473D01*
X112836126Y-95933027D01*
X112834932Y-95944195D01*
X112848757Y-96183959D01*
X112851004Y-96193928D01*
X112851004Y-96193931D01*
X112899196Y-96407772D01*
X112901556Y-96418246D01*
X112991911Y-96640763D01*
X112997254Y-96649482D01*
X113084334Y-96791583D01*
X113117396Y-96845536D01*
X113124085Y-96853258D01*
X113264788Y-97015689D01*
X113274640Y-97027063D01*
X113355082Y-97093847D01*
X113416565Y-97144891D01*
X113459421Y-97180471D01*
X113666776Y-97301640D01*
X113676316Y-97305283D01*
X113881588Y-97383669D01*
X113881592Y-97383670D01*
X113891137Y-97387315D01*
X114002750Y-97410023D01*
X114116465Y-97433159D01*
X114116467Y-97433159D01*
X114126478Y-97435196D01*
X114226360Y-97438858D01*
X114356267Y-97443622D01*
X114356273Y-97443622D01*
X114366480Y-97443996D01*
X114376611Y-97442698D01*
X114376616Y-97442698D01*
X114503951Y-97426386D01*
X114604696Y-97413480D01*
X114614478Y-97410545D01*
X114614484Y-97410544D01*
X114824940Y-97347404D01*
X114824942Y-97347403D01*
X114834729Y-97344467D01*
X114843904Y-97339972D01*
X114843907Y-97339971D01*
X114967690Y-97279330D01*
X115050401Y-97238810D01*
X115060655Y-97231496D01*
X115123339Y-97186785D01*
X115211921Y-97146882D01*
X115267933Y-97140500D01*
X115451609Y-97140500D01*
X115467894Y-97141033D01*
X115529531Y-97145073D01*
X115540868Y-97143731D01*
X115540871Y-97143731D01*
X115617109Y-97134707D01*
X115623594Y-97134025D01*
X115711412Y-97125956D01*
X115722400Y-97122857D01*
X115723518Y-97122650D01*
X115725211Y-97122393D01*
X115727228Y-97121992D01*
X115728871Y-97121586D01*
X115730002Y-97121346D01*
X115741337Y-97120004D01*
X115752237Y-97116619D01*
X115752239Y-97116619D01*
X115825577Y-97093847D01*
X115831828Y-97091995D01*
X115849635Y-97086973D01*
X115916690Y-97068062D01*
X115926934Y-97063010D01*
X115928000Y-97062601D01*
X115929627Y-97062037D01*
X115931504Y-97061288D01*
X115933072Y-97060578D01*
X115934126Y-97060141D01*
X115945029Y-97056756D01*
X115955129Y-97051442D01*
X115955139Y-97051438D01*
X116023086Y-97015689D01*
X116028892Y-97012730D01*
X116089666Y-96982759D01*
X116107979Y-96973728D01*
X116117132Y-96966892D01*
X116118073Y-96966316D01*
X116119587Y-96965455D01*
X116121318Y-96964363D01*
X116122708Y-96963394D01*
X116123681Y-96962762D01*
X116133784Y-96957447D01*
X116142750Y-96950379D01*
X116142753Y-96950377D01*
X116203074Y-96902824D01*
X116208243Y-96898858D01*
X116269308Y-96853258D01*
X116278875Y-96846114D01*
X116333880Y-96786610D01*
X116340655Y-96779562D01*
X119627082Y-93493135D01*
X119638975Y-93481997D01*
X119676823Y-93448806D01*
X119676827Y-93448802D01*
X119685404Y-93441280D01*
X119692469Y-93432319D01*
X119692472Y-93432315D01*
X119740023Y-93371997D01*
X119744104Y-93366956D01*
X119800495Y-93299153D01*
X119800758Y-93299373D01*
X119820206Y-93275989D01*
X119875774Y-93220421D01*
X119956556Y-93166445D01*
X120051844Y-93147491D01*
X120147132Y-93166445D01*
X120211063Y-93205048D01*
X120230296Y-93221044D01*
X120249806Y-93237270D01*
X120300772Y-93268197D01*
X120465615Y-93368227D01*
X120465621Y-93368230D01*
X120473508Y-93373016D01*
X120482019Y-93376585D01*
X120482023Y-93376587D01*
X120614920Y-93432315D01*
X120714819Y-93474206D01*
X120723773Y-93476480D01*
X120723776Y-93476481D01*
X120778327Y-93490335D01*
X120968435Y-93538616D01*
X120977626Y-93539542D01*
X120977629Y-93539542D01*
X121179536Y-93559873D01*
X121179541Y-93559873D01*
X121185765Y-93560500D01*
X123141435Y-93560500D01*
X123146044Y-93560157D01*
X123146057Y-93560157D01*
X123283239Y-93549962D01*
X123335948Y-93546045D01*
X123344961Y-93544006D01*
X123344965Y-93544005D01*
X123582153Y-93490335D01*
X123591164Y-93488296D01*
X123741003Y-93430026D01*
X123826426Y-93396807D01*
X123826428Y-93396806D01*
X123835040Y-93393457D01*
X123877384Y-93369256D01*
X124054201Y-93268197D01*
X124062220Y-93263614D01*
X124069469Y-93257900D01*
X124069474Y-93257896D01*
X124189769Y-93163062D01*
X124267712Y-93101617D01*
X124313967Y-93052447D01*
X124440671Y-92917756D01*
X124447002Y-92911026D01*
X124452266Y-92903438D01*
X124452270Y-92903433D01*
X124573452Y-92728749D01*
X124596152Y-92696027D01*
X124662883Y-92560711D01*
X124707799Y-92469630D01*
X124707800Y-92469628D01*
X124711885Y-92461344D01*
X124779194Y-92251070D01*
X124788842Y-92220931D01*
X124788843Y-92220928D01*
X124791658Y-92212133D01*
X124813332Y-92079052D01*
X124832235Y-91962983D01*
X124832236Y-91962977D01*
X124833719Y-91953868D01*
X124834361Y-91904870D01*
X124837023Y-91701462D01*
X124837144Y-91692223D01*
X124824755Y-91601189D01*
X124803103Y-91442091D01*
X124803102Y-91442087D01*
X124801858Y-91432945D01*
X124728636Y-91181731D01*
X124695156Y-91109107D01*
X124672476Y-91014636D01*
X124687674Y-90918678D01*
X124738438Y-90835839D01*
X124817038Y-90778733D01*
X124831036Y-90772791D01*
X125026426Y-90696807D01*
X125026428Y-90696806D01*
X125035040Y-90693457D01*
X125047820Y-90686153D01*
X125167562Y-90617715D01*
X125262220Y-90563614D01*
X125269469Y-90557900D01*
X125269474Y-90557896D01*
X125408421Y-90448358D01*
X125467712Y-90401617D01*
X125647002Y-90211026D01*
X125652266Y-90203438D01*
X125652270Y-90203433D01*
X125790882Y-90003623D01*
X125796152Y-89996027D01*
X125866230Y-89853923D01*
X125907799Y-89769630D01*
X125907800Y-89769628D01*
X125911885Y-89761344D01*
X125959479Y-89612659D01*
X125988842Y-89520931D01*
X125988843Y-89520928D01*
X125991658Y-89512133D01*
X126021402Y-89329498D01*
X126032235Y-89262983D01*
X126032236Y-89262977D01*
X126033719Y-89253868D01*
X126037144Y-88992223D01*
X126017422Y-88847308D01*
X126003103Y-88742091D01*
X126003102Y-88742087D01*
X126001858Y-88732945D01*
X125928636Y-88481731D01*
X125904959Y-88430370D01*
X125822954Y-88252489D01*
X125822953Y-88252487D01*
X125819086Y-88244099D01*
X125706992Y-88073128D01*
X125680682Y-88032998D01*
X125680680Y-88032995D01*
X125675615Y-88025270D01*
X125614098Y-87956345D01*
X125507530Y-87836946D01*
X125501376Y-87830051D01*
X125300194Y-87662730D01*
X125171386Y-87584567D01*
X125158895Y-87576987D01*
X127575000Y-87576987D01*
X127575231Y-87584567D01*
X127589012Y-87809875D01*
X127590862Y-87824943D01*
X127646052Y-88122718D01*
X127649721Y-88137435D01*
X127740794Y-88426284D01*
X127746230Y-88440443D01*
X127871821Y-88716027D01*
X127878944Y-88729425D01*
X128037184Y-88987650D01*
X128045895Y-89000089D01*
X128234416Y-89237092D01*
X128244579Y-89248379D01*
X128460576Y-89460639D01*
X128472039Y-89470604D01*
X128712302Y-89654964D01*
X128724891Y-89663456D01*
X128985825Y-89817156D01*
X128999358Y-89824052D01*
X129277086Y-89944813D01*
X129291349Y-89950004D01*
X129401487Y-89982628D01*
X129422254Y-89984536D01*
X129423463Y-89982239D01*
X129425000Y-89971636D01*
X129425000Y-87374527D01*
X129420931Y-87354069D01*
X129400473Y-87350000D01*
X127599527Y-87350000D01*
X127579069Y-87354069D01*
X127575000Y-87374527D01*
X127575000Y-87576987D01*
X125158895Y-87576987D01*
X125084385Y-87531773D01*
X125084379Y-87531770D01*
X125076492Y-87526984D01*
X125067981Y-87523415D01*
X125067977Y-87523413D01*
X124843706Y-87429369D01*
X124835181Y-87425794D01*
X124826231Y-87423521D01*
X124826222Y-87423518D01*
X124724808Y-87397763D01*
X124723208Y-87397357D01*
X124635518Y-87355531D01*
X124570508Y-87283331D01*
X124538077Y-87191749D01*
X124535500Y-87156018D01*
X124535500Y-85483835D01*
X124554454Y-85388547D01*
X124608430Y-85307765D01*
X126082765Y-83833430D01*
X126163547Y-83779454D01*
X126258835Y-83760500D01*
X126563545Y-83760500D01*
X127881639Y-83760499D01*
X127976926Y-83779453D01*
X128057707Y-83833429D01*
X128111684Y-83914211D01*
X128130638Y-84009499D01*
X128111684Y-84104787D01*
X128081799Y-84157609D01*
X127994839Y-84275129D01*
X127986569Y-84287865D01*
X127837441Y-84551448D01*
X127830783Y-84565099D01*
X127714890Y-84844889D01*
X127709949Y-84859239D01*
X127629015Y-85151075D01*
X127625859Y-85165923D01*
X127580937Y-85466508D01*
X127579687Y-85479485D01*
X127575119Y-85584112D01*
X127575000Y-85589565D01*
X127575000Y-85825473D01*
X127579069Y-85845931D01*
X127599527Y-85850000D01*
X129400473Y-85850000D01*
X129420931Y-85845931D01*
X129425000Y-85825473D01*
X129425000Y-83233707D01*
X129420931Y-83213249D01*
X129420581Y-83213180D01*
X129405901Y-83215571D01*
X129263509Y-83263214D01*
X129167130Y-83275474D01*
X129073397Y-83249920D01*
X128996577Y-83190440D01*
X128948367Y-83106090D01*
X128935500Y-83027081D01*
X128935499Y-80909000D01*
X128954453Y-80813712D01*
X129008429Y-80732930D01*
X129089211Y-80678954D01*
X129184499Y-80660000D01*
X131091000Y-80660000D01*
X131186288Y-80678954D01*
G37*
%TD.AperFunction*%
%TD*%
M02*
