  0
SECTION
  2
HEADER
  9
$ANGBASE
  50
0.0
  9
$ANGDIR
  70
1
  9
$MEASUREMENT
  70
0
  0
ENDSEC
  0
SECTION
  2
TABLES
  0
TABLE
  2
LTYPE
  70
4
  0
LTYPE
  5
40F
  2
CONTINUOUS
  70
0
  3
Solid line
  72
65
  73
0
  40
0.0
  0
LTYPE
  5
410
  2
DASHDOT
 70
0
  3
Dash Dot ____ _ ____ _
 72
65
 73
4
 40
2.0
 49
1.25
 49
-0.25
 49
0.25
 49
-0.25
  0
LTYPE
  5
411
  2
DASHED
 70
0
  3
Dashed __ __ __ __ __
 72
65
 73
2
 40
0.75
 49
0.5
 49
-0.25
  0
LTYPE
  5
43B
  2
DOTTED
 70
0
  3
Dotted .  .  .  .
 72
65
 73
2
 40
0.2
 49
0.0
 49
-0.2
  0
ENDTAB
  0
TABLE
  2
STYLE
  70
4
  0
STYLE
  2
KICAD
  70
0
  40
0
  41
1
  42
1
  50
0
  71
0
  3
isocp.shx
  0
STYLE
  2
KICADB
  70
0
  40
0
  41
1
  42
1
  50
0
  71
0
  3
isocp.shx
  0
STYLE
  2
KICADI
  70
0
  40
0
  41
1
  42
1
  50
15
  71
0
  3
isocp.shx
  0
STYLE
  2
KICADBI
  70
0
  40
0
  41
1
  42
1
  50
15
  71
0
  3
isocp.shx
  0
ENDTAB
  0
TABLE
  2
LAYER
  70
1
  0
LAYER
  2
BLACK
  70
0
  62
7
  6
CONTINUOUS
  0
ENDTAB
  0
ENDSEC
  0
SECTION
  2
ENTITIES
0
LINE
8
BLACK
6
CONTINUOUS
10
3.85804
20
-4.2485
11
3.86305
21
-4.25058
0
LINE
8
BLACK
6
CONTINUOUS
10
3.86305
20
-4.25058
11
3.86757
21
-4.25359
0
LINE
8
BLACK
6
CONTINUOUS
10
3.86757
20
-4.25359
11
3.87141
21
-4.25743
0
LINE
8
BLACK
6
CONTINUOUS
10
3.87141
20
-4.25743
11
3.87442
21
-4.26195
0
LINE
8
BLACK
6
CONTINUOUS
10
3.87442
20
-4.26195
11
3.8765
21
-4.26696
0
LINE
8
BLACK
6
CONTINUOUS
10
3.8765
20
-4.26696
11
3.87756
21
-4.27229
0
LINE
8
BLACK
6
CONTINUOUS
10
3.87756
20
-4.27229
11
3.87756
21
-4.27771
0
LINE
8
BLACK
6
CONTINUOUS
10
3.87756
20
-4.27771
11
3.8765
21
-4.28304
0
LINE
8
BLACK
6
CONTINUOUS
10
3.8765
20
-4.28304
11
3.87442
21
-4.28805
0
LINE
8
BLACK
6
CONTINUOUS
10
3.87442
20
-4.28805
11
3.87141
21
-4.29257
0
LINE
8
BLACK
6
CONTINUOUS
10
3.87141
20
-4.29257
11
3.86757
21
-4.29641
0
LINE
8
BLACK
6
CONTINUOUS
10
3.86757
20
-4.29641
11
3.86305
21
-4.29942
0
LINE
8
BLACK
6
CONTINUOUS
10
3.86305
20
-4.29942
11
3.85804
21
-4.3015
0
LINE
8
BLACK
6
CONTINUOUS
10
3.85804
20
-4.3015
11
3.85271
21
-4.30256
0
LINE
8
BLACK
6
CONTINUOUS
10
3.85271
20
-4.30256
11
3.84729
21
-4.30256
0
LINE
8
BLACK
6
CONTINUOUS
10
3.84729
20
-4.30256
11
3.84196
21
-4.3015
0
LINE
8
BLACK
6
CONTINUOUS
10
3.84196
20
-4.3015
11
3.83695
21
-4.29942
0
LINE
8
BLACK
6
CONTINUOUS
10
3.83695
20
-4.29942
11
3.83243
21
-4.29641
0
LINE
8
BLACK
6
CONTINUOUS
10
3.83243
20
-4.29641
11
3.82859
21
-4.29257
0
LINE
8
BLACK
6
CONTINUOUS
10
3.82859
20
-4.29257
11
3.82558
21
-4.28805
0
LINE
8
BLACK
6
CONTINUOUS
10
3.82558
20
-4.28805
11
3.8235
21
-4.28304
0
LINE
8
BLACK
6
CONTINUOUS
10
3.8235
20
-4.28304
11
3.82244
21
-4.27771
0
LINE
8
BLACK
6
CONTINUOUS
10
3.82244
20
-4.27771
11
3.82244
21
-4.27229
0
LINE
8
BLACK
6
CONTINUOUS
10
3.82244
20
-4.27229
11
3.8235
21
-4.26696
0
LINE
8
BLACK
6
CONTINUOUS
10
3.8235
20
-4.26696
11
3.82558
21
-4.26195
0
LINE
8
BLACK
6
CONTINUOUS
10
3.82558
20
-4.26195
11
3.82859
21
-4.25743
0
LINE
8
BLACK
6
CONTINUOUS
10
3.82859
20
-4.25743
11
3.83243
21
-4.25359
0
LINE
8
BLACK
6
CONTINUOUS
10
3.83243
20
-4.25359
11
3.83695
21
-4.25058
0
LINE
8
BLACK
6
CONTINUOUS
10
3.83695
20
-4.25058
11
3.84196
21
-4.2485
0
LINE
8
BLACK
6
CONTINUOUS
10
3.84196
20
-4.2485
11
3.84729
21
-4.24744
0
LINE
8
BLACK
6
CONTINUOUS
10
3.84729
20
-4.24744
11
3.85271
21
-4.24744
0
LINE
8
BLACK
6
CONTINUOUS
10
3.85271
20
-4.24744
11
3.85804
21
-4.2485
0
LINE
8
BLACK
6
CONTINUOUS
10
4.10919
20
-4.19845
11
4.11492
21
-4.20083
0
LINE
8
BLACK
6
CONTINUOUS
10
4.11492
20
-4.20083
11
4.12008
21
-4.20428
0
LINE
8
BLACK
6
CONTINUOUS
10
4.12008
20
-4.20428
11
4.12446
21
-4.20866
0
LINE
8
BLACK
6
CONTINUOUS
10
4.12446
20
-4.20866
11
4.12791
21
-4.21382
0
LINE
8
BLACK
6
CONTINUOUS
10
4.12791
20
-4.21382
11
4.13029
21
-4.21955
0
LINE
8
BLACK
6
CONTINUOUS
10
4.13029
20
-4.21955
11
4.1315
21
-4.22564
0
LINE
8
BLACK
6
CONTINUOUS
10
4.1315
20
-4.22564
11
4.1315
21
-4.23184
0
LINE
8
BLACK
6
CONTINUOUS
10
4.1315
20
-4.23184
11
4.13029
21
-4.23793
0
LINE
8
BLACK
6
CONTINUOUS
10
4.13029
20
-4.23793
11
4.12791
21
-4.24366
0
LINE
8
BLACK
6
CONTINUOUS
10
4.12791
20
-4.24366
11
4.12446
21
-4.24882
0
LINE
8
BLACK
6
CONTINUOUS
10
4.12446
20
-4.24882
11
4.12008
21
-4.2532
0
LINE
8
BLACK
6
CONTINUOUS
10
4.12008
20
-4.2532
11
4.11492
21
-4.25665
0
LINE
8
BLACK
6
CONTINUOUS
10
4.11492
20
-4.25665
11
4.10919
21
-4.25903
0
LINE
8
BLACK
6
CONTINUOUS
10
4.10919
20
-4.25903
11
4.1031
21
-4.26024
0
LINE
8
BLACK
6
CONTINUOUS
10
4.1031
20
-4.26024
11
4.0969
21
-4.26024
0
LINE
8
BLACK
6
CONTINUOUS
10
4.0969
20
-4.26024
11
4.09081
21
-4.25903
0
LINE
8
BLACK
6
CONTINUOUS
10
4.09081
20
-4.25903
11
4.08508
21
-4.25665
0
LINE
8
BLACK
6
CONTINUOUS
10
4.08508
20
-4.25665
11
4.07992
21
-4.2532
0
LINE
8
BLACK
6
CONTINUOUS
10
4.07992
20
-4.2532
11
4.07554
21
-4.24882
0
LINE
8
BLACK
6
CONTINUOUS
10
4.07554
20
-4.24882
11
4.07209
21
-4.24366
0
LINE
8
BLACK
6
CONTINUOUS
10
4.07209
20
-4.24366
11
4.06971
21
-4.23793
0
LINE
8
BLACK
6
CONTINUOUS
10
4.06971
20
-4.23793
11
4.0685
21
-4.23184
0
LINE
8
BLACK
6
CONTINUOUS
10
4.0685
20
-4.23184
11
4.0685
21
-4.22564
0
LINE
8
BLACK
6
CONTINUOUS
10
4.0685
20
-4.22564
11
4.06971
21
-4.21955
0
LINE
8
BLACK
6
CONTINUOUS
10
4.06971
20
-4.21955
11
4.07209
21
-4.21382
0
LINE
8
BLACK
6
CONTINUOUS
10
4.07209
20
-4.21382
11
4.07554
21
-4.20866
0
LINE
8
BLACK
6
CONTINUOUS
10
4.07554
20
-4.20866
11
4.07992
21
-4.20428
0
LINE
8
BLACK
6
CONTINUOUS
10
4.07992
20
-4.20428
11
4.08508
21
-4.20083
0
LINE
8
BLACK
6
CONTINUOUS
10
4.08508
20
-4.20083
11
4.09081
21
-4.19845
0
LINE
8
BLACK
6
CONTINUOUS
10
4.09081
20
-4.19845
11
4.0969
21
-4.19724
0
LINE
8
BLACK
6
CONTINUOUS
10
4.0969
20
-4.19724
11
4.1031
21
-4.19724
0
LINE
8
BLACK
6
CONTINUOUS
10
4.1031
20
-4.19724
11
4.10919
21
-4.19845
0
LINE
8
BLACK
6
CONTINUOUS
10
3.51076
20
-4.19471
11
3.51649
21
-4.19709
0
LINE
8
BLACK
6
CONTINUOUS
10
3.51649
20
-4.19709
11
3.52165
21
-4.20054
0
LINE
8
BLACK
6
CONTINUOUS
10
3.52165
20
-4.20054
11
3.52604
21
-4.20492
0
LINE
8
BLACK
6
CONTINUOUS
10
3.52604
20
-4.20492
11
3.52949
21
-4.21008
0
LINE
8
BLACK
6
CONTINUOUS
10
3.52949
20
-4.21008
11
3.53186
21
-4.21581
0
LINE
8
BLACK
6
CONTINUOUS
10
3.53186
20
-4.21581
11
3.53307
21
-4.2219
0
LINE
8
BLACK
6
CONTINUOUS
10
3.53307
20
-4.2219
11
3.53307
21
-4.2281
0
LINE
8
BLACK
6
CONTINUOUS
10
3.53307
20
-4.2281
11
3.53186
21
-4.23419
0
LINE
8
BLACK
6
CONTINUOUS
10
3.53186
20
-4.23419
11
3.52949
21
-4.23992
0
LINE
8
BLACK
6
CONTINUOUS
10
3.52949
20
-4.23992
11
3.52604
21
-4.24508
0
LINE
8
BLACK
6
CONTINUOUS
10
3.52604
20
-4.24508
11
3.52165
21
-4.24946
0
LINE
8
BLACK
6
CONTINUOUS
10
3.52165
20
-4.24946
11
3.51649
21
-4.25291
0
LINE
8
BLACK
6
CONTINUOUS
10
3.51649
20
-4.25291
11
3.51076
21
-4.25529
0
LINE
8
BLACK
6
CONTINUOUS
10
3.51076
20
-4.25529
11
3.50468
21
-4.2565
0
LINE
8
BLACK
6
CONTINUOUS
10
3.50468
20
-4.2565
11
3.49847
21
-4.2565
0
LINE
8
BLACK
6
CONTINUOUS
10
3.49847
20
-4.2565
11
3.49239
21
-4.25529
0
LINE
8
BLACK
6
CONTINUOUS
10
3.49239
20
-4.25529
11
3.48666
21
-4.25291
0
LINE
8
BLACK
6
CONTINUOUS
10
3.48666
20
-4.25291
11
3.4815
21
-4.24946
0
LINE
8
BLACK
6
CONTINUOUS
10
3.4815
20
-4.24946
11
3.47711
21
-4.24508
0
LINE
8
BLACK
6
CONTINUOUS
10
3.47711
20
-4.24508
11
3.47366
21
-4.23992
0
LINE
8
BLACK
6
CONTINUOUS
10
3.47366
20
-4.23992
11
3.47129
21
-4.23419
0
LINE
8
BLACK
6
CONTINUOUS
10
3.47129
20
-4.23419
11
3.47008
21
-4.2281
0
LINE
8
BLACK
6
CONTINUOUS
10
3.47008
20
-4.2281
11
3.47008
21
-4.2219
0
LINE
8
BLACK
6
CONTINUOUS
10
3.47008
20
-4.2219
11
3.47129
21
-4.21581
0
LINE
8
BLACK
6
CONTINUOUS
10
3.47129
20
-4.21581
11
3.47366
21
-4.21008
0
LINE
8
BLACK
6
CONTINUOUS
10
3.47366
20
-4.21008
11
3.47711
21
-4.20492
0
LINE
8
BLACK
6
CONTINUOUS
10
3.47711
20
-4.20492
11
3.4815
21
-4.20054
0
LINE
8
BLACK
6
CONTINUOUS
10
3.4815
20
-4.20054
11
3.48666
21
-4.19709
0
LINE
8
BLACK
6
CONTINUOUS
10
3.48666
20
-4.19709
11
3.49239
21
-4.19471
0
LINE
8
BLACK
6
CONTINUOUS
10
3.49239
20
-4.19471
11
3.49847
21
-4.1935
0
LINE
8
BLACK
6
CONTINUOUS
10
3.49847
20
-4.1935
11
3.50468
21
-4.1935
0
LINE
8
BLACK
6
CONTINUOUS
10
3.50468
20
-4.1935
11
3.51076
21
-4.19471
0
LINE
8
BLACK
6
CONTINUOUS
10
3.60919
20
-4.19471
11
3.61492
21
-4.19709
0
LINE
8
BLACK
6
CONTINUOUS
10
3.61492
20
-4.19709
11
3.62008
21
-4.20054
0
LINE
8
BLACK
6
CONTINUOUS
10
3.62008
20
-4.20054
11
3.62446
21
-4.20492
0
LINE
8
BLACK
6
CONTINUOUS
10
3.62446
20
-4.20492
11
3.62791
21
-4.21008
0
LINE
8
BLACK
6
CONTINUOUS
10
3.62791
20
-4.21008
11
3.63029
21
-4.21581
0
LINE
8
BLACK
6
CONTINUOUS
10
3.63029
20
-4.21581
11
3.6315
21
-4.2219
0
LINE
8
BLACK
6
CONTINUOUS
10
3.6315
20
-4.2219
11
3.6315
21
-4.2281
0
LINE
8
BLACK
6
CONTINUOUS
10
3.6315
20
-4.2281
11
3.63029
21
-4.23419
0
LINE
8
BLACK
6
CONTINUOUS
10
3.63029
20
-4.23419
11
3.62791
21
-4.23992
0
LINE
8
BLACK
6
CONTINUOUS
10
3.62791
20
-4.23992
11
3.62446
21
-4.24508
0
LINE
8
BLACK
6
CONTINUOUS
10
3.62446
20
-4.24508
11
3.62008
21
-4.24946
0
LINE
8
BLACK
6
CONTINUOUS
10
3.62008
20
-4.24946
11
3.61492
21
-4.25291
0
LINE
8
BLACK
6
CONTINUOUS
10
3.61492
20
-4.25291
11
3.60919
21
-4.25529
0
LINE
8
BLACK
6
CONTINUOUS
10
3.60919
20
-4.25529
11
3.6031
21
-4.2565
0
LINE
8
BLACK
6
CONTINUOUS
10
3.6031
20
-4.2565
11
3.5969
21
-4.2565
0
LINE
8
BLACK
6
CONTINUOUS
10
3.5969
20
-4.2565
11
3.59081
21
-4.25529
0
LINE
8
BLACK
6
CONTINUOUS
10
3.59081
20
-4.25529
11
3.58508
21
-4.25291
0
LINE
8
BLACK
6
CONTINUOUS
10
3.58508
20
-4.25291
11
3.57992
21
-4.24946
0
LINE
8
BLACK
6
CONTINUOUS
10
3.57992
20
-4.24946
11
3.57554
21
-4.24508
0
LINE
8
BLACK
6
CONTINUOUS
10
3.57554
20
-4.24508
11
3.57209
21
-4.23992
0
LINE
8
BLACK
6
CONTINUOUS
10
3.57209
20
-4.23992
11
3.56971
21
-4.23419
0
LINE
8
BLACK
6
CONTINUOUS
10
3.56971
20
-4.23419
11
3.5685
21
-4.2281
0
LINE
8
BLACK
6
CONTINUOUS
10
3.5685
20
-4.2281
11
3.5685
21
-4.2219
0
LINE
8
BLACK
6
CONTINUOUS
10
3.5685
20
-4.2219
11
3.56971
21
-4.21581
0
LINE
8
BLACK
6
CONTINUOUS
10
3.56971
20
-4.21581
11
3.57209
21
-4.21008
0
LINE
8
BLACK
6
CONTINUOUS
10
3.57209
20
-4.21008
11
3.57554
21
-4.20492
0
LINE
8
BLACK
6
CONTINUOUS
10
3.57554
20
-4.20492
11
3.57992
21
-4.20054
0
LINE
8
BLACK
6
CONTINUOUS
10
3.57992
20
-4.20054
11
3.58508
21
-4.19709
0
LINE
8
BLACK
6
CONTINUOUS
10
3.58508
20
-4.19709
11
3.59081
21
-4.19471
0
LINE
8
BLACK
6
CONTINUOUS
10
3.59081
20
-4.19471
11
3.5969
21
-4.1935
0
LINE
8
BLACK
6
CONTINUOUS
10
3.5969
20
-4.1935
11
3.6031
21
-4.1935
0
LINE
8
BLACK
6
CONTINUOUS
10
3.6031
20
-4.1935
11
3.60919
21
-4.19471
0
LINE
8
BLACK
6
CONTINUOUS
10
5.14139
20
-4.15846
11
5.14977
21
-4.16194
0
LINE
8
BLACK
6
CONTINUOUS
10
5.14977
20
-4.16194
11
5.15732
21
-4.16698
0
LINE
8
BLACK
6
CONTINUOUS
10
5.15732
20
-4.16698
11
5.16373
21
-4.17339
0
LINE
8
BLACK
6
CONTINUOUS
10
5.16373
20
-4.17339
11
5.16877
21
-4.18094
0
LINE
8
BLACK
6
CONTINUOUS
10
5.16877
20
-4.18094
11
5.17225
21
-4.18932
0
LINE
8
BLACK
6
CONTINUOUS
10
5.17225
20
-4.18932
11
5.17402
21
-4.19822
0
LINE
8
BLACK
6
CONTINUOUS
10
5.17402
20
-4.19822
11
5.17402
21
-4.20729
0
LINE
8
BLACK
6
CONTINUOUS
10
5.17402
20
-4.20729
11
5.17225
21
-4.21619
0
LINE
8
BLACK
6
CONTINUOUS
10
5.17225
20
-4.21619
11
5.16877
21
-4.22457
0
LINE
8
BLACK
6
CONTINUOUS
10
5.16877
20
-4.22457
11
5.16373
21
-4.23212
0
LINE
8
BLACK
6
CONTINUOUS
10
5.16373
20
-4.23212
11
5.15732
21
-4.23854
0
LINE
8
BLACK
6
CONTINUOUS
10
5.15732
20
-4.23854
11
5.14977
21
-4.24358
0
LINE
8
BLACK
6
CONTINUOUS
10
5.14977
20
-4.24358
11
5.14139
21
-4.24705
0
LINE
8
BLACK
6
CONTINUOUS
10
5.14139
20
-4.24705
11
5.13249
21
-4.24882
0
LINE
8
BLACK
6
CONTINUOUS
10
5.13249
20
-4.24882
11
5.12342
21
-4.24882
0
LINE
8
BLACK
6
CONTINUOUS
10
5.12342
20
-4.24882
11
5.11452
21
-4.24705
0
LINE
8
BLACK
6
CONTINUOUS
10
5.11452
20
-4.24705
11
5.10613
21
-4.24358
0
LINE
8
BLACK
6
CONTINUOUS
10
5.10613
20
-4.24358
11
5.09859
21
-4.23854
0
LINE
8
BLACK
6
CONTINUOUS
10
5.09859
20
-4.23854
11
5.09217
21
-4.23212
0
LINE
8
BLACK
6
CONTINUOUS
10
5.09217
20
-4.23212
11
5.08713
21
-4.22457
0
LINE
8
BLACK
6
CONTINUOUS
10
5.08713
20
-4.22457
11
5.08366
21
-4.21619
0
LINE
8
BLACK
6
CONTINUOUS
10
5.08366
20
-4.21619
11
5.08189
21
-4.20729
0
LINE
8
BLACK
6
CONTINUOUS
10
5.08189
20
-4.20729
11
5.08189
21
-4.19822
0
LINE
8
BLACK
6
CONTINUOUS
10
5.08189
20
-4.19822
11
5.08366
21
-4.18932
0
LINE
8
BLACK
6
CONTINUOUS
10
5.08366
20
-4.18932
11
5.08713
21
-4.18094
0
LINE
8
BLACK
6
CONTINUOUS
10
5.08713
20
-4.18094
11
5.09217
21
-4.17339
0
LINE
8
BLACK
6
CONTINUOUS
10
5.09217
20
-4.17339
11
5.09859
21
-4.16698
0
LINE
8
BLACK
6
CONTINUOUS
10
5.09859
20
-4.16698
11
5.10613
21
-4.16194
0
LINE
8
BLACK
6
CONTINUOUS
10
5.10613
20
-4.16194
11
5.11452
21
-4.15846
0
LINE
8
BLACK
6
CONTINUOUS
10
5.11452
20
-4.15846
11
5.12342
21
-4.15669
0
LINE
8
BLACK
6
CONTINUOUS
10
5.12342
20
-4.15669
11
5.13249
21
-4.15669
0
LINE
8
BLACK
6
CONTINUOUS
10
5.13249
20
-4.15669
11
5.14139
21
-4.15846
0
LINE
8
BLACK
6
CONTINUOUS
10
3.0105
20
-4.11266
11
3.02196
21
-4.11741
0
LINE
8
BLACK
6
CONTINUOUS
10
3.02196
20
-4.11741
11
3.03228
21
-4.1243
0
LINE
8
BLACK
6
CONTINUOUS
10
3.03228
20
-4.1243
11
3.04106
21
-4.13307
0
LINE
8
BLACK
6
CONTINUOUS
10
3.04106
20
-4.13307
11
3.04795
21
-4.14339
0
LINE
8
BLACK
6
CONTINUOUS
10
3.04795
20
-4.14339
11
3.0527
21
-4.15485
0
LINE
8
BLACK
6
CONTINUOUS
10
3.0527
20
-4.15485
11
3.05512
21
-4.16702
0
LINE
8
BLACK
6
CONTINUOUS
10
3.05512
20
-4.16702
11
3.05512
21
-4.17943
0
LINE
8
BLACK
6
CONTINUOUS
10
3.05512
20
-4.17943
11
3.0527
21
-4.1916
0
LINE
8
BLACK
6
CONTINUOUS
10
3.0527
20
-4.1916
11
3.04795
21
-4.20307
0
LINE
8
BLACK
6
CONTINUOUS
10
3.04795
20
-4.20307
11
3.04106
21
-4.21338
0
LINE
8
BLACK
6
CONTINUOUS
10
3.04106
20
-4.21338
11
3.03228
21
-4.22216
0
LINE
8
BLACK
6
CONTINUOUS
10
3.03228
20
-4.22216
11
3.02196
21
-4.22905
0
LINE
8
BLACK
6
CONTINUOUS
10
3.02196
20
-4.22905
11
3.0105
21
-4.2338
0
LINE
8
BLACK
6
CONTINUOUS
10
3.0105
20
-4.2338
11
2.99833
21
-4.23622
0
LINE
8
BLACK
6
CONTINUOUS
10
2.99833
20
-4.23622
11
2.98592
21
-4.23622
0
LINE
8
BLACK
6
CONTINUOUS
10
2.98592
20
-4.23622
11
2.97375
21
-4.2338
0
LINE
8
BLACK
6
CONTINUOUS
10
2.97375
20
-4.2338
11
2.96229
21
-4.22905
0
LINE
8
BLACK
6
CONTINUOUS
10
2.96229
20
-4.22905
11
2.95197
21
-4.22216
0
LINE
8
BLACK
6
CONTINUOUS
10
2.95197
20
-4.22216
11
2.9432
21
-4.21338
0
LINE
8
BLACK
6
CONTINUOUS
10
2.9432
20
-4.21338
11
2.9363
21
-4.20307
0
LINE
8
BLACK
6
CONTINUOUS
10
2.9363
20
-4.20307
11
2.93155
21
-4.1916
0
LINE
8
BLACK
6
CONTINUOUS
10
2.93155
20
-4.1916
11
2.92913
21
-4.17943
0
LINE
8
BLACK
6
CONTINUOUS
10
2.92913
20
-4.17943
11
2.92913
21
-4.16702
0
LINE
8
BLACK
6
CONTINUOUS
10
2.92913
20
-4.16702
11
2.93155
21
-4.15485
0
LINE
8
BLACK
6
CONTINUOUS
10
2.93155
20
-4.15485
11
2.9363
21
-4.14339
0
LINE
8
BLACK
6
CONTINUOUS
10
2.9363
20
-4.14339
11
2.9432
21
-4.13307
0
LINE
8
BLACK
6
CONTINUOUS
10
2.9432
20
-4.13307
11
2.95197
21
-4.1243
0
LINE
8
BLACK
6
CONTINUOUS
10
2.95197
20
-4.1243
11
2.96229
21
-4.11741
0
LINE
8
BLACK
6
CONTINUOUS
10
2.96229
20
-4.11741
11
2.97375
21
-4.11266
0
LINE
8
BLACK
6
CONTINUOUS
10
2.97375
20
-4.11266
11
2.98592
21
-4.11024
0
LINE
8
BLACK
6
CONTINUOUS
10
2.98592
20
-4.11024
11
2.99833
21
-4.11024
0
LINE
8
BLACK
6
CONTINUOUS
10
2.99833
20
-4.11024
11
3.0105
21
-4.11266
0
LINE
8
BLACK
6
CONTINUOUS
10
4.74278
20
-4.11266
11
4.75425
21
-4.11741
0
LINE
8
BLACK
6
CONTINUOUS
10
4.75425
20
-4.11741
11
4.76456
21
-4.1243
0
LINE
8
BLACK
6
CONTINUOUS
10
4.76456
20
-4.1243
11
4.77334
21
-4.13307
0
LINE
8
BLACK
6
CONTINUOUS
10
4.77334
20
-4.13307
11
4.78023
21
-4.14339
0
LINE
8
BLACK
6
CONTINUOUS
10
4.78023
20
-4.14339
11
4.78498
21
-4.15485
0
LINE
8
BLACK
6
CONTINUOUS
10
4.78498
20
-4.15485
11
4.7874
21
-4.16702
0
LINE
8
BLACK
6
CONTINUOUS
10
4.7874
20
-4.16702
11
4.7874
21
-4.17943
0
LINE
8
BLACK
6
CONTINUOUS
10
4.7874
20
-4.17943
11
4.78498
21
-4.1916
0
LINE
8
BLACK
6
CONTINUOUS
10
4.78498
20
-4.1916
11
4.78023
21
-4.20307
0
LINE
8
BLACK
6
CONTINUOUS
10
4.78023
20
-4.20307
11
4.77334
21
-4.21338
0
LINE
8
BLACK
6
CONTINUOUS
10
4.77334
20
-4.21338
11
4.76456
21
-4.22216
0
LINE
8
BLACK
6
CONTINUOUS
10
4.76456
20
-4.22216
11
4.75425
21
-4.22905
0
LINE
8
BLACK
6
CONTINUOUS
10
4.75425
20
-4.22905
11
4.74278
21
-4.2338
0
LINE
8
BLACK
6
CONTINUOUS
10
4.74278
20
-4.2338
11
4.73061
21
-4.23622
0
LINE
8
BLACK
6
CONTINUOUS
10
4.73061
20
-4.23622
11
4.71821
21
-4.23622
0
LINE
8
BLACK
6
CONTINUOUS
10
4.71821
20
-4.23622
11
4.70604
21
-4.2338
0
LINE
8
BLACK
6
CONTINUOUS
10
4.70604
20
-4.2338
11
4.69457
21
-4.22905
0
LINE
8
BLACK
6
CONTINUOUS
10
4.69457
20
-4.22905
11
4.68425
21
-4.22216
0
LINE
8
BLACK
6
CONTINUOUS
10
4.68425
20
-4.22216
11
4.67548
21
-4.21338
0
LINE
8
BLACK
6
CONTINUOUS
10
4.67548
20
-4.21338
11
4.66859
21
-4.20307
0
LINE
8
BLACK
6
CONTINUOUS
10
4.66859
20
-4.20307
11
4.66384
21
-4.1916
0
LINE
8
BLACK
6
CONTINUOUS
10
4.66384
20
-4.1916
11
4.66142
21
-4.17943
0
LINE
8
BLACK
6
CONTINUOUS
10
4.66142
20
-4.17943
11
4.66142
21
-4.16702
0
LINE
8
BLACK
6
CONTINUOUS
10
4.66142
20
-4.16702
11
4.66384
21
-4.15485
0
LINE
8
BLACK
6
CONTINUOUS
10
4.66384
20
-4.15485
11
4.66859
21
-4.14339
0
LINE
8
BLACK
6
CONTINUOUS
10
4.66859
20
-4.14339
11
4.67548
21
-4.13307
0
LINE
8
BLACK
6
CONTINUOUS
10
4.67548
20
-4.13307
11
4.68425
21
-4.1243
0
LINE
8
BLACK
6
CONTINUOUS
10
4.68425
20
-4.1243
11
4.69457
21
-4.11741
0
LINE
8
BLACK
6
CONTINUOUS
10
4.69457
20
-4.11741
11
4.70604
21
-4.11266
0
LINE
8
BLACK
6
CONTINUOUS
10
4.70604
20
-4.11266
11
4.71821
21
-4.11024
0
LINE
8
BLACK
6
CONTINUOUS
10
4.71821
20
-4.11024
11
4.73061
21
-4.11024
0
LINE
8
BLACK
6
CONTINUOUS
10
4.73061
20
-4.11024
11
4.74278
21
-4.11266
0
LINE
8
BLACK
6
CONTINUOUS
10
3.18304
20
-4.1485
11
3.18805
21
-4.15058
0
LINE
8
BLACK
6
CONTINUOUS
10
3.18805
20
-4.15058
11
3.19257
21
-4.15359
0
LINE
8
BLACK
6
CONTINUOUS
10
3.19257
20
-4.15359
11
3.19641
21
-4.15743
0
LINE
8
BLACK
6
CONTINUOUS
10
3.19641
20
-4.15743
11
3.19942
21
-4.16195
0
LINE
8
BLACK
6
CONTINUOUS
10
3.19942
20
-4.16195
11
3.2015
21
-4.16696
0
LINE
8
BLACK
6
CONTINUOUS
10
3.2015
20
-4.16696
11
3.20256
21
-4.17229
0
LINE
8
BLACK
6
CONTINUOUS
10
3.20256
20
-4.17229
11
3.20256
21
-4.17771
0
LINE
8
BLACK
6
CONTINUOUS
10
3.20256
20
-4.17771
11
3.2015
21
-4.18304
0
LINE
8
BLACK
6
CONTINUOUS
10
3.2015
20
-4.18304
11
3.19942
21
-4.18805
0
LINE
8
BLACK
6
CONTINUOUS
10
3.19942
20
-4.18805
11
3.19641
21
-4.19257
0
LINE
8
BLACK
6
CONTINUOUS
10
3.19641
20
-4.19257
11
3.19257
21
-4.19641
0
LINE
8
BLACK
6
CONTINUOUS
10
3.19257
20
-4.19641
11
3.18805
21
-4.19942
0
LINE
8
BLACK
6
CONTINUOUS
10
3.18805
20
-4.19942
11
3.18304
21
-4.2015
0
LINE
8
BLACK
6
CONTINUOUS
10
3.18304
20
-4.2015
11
3.17771
21
-4.20256
0
LINE
8
BLACK
6
CONTINUOUS
10
3.17771
20
-4.20256
11
3.17229
21
-4.20256
0
LINE
8
BLACK
6
CONTINUOUS
10
3.17229
20
-4.20256
11
3.16696
21
-4.2015
0
LINE
8
BLACK
6
CONTINUOUS
10
3.16696
20
-4.2015
11
3.16195
21
-4.19942
0
LINE
8
BLACK
6
CONTINUOUS
10
3.16195
20
-4.19942
11
3.15743
21
-4.19641
0
LINE
8
BLACK
6
CONTINUOUS
10
3.15743
20
-4.19641
11
3.15359
21
-4.19257
0
LINE
8
BLACK
6
CONTINUOUS
10
3.15359
20
-4.19257
11
3.15058
21
-4.18805
0
LINE
8
BLACK
6
CONTINUOUS
10
3.15058
20
-4.18805
11
3.1485
21
-4.18304
0
LINE
8
BLACK
6
CONTINUOUS
10
3.1485
20
-4.18304
11
3.14744
21
-4.17771
0
LINE
8
BLACK
6
CONTINUOUS
10
3.14744
20
-4.17771
11
3.14744
21
-4.17229
0
LINE
8
BLACK
6
CONTINUOUS
10
3.14744
20
-4.17229
11
3.1485
21
-4.16696
0
LINE
8
BLACK
6
CONTINUOUS
10
3.1485
20
-4.16696
11
3.15058
21
-4.16195
0
LINE
8
BLACK
6
CONTINUOUS
10
3.15058
20
-4.16195
11
3.15359
21
-4.15743
0
LINE
8
BLACK
6
CONTINUOUS
10
3.15359
20
-4.15743
11
3.15743
21
-4.15359
0
LINE
8
BLACK
6
CONTINUOUS
10
3.15743
20
-4.15359
11
3.16195
21
-4.15058
0
LINE
8
BLACK
6
CONTINUOUS
10
3.16195
20
-4.15058
11
3.16696
21
-4.1485
0
LINE
8
BLACK
6
CONTINUOUS
10
3.16696
20
-4.1485
11
3.17229
21
-4.14744
0
LINE
8
BLACK
6
CONTINUOUS
10
3.17229
20
-4.14744
11
3.17771
21
-4.14744
0
LINE
8
BLACK
6
CONTINUOUS
10
3.17771
20
-4.14744
11
3.18304
21
-4.1485
0
LINE
8
BLACK
6
CONTINUOUS
10
3.29469
20
-4.19469
11
3.25531
21
-4.19469
0
LINE
8
BLACK
6
CONTINUOUS
10
3.25531
20
-4.19469
11
3.25531
21
-4.15531
0
LINE
8
BLACK
6
CONTINUOUS
10
3.25531
20
-4.15531
11
3.29469
21
-4.15531
0
LINE
8
BLACK
6
CONTINUOUS
10
3.29469
20
-4.15531
11
3.29469
21
-4.19469
0
LINE
8
BLACK
6
CONTINUOUS
10
4.50976
20
-4.11782
11
4.51585
21
-4.12034
0
LINE
8
BLACK
6
CONTINUOUS
10
4.51585
20
-4.12034
11
4.52133
21
-4.12401
0
LINE
8
BLACK
6
CONTINUOUS
10
4.52133
20
-4.12401
11
4.52599
21
-4.12867
0
LINE
8
BLACK
6
CONTINUOUS
10
4.52599
20
-4.12867
11
4.52966
21
-4.13415
0
LINE
8
BLACK
6
CONTINUOUS
10
4.52966
20
-4.13415
11
4.53218
21
-4.14024
0
LINE
8
BLACK
6
CONTINUOUS
10
4.53218
20
-4.14024
11
4.53346
21
-4.1467
0
LINE
8
BLACK
6
CONTINUOUS
10
4.53346
20
-4.1467
11
4.53346
21
-4.1533
0
LINE
8
BLACK
6
CONTINUOUS
10
4.53346
20
-4.1533
11
4.53218
21
-4.15976
0
LINE
8
BLACK
6
CONTINUOUS
10
4.53218
20
-4.15976
11
4.52966
21
-4.16585
0
LINE
8
BLACK
6
CONTINUOUS
10
4.52966
20
-4.16585
11
4.52599
21
-4.17133
0
LINE
8
BLACK
6
CONTINUOUS
10
4.52599
20
-4.17133
11
4.52133
21
-4.17599
0
LINE
8
BLACK
6
CONTINUOUS
10
4.52133
20
-4.17599
11
4.51585
21
-4.17966
0
LINE
8
BLACK
6
CONTINUOUS
10
4.51585
20
-4.17966
11
4.50976
21
-4.18218
0
LINE
8
BLACK
6
CONTINUOUS
10
4.50976
20
-4.18218
11
4.5033
21
-4.18346
0
LINE
8
BLACK
6
CONTINUOUS
10
4.5033
20
-4.18346
11
4.4967
21
-4.18346
0
LINE
8
BLACK
6
CONTINUOUS
10
4.4967
20
-4.18346
11
4.49024
21
-4.18218
0
LINE
8
BLACK
6
CONTINUOUS
10
4.49024
20
-4.18218
11
4.48415
21
-4.17966
0
LINE
8
BLACK
6
CONTINUOUS
10
4.48415
20
-4.17966
11
4.47867
21
-4.17599
0
LINE
8
BLACK
6
CONTINUOUS
10
4.47867
20
-4.17599
11
4.47401
21
-4.17133
0
LINE
8
BLACK
6
CONTINUOUS
10
4.47401
20
-4.17133
11
4.47034
21
-4.16585
0
LINE
8
BLACK
6
CONTINUOUS
10
4.47034
20
-4.16585
11
4.46782
21
-4.15976
0
LINE
8
BLACK
6
CONTINUOUS
10
4.46782
20
-4.15976
11
4.46654
21
-4.1533
0
LINE
8
BLACK
6
CONTINUOUS
10
4.46654
20
-4.1533
11
4.46654
21
-4.1467
0
LINE
8
BLACK
6
CONTINUOUS
10
4.46654
20
-4.1467
11
4.46782
21
-4.14024
0
LINE
8
BLACK
6
CONTINUOUS
10
4.46782
20
-4.14024
11
4.47034
21
-4.13415
0
LINE
8
BLACK
6
CONTINUOUS
10
4.47034
20
-4.13415
11
4.47401
21
-4.12867
0
LINE
8
BLACK
6
CONTINUOUS
10
4.47401
20
-4.12867
11
4.47867
21
-4.12401
0
LINE
8
BLACK
6
CONTINUOUS
10
4.47867
20
-4.12401
11
4.48415
21
-4.12034
0
LINE
8
BLACK
6
CONTINUOUS
10
4.48415
20
-4.12034
11
4.49024
21
-4.11782
0
LINE
8
BLACK
6
CONTINUOUS
10
4.49024
20
-4.11782
11
4.4967
21
-4.11654
0
LINE
8
BLACK
6
CONTINUOUS
10
4.4967
20
-4.11654
11
4.5033
21
-4.11654
0
LINE
8
BLACK
6
CONTINUOUS
10
4.5033
20
-4.11654
11
4.50976
21
-4.11782
0
LINE
8
BLACK
6
CONTINUOUS
10
4.40976
20
-4.11782
11
4.41585
21
-4.12034
0
LINE
8
BLACK
6
CONTINUOUS
10
4.41585
20
-4.12034
11
4.42133
21
-4.12401
0
LINE
8
BLACK
6
CONTINUOUS
10
4.42133
20
-4.12401
11
4.42599
21
-4.12867
0
LINE
8
BLACK
6
CONTINUOUS
10
4.42599
20
-4.12867
11
4.42966
21
-4.13415
0
LINE
8
BLACK
6
CONTINUOUS
10
4.42966
20
-4.13415
11
4.43218
21
-4.14024
0
LINE
8
BLACK
6
CONTINUOUS
10
4.43218
20
-4.14024
11
4.43346
21
-4.1467
0
LINE
8
BLACK
6
CONTINUOUS
10
4.43346
20
-4.1467
11
4.43346
21
-4.1533
0
LINE
8
BLACK
6
CONTINUOUS
10
4.43346
20
-4.1533
11
4.43218
21
-4.15976
0
LINE
8
BLACK
6
CONTINUOUS
10
4.43218
20
-4.15976
11
4.42966
21
-4.16585
0
LINE
8
BLACK
6
CONTINUOUS
10
4.42966
20
-4.16585
11
4.42599
21
-4.17133
0
LINE
8
BLACK
6
CONTINUOUS
10
4.42599
20
-4.17133
11
4.42133
21
-4.17599
0
LINE
8
BLACK
6
CONTINUOUS
10
4.42133
20
-4.17599
11
4.41585
21
-4.17966
0
LINE
8
BLACK
6
CONTINUOUS
10
4.41585
20
-4.17966
11
4.40976
21
-4.18218
0
LINE
8
BLACK
6
CONTINUOUS
10
4.40976
20
-4.18218
11
4.4033
21
-4.18346
0
LINE
8
BLACK
6
CONTINUOUS
10
4.4033
20
-4.18346
11
4.3967
21
-4.18346
0
LINE
8
BLACK
6
CONTINUOUS
10
4.3967
20
-4.18346
11
4.39024
21
-4.18218
0
LINE
8
BLACK
6
CONTINUOUS
10
4.39024
20
-4.18218
11
4.38415
21
-4.17966
0
LINE
8
BLACK
6
CONTINUOUS
10
4.38415
20
-4.17966
11
4.37867
21
-4.17599
0
LINE
8
BLACK
6
CONTINUOUS
10
4.37867
20
-4.17599
11
4.37401
21
-4.17133
0
LINE
8
BLACK
6
CONTINUOUS
10
4.37401
20
-4.17133
11
4.37034
21
-4.16585
0
LINE
8
BLACK
6
CONTINUOUS
10
4.37034
20
-4.16585
11
4.36782
21
-4.15976
0
LINE
8
BLACK
6
CONTINUOUS
10
4.36782
20
-4.15976
11
4.36654
21
-4.1533
0
LINE
8
BLACK
6
CONTINUOUS
10
4.36654
20
-4.1533
11
4.36654
21
-4.1467
0
LINE
8
BLACK
6
CONTINUOUS
10
4.36654
20
-4.1467
11
4.36782
21
-4.14024
0
LINE
8
BLACK
6
CONTINUOUS
10
4.36782
20
-4.14024
11
4.37034
21
-4.13415
0
LINE
8
BLACK
6
CONTINUOUS
10
4.37034
20
-4.13415
11
4.37401
21
-4.12867
0
LINE
8
BLACK
6
CONTINUOUS
10
4.37401
20
-4.12867
11
4.37867
21
-4.12401
0
LINE
8
BLACK
6
CONTINUOUS
10
4.37867
20
-4.12401
11
4.38415
21
-4.12034
0
LINE
8
BLACK
6
CONTINUOUS
10
4.38415
20
-4.12034
11
4.39024
21
-4.11782
0
LINE
8
BLACK
6
CONTINUOUS
10
4.39024
20
-4.11782
11
4.3967
21
-4.11654
0
LINE
8
BLACK
6
CONTINUOUS
10
4.3967
20
-4.11654
11
4.4033
21
-4.11654
0
LINE
8
BLACK
6
CONTINUOUS
10
4.4033
20
-4.11654
11
4.40976
21
-4.11782
0
LINE
8
BLACK
6
CONTINUOUS
10
4.33346
20
-4.18346
11
4.26654
21
-4.18346
0
LINE
8
BLACK
6
CONTINUOUS
10
4.26654
20
-4.18346
11
4.26654
21
-4.11654
0
LINE
8
BLACK
6
CONTINUOUS
10
4.26654
20
-4.11654
11
4.33346
21
-4.11654
0
LINE
8
BLACK
6
CONTINUOUS
10
4.33346
20
-4.11654
11
4.33346
21
-4.18346
0
LINE
8
BLACK
6
CONTINUOUS
10
4.1315
20
-4.1815
11
4.0685
21
-4.1815
0
LINE
8
BLACK
6
CONTINUOUS
10
4.0685
20
-4.1815
11
4.0685
21
-4.1185
0
LINE
8
BLACK
6
CONTINUOUS
10
4.0685
20
-4.1185
11
4.1315
21
-4.1185
0
LINE
8
BLACK
6
CONTINUOUS
10
4.1315
20
-4.1185
11
4.1315
21
-4.1815
0
LINE
8
BLACK
6
CONTINUOUS
10
3.70761
20
-4.09471
11
3.71334
21
-4.09709
0
LINE
8
BLACK
6
CONTINUOUS
10
3.71334
20
-4.09709
11
3.7185
21
-4.10054
0
LINE
8
BLACK
6
CONTINUOUS
10
3.7185
20
-4.10054
11
3.72289
21
-4.10492
0
LINE
8
BLACK
6
CONTINUOUS
10
3.72289
20
-4.10492
11
3.72634
21
-4.11008
0
LINE
8
BLACK
6
CONTINUOUS
10
3.72634
20
-4.11008
11
3.72871
21
-4.11581
0
LINE
8
BLACK
6
CONTINUOUS
10
3.72871
20
-4.11581
11
3.72992
21
-4.1219
0
LINE
8
BLACK
6
CONTINUOUS
10
3.72992
20
-4.1219
11
3.72992
21
-4.1281
0
LINE
8
BLACK
6
CONTINUOUS
10
3.72992
20
-4.1281
11
3.72871
21
-4.13419
0
LINE
8
BLACK
6
CONTINUOUS
10
3.72871
20
-4.13419
11
3.72634
21
-4.13992
0
LINE
8
BLACK
6
CONTINUOUS
10
3.72634
20
-4.13992
11
3.72289
21
-4.14508
0
LINE
8
BLACK
6
CONTINUOUS
10
3.72289
20
-4.14508
11
3.7185
21
-4.14946
0
LINE
8
BLACK
6
CONTINUOUS
10
3.7185
20
-4.14946
11
3.71334
21
-4.15291
0
LINE
8
BLACK
6
CONTINUOUS
10
3.71334
20
-4.15291
11
3.70761
21
-4.15529
0
LINE
8
BLACK
6
CONTINUOUS
10
3.70761
20
-4.15529
11
3.70153
21
-4.1565
0
LINE
8
BLACK
6
CONTINUOUS
10
3.70153
20
-4.1565
11
3.69532
21
-4.1565
0
LINE
8
BLACK
6
CONTINUOUS
10
3.69532
20
-4.1565
11
3.68924
21
-4.15529
0
LINE
8
BLACK
6
CONTINUOUS
10
3.68924
20
-4.15529
11
3.68351
21
-4.15291
0
LINE
8
BLACK
6
CONTINUOUS
10
3.68351
20
-4.15291
11
3.67835
21
-4.14946
0
LINE
8
BLACK
6
CONTINUOUS
10
3.67835
20
-4.14946
11
3.67396
21
-4.14508
0
LINE
8
BLACK
6
CONTINUOUS
10
3.67396
20
-4.14508
11
3.67051
21
-4.13992
0
LINE
8
BLACK
6
CONTINUOUS
10
3.67051
20
-4.13992
11
3.66814
21
-4.13419
0
LINE
8
BLACK
6
CONTINUOUS
10
3.66814
20
-4.13419
11
3.66693
21
-4.1281
0
LINE
8
BLACK
6
CONTINUOUS
10
3.66693
20
-4.1281
11
3.66693
21
-4.1219
0
LINE
8
BLACK
6
CONTINUOUS
10
3.66693
20
-4.1219
11
3.66814
21
-4.11581
0
LINE
8
BLACK
6
CONTINUOUS
10
3.66814
20
-4.11581
11
3.67051
21
-4.11008
0
LINE
8
BLACK
6
CONTINUOUS
10
3.67051
20
-4.11008
11
3.67396
21
-4.10492
0
LINE
8
BLACK
6
CONTINUOUS
10
3.67396
20
-4.10492
11
3.67835
21
-4.10054
0
LINE
8
BLACK
6
CONTINUOUS
10
3.67835
20
-4.10054
11
3.68351
21
-4.09709
0
LINE
8
BLACK
6
CONTINUOUS
10
3.68351
20
-4.09709
11
3.68924
21
-4.09471
0
LINE
8
BLACK
6
CONTINUOUS
10
3.68924
20
-4.09471
11
3.69532
21
-4.0935
0
LINE
8
BLACK
6
CONTINUOUS
10
3.69532
20
-4.0935
11
3.70153
21
-4.0935
0
LINE
8
BLACK
6
CONTINUOUS
10
3.70153
20
-4.0935
11
3.70761
21
-4.09471
0
LINE
8
BLACK
6
CONTINUOUS
10
3.60919
20
-4.09471
11
3.61492
21
-4.09709
0
LINE
8
BLACK
6
CONTINUOUS
10
3.61492
20
-4.09709
11
3.62008
21
-4.10054
0
LINE
8
BLACK
6
CONTINUOUS
10
3.62008
20
-4.10054
11
3.62446
21
-4.10492
0
LINE
8
BLACK
6
CONTINUOUS
10
3.62446
20
-4.10492
11
3.62791
21
-4.11008
0
LINE
8
BLACK
6
CONTINUOUS
10
3.62791
20
-4.11008
11
3.63029
21
-4.11581
0
LINE
8
BLACK
6
CONTINUOUS
10
3.63029
20
-4.11581
11
3.6315
21
-4.1219
0
LINE
8
BLACK
6
CONTINUOUS
10
3.6315
20
-4.1219
11
3.6315
21
-4.1281
0
LINE
8
BLACK
6
CONTINUOUS
10
3.6315
20
-4.1281
11
3.63029
21
-4.13419
0
LINE
8
BLACK
6
CONTINUOUS
10
3.63029
20
-4.13419
11
3.62791
21
-4.13992
0
LINE
8
BLACK
6
CONTINUOUS
10
3.62791
20
-4.13992
11
3.62446
21
-4.14508
0
LINE
8
BLACK
6
CONTINUOUS
10
3.62446
20
-4.14508
11
3.62008
21
-4.14946
0
LINE
8
BLACK
6
CONTINUOUS
10
3.62008
20
-4.14946
11
3.61492
21
-4.15291
0
LINE
8
BLACK
6
CONTINUOUS
10
3.61492
20
-4.15291
11
3.60919
21
-4.15529
0
LINE
8
BLACK
6
CONTINUOUS
10
3.60919
20
-4.15529
11
3.6031
21
-4.1565
0
LINE
8
BLACK
6
CONTINUOUS
10
3.6031
20
-4.1565
11
3.5969
21
-4.1565
0
LINE
8
BLACK
6
CONTINUOUS
10
3.5969
20
-4.1565
11
3.59081
21
-4.15529
0
LINE
8
BLACK
6
CONTINUOUS
10
3.59081
20
-4.15529
11
3.58508
21
-4.15291
0
LINE
8
BLACK
6
CONTINUOUS
10
3.58508
20
-4.15291
11
3.57992
21
-4.14946
0
LINE
8
BLACK
6
CONTINUOUS
10
3.57992
20
-4.14946
11
3.57554
21
-4.14508
0
LINE
8
BLACK
6
CONTINUOUS
10
3.57554
20
-4.14508
11
3.57209
21
-4.13992
0
LINE
8
BLACK
6
CONTINUOUS
10
3.57209
20
-4.13992
11
3.56971
21
-4.13419
0
LINE
8
BLACK
6
CONTINUOUS
10
3.56971
20
-4.13419
11
3.5685
21
-4.1281
0
LINE
8
BLACK
6
CONTINUOUS
10
3.5685
20
-4.1281
11
3.5685
21
-4.1219
0
LINE
8
BLACK
6
CONTINUOUS
10
3.5685
20
-4.1219
11
3.56971
21
-4.11581
0
LINE
8
BLACK
6
CONTINUOUS
10
3.56971
20
-4.11581
11
3.57209
21
-4.11008
0
LINE
8
BLACK
6
CONTINUOUS
10
3.57209
20
-4.11008
11
3.57554
21
-4.10492
0
LINE
8
BLACK
6
CONTINUOUS
10
3.57554
20
-4.10492
11
3.57992
21
-4.10054
0
LINE
8
BLACK
6
CONTINUOUS
10
3.57992
20
-4.10054
11
3.58508
21
-4.09709
0
LINE
8
BLACK
6
CONTINUOUS
10
3.58508
20
-4.09709
11
3.59081
21
-4.09471
0
LINE
8
BLACK
6
CONTINUOUS
10
3.59081
20
-4.09471
11
3.5969
21
-4.0935
0
LINE
8
BLACK
6
CONTINUOUS
10
3.5969
20
-4.0935
11
3.6031
21
-4.0935
0
LINE
8
BLACK
6
CONTINUOUS
10
3.6031
20
-4.0935
11
3.60919
21
-4.09471
0
LINE
8
BLACK
6
CONTINUOUS
10
3.28304
20
-4.0235
11
3.28805
21
-4.02558
0
LINE
8
BLACK
6
CONTINUOUS
10
3.28805
20
-4.02558
11
3.29257
21
-4.02859
0
LINE
8
BLACK
6
CONTINUOUS
10
3.29257
20
-4.02859
11
3.29641
21
-4.03243
0
LINE
8
BLACK
6
CONTINUOUS
10
3.29641
20
-4.03243
11
3.29942
21
-4.03695
0
LINE
8
BLACK
6
CONTINUOUS
10
3.29942
20
-4.03695
11
3.3015
21
-4.04196
0
LINE
8
BLACK
6
CONTINUOUS
10
3.3015
20
-4.04196
11
3.30256
21
-4.04729
0
LINE
8
BLACK
6
CONTINUOUS
10
3.30256
20
-4.04729
11
3.30256
21
-4.05271
0
LINE
8
BLACK
6
CONTINUOUS
10
3.30256
20
-4.05271
11
3.3015
21
-4.05804
0
LINE
8
BLACK
6
CONTINUOUS
10
3.3015
20
-4.05804
11
3.29942
21
-4.06305
0
LINE
8
BLACK
6
CONTINUOUS
10
3.29942
20
-4.06305
11
3.29641
21
-4.06757
0
LINE
8
BLACK
6
CONTINUOUS
10
3.29641
20
-4.06757
11
3.29257
21
-4.07141
0
LINE
8
BLACK
6
CONTINUOUS
10
3.29257
20
-4.07141
11
3.28805
21
-4.07442
0
LINE
8
BLACK
6
CONTINUOUS
10
3.28805
20
-4.07442
11
3.28304
21
-4.0765
0
LINE
8
BLACK
6
CONTINUOUS
10
3.28304
20
-4.0765
11
3.27771
21
-4.07756
0
LINE
8
BLACK
6
CONTINUOUS
10
3.27771
20
-4.07756
11
3.27229
21
-4.07756
0
LINE
8
BLACK
6
CONTINUOUS
10
3.27229
20
-4.07756
11
3.26696
21
-4.0765
0
LINE
8
BLACK
6
CONTINUOUS
10
3.26696
20
-4.0765
11
3.26195
21
-4.07442
0
LINE
8
BLACK
6
CONTINUOUS
10
3.26195
20
-4.07442
11
3.25743
21
-4.07141
0
LINE
8
BLACK
6
CONTINUOUS
10
3.25743
20
-4.07141
11
3.25359
21
-4.06757
0
LINE
8
BLACK
6
CONTINUOUS
10
3.25359
20
-4.06757
11
3.25058
21
-4.06305
0
LINE
8
BLACK
6
CONTINUOUS
10
3.25058
20
-4.06305
11
3.2485
21
-4.05804
0
LINE
8
BLACK
6
CONTINUOUS
10
3.2485
20
-4.05804
11
3.24744
21
-4.05271
0
LINE
8
BLACK
6
CONTINUOUS
10
3.24744
20
-4.05271
11
3.24744
21
-4.04729
0
LINE
8
BLACK
6
CONTINUOUS
10
3.24744
20
-4.04729
11
3.2485
21
-4.04196
0
LINE
8
BLACK
6
CONTINUOUS
10
3.2485
20
-4.04196
11
3.25058
21
-4.03695
0
LINE
8
BLACK
6
CONTINUOUS
10
3.25058
20
-4.03695
11
3.25359
21
-4.03243
0
LINE
8
BLACK
6
CONTINUOUS
10
3.25359
20
-4.03243
11
3.25743
21
-4.02859
0
LINE
8
BLACK
6
CONTINUOUS
10
3.25743
20
-4.02859
11
3.26195
21
-4.02558
0
LINE
8
BLACK
6
CONTINUOUS
10
3.26195
20
-4.02558
11
3.26696
21
-4.0235
0
LINE
8
BLACK
6
CONTINUOUS
10
3.26696
20
-4.0235
11
3.27229
21
-4.02244
0
LINE
8
BLACK
6
CONTINUOUS
10
3.27229
20
-4.02244
11
3.27771
21
-4.02244
0
LINE
8
BLACK
6
CONTINUOUS
10
3.27771
20
-4.02244
11
3.28304
21
-4.0235
0
LINE
8
BLACK
6
CONTINUOUS
10
5.14139
20
-3.96161
11
5.14977
21
-3.96509
0
LINE
8
BLACK
6
CONTINUOUS
10
5.14977
20
-3.96509
11
5.15732
21
-3.97013
0
LINE
8
BLACK
6
CONTINUOUS
10
5.15732
20
-3.97013
11
5.16373
21
-3.97654
0
LINE
8
BLACK
6
CONTINUOUS
10
5.16373
20
-3.97654
11
5.16877
21
-3.98409
0
LINE
8
BLACK
6
CONTINUOUS
10
5.16877
20
-3.98409
11
5.17225
21
-3.99247
0
LINE
8
BLACK
6
CONTINUOUS
10
5.17225
20
-3.99247
11
5.17402
21
-4.00137
0
LINE
8
BLACK
6
CONTINUOUS
10
5.17402
20
-4.00137
11
5.17402
21
-4.01044
0
LINE
8
BLACK
6
CONTINUOUS
10
5.17402
20
-4.01044
11
5.17225
21
-4.01934
0
LINE
8
BLACK
6
CONTINUOUS
10
5.17225
20
-4.01934
11
5.16877
21
-4.02772
0
LINE
8
BLACK
6
CONTINUOUS
10
5.16877
20
-4.02772
11
5.16373
21
-4.03527
0
LINE
8
BLACK
6
CONTINUOUS
10
5.16373
20
-4.03527
11
5.15732
21
-4.04168
0
LINE
8
BLACK
6
CONTINUOUS
10
5.15732
20
-4.04168
11
5.14977
21
-4.04673
0
LINE
8
BLACK
6
CONTINUOUS
10
5.14977
20
-4.04673
11
5.14139
21
-4.0502
0
LINE
8
BLACK
6
CONTINUOUS
10
5.14139
20
-4.0502
11
5.13249
21
-4.05197
0
LINE
8
BLACK
6
CONTINUOUS
10
5.13249
20
-4.05197
11
5.12342
21
-4.05197
0
LINE
8
BLACK
6
CONTINUOUS
10
5.12342
20
-4.05197
11
5.11452
21
-4.0502
0
LINE
8
BLACK
6
CONTINUOUS
10
5.11452
20
-4.0502
11
5.10613
21
-4.04673
0
LINE
8
BLACK
6
CONTINUOUS
10
5.10613
20
-4.04673
11
5.09859
21
-4.04168
0
LINE
8
BLACK
6
CONTINUOUS
10
5.09859
20
-4.04168
11
5.09217
21
-4.03527
0
LINE
8
BLACK
6
CONTINUOUS
10
5.09217
20
-4.03527
11
5.08713
21
-4.02772
0
LINE
8
BLACK
6
CONTINUOUS
10
5.08713
20
-4.02772
11
5.08366
21
-4.01934
0
LINE
8
BLACK
6
CONTINUOUS
10
5.08366
20
-4.01934
11
5.08189
21
-4.01044
0
LINE
8
BLACK
6
CONTINUOUS
10
5.08189
20
-4.01044
11
5.08189
21
-4.00137
0
LINE
8
BLACK
6
CONTINUOUS
10
5.08189
20
-4.00137
11
5.08366
21
-3.99247
0
LINE
8
BLACK
6
CONTINUOUS
10
5.08366
20
-3.99247
11
5.08713
21
-3.98409
0
LINE
8
BLACK
6
CONTINUOUS
10
5.08713
20
-3.98409
11
5.09217
21
-3.97654
0
LINE
8
BLACK
6
CONTINUOUS
10
5.09217
20
-3.97654
11
5.09859
21
-3.97013
0
LINE
8
BLACK
6
CONTINUOUS
10
5.09859
20
-3.97013
11
5.10613
21
-3.96509
0
LINE
8
BLACK
6
CONTINUOUS
10
5.10613
20
-3.96509
11
5.11452
21
-3.96161
0
LINE
8
BLACK
6
CONTINUOUS
10
5.11452
20
-3.96161
11
5.12342
21
-3.95984
0
LINE
8
BLACK
6
CONTINUOUS
10
5.12342
20
-3.95984
11
5.13249
21
-3.95984
0
LINE
8
BLACK
6
CONTINUOUS
10
5.13249
20
-3.95984
11
5.14139
21
-3.96161
0
LINE
8
BLACK
6
CONTINUOUS
10
4.37224
20
-4.0315
11
4.27776
21
-4.0315
0
LINE
8
BLACK
6
CONTINUOUS
10
4.27776
20
-4.0315
11
4.27776
21
-3.9685
0
LINE
8
BLACK
6
CONTINUOUS
10
4.27776
20
-3.9685
11
4.37224
21
-3.9685
0
LINE
8
BLACK
6
CONTINUOUS
10
4.37224
20
-3.9685
11
4.37224
21
-4.0315
0
LINE
8
BLACK
6
CONTINUOUS
10
4.04692
20
-3.96896
11
4.05286
21
-3.97076
0
LINE
8
BLACK
6
CONTINUOUS
10
4.05286
20
-3.97076
11
4.05833
21
-3.97369
0
LINE
8
BLACK
6
CONTINUOUS
10
4.05833
20
-3.97369
11
4.06313
21
-3.97762
0
LINE
8
BLACK
6
CONTINUOUS
10
4.06313
20
-3.97762
11
4.06706
21
-3.98242
0
LINE
8
BLACK
6
CONTINUOUS
10
4.06706
20
-3.98242
11
4.06999
21
-3.98789
0
LINE
8
BLACK
6
CONTINUOUS
10
4.06999
20
-3.98789
11
4.07179
21
-3.99383
0
LINE
8
BLACK
6
CONTINUOUS
10
4.07179
20
-3.99383
11
4.0724
21
-4
0
LINE
8
BLACK
6
CONTINUOUS
10
4.0724
20
-4
11
4.07179
21
-4.00617
0
LINE
8
BLACK
6
CONTINUOUS
10
4.07179
20
-4.00617
11
4.06999
21
-4.01211
0
LINE
8
BLACK
6
CONTINUOUS
10
4.06999
20
-4.01211
11
4.06706
21
-4.01758
0
LINE
8
BLACK
6
CONTINUOUS
10
4.06706
20
-4.01758
11
4.06313
21
-4.02238
0
LINE
8
BLACK
6
CONTINUOUS
10
4.06313
20
-4.02238
11
4.05833
21
-4.02631
0
LINE
8
BLACK
6
CONTINUOUS
10
4.05833
20
-4.02631
11
4.05286
21
-4.02924
0
LINE
8
BLACK
6
CONTINUOUS
10
4.05286
20
-4.02924
11
4.04692
21
-4.03104
0
LINE
8
BLACK
6
CONTINUOUS
10
4.04692
20
-4.03104
11
4.0423
21
-4.0315
0
LINE
8
BLACK
6
CONTINUOUS
10
4.0423
20
-4.0315
11
4.0077
21
-4.0315
0
LINE
8
BLACK
6
CONTINUOUS
10
4.0077
20
-4.0315
11
4.00308
21
-4.03104
0
LINE
8
BLACK
6
CONTINUOUS
10
4.00308
20
-4.03104
11
3.99714
21
-4.02924
0
LINE
8
BLACK
6
CONTINUOUS
10
3.99714
20
-4.02924
11
3.99167
21
-4.02631
0
LINE
8
BLACK
6
CONTINUOUS
10
3.99167
20
-4.02631
11
3.98687
21
-4.02238
0
LINE
8
BLACK
6
CONTINUOUS
10
3.98687
20
-4.02238
11
3.98294
21
-4.01758
0
LINE
8
BLACK
6
CONTINUOUS
10
3.98294
20
-4.01758
11
3.98001
21
-4.01211
0
LINE
8
BLACK
6
CONTINUOUS
10
3.98001
20
-4.01211
11
3.97821
21
-4.00617
0
LINE
8
BLACK
6
CONTINUOUS
10
3.97821
20
-4.00617
11
3.9776
21
-4
0
LINE
8
BLACK
6
CONTINUOUS
10
3.9776
20
-4
11
3.97821
21
-3.99383
0
LINE
8
BLACK
6
CONTINUOUS
10
3.97821
20
-3.99383
11
3.98001
21
-3.98789
0
LINE
8
BLACK
6
CONTINUOUS
10
3.98001
20
-3.98789
11
3.98294
21
-3.98242
0
LINE
8
BLACK
6
CONTINUOUS
10
3.98294
20
-3.98242
11
3.98687
21
-3.97762
0
LINE
8
BLACK
6
CONTINUOUS
10
3.98687
20
-3.97762
11
3.99167
21
-3.97369
0
LINE
8
BLACK
6
CONTINUOUS
10
3.99167
20
-3.97369
11
3.99714
21
-3.97076
0
LINE
8
BLACK
6
CONTINUOUS
10
3.99714
20
-3.97076
11
4.00308
21
-3.96896
0
LINE
8
BLACK
6
CONTINUOUS
10
4.00308
20
-3.96896
11
4.0077
21
-3.9685
0
LINE
8
BLACK
6
CONTINUOUS
10
4.0077
20
-3.9685
11
4.0423
21
-3.9685
0
LINE
8
BLACK
6
CONTINUOUS
10
4.0423
20
-3.9685
11
4.04692
21
-3.96896
0
LINE
8
BLACK
6
CONTINUOUS
10
3.79724
20
-4.0315
11
3.70276
21
-4.0315
0
LINE
8
BLACK
6
CONTINUOUS
10
3.70276
20
-4.0315
11
3.70276
21
-3.9685
0
LINE
8
BLACK
6
CONTINUOUS
10
3.70276
20
-3.9685
11
3.79724
21
-3.9685
0
LINE
8
BLACK
6
CONTINUOUS
10
3.79724
20
-3.9685
11
3.79724
21
-4.0315
0
LINE
8
BLACK
6
CONTINUOUS
10
3.47192
20
-3.96896
11
3.47786
21
-3.97076
0
LINE
8
BLACK
6
CONTINUOUS
10
3.47786
20
-3.97076
11
3.48333
21
-3.97369
0
LINE
8
BLACK
6
CONTINUOUS
10
3.48333
20
-3.97369
11
3.48813
21
-3.97762
0
LINE
8
BLACK
6
CONTINUOUS
10
3.48813
20
-3.97762
11
3.49206
21
-3.98242
0
LINE
8
BLACK
6
CONTINUOUS
10
3.49206
20
-3.98242
11
3.49499
21
-3.98789
0
LINE
8
BLACK
6
CONTINUOUS
10
3.49499
20
-3.98789
11
3.49679
21
-3.99383
0
LINE
8
BLACK
6
CONTINUOUS
10
3.49679
20
-3.99383
11
3.4974
21
-4
0
LINE
8
BLACK
6
CONTINUOUS
10
3.4974
20
-4
11
3.49679
21
-4.00617
0
LINE
8
BLACK
6
CONTINUOUS
10
3.49679
20
-4.00617
11
3.49499
21
-4.01211
0
LINE
8
BLACK
6
CONTINUOUS
10
3.49499
20
-4.01211
11
3.49206
21
-4.01758
0
LINE
8
BLACK
6
CONTINUOUS
10
3.49206
20
-4.01758
11
3.48813
21
-4.02238
0
LINE
8
BLACK
6
CONTINUOUS
10
3.48813
20
-4.02238
11
3.48333
21
-4.02631
0
LINE
8
BLACK
6
CONTINUOUS
10
3.48333
20
-4.02631
11
3.47786
21
-4.02924
0
LINE
8
BLACK
6
CONTINUOUS
10
3.47786
20
-4.02924
11
3.47192
21
-4.03104
0
LINE
8
BLACK
6
CONTINUOUS
10
3.47192
20
-4.03104
11
3.4673
21
-4.0315
0
LINE
8
BLACK
6
CONTINUOUS
10
3.4673
20
-4.0315
11
3.4327
21
-4.0315
0
LINE
8
BLACK
6
CONTINUOUS
10
3.4327
20
-4.0315
11
3.42808
21
-4.03104
0
LINE
8
BLACK
6
CONTINUOUS
10
3.42808
20
-4.03104
11
3.42214
21
-4.02924
0
LINE
8
BLACK
6
CONTINUOUS
10
3.42214
20
-4.02924
11
3.41667
21
-4.02631
0
LINE
8
BLACK
6
CONTINUOUS
10
3.41667
20
-4.02631
11
3.41187
21
-4.02238
0
LINE
8
BLACK
6
CONTINUOUS
10
3.41187
20
-4.02238
11
3.40794
21
-4.01758
0
LINE
8
BLACK
6
CONTINUOUS
10
3.40794
20
-4.01758
11
3.40501
21
-4.01211
0
LINE
8
BLACK
6
CONTINUOUS
10
3.40501
20
-4.01211
11
3.40321
21
-4.00617
0
LINE
8
BLACK
6
CONTINUOUS
10
3.40321
20
-4.00617
11
3.4026
21
-4
0
LINE
8
BLACK
6
CONTINUOUS
10
3.4026
20
-4
11
3.40321
21
-3.99383
0
LINE
8
BLACK
6
CONTINUOUS
10
3.40321
20
-3.99383
11
3.40501
21
-3.98789
0
LINE
8
BLACK
6
CONTINUOUS
10
3.40501
20
-3.98789
11
3.40794
21
-3.98242
0
LINE
8
BLACK
6
CONTINUOUS
10
3.40794
20
-3.98242
11
3.41187
21
-3.97762
0
LINE
8
BLACK
6
CONTINUOUS
10
3.41187
20
-3.97762
11
3.41667
21
-3.97369
0
LINE
8
BLACK
6
CONTINUOUS
10
3.41667
20
-3.97369
11
3.42214
21
-3.97076
0
LINE
8
BLACK
6
CONTINUOUS
10
3.42214
20
-3.97076
11
3.42808
21
-3.96896
0
LINE
8
BLACK
6
CONTINUOUS
10
3.42808
20
-3.96896
11
3.4327
21
-3.9685
0
LINE
8
BLACK
6
CONTINUOUS
10
3.4327
20
-3.9685
11
3.4673
21
-3.9685
0
LINE
8
BLACK
6
CONTINUOUS
10
3.4673
20
-3.9685
11
3.47192
21
-3.96896
0
LINE
8
BLACK
6
CONTINUOUS
10
4.49469
20
-4.01969
11
4.45531
21
-4.01969
0
LINE
8
BLACK
6
CONTINUOUS
10
4.45531
20
-4.01969
11
4.45531
21
-3.98031
0
LINE
8
BLACK
6
CONTINUOUS
10
4.45531
20
-3.98031
11
4.49469
21
-3.98031
0
LINE
8
BLACK
6
CONTINUOUS
10
4.49469
20
-3.98031
11
4.49469
21
-4.01969
0
LINE
8
BLACK
6
CONTINUOUS
10
3.08919
20
-3.94971
11
3.09492
21
-3.95209
0
LINE
8
BLACK
6
CONTINUOUS
10
3.09492
20
-3.95209
11
3.10008
21
-3.95554
0
LINE
8
BLACK
6
CONTINUOUS
10
3.10008
20
-3.95554
11
3.10446
21
-3.95992
0
LINE
8
BLACK
6
CONTINUOUS
10
3.10446
20
-3.95992
11
3.10791
21
-3.96508
0
LINE
8
BLACK
6
CONTINUOUS
10
3.10791
20
-3.96508
11
3.11029
21
-3.97081
0
LINE
8
BLACK
6
CONTINUOUS
10
3.11029
20
-3.97081
11
3.1115
21
-3.9769
0
LINE
8
BLACK
6
CONTINUOUS
10
3.1115
20
-3.9769
11
3.1115
21
-3.9831
0
LINE
8
BLACK
6
CONTINUOUS
10
3.1115
20
-3.9831
11
3.11029
21
-3.98919
0
LINE
8
BLACK
6
CONTINUOUS
10
3.11029
20
-3.98919
11
3.10791
21
-3.99492
0
LINE
8
BLACK
6
CONTINUOUS
10
3.10791
20
-3.99492
11
3.10446
21
-4.00008
0
LINE
8
BLACK
6
CONTINUOUS
10
3.10446
20
-4.00008
11
3.10008
21
-4.00446
0
LINE
8
BLACK
6
CONTINUOUS
10
3.10008
20
-4.00446
11
3.09492
21
-4.00791
0
LINE
8
BLACK
6
CONTINUOUS
10
3.09492
20
-4.00791
11
3.08919
21
-4.01029
0
LINE
8
BLACK
6
CONTINUOUS
10
3.08919
20
-4.01029
11
3.0831
21
-4.0115
0
LINE
8
BLACK
6
CONTINUOUS
10
3.0831
20
-4.0115
11
3.0769
21
-4.0115
0
LINE
8
BLACK
6
CONTINUOUS
10
3.0769
20
-4.0115
11
3.07081
21
-4.01029
0
LINE
8
BLACK
6
CONTINUOUS
10
3.07081
20
-4.01029
11
3.06508
21
-4.00791
0
LINE
8
BLACK
6
CONTINUOUS
10
3.06508
20
-4.00791
11
3.05992
21
-4.00446
0
LINE
8
BLACK
6
CONTINUOUS
10
3.05992
20
-4.00446
11
3.05554
21
-4.00008
0
LINE
8
BLACK
6
CONTINUOUS
10
3.05554
20
-4.00008
11
3.05209
21
-3.99492
0
LINE
8
BLACK
6
CONTINUOUS
10
3.05209
20
-3.99492
11
3.04971
21
-3.98919
0
LINE
8
BLACK
6
CONTINUOUS
10
3.04971
20
-3.98919
11
3.0485
21
-3.9831
0
LINE
8
BLACK
6
CONTINUOUS
10
3.0485
20
-3.9831
11
3.0485
21
-3.9769
0
LINE
8
BLACK
6
CONTINUOUS
10
3.0485
20
-3.9769
11
3.04971
21
-3.97081
0
LINE
8
BLACK
6
CONTINUOUS
10
3.04971
20
-3.97081
11
3.05209
21
-3.96508
0
LINE
8
BLACK
6
CONTINUOUS
10
3.05209
20
-3.96508
11
3.05554
21
-3.95992
0
LINE
8
BLACK
6
CONTINUOUS
10
3.05554
20
-3.95992
11
3.05992
21
-3.95554
0
LINE
8
BLACK
6
CONTINUOUS
10
3.05992
20
-3.95554
11
3.06508
21
-3.95209
0
LINE
8
BLACK
6
CONTINUOUS
10
3.06508
20
-3.95209
11
3.07081
21
-3.94971
0
LINE
8
BLACK
6
CONTINUOUS
10
3.07081
20
-3.94971
11
3.0769
21
-3.9485
0
LINE
8
BLACK
6
CONTINUOUS
10
3.0769
20
-3.9485
11
3.0831
21
-3.9485
0
LINE
8
BLACK
6
CONTINUOUS
10
3.0831
20
-3.9485
11
3.08919
21
-3.94971
0
LINE
8
BLACK
6
CONTINUOUS
10
2.97244
20
-4.00591
11
2.93307
21
-4.00591
0
LINE
8
BLACK
6
CONTINUOUS
10
2.93307
20
-4.00591
11
2.93307
21
-3.96654
0
LINE
8
BLACK
6
CONTINUOUS
10
2.93307
20
-3.96654
11
2.97244
21
-3.96654
0
LINE
8
BLACK
6
CONTINUOUS
10
2.97244
20
-3.96654
11
2.97244
21
-4.00591
0
LINE
8
BLACK
6
CONTINUOUS
10
3.85804
20
-3.9485
11
3.86305
21
-3.95058
0
LINE
8
BLACK
6
CONTINUOUS
10
3.86305
20
-3.95058
11
3.86757
21
-3.95359
0
LINE
8
BLACK
6
CONTINUOUS
10
3.86757
20
-3.95359
11
3.87141
21
-3.95743
0
LINE
8
BLACK
6
CONTINUOUS
10
3.87141
20
-3.95743
11
3.87442
21
-3.96195
0
LINE
8
BLACK
6
CONTINUOUS
10
3.87442
20
-3.96195
11
3.8765
21
-3.96696
0
LINE
8
BLACK
6
CONTINUOUS
10
3.8765
20
-3.96696
11
3.87756
21
-3.97229
0
LINE
8
BLACK
6
CONTINUOUS
10
3.87756
20
-3.97229
11
3.87756
21
-3.97771
0
LINE
8
BLACK
6
CONTINUOUS
10
3.87756
20
-3.97771
11
3.8765
21
-3.98304
0
LINE
8
BLACK
6
CONTINUOUS
10
3.8765
20
-3.98304
11
3.87442
21
-3.98805
0
LINE
8
BLACK
6
CONTINUOUS
10
3.87442
20
-3.98805
11
3.87141
21
-3.99257
0
LINE
8
BLACK
6
CONTINUOUS
10
3.87141
20
-3.99257
11
3.86757
21
-3.99641
0
LINE
8
BLACK
6
CONTINUOUS
10
3.86757
20
-3.99641
11
3.86305
21
-3.99942
0
LINE
8
BLACK
6
CONTINUOUS
10
3.86305
20
-3.99942
11
3.85804
21
-4.0015
0
LINE
8
BLACK
6
CONTINUOUS
10
3.85804
20
-4.0015
11
3.85271
21
-4.00256
0
LINE
8
BLACK
6
CONTINUOUS
10
3.85271
20
-4.00256
11
3.84729
21
-4.00256
0
LINE
8
BLACK
6
CONTINUOUS
10
3.84729
20
-4.00256
11
3.84196
21
-4.0015
0
LINE
8
BLACK
6
CONTINUOUS
10
3.84196
20
-4.0015
11
3.83695
21
-3.99942
0
LINE
8
BLACK
6
CONTINUOUS
10
3.83695
20
-3.99942
11
3.83243
21
-3.99641
0
LINE
8
BLACK
6
CONTINUOUS
10
3.83243
20
-3.99641
11
3.82859
21
-3.99257
0
LINE
8
BLACK
6
CONTINUOUS
10
3.82859
20
-3.99257
11
3.82558
21
-3.98805
0
LINE
8
BLACK
6
CONTINUOUS
10
3.82558
20
-3.98805
11
3.8235
21
-3.98304
0
LINE
8
BLACK
6
CONTINUOUS
10
3.8235
20
-3.98304
11
3.82244
21
-3.97771
0
LINE
8
BLACK
6
CONTINUOUS
10
3.82244
20
-3.97771
11
3.82244
21
-3.97229
0
LINE
8
BLACK
6
CONTINUOUS
10
3.82244
20
-3.97229
11
3.8235
21
-3.96696
0
LINE
8
BLACK
6
CONTINUOUS
10
3.8235
20
-3.96696
11
3.82558
21
-3.96195
0
LINE
8
BLACK
6
CONTINUOUS
10
3.82558
20
-3.96195
11
3.82859
21
-3.95743
0
LINE
8
BLACK
6
CONTINUOUS
10
3.82859
20
-3.95743
11
3.83243
21
-3.95359
0
LINE
8
BLACK
6
CONTINUOUS
10
3.83243
20
-3.95359
11
3.83695
21
-3.95058
0
LINE
8
BLACK
6
CONTINUOUS
10
3.83695
20
-3.95058
11
3.84196
21
-3.9485
0
LINE
8
BLACK
6
CONTINUOUS
10
3.84196
20
-3.9485
11
3.84729
21
-3.94744
0
LINE
8
BLACK
6
CONTINUOUS
10
3.84729
20
-3.94744
11
3.85271
21
-3.94744
0
LINE
8
BLACK
6
CONTINUOUS
10
3.85271
20
-3.94744
11
3.85804
21
-3.9485
0
LINE
8
BLACK
6
CONTINUOUS
10
4.04692
20
-3.86896
11
4.05286
21
-3.87076
0
LINE
8
BLACK
6
CONTINUOUS
10
4.05286
20
-3.87076
11
4.05833
21
-3.87369
0
LINE
8
BLACK
6
CONTINUOUS
10
4.05833
20
-3.87369
11
4.06313
21
-3.87762
0
LINE
8
BLACK
6
CONTINUOUS
10
4.06313
20
-3.87762
11
4.06706
21
-3.88242
0
LINE
8
BLACK
6
CONTINUOUS
10
4.06706
20
-3.88242
11
4.06999
21
-3.88789
0
LINE
8
BLACK
6
CONTINUOUS
10
4.06999
20
-3.88789
11
4.07179
21
-3.89383
0
LINE
8
BLACK
6
CONTINUOUS
10
4.07179
20
-3.89383
11
4.0724
21
-3.9
0
LINE
8
BLACK
6
CONTINUOUS
10
4.0724
20
-3.9
11
4.07179
21
-3.90617
0
LINE
8
BLACK
6
CONTINUOUS
10
4.07179
20
-3.90617
11
4.06999
21
-3.91211
0
LINE
8
BLACK
6
CONTINUOUS
10
4.06999
20
-3.91211
11
4.06706
21
-3.91758
0
LINE
8
BLACK
6
CONTINUOUS
10
4.06706
20
-3.91758
11
4.06313
21
-3.92238
0
LINE
8
BLACK
6
CONTINUOUS
10
4.06313
20
-3.92238
11
4.05833
21
-3.92631
0
LINE
8
BLACK
6
CONTINUOUS
10
4.05833
20
-3.92631
11
4.05286
21
-3.92924
0
LINE
8
BLACK
6
CONTINUOUS
10
4.05286
20
-3.92924
11
4.04692
21
-3.93104
0
LINE
8
BLACK
6
CONTINUOUS
10
4.04692
20
-3.93104
11
4.0423
21
-3.9315
0
LINE
8
BLACK
6
CONTINUOUS
10
4.0423
20
-3.9315
11
4.0077
21
-3.9315
0
LINE
8
BLACK
6
CONTINUOUS
10
4.0077
20
-3.9315
11
4.00308
21
-3.93104
0
LINE
8
BLACK
6
CONTINUOUS
10
4.00308
20
-3.93104
11
3.99714
21
-3.92924
0
LINE
8
BLACK
6
CONTINUOUS
10
3.99714
20
-3.92924
11
3.99167
21
-3.92631
0
LINE
8
BLACK
6
CONTINUOUS
10
3.99167
20
-3.92631
11
3.98687
21
-3.92238
0
LINE
8
BLACK
6
CONTINUOUS
10
3.98687
20
-3.92238
11
3.98294
21
-3.91758
0
LINE
8
BLACK
6
CONTINUOUS
10
3.98294
20
-3.91758
11
3.98001
21
-3.91211
0
LINE
8
BLACK
6
CONTINUOUS
10
3.98001
20
-3.91211
11
3.97821
21
-3.90617
0
LINE
8
BLACK
6
CONTINUOUS
10
3.97821
20
-3.90617
11
3.9776
21
-3.9
0
LINE
8
BLACK
6
CONTINUOUS
10
3.9776
20
-3.9
11
3.97821
21
-3.89383
0
LINE
8
BLACK
6
CONTINUOUS
10
3.97821
20
-3.89383
11
3.98001
21
-3.88789
0
LINE
8
BLACK
6
CONTINUOUS
10
3.98001
20
-3.88789
11
3.98294
21
-3.88242
0
LINE
8
BLACK
6
CONTINUOUS
10
3.98294
20
-3.88242
11
3.98687
21
-3.87762
0
LINE
8
BLACK
6
CONTINUOUS
10
3.98687
20
-3.87762
11
3.99167
21
-3.87369
0
LINE
8
BLACK
6
CONTINUOUS
10
3.99167
20
-3.87369
11
3.99714
21
-3.87076
0
LINE
8
BLACK
6
CONTINUOUS
10
3.99714
20
-3.87076
11
4.00308
21
-3.86896
0
LINE
8
BLACK
6
CONTINUOUS
10
4.00308
20
-3.86896
11
4.0077
21
-3.8685
0
LINE
8
BLACK
6
CONTINUOUS
10
4.0077
20
-3.8685
11
4.0423
21
-3.8685
0
LINE
8
BLACK
6
CONTINUOUS
10
4.0423
20
-3.8685
11
4.04692
21
-3.86896
0
LINE
8
BLACK
6
CONTINUOUS
10
4.34692
20
-3.86896
11
4.35286
21
-3.87076
0
LINE
8
BLACK
6
CONTINUOUS
10
4.35286
20
-3.87076
11
4.35833
21
-3.87369
0
LINE
8
BLACK
6
CONTINUOUS
10
4.35833
20
-3.87369
11
4.36313
21
-3.87762
0
LINE
8
BLACK
6
CONTINUOUS
10
4.36313
20
-3.87762
11
4.36706
21
-3.88242
0
LINE
8
BLACK
6
CONTINUOUS
10
4.36706
20
-3.88242
11
4.36999
21
-3.88789
0
LINE
8
BLACK
6
CONTINUOUS
10
4.36999
20
-3.88789
11
4.37179
21
-3.89383
0
LINE
8
BLACK
6
CONTINUOUS
10
4.37179
20
-3.89383
11
4.3724
21
-3.9
0
LINE
8
BLACK
6
CONTINUOUS
10
4.3724
20
-3.9
11
4.37179
21
-3.90617
0
LINE
8
BLACK
6
CONTINUOUS
10
4.37179
20
-3.90617
11
4.36999
21
-3.91211
0
LINE
8
BLACK
6
CONTINUOUS
10
4.36999
20
-3.91211
11
4.36706
21
-3.91758
0
LINE
8
BLACK
6
CONTINUOUS
10
4.36706
20
-3.91758
11
4.36313
21
-3.92238
0
LINE
8
BLACK
6
CONTINUOUS
10
4.36313
20
-3.92238
11
4.35833
21
-3.92631
0
LINE
8
BLACK
6
CONTINUOUS
10
4.35833
20
-3.92631
11
4.35286
21
-3.92924
0
LINE
8
BLACK
6
CONTINUOUS
10
4.35286
20
-3.92924
11
4.34692
21
-3.93104
0
LINE
8
BLACK
6
CONTINUOUS
10
4.34692
20
-3.93104
11
4.3423
21
-3.9315
0
LINE
8
BLACK
6
CONTINUOUS
10
4.3423
20
-3.9315
11
4.30771
21
-3.9315
0
LINE
8
BLACK
6
CONTINUOUS
10
4.30771
20
-3.9315
11
4.30308
21
-3.93104
0
LINE
8
BLACK
6
CONTINUOUS
10
4.30308
20
-3.93104
11
4.29714
21
-3.92924
0
LINE
8
BLACK
6
CONTINUOUS
10
4.29714
20
-3.92924
11
4.29167
21
-3.92631
0
LINE
8
BLACK
6
CONTINUOUS
10
4.29167
20
-3.92631
11
4.28687
21
-3.92238
0
LINE
8
BLACK
6
CONTINUOUS
10
4.28687
20
-3.92238
11
4.28294
21
-3.91758
0
LINE
8
BLACK
6
CONTINUOUS
10
4.28294
20
-3.91758
11
4.28001
21
-3.91211
0
LINE
8
BLACK
6
CONTINUOUS
10
4.28001
20
-3.91211
11
4.27821
21
-3.90617
0
LINE
8
BLACK
6
CONTINUOUS
10
4.27821
20
-3.90617
11
4.2776
21
-3.9
0
LINE
8
BLACK
6
CONTINUOUS
10
4.2776
20
-3.9
11
4.27821
21
-3.89383
0
LINE
8
BLACK
6
CONTINUOUS
10
4.27821
20
-3.89383
11
4.28001
21
-3.88789
0
LINE
8
BLACK
6
CONTINUOUS
10
4.28001
20
-3.88789
11
4.28294
21
-3.88242
0
LINE
8
BLACK
6
CONTINUOUS
10
4.28294
20
-3.88242
11
4.28687
21
-3.87762
0
LINE
8
BLACK
6
CONTINUOUS
10
4.28687
20
-3.87762
11
4.29167
21
-3.87369
0
LINE
8
BLACK
6
CONTINUOUS
10
4.29167
20
-3.87369
11
4.29714
21
-3.87076
0
LINE
8
BLACK
6
CONTINUOUS
10
4.29714
20
-3.87076
11
4.30308
21
-3.86896
0
LINE
8
BLACK
6
CONTINUOUS
10
4.30308
20
-3.86896
11
4.30771
21
-3.8685
0
LINE
8
BLACK
6
CONTINUOUS
10
4.30771
20
-3.8685
11
4.3423
21
-3.8685
0
LINE
8
BLACK
6
CONTINUOUS
10
4.3423
20
-3.8685
11
4.34692
21
-3.86896
0
LINE
8
BLACK
6
CONTINUOUS
10
3.77192
20
-3.86896
11
3.77786
21
-3.87076
0
LINE
8
BLACK
6
CONTINUOUS
10
3.77786
20
-3.87076
11
3.78333
21
-3.87369
0
LINE
8
BLACK
6
CONTINUOUS
10
3.78333
20
-3.87369
11
3.78813
21
-3.87762
0
LINE
8
BLACK
6
CONTINUOUS
10
3.78813
20
-3.87762
11
3.79206
21
-3.88242
0
LINE
8
BLACK
6
CONTINUOUS
10
3.79206
20
-3.88242
11
3.79499
21
-3.88789
0
LINE
8
BLACK
6
CONTINUOUS
10
3.79499
20
-3.88789
11
3.79679
21
-3.89383
0
LINE
8
BLACK
6
CONTINUOUS
10
3.79679
20
-3.89383
11
3.7974
21
-3.9
0
LINE
8
BLACK
6
CONTINUOUS
10
3.7974
20
-3.9
11
3.79679
21
-3.90617
0
LINE
8
BLACK
6
CONTINUOUS
10
3.79679
20
-3.90617
11
3.79499
21
-3.91211
0
LINE
8
BLACK
6
CONTINUOUS
10
3.79499
20
-3.91211
11
3.79206
21
-3.91758
0
LINE
8
BLACK
6
CONTINUOUS
10
3.79206
20
-3.91758
11
3.78813
21
-3.92238
0
LINE
8
BLACK
6
CONTINUOUS
10
3.78813
20
-3.92238
11
3.78333
21
-3.92631
0
LINE
8
BLACK
6
CONTINUOUS
10
3.78333
20
-3.92631
11
3.77786
21
-3.92924
0
LINE
8
BLACK
6
CONTINUOUS
10
3.77786
20
-3.92924
11
3.77192
21
-3.93104
0
LINE
8
BLACK
6
CONTINUOUS
10
3.77192
20
-3.93104
11
3.76729
21
-3.9315
0
LINE
8
BLACK
6
CONTINUOUS
10
3.76729
20
-3.9315
11
3.7327
21
-3.9315
0
LINE
8
BLACK
6
CONTINUOUS
10
3.7327
20
-3.9315
11
3.72808
21
-3.93104
0
LINE
8
BLACK
6
CONTINUOUS
10
3.72808
20
-3.93104
11
3.72214
21
-3.92924
0
LINE
8
BLACK
6
CONTINUOUS
10
3.72214
20
-3.92924
11
3.71667
21
-3.92631
0
LINE
8
BLACK
6
CONTINUOUS
10
3.71667
20
-3.92631
11
3.71187
21
-3.92238
0
LINE
8
BLACK
6
CONTINUOUS
10
3.71187
20
-3.92238
11
3.70794
21
-3.91758
0
LINE
8
BLACK
6
CONTINUOUS
10
3.70794
20
-3.91758
11
3.70501
21
-3.91211
0
LINE
8
BLACK
6
CONTINUOUS
10
3.70501
20
-3.91211
11
3.70321
21
-3.90617
0
LINE
8
BLACK
6
CONTINUOUS
10
3.70321
20
-3.90617
11
3.7026
21
-3.9
0
LINE
8
BLACK
6
CONTINUOUS
10
3.7026
20
-3.9
11
3.70321
21
-3.89383
0
LINE
8
BLACK
6
CONTINUOUS
10
3.70321
20
-3.89383
11
3.70501
21
-3.88789
0
LINE
8
BLACK
6
CONTINUOUS
10
3.70501
20
-3.88789
11
3.70794
21
-3.88242
0
LINE
8
BLACK
6
CONTINUOUS
10
3.70794
20
-3.88242
11
3.71187
21
-3.87762
0
LINE
8
BLACK
6
CONTINUOUS
10
3.71187
20
-3.87762
11
3.71667
21
-3.87369
0
LINE
8
BLACK
6
CONTINUOUS
10
3.71667
20
-3.87369
11
3.72214
21
-3.87076
0
LINE
8
BLACK
6
CONTINUOUS
10
3.72214
20
-3.87076
11
3.72808
21
-3.86896
0
LINE
8
BLACK
6
CONTINUOUS
10
3.72808
20
-3.86896
11
3.7327
21
-3.8685
0
LINE
8
BLACK
6
CONTINUOUS
10
3.7327
20
-3.8685
11
3.76729
21
-3.8685
0
LINE
8
BLACK
6
CONTINUOUS
10
3.76729
20
-3.8685
11
3.77192
21
-3.86896
0
LINE
8
BLACK
6
CONTINUOUS
10
3.47192
20
-3.86896
11
3.47786
21
-3.87076
0
LINE
8
BLACK
6
CONTINUOUS
10
3.47786
20
-3.87076
11
3.48333
21
-3.87369
0
LINE
8
BLACK
6
CONTINUOUS
10
3.48333
20
-3.87369
11
3.48813
21
-3.87762
0
LINE
8
BLACK
6
CONTINUOUS
10
3.48813
20
-3.87762
11
3.49206
21
-3.88242
0
LINE
8
BLACK
6
CONTINUOUS
10
3.49206
20
-3.88242
11
3.49499
21
-3.88789
0
LINE
8
BLACK
6
CONTINUOUS
10
3.49499
20
-3.88789
11
3.49679
21
-3.89383
0
LINE
8
BLACK
6
CONTINUOUS
10
3.49679
20
-3.89383
11
3.4974
21
-3.9
0
LINE
8
BLACK
6
CONTINUOUS
10
3.4974
20
-3.9
11
3.49679
21
-3.90617
0
LINE
8
BLACK
6
CONTINUOUS
10
3.49679
20
-3.90617
11
3.49499
21
-3.91211
0
LINE
8
BLACK
6
CONTINUOUS
10
3.49499
20
-3.91211
11
3.49206
21
-3.91758
0
LINE
8
BLACK
6
CONTINUOUS
10
3.49206
20
-3.91758
11
3.48813
21
-3.92238
0
LINE
8
BLACK
6
CONTINUOUS
10
3.48813
20
-3.92238
11
3.48333
21
-3.92631
0
LINE
8
BLACK
6
CONTINUOUS
10
3.48333
20
-3.92631
11
3.47786
21
-3.92924
0
LINE
8
BLACK
6
CONTINUOUS
10
3.47786
20
-3.92924
11
3.47192
21
-3.93104
0
LINE
8
BLACK
6
CONTINUOUS
10
3.47192
20
-3.93104
11
3.4673
21
-3.9315
0
LINE
8
BLACK
6
CONTINUOUS
10
3.4673
20
-3.9315
11
3.4327
21
-3.9315
0
LINE
8
BLACK
6
CONTINUOUS
10
3.4327
20
-3.9315
11
3.42808
21
-3.93104
0
LINE
8
BLACK
6
CONTINUOUS
10
3.42808
20
-3.93104
11
3.42214
21
-3.92924
0
LINE
8
BLACK
6
CONTINUOUS
10
3.42214
20
-3.92924
11
3.41667
21
-3.92631
0
LINE
8
BLACK
6
CONTINUOUS
10
3.41667
20
-3.92631
11
3.41187
21
-3.92238
0
LINE
8
BLACK
6
CONTINUOUS
10
3.41187
20
-3.92238
11
3.40794
21
-3.91758
0
LINE
8
BLACK
6
CONTINUOUS
10
3.40794
20
-3.91758
11
3.40501
21
-3.91211
0
LINE
8
BLACK
6
CONTINUOUS
10
3.40501
20
-3.91211
11
3.40321
21
-3.90617
0
LINE
8
BLACK
6
CONTINUOUS
10
3.40321
20
-3.90617
11
3.4026
21
-3.9
0
LINE
8
BLACK
6
CONTINUOUS
10
3.4026
20
-3.9
11
3.40321
21
-3.89383
0
LINE
8
BLACK
6
CONTINUOUS
10
3.40321
20
-3.89383
11
3.40501
21
-3.88789
0
LINE
8
BLACK
6
CONTINUOUS
10
3.40501
20
-3.88789
11
3.40794
21
-3.88242
0
LINE
8
BLACK
6
CONTINUOUS
10
3.40794
20
-3.88242
11
3.41187
21
-3.87762
0
LINE
8
BLACK
6
CONTINUOUS
10
3.41187
20
-3.87762
11
3.41667
21
-3.87369
0
LINE
8
BLACK
6
CONTINUOUS
10
3.41667
20
-3.87369
11
3.42214
21
-3.87076
0
LINE
8
BLACK
6
CONTINUOUS
10
3.42214
20
-3.87076
11
3.42808
21
-3.86896
0
LINE
8
BLACK
6
CONTINUOUS
10
3.42808
20
-3.86896
11
3.4327
21
-3.8685
0
LINE
8
BLACK
6
CONTINUOUS
10
3.4327
20
-3.8685
11
3.4673
21
-3.8685
0
LINE
8
BLACK
6
CONTINUOUS
10
3.4673
20
-3.8685
11
3.47192
21
-3.86896
0
LINE
8
BLACK
6
CONTINUOUS
10
3.85804
20
-3.8735
11
3.86305
21
-3.87558
0
LINE
8
BLACK
6
CONTINUOUS
10
3.86305
20
-3.87558
11
3.86757
21
-3.87859
0
LINE
8
BLACK
6
CONTINUOUS
10
3.86757
20
-3.87859
11
3.87141
21
-3.88243
0
LINE
8
BLACK
6
CONTINUOUS
10
3.87141
20
-3.88243
11
3.87442
21
-3.88695
0
LINE
8
BLACK
6
CONTINUOUS
10
3.87442
20
-3.88695
11
3.8765
21
-3.89196
0
LINE
8
BLACK
6
CONTINUOUS
10
3.8765
20
-3.89196
11
3.87756
21
-3.89729
0
LINE
8
BLACK
6
CONTINUOUS
10
3.87756
20
-3.89729
11
3.87756
21
-3.90271
0
LINE
8
BLACK
6
CONTINUOUS
10
3.87756
20
-3.90271
11
3.8765
21
-3.90804
0
LINE
8
BLACK
6
CONTINUOUS
10
3.8765
20
-3.90804
11
3.87442
21
-3.91305
0
LINE
8
BLACK
6
CONTINUOUS
10
3.87442
20
-3.91305
11
3.87141
21
-3.91757
0
LINE
8
BLACK
6
CONTINUOUS
10
3.87141
20
-3.91757
11
3.86757
21
-3.92141
0
LINE
8
BLACK
6
CONTINUOUS
10
3.86757
20
-3.92141
11
3.86305
21
-3.92442
0
LINE
8
BLACK
6
CONTINUOUS
10
3.86305
20
-3.92442
11
3.85804
21
-3.9265
0
LINE
8
BLACK
6
CONTINUOUS
10
3.85804
20
-3.9265
11
3.85271
21
-3.92756
0
LINE
8
BLACK
6
CONTINUOUS
10
3.85271
20
-3.92756
11
3.84729
21
-3.92756
0
LINE
8
BLACK
6
CONTINUOUS
10
3.84729
20
-3.92756
11
3.84196
21
-3.9265
0
LINE
8
BLACK
6
CONTINUOUS
10
3.84196
20
-3.9265
11
3.83695
21
-3.92442
0
LINE
8
BLACK
6
CONTINUOUS
10
3.83695
20
-3.92442
11
3.83243
21
-3.92141
0
LINE
8
BLACK
6
CONTINUOUS
10
3.83243
20
-3.92141
11
3.82859
21
-3.91757
0
LINE
8
BLACK
6
CONTINUOUS
10
3.82859
20
-3.91757
11
3.82558
21
-3.91305
0
LINE
8
BLACK
6
CONTINUOUS
10
3.82558
20
-3.91305
11
3.8235
21
-3.90804
0
LINE
8
BLACK
6
CONTINUOUS
10
3.8235
20
-3.90804
11
3.82244
21
-3.90271
0
LINE
8
BLACK
6
CONTINUOUS
10
3.82244
20
-3.90271
11
3.82244
21
-3.89729
0
LINE
8
BLACK
6
CONTINUOUS
10
3.82244
20
-3.89729
11
3.8235
21
-3.89196
0
LINE
8
BLACK
6
CONTINUOUS
10
3.8235
20
-3.89196
11
3.82558
21
-3.88695
0
LINE
8
BLACK
6
CONTINUOUS
10
3.82558
20
-3.88695
11
3.82859
21
-3.88243
0
LINE
8
BLACK
6
CONTINUOUS
10
3.82859
20
-3.88243
11
3.83243
21
-3.87859
0
LINE
8
BLACK
6
CONTINUOUS
10
3.83243
20
-3.87859
11
3.83695
21
-3.87558
0
LINE
8
BLACK
6
CONTINUOUS
10
3.83695
20
-3.87558
11
3.84196
21
-3.8735
0
LINE
8
BLACK
6
CONTINUOUS
10
3.84196
20
-3.8735
11
3.84729
21
-3.87244
0
LINE
8
BLACK
6
CONTINUOUS
10
3.84729
20
-3.87244
11
3.85271
21
-3.87244
0
LINE
8
BLACK
6
CONTINUOUS
10
3.85271
20
-3.87244
11
3.85804
21
-3.8735
0
LINE
8
BLACK
6
CONTINUOUS
10
4.78304
20
-3.8735
11
4.78805
21
-3.87558
0
LINE
8
BLACK
6
CONTINUOUS
10
4.78805
20
-3.87558
11
4.79257
21
-3.87859
0
LINE
8
BLACK
6
CONTINUOUS
10
4.79257
20
-3.87859
11
4.79641
21
-3.88243
0
LINE
8
BLACK
6
CONTINUOUS
10
4.79641
20
-3.88243
11
4.79942
21
-3.88695
0
LINE
8
BLACK
6
CONTINUOUS
10
4.79942
20
-3.88695
11
4.8015
21
-3.89196
0
LINE
8
BLACK
6
CONTINUOUS
10
4.8015
20
-3.89196
11
4.80256
21
-3.89729
0
LINE
8
BLACK
6
CONTINUOUS
10
4.80256
20
-3.89729
11
4.80256
21
-3.90271
0
LINE
8
BLACK
6
CONTINUOUS
10
4.80256
20
-3.90271
11
4.8015
21
-3.90804
0
LINE
8
BLACK
6
CONTINUOUS
10
4.8015
20
-3.90804
11
4.79942
21
-3.91305
0
LINE
8
BLACK
6
CONTINUOUS
10
4.79942
20
-3.91305
11
4.79641
21
-3.91757
0
LINE
8
BLACK
6
CONTINUOUS
10
4.79641
20
-3.91757
11
4.79257
21
-3.92141
0
LINE
8
BLACK
6
CONTINUOUS
10
4.79257
20
-3.92141
11
4.78805
21
-3.92442
0
LINE
8
BLACK
6
CONTINUOUS
10
4.78805
20
-3.92442
11
4.78304
21
-3.9265
0
LINE
8
BLACK
6
CONTINUOUS
10
4.78304
20
-3.9265
11
4.77771
21
-3.92756
0
LINE
8
BLACK
6
CONTINUOUS
10
4.77771
20
-3.92756
11
4.77229
21
-3.92756
0
LINE
8
BLACK
6
CONTINUOUS
10
4.77229
20
-3.92756
11
4.76696
21
-3.9265
0
LINE
8
BLACK
6
CONTINUOUS
10
4.76696
20
-3.9265
11
4.76195
21
-3.92442
0
LINE
8
BLACK
6
CONTINUOUS
10
4.76195
20
-3.92442
11
4.75743
21
-3.92141
0
LINE
8
BLACK
6
CONTINUOUS
10
4.75743
20
-3.92141
11
4.75359
21
-3.91757
0
LINE
8
BLACK
6
CONTINUOUS
10
4.75359
20
-3.91757
11
4.75058
21
-3.91305
0
LINE
8
BLACK
6
CONTINUOUS
10
4.75058
20
-3.91305
11
4.7485
21
-3.90804
0
LINE
8
BLACK
6
CONTINUOUS
10
4.7485
20
-3.90804
11
4.74744
21
-3.90271
0
LINE
8
BLACK
6
CONTINUOUS
10
4.74744
20
-3.90271
11
4.74744
21
-3.89729
0
LINE
8
BLACK
6
CONTINUOUS
10
4.74744
20
-3.89729
11
4.7485
21
-3.89196
0
LINE
8
BLACK
6
CONTINUOUS
10
4.7485
20
-3.89196
11
4.75058
21
-3.88695
0
LINE
8
BLACK
6
CONTINUOUS
10
4.75058
20
-3.88695
11
4.75359
21
-3.88243
0
LINE
8
BLACK
6
CONTINUOUS
10
4.75359
20
-3.88243
11
4.75743
21
-3.87859
0
LINE
8
BLACK
6
CONTINUOUS
10
4.75743
20
-3.87859
11
4.76195
21
-3.87558
0
LINE
8
BLACK
6
CONTINUOUS
10
4.76195
20
-3.87558
11
4.76696
21
-3.8735
0
LINE
8
BLACK
6
CONTINUOUS
10
4.76696
20
-3.8735
11
4.77229
21
-3.87244
0
LINE
8
BLACK
6
CONTINUOUS
10
4.77229
20
-3.87244
11
4.77771
21
-3.87244
0
LINE
8
BLACK
6
CONTINUOUS
10
4.77771
20
-3.87244
11
4.78304
21
-3.8735
0
LINE
8
BLACK
6
CONTINUOUS
10
4.48304
20
-3.8735
11
4.48805
21
-3.87558
0
LINE
8
BLACK
6
CONTINUOUS
10
4.48805
20
-3.87558
11
4.49257
21
-3.87859
0
LINE
8
BLACK
6
CONTINUOUS
10
4.49257
20
-3.87859
11
4.49641
21
-3.88243
0
LINE
8
BLACK
6
CONTINUOUS
10
4.49641
20
-3.88243
11
4.49942
21
-3.88695
0
LINE
8
BLACK
6
CONTINUOUS
10
4.49942
20
-3.88695
11
4.5015
21
-3.89196
0
LINE
8
BLACK
6
CONTINUOUS
10
4.5015
20
-3.89196
11
4.50256
21
-3.89729
0
LINE
8
BLACK
6
CONTINUOUS
10
4.50256
20
-3.89729
11
4.50256
21
-3.90271
0
LINE
8
BLACK
6
CONTINUOUS
10
4.50256
20
-3.90271
11
4.5015
21
-3.90804
0
LINE
8
BLACK
6
CONTINUOUS
10
4.5015
20
-3.90804
11
4.49942
21
-3.91305
0
LINE
8
BLACK
6
CONTINUOUS
10
4.49942
20
-3.91305
11
4.49641
21
-3.91757
0
LINE
8
BLACK
6
CONTINUOUS
10
4.49641
20
-3.91757
11
4.49257
21
-3.92141
0
LINE
8
BLACK
6
CONTINUOUS
10
4.49257
20
-3.92141
11
4.48805
21
-3.92442
0
LINE
8
BLACK
6
CONTINUOUS
10
4.48805
20
-3.92442
11
4.48304
21
-3.9265
0
LINE
8
BLACK
6
CONTINUOUS
10
4.48304
20
-3.9265
11
4.47771
21
-3.92756
0
LINE
8
BLACK
6
CONTINUOUS
10
4.47771
20
-3.92756
11
4.47229
21
-3.92756
0
LINE
8
BLACK
6
CONTINUOUS
10
4.47229
20
-3.92756
11
4.46696
21
-3.9265
0
LINE
8
BLACK
6
CONTINUOUS
10
4.46696
20
-3.9265
11
4.46195
21
-3.92442
0
LINE
8
BLACK
6
CONTINUOUS
10
4.46195
20
-3.92442
11
4.45743
21
-3.92141
0
LINE
8
BLACK
6
CONTINUOUS
10
4.45743
20
-3.92141
11
4.45359
21
-3.91757
0
LINE
8
BLACK
6
CONTINUOUS
10
4.45359
20
-3.91757
11
4.45058
21
-3.91305
0
LINE
8
BLACK
6
CONTINUOUS
10
4.45058
20
-3.91305
11
4.4485
21
-3.90804
0
LINE
8
BLACK
6
CONTINUOUS
10
4.4485
20
-3.90804
11
4.44744
21
-3.90271
0
LINE
8
BLACK
6
CONTINUOUS
10
4.44744
20
-3.90271
11
4.44744
21
-3.89729
0
LINE
8
BLACK
6
CONTINUOUS
10
4.44744
20
-3.89729
11
4.4485
21
-3.89196
0
LINE
8
BLACK
6
CONTINUOUS
10
4.4485
20
-3.89196
11
4.45058
21
-3.88695
0
LINE
8
BLACK
6
CONTINUOUS
10
4.45058
20
-3.88695
11
4.45359
21
-3.88243
0
LINE
8
BLACK
6
CONTINUOUS
10
4.45359
20
-3.88243
11
4.45743
21
-3.87859
0
LINE
8
BLACK
6
CONTINUOUS
10
4.45743
20
-3.87859
11
4.46195
21
-3.87558
0
LINE
8
BLACK
6
CONTINUOUS
10
4.46195
20
-3.87558
11
4.46696
21
-3.8735
0
LINE
8
BLACK
6
CONTINUOUS
10
4.46696
20
-3.8735
11
4.47229
21
-3.87244
0
LINE
8
BLACK
6
CONTINUOUS
10
4.47229
20
-3.87244
11
4.47771
21
-3.87244
0
LINE
8
BLACK
6
CONTINUOUS
10
4.47771
20
-3.87244
11
4.48304
21
-3.8735
0
LINE
8
BLACK
6
CONTINUOUS
10
3.08919
20
-3.85129
11
3.09492
21
-3.85366
0
LINE
8
BLACK
6
CONTINUOUS
10
3.09492
20
-3.85366
11
3.10008
21
-3.85711
0
LINE
8
BLACK
6
CONTINUOUS
10
3.10008
20
-3.85711
11
3.10446
21
-3.8615
0
LINE
8
BLACK
6
CONTINUOUS
10
3.10446
20
-3.8615
11
3.10791
21
-3.86666
0
LINE
8
BLACK
6
CONTINUOUS
10
3.10791
20
-3.86666
11
3.11029
21
-3.87239
0
LINE
8
BLACK
6
CONTINUOUS
10
3.11029
20
-3.87239
11
3.1115
21
-3.87847
0
LINE
8
BLACK
6
CONTINUOUS
10
3.1115
20
-3.87847
11
3.1115
21
-3.88468
0
LINE
8
BLACK
6
CONTINUOUS
10
3.1115
20
-3.88468
11
3.11029
21
-3.89076
0
LINE
8
BLACK
6
CONTINUOUS
10
3.11029
20
-3.89076
11
3.10791
21
-3.89649
0
LINE
8
BLACK
6
CONTINUOUS
10
3.10791
20
-3.89649
11
3.10446
21
-3.90165
0
LINE
8
BLACK
6
CONTINUOUS
10
3.10446
20
-3.90165
11
3.10008
21
-3.90604
0
LINE
8
BLACK
6
CONTINUOUS
10
3.10008
20
-3.90604
11
3.09492
21
-3.90949
0
LINE
8
BLACK
6
CONTINUOUS
10
3.09492
20
-3.90949
11
3.08919
21
-3.91186
0
LINE
8
BLACK
6
CONTINUOUS
10
3.08919
20
-3.91186
11
3.0831
21
-3.91307
0
LINE
8
BLACK
6
CONTINUOUS
10
3.0831
20
-3.91307
11
3.0769
21
-3.91307
0
LINE
8
BLACK
6
CONTINUOUS
10
3.0769
20
-3.91307
11
3.07081
21
-3.91186
0
LINE
8
BLACK
6
CONTINUOUS
10
3.07081
20
-3.91186
11
3.06508
21
-3.90949
0
LINE
8
BLACK
6
CONTINUOUS
10
3.06508
20
-3.90949
11
3.05992
21
-3.90604
0
LINE
8
BLACK
6
CONTINUOUS
10
3.05992
20
-3.90604
11
3.05554
21
-3.90165
0
LINE
8
BLACK
6
CONTINUOUS
10
3.05554
20
-3.90165
11
3.05209
21
-3.89649
0
LINE
8
BLACK
6
CONTINUOUS
10
3.05209
20
-3.89649
11
3.04971
21
-3.89076
0
LINE
8
BLACK
6
CONTINUOUS
10
3.04971
20
-3.89076
11
3.0485
21
-3.88468
0
LINE
8
BLACK
6
CONTINUOUS
10
3.0485
20
-3.88468
11
3.0485
21
-3.87847
0
LINE
8
BLACK
6
CONTINUOUS
10
3.0485
20
-3.87847
11
3.04971
21
-3.87239
0
LINE
8
BLACK
6
CONTINUOUS
10
3.04971
20
-3.87239
11
3.05209
21
-3.86666
0
LINE
8
BLACK
6
CONTINUOUS
10
3.05209
20
-3.86666
11
3.05554
21
-3.8615
0
LINE
8
BLACK
6
CONTINUOUS
10
3.05554
20
-3.8615
11
3.05992
21
-3.85711
0
LINE
8
BLACK
6
CONTINUOUS
10
3.05992
20
-3.85711
11
3.06508
21
-3.85366
0
LINE
8
BLACK
6
CONTINUOUS
10
3.06508
20
-3.85366
11
3.07081
21
-3.85129
0
LINE
8
BLACK
6
CONTINUOUS
10
3.07081
20
-3.85129
11
3.0769
21
-3.85008
0
LINE
8
BLACK
6
CONTINUOUS
10
3.0769
20
-3.85008
11
3.0831
21
-3.85008
0
LINE
8
BLACK
6
CONTINUOUS
10
3.0831
20
-3.85008
11
3.08919
21
-3.85129
0
LINE
8
BLACK
6
CONTINUOUS
10
3.18304
20
-3.8485
11
3.18805
21
-3.85058
0
LINE
8
BLACK
6
CONTINUOUS
10
3.18805
20
-3.85058
11
3.19257
21
-3.85359
0
LINE
8
BLACK
6
CONTINUOUS
10
3.19257
20
-3.85359
11
3.19641
21
-3.85743
0
LINE
8
BLACK
6
CONTINUOUS
10
3.19641
20
-3.85743
11
3.19942
21
-3.86195
0
LINE
8
BLACK
6
CONTINUOUS
10
3.19942
20
-3.86195
11
3.2015
21
-3.86696
0
LINE
8
BLACK
6
CONTINUOUS
10
3.2015
20
-3.86696
11
3.20256
21
-3.87229
0
LINE
8
BLACK
6
CONTINUOUS
10
3.20256
20
-3.87229
11
3.20256
21
-3.87771
0
LINE
8
BLACK
6
CONTINUOUS
10
3.20256
20
-3.87771
11
3.2015
21
-3.88304
0
LINE
8
BLACK
6
CONTINUOUS
10
3.2015
20
-3.88304
11
3.19942
21
-3.88805
0
LINE
8
BLACK
6
CONTINUOUS
10
3.19942
20
-3.88805
11
3.19641
21
-3.89257
0
LINE
8
BLACK
6
CONTINUOUS
10
3.19641
20
-3.89257
11
3.19257
21
-3.89641
0
LINE
8
BLACK
6
CONTINUOUS
10
3.19257
20
-3.89641
11
3.18805
21
-3.89942
0
LINE
8
BLACK
6
CONTINUOUS
10
3.18805
20
-3.89942
11
3.18304
21
-3.9015
0
LINE
8
BLACK
6
CONTINUOUS
10
3.18304
20
-3.9015
11
3.17771
21
-3.90256
0
LINE
8
BLACK
6
CONTINUOUS
10
3.17771
20
-3.90256
11
3.17229
21
-3.90256
0
LINE
8
BLACK
6
CONTINUOUS
10
3.17229
20
-3.90256
11
3.16696
21
-3.9015
0
LINE
8
BLACK
6
CONTINUOUS
10
3.16696
20
-3.9015
11
3.16195
21
-3.89942
0
LINE
8
BLACK
6
CONTINUOUS
10
3.16195
20
-3.89942
11
3.15743
21
-3.89641
0
LINE
8
BLACK
6
CONTINUOUS
10
3.15743
20
-3.89641
11
3.15359
21
-3.89257
0
LINE
8
BLACK
6
CONTINUOUS
10
3.15359
20
-3.89257
11
3.15058
21
-3.88805
0
LINE
8
BLACK
6
CONTINUOUS
10
3.15058
20
-3.88805
11
3.1485
21
-3.88304
0
LINE
8
BLACK
6
CONTINUOUS
10
3.1485
20
-3.88304
11
3.14744
21
-3.87771
0
LINE
8
BLACK
6
CONTINUOUS
10
3.14744
20
-3.87771
11
3.14744
21
-3.87229
0
LINE
8
BLACK
6
CONTINUOUS
10
3.14744
20
-3.87229
11
3.1485
21
-3.86696
0
LINE
8
BLACK
6
CONTINUOUS
10
3.1485
20
-3.86696
11
3.15058
21
-3.86195
0
LINE
8
BLACK
6
CONTINUOUS
10
3.15058
20
-3.86195
11
3.15359
21
-3.85743
0
LINE
8
BLACK
6
CONTINUOUS
10
3.15359
20
-3.85743
11
3.15743
21
-3.85359
0
LINE
8
BLACK
6
CONTINUOUS
10
3.15743
20
-3.85359
11
3.16195
21
-3.85058
0
LINE
8
BLACK
6
CONTINUOUS
10
3.16195
20
-3.85058
11
3.16696
21
-3.8485
0
LINE
8
BLACK
6
CONTINUOUS
10
3.16696
20
-3.8485
11
3.17229
21
-3.84744
0
LINE
8
BLACK
6
CONTINUOUS
10
3.17229
20
-3.84744
11
3.17771
21
-3.84744
0
LINE
8
BLACK
6
CONTINUOUS
10
3.17771
20
-3.84744
11
3.18304
21
-3.8485
0
LINE
8
BLACK
6
CONTINUOUS
10
5.14139
20
-3.76476
11
5.14977
21
-3.76823
0
LINE
8
BLACK
6
CONTINUOUS
10
5.14977
20
-3.76823
11
5.15732
21
-3.77328
0
LINE
8
BLACK
6
CONTINUOUS
10
5.15732
20
-3.77328
11
5.16373
21
-3.77969
0
LINE
8
BLACK
6
CONTINUOUS
10
5.16373
20
-3.77969
11
5.16877
21
-3.78724
0
LINE
8
BLACK
6
CONTINUOUS
10
5.16877
20
-3.78724
11
5.17225
21
-3.79562
0
LINE
8
BLACK
6
CONTINUOUS
10
5.17225
20
-3.79562
11
5.17402
21
-3.80452
0
LINE
8
BLACK
6
CONTINUOUS
10
5.17402
20
-3.80452
11
5.17402
21
-3.81359
0
LINE
8
BLACK
6
CONTINUOUS
10
5.17402
20
-3.81359
11
5.17225
21
-3.82249
0
LINE
8
BLACK
6
CONTINUOUS
10
5.17225
20
-3.82249
11
5.16877
21
-3.83087
0
LINE
8
BLACK
6
CONTINUOUS
10
5.16877
20
-3.83087
11
5.16373
21
-3.83842
0
LINE
8
BLACK
6
CONTINUOUS
10
5.16373
20
-3.83842
11
5.15732
21
-3.84483
0
LINE
8
BLACK
6
CONTINUOUS
10
5.15732
20
-3.84483
11
5.14977
21
-3.84988
0
LINE
8
BLACK
6
CONTINUOUS
10
5.14977
20
-3.84988
11
5.14139
21
-3.85335
0
LINE
8
BLACK
6
CONTINUOUS
10
5.14139
20
-3.85335
11
5.13249
21
-3.85512
0
LINE
8
BLACK
6
CONTINUOUS
10
5.13249
20
-3.85512
11
5.12342
21
-3.85512
0
LINE
8
BLACK
6
CONTINUOUS
10
5.12342
20
-3.85512
11
5.11452
21
-3.85335
0
LINE
8
BLACK
6
CONTINUOUS
10
5.11452
20
-3.85335
11
5.10613
21
-3.84988
0
LINE
8
BLACK
6
CONTINUOUS
10
5.10613
20
-3.84988
11
5.09859
21
-3.84483
0
LINE
8
BLACK
6
CONTINUOUS
10
5.09859
20
-3.84483
11
5.09217
21
-3.83842
0
LINE
8
BLACK
6
CONTINUOUS
10
5.09217
20
-3.83842
11
5.08713
21
-3.83087
0
LINE
8
BLACK
6
CONTINUOUS
10
5.08713
20
-3.83087
11
5.08366
21
-3.82249
0
LINE
8
BLACK
6
CONTINUOUS
10
5.08366
20
-3.82249
11
5.08189
21
-3.81359
0
LINE
8
BLACK
6
CONTINUOUS
10
5.08189
20
-3.81359
11
5.08189
21
-3.80452
0
LINE
8
BLACK
6
CONTINUOUS
10
5.08189
20
-3.80452
11
5.08366
21
-3.79562
0
LINE
8
BLACK
6
CONTINUOUS
10
5.08366
20
-3.79562
11
5.08713
21
-3.78724
0
LINE
8
BLACK
6
CONTINUOUS
10
5.08713
20
-3.78724
11
5.09217
21
-3.77969
0
LINE
8
BLACK
6
CONTINUOUS
10
5.09217
20
-3.77969
11
5.09859
21
-3.77328
0
LINE
8
BLACK
6
CONTINUOUS
10
5.09859
20
-3.77328
11
5.10613
21
-3.76823
0
LINE
8
BLACK
6
CONTINUOUS
10
5.10613
20
-3.76823
11
5.11452
21
-3.76476
0
LINE
8
BLACK
6
CONTINUOUS
10
5.11452
20
-3.76476
11
5.12342
21
-3.76299
0
LINE
8
BLACK
6
CONTINUOUS
10
5.12342
20
-3.76299
11
5.13249
21
-3.76299
0
LINE
8
BLACK
6
CONTINUOUS
10
5.13249
20
-3.76299
11
5.14139
21
-3.76476
0
LINE
8
BLACK
6
CONTINUOUS
10
4.34692
20
-3.76896
11
4.35286
21
-3.77076
0
LINE
8
BLACK
6
CONTINUOUS
10
4.35286
20
-3.77076
11
4.35833
21
-3.77369
0
LINE
8
BLACK
6
CONTINUOUS
10
4.35833
20
-3.77369
11
4.36313
21
-3.77762
0
LINE
8
BLACK
6
CONTINUOUS
10
4.36313
20
-3.77762
11
4.36706
21
-3.78242
0
LINE
8
BLACK
6
CONTINUOUS
10
4.36706
20
-3.78242
11
4.36999
21
-3.78789
0
LINE
8
BLACK
6
CONTINUOUS
10
4.36999
20
-3.78789
11
4.37179
21
-3.79383
0
LINE
8
BLACK
6
CONTINUOUS
10
4.37179
20
-3.79383
11
4.3724
21
-3.8
0
LINE
8
BLACK
6
CONTINUOUS
10
4.3724
20
-3.8
11
4.37179
21
-3.80617
0
LINE
8
BLACK
6
CONTINUOUS
10
4.37179
20
-3.80617
11
4.36999
21
-3.81211
0
LINE
8
BLACK
6
CONTINUOUS
10
4.36999
20
-3.81211
11
4.36706
21
-3.81758
0
LINE
8
BLACK
6
CONTINUOUS
10
4.36706
20
-3.81758
11
4.36313
21
-3.82238
0
LINE
8
BLACK
6
CONTINUOUS
10
4.36313
20
-3.82238
11
4.35833
21
-3.82631
0
LINE
8
BLACK
6
CONTINUOUS
10
4.35833
20
-3.82631
11
4.35286
21
-3.82924
0
LINE
8
BLACK
6
CONTINUOUS
10
4.35286
20
-3.82924
11
4.34692
21
-3.83104
0
LINE
8
BLACK
6
CONTINUOUS
10
4.34692
20
-3.83104
11
4.3423
21
-3.8315
0
LINE
8
BLACK
6
CONTINUOUS
10
4.3423
20
-3.8315
11
4.30771
21
-3.8315
0
LINE
8
BLACK
6
CONTINUOUS
10
4.30771
20
-3.8315
11
4.30308
21
-3.83104
0
LINE
8
BLACK
6
CONTINUOUS
10
4.30308
20
-3.83104
11
4.29714
21
-3.82924
0
LINE
8
BLACK
6
CONTINUOUS
10
4.29714
20
-3.82924
11
4.29167
21
-3.82631
0
LINE
8
BLACK
6
CONTINUOUS
10
4.29167
20
-3.82631
11
4.28687
21
-3.82238
0
LINE
8
BLACK
6
CONTINUOUS
10
4.28687
20
-3.82238
11
4.28294
21
-3.81758
0
LINE
8
BLACK
6
CONTINUOUS
10
4.28294
20
-3.81758
11
4.28001
21
-3.81211
0
LINE
8
BLACK
6
CONTINUOUS
10
4.28001
20
-3.81211
11
4.27821
21
-3.80617
0
LINE
8
BLACK
6
CONTINUOUS
10
4.27821
20
-3.80617
11
4.2776
21
-3.8
0
LINE
8
BLACK
6
CONTINUOUS
10
4.2776
20
-3.8
11
4.27821
21
-3.79383
0
LINE
8
BLACK
6
CONTINUOUS
10
4.27821
20
-3.79383
11
4.28001
21
-3.78789
0
LINE
8
BLACK
6
CONTINUOUS
10
4.28001
20
-3.78789
11
4.28294
21
-3.78242
0
LINE
8
BLACK
6
CONTINUOUS
10
4.28294
20
-3.78242
11
4.28687
21
-3.77762
0
LINE
8
BLACK
6
CONTINUOUS
10
4.28687
20
-3.77762
11
4.29167
21
-3.77369
0
LINE
8
BLACK
6
CONTINUOUS
10
4.29167
20
-3.77369
11
4.29714
21
-3.77076
0
LINE
8
BLACK
6
CONTINUOUS
10
4.29714
20
-3.77076
11
4.30308
21
-3.76896
0
LINE
8
BLACK
6
CONTINUOUS
10
4.30308
20
-3.76896
11
4.30771
21
-3.7685
0
LINE
8
BLACK
6
CONTINUOUS
10
4.30771
20
-3.7685
11
4.3423
21
-3.7685
0
LINE
8
BLACK
6
CONTINUOUS
10
4.3423
20
-3.7685
11
4.34692
21
-3.76896
0
LINE
8
BLACK
6
CONTINUOUS
10
4.04692
20
-3.76896
11
4.05286
21
-3.77076
0
LINE
8
BLACK
6
CONTINUOUS
10
4.05286
20
-3.77076
11
4.05833
21
-3.77369
0
LINE
8
BLACK
6
CONTINUOUS
10
4.05833
20
-3.77369
11
4.06313
21
-3.77762
0
LINE
8
BLACK
6
CONTINUOUS
10
4.06313
20
-3.77762
11
4.06706
21
-3.78242
0
LINE
8
BLACK
6
CONTINUOUS
10
4.06706
20
-3.78242
11
4.06999
21
-3.78789
0
LINE
8
BLACK
6
CONTINUOUS
10
4.06999
20
-3.78789
11
4.07179
21
-3.79383
0
LINE
8
BLACK
6
CONTINUOUS
10
4.07179
20
-3.79383
11
4.0724
21
-3.8
0
LINE
8
BLACK
6
CONTINUOUS
10
4.0724
20
-3.8
11
4.07179
21
-3.80617
0
LINE
8
BLACK
6
CONTINUOUS
10
4.07179
20
-3.80617
11
4.06999
21
-3.81211
0
LINE
8
BLACK
6
CONTINUOUS
10
4.06999
20
-3.81211
11
4.06706
21
-3.81758
0
LINE
8
BLACK
6
CONTINUOUS
10
4.06706
20
-3.81758
11
4.06313
21
-3.82238
0
LINE
8
BLACK
6
CONTINUOUS
10
4.06313
20
-3.82238
11
4.05833
21
-3.82631
0
LINE
8
BLACK
6
CONTINUOUS
10
4.05833
20
-3.82631
11
4.05286
21
-3.82924
0
LINE
8
BLACK
6
CONTINUOUS
10
4.05286
20
-3.82924
11
4.04692
21
-3.83104
0
LINE
8
BLACK
6
CONTINUOUS
10
4.04692
20
-3.83104
11
4.0423
21
-3.8315
0
LINE
8
BLACK
6
CONTINUOUS
10
4.0423
20
-3.8315
11
4.0077
21
-3.8315
0
LINE
8
BLACK
6
CONTINUOUS
10
4.0077
20
-3.8315
11
4.00308
21
-3.83104
0
LINE
8
BLACK
6
CONTINUOUS
10
4.00308
20
-3.83104
11
3.99714
21
-3.82924
0
LINE
8
BLACK
6
CONTINUOUS
10
3.99714
20
-3.82924
11
3.99167
21
-3.82631
0
LINE
8
BLACK
6
CONTINUOUS
10
3.99167
20
-3.82631
11
3.98687
21
-3.82238
0
LINE
8
BLACK
6
CONTINUOUS
10
3.98687
20
-3.82238
11
3.98294
21
-3.81758
0
LINE
8
BLACK
6
CONTINUOUS
10
3.98294
20
-3.81758
11
3.98001
21
-3.81211
0
LINE
8
BLACK
6
CONTINUOUS
10
3.98001
20
-3.81211
11
3.97821
21
-3.80617
0
LINE
8
BLACK
6
CONTINUOUS
10
3.97821
20
-3.80617
11
3.9776
21
-3.8
0
LINE
8
BLACK
6
CONTINUOUS
10
3.9776
20
-3.8
11
3.97821
21
-3.79383
0
LINE
8
BLACK
6
CONTINUOUS
10
3.97821
20
-3.79383
11
3.98001
21
-3.78789
0
LINE
8
BLACK
6
CONTINUOUS
10
3.98001
20
-3.78789
11
3.98294
21
-3.78242
0
LINE
8
BLACK
6
CONTINUOUS
10
3.98294
20
-3.78242
11
3.98687
21
-3.77762
0
LINE
8
BLACK
6
CONTINUOUS
10
3.98687
20
-3.77762
11
3.99167
21
-3.77369
0
LINE
8
BLACK
6
CONTINUOUS
10
3.99167
20
-3.77369
11
3.99714
21
-3.77076
0
LINE
8
BLACK
6
CONTINUOUS
10
3.99714
20
-3.77076
11
4.00308
21
-3.76896
0
LINE
8
BLACK
6
CONTINUOUS
10
4.00308
20
-3.76896
11
4.0077
21
-3.7685
0
LINE
8
BLACK
6
CONTINUOUS
10
4.0077
20
-3.7685
11
4.0423
21
-3.7685
0
LINE
8
BLACK
6
CONTINUOUS
10
4.0423
20
-3.7685
11
4.04692
21
-3.76896
0
LINE
8
BLACK
6
CONTINUOUS
10
3.77192
20
-3.76896
11
3.77786
21
-3.77076
0
LINE
8
BLACK
6
CONTINUOUS
10
3.77786
20
-3.77076
11
3.78333
21
-3.77369
0
LINE
8
BLACK
6
CONTINUOUS
10
3.78333
20
-3.77369
11
3.78813
21
-3.77762
0
LINE
8
BLACK
6
CONTINUOUS
10
3.78813
20
-3.77762
11
3.79206
21
-3.78242
0
LINE
8
BLACK
6
CONTINUOUS
10
3.79206
20
-3.78242
11
3.79499
21
-3.78789
0
LINE
8
BLACK
6
CONTINUOUS
10
3.79499
20
-3.78789
11
3.79679
21
-3.79383
0
LINE
8
BLACK
6
CONTINUOUS
10
3.79679
20
-3.79383
11
3.7974
21
-3.8
0
LINE
8
BLACK
6
CONTINUOUS
10
3.7974
20
-3.8
11
3.79679
21
-3.80617
0
LINE
8
BLACK
6
CONTINUOUS
10
3.79679
20
-3.80617
11
3.79499
21
-3.81211
0
LINE
8
BLACK
6
CONTINUOUS
10
3.79499
20
-3.81211
11
3.79206
21
-3.81758
0
LINE
8
BLACK
6
CONTINUOUS
10
3.79206
20
-3.81758
11
3.78813
21
-3.82238
0
LINE
8
BLACK
6
CONTINUOUS
10
3.78813
20
-3.82238
11
3.78333
21
-3.82631
0
LINE
8
BLACK
6
CONTINUOUS
10
3.78333
20
-3.82631
11
3.77786
21
-3.82924
0
LINE
8
BLACK
6
CONTINUOUS
10
3.77786
20
-3.82924
11
3.77192
21
-3.83104
0
LINE
8
BLACK
6
CONTINUOUS
10
3.77192
20
-3.83104
11
3.76729
21
-3.8315
0
LINE
8
BLACK
6
CONTINUOUS
10
3.76729
20
-3.8315
11
3.7327
21
-3.8315
0
LINE
8
BLACK
6
CONTINUOUS
10
3.7327
20
-3.8315
11
3.72808
21
-3.83104
0
LINE
8
BLACK
6
CONTINUOUS
10
3.72808
20
-3.83104
11
3.72214
21
-3.82924
0
LINE
8
BLACK
6
CONTINUOUS
10
3.72214
20
-3.82924
11
3.71667
21
-3.82631
0
LINE
8
BLACK
6
CONTINUOUS
10
3.71667
20
-3.82631
11
3.71187
21
-3.82238
0
LINE
8
BLACK
6
CONTINUOUS
10
3.71187
20
-3.82238
11
3.70794
21
-3.81758
0
LINE
8
BLACK
6
CONTINUOUS
10
3.70794
20
-3.81758
11
3.70501
21
-3.81211
0
LINE
8
BLACK
6
CONTINUOUS
10
3.70501
20
-3.81211
11
3.70321
21
-3.80617
0
LINE
8
BLACK
6
CONTINUOUS
10
3.70321
20
-3.80617
11
3.7026
21
-3.8
0
LINE
8
BLACK
6
CONTINUOUS
10
3.7026
20
-3.8
11
3.70321
21
-3.79383
0
LINE
8
BLACK
6
CONTINUOUS
10
3.70321
20
-3.79383
11
3.70501
21
-3.78789
0
LINE
8
BLACK
6
CONTINUOUS
10
3.70501
20
-3.78789
11
3.70794
21
-3.78242
0
LINE
8
BLACK
6
CONTINUOUS
10
3.70794
20
-3.78242
11
3.71187
21
-3.77762
0
LINE
8
BLACK
6
CONTINUOUS
10
3.71187
20
-3.77762
11
3.71667
21
-3.77369
0
LINE
8
BLACK
6
CONTINUOUS
10
3.71667
20
-3.77369
11
3.72214
21
-3.77076
0
LINE
8
BLACK
6
CONTINUOUS
10
3.72214
20
-3.77076
11
3.72808
21
-3.76896
0
LINE
8
BLACK
6
CONTINUOUS
10
3.72808
20
-3.76896
11
3.7327
21
-3.7685
0
LINE
8
BLACK
6
CONTINUOUS
10
3.7327
20
-3.7685
11
3.76729
21
-3.7685
0
LINE
8
BLACK
6
CONTINUOUS
10
3.76729
20
-3.7685
11
3.77192
21
-3.76896
0
LINE
8
BLACK
6
CONTINUOUS
10
3.47192
20
-3.76896
11
3.47786
21
-3.77076
0
LINE
8
BLACK
6
CONTINUOUS
10
3.47786
20
-3.77076
11
3.48333
21
-3.77369
0
LINE
8
BLACK
6
CONTINUOUS
10
3.48333
20
-3.77369
11
3.48813
21
-3.77762
0
LINE
8
BLACK
6
CONTINUOUS
10
3.48813
20
-3.77762
11
3.49206
21
-3.78242
0
LINE
8
BLACK
6
CONTINUOUS
10
3.49206
20
-3.78242
11
3.49499
21
-3.78789
0
LINE
8
BLACK
6
CONTINUOUS
10
3.49499
20
-3.78789
11
3.49679
21
-3.79383
0
LINE
8
BLACK
6
CONTINUOUS
10
3.49679
20
-3.79383
11
3.4974
21
-3.8
0
LINE
8
BLACK
6
CONTINUOUS
10
3.4974
20
-3.8
11
3.49679
21
-3.80617
0
LINE
8
BLACK
6
CONTINUOUS
10
3.49679
20
-3.80617
11
3.49499
21
-3.81211
0
LINE
8
BLACK
6
CONTINUOUS
10
3.49499
20
-3.81211
11
3.49206
21
-3.81758
0
LINE
8
BLACK
6
CONTINUOUS
10
3.49206
20
-3.81758
11
3.48813
21
-3.82238
0
LINE
8
BLACK
6
CONTINUOUS
10
3.48813
20
-3.82238
11
3.48333
21
-3.82631
0
LINE
8
BLACK
6
CONTINUOUS
10
3.48333
20
-3.82631
11
3.47786
21
-3.82924
0
LINE
8
BLACK
6
CONTINUOUS
10
3.47786
20
-3.82924
11
3.47192
21
-3.83104
0
LINE
8
BLACK
6
CONTINUOUS
10
3.47192
20
-3.83104
11
3.4673
21
-3.8315
0
LINE
8
BLACK
6
CONTINUOUS
10
3.4673
20
-3.8315
11
3.4327
21
-3.8315
0
LINE
8
BLACK
6
CONTINUOUS
10
3.4327
20
-3.8315
11
3.42808
21
-3.83104
0
LINE
8
BLACK
6
CONTINUOUS
10
3.42808
20
-3.83104
11
3.42214
21
-3.82924
0
LINE
8
BLACK
6
CONTINUOUS
10
3.42214
20
-3.82924
11
3.41667
21
-3.82631
0
LINE
8
BLACK
6
CONTINUOUS
10
3.41667
20
-3.82631
11
3.41187
21
-3.82238
0
LINE
8
BLACK
6
CONTINUOUS
10
3.41187
20
-3.82238
11
3.40794
21
-3.81758
0
LINE
8
BLACK
6
CONTINUOUS
10
3.40794
20
-3.81758
11
3.40501
21
-3.81211
0
LINE
8
BLACK
6
CONTINUOUS
10
3.40501
20
-3.81211
11
3.40321
21
-3.80617
0
LINE
8
BLACK
6
CONTINUOUS
10
3.40321
20
-3.80617
11
3.4026
21
-3.8
0
LINE
8
BLACK
6
CONTINUOUS
10
3.4026
20
-3.8
11
3.40321
21
-3.79383
0
LINE
8
BLACK
6
CONTINUOUS
10
3.40321
20
-3.79383
11
3.40501
21
-3.78789
0
LINE
8
BLACK
6
CONTINUOUS
10
3.40501
20
-3.78789
11
3.40794
21
-3.78242
0
LINE
8
BLACK
6
CONTINUOUS
10
3.40794
20
-3.78242
11
3.41187
21
-3.77762
0
LINE
8
BLACK
6
CONTINUOUS
10
3.41187
20
-3.77762
11
3.41667
21
-3.77369
0
LINE
8
BLACK
6
CONTINUOUS
10
3.41667
20
-3.77369
11
3.42214
21
-3.77076
0
LINE
8
BLACK
6
CONTINUOUS
10
3.42214
20
-3.77076
11
3.42808
21
-3.76896
0
LINE
8
BLACK
6
CONTINUOUS
10
3.42808
20
-3.76896
11
3.4327
21
-3.7685
0
LINE
8
BLACK
6
CONTINUOUS
10
3.4327
20
-3.7685
11
3.4673
21
-3.7685
0
LINE
8
BLACK
6
CONTINUOUS
10
3.4673
20
-3.7685
11
3.47192
21
-3.76896
0
LINE
8
BLACK
6
CONTINUOUS
10
4.48419
20
-3.76814
11
4.48992
21
-3.77051
0
LINE
8
BLACK
6
CONTINUOUS
10
4.48992
20
-3.77051
11
4.49508
21
-3.77396
0
LINE
8
BLACK
6
CONTINUOUS
10
4.49508
20
-3.77396
11
4.49946
21
-3.77835
0
LINE
8
BLACK
6
CONTINUOUS
10
4.49946
20
-3.77835
11
4.50291
21
-3.78351
0
LINE
8
BLACK
6
CONTINUOUS
10
4.50291
20
-3.78351
11
4.50529
21
-3.78924
0
LINE
8
BLACK
6
CONTINUOUS
10
4.50529
20
-3.78924
11
4.5065
21
-3.79532
0
LINE
8
BLACK
6
CONTINUOUS
10
4.5065
20
-3.79532
11
4.5065
21
-3.80153
0
LINE
8
BLACK
6
CONTINUOUS
10
4.5065
20
-3.80153
11
4.50529
21
-3.80761
0
LINE
8
BLACK
6
CONTINUOUS
10
4.50529
20
-3.80761
11
4.50291
21
-3.81334
0
LINE
8
BLACK
6
CONTINUOUS
10
4.50291
20
-3.81334
11
4.49946
21
-3.8185
0
LINE
8
BLACK
6
CONTINUOUS
10
4.49946
20
-3.8185
11
4.49508
21
-3.82289
0
LINE
8
BLACK
6
CONTINUOUS
10
4.49508
20
-3.82289
11
4.48992
21
-3.82634
0
LINE
8
BLACK
6
CONTINUOUS
10
4.48992
20
-3.82634
11
4.48419
21
-3.82871
0
LINE
8
BLACK
6
CONTINUOUS
10
4.48419
20
-3.82871
11
4.4781
21
-3.82992
0
LINE
8
BLACK
6
CONTINUOUS
10
4.4781
20
-3.82992
11
4.4719
21
-3.82992
0
LINE
8
BLACK
6
CONTINUOUS
10
4.4719
20
-3.82992
11
4.46581
21
-3.82871
0
LINE
8
BLACK
6
CONTINUOUS
10
4.46581
20
-3.82871
11
4.46008
21
-3.82634
0
LINE
8
BLACK
6
CONTINUOUS
10
4.46008
20
-3.82634
11
4.45492
21
-3.82289
0
LINE
8
BLACK
6
CONTINUOUS
10
4.45492
20
-3.82289
11
4.45054
21
-3.8185
0
LINE
8
BLACK
6
CONTINUOUS
10
4.45054
20
-3.8185
11
4.44709
21
-3.81334
0
LINE
8
BLACK
6
CONTINUOUS
10
4.44709
20
-3.81334
11
4.44471
21
-3.80761
0
LINE
8
BLACK
6
CONTINUOUS
10
4.44471
20
-3.80761
11
4.4435
21
-3.80153
0
LINE
8
BLACK
6
CONTINUOUS
10
4.4435
20
-3.80153
11
4.4435
21
-3.79532
0
LINE
8
BLACK
6
CONTINUOUS
10
4.4435
20
-3.79532
11
4.44471
21
-3.78924
0
LINE
8
BLACK
6
CONTINUOUS
10
4.44471
20
-3.78924
11
4.44709
21
-3.78351
0
LINE
8
BLACK
6
CONTINUOUS
10
4.44709
20
-3.78351
11
4.45054
21
-3.77835
0
LINE
8
BLACK
6
CONTINUOUS
10
4.45054
20
-3.77835
11
4.45492
21
-3.77396
0
LINE
8
BLACK
6
CONTINUOUS
10
4.45492
20
-3.77396
11
4.46008
21
-3.77051
0
LINE
8
BLACK
6
CONTINUOUS
10
4.46008
20
-3.77051
11
4.46581
21
-3.76814
0
LINE
8
BLACK
6
CONTINUOUS
10
4.46581
20
-3.76814
11
4.4719
21
-3.76693
0
LINE
8
BLACK
6
CONTINUOUS
10
4.4719
20
-3.76693
11
4.4781
21
-3.76693
0
LINE
8
BLACK
6
CONTINUOUS
10
4.4781
20
-3.76693
11
4.48419
21
-3.76814
0
LINE
8
BLACK
6
CONTINUOUS
10
2.96309
20
-3.75687
11
2.96954
21
-3.75954
0
LINE
8
BLACK
6
CONTINUOUS
10
2.96954
20
-3.75954
11
2.97534
21
-3.76342
0
LINE
8
BLACK
6
CONTINUOUS
10
2.97534
20
-3.76342
11
2.98028
21
-3.76836
0
LINE
8
BLACK
6
CONTINUOUS
10
2.98028
20
-3.76836
11
2.98416
21
-3.77416
0
LINE
8
BLACK
6
CONTINUOUS
10
2.98416
20
-3.77416
11
2.98683
21
-3.78061
0
LINE
8
BLACK
6
CONTINUOUS
10
2.98683
20
-3.78061
11
2.98819
21
-3.78746
0
LINE
8
BLACK
6
CONTINUOUS
10
2.98819
20
-3.78746
11
2.98819
21
-3.79443
0
LINE
8
BLACK
6
CONTINUOUS
10
2.98819
20
-3.79443
11
2.98683
21
-3.80128
0
LINE
8
BLACK
6
CONTINUOUS
10
2.98683
20
-3.80128
11
2.98416
21
-3.80773
0
LINE
8
BLACK
6
CONTINUOUS
10
2.98416
20
-3.80773
11
2.98028
21
-3.81353
0
LINE
8
BLACK
6
CONTINUOUS
10
2.98028
20
-3.81353
11
2.97534
21
-3.81847
0
LINE
8
BLACK
6
CONTINUOUS
10
2.97534
20
-3.81847
11
2.96954
21
-3.82235
0
LINE
8
BLACK
6
CONTINUOUS
10
2.96954
20
-3.82235
11
2.96309
21
-3.82502
0
LINE
8
BLACK
6
CONTINUOUS
10
2.96309
20
-3.82502
11
2.95625
21
-3.82638
0
LINE
8
BLACK
6
CONTINUOUS
10
2.95625
20
-3.82638
11
2.94927
21
-3.82638
0
LINE
8
BLACK
6
CONTINUOUS
10
2.94927
20
-3.82638
11
2.94242
21
-3.82502
0
LINE
8
BLACK
6
CONTINUOUS
10
2.94242
20
-3.82502
11
2.93597
21
-3.82235
0
LINE
8
BLACK
6
CONTINUOUS
10
2.93597
20
-3.82235
11
2.93017
21
-3.81847
0
LINE
8
BLACK
6
CONTINUOUS
10
2.93017
20
-3.81847
11
2.92523
21
-3.81353
0
LINE
8
BLACK
6
CONTINUOUS
10
2.92523
20
-3.81353
11
2.92136
21
-3.80773
0
LINE
8
BLACK
6
CONTINUOUS
10
2.92136
20
-3.80773
11
2.91868
21
-3.80128
0
LINE
8
BLACK
6
CONTINUOUS
10
2.91868
20
-3.80128
11
2.91732
21
-3.79443
0
LINE
8
BLACK
6
CONTINUOUS
10
2.91732
20
-3.79443
11
2.91732
21
-3.78746
0
LINE
8
BLACK
6
CONTINUOUS
10
2.91732
20
-3.78746
11
2.91868
21
-3.78061
0
LINE
8
BLACK
6
CONTINUOUS
10
2.91868
20
-3.78061
11
2.92136
21
-3.77416
0
LINE
8
BLACK
6
CONTINUOUS
10
2.92136
20
-3.77416
11
2.92523
21
-3.76836
0
LINE
8
BLACK
6
CONTINUOUS
10
2.92523
20
-3.76836
11
2.93017
21
-3.76342
0
LINE
8
BLACK
6
CONTINUOUS
10
2.93017
20
-3.76342
11
2.93597
21
-3.75954
0
LINE
8
BLACK
6
CONTINUOUS
10
2.93597
20
-3.75954
11
2.94242
21
-3.75687
0
LINE
8
BLACK
6
CONTINUOUS
10
2.94242
20
-3.75687
11
2.94927
21
-3.75551
0
LINE
8
BLACK
6
CONTINUOUS
10
2.94927
20
-3.75551
11
2.95625
21
-3.75551
0
LINE
8
BLACK
6
CONTINUOUS
10
2.95625
20
-3.75551
11
2.96309
21
-3.75687
0
LINE
8
BLACK
6
CONTINUOUS
10
3.16969
20
-3.79469
11
3.13031
21
-3.79469
0
LINE
8
BLACK
6
CONTINUOUS
10
3.13031
20
-3.79469
11
3.13031
21
-3.75531
0
LINE
8
BLACK
6
CONTINUOUS
10
3.13031
20
-3.75531
11
3.16969
21
-3.75531
0
LINE
8
BLACK
6
CONTINUOUS
10
3.16969
20
-3.75531
11
3.16969
21
-3.79469
0
LINE
8
BLACK
6
CONTINUOUS
10
3.28304
20
-3.7235
11
3.28805
21
-3.72558
0
LINE
8
BLACK
6
CONTINUOUS
10
3.28805
20
-3.72558
11
3.29257
21
-3.72859
0
LINE
8
BLACK
6
CONTINUOUS
10
3.29257
20
-3.72859
11
3.29641
21
-3.73243
0
LINE
8
BLACK
6
CONTINUOUS
10
3.29641
20
-3.73243
11
3.29942
21
-3.73695
0
LINE
8
BLACK
6
CONTINUOUS
10
3.29942
20
-3.73695
11
3.3015
21
-3.74196
0
LINE
8
BLACK
6
CONTINUOUS
10
3.3015
20
-3.74196
11
3.30256
21
-3.74729
0
LINE
8
BLACK
6
CONTINUOUS
10
3.30256
20
-3.74729
11
3.30256
21
-3.75271
0
LINE
8
BLACK
6
CONTINUOUS
10
3.30256
20
-3.75271
11
3.3015
21
-3.75804
0
LINE
8
BLACK
6
CONTINUOUS
10
3.3015
20
-3.75804
11
3.29942
21
-3.76305
0
LINE
8
BLACK
6
CONTINUOUS
10
3.29942
20
-3.76305
11
3.29641
21
-3.76757
0
LINE
8
BLACK
6
CONTINUOUS
10
3.29641
20
-3.76757
11
3.29257
21
-3.77141
0
LINE
8
BLACK
6
CONTINUOUS
10
3.29257
20
-3.77141
11
3.28805
21
-3.77442
0
LINE
8
BLACK
6
CONTINUOUS
10
3.28805
20
-3.77442
11
3.28304
21
-3.7765
0
LINE
8
BLACK
6
CONTINUOUS
10
3.28304
20
-3.7765
11
3.27771
21
-3.77756
0
LINE
8
BLACK
6
CONTINUOUS
10
3.27771
20
-3.77756
11
3.27229
21
-3.77756
0
LINE
8
BLACK
6
CONTINUOUS
10
3.27229
20
-3.77756
11
3.26696
21
-3.7765
0
LINE
8
BLACK
6
CONTINUOUS
10
3.26696
20
-3.7765
11
3.26195
21
-3.77442
0
LINE
8
BLACK
6
CONTINUOUS
10
3.26195
20
-3.77442
11
3.25743
21
-3.77141
0
LINE
8
BLACK
6
CONTINUOUS
10
3.25743
20
-3.77141
11
3.25359
21
-3.76757
0
LINE
8
BLACK
6
CONTINUOUS
10
3.25359
20
-3.76757
11
3.25058
21
-3.76305
0
LINE
8
BLACK
6
CONTINUOUS
10
3.25058
20
-3.76305
11
3.2485
21
-3.75804
0
LINE
8
BLACK
6
CONTINUOUS
10
3.2485
20
-3.75804
11
3.24744
21
-3.75271
0
LINE
8
BLACK
6
CONTINUOUS
10
3.24744
20
-3.75271
11
3.24744
21
-3.74729
0
LINE
8
BLACK
6
CONTINUOUS
10
3.24744
20
-3.74729
11
3.2485
21
-3.74196
0
LINE
8
BLACK
6
CONTINUOUS
10
3.2485
20
-3.74196
11
3.25058
21
-3.73695
0
LINE
8
BLACK
6
CONTINUOUS
10
3.25058
20
-3.73695
11
3.25359
21
-3.73243
0
LINE
8
BLACK
6
CONTINUOUS
10
3.25359
20
-3.73243
11
3.25743
21
-3.72859
0
LINE
8
BLACK
6
CONTINUOUS
10
3.25743
20
-3.72859
11
3.26195
21
-3.72558
0
LINE
8
BLACK
6
CONTINUOUS
10
3.26195
20
-3.72558
11
3.26696
21
-3.7235
0
LINE
8
BLACK
6
CONTINUOUS
10
3.26696
20
-3.7235
11
3.27229
21
-3.72244
0
LINE
8
BLACK
6
CONTINUOUS
10
3.27229
20
-3.72244
11
3.27771
21
-3.72244
0
LINE
8
BLACK
6
CONTINUOUS
10
3.27771
20
-3.72244
11
3.28304
21
-3.7235
0
LINE
8
BLACK
6
CONTINUOUS
10
4.34692
20
-3.66896
11
4.35286
21
-3.67076
0
LINE
8
BLACK
6
CONTINUOUS
10
4.35286
20
-3.67076
11
4.35833
21
-3.67369
0
LINE
8
BLACK
6
CONTINUOUS
10
4.35833
20
-3.67369
11
4.36313
21
-3.67762
0
LINE
8
BLACK
6
CONTINUOUS
10
4.36313
20
-3.67762
11
4.36706
21
-3.68242
0
LINE
8
BLACK
6
CONTINUOUS
10
4.36706
20
-3.68242
11
4.36999
21
-3.68789
0
LINE
8
BLACK
6
CONTINUOUS
10
4.36999
20
-3.68789
11
4.37179
21
-3.69383
0
LINE
8
BLACK
6
CONTINUOUS
10
4.37179
20
-3.69383
11
4.3724
21
-3.7
0
LINE
8
BLACK
6
CONTINUOUS
10
4.3724
20
-3.7
11
4.37179
21
-3.70617
0
LINE
8
BLACK
6
CONTINUOUS
10
4.37179
20
-3.70617
11
4.36999
21
-3.71211
0
LINE
8
BLACK
6
CONTINUOUS
10
4.36999
20
-3.71211
11
4.36706
21
-3.71758
0
LINE
8
BLACK
6
CONTINUOUS
10
4.36706
20
-3.71758
11
4.36313
21
-3.72238
0
LINE
8
BLACK
6
CONTINUOUS
10
4.36313
20
-3.72238
11
4.35833
21
-3.72631
0
LINE
8
BLACK
6
CONTINUOUS
10
4.35833
20
-3.72631
11
4.35286
21
-3.72924
0
LINE
8
BLACK
6
CONTINUOUS
10
4.35286
20
-3.72924
11
4.34692
21
-3.73104
0
LINE
8
BLACK
6
CONTINUOUS
10
4.34692
20
-3.73104
11
4.3423
21
-3.7315
0
LINE
8
BLACK
6
CONTINUOUS
10
4.3423
20
-3.7315
11
4.30771
21
-3.7315
0
LINE
8
BLACK
6
CONTINUOUS
10
4.30771
20
-3.7315
11
4.30308
21
-3.73104
0
LINE
8
BLACK
6
CONTINUOUS
10
4.30308
20
-3.73104
11
4.29714
21
-3.72924
0
LINE
8
BLACK
6
CONTINUOUS
10
4.29714
20
-3.72924
11
4.29167
21
-3.72631
0
LINE
8
BLACK
6
CONTINUOUS
10
4.29167
20
-3.72631
11
4.28687
21
-3.72238
0
LINE
8
BLACK
6
CONTINUOUS
10
4.28687
20
-3.72238
11
4.28294
21
-3.71758
0
LINE
8
BLACK
6
CONTINUOUS
10
4.28294
20
-3.71758
11
4.28001
21
-3.71211
0
LINE
8
BLACK
6
CONTINUOUS
10
4.28001
20
-3.71211
11
4.27821
21
-3.70617
0
LINE
8
BLACK
6
CONTINUOUS
10
4.27821
20
-3.70617
11
4.2776
21
-3.7
0
LINE
8
BLACK
6
CONTINUOUS
10
4.2776
20
-3.7
11
4.27821
21
-3.69383
0
LINE
8
BLACK
6
CONTINUOUS
10
4.27821
20
-3.69383
11
4.28001
21
-3.68789
0
LINE
8
BLACK
6
CONTINUOUS
10
4.28001
20
-3.68789
11
4.28294
21
-3.68242
0
LINE
8
BLACK
6
CONTINUOUS
10
4.28294
20
-3.68242
11
4.28687
21
-3.67762
0
LINE
8
BLACK
6
CONTINUOUS
10
4.28687
20
-3.67762
11
4.29167
21
-3.67369
0
LINE
8
BLACK
6
CONTINUOUS
10
4.29167
20
-3.67369
11
4.29714
21
-3.67076
0
LINE
8
BLACK
6
CONTINUOUS
10
4.29714
20
-3.67076
11
4.30308
21
-3.66896
0
LINE
8
BLACK
6
CONTINUOUS
10
4.30308
20
-3.66896
11
4.30771
21
-3.6685
0
LINE
8
BLACK
6
CONTINUOUS
10
4.30771
20
-3.6685
11
4.3423
21
-3.6685
0
LINE
8
BLACK
6
CONTINUOUS
10
4.3423
20
-3.6685
11
4.34692
21
-3.66896
0
LINE
8
BLACK
6
CONTINUOUS
10
4.04692
20
-3.66896
11
4.05286
21
-3.67076
0
LINE
8
BLACK
6
CONTINUOUS
10
4.05286
20
-3.67076
11
4.05833
21
-3.67369
0
LINE
8
BLACK
6
CONTINUOUS
10
4.05833
20
-3.67369
11
4.06313
21
-3.67762
0
LINE
8
BLACK
6
CONTINUOUS
10
4.06313
20
-3.67762
11
4.06706
21
-3.68242
0
LINE
8
BLACK
6
CONTINUOUS
10
4.06706
20
-3.68242
11
4.06999
21
-3.68789
0
LINE
8
BLACK
6
CONTINUOUS
10
4.06999
20
-3.68789
11
4.07179
21
-3.69383
0
LINE
8
BLACK
6
CONTINUOUS
10
4.07179
20
-3.69383
11
4.0724
21
-3.7
0
LINE
8
BLACK
6
CONTINUOUS
10
4.0724
20
-3.7
11
4.07179
21
-3.70617
0
LINE
8
BLACK
6
CONTINUOUS
10
4.07179
20
-3.70617
11
4.06999
21
-3.71211
0
LINE
8
BLACK
6
CONTINUOUS
10
4.06999
20
-3.71211
11
4.06706
21
-3.71758
0
LINE
8
BLACK
6
CONTINUOUS
10
4.06706
20
-3.71758
11
4.06313
21
-3.72238
0
LINE
8
BLACK
6
CONTINUOUS
10
4.06313
20
-3.72238
11
4.05833
21
-3.72631
0
LINE
8
BLACK
6
CONTINUOUS
10
4.05833
20
-3.72631
11
4.05286
21
-3.72924
0
LINE
8
BLACK
6
CONTINUOUS
10
4.05286
20
-3.72924
11
4.04692
21
-3.73104
0
LINE
8
BLACK
6
CONTINUOUS
10
4.04692
20
-3.73104
11
4.0423
21
-3.7315
0
LINE
8
BLACK
6
CONTINUOUS
10
4.0423
20
-3.7315
11
4.0077
21
-3.7315
0
LINE
8
BLACK
6
CONTINUOUS
10
4.0077
20
-3.7315
11
4.00308
21
-3.73104
0
LINE
8
BLACK
6
CONTINUOUS
10
4.00308
20
-3.73104
11
3.99714
21
-3.72924
0
LINE
8
BLACK
6
CONTINUOUS
10
3.99714
20
-3.72924
11
3.99167
21
-3.72631
0
LINE
8
BLACK
6
CONTINUOUS
10
3.99167
20
-3.72631
11
3.98687
21
-3.72238
0
LINE
8
BLACK
6
CONTINUOUS
10
3.98687
20
-3.72238
11
3.98294
21
-3.71758
0
LINE
8
BLACK
6
CONTINUOUS
10
3.98294
20
-3.71758
11
3.98001
21
-3.71211
0
LINE
8
BLACK
6
CONTINUOUS
10
3.98001
20
-3.71211
11
3.97821
21
-3.70617
0
LINE
8
BLACK
6
CONTINUOUS
10
3.97821
20
-3.70617
11
3.9776
21
-3.7
0
LINE
8
BLACK
6
CONTINUOUS
10
3.9776
20
-3.7
11
3.97821
21
-3.69383
0
LINE
8
BLACK
6
CONTINUOUS
10
3.97821
20
-3.69383
11
3.98001
21
-3.68789
0
LINE
8
BLACK
6
CONTINUOUS
10
3.98001
20
-3.68789
11
3.98294
21
-3.68242
0
LINE
8
BLACK
6
CONTINUOUS
10
3.98294
20
-3.68242
11
3.98687
21
-3.67762
0
LINE
8
BLACK
6
CONTINUOUS
10
3.98687
20
-3.67762
11
3.99167
21
-3.67369
0
LINE
8
BLACK
6
CONTINUOUS
10
3.99167
20
-3.67369
11
3.99714
21
-3.67076
0
LINE
8
BLACK
6
CONTINUOUS
10
3.99714
20
-3.67076
11
4.00308
21
-3.66896
0
LINE
8
BLACK
6
CONTINUOUS
10
4.00308
20
-3.66896
11
4.0077
21
-3.6685
0
LINE
8
BLACK
6
CONTINUOUS
10
4.0077
20
-3.6685
11
4.0423
21
-3.6685
0
LINE
8
BLACK
6
CONTINUOUS
10
4.0423
20
-3.6685
11
4.04692
21
-3.66896
0
LINE
8
BLACK
6
CONTINUOUS
10
3.77192
20
-3.66896
11
3.77786
21
-3.67076
0
LINE
8
BLACK
6
CONTINUOUS
10
3.77786
20
-3.67076
11
3.78333
21
-3.67369
0
LINE
8
BLACK
6
CONTINUOUS
10
3.78333
20
-3.67369
11
3.78813
21
-3.67762
0
LINE
8
BLACK
6
CONTINUOUS
10
3.78813
20
-3.67762
11
3.79206
21
-3.68242
0
LINE
8
BLACK
6
CONTINUOUS
10
3.79206
20
-3.68242
11
3.79499
21
-3.68789
0
LINE
8
BLACK
6
CONTINUOUS
10
3.79499
20
-3.68789
11
3.79679
21
-3.69383
0
LINE
8
BLACK
6
CONTINUOUS
10
3.79679
20
-3.69383
11
3.7974
21
-3.7
0
LINE
8
BLACK
6
CONTINUOUS
10
3.7974
20
-3.7
11
3.79679
21
-3.70617
0
LINE
8
BLACK
6
CONTINUOUS
10
3.79679
20
-3.70617
11
3.79499
21
-3.71211
0
LINE
8
BLACK
6
CONTINUOUS
10
3.79499
20
-3.71211
11
3.79206
21
-3.71758
0
LINE
8
BLACK
6
CONTINUOUS
10
3.79206
20
-3.71758
11
3.78813
21
-3.72238
0
LINE
8
BLACK
6
CONTINUOUS
10
3.78813
20
-3.72238
11
3.78333
21
-3.72631
0
LINE
8
BLACK
6
CONTINUOUS
10
3.78333
20
-3.72631
11
3.77786
21
-3.72924
0
LINE
8
BLACK
6
CONTINUOUS
10
3.77786
20
-3.72924
11
3.77192
21
-3.73104
0
LINE
8
BLACK
6
CONTINUOUS
10
3.77192
20
-3.73104
11
3.76729
21
-3.7315
0
LINE
8
BLACK
6
CONTINUOUS
10
3.76729
20
-3.7315
11
3.7327
21
-3.7315
0
LINE
8
BLACK
6
CONTINUOUS
10
3.7327
20
-3.7315
11
3.72808
21
-3.73104
0
LINE
8
BLACK
6
CONTINUOUS
10
3.72808
20
-3.73104
11
3.72214
21
-3.72924
0
LINE
8
BLACK
6
CONTINUOUS
10
3.72214
20
-3.72924
11
3.71667
21
-3.72631
0
LINE
8
BLACK
6
CONTINUOUS
10
3.71667
20
-3.72631
11
3.71187
21
-3.72238
0
LINE
8
BLACK
6
CONTINUOUS
10
3.71187
20
-3.72238
11
3.70794
21
-3.71758
0
LINE
8
BLACK
6
CONTINUOUS
10
3.70794
20
-3.71758
11
3.70501
21
-3.71211
0
LINE
8
BLACK
6
CONTINUOUS
10
3.70501
20
-3.71211
11
3.70321
21
-3.70617
0
LINE
8
BLACK
6
CONTINUOUS
10
3.70321
20
-3.70617
11
3.7026
21
-3.7
0
LINE
8
BLACK
6
CONTINUOUS
10
3.7026
20
-3.7
11
3.70321
21
-3.69383
0
LINE
8
BLACK
6
CONTINUOUS
10
3.70321
20
-3.69383
11
3.70501
21
-3.68789
0
LINE
8
BLACK
6
CONTINUOUS
10
3.70501
20
-3.68789
11
3.70794
21
-3.68242
0
LINE
8
BLACK
6
CONTINUOUS
10
3.70794
20
-3.68242
11
3.71187
21
-3.67762
0
LINE
8
BLACK
6
CONTINUOUS
10
3.71187
20
-3.67762
11
3.71667
21
-3.67369
0
LINE
8
BLACK
6
CONTINUOUS
10
3.71667
20
-3.67369
11
3.72214
21
-3.67076
0
LINE
8
BLACK
6
CONTINUOUS
10
3.72214
20
-3.67076
11
3.72808
21
-3.66896
0
LINE
8
BLACK
6
CONTINUOUS
10
3.72808
20
-3.66896
11
3.7327
21
-3.6685
0
LINE
8
BLACK
6
CONTINUOUS
10
3.7327
20
-3.6685
11
3.76729
21
-3.6685
0
LINE
8
BLACK
6
CONTINUOUS
10
3.76729
20
-3.6685
11
3.77192
21
-3.66896
0
LINE
8
BLACK
6
CONTINUOUS
10
3.47192
20
-3.66896
11
3.47786
21
-3.67076
0
LINE
8
BLACK
6
CONTINUOUS
10
3.47786
20
-3.67076
11
3.48333
21
-3.67369
0
LINE
8
BLACK
6
CONTINUOUS
10
3.48333
20
-3.67369
11
3.48813
21
-3.67762
0
LINE
8
BLACK
6
CONTINUOUS
10
3.48813
20
-3.67762
11
3.49206
21
-3.68242
0
LINE
8
BLACK
6
CONTINUOUS
10
3.49206
20
-3.68242
11
3.49499
21
-3.68789
0
LINE
8
BLACK
6
CONTINUOUS
10
3.49499
20
-3.68789
11
3.49679
21
-3.69383
0
LINE
8
BLACK
6
CONTINUOUS
10
3.49679
20
-3.69383
11
3.4974
21
-3.7
0
LINE
8
BLACK
6
CONTINUOUS
10
3.4974
20
-3.7
11
3.49679
21
-3.70617
0
LINE
8
BLACK
6
CONTINUOUS
10
3.49679
20
-3.70617
11
3.49499
21
-3.71211
0
LINE
8
BLACK
6
CONTINUOUS
10
3.49499
20
-3.71211
11
3.49206
21
-3.71758
0
LINE
8
BLACK
6
CONTINUOUS
10
3.49206
20
-3.71758
11
3.48813
21
-3.72238
0
LINE
8
BLACK
6
CONTINUOUS
10
3.48813
20
-3.72238
11
3.48333
21
-3.72631
0
LINE
8
BLACK
6
CONTINUOUS
10
3.48333
20
-3.72631
11
3.47786
21
-3.72924
0
LINE
8
BLACK
6
CONTINUOUS
10
3.47786
20
-3.72924
11
3.47192
21
-3.73104
0
LINE
8
BLACK
6
CONTINUOUS
10
3.47192
20
-3.73104
11
3.4673
21
-3.7315
0
LINE
8
BLACK
6
CONTINUOUS
10
3.4673
20
-3.7315
11
3.4327
21
-3.7315
0
LINE
8
BLACK
6
CONTINUOUS
10
3.4327
20
-3.7315
11
3.42808
21
-3.73104
0
LINE
8
BLACK
6
CONTINUOUS
10
3.42808
20
-3.73104
11
3.42214
21
-3.72924
0
LINE
8
BLACK
6
CONTINUOUS
10
3.42214
20
-3.72924
11
3.41667
21
-3.72631
0
LINE
8
BLACK
6
CONTINUOUS
10
3.41667
20
-3.72631
11
3.41187
21
-3.72238
0
LINE
8
BLACK
6
CONTINUOUS
10
3.41187
20
-3.72238
11
3.40794
21
-3.71758
0
LINE
8
BLACK
6
CONTINUOUS
10
3.40794
20
-3.71758
11
3.40501
21
-3.71211
0
LINE
8
BLACK
6
CONTINUOUS
10
3.40501
20
-3.71211
11
3.40321
21
-3.70617
0
LINE
8
BLACK
6
CONTINUOUS
10
3.40321
20
-3.70617
11
3.4026
21
-3.7
0
LINE
8
BLACK
6
CONTINUOUS
10
3.4026
20
-3.7
11
3.40321
21
-3.69383
0
LINE
8
BLACK
6
CONTINUOUS
10
3.40321
20
-3.69383
11
3.40501
21
-3.68789
0
LINE
8
BLACK
6
CONTINUOUS
10
3.40501
20
-3.68789
11
3.40794
21
-3.68242
0
LINE
8
BLACK
6
CONTINUOUS
10
3.40794
20
-3.68242
11
3.41187
21
-3.67762
0
LINE
8
BLACK
6
CONTINUOUS
10
3.41187
20
-3.67762
11
3.41667
21
-3.67369
0
LINE
8
BLACK
6
CONTINUOUS
10
3.41667
20
-3.67369
11
3.42214
21
-3.67076
0
LINE
8
BLACK
6
CONTINUOUS
10
3.42214
20
-3.67076
11
3.42808
21
-3.66896
0
LINE
8
BLACK
6
CONTINUOUS
10
3.42808
20
-3.66896
11
3.4327
21
-3.6685
0
LINE
8
BLACK
6
CONTINUOUS
10
3.4327
20
-3.6685
11
3.4673
21
-3.6685
0
LINE
8
BLACK
6
CONTINUOUS
10
3.4673
20
-3.6685
11
3.47192
21
-3.66896
0
LINE
8
BLACK
6
CONTINUOUS
10
4.48419
20
-3.66971
11
4.48992
21
-3.67209
0
LINE
8
BLACK
6
CONTINUOUS
10
4.48992
20
-3.67209
11
4.49508
21
-3.67554
0
LINE
8
BLACK
6
CONTINUOUS
10
4.49508
20
-3.67554
11
4.49946
21
-3.67992
0
LINE
8
BLACK
6
CONTINUOUS
10
4.49946
20
-3.67992
11
4.50291
21
-3.68508
0
LINE
8
BLACK
6
CONTINUOUS
10
4.50291
20
-3.68508
11
4.50529
21
-3.69081
0
LINE
8
BLACK
6
CONTINUOUS
10
4.50529
20
-3.69081
11
4.5065
21
-3.6969
0
LINE
8
BLACK
6
CONTINUOUS
10
4.5065
20
-3.6969
11
4.5065
21
-3.7031
0
LINE
8
BLACK
6
CONTINUOUS
10
4.5065
20
-3.7031
11
4.50529
21
-3.70919
0
LINE
8
BLACK
6
CONTINUOUS
10
4.50529
20
-3.70919
11
4.50291
21
-3.71492
0
LINE
8
BLACK
6
CONTINUOUS
10
4.50291
20
-3.71492
11
4.49946
21
-3.72008
0
LINE
8
BLACK
6
CONTINUOUS
10
4.49946
20
-3.72008
11
4.49508
21
-3.72446
0
LINE
8
BLACK
6
CONTINUOUS
10
4.49508
20
-3.72446
11
4.48992
21
-3.72791
0
LINE
8
BLACK
6
CONTINUOUS
10
4.48992
20
-3.72791
11
4.48419
21
-3.73029
0
LINE
8
BLACK
6
CONTINUOUS
10
4.48419
20
-3.73029
11
4.4781
21
-3.7315
0
LINE
8
BLACK
6
CONTINUOUS
10
4.4781
20
-3.7315
11
4.4719
21
-3.7315
0
LINE
8
BLACK
6
CONTINUOUS
10
4.4719
20
-3.7315
11
4.46581
21
-3.73029
0
LINE
8
BLACK
6
CONTINUOUS
10
4.46581
20
-3.73029
11
4.46008
21
-3.72791
0
LINE
8
BLACK
6
CONTINUOUS
10
4.46008
20
-3.72791
11
4.45492
21
-3.72446
0
LINE
8
BLACK
6
CONTINUOUS
10
4.45492
20
-3.72446
11
4.45054
21
-3.72008
0
LINE
8
BLACK
6
CONTINUOUS
10
4.45054
20
-3.72008
11
4.44709
21
-3.71492
0
LINE
8
BLACK
6
CONTINUOUS
10
4.44709
20
-3.71492
11
4.44471
21
-3.70919
0
LINE
8
BLACK
6
CONTINUOUS
10
4.44471
20
-3.70919
11
4.4435
21
-3.7031
0
LINE
8
BLACK
6
CONTINUOUS
10
4.4435
20
-3.7031
11
4.4435
21
-3.6969
0
LINE
8
BLACK
6
CONTINUOUS
10
4.4435
20
-3.6969
11
4.44471
21
-3.69081
0
LINE
8
BLACK
6
CONTINUOUS
10
4.44471
20
-3.69081
11
4.44709
21
-3.68508
0
LINE
8
BLACK
6
CONTINUOUS
10
4.44709
20
-3.68508
11
4.45054
21
-3.67992
0
LINE
8
BLACK
6
CONTINUOUS
10
4.45054
20
-3.67992
11
4.45492
21
-3.67554
0
LINE
8
BLACK
6
CONTINUOUS
10
4.45492
20
-3.67554
11
4.46008
21
-3.67209
0
LINE
8
BLACK
6
CONTINUOUS
10
4.46008
20
-3.67209
11
4.46581
21
-3.66971
0
LINE
8
BLACK
6
CONTINUOUS
10
4.46581
20
-3.66971
11
4.4719
21
-3.6685
0
LINE
8
BLACK
6
CONTINUOUS
10
4.4719
20
-3.6685
11
4.4781
21
-3.6685
0
LINE
8
BLACK
6
CONTINUOUS
10
4.4781
20
-3.6685
11
4.48419
21
-3.66971
0
LINE
8
BLACK
6
CONTINUOUS
10
2.98819
20
-3.72638
11
2.91732
21
-3.72638
0
LINE
8
BLACK
6
CONTINUOUS
10
2.91732
20
-3.72638
11
2.91732
21
-3.65551
0
LINE
8
BLACK
6
CONTINUOUS
10
2.91732
20
-3.65551
11
2.98819
21
-3.65551
0
LINE
8
BLACK
6
CONTINUOUS
10
2.98819
20
-3.65551
11
2.98819
21
-3.72638
0
LINE
8
BLACK
6
CONTINUOUS
10
4.61969
20
-3.71969
11
4.58031
21
-3.71969
0
LINE
8
BLACK
6
CONTINUOUS
10
4.58031
20
-3.71969
11
4.58031
21
-3.68031
0
LINE
8
BLACK
6
CONTINUOUS
10
4.58031
20
-3.68031
11
4.61969
21
-3.68031
0
LINE
8
BLACK
6
CONTINUOUS
10
4.61969
20
-3.68031
11
4.61969
21
-3.71969
0
LINE
8
BLACK
6
CONTINUOUS
10
3.18576
20
-3.64097
11
3.19149
21
-3.64335
0
LINE
8
BLACK
6
CONTINUOUS
10
3.19149
20
-3.64335
11
3.19665
21
-3.6468
0
LINE
8
BLACK
6
CONTINUOUS
10
3.19665
20
-3.6468
11
3.20104
21
-3.65118
0
LINE
8
BLACK
6
CONTINUOUS
10
3.20104
20
-3.65118
11
3.20449
21
-3.65634
0
LINE
8
BLACK
6
CONTINUOUS
10
3.20449
20
-3.65634
11
3.20686
21
-3.66207
0
LINE
8
BLACK
6
CONTINUOUS
10
3.20686
20
-3.66207
11
3.20807
21
-3.66816
0
LINE
8
BLACK
6
CONTINUOUS
10
3.20807
20
-3.66816
11
3.20807
21
-3.67436
0
LINE
8
BLACK
6
CONTINUOUS
10
3.20807
20
-3.67436
11
3.20686
21
-3.68045
0
LINE
8
BLACK
6
CONTINUOUS
10
3.20686
20
-3.68045
11
3.20449
21
-3.68618
0
LINE
8
BLACK
6
CONTINUOUS
10
3.20449
20
-3.68618
11
3.20104
21
-3.69134
0
LINE
8
BLACK
6
CONTINUOUS
10
3.20104
20
-3.69134
11
3.19665
21
-3.69572
0
LINE
8
BLACK
6
CONTINUOUS
10
3.19665
20
-3.69572
11
3.19149
21
-3.69917
0
LINE
8
BLACK
6
CONTINUOUS
10
3.19149
20
-3.69917
11
3.18576
21
-3.70155
0
LINE
8
BLACK
6
CONTINUOUS
10
3.18576
20
-3.70155
11
3.17968
21
-3.70276
0
LINE
8
BLACK
6
CONTINUOUS
10
3.17968
20
-3.70276
11
3.17347
21
-3.70276
0
LINE
8
BLACK
6
CONTINUOUS
10
3.17347
20
-3.70276
11
3.16739
21
-3.70155
0
LINE
8
BLACK
6
CONTINUOUS
10
3.16739
20
-3.70155
11
3.16166
21
-3.69917
0
LINE
8
BLACK
6
CONTINUOUS
10
3.16166
20
-3.69917
11
3.1565
21
-3.69572
0
LINE
8
BLACK
6
CONTINUOUS
10
3.1565
20
-3.69572
11
3.15211
21
-3.69134
0
LINE
8
BLACK
6
CONTINUOUS
10
3.15211
20
-3.69134
11
3.14866
21
-3.68618
0
LINE
8
BLACK
6
CONTINUOUS
10
3.14866
20
-3.68618
11
3.14629
21
-3.68045
0
LINE
8
BLACK
6
CONTINUOUS
10
3.14629
20
-3.68045
11
3.14508
21
-3.67436
0
LINE
8
BLACK
6
CONTINUOUS
10
3.14508
20
-3.67436
11
3.14508
21
-3.66816
0
LINE
8
BLACK
6
CONTINUOUS
10
3.14508
20
-3.66816
11
3.14629
21
-3.66207
0
LINE
8
BLACK
6
CONTINUOUS
10
3.14629
20
-3.66207
11
3.14866
21
-3.65634
0
LINE
8
BLACK
6
CONTINUOUS
10
3.14866
20
-3.65634
11
3.15211
21
-3.65118
0
LINE
8
BLACK
6
CONTINUOUS
10
3.15211
20
-3.65118
11
3.1565
21
-3.6468
0
LINE
8
BLACK
6
CONTINUOUS
10
3.1565
20
-3.6468
11
3.16166
21
-3.64335
0
LINE
8
BLACK
6
CONTINUOUS
10
3.16166
20
-3.64335
11
3.16739
21
-3.64097
0
LINE
8
BLACK
6
CONTINUOUS
10
3.16739
20
-3.64097
11
3.17347
21
-3.63976
0
LINE
8
BLACK
6
CONTINUOUS
10
3.17347
20
-3.63976
11
3.17968
21
-3.63976
0
LINE
8
BLACK
6
CONTINUOUS
10
3.17968
20
-3.63976
11
3.18576
21
-3.64097
0
LINE
8
BLACK
6
CONTINUOUS
10
3.28419
20
-3.64097
11
3.28992
21
-3.64335
0
LINE
8
BLACK
6
CONTINUOUS
10
3.28992
20
-3.64335
11
3.29508
21
-3.6468
0
LINE
8
BLACK
6
CONTINUOUS
10
3.29508
20
-3.6468
11
3.29946
21
-3.65118
0
LINE
8
BLACK
6
CONTINUOUS
10
3.29946
20
-3.65118
11
3.30291
21
-3.65634
0
LINE
8
BLACK
6
CONTINUOUS
10
3.30291
20
-3.65634
11
3.30529
21
-3.66207
0
LINE
8
BLACK
6
CONTINUOUS
10
3.30529
20
-3.66207
11
3.3065
21
-3.66816
0
LINE
8
BLACK
6
CONTINUOUS
10
3.3065
20
-3.66816
11
3.3065
21
-3.67436
0
LINE
8
BLACK
6
CONTINUOUS
10
3.3065
20
-3.67436
11
3.30529
21
-3.68045
0
LINE
8
BLACK
6
CONTINUOUS
10
3.30529
20
-3.68045
11
3.30291
21
-3.68618
0
LINE
8
BLACK
6
CONTINUOUS
10
3.30291
20
-3.68618
11
3.29946
21
-3.69134
0
LINE
8
BLACK
6
CONTINUOUS
10
3.29946
20
-3.69134
11
3.29508
21
-3.69572
0
LINE
8
BLACK
6
CONTINUOUS
10
3.29508
20
-3.69572
11
3.28992
21
-3.69917
0
LINE
8
BLACK
6
CONTINUOUS
10
3.28992
20
-3.69917
11
3.28419
21
-3.70155
0
LINE
8
BLACK
6
CONTINUOUS
10
3.28419
20
-3.70155
11
3.2781
21
-3.70276
0
LINE
8
BLACK
6
CONTINUOUS
10
3.2781
20
-3.70276
11
3.2719
21
-3.70276
0
LINE
8
BLACK
6
CONTINUOUS
10
3.2719
20
-3.70276
11
3.26581
21
-3.70155
0
LINE
8
BLACK
6
CONTINUOUS
10
3.26581
20
-3.70155
11
3.26008
21
-3.69917
0
LINE
8
BLACK
6
CONTINUOUS
10
3.26008
20
-3.69917
11
3.25492
21
-3.69572
0
LINE
8
BLACK
6
CONTINUOUS
10
3.25492
20
-3.69572
11
3.25054
21
-3.69134
0
LINE
8
BLACK
6
CONTINUOUS
10
3.25054
20
-3.69134
11
3.24709
21
-3.68618
0
LINE
8
BLACK
6
CONTINUOUS
10
3.24709
20
-3.68618
11
3.24471
21
-3.68045
0
LINE
8
BLACK
6
CONTINUOUS
10
3.24471
20
-3.68045
11
3.2435
21
-3.67436
0
LINE
8
BLACK
6
CONTINUOUS
10
3.2435
20
-3.67436
11
3.2435
21
-3.66816
0
LINE
8
BLACK
6
CONTINUOUS
10
3.2435
20
-3.66816
11
3.24471
21
-3.66207
0
LINE
8
BLACK
6
CONTINUOUS
10
3.24471
20
-3.66207
11
3.24709
21
-3.65634
0
LINE
8
BLACK
6
CONTINUOUS
10
3.24709
20
-3.65634
11
3.25054
21
-3.65118
0
LINE
8
BLACK
6
CONTINUOUS
10
3.25054
20
-3.65118
11
3.25492
21
-3.6468
0
LINE
8
BLACK
6
CONTINUOUS
10
3.25492
20
-3.6468
11
3.26008
21
-3.64335
0
LINE
8
BLACK
6
CONTINUOUS
10
3.26008
20
-3.64335
11
3.26581
21
-3.64097
0
LINE
8
BLACK
6
CONTINUOUS
10
3.26581
20
-3.64097
11
3.2719
21
-3.63976
0
LINE
8
BLACK
6
CONTINUOUS
10
3.2719
20
-3.63976
11
3.2781
21
-3.63976
0
LINE
8
BLACK
6
CONTINUOUS
10
3.2781
20
-3.63976
11
3.28419
21
-3.64097
0
LINE
8
BLACK
6
CONTINUOUS
10
4.88251
20
-3.57149
11
4.89067
21
-3.57397
0
LINE
8
BLACK
6
CONTINUOUS
10
4.89067
20
-3.57397
11
4.89819
21
-3.57799
0
LINE
8
BLACK
6
CONTINUOUS
10
4.89819
20
-3.57799
11
4.90479
21
-3.5834
0
LINE
8
BLACK
6
CONTINUOUS
10
4.90479
20
-3.5834
11
4.9102
21
-3.59
0
LINE
8
BLACK
6
CONTINUOUS
10
4.9102
20
-3.59
11
4.91422
21
-3.59752
0
LINE
8
BLACK
6
CONTINUOUS
10
4.91422
20
-3.59752
11
4.9167
21
-3.60568
0
LINE
8
BLACK
6
CONTINUOUS
10
4.9167
20
-3.60568
11
4.91753
21
-3.61417
0
LINE
8
BLACK
6
CONTINUOUS
10
4.91753
20
-3.61417
11
4.9167
21
-3.62266
0
LINE
8
BLACK
6
CONTINUOUS
10
4.9167
20
-3.62266
11
4.91422
21
-3.63083
0
LINE
8
BLACK
6
CONTINUOUS
10
4.91422
20
-3.63083
11
4.9102
21
-3.63835
0
LINE
8
BLACK
6
CONTINUOUS
10
4.9102
20
-3.63835
11
4.90479
21
-3.64494
0
LINE
8
BLACK
6
CONTINUOUS
10
4.90479
20
-3.64494
11
4.89819
21
-3.65036
0
LINE
8
BLACK
6
CONTINUOUS
10
4.89819
20
-3.65036
11
4.89067
21
-3.65438
0
LINE
8
BLACK
6
CONTINUOUS
10
4.89067
20
-3.65438
11
4.88251
21
-3.65685
0
LINE
8
BLACK
6
CONTINUOUS
10
4.88251
20
-3.65685
11
4.87614
21
-3.65748
0
LINE
8
BLACK
6
CONTINUOUS
10
4.87614
20
-3.65748
11
4.80102
21
-3.65748
0
LINE
8
BLACK
6
CONTINUOUS
10
4.80102
20
-3.65748
11
4.79466
21
-3.65685
0
LINE
8
BLACK
6
CONTINUOUS
10
4.79466
20
-3.65685
11
4.7865
21
-3.65438
0
LINE
8
BLACK
6
CONTINUOUS
10
4.7865
20
-3.65438
11
4.77897
21
-3.65036
0
LINE
8
BLACK
6
CONTINUOUS
10
4.77897
20
-3.65036
11
4.77238
21
-3.64494
0
LINE
8
BLACK
6
CONTINUOUS
10
4.77238
20
-3.64494
11
4.76697
21
-3.63835
0
LINE
8
BLACK
6
CONTINUOUS
10
4.76697
20
-3.63835
11
4.76295
21
-3.63083
0
LINE
8
BLACK
6
CONTINUOUS
10
4.76295
20
-3.63083
11
4.76047
21
-3.62266
0
LINE
8
BLACK
6
CONTINUOUS
10
4.76047
20
-3.62266
11
4.75963
21
-3.61417
0
LINE
8
BLACK
6
CONTINUOUS
10
4.75963
20
-3.61417
11
4.76047
21
-3.60568
0
LINE
8
BLACK
6
CONTINUOUS
10
4.76047
20
-3.60568
11
4.76295
21
-3.59752
0
LINE
8
BLACK
6
CONTINUOUS
10
4.76295
20
-3.59752
11
4.76697
21
-3.59
0
LINE
8
BLACK
6
CONTINUOUS
10
4.76697
20
-3.59
11
4.77238
21
-3.5834
0
LINE
8
BLACK
6
CONTINUOUS
10
4.77238
20
-3.5834
11
4.77897
21
-3.57799
0
LINE
8
BLACK
6
CONTINUOUS
10
4.77897
20
-3.57799
11
4.7865
21
-3.57397
0
LINE
8
BLACK
6
CONTINUOUS
10
4.7865
20
-3.57397
11
4.79466
21
-3.57149
0
LINE
8
BLACK
6
CONTINUOUS
10
4.79466
20
-3.57149
11
4.80102
21
-3.57087
0
LINE
8
BLACK
6
CONTINUOUS
10
4.80102
20
-3.57087
11
4.87614
21
-3.57087
0
LINE
8
BLACK
6
CONTINUOUS
10
4.87614
20
-3.57087
11
4.88251
21
-3.57149
0
LINE
8
BLACK
6
CONTINUOUS
10
3.85804
20
-3.5735
11
3.86305
21
-3.57558
0
LINE
8
BLACK
6
CONTINUOUS
10
3.86305
20
-3.57558
11
3.86757
21
-3.57859
0
LINE
8
BLACK
6
CONTINUOUS
10
3.86757
20
-3.57859
11
3.87141
21
-3.58243
0
LINE
8
BLACK
6
CONTINUOUS
10
3.87141
20
-3.58243
11
3.87442
21
-3.58695
0
LINE
8
BLACK
6
CONTINUOUS
10
3.87442
20
-3.58695
11
3.8765
21
-3.59196
0
LINE
8
BLACK
6
CONTINUOUS
10
3.8765
20
-3.59196
11
3.87756
21
-3.59729
0
LINE
8
BLACK
6
CONTINUOUS
10
3.87756
20
-3.59729
11
3.87756
21
-3.60271
0
LINE
8
BLACK
6
CONTINUOUS
10
3.87756
20
-3.60271
11
3.8765
21
-3.60804
0
LINE
8
BLACK
6
CONTINUOUS
10
3.8765
20
-3.60804
11
3.87442
21
-3.61305
0
LINE
8
BLACK
6
CONTINUOUS
10
3.87442
20
-3.61305
11
3.87141
21
-3.61757
0
LINE
8
BLACK
6
CONTINUOUS
10
3.87141
20
-3.61757
11
3.86757
21
-3.62141
0
LINE
8
BLACK
6
CONTINUOUS
10
3.86757
20
-3.62141
11
3.86305
21
-3.62442
0
LINE
8
BLACK
6
CONTINUOUS
10
3.86305
20
-3.62442
11
3.85804
21
-3.6265
0
LINE
8
BLACK
6
CONTINUOUS
10
3.85804
20
-3.6265
11
3.85271
21
-3.62756
0
LINE
8
BLACK
6
CONTINUOUS
10
3.85271
20
-3.62756
11
3.84729
21
-3.62756
0
LINE
8
BLACK
6
CONTINUOUS
10
3.84729
20
-3.62756
11
3.84196
21
-3.6265
0
LINE
8
BLACK
6
CONTINUOUS
10
3.84196
20
-3.6265
11
3.83695
21
-3.62442
0
LINE
8
BLACK
6
CONTINUOUS
10
3.83695
20
-3.62442
11
3.83243
21
-3.62141
0
LINE
8
BLACK
6
CONTINUOUS
10
3.83243
20
-3.62141
11
3.82859
21
-3.61757
0
LINE
8
BLACK
6
CONTINUOUS
10
3.82859
20
-3.61757
11
3.82558
21
-3.61305
0
LINE
8
BLACK
6
CONTINUOUS
10
3.82558
20
-3.61305
11
3.8235
21
-3.60804
0
LINE
8
BLACK
6
CONTINUOUS
10
3.8235
20
-3.60804
11
3.82244
21
-3.60271
0
LINE
8
BLACK
6
CONTINUOUS
10
3.82244
20
-3.60271
11
3.82244
21
-3.59729
0
LINE
8
BLACK
6
CONTINUOUS
10
3.82244
20
-3.59729
11
3.8235
21
-3.59196
0
LINE
8
BLACK
6
CONTINUOUS
10
3.8235
20
-3.59196
11
3.82558
21
-3.58695
0
LINE
8
BLACK
6
CONTINUOUS
10
3.82558
20
-3.58695
11
3.82859
21
-3.58243
0
LINE
8
BLACK
6
CONTINUOUS
10
3.82859
20
-3.58243
11
3.83243
21
-3.57859
0
LINE
8
BLACK
6
CONTINUOUS
10
3.83243
20
-3.57859
11
3.83695
21
-3.57558
0
LINE
8
BLACK
6
CONTINUOUS
10
3.83695
20
-3.57558
11
3.84196
21
-3.5735
0
LINE
8
BLACK
6
CONTINUOUS
10
3.84196
20
-3.5735
11
3.84729
21
-3.57244
0
LINE
8
BLACK
6
CONTINUOUS
10
3.84729
20
-3.57244
11
3.85271
21
-3.57244
0
LINE
8
BLACK
6
CONTINUOUS
10
3.85271
20
-3.57244
11
3.85804
21
-3.5735
0
LINE
8
BLACK
6
CONTINUOUS
10
3.51076
20
-3.54471
11
3.51649
21
-3.54709
0
LINE
8
BLACK
6
CONTINUOUS
10
3.51649
20
-3.54709
11
3.52165
21
-3.55054
0
LINE
8
BLACK
6
CONTINUOUS
10
3.52165
20
-3.55054
11
3.52604
21
-3.55492
0
LINE
8
BLACK
6
CONTINUOUS
10
3.52604
20
-3.55492
11
3.52949
21
-3.56008
0
LINE
8
BLACK
6
CONTINUOUS
10
3.52949
20
-3.56008
11
3.53186
21
-3.56581
0
LINE
8
BLACK
6
CONTINUOUS
10
3.53186
20
-3.56581
11
3.53307
21
-3.5719
0
LINE
8
BLACK
6
CONTINUOUS
10
3.53307
20
-3.5719
11
3.53307
21
-3.5781
0
LINE
8
BLACK
6
CONTINUOUS
10
3.53307
20
-3.5781
11
3.53186
21
-3.58419
0
LINE
8
BLACK
6
CONTINUOUS
10
3.53186
20
-3.58419
11
3.52949
21
-3.58992
0
LINE
8
BLACK
6
CONTINUOUS
10
3.52949
20
-3.58992
11
3.52604
21
-3.59508
0
LINE
8
BLACK
6
CONTINUOUS
10
3.52604
20
-3.59508
11
3.52165
21
-3.59946
0
LINE
8
BLACK
6
CONTINUOUS
10
3.52165
20
-3.59946
11
3.51649
21
-3.60291
0
LINE
8
BLACK
6
CONTINUOUS
10
3.51649
20
-3.60291
11
3.51076
21
-3.60529
0
LINE
8
BLACK
6
CONTINUOUS
10
3.51076
20
-3.60529
11
3.50468
21
-3.6065
0
LINE
8
BLACK
6
CONTINUOUS
10
3.50468
20
-3.6065
11
3.49847
21
-3.6065
0
LINE
8
BLACK
6
CONTINUOUS
10
3.49847
20
-3.6065
11
3.49239
21
-3.60529
0
LINE
8
BLACK
6
CONTINUOUS
10
3.49239
20
-3.60529
11
3.48666
21
-3.60291
0
LINE
8
BLACK
6
CONTINUOUS
10
3.48666
20
-3.60291
11
3.4815
21
-3.59946
0
LINE
8
BLACK
6
CONTINUOUS
10
3.4815
20
-3.59946
11
3.47711
21
-3.59508
0
LINE
8
BLACK
6
CONTINUOUS
10
3.47711
20
-3.59508
11
3.47366
21
-3.58992
0
LINE
8
BLACK
6
CONTINUOUS
10
3.47366
20
-3.58992
11
3.47129
21
-3.58419
0
LINE
8
BLACK
6
CONTINUOUS
10
3.47129
20
-3.58419
11
3.47008
21
-3.5781
0
LINE
8
BLACK
6
CONTINUOUS
10
3.47008
20
-3.5781
11
3.47008
21
-3.5719
0
LINE
8
BLACK
6
CONTINUOUS
10
3.47008
20
-3.5719
11
3.47129
21
-3.56581
0
LINE
8
BLACK
6
CONTINUOUS
10
3.47129
20
-3.56581
11
3.47366
21
-3.56008
0
LINE
8
BLACK
6
CONTINUOUS
10
3.47366
20
-3.56008
11
3.47711
21
-3.55492
0
LINE
8
BLACK
6
CONTINUOUS
10
3.47711
20
-3.55492
11
3.4815
21
-3.55054
0
LINE
8
BLACK
6
CONTINUOUS
10
3.4815
20
-3.55054
11
3.48666
21
-3.54709
0
LINE
8
BLACK
6
CONTINUOUS
10
3.48666
20
-3.54709
11
3.49239
21
-3.54471
0
LINE
8
BLACK
6
CONTINUOUS
10
3.49239
20
-3.54471
11
3.49847
21
-3.5435
0
LINE
8
BLACK
6
CONTINUOUS
10
3.49847
20
-3.5435
11
3.50468
21
-3.5435
0
LINE
8
BLACK
6
CONTINUOUS
10
3.50468
20
-3.5435
11
3.51076
21
-3.54471
0
LINE
8
BLACK
6
CONTINUOUS
10
3.60919
20
-3.54471
11
3.61492
21
-3.54709
0
LINE
8
BLACK
6
CONTINUOUS
10
3.61492
20
-3.54709
11
3.62008
21
-3.55054
0
LINE
8
BLACK
6
CONTINUOUS
10
3.62008
20
-3.55054
11
3.62446
21
-3.55492
0
LINE
8
BLACK
6
CONTINUOUS
10
3.62446
20
-3.55492
11
3.62791
21
-3.56008
0
LINE
8
BLACK
6
CONTINUOUS
10
3.62791
20
-3.56008
11
3.63029
21
-3.56581
0
LINE
8
BLACK
6
CONTINUOUS
10
3.63029
20
-3.56581
11
3.6315
21
-3.5719
0
LINE
8
BLACK
6
CONTINUOUS
10
3.6315
20
-3.5719
11
3.6315
21
-3.5781
0
LINE
8
BLACK
6
CONTINUOUS
10
3.6315
20
-3.5781
11
3.63029
21
-3.58419
0
LINE
8
BLACK
6
CONTINUOUS
10
3.63029
20
-3.58419
11
3.62791
21
-3.58992
0
LINE
8
BLACK
6
CONTINUOUS
10
3.62791
20
-3.58992
11
3.62446
21
-3.59508
0
LINE
8
BLACK
6
CONTINUOUS
10
3.62446
20
-3.59508
11
3.62008
21
-3.59946
0
LINE
8
BLACK
6
CONTINUOUS
10
3.62008
20
-3.59946
11
3.61492
21
-3.60291
0
LINE
8
BLACK
6
CONTINUOUS
10
3.61492
20
-3.60291
11
3.60919
21
-3.60529
0
LINE
8
BLACK
6
CONTINUOUS
10
3.60919
20
-3.60529
11
3.6031
21
-3.6065
0
LINE
8
BLACK
6
CONTINUOUS
10
3.6031
20
-3.6065
11
3.5969
21
-3.6065
0
LINE
8
BLACK
6
CONTINUOUS
10
3.5969
20
-3.6065
11
3.59081
21
-3.60529
0
LINE
8
BLACK
6
CONTINUOUS
10
3.59081
20
-3.60529
11
3.58508
21
-3.60291
0
LINE
8
BLACK
6
CONTINUOUS
10
3.58508
20
-3.60291
11
3.57992
21
-3.59946
0
LINE
8
BLACK
6
CONTINUOUS
10
3.57992
20
-3.59946
11
3.57554
21
-3.59508
0
LINE
8
BLACK
6
CONTINUOUS
10
3.57554
20
-3.59508
11
3.57209
21
-3.58992
0
LINE
8
BLACK
6
CONTINUOUS
10
3.57209
20
-3.58992
11
3.56971
21
-3.58419
0
LINE
8
BLACK
6
CONTINUOUS
10
3.56971
20
-3.58419
11
3.5685
21
-3.5781
0
LINE
8
BLACK
6
CONTINUOUS
10
3.5685
20
-3.5781
11
3.5685
21
-3.5719
0
LINE
8
BLACK
6
CONTINUOUS
10
3.5685
20
-3.5719
11
3.56971
21
-3.56581
0
LINE
8
BLACK
6
CONTINUOUS
10
3.56971
20
-3.56581
11
3.57209
21
-3.56008
0
LINE
8
BLACK
6
CONTINUOUS
10
3.57209
20
-3.56008
11
3.57554
21
-3.55492
0
LINE
8
BLACK
6
CONTINUOUS
10
3.57554
20
-3.55492
11
3.57992
21
-3.55054
0
LINE
8
BLACK
6
CONTINUOUS
10
3.57992
20
-3.55054
11
3.58508
21
-3.54709
0
LINE
8
BLACK
6
CONTINUOUS
10
3.58508
20
-3.54709
11
3.59081
21
-3.54471
0
LINE
8
BLACK
6
CONTINUOUS
10
3.59081
20
-3.54471
11
3.5969
21
-3.5435
0
LINE
8
BLACK
6
CONTINUOUS
10
3.5969
20
-3.5435
11
3.6031
21
-3.5435
0
LINE
8
BLACK
6
CONTINUOUS
10
3.6031
20
-3.5435
11
3.60919
21
-3.54471
0
LINE
8
BLACK
6
CONTINUOUS
10
3.26079
20
-3.54633
11
3.26581
21
-3.54841
0
LINE
8
BLACK
6
CONTINUOUS
10
3.26581
20
-3.54841
11
3.27032
21
-3.55143
0
LINE
8
BLACK
6
CONTINUOUS
10
3.27032
20
-3.55143
11
3.27416
21
-3.55527
0
LINE
8
BLACK
6
CONTINUOUS
10
3.27416
20
-3.55527
11
3.27718
21
-3.55978
0
LINE
8
BLACK
6
CONTINUOUS
10
3.27718
20
-3.55978
11
3.27926
21
-3.5648
0
LINE
8
BLACK
6
CONTINUOUS
10
3.27926
20
-3.5648
11
3.28031
21
-3.57012
0
LINE
8
BLACK
6
CONTINUOUS
10
3.28031
20
-3.57012
11
3.28031
21
-3.57555
0
LINE
8
BLACK
6
CONTINUOUS
10
3.28031
20
-3.57555
11
3.27926
21
-3.58087
0
LINE
8
BLACK
6
CONTINUOUS
10
3.27926
20
-3.58087
11
3.27718
21
-3.58589
0
LINE
8
BLACK
6
CONTINUOUS
10
3.27718
20
-3.58589
11
3.27416
21
-3.5904
0
LINE
8
BLACK
6
CONTINUOUS
10
3.27416
20
-3.5904
11
3.27032
21
-3.59424
0
LINE
8
BLACK
6
CONTINUOUS
10
3.27032
20
-3.59424
11
3.26581
21
-3.59726
0
LINE
8
BLACK
6
CONTINUOUS
10
3.26581
20
-3.59726
11
3.26079
21
-3.59933
0
LINE
8
BLACK
6
CONTINUOUS
10
3.26079
20
-3.59933
11
3.25547
21
-3.60039
0
LINE
8
BLACK
6
CONTINUOUS
10
3.25547
20
-3.60039
11
3.25004
21
-3.60039
0
LINE
8
BLACK
6
CONTINUOUS
10
3.25004
20
-3.60039
11
3.24472
21
-3.59933
0
LINE
8
BLACK
6
CONTINUOUS
10
3.24472
20
-3.59933
11
3.2397
21
-3.59726
0
LINE
8
BLACK
6
CONTINUOUS
10
3.2397
20
-3.59726
11
3.23519
21
-3.59424
0
LINE
8
BLACK
6
CONTINUOUS
10
3.23519
20
-3.59424
11
3.23135
21
-3.5904
0
LINE
8
BLACK
6
CONTINUOUS
10
3.23135
20
-3.5904
11
3.22833
21
-3.58589
0
LINE
8
BLACK
6
CONTINUOUS
10
3.22833
20
-3.58589
11
3.22626
21
-3.58087
0
LINE
8
BLACK
6
CONTINUOUS
10
3.22626
20
-3.58087
11
3.2252
21
-3.57555
0
LINE
8
BLACK
6
CONTINUOUS
10
3.2252
20
-3.57555
11
3.2252
21
-3.57012
0
LINE
8
BLACK
6
CONTINUOUS
10
3.2252
20
-3.57012
11
3.22626
21
-3.5648
0
LINE
8
BLACK
6
CONTINUOUS
10
3.22626
20
-3.5648
11
3.22833
21
-3.55978
0
LINE
8
BLACK
6
CONTINUOUS
10
3.22833
20
-3.55978
11
3.23135
21
-3.55527
0
LINE
8
BLACK
6
CONTINUOUS
10
3.23135
20
-3.55527
11
3.23519
21
-3.55143
0
LINE
8
BLACK
6
CONTINUOUS
10
3.23519
20
-3.55143
11
3.2397
21
-3.54841
0
LINE
8
BLACK
6
CONTINUOUS
10
3.2397
20
-3.54841
11
3.24472
21
-3.54633
0
LINE
8
BLACK
6
CONTINUOUS
10
3.24472
20
-3.54633
11
3.25004
21
-3.54528
0
LINE
8
BLACK
6
CONTINUOUS
10
3.25004
20
-3.54528
11
3.25547
21
-3.54528
0
LINE
8
BLACK
6
CONTINUOUS
10
3.25547
20
-3.54528
11
3.26079
21
-3.54633
0
LINE
8
BLACK
6
CONTINUOUS
10
2.96079
20
-3.54633
11
2.96581
21
-3.54841
0
LINE
8
BLACK
6
CONTINUOUS
10
2.96581
20
-3.54841
11
2.97032
21
-3.55143
0
LINE
8
BLACK
6
CONTINUOUS
10
2.97032
20
-3.55143
11
2.97416
21
-3.55527
0
LINE
8
BLACK
6
CONTINUOUS
10
2.97416
20
-3.55527
11
2.97718
21
-3.55978
0
LINE
8
BLACK
6
CONTINUOUS
10
2.97718
20
-3.55978
11
2.97926
21
-3.5648
0
LINE
8
BLACK
6
CONTINUOUS
10
2.97926
20
-3.5648
11
2.98031
21
-3.57012
0
LINE
8
BLACK
6
CONTINUOUS
10
2.98031
20
-3.57012
11
2.98031
21
-3.57555
0
LINE
8
BLACK
6
CONTINUOUS
10
2.98031
20
-3.57555
11
2.97926
21
-3.58087
0
LINE
8
BLACK
6
CONTINUOUS
10
2.97926
20
-3.58087
11
2.97718
21
-3.58589
0
LINE
8
BLACK
6
CONTINUOUS
10
2.97718
20
-3.58589
11
2.97416
21
-3.5904
0
LINE
8
BLACK
6
CONTINUOUS
10
2.97416
20
-3.5904
11
2.97032
21
-3.59424
0
LINE
8
BLACK
6
CONTINUOUS
10
2.97032
20
-3.59424
11
2.96581
21
-3.59726
0
LINE
8
BLACK
6
CONTINUOUS
10
2.96581
20
-3.59726
11
2.96079
21
-3.59933
0
LINE
8
BLACK
6
CONTINUOUS
10
2.96079
20
-3.59933
11
2.95547
21
-3.60039
0
LINE
8
BLACK
6
CONTINUOUS
10
2.95547
20
-3.60039
11
2.95004
21
-3.60039
0
LINE
8
BLACK
6
CONTINUOUS
10
2.95004
20
-3.60039
11
2.94472
21
-3.59933
0
LINE
8
BLACK
6
CONTINUOUS
10
2.94472
20
-3.59933
11
2.9397
21
-3.59726
0
LINE
8
BLACK
6
CONTINUOUS
10
2.9397
20
-3.59726
11
2.93519
21
-3.59424
0
LINE
8
BLACK
6
CONTINUOUS
10
2.93519
20
-3.59424
11
2.93135
21
-3.5904
0
LINE
8
BLACK
6
CONTINUOUS
10
2.93135
20
-3.5904
11
2.92833
21
-3.58589
0
LINE
8
BLACK
6
CONTINUOUS
10
2.92833
20
-3.58589
11
2.92626
21
-3.58087
0
LINE
8
BLACK
6
CONTINUOUS
10
2.92626
20
-3.58087
11
2.9252
21
-3.57555
0
LINE
8
BLACK
6
CONTINUOUS
10
2.9252
20
-3.57555
11
2.9252
21
-3.57012
0
LINE
8
BLACK
6
CONTINUOUS
10
2.9252
20
-3.57012
11
2.92626
21
-3.5648
0
LINE
8
BLACK
6
CONTINUOUS
10
2.92626
20
-3.5648
11
2.92833
21
-3.55978
0
LINE
8
BLACK
6
CONTINUOUS
10
2.92833
20
-3.55978
11
2.93135
21
-3.55527
0
LINE
8
BLACK
6
CONTINUOUS
10
2.93135
20
-3.55527
11
2.93519
21
-3.55143
0
LINE
8
BLACK
6
CONTINUOUS
10
2.93519
20
-3.55143
11
2.9397
21
-3.54841
0
LINE
8
BLACK
6
CONTINUOUS
10
2.9397
20
-3.54841
11
2.94472
21
-3.54633
0
LINE
8
BLACK
6
CONTINUOUS
10
2.94472
20
-3.54633
11
2.95004
21
-3.54528
0
LINE
8
BLACK
6
CONTINUOUS
10
2.95004
20
-3.54528
11
2.95547
21
-3.54528
0
LINE
8
BLACK
6
CONTINUOUS
10
2.95547
20
-3.54528
11
2.96079
21
-3.54633
0
LINE
8
BLACK
6
CONTINUOUS
10
3.41969
20
-3.59469
11
3.38031
21
-3.59469
0
LINE
8
BLACK
6
CONTINUOUS
10
3.38031
20
-3.59469
11
3.38031
21
-3.55531
0
LINE
8
BLACK
6
CONTINUOUS
10
3.38031
20
-3.55531
11
3.41969
21
-3.55531
0
LINE
8
BLACK
6
CONTINUOUS
10
3.41969
20
-3.55531
11
3.41969
21
-3.59469
0
LINE
8
BLACK
6
CONTINUOUS
10
4.04469
20
-3.59469
11
4.00531
21
-3.59469
0
LINE
8
BLACK
6
CONTINUOUS
10
4.00531
20
-3.59469
11
4.00531
21
-3.55531
0
LINE
8
BLACK
6
CONTINUOUS
10
4.00531
20
-3.55531
11
4.04469
21
-3.55531
0
LINE
8
BLACK
6
CONTINUOUS
10
4.04469
20
-3.55531
11
4.04469
21
-3.59469
0
LINE
8
BLACK
6
CONTINUOUS
10
4.48419
20
-3.52345
11
4.48992
21
-3.52583
0
LINE
8
BLACK
6
CONTINUOUS
10
4.48992
20
-3.52583
11
4.49508
21
-3.52928
0
LINE
8
BLACK
6
CONTINUOUS
10
4.49508
20
-3.52928
11
4.49946
21
-3.53366
0
LINE
8
BLACK
6
CONTINUOUS
10
4.49946
20
-3.53366
11
4.50291
21
-3.53882
0
LINE
8
BLACK
6
CONTINUOUS
10
4.50291
20
-3.53882
11
4.50529
21
-3.54455
0
LINE
8
BLACK
6
CONTINUOUS
10
4.50529
20
-3.54455
11
4.5065
21
-3.55064
0
LINE
8
BLACK
6
CONTINUOUS
10
4.5065
20
-3.55064
11
4.5065
21
-3.55684
0
LINE
8
BLACK
6
CONTINUOUS
10
4.5065
20
-3.55684
11
4.50529
21
-3.56293
0
LINE
8
BLACK
6
CONTINUOUS
10
4.50529
20
-3.56293
11
4.50291
21
-3.56866
0
LINE
8
BLACK
6
CONTINUOUS
10
4.50291
20
-3.56866
11
4.49946
21
-3.57382
0
LINE
8
BLACK
6
CONTINUOUS
10
4.49946
20
-3.57382
11
4.49508
21
-3.5782
0
LINE
8
BLACK
6
CONTINUOUS
10
4.49508
20
-3.5782
11
4.48992
21
-3.58165
0
LINE
8
BLACK
6
CONTINUOUS
10
4.48992
20
-3.58165
11
4.48419
21
-3.58403
0
LINE
8
BLACK
6
CONTINUOUS
10
4.48419
20
-3.58403
11
4.4781
21
-3.58524
0
LINE
8
BLACK
6
CONTINUOUS
10
4.4781
20
-3.58524
11
4.4719
21
-3.58524
0
LINE
8
BLACK
6
CONTINUOUS
10
4.4719
20
-3.58524
11
4.46581
21
-3.58403
0
LINE
8
BLACK
6
CONTINUOUS
10
4.46581
20
-3.58403
11
4.46008
21
-3.58165
0
LINE
8
BLACK
6
CONTINUOUS
10
4.46008
20
-3.58165
11
4.45492
21
-3.5782
0
LINE
8
BLACK
6
CONTINUOUS
10
4.45492
20
-3.5782
11
4.45054
21
-3.57382
0
LINE
8
BLACK
6
CONTINUOUS
10
4.45054
20
-3.57382
11
4.44709
21
-3.56866
0
LINE
8
BLACK
6
CONTINUOUS
10
4.44709
20
-3.56866
11
4.44471
21
-3.56293
0
LINE
8
BLACK
6
CONTINUOUS
10
4.44471
20
-3.56293
11
4.4435
21
-3.55684
0
LINE
8
BLACK
6
CONTINUOUS
10
4.4435
20
-3.55684
11
4.4435
21
-3.55064
0
LINE
8
BLACK
6
CONTINUOUS
10
4.4435
20
-3.55064
11
4.44471
21
-3.54455
0
LINE
8
BLACK
6
CONTINUOUS
10
4.44471
20
-3.54455
11
4.44709
21
-3.53882
0
LINE
8
BLACK
6
CONTINUOUS
10
4.44709
20
-3.53882
11
4.45054
21
-3.53366
0
LINE
8
BLACK
6
CONTINUOUS
10
4.45054
20
-3.53366
11
4.45492
21
-3.52928
0
LINE
8
BLACK
6
CONTINUOUS
10
4.45492
20
-3.52928
11
4.46008
21
-3.52583
0
LINE
8
BLACK
6
CONTINUOUS
10
4.46008
20
-3.52583
11
4.46581
21
-3.52345
0
LINE
8
BLACK
6
CONTINUOUS
10
4.46581
20
-3.52345
11
4.4719
21
-3.52224
0
LINE
8
BLACK
6
CONTINUOUS
10
4.4719
20
-3.52224
11
4.4781
21
-3.52224
0
LINE
8
BLACK
6
CONTINUOUS
10
4.4781
20
-3.52224
11
4.48419
21
-3.52345
0
LINE
8
BLACK
6
CONTINUOUS
10
4.23097
20
-3.44337
11
4.24244
21
-3.44811
0
LINE
8
BLACK
6
CONTINUOUS
10
4.24244
20
-3.44811
11
4.25275
21
-3.45501
0
LINE
8
BLACK
6
CONTINUOUS
10
4.25275
20
-3.45501
11
4.26153
21
-3.46378
0
LINE
8
BLACK
6
CONTINUOUS
10
4.26153
20
-3.46378
11
4.26842
21
-3.4741
0
LINE
8
BLACK
6
CONTINUOUS
10
4.26842
20
-3.4741
11
4.27317
21
-3.48556
0
LINE
8
BLACK
6
CONTINUOUS
10
4.27317
20
-3.48556
11
4.27559
21
-3.49773
0
LINE
8
BLACK
6
CONTINUOUS
10
4.27559
20
-3.49773
11
4.27559
21
-3.51014
0
LINE
8
BLACK
6
CONTINUOUS
10
4.27559
20
-3.51014
11
4.27317
21
-3.52231
0
LINE
8
BLACK
6
CONTINUOUS
10
4.27317
20
-3.52231
11
4.26842
21
-3.53377
0
LINE
8
BLACK
6
CONTINUOUS
10
4.26842
20
-3.53377
11
4.26153
21
-3.54409
0
LINE
8
BLACK
6
CONTINUOUS
10
4.26153
20
-3.54409
11
4.25275
21
-3.55287
0
LINE
8
BLACK
6
CONTINUOUS
10
4.25275
20
-3.55287
11
4.24244
21
-3.55976
0
LINE
8
BLACK
6
CONTINUOUS
10
4.24244
20
-3.55976
11
4.23097
21
-3.56451
0
LINE
8
BLACK
6
CONTINUOUS
10
4.23097
20
-3.56451
11
4.2188
21
-3.56693
0
LINE
8
BLACK
6
CONTINUOUS
10
4.2188
20
-3.56693
11
4.20639
21
-3.56693
0
LINE
8
BLACK
6
CONTINUOUS
10
4.20639
20
-3.56693
11
4.19422
21
-3.56451
0
LINE
8
BLACK
6
CONTINUOUS
10
4.19422
20
-3.56451
11
4.18276
21
-3.55976
0
LINE
8
BLACK
6
CONTINUOUS
10
4.18276
20
-3.55976
11
4.17244
21
-3.55287
0
LINE
8
BLACK
6
CONTINUOUS
10
4.17244
20
-3.55287
11
4.16367
21
-3.54409
0
LINE
8
BLACK
6
CONTINUOUS
10
4.16367
20
-3.54409
11
4.15678
21
-3.53377
0
LINE
8
BLACK
6
CONTINUOUS
10
4.15678
20
-3.53377
11
4.15203
21
-3.52231
0
LINE
8
BLACK
6
CONTINUOUS
10
4.15203
20
-3.52231
11
4.14961
21
-3.51014
0
LINE
8
BLACK
6
CONTINUOUS
10
4.14961
20
-3.51014
11
4.14961
21
-3.49773
0
LINE
8
BLACK
6
CONTINUOUS
10
4.14961
20
-3.49773
11
4.15203
21
-3.48556
0
LINE
8
BLACK
6
CONTINUOUS
10
4.15203
20
-3.48556
11
4.15678
21
-3.4741
0
LINE
8
BLACK
6
CONTINUOUS
10
4.15678
20
-3.4741
11
4.16367
21
-3.46378
0
LINE
8
BLACK
6
CONTINUOUS
10
4.16367
20
-3.46378
11
4.17244
21
-3.45501
0
LINE
8
BLACK
6
CONTINUOUS
10
4.17244
20
-3.45501
11
4.18276
21
-3.44811
0
LINE
8
BLACK
6
CONTINUOUS
10
4.18276
20
-3.44811
11
4.19422
21
-3.44337
0
LINE
8
BLACK
6
CONTINUOUS
10
4.19422
20
-3.44337
11
4.20639
21
-3.44094
0
LINE
8
BLACK
6
CONTINUOUS
10
4.20639
20
-3.44094
11
4.2188
21
-3.44094
0
LINE
8
BLACK
6
CONTINUOUS
10
4.2188
20
-3.44094
11
4.23097
21
-3.44337
0
LINE
8
BLACK
6
CONTINUOUS
10
4.92975
20
-3.46519
11
4.93791
21
-3.46767
0
LINE
8
BLACK
6
CONTINUOUS
10
4.93791
20
-3.46767
11
4.94544
21
-3.47169
0
LINE
8
BLACK
6
CONTINUOUS
10
4.94544
20
-3.47169
11
4.95203
21
-3.4771
0
LINE
8
BLACK
6
CONTINUOUS
10
4.95203
20
-3.4771
11
4.95744
21
-3.4837
0
LINE
8
BLACK
6
CONTINUOUS
10
4.95744
20
-3.4837
11
4.96146
21
-3.49122
0
LINE
8
BLACK
6
CONTINUOUS
10
4.96146
20
-3.49122
11
4.96394
21
-3.49938
0
LINE
8
BLACK
6
CONTINUOUS
10
4.96394
20
-3.49938
11
4.96478
21
-3.50787
0
LINE
8
BLACK
6
CONTINUOUS
10
4.96478
20
-3.50787
11
4.96394
21
-3.51636
0
LINE
8
BLACK
6
CONTINUOUS
10
4.96394
20
-3.51636
11
4.96146
21
-3.52453
0
LINE
8
BLACK
6
CONTINUOUS
10
4.96146
20
-3.52453
11
4.95744
21
-3.53205
0
LINE
8
BLACK
6
CONTINUOUS
10
4.95744
20
-3.53205
11
4.95203
21
-3.53864
0
LINE
8
BLACK
6
CONTINUOUS
10
4.95203
20
-3.53864
11
4.94544
21
-3.54406
0
LINE
8
BLACK
6
CONTINUOUS
10
4.94544
20
-3.54406
11
4.93791
21
-3.54808
0
LINE
8
BLACK
6
CONTINUOUS
10
4.93791
20
-3.54808
11
4.92975
21
-3.55055
0
LINE
8
BLACK
6
CONTINUOUS
10
4.92975
20
-3.55055
11
4.92339
21
-3.55118
0
LINE
8
BLACK
6
CONTINUOUS
10
4.92339
20
-3.55118
11
4.84827
21
-3.55118
0
LINE
8
BLACK
6
CONTINUOUS
10
4.84827
20
-3.55118
11
4.8419
21
-3.55055
0
LINE
8
BLACK
6
CONTINUOUS
10
4.8419
20
-3.55055
11
4.83374
21
-3.54808
0
LINE
8
BLACK
6
CONTINUOUS
10
4.83374
20
-3.54808
11
4.82622
21
-3.54406
0
LINE
8
BLACK
6
CONTINUOUS
10
4.82622
20
-3.54406
11
4.81962
21
-3.53864
0
LINE
8
BLACK
6
CONTINUOUS
10
4.81962
20
-3.53864
11
4.81421
21
-3.53205
0
LINE
8
BLACK
6
CONTINUOUS
10
4.81421
20
-3.53205
11
4.81019
21
-3.52453
0
LINE
8
BLACK
6
CONTINUOUS
10
4.81019
20
-3.52453
11
4.80771
21
-3.51636
0
LINE
8
BLACK
6
CONTINUOUS
10
4.80771
20
-3.51636
11
4.80688
21
-3.50787
0
LINE
8
BLACK
6
CONTINUOUS
10
4.80688
20
-3.50787
11
4.80771
21
-3.49938
0
LINE
8
BLACK
6
CONTINUOUS
10
4.80771
20
-3.49938
11
4.81019
21
-3.49122
0
LINE
8
BLACK
6
CONTINUOUS
10
4.81019
20
-3.49122
11
4.81421
21
-3.4837
0
LINE
8
BLACK
6
CONTINUOUS
10
4.81421
20
-3.4837
11
4.81962
21
-3.4771
0
LINE
8
BLACK
6
CONTINUOUS
10
4.81962
20
-3.4771
11
4.82622
21
-3.47169
0
LINE
8
BLACK
6
CONTINUOUS
10
4.82622
20
-3.47169
11
4.83374
21
-3.46767
0
LINE
8
BLACK
6
CONTINUOUS
10
4.83374
20
-3.46767
11
4.8419
21
-3.46519
0
LINE
8
BLACK
6
CONTINUOUS
10
4.8419
20
-3.46519
11
4.84827
21
-3.46457
0
LINE
8
BLACK
6
CONTINUOUS
10
4.84827
20
-3.46457
11
4.92339
21
-3.46457
0
LINE
8
BLACK
6
CONTINUOUS
10
4.92339
20
-3.46457
11
4.92975
21
-3.46519
0
LINE
8
BLACK
6
CONTINUOUS
10
4.5065
20
-3.5065
11
4.4435
21
-3.5065
0
LINE
8
BLACK
6
CONTINUOUS
10
4.4435
20
-3.5065
11
4.4435
21
-3.4435
0
LINE
8
BLACK
6
CONTINUOUS
10
4.4435
20
-3.4435
11
4.5065
21
-3.4435
0
LINE
8
BLACK
6
CONTINUOUS
10
4.5065
20
-3.4435
11
4.5065
21
-3.5065
0
LINE
8
BLACK
6
CONTINUOUS
10
2.97244
20
-3.50394
11
2.93307
21
-3.50394
0
LINE
8
BLACK
6
CONTINUOUS
10
2.93307
20
-3.50394
11
2.93307
21
-3.46457
0
LINE
8
BLACK
6
CONTINUOUS
10
2.93307
20
-3.46457
11
2.97244
21
-3.46457
0
LINE
8
BLACK
6
CONTINUOUS
10
2.97244
20
-3.46457
11
2.97244
21
-3.50394
0
LINE
8
BLACK
6
CONTINUOUS
10
5.16203
20
-3.33134
11
5.1702
21
-3.33381
0
LINE
8
BLACK
6
CONTINUOUS
10
5.1702
20
-3.33381
11
5.17772
21
-3.33783
0
LINE
8
BLACK
6
CONTINUOUS
10
5.17772
20
-3.33783
11
5.18431
21
-3.34324
0
LINE
8
BLACK
6
CONTINUOUS
10
5.18431
20
-3.34324
11
5.18973
21
-3.34984
0
LINE
8
BLACK
6
CONTINUOUS
10
5.18973
20
-3.34984
11
5.19375
21
-3.35736
0
LINE
8
BLACK
6
CONTINUOUS
10
5.19375
20
-3.35736
11
5.19622
21
-3.36553
0
LINE
8
BLACK
6
CONTINUOUS
10
5.19622
20
-3.36553
11
5.19685
21
-3.37189
0
LINE
8
BLACK
6
CONTINUOUS
10
5.19685
20
-3.37189
11
5.19685
21
-3.44701
0
LINE
8
BLACK
6
CONTINUOUS
10
5.19685
20
-3.44701
11
5.19622
21
-3.45337
0
LINE
8
BLACK
6
CONTINUOUS
10
5.19622
20
-3.45337
11
5.19375
21
-3.46153
0
LINE
8
BLACK
6
CONTINUOUS
10
5.19375
20
-3.46153
11
5.18973
21
-3.46906
0
LINE
8
BLACK
6
CONTINUOUS
10
5.18973
20
-3.46906
11
5.18431
21
-3.47565
0
LINE
8
BLACK
6
CONTINUOUS
10
5.18431
20
-3.47565
11
5.17772
21
-3.48106
0
LINE
8
BLACK
6
CONTINUOUS
10
5.17772
20
-3.48106
11
5.1702
21
-3.48509
0
LINE
8
BLACK
6
CONTINUOUS
10
5.1702
20
-3.48509
11
5.16203
21
-3.48756
0
LINE
8
BLACK
6
CONTINUOUS
10
5.16203
20
-3.48756
11
5.15354
21
-3.4884
0
LINE
8
BLACK
6
CONTINUOUS
10
5.15354
20
-3.4884
11
5.14505
21
-3.48756
0
LINE
8
BLACK
6
CONTINUOUS
10
5.14505
20
-3.48756
11
5.13689
21
-3.48509
0
LINE
8
BLACK
6
CONTINUOUS
10
5.13689
20
-3.48509
11
5.12937
21
-3.48106
0
LINE
8
BLACK
6
CONTINUOUS
10
5.12937
20
-3.48106
11
5.12277
21
-3.47565
0
LINE
8
BLACK
6
CONTINUOUS
10
5.12277
20
-3.47565
11
5.11736
21
-3.46906
0
LINE
8
BLACK
6
CONTINUOUS
10
5.11736
20
-3.46906
11
5.11334
21
-3.46153
0
LINE
8
BLACK
6
CONTINUOUS
10
5.11334
20
-3.46153
11
5.11086
21
-3.45337
0
LINE
8
BLACK
6
CONTINUOUS
10
5.11086
20
-3.45337
11
5.11024
21
-3.44701
0
LINE
8
BLACK
6
CONTINUOUS
10
5.11024
20
-3.44701
11
5.11024
21
-3.37189
0
LINE
8
BLACK
6
CONTINUOUS
10
5.11024
20
-3.37189
11
5.11086
21
-3.36553
0
LINE
8
BLACK
6
CONTINUOUS
10
5.11086
20
-3.36553
11
5.11334
21
-3.35736
0
LINE
8
BLACK
6
CONTINUOUS
10
5.11334
20
-3.35736
11
5.11736
21
-3.34984
0
LINE
8
BLACK
6
CONTINUOUS
10
5.11736
20
-3.34984
11
5.12277
21
-3.34324
0
LINE
8
BLACK
6
CONTINUOUS
10
5.12277
20
-3.34324
11
5.12937
21
-3.33783
0
LINE
8
BLACK
6
CONTINUOUS
10
5.12937
20
-3.33783
11
5.13689
21
-3.33381
0
LINE
8
BLACK
6
CONTINUOUS
10
5.13689
20
-3.33381
11
5.14505
21
-3.33134
0
LINE
8
BLACK
6
CONTINUOUS
10
5.14505
20
-3.33134
11
5.15354
21
-3.3305
0
LINE
8
BLACK
6
CONTINUOUS
10
5.15354
20
-3.3305
11
5.16203
21
-3.33134
0
LINE
8
BLACK
6
CONTINUOUS
10
3.55919
20
-3.42345
11
3.56492
21
-3.42583
0
LINE
8
BLACK
6
CONTINUOUS
10
3.56492
20
-3.42583
11
3.57008
21
-3.42928
0
LINE
8
BLACK
6
CONTINUOUS
10
3.57008
20
-3.42928
11
3.57446
21
-3.43366
0
LINE
8
BLACK
6
CONTINUOUS
10
3.57446
20
-3.43366
11
3.57791
21
-3.43882
0
LINE
8
BLACK
6
CONTINUOUS
10
3.57791
20
-3.43882
11
3.58029
21
-3.44455
0
LINE
8
BLACK
6
CONTINUOUS
10
3.58029
20
-3.44455
11
3.5815
21
-3.45064
0
LINE
8
BLACK
6
CONTINUOUS
10
3.5815
20
-3.45064
11
3.5815
21
-3.45684
0
LINE
8
BLACK
6
CONTINUOUS
10
3.5815
20
-3.45684
11
3.58029
21
-3.46293
0
LINE
8
BLACK
6
CONTINUOUS
10
3.58029
20
-3.46293
11
3.57791
21
-3.46866
0
LINE
8
BLACK
6
CONTINUOUS
10
3.57791
20
-3.46866
11
3.57446
21
-3.47382
0
LINE
8
BLACK
6
CONTINUOUS
10
3.57446
20
-3.47382
11
3.57008
21
-3.4782
0
LINE
8
BLACK
6
CONTINUOUS
10
3.57008
20
-3.4782
11
3.56492
21
-3.48165
0
LINE
8
BLACK
6
CONTINUOUS
10
3.56492
20
-3.48165
11
3.55919
21
-3.48403
0
LINE
8
BLACK
6
CONTINUOUS
10
3.55919
20
-3.48403
11
3.5531
21
-3.48524
0
LINE
8
BLACK
6
CONTINUOUS
10
3.5531
20
-3.48524
11
3.5469
21
-3.48524
0
LINE
8
BLACK
6
CONTINUOUS
10
3.5469
20
-3.48524
11
3.54081
21
-3.48403
0
LINE
8
BLACK
6
CONTINUOUS
10
3.54081
20
-3.48403
11
3.53508
21
-3.48165
0
LINE
8
BLACK
6
CONTINUOUS
10
3.53508
20
-3.48165
11
3.52992
21
-3.4782
0
LINE
8
BLACK
6
CONTINUOUS
10
3.52992
20
-3.4782
11
3.52554
21
-3.47382
0
LINE
8
BLACK
6
CONTINUOUS
10
3.52554
20
-3.47382
11
3.52209
21
-3.46866
0
LINE
8
BLACK
6
CONTINUOUS
10
3.52209
20
-3.46866
11
3.51971
21
-3.46293
0
LINE
8
BLACK
6
CONTINUOUS
10
3.51971
20
-3.46293
11
3.5185
21
-3.45684
0
LINE
8
BLACK
6
CONTINUOUS
10
3.5185
20
-3.45684
11
3.5185
21
-3.45064
0
LINE
8
BLACK
6
CONTINUOUS
10
3.5185
20
-3.45064
11
3.51971
21
-3.44455
0
LINE
8
BLACK
6
CONTINUOUS
10
3.51971
20
-3.44455
11
3.52209
21
-3.43882
0
LINE
8
BLACK
6
CONTINUOUS
10
3.52209
20
-3.43882
11
3.52554
21
-3.43366
0
LINE
8
BLACK
6
CONTINUOUS
10
3.52554
20
-3.43366
11
3.52992
21
-3.42928
0
LINE
8
BLACK
6
CONTINUOUS
10
3.52992
20
-3.42928
11
3.53508
21
-3.42583
0
LINE
8
BLACK
6
CONTINUOUS
10
3.53508
20
-3.42583
11
3.54081
21
-3.42345
0
LINE
8
BLACK
6
CONTINUOUS
10
3.54081
20
-3.42345
11
3.5469
21
-3.42224
0
LINE
8
BLACK
6
CONTINUOUS
10
3.5469
20
-3.42224
11
3.5531
21
-3.42224
0
LINE
8
BLACK
6
CONTINUOUS
10
3.5531
20
-3.42224
11
3.55919
21
-3.42345
0
LINE
8
BLACK
6
CONTINUOUS
10
3.85919
20
-3.40751
11
3.86492
21
-3.40988
0
LINE
8
BLACK
6
CONTINUOUS
10
3.86492
20
-3.40988
11
3.87008
21
-3.41333
0
LINE
8
BLACK
6
CONTINUOUS
10
3.87008
20
-3.41333
11
3.87446
21
-3.41772
0
LINE
8
BLACK
6
CONTINUOUS
10
3.87446
20
-3.41772
11
3.87791
21
-3.42288
0
LINE
8
BLACK
6
CONTINUOUS
10
3.87791
20
-3.42288
11
3.88029
21
-3.42861
0
LINE
8
BLACK
6
CONTINUOUS
10
3.88029
20
-3.42861
11
3.8815
21
-3.43469
0
LINE
8
BLACK
6
CONTINUOUS
10
3.8815
20
-3.43469
11
3.8815
21
-3.4409
0
LINE
8
BLACK
6
CONTINUOUS
10
3.8815
20
-3.4409
11
3.88029
21
-3.44698
0
LINE
8
BLACK
6
CONTINUOUS
10
3.88029
20
-3.44698
11
3.87791
21
-3.45271
0
LINE
8
BLACK
6
CONTINUOUS
10
3.87791
20
-3.45271
11
3.87446
21
-3.45787
0
LINE
8
BLACK
6
CONTINUOUS
10
3.87446
20
-3.45787
11
3.87008
21
-3.46226
0
LINE
8
BLACK
6
CONTINUOUS
10
3.87008
20
-3.46226
11
3.86492
21
-3.46571
0
LINE
8
BLACK
6
CONTINUOUS
10
3.86492
20
-3.46571
11
3.85919
21
-3.46808
0
LINE
8
BLACK
6
CONTINUOUS
10
3.85919
20
-3.46808
11
3.8531
21
-3.46929
0
LINE
8
BLACK
6
CONTINUOUS
10
3.8531
20
-3.46929
11
3.8469
21
-3.46929
0
LINE
8
BLACK
6
CONTINUOUS
10
3.8469
20
-3.46929
11
3.84081
21
-3.46808
0
LINE
8
BLACK
6
CONTINUOUS
10
3.84081
20
-3.46808
11
3.83508
21
-3.46571
0
LINE
8
BLACK
6
CONTINUOUS
10
3.83508
20
-3.46571
11
3.82992
21
-3.46226
0
LINE
8
BLACK
6
CONTINUOUS
10
3.82992
20
-3.46226
11
3.82554
21
-3.45787
0
LINE
8
BLACK
6
CONTINUOUS
10
3.82554
20
-3.45787
11
3.82209
21
-3.45271
0
LINE
8
BLACK
6
CONTINUOUS
10
3.82209
20
-3.45271
11
3.81971
21
-3.44698
0
LINE
8
BLACK
6
CONTINUOUS
10
3.81971
20
-3.44698
11
3.8185
21
-3.4409
0
LINE
8
BLACK
6
CONTINUOUS
10
3.8185
20
-3.4409
11
3.8185
21
-3.43469
0
LINE
8
BLACK
6
CONTINUOUS
10
3.8185
20
-3.43469
11
3.81971
21
-3.42861
0
LINE
8
BLACK
6
CONTINUOUS
10
3.81971
20
-3.42861
11
3.82209
21
-3.42288
0
LINE
8
BLACK
6
CONTINUOUS
10
3.82209
20
-3.42288
11
3.82554
21
-3.41772
0
LINE
8
BLACK
6
CONTINUOUS
10
3.82554
20
-3.41772
11
3.82992
21
-3.41333
0
LINE
8
BLACK
6
CONTINUOUS
10
3.82992
20
-3.41333
11
3.83508
21
-3.40988
0
LINE
8
BLACK
6
CONTINUOUS
10
3.83508
20
-3.40988
11
3.84081
21
-3.40751
0
LINE
8
BLACK
6
CONTINUOUS
10
3.84081
20
-3.40751
11
3.8469
21
-3.4063
0
LINE
8
BLACK
6
CONTINUOUS
10
3.8469
20
-3.4063
11
3.8531
21
-3.4063
0
LINE
8
BLACK
6
CONTINUOUS
10
3.8531
20
-3.4063
11
3.85919
21
-3.40751
0
LINE
8
BLACK
6
CONTINUOUS
10
3.5815
20
-3.4065
11
3.5185
21
-3.4065
0
LINE
8
BLACK
6
CONTINUOUS
10
3.5185
20
-3.4065
11
3.5185
21
-3.3435
0
LINE
8
BLACK
6
CONTINUOUS
10
3.5185
20
-3.3435
11
3.5815
21
-3.3435
0
LINE
8
BLACK
6
CONTINUOUS
10
3.5815
20
-3.3435
11
3.5815
21
-3.4065
0
LINE
8
BLACK
6
CONTINUOUS
10
3.0105
20
-3.24652
11
3.02196
21
-3.25126
0
LINE
8
BLACK
6
CONTINUOUS
10
3.02196
20
-3.25126
11
3.03228
21
-3.25816
0
LINE
8
BLACK
6
CONTINUOUS
10
3.03228
20
-3.25816
11
3.04106
21
-3.26693
0
LINE
8
BLACK
6
CONTINUOUS
10
3.04106
20
-3.26693
11
3.04795
21
-3.27725
0
LINE
8
BLACK
6
CONTINUOUS
10
3.04795
20
-3.27725
11
3.0527
21
-3.28871
0
LINE
8
BLACK
6
CONTINUOUS
10
3.0527
20
-3.28871
11
3.05512
21
-3.30088
0
LINE
8
BLACK
6
CONTINUOUS
10
3.05512
20
-3.30088
11
3.05512
21
-3.31329
0
LINE
8
BLACK
6
CONTINUOUS
10
3.05512
20
-3.31329
11
3.0527
21
-3.32546
0
LINE
8
BLACK
6
CONTINUOUS
10
3.0527
20
-3.32546
11
3.04795
21
-3.33692
0
LINE
8
BLACK
6
CONTINUOUS
10
3.04795
20
-3.33692
11
3.04106
21
-3.34724
0
LINE
8
BLACK
6
CONTINUOUS
10
3.04106
20
-3.34724
11
3.03228
21
-3.35602
0
LINE
8
BLACK
6
CONTINUOUS
10
3.03228
20
-3.35602
11
3.02196
21
-3.36291
0
LINE
8
BLACK
6
CONTINUOUS
10
3.02196
20
-3.36291
11
3.0105
21
-3.36766
0
LINE
8
BLACK
6
CONTINUOUS
10
3.0105
20
-3.36766
11
2.99833
21
-3.37008
0
LINE
8
BLACK
6
CONTINUOUS
10
2.99833
20
-3.37008
11
2.98592
21
-3.37008
0
LINE
8
BLACK
6
CONTINUOUS
10
2.98592
20
-3.37008
11
2.97375
21
-3.36766
0
LINE
8
BLACK
6
CONTINUOUS
10
2.97375
20
-3.36766
11
2.96229
21
-3.36291
0
LINE
8
BLACK
6
CONTINUOUS
10
2.96229
20
-3.36291
11
2.95197
21
-3.35602
0
LINE
8
BLACK
6
CONTINUOUS
10
2.95197
20
-3.35602
11
2.9432
21
-3.34724
0
LINE
8
BLACK
6
CONTINUOUS
10
2.9432
20
-3.34724
11
2.9363
21
-3.33692
0
LINE
8
BLACK
6
CONTINUOUS
10
2.9363
20
-3.33692
11
2.93155
21
-3.32546
0
LINE
8
BLACK
6
CONTINUOUS
10
2.93155
20
-3.32546
11
2.92913
21
-3.31329
0
LINE
8
BLACK
6
CONTINUOUS
10
2.92913
20
-3.31329
11
2.92913
21
-3.30088
0
LINE
8
BLACK
6
CONTINUOUS
10
2.92913
20
-3.30088
11
2.93155
21
-3.28871
0
LINE
8
BLACK
6
CONTINUOUS
10
2.93155
20
-3.28871
11
2.9363
21
-3.27725
0
LINE
8
BLACK
6
CONTINUOUS
10
2.9363
20
-3.27725
11
2.9432
21
-3.26693
0
LINE
8
BLACK
6
CONTINUOUS
10
2.9432
20
-3.26693
11
2.95197
21
-3.25816
0
LINE
8
BLACK
6
CONTINUOUS
10
2.95197
20
-3.25816
11
2.96229
21
-3.25126
0
LINE
8
BLACK
6
CONTINUOUS
10
2.96229
20
-3.25126
11
2.97375
21
-3.24652
0
LINE
8
BLACK
6
CONTINUOUS
10
2.97375
20
-3.24652
11
2.98592
21
-3.24409
0
LINE
8
BLACK
6
CONTINUOUS
10
2.98592
20
-3.24409
11
2.99833
21
-3.24409
0
LINE
8
BLACK
6
CONTINUOUS
10
2.99833
20
-3.24409
11
3.0105
21
-3.24652
0
LINE
8
BLACK
6
CONTINUOUS
10
3.8815
20
-3.3315
11
3.8185
21
-3.3315
0
LINE
8
BLACK
6
CONTINUOUS
10
3.8185
20
-3.3315
11
3.8185
21
-3.2685
0
LINE
8
BLACK
6
CONTINUOUS
10
3.8185
20
-3.2685
11
3.8815
21
-3.2685
0
LINE
8
BLACK
6
CONTINUOUS
10
3.8815
20
-3.2685
11
3.8815
21
-3.3315
0
LINE
8
BLACK
6
CONTINUOUS
10
4.72109
20
-3.16992
11
4.72925
21
-3.17239
0
LINE
8
BLACK
6
CONTINUOUS
10
4.72925
20
-3.17239
11
4.73677
21
-3.17642
0
LINE
8
BLACK
6
CONTINUOUS
10
4.73677
20
-3.17642
11
4.74337
21
-3.18183
0
LINE
8
BLACK
6
CONTINUOUS
10
4.74337
20
-3.18183
11
4.74878
21
-3.18842
0
LINE
8
BLACK
6
CONTINUOUS
10
4.74878
20
-3.18842
11
4.7528
21
-3.19595
0
LINE
8
BLACK
6
CONTINUOUS
10
4.7528
20
-3.19595
11
4.75528
21
-3.20411
0
LINE
8
BLACK
6
CONTINUOUS
10
4.75528
20
-3.20411
11
4.75591
21
-3.21047
0
LINE
8
BLACK
6
CONTINUOUS
10
4.75591
20
-3.21047
11
4.75591
21
-3.28559
0
LINE
8
BLACK
6
CONTINUOUS
10
4.75591
20
-3.28559
11
4.75528
21
-3.29195
0
LINE
8
BLACK
6
CONTINUOUS
10
4.75528
20
-3.29195
11
4.7528
21
-3.30012
0
LINE
8
BLACK
6
CONTINUOUS
10
4.7528
20
-3.30012
11
4.74878
21
-3.30764
0
LINE
8
BLACK
6
CONTINUOUS
10
4.74878
20
-3.30764
11
4.74337
21
-3.31424
0
LINE
8
BLACK
6
CONTINUOUS
10
4.74337
20
-3.31424
11
4.73677
21
-3.31965
0
LINE
8
BLACK
6
CONTINUOUS
10
4.73677
20
-3.31965
11
4.72925
21
-3.32367
0
LINE
8
BLACK
6
CONTINUOUS
10
4.72925
20
-3.32367
11
4.72109
21
-3.32615
0
LINE
8
BLACK
6
CONTINUOUS
10
4.72109
20
-3.32615
11
4.7126
21
-3.32698
0
LINE
8
BLACK
6
CONTINUOUS
10
4.7126
20
-3.32698
11
4.70411
21
-3.32615
0
LINE
8
BLACK
6
CONTINUOUS
10
4.70411
20
-3.32615
11
4.69595
21
-3.32367
0
LINE
8
BLACK
6
CONTINUOUS
10
4.69595
20
-3.32367
11
4.68842
21
-3.31965
0
LINE
8
BLACK
6
CONTINUOUS
10
4.68842
20
-3.31965
11
4.68183
21
-3.31424
0
LINE
8
BLACK
6
CONTINUOUS
10
4.68183
20
-3.31424
11
4.67642
21
-3.30764
0
LINE
8
BLACK
6
CONTINUOUS
10
4.67642
20
-3.30764
11
4.67239
21
-3.30012
0
LINE
8
BLACK
6
CONTINUOUS
10
4.67239
20
-3.30012
11
4.66992
21
-3.29195
0
LINE
8
BLACK
6
CONTINUOUS
10
4.66992
20
-3.29195
11
4.66929
21
-3.28559
0
LINE
8
BLACK
6
CONTINUOUS
10
4.66929
20
-3.28559
11
4.66929
21
-3.21047
0
LINE
8
BLACK
6
CONTINUOUS
10
4.66929
20
-3.21047
11
4.66992
21
-3.20411
0
LINE
8
BLACK
6
CONTINUOUS
10
4.66992
20
-3.20411
11
4.67239
21
-3.19595
0
LINE
8
BLACK
6
CONTINUOUS
10
4.67239
20
-3.19595
11
4.67642
21
-3.18842
0
LINE
8
BLACK
6
CONTINUOUS
10
4.67642
20
-3.18842
11
4.68183
21
-3.18183
0
LINE
8
BLACK
6
CONTINUOUS
10
4.68183
20
-3.18183
11
4.68842
21
-3.17642
0
LINE
8
BLACK
6
CONTINUOUS
10
4.68842
20
-3.17642
11
4.69595
21
-3.17239
0
LINE
8
BLACK
6
CONTINUOUS
10
4.69595
20
-3.17239
11
4.70411
21
-3.16992
0
LINE
8
BLACK
6
CONTINUOUS
10
4.70411
20
-3.16992
11
4.7126
21
-3.16908
0
LINE
8
BLACK
6
CONTINUOUS
10
4.7126
20
-3.16908
11
4.72109
21
-3.16992
0
LINE
8
BLACK
6
CONTINUOUS
10
4.43346
20
-3.28346
11
4.36654
21
-3.28346
0
LINE
8
BLACK
6
CONTINUOUS
10
4.36654
20
-3.28346
11
4.36654
21
-3.21654
0
LINE
8
BLACK
6
CONTINUOUS
10
4.36654
20
-3.21654
11
4.43346
21
-3.21654
0
LINE
8
BLACK
6
CONTINUOUS
10
4.43346
20
-3.21654
11
4.43346
21
-3.28346
0
LINE
8
BLACK
6
CONTINUOUS
10
4.50976
20
-3.21782
11
4.51585
21
-3.22034
0
LINE
8
BLACK
6
CONTINUOUS
10
4.51585
20
-3.22034
11
4.52133
21
-3.22401
0
LINE
8
BLACK
6
CONTINUOUS
10
4.52133
20
-3.22401
11
4.52599
21
-3.22867
0
LINE
8
BLACK
6
CONTINUOUS
10
4.52599
20
-3.22867
11
4.52966
21
-3.23415
0
LINE
8
BLACK
6
CONTINUOUS
10
4.52966
20
-3.23415
11
4.53218
21
-3.24024
0
LINE
8
BLACK
6
CONTINUOUS
10
4.53218
20
-3.24024
11
4.53346
21
-3.2467
0
LINE
8
BLACK
6
CONTINUOUS
10
4.53346
20
-3.2467
11
4.53346
21
-3.2533
0
LINE
8
BLACK
6
CONTINUOUS
10
4.53346
20
-3.2533
11
4.53218
21
-3.25976
0
LINE
8
BLACK
6
CONTINUOUS
10
4.53218
20
-3.25976
11
4.52966
21
-3.26585
0
LINE
8
BLACK
6
CONTINUOUS
10
4.52966
20
-3.26585
11
4.52599
21
-3.27133
0
LINE
8
BLACK
6
CONTINUOUS
10
4.52599
20
-3.27133
11
4.52133
21
-3.27599
0
LINE
8
BLACK
6
CONTINUOUS
10
4.52133
20
-3.27599
11
4.51585
21
-3.27966
0
LINE
8
BLACK
6
CONTINUOUS
10
4.51585
20
-3.27966
11
4.50976
21
-3.28218
0
LINE
8
BLACK
6
CONTINUOUS
10
4.50976
20
-3.28218
11
4.5033
21
-3.28346
0
LINE
8
BLACK
6
CONTINUOUS
10
4.5033
20
-3.28346
11
4.4967
21
-3.28346
0
LINE
8
BLACK
6
CONTINUOUS
10
4.4967
20
-3.28346
11
4.49024
21
-3.28218
0
LINE
8
BLACK
6
CONTINUOUS
10
4.49024
20
-3.28218
11
4.48415
21
-3.27966
0
LINE
8
BLACK
6
CONTINUOUS
10
4.48415
20
-3.27966
11
4.47867
21
-3.27599
0
LINE
8
BLACK
6
CONTINUOUS
10
4.47867
20
-3.27599
11
4.47401
21
-3.27133
0
LINE
8
BLACK
6
CONTINUOUS
10
4.47401
20
-3.27133
11
4.47034
21
-3.26585
0
LINE
8
BLACK
6
CONTINUOUS
10
4.47034
20
-3.26585
11
4.46782
21
-3.25976
0
LINE
8
BLACK
6
CONTINUOUS
10
4.46782
20
-3.25976
11
4.46654
21
-3.2533
0
LINE
8
BLACK
6
CONTINUOUS
10
4.46654
20
-3.2533
11
4.46654
21
-3.2467
0
LINE
8
BLACK
6
CONTINUOUS
10
4.46654
20
-3.2467
11
4.46782
21
-3.24024
0
LINE
8
BLACK
6
CONTINUOUS
10
4.46782
20
-3.24024
11
4.47034
21
-3.23415
0
LINE
8
BLACK
6
CONTINUOUS
10
4.47034
20
-3.23415
11
4.47401
21
-3.22867
0
LINE
8
BLACK
6
CONTINUOUS
10
4.47401
20
-3.22867
11
4.47867
21
-3.22401
0
LINE
8
BLACK
6
CONTINUOUS
10
4.47867
20
-3.22401
11
4.48415
21
-3.22034
0
LINE
8
BLACK
6
CONTINUOUS
10
4.48415
20
-3.22034
11
4.49024
21
-3.21782
0
LINE
8
BLACK
6
CONTINUOUS
10
4.49024
20
-3.21782
11
4.4967
21
-3.21654
0
LINE
8
BLACK
6
CONTINUOUS
10
4.4967
20
-3.21654
11
4.5033
21
-3.21654
0
LINE
8
BLACK
6
CONTINUOUS
10
4.5033
20
-3.21654
11
4.50976
21
-3.21782
0
LINE
8
BLACK
6
CONTINUOUS
10
4.10976
20
-3.21782
11
4.11585
21
-3.22034
0
LINE
8
BLACK
6
CONTINUOUS
10
4.11585
20
-3.22034
11
4.12133
21
-3.22401
0
LINE
8
BLACK
6
CONTINUOUS
10
4.12133
20
-3.22401
11
4.12599
21
-3.22867
0
LINE
8
BLACK
6
CONTINUOUS
10
4.12599
20
-3.22867
11
4.12966
21
-3.23415
0
LINE
8
BLACK
6
CONTINUOUS
10
4.12966
20
-3.23415
11
4.13218
21
-3.24024
0
LINE
8
BLACK
6
CONTINUOUS
10
4.13218
20
-3.24024
11
4.13346
21
-3.2467
0
LINE
8
BLACK
6
CONTINUOUS
10
4.13346
20
-3.2467
11
4.13346
21
-3.2533
0
LINE
8
BLACK
6
CONTINUOUS
10
4.13346
20
-3.2533
11
4.13218
21
-3.25976
0
LINE
8
BLACK
6
CONTINUOUS
10
4.13218
20
-3.25976
11
4.12966
21
-3.26585
0
LINE
8
BLACK
6
CONTINUOUS
10
4.12966
20
-3.26585
11
4.12599
21
-3.27133
0
LINE
8
BLACK
6
CONTINUOUS
10
4.12599
20
-3.27133
11
4.12133
21
-3.27599
0
LINE
8
BLACK
6
CONTINUOUS
10
4.12133
20
-3.27599
11
4.11585
21
-3.27966
0
LINE
8
BLACK
6
CONTINUOUS
10
4.11585
20
-3.27966
11
4.10976
21
-3.28218
0
LINE
8
BLACK
6
CONTINUOUS
10
4.10976
20
-3.28218
11
4.1033
21
-3.28346
0
LINE
8
BLACK
6
CONTINUOUS
10
4.1033
20
-3.28346
11
4.0967
21
-3.28346
0
LINE
8
BLACK
6
CONTINUOUS
10
4.0967
20
-3.28346
11
4.09024
21
-3.28218
0
LINE
8
BLACK
6
CONTINUOUS
10
4.09024
20
-3.28218
11
4.08415
21
-3.27966
0
LINE
8
BLACK
6
CONTINUOUS
10
4.08415
20
-3.27966
11
4.07867
21
-3.27599
0
LINE
8
BLACK
6
CONTINUOUS
10
4.07867
20
-3.27599
11
4.07401
21
-3.27133
0
LINE
8
BLACK
6
CONTINUOUS
10
4.07401
20
-3.27133
11
4.07034
21
-3.26585
0
LINE
8
BLACK
6
CONTINUOUS
10
4.07034
20
-3.26585
11
4.06782
21
-3.25976
0
LINE
8
BLACK
6
CONTINUOUS
10
4.06782
20
-3.25976
11
4.06654
21
-3.2533
0
LINE
8
BLACK
6
CONTINUOUS
10
4.06654
20
-3.2533
11
4.06654
21
-3.2467
0
LINE
8
BLACK
6
CONTINUOUS
10
4.06654
20
-3.2467
11
4.06782
21
-3.24024
0
LINE
8
BLACK
6
CONTINUOUS
10
4.06782
20
-3.24024
11
4.07034
21
-3.23415
0
LINE
8
BLACK
6
CONTINUOUS
10
4.07034
20
-3.23415
11
4.07401
21
-3.22867
0
LINE
8
BLACK
6
CONTINUOUS
10
4.07401
20
-3.22867
11
4.07867
21
-3.22401
0
LINE
8
BLACK
6
CONTINUOUS
10
4.07867
20
-3.22401
11
4.08415
21
-3.22034
0
LINE
8
BLACK
6
CONTINUOUS
10
4.08415
20
-3.22034
11
4.09024
21
-3.21782
0
LINE
8
BLACK
6
CONTINUOUS
10
4.09024
20
-3.21782
11
4.0967
21
-3.21654
0
LINE
8
BLACK
6
CONTINUOUS
10
4.0967
20
-3.21654
11
4.1033
21
-3.21654
0
LINE
8
BLACK
6
CONTINUOUS
10
4.1033
20
-3.21654
11
4.10976
21
-3.21782
0
LINE
8
BLACK
6
CONTINUOUS
10
4.23346
20
-3.28346
11
4.16654
21
-3.28346
0
LINE
8
BLACK
6
CONTINUOUS
10
4.16654
20
-3.28346
11
4.16654
21
-3.21654
0
LINE
8
BLACK
6
CONTINUOUS
10
4.16654
20
-3.21654
11
4.23346
21
-3.21654
0
LINE
8
BLACK
6
CONTINUOUS
10
4.23346
20
-3.21654
11
4.23346
21
-3.28346
0
LINE
8
BLACK
6
CONTINUOUS
10
3.35804
20
-3.2235
11
3.36305
21
-3.22558
0
LINE
8
BLACK
6
CONTINUOUS
10
3.36305
20
-3.22558
11
3.36757
21
-3.22859
0
LINE
8
BLACK
6
CONTINUOUS
10
3.36757
20
-3.22859
11
3.37141
21
-3.23243
0
LINE
8
BLACK
6
CONTINUOUS
10
3.37141
20
-3.23243
11
3.37442
21
-3.23695
0
LINE
8
BLACK
6
CONTINUOUS
10
3.37442
20
-3.23695
11
3.3765
21
-3.24196
0
LINE
8
BLACK
6
CONTINUOUS
10
3.3765
20
-3.24196
11
3.37756
21
-3.24729
0
LINE
8
BLACK
6
CONTINUOUS
10
3.37756
20
-3.24729
11
3.37756
21
-3.25271
0
LINE
8
BLACK
6
CONTINUOUS
10
3.37756
20
-3.25271
11
3.3765
21
-3.25804
0
LINE
8
BLACK
6
CONTINUOUS
10
3.3765
20
-3.25804
11
3.37442
21
-3.26305
0
LINE
8
BLACK
6
CONTINUOUS
10
3.37442
20
-3.26305
11
3.37141
21
-3.26757
0
LINE
8
BLACK
6
CONTINUOUS
10
3.37141
20
-3.26757
11
3.36757
21
-3.27141
0
LINE
8
BLACK
6
CONTINUOUS
10
3.36757
20
-3.27141
11
3.36305
21
-3.27442
0
LINE
8
BLACK
6
CONTINUOUS
10
3.36305
20
-3.27442
11
3.35804
21
-3.2765
0
LINE
8
BLACK
6
CONTINUOUS
10
3.35804
20
-3.2765
11
3.35271
21
-3.27756
0
LINE
8
BLACK
6
CONTINUOUS
10
3.35271
20
-3.27756
11
3.34729
21
-3.27756
0
LINE
8
BLACK
6
CONTINUOUS
10
3.34729
20
-3.27756
11
3.34196
21
-3.2765
0
LINE
8
BLACK
6
CONTINUOUS
10
3.34196
20
-3.2765
11
3.33695
21
-3.27442
0
LINE
8
BLACK
6
CONTINUOUS
10
3.33695
20
-3.27442
11
3.33243
21
-3.27141
0
LINE
8
BLACK
6
CONTINUOUS
10
3.33243
20
-3.27141
11
3.32859
21
-3.26757
0
LINE
8
BLACK
6
CONTINUOUS
10
3.32859
20
-3.26757
11
3.32558
21
-3.26305
0
LINE
8
BLACK
6
CONTINUOUS
10
3.32558
20
-3.26305
11
3.3235
21
-3.25804
0
LINE
8
BLACK
6
CONTINUOUS
10
3.3235
20
-3.25804
11
3.32244
21
-3.25271
0
LINE
8
BLACK
6
CONTINUOUS
10
3.32244
20
-3.25271
11
3.32244
21
-3.24729
0
LINE
8
BLACK
6
CONTINUOUS
10
3.32244
20
-3.24729
11
3.3235
21
-3.24196
0
LINE
8
BLACK
6
CONTINUOUS
10
3.3235
20
-3.24196
11
3.32558
21
-3.23695
0
LINE
8
BLACK
6
CONTINUOUS
10
3.32558
20
-3.23695
11
3.32859
21
-3.23243
0
LINE
8
BLACK
6
CONTINUOUS
10
3.32859
20
-3.23243
11
3.33243
21
-3.22859
0
LINE
8
BLACK
6
CONTINUOUS
10
3.33243
20
-3.22859
11
3.33695
21
-3.22558
0
LINE
8
BLACK
6
CONTINUOUS
10
3.33695
20
-3.22558
11
3.34196
21
-3.2235
0
LINE
8
BLACK
6
CONTINUOUS
10
3.34196
20
-3.2235
11
3.34729
21
-3.22244
0
LINE
8
BLACK
6
CONTINUOUS
10
3.34729
20
-3.22244
11
3.35271
21
-3.22244
0
LINE
8
BLACK
6
CONTINUOUS
10
3.35271
20
-3.22244
11
3.35804
21
-3.2235
0
LINE
8
BLACK
6
CONTINUOUS
10
3.65804
20
-3.2235
11
3.66305
21
-3.22558
0
LINE
8
BLACK
6
CONTINUOUS
10
3.66305
20
-3.22558
11
3.66757
21
-3.22859
0
LINE
8
BLACK
6
CONTINUOUS
10
3.66757
20
-3.22859
11
3.67141
21
-3.23243
0
LINE
8
BLACK
6
CONTINUOUS
10
3.67141
20
-3.23243
11
3.67442
21
-3.23695
0
LINE
8
BLACK
6
CONTINUOUS
10
3.67442
20
-3.23695
11
3.6765
21
-3.24196
0
LINE
8
BLACK
6
CONTINUOUS
10
3.6765
20
-3.24196
11
3.67756
21
-3.24729
0
LINE
8
BLACK
6
CONTINUOUS
10
3.67756
20
-3.24729
11
3.67756
21
-3.25271
0
LINE
8
BLACK
6
CONTINUOUS
10
3.67756
20
-3.25271
11
3.6765
21
-3.25804
0
LINE
8
BLACK
6
CONTINUOUS
10
3.6765
20
-3.25804
11
3.67442
21
-3.26305
0
LINE
8
BLACK
6
CONTINUOUS
10
3.67442
20
-3.26305
11
3.67141
21
-3.26757
0
LINE
8
BLACK
6
CONTINUOUS
10
3.67141
20
-3.26757
11
3.66757
21
-3.27141
0
LINE
8
BLACK
6
CONTINUOUS
10
3.66757
20
-3.27141
11
3.66305
21
-3.27442
0
LINE
8
BLACK
6
CONTINUOUS
10
3.66305
20
-3.27442
11
3.65804
21
-3.2765
0
LINE
8
BLACK
6
CONTINUOUS
10
3.65804
20
-3.2765
11
3.65271
21
-3.27756
0
LINE
8
BLACK
6
CONTINUOUS
10
3.65271
20
-3.27756
11
3.64729
21
-3.27756
0
LINE
8
BLACK
6
CONTINUOUS
10
3.64729
20
-3.27756
11
3.64196
21
-3.2765
0
LINE
8
BLACK
6
CONTINUOUS
10
3.64196
20
-3.2765
11
3.63695
21
-3.27442
0
LINE
8
BLACK
6
CONTINUOUS
10
3.63695
20
-3.27442
11
3.63243
21
-3.27141
0
LINE
8
BLACK
6
CONTINUOUS
10
3.63243
20
-3.27141
11
3.62859
21
-3.26757
0
LINE
8
BLACK
6
CONTINUOUS
10
3.62859
20
-3.26757
11
3.62558
21
-3.26305
0
LINE
8
BLACK
6
CONTINUOUS
10
3.62558
20
-3.26305
11
3.6235
21
-3.25804
0
LINE
8
BLACK
6
CONTINUOUS
10
3.6235
20
-3.25804
11
3.62244
21
-3.25271
0
LINE
8
BLACK
6
CONTINUOUS
10
3.62244
20
-3.25271
11
3.62244
21
-3.24729
0
LINE
8
BLACK
6
CONTINUOUS
10
3.62244
20
-3.24729
11
3.6235
21
-3.24196
0
LINE
8
BLACK
6
CONTINUOUS
10
3.6235
20
-3.24196
11
3.62558
21
-3.23695
0
LINE
8
BLACK
6
CONTINUOUS
10
3.62558
20
-3.23695
11
3.62859
21
-3.23243
0
LINE
8
BLACK
6
CONTINUOUS
10
3.62859
20
-3.23243
11
3.63243
21
-3.22859
0
LINE
8
BLACK
6
CONTINUOUS
10
3.63243
20
-3.22859
11
3.63695
21
-3.22558
0
LINE
8
BLACK
6
CONTINUOUS
10
3.63695
20
-3.22558
11
3.64196
21
-3.2235
0
LINE
8
BLACK
6
CONTINUOUS
10
3.64196
20
-3.2235
11
3.64729
21
-3.22244
0
LINE
8
BLACK
6
CONTINUOUS
10
3.64729
20
-3.22244
11
3.65271
21
-3.22244
0
LINE
8
BLACK
6
CONTINUOUS
10
3.65271
20
-3.22244
11
3.65804
21
-3.2235
0
LINE
8
BLACK
6
CONTINUOUS
10
5.07874
20
-3.27165
11
4.92126
21
-3.27165
0
LINE
8
BLACK
6
CONTINUOUS
10
4.92126
20
-3.27165
11
4.92126
21
-3.18504
0
LINE
8
BLACK
6
CONTINUOUS
10
4.92126
20
-3.18504
11
5.07874
21
-3.18504
0
LINE
8
BLACK
6
CONTINUOUS
10
5.07874
20
-3.18504
11
5.07874
21
-3.27165
0
LINE
8
BLACK
6
CONTINUOUS
10
3.24469
20
-3.26969
11
3.20531
21
-3.26969
0
LINE
8
BLACK
6
CONTINUOUS
10
3.20531
20
-3.26969
11
3.20531
21
-3.23031
0
LINE
8
BLACK
6
CONTINUOUS
10
3.20531
20
-3.23031
11
3.24469
21
-3.23031
0
LINE
8
BLACK
6
CONTINUOUS
10
3.24469
20
-3.23031
11
3.24469
21
-3.26969
  0
ENDSEC
  0
EOF
