%TF.GenerationSoftware,KiCad,Pcbnew,5.1.9+dfsg1-1*%
%TF.CreationDate,2021-10-11T12:45:34+00:00*%
%TF.ProjectId,LiRX_tht,4c695258-5f74-4687-942e-6b696361645f,rev?*%
%TF.SameCoordinates,Original*%
%TF.FileFunction,Copper,L2,Bot*%
%TF.FilePolarity,Positive*%
%FSLAX46Y46*%
G04 Gerber Fmt 4.6, Leading zero omitted, Abs format (unit mm)*
G04 Created by KiCad (PCBNEW 5.1.9+dfsg1-1) date 2021-10-11 12:45:34*
%MOMM*%
%LPD*%
G01*
G04 APERTURE LIST*
%TA.AperFunction,ComponentPad*%
%ADD10O,2.400000X1.600000*%
%TD*%
%TA.AperFunction,ComponentPad*%
%ADD11R,2.400000X1.600000*%
%TD*%
%TA.AperFunction,ComponentPad*%
%ADD12R,1.600000X1.600000*%
%TD*%
%TA.AperFunction,ComponentPad*%
%ADD13C,1.600000*%
%TD*%
%TA.AperFunction,ComponentPad*%
%ADD14R,1.700000X1.700000*%
%TD*%
%TA.AperFunction,ComponentPad*%
%ADD15O,1.700000X1.700000*%
%TD*%
%TA.AperFunction,ComponentPad*%
%ADD16R,4.000000X2.200000*%
%TD*%
%TA.AperFunction,ComponentPad*%
%ADD17O,2.200000X4.000000*%
%TD*%
%TA.AperFunction,ComponentPad*%
%ADD18O,4.000000X2.200000*%
%TD*%
%TA.AperFunction,ComponentPad*%
%ADD19O,1.400000X1.400000*%
%TD*%
%TA.AperFunction,ComponentPad*%
%ADD20C,1.400000*%
%TD*%
%TA.AperFunction,ComponentPad*%
%ADD21C,2.340000*%
%TD*%
%TA.AperFunction,ComponentPad*%
%ADD22R,1.000000X1.000000*%
%TD*%
%TA.AperFunction,ComponentPad*%
%ADD23R,1.800000X1.800000*%
%TD*%
%TA.AperFunction,ComponentPad*%
%ADD24C,1.800000*%
%TD*%
%TA.AperFunction,ViaPad*%
%ADD25C,0.800000*%
%TD*%
%TA.AperFunction,Conductor*%
%ADD26C,1.000000*%
%TD*%
%TA.AperFunction,Conductor*%
%ADD27C,0.254000*%
%TD*%
%TA.AperFunction,Conductor*%
%ADD28C,0.100000*%
%TD*%
G04 APERTURE END LIST*
D10*
%TO.P,U2,8*%
%TO.N,Net-(C13-Pad2)*%
X102235000Y-101600000D03*
%TO.P,U2,4*%
%TO.N,GND*%
X109855000Y-93980000D03*
%TO.P,U2,7*%
%TO.N,N/C*%
X102235000Y-99060000D03*
%TO.P,U2,3*%
%TO.N,GND*%
X109855000Y-96520000D03*
%TO.P,U2,6*%
%TO.N,VEE*%
X102235000Y-96520000D03*
%TO.P,U2,2*%
%TO.N,TP7*%
X109855000Y-99060000D03*
%TO.P,U2,5*%
%TO.N,TP8*%
X102235000Y-93980000D03*
D11*
%TO.P,U2,1*%
%TO.N,Net-(JP2-Pad3)*%
X109855000Y-101600000D03*
%TD*%
D12*
%TO.P,C11,1*%
%TO.N,TP8*%
X113665000Y-88265000D03*
D13*
%TO.P,C11,2*%
%TO.N,TP9*%
X113665000Y-90265000D03*
%TD*%
D14*
%TO.P,BT1,1*%
%TO.N,VCC*%
X111760000Y-82550000D03*
D15*
%TO.P,BT1,2*%
%TO.N,GND*%
X114300000Y-82550000D03*
%TD*%
D13*
%TO.P,C9,1*%
%TO.N,Net-(C9-Pad1)*%
X83185000Y-93250000D03*
%TO.P,C9,2*%
%TO.N,TP4*%
X80685000Y-93250000D03*
%TD*%
%TO.P,C10,1*%
%TO.N,Net-(C10-Pad1)*%
X91440000Y-107315000D03*
%TO.P,C10,2*%
%TO.N,TP6*%
X88940000Y-107315000D03*
%TD*%
%TO.P,C12,2*%
%TO.N,Net-(C12-Pad2)*%
X113665000Y-96480000D03*
%TO.P,C12,1*%
%TO.N,TP8*%
X113665000Y-93980000D03*
%TD*%
D16*
%TO.P,J4,T*%
%TO.N,TP9*%
X127000000Y-82000000D03*
D17*
%TO.P,J4,TN*%
X119700000Y-82500000D03*
D18*
%TO.P,J4,RN*%
X124100000Y-89100000D03*
%TO.P,J4,R*%
X122900000Y-91800000D03*
D17*
%TO.P,J4,S*%
%TO.N,GND*%
X130900000Y-86600000D03*
%TD*%
D14*
%TO.P,JP2,1*%
%TO.N,Net-(C13-Pad1)*%
X109220000Y-105410000D03*
D15*
%TO.P,JP2,2*%
X111760000Y-105410000D03*
%TO.P,JP2,3*%
%TO.N,Net-(JP2-Pad3)*%
X114300000Y-105410000D03*
%TD*%
D19*
%TO.P,R1,2*%
%TO.N,Net-(C9-Pad1)*%
X83185000Y-95250000D03*
D20*
%TO.P,R1,1*%
%TO.N,TP5*%
X83185000Y-102870000D03*
%TD*%
D19*
%TO.P,R14,2*%
%TO.N,TP2*%
X85090000Y-82550000D03*
D20*
%TO.P,R14,1*%
%TO.N,VEE*%
X92710000Y-82550000D03*
%TD*%
%TO.P,R15,1*%
%TO.N,GND*%
X113665000Y-99060000D03*
D19*
%TO.P,R15,2*%
%TO.N,Net-(C12-Pad2)*%
X121285000Y-99060000D03*
%TD*%
%TO.P,R17,2*%
%TO.N,TP5*%
X80645000Y-98425000D03*
D20*
%TO.P,R17,1*%
%TO.N,TP6*%
X80645000Y-106045000D03*
%TD*%
%TO.P,R18,1*%
%TO.N,TP2*%
X97790000Y-91440000D03*
D19*
%TO.P,R18,2*%
%TO.N,Net-(R18-Pad2)*%
X97790000Y-99060000D03*
%TD*%
D20*
%TO.P,R19,1*%
%TO.N,Net-(R18-Pad2)*%
X97790000Y-100965000D03*
D19*
%TO.P,R19,2*%
%TO.N,GND*%
X97790000Y-108585000D03*
%TD*%
D20*
%TO.P,R20,1*%
%TO.N,TP2*%
X82620000Y-90750000D03*
D19*
%TO.P,R20,2*%
%TO.N,TP4*%
X75000000Y-90750000D03*
%TD*%
D21*
%TO.P,RV3,3*%
%TO.N,GND*%
X130250000Y-96750000D03*
%TO.P,RV3,2*%
%TO.N,TP7*%
X130250000Y-101750000D03*
%TO.P,RV3,1*%
%TO.N,Net-(C10-Pad1)*%
X130250000Y-106750000D03*
%TD*%
D22*
%TO.P,J1,1*%
%TO.N,TP8*%
X102235000Y-90805000D03*
%TD*%
%TO.P,J2,1*%
%TO.N,TP3*%
X86360000Y-90805000D03*
%TD*%
%TO.P,J3,1*%
%TO.N,TP4*%
X75000000Y-88500000D03*
%TD*%
%TO.P,J5,1*%
%TO.N,TP2*%
X81915000Y-82550000D03*
%TD*%
%TO.P,J6,1*%
%TO.N,TP5*%
X80010000Y-95885000D03*
%TD*%
%TO.P,J7,1*%
%TO.N,TP7*%
X113665000Y-101600000D03*
%TD*%
%TO.P,J8,1*%
%TO.N,GND*%
X75000000Y-101250000D03*
%TD*%
%TO.P,J9,1*%
%TO.N,TP6*%
X83185000Y-106045000D03*
%TD*%
D14*
%TO.P,J10,1*%
%TO.N,VCC*%
X106680000Y-82550000D03*
D15*
%TO.P,J10,2*%
%TO.N,VEE*%
X104140000Y-82550000D03*
%TD*%
D22*
%TO.P,J11,1*%
%TO.N,TP9*%
X116840000Y-93980000D03*
%TD*%
D11*
%TO.P,U3,1*%
%TO.N,TP3*%
X95250000Y-101600000D03*
D10*
%TO.P,U3,5*%
X87630000Y-93980000D03*
%TO.P,U3,2*%
X95250000Y-99060000D03*
%TO.P,U3,6*%
%TO.N,TP5*%
X87630000Y-96520000D03*
%TO.P,U3,3*%
%TO.N,Net-(R18-Pad2)*%
X95250000Y-96520000D03*
%TO.P,U3,7*%
%TO.N,TP6*%
X87630000Y-99060000D03*
%TO.P,U3,4*%
%TO.N,GND*%
X95250000Y-93980000D03*
%TO.P,U3,8*%
%TO.N,TP2*%
X87630000Y-101600000D03*
%TD*%
D12*
%TO.P,C8,1*%
%TO.N,VEE*%
X97790000Y-83820000D03*
D13*
%TO.P,C8,2*%
%TO.N,GND*%
X97790000Y-87320000D03*
%TD*%
%TO.P,C13,2*%
%TO.N,Net-(C13-Pad2)*%
X104140000Y-107410000D03*
D12*
%TO.P,C13,1*%
%TO.N,Net-(C13-Pad1)*%
X104140000Y-105410000D03*
%TD*%
%TO.P,C14,1*%
%TO.N,TP2*%
X90170000Y-85725000D03*
D13*
%TO.P,C14,2*%
%TO.N,GND*%
X90170000Y-87725000D03*
%TD*%
%TO.P,C1,1*%
%TO.N,TP3*%
X88940000Y-90805000D03*
%TO.P,C1,2*%
%TO.N,TP2*%
X91440000Y-90805000D03*
%TD*%
%TO.P,C2,2*%
%TO.N,TP3*%
X93940000Y-104775000D03*
%TO.P,C2,1*%
%TO.N,GND*%
X91440000Y-104775000D03*
%TD*%
D23*
%TO.P,Q3,1*%
%TO.N,TP4*%
X75000000Y-93750000D03*
D24*
%TO.P,Q3,2*%
%TO.N,GND*%
X75000000Y-96290000D03*
%TD*%
D13*
%TO.P,C3,1*%
%TO.N,TP6*%
X78232000Y-101092000D03*
%TO.P,C3,2*%
%TO.N,TP5*%
X78232000Y-98592000D03*
%TD*%
D25*
%TO.N,GND*%
X99695000Y-105283000D03*
X100076000Y-101854000D03*
X96774000Y-103378000D03*
X107315000Y-102362000D03*
X104521000Y-102362000D03*
X105918000Y-106934000D03*
X107315000Y-106934000D03*
X116332000Y-105156000D03*
X124968000Y-103124000D03*
X123698000Y-106172000D03*
X128397000Y-108458000D03*
X128270000Y-105029000D03*
X130810000Y-104140000D03*
X130810000Y-108966000D03*
X130683000Y-99314000D03*
X123190000Y-99822000D03*
X104394000Y-90678000D03*
X110490000Y-90805000D03*
X104775000Y-93472000D03*
X107569000Y-93472000D03*
X93726000Y-89408000D03*
X91440000Y-92964000D03*
X83947000Y-87122000D03*
X81026000Y-86995000D03*
X83820000Y-84328000D03*
X80772000Y-84582000D03*
X86741000Y-84074000D03*
X76708000Y-91821000D03*
X76708000Y-95123000D03*
X73152000Y-91821000D03*
X73152000Y-95123000D03*
X82677000Y-98171000D03*
X81788000Y-101346000D03*
X84963000Y-106934000D03*
X86995000Y-104267000D03*
X92583000Y-108839000D03*
X87249000Y-108839000D03*
X92710000Y-103124000D03*
X90170000Y-101854000D03*
X91440000Y-98044000D03*
X122047000Y-81153000D03*
X123952000Y-81153000D03*
X121412000Y-85090000D03*
X121412000Y-87503000D03*
X117856000Y-85217000D03*
X117983000Y-88392000D03*
X115951000Y-88265000D03*
X109220000Y-81153000D03*
X101981000Y-81153000D03*
X94488000Y-81026000D03*
X100330000Y-83947000D03*
X95758000Y-83947000D03*
X88392000Y-87122000D03*
X92202000Y-85344000D03*
X119507000Y-91567000D03*
X126111000Y-91186000D03*
X130683000Y-81153000D03*
X78867000Y-81153000D03*
X73152000Y-87122000D03*
X73279000Y-103124000D03*
X79121000Y-108839000D03*
X114000000Y-92000000D03*
X115316000Y-94869000D03*
X79502000Y-104267000D03*
X78359000Y-103124000D03*
X82042000Y-104267000D03*
X79629000Y-100330000D03*
X78486000Y-96393000D03*
X93091000Y-99949000D03*
X93345000Y-95377000D03*
X99314000Y-99949000D03*
X100203000Y-97917000D03*
X104267000Y-97790000D03*
X85598000Y-95250000D03*
X81915000Y-94361000D03*
X81915000Y-92202000D03*
X109220000Y-84074000D03*
%TD*%
D26*
%TO.N,Net-(C10-Pad1)*%
X95250000Y-107315000D02*
X98965001Y-103599999D01*
X91440000Y-107315000D02*
X95250000Y-107315000D01*
X126435000Y-106750000D02*
X130250000Y-106750000D01*
X116745001Y-103599999D02*
X118110000Y-102235000D01*
X98965001Y-103599999D02*
X116745001Y-103599999D01*
X118110000Y-102235000D02*
X121920000Y-102235000D01*
X121920000Y-102235000D02*
X126435000Y-106750000D01*
%TO.N,VCC*%
X106680000Y-82550000D02*
X111760000Y-82550000D01*
%TO.N,TP3*%
X87630000Y-93980000D02*
X89535000Y-93980000D01*
X89535000Y-93980000D02*
X94615000Y-99060000D01*
X94615000Y-99060000D02*
X95250000Y-99060000D01*
%TD*%
D27*
%TO.N,GND*%
X118340655Y-80691714D02*
X118189576Y-80974362D01*
X118096543Y-81281052D01*
X118073000Y-81520075D01*
X118073000Y-83479924D01*
X118096542Y-83718947D01*
X118189575Y-84025637D01*
X118340654Y-84308285D01*
X118543971Y-84556029D01*
X118791714Y-84759346D01*
X119074362Y-84910425D01*
X119381052Y-85003458D01*
X119700000Y-85034872D01*
X120018947Y-85003458D01*
X120325637Y-84910425D01*
X120608285Y-84759346D01*
X120856029Y-84556029D01*
X121059346Y-84308286D01*
X121210425Y-84025638D01*
X121303458Y-83718948D01*
X121327000Y-83479925D01*
X121327000Y-81520075D01*
X121303458Y-81281052D01*
X121210425Y-80974362D01*
X121059346Y-80691714D01*
X120944686Y-80552000D01*
X124603847Y-80552000D01*
X124559696Y-80605798D01*
X124510761Y-80697350D01*
X124480626Y-80796690D01*
X124470451Y-80900000D01*
X124470451Y-83100000D01*
X124480626Y-83203310D01*
X124510761Y-83302650D01*
X124559696Y-83394202D01*
X124625552Y-83474448D01*
X124705798Y-83540304D01*
X124797350Y-83589239D01*
X124896690Y-83619374D01*
X125000000Y-83629549D01*
X129000000Y-83629549D01*
X129103310Y-83619374D01*
X129202650Y-83589239D01*
X129294202Y-83540304D01*
X129374448Y-83474448D01*
X129440304Y-83394202D01*
X129489239Y-83302650D01*
X129519374Y-83203310D01*
X129529549Y-83100000D01*
X129529549Y-80900000D01*
X129519374Y-80796690D01*
X129489239Y-80697350D01*
X129440304Y-80605798D01*
X129396153Y-80552000D01*
X131448000Y-80552000D01*
X131448000Y-84049081D01*
X131446622Y-84048469D01*
X131296122Y-84010825D01*
X131027000Y-84128875D01*
X131027000Y-86473000D01*
X131047000Y-86473000D01*
X131047000Y-86727000D01*
X131027000Y-86727000D01*
X131027000Y-89071125D01*
X131296122Y-89189175D01*
X131446622Y-89151531D01*
X131448000Y-89150919D01*
X131448001Y-95383863D01*
X131442265Y-95378127D01*
X131326996Y-95493396D01*
X131210725Y-95211611D01*
X130892140Y-95053743D01*
X130548878Y-94961062D01*
X130194131Y-94937127D01*
X129841530Y-94982861D01*
X129504627Y-95096505D01*
X129289275Y-95211611D01*
X129173003Y-95493398D01*
X130250000Y-96570395D01*
X130264143Y-96556253D01*
X130443748Y-96735858D01*
X130429605Y-96750000D01*
X130443748Y-96764143D01*
X130264143Y-96943748D01*
X130250000Y-96929605D01*
X129173003Y-98006602D01*
X129289275Y-98288389D01*
X129607860Y-98446257D01*
X129951122Y-98538938D01*
X130305869Y-98562873D01*
X130658470Y-98517139D01*
X130995373Y-98403495D01*
X131210725Y-98288389D01*
X131326996Y-98006604D01*
X131442265Y-98121873D01*
X131448001Y-98116137D01*
X131448001Y-100548081D01*
X131331774Y-100431854D01*
X131053831Y-100246138D01*
X130744997Y-100118215D01*
X130417140Y-100053000D01*
X130082860Y-100053000D01*
X129755003Y-100118215D01*
X129446169Y-100246138D01*
X129168226Y-100431854D01*
X128931854Y-100668226D01*
X128746138Y-100946169D01*
X128618215Y-101255003D01*
X128553000Y-101582860D01*
X128553000Y-101917140D01*
X128618215Y-102244997D01*
X128746138Y-102553831D01*
X128931854Y-102831774D01*
X129168226Y-103068146D01*
X129446169Y-103253862D01*
X129755003Y-103381785D01*
X130082860Y-103447000D01*
X130417140Y-103447000D01*
X130744997Y-103381785D01*
X131053831Y-103253862D01*
X131331774Y-103068146D01*
X131448001Y-102951919D01*
X131448001Y-105548081D01*
X131331774Y-105431854D01*
X131053831Y-105246138D01*
X130744997Y-105118215D01*
X130417140Y-105053000D01*
X130082860Y-105053000D01*
X129755003Y-105118215D01*
X129446169Y-105246138D01*
X129168226Y-105431854D01*
X128931854Y-105668226D01*
X128895255Y-105723000D01*
X126860397Y-105723000D01*
X122681877Y-101544481D01*
X122649712Y-101505288D01*
X122493331Y-101376949D01*
X122314917Y-101281585D01*
X122121327Y-101222860D01*
X121970451Y-101208000D01*
X121970441Y-101208000D01*
X121920000Y-101203032D01*
X121869559Y-101208000D01*
X118160440Y-101208000D01*
X118109999Y-101203032D01*
X118059558Y-101208000D01*
X118059549Y-101208000D01*
X117908673Y-101222860D01*
X117715083Y-101281585D01*
X117536669Y-101376949D01*
X117380288Y-101505288D01*
X117348128Y-101544476D01*
X116319605Y-102572999D01*
X114398033Y-102572999D01*
X114459202Y-102540304D01*
X114539448Y-102474448D01*
X114605304Y-102394202D01*
X114654239Y-102302650D01*
X114684374Y-102203310D01*
X114694549Y-102100000D01*
X114694549Y-101100000D01*
X114684374Y-100996690D01*
X114654239Y-100897350D01*
X114605304Y-100805798D01*
X114539448Y-100725552D01*
X114459202Y-100659696D01*
X114367650Y-100610761D01*
X114268310Y-100580626D01*
X114165000Y-100570451D01*
X113165000Y-100570451D01*
X113061690Y-100580626D01*
X112962350Y-100610761D01*
X112870798Y-100659696D01*
X112790552Y-100725552D01*
X112724696Y-100805798D01*
X112675761Y-100897350D01*
X112645626Y-100996690D01*
X112635451Y-101100000D01*
X112635451Y-102100000D01*
X112645626Y-102203310D01*
X112675761Y-102302650D01*
X112724696Y-102394202D01*
X112790552Y-102474448D01*
X112870798Y-102540304D01*
X112931967Y-102572999D01*
X111553234Y-102572999D01*
X111574374Y-102503310D01*
X111584549Y-102400000D01*
X111584549Y-100800000D01*
X111574374Y-100696690D01*
X111544239Y-100597350D01*
X111495304Y-100505798D01*
X111429448Y-100425552D01*
X111349202Y-100359696D01*
X111257650Y-100310761D01*
X111158310Y-100280626D01*
X111055000Y-100270451D01*
X110805442Y-100270451D01*
X110995808Y-100168698D01*
X111197870Y-100002870D01*
X111215597Y-99981269D01*
X112923336Y-99981269D01*
X112982797Y-100215037D01*
X113221242Y-100325934D01*
X113476740Y-100388183D01*
X113739473Y-100399390D01*
X113999344Y-100359125D01*
X114246366Y-100268935D01*
X114347203Y-100215037D01*
X114406664Y-99981269D01*
X113665000Y-99239605D01*
X112923336Y-99981269D01*
X111215597Y-99981269D01*
X111363698Y-99800808D01*
X111486919Y-99570278D01*
X111562799Y-99320137D01*
X111581085Y-99134473D01*
X112325610Y-99134473D01*
X112365875Y-99394344D01*
X112456065Y-99641366D01*
X112509963Y-99742203D01*
X112743731Y-99801664D01*
X113485395Y-99060000D01*
X113844605Y-99060000D01*
X114586269Y-99801664D01*
X114820037Y-99742203D01*
X114930934Y-99503758D01*
X114993183Y-99248260D01*
X115004390Y-98985527D01*
X114997205Y-98939151D01*
X120058000Y-98939151D01*
X120058000Y-99180849D01*
X120105153Y-99417903D01*
X120197647Y-99641202D01*
X120331927Y-99842167D01*
X120502833Y-100013073D01*
X120703798Y-100147353D01*
X120927097Y-100239847D01*
X121164151Y-100287000D01*
X121405849Y-100287000D01*
X121642903Y-100239847D01*
X121866202Y-100147353D01*
X122067167Y-100013073D01*
X122238073Y-99842167D01*
X122372353Y-99641202D01*
X122464847Y-99417903D01*
X122512000Y-99180849D01*
X122512000Y-98939151D01*
X122464847Y-98702097D01*
X122372353Y-98478798D01*
X122238073Y-98277833D01*
X122067167Y-98106927D01*
X121866202Y-97972647D01*
X121642903Y-97880153D01*
X121405849Y-97833000D01*
X121164151Y-97833000D01*
X120927097Y-97880153D01*
X120703798Y-97972647D01*
X120502833Y-98106927D01*
X120331927Y-98277833D01*
X120197647Y-98478798D01*
X120105153Y-98702097D01*
X120058000Y-98939151D01*
X114997205Y-98939151D01*
X114964125Y-98725656D01*
X114873935Y-98478634D01*
X114820037Y-98377797D01*
X114586269Y-98318336D01*
X113844605Y-99060000D01*
X113485395Y-99060000D01*
X112743731Y-98318336D01*
X112509963Y-98377797D01*
X112399066Y-98616242D01*
X112336817Y-98871740D01*
X112325610Y-99134473D01*
X111581085Y-99134473D01*
X111588420Y-99060000D01*
X111562799Y-98799863D01*
X111486919Y-98549722D01*
X111363698Y-98319192D01*
X111197870Y-98117130D01*
X110995808Y-97951302D01*
X110799404Y-97846322D01*
X110921483Y-97797166D01*
X111157839Y-97642601D01*
X111359500Y-97444895D01*
X111518715Y-97211646D01*
X111629367Y-96951818D01*
X111646904Y-96869039D01*
X111524915Y-96647000D01*
X109982000Y-96647000D01*
X109982000Y-96667000D01*
X109728000Y-96667000D01*
X109728000Y-96647000D01*
X108185085Y-96647000D01*
X108063096Y-96869039D01*
X108080633Y-96951818D01*
X108191285Y-97211646D01*
X108350500Y-97444895D01*
X108552161Y-97642601D01*
X108788517Y-97797166D01*
X108910596Y-97846322D01*
X108714192Y-97951302D01*
X108512130Y-98117130D01*
X108346302Y-98319192D01*
X108223081Y-98549722D01*
X108147201Y-98799863D01*
X108121580Y-99060000D01*
X108147201Y-99320137D01*
X108223081Y-99570278D01*
X108346302Y-99800808D01*
X108512130Y-100002870D01*
X108714192Y-100168698D01*
X108904558Y-100270451D01*
X108655000Y-100270451D01*
X108551690Y-100280626D01*
X108452350Y-100310761D01*
X108360798Y-100359696D01*
X108280552Y-100425552D01*
X108214696Y-100505798D01*
X108165761Y-100597350D01*
X108135626Y-100696690D01*
X108125451Y-100800000D01*
X108125451Y-102400000D01*
X108135626Y-102503310D01*
X108156766Y-102572999D01*
X103541158Y-102572999D01*
X103577870Y-102542870D01*
X103743698Y-102340808D01*
X103866919Y-102110278D01*
X103942799Y-101860137D01*
X103968420Y-101600000D01*
X103942799Y-101339863D01*
X103866919Y-101089722D01*
X103743698Y-100859192D01*
X103577870Y-100657130D01*
X103375808Y-100491302D01*
X103145278Y-100368081D01*
X103019743Y-100330000D01*
X103145278Y-100291919D01*
X103375808Y-100168698D01*
X103577870Y-100002870D01*
X103743698Y-99800808D01*
X103866919Y-99570278D01*
X103942799Y-99320137D01*
X103968420Y-99060000D01*
X103942799Y-98799863D01*
X103866919Y-98549722D01*
X103743698Y-98319192D01*
X103577870Y-98117130D01*
X103375808Y-97951302D01*
X103145278Y-97828081D01*
X103019743Y-97790000D01*
X103145278Y-97751919D01*
X103375808Y-97628698D01*
X103577870Y-97462870D01*
X103743698Y-97260808D01*
X103866919Y-97030278D01*
X103942799Y-96780137D01*
X103968420Y-96520000D01*
X103942799Y-96259863D01*
X103866919Y-96009722D01*
X103743698Y-95779192D01*
X103577870Y-95577130D01*
X103375808Y-95411302D01*
X103145278Y-95288081D01*
X103019743Y-95250000D01*
X103145278Y-95211919D01*
X103375808Y-95088698D01*
X103577870Y-94922870D01*
X103743698Y-94720808D01*
X103866919Y-94490278D01*
X103915830Y-94329039D01*
X108063096Y-94329039D01*
X108080633Y-94411818D01*
X108191285Y-94671646D01*
X108350500Y-94904895D01*
X108552161Y-95102601D01*
X108777559Y-95250000D01*
X108552161Y-95397399D01*
X108350500Y-95595105D01*
X108191285Y-95828354D01*
X108080633Y-96088182D01*
X108063096Y-96170961D01*
X108185085Y-96393000D01*
X109728000Y-96393000D01*
X109728000Y-94107000D01*
X109982000Y-94107000D01*
X109982000Y-96393000D01*
X111524915Y-96393000D01*
X111646904Y-96170961D01*
X111629367Y-96088182D01*
X111518715Y-95828354D01*
X111359500Y-95595105D01*
X111157839Y-95397399D01*
X110932441Y-95250000D01*
X111157839Y-95102601D01*
X111359500Y-94904895D01*
X111518715Y-94671646D01*
X111629367Y-94411818D01*
X111646904Y-94329039D01*
X111524915Y-94107000D01*
X109982000Y-94107000D01*
X109728000Y-94107000D01*
X108185085Y-94107000D01*
X108063096Y-94329039D01*
X103915830Y-94329039D01*
X103942799Y-94240137D01*
X103968420Y-93980000D01*
X103942799Y-93719863D01*
X103915831Y-93630961D01*
X108063096Y-93630961D01*
X108185085Y-93853000D01*
X109728000Y-93853000D01*
X109728000Y-92545000D01*
X109982000Y-92545000D01*
X109982000Y-93853000D01*
X111524915Y-93853000D01*
X111526946Y-93849302D01*
X112338000Y-93849302D01*
X112338000Y-94110698D01*
X112388996Y-94367072D01*
X112489028Y-94608570D01*
X112634252Y-94825913D01*
X112819087Y-95010748D01*
X113036430Y-95155972D01*
X113215149Y-95230000D01*
X113036430Y-95304028D01*
X112819087Y-95449252D01*
X112634252Y-95634087D01*
X112489028Y-95851430D01*
X112388996Y-96092928D01*
X112338000Y-96349302D01*
X112338000Y-96610698D01*
X112388996Y-96867072D01*
X112489028Y-97108570D01*
X112634252Y-97325913D01*
X112819087Y-97510748D01*
X113036430Y-97655972D01*
X113277928Y-97756004D01*
X113320697Y-97764511D01*
X113083634Y-97851065D01*
X112982797Y-97904963D01*
X112923336Y-98138731D01*
X113665000Y-98880395D01*
X114406664Y-98138731D01*
X114347203Y-97904963D01*
X114108758Y-97794066D01*
X113997273Y-97766904D01*
X114052072Y-97756004D01*
X114293570Y-97655972D01*
X114510913Y-97510748D01*
X114695748Y-97325913D01*
X114840972Y-97108570D01*
X114941004Y-96867072D01*
X114953178Y-96805869D01*
X128437127Y-96805869D01*
X128482861Y-97158470D01*
X128596505Y-97495373D01*
X128711611Y-97710725D01*
X128993398Y-97826997D01*
X130070395Y-96750000D01*
X128993398Y-95673003D01*
X128711611Y-95789275D01*
X128553743Y-96107860D01*
X128461062Y-96451122D01*
X128437127Y-96805869D01*
X114953178Y-96805869D01*
X114992000Y-96610698D01*
X114992000Y-96349302D01*
X114941004Y-96092928D01*
X114840972Y-95851430D01*
X114695748Y-95634087D01*
X114510913Y-95449252D01*
X114293570Y-95304028D01*
X114114851Y-95230000D01*
X114293570Y-95155972D01*
X114510913Y-95010748D01*
X114695748Y-94825913D01*
X114840972Y-94608570D01*
X114941004Y-94367072D01*
X114992000Y-94110698D01*
X114992000Y-93849302D01*
X114941004Y-93592928D01*
X114894228Y-93480000D01*
X115810451Y-93480000D01*
X115810451Y-94480000D01*
X115820626Y-94583310D01*
X115850761Y-94682650D01*
X115899696Y-94774202D01*
X115965552Y-94854448D01*
X116045798Y-94920304D01*
X116137350Y-94969239D01*
X116236690Y-94999374D01*
X116340000Y-95009549D01*
X117340000Y-95009549D01*
X117443310Y-94999374D01*
X117542650Y-94969239D01*
X117634202Y-94920304D01*
X117714448Y-94854448D01*
X117780304Y-94774202D01*
X117829239Y-94682650D01*
X117859374Y-94583310D01*
X117869549Y-94480000D01*
X117869549Y-93480000D01*
X117859374Y-93376690D01*
X117829239Y-93277350D01*
X117780304Y-93185798D01*
X117714448Y-93105552D01*
X117634202Y-93039696D01*
X117542650Y-92990761D01*
X117443310Y-92960626D01*
X117340000Y-92950451D01*
X116340000Y-92950451D01*
X116236690Y-92960626D01*
X116137350Y-92990761D01*
X116045798Y-93039696D01*
X115965552Y-93105552D01*
X115899696Y-93185798D01*
X115850761Y-93277350D01*
X115820626Y-93376690D01*
X115810451Y-93480000D01*
X114894228Y-93480000D01*
X114840972Y-93351430D01*
X114695748Y-93134087D01*
X114510913Y-92949252D01*
X114293570Y-92804028D01*
X114052072Y-92703996D01*
X113795698Y-92653000D01*
X113534302Y-92653000D01*
X113277928Y-92703996D01*
X113036430Y-92804028D01*
X112819087Y-92949252D01*
X112634252Y-93134087D01*
X112489028Y-93351430D01*
X112388996Y-93592928D01*
X112338000Y-93849302D01*
X111526946Y-93849302D01*
X111646904Y-93630961D01*
X111629367Y-93548182D01*
X111518715Y-93288354D01*
X111359500Y-93055105D01*
X111157839Y-92857399D01*
X110921483Y-92702834D01*
X110659514Y-92597350D01*
X110382000Y-92545000D01*
X109982000Y-92545000D01*
X109728000Y-92545000D01*
X109328000Y-92545000D01*
X109050486Y-92597350D01*
X108788517Y-92702834D01*
X108552161Y-92857399D01*
X108350500Y-93055105D01*
X108191285Y-93288354D01*
X108080633Y-93548182D01*
X108063096Y-93630961D01*
X103915831Y-93630961D01*
X103866919Y-93469722D01*
X103743698Y-93239192D01*
X103577870Y-93037130D01*
X103375808Y-92871302D01*
X103145278Y-92748081D01*
X102895137Y-92672201D01*
X102700184Y-92653000D01*
X101769816Y-92653000D01*
X101574863Y-92672201D01*
X101324722Y-92748081D01*
X101094192Y-92871302D01*
X100892130Y-93037130D01*
X100726302Y-93239192D01*
X100603081Y-93469722D01*
X100527201Y-93719863D01*
X100501580Y-93980000D01*
X100527201Y-94240137D01*
X100603081Y-94490278D01*
X100726302Y-94720808D01*
X100892130Y-94922870D01*
X101094192Y-95088698D01*
X101324722Y-95211919D01*
X101450257Y-95250000D01*
X101324722Y-95288081D01*
X101094192Y-95411302D01*
X100892130Y-95577130D01*
X100726302Y-95779192D01*
X100603081Y-96009722D01*
X100527201Y-96259863D01*
X100501580Y-96520000D01*
X100527201Y-96780137D01*
X100603081Y-97030278D01*
X100726302Y-97260808D01*
X100892130Y-97462870D01*
X101094192Y-97628698D01*
X101324722Y-97751919D01*
X101450257Y-97790000D01*
X101324722Y-97828081D01*
X101094192Y-97951302D01*
X100892130Y-98117130D01*
X100726302Y-98319192D01*
X100603081Y-98549722D01*
X100527201Y-98799863D01*
X100501580Y-99060000D01*
X100527201Y-99320137D01*
X100603081Y-99570278D01*
X100726302Y-99800808D01*
X100892130Y-100002870D01*
X101094192Y-100168698D01*
X101324722Y-100291919D01*
X101450257Y-100330000D01*
X101324722Y-100368081D01*
X101094192Y-100491302D01*
X100892130Y-100657130D01*
X100726302Y-100859192D01*
X100603081Y-101089722D01*
X100527201Y-101339863D01*
X100501580Y-101600000D01*
X100527201Y-101860137D01*
X100603081Y-102110278D01*
X100726302Y-102340808D01*
X100892130Y-102542870D01*
X100928842Y-102572999D01*
X99015444Y-102572999D01*
X98965001Y-102568031D01*
X98914557Y-102572999D01*
X98914550Y-102572999D01*
X98781832Y-102586071D01*
X98763673Y-102587859D01*
X98714915Y-102602650D01*
X98570084Y-102646584D01*
X98391670Y-102741948D01*
X98391668Y-102741949D01*
X98391669Y-102741949D01*
X98274476Y-102838126D01*
X98274471Y-102838131D01*
X98235289Y-102870287D01*
X98203133Y-102909469D01*
X94824604Y-106288000D01*
X92289661Y-106288000D01*
X92285913Y-106284252D01*
X92068570Y-106139028D01*
X91984593Y-106104244D01*
X92056292Y-106078603D01*
X92181514Y-106011671D01*
X92253097Y-105767702D01*
X91440000Y-104954605D01*
X90626903Y-105767702D01*
X90698486Y-106011671D01*
X90894725Y-106104526D01*
X90811430Y-106139028D01*
X90594087Y-106284252D01*
X90409252Y-106469087D01*
X90264028Y-106686430D01*
X90190000Y-106865149D01*
X90115972Y-106686430D01*
X89970748Y-106469087D01*
X89785913Y-106284252D01*
X89568570Y-106139028D01*
X89327072Y-106038996D01*
X89070698Y-105988000D01*
X88809302Y-105988000D01*
X88552928Y-106038996D01*
X88311430Y-106139028D01*
X88094087Y-106284252D01*
X87909252Y-106469087D01*
X87764028Y-106686430D01*
X87663996Y-106927928D01*
X87613000Y-107184302D01*
X87613000Y-107445698D01*
X87663996Y-107702072D01*
X87764028Y-107943570D01*
X87909252Y-108160913D01*
X88094087Y-108345748D01*
X88311430Y-108490972D01*
X88552928Y-108591004D01*
X88809302Y-108642000D01*
X89070698Y-108642000D01*
X89327072Y-108591004D01*
X89568570Y-108490972D01*
X89785913Y-108345748D01*
X89970748Y-108160913D01*
X90115972Y-107943570D01*
X90190000Y-107764851D01*
X90264028Y-107943570D01*
X90409252Y-108160913D01*
X90594087Y-108345748D01*
X90811430Y-108490972D01*
X91052928Y-108591004D01*
X91309302Y-108642000D01*
X91570698Y-108642000D01*
X91827072Y-108591004D01*
X92068570Y-108490972D01*
X92285913Y-108345748D01*
X92289661Y-108342000D01*
X95199559Y-108342000D01*
X95250000Y-108346968D01*
X95300441Y-108342000D01*
X95300451Y-108342000D01*
X95451327Y-108327140D01*
X95644917Y-108268415D01*
X95676244Y-108251670D01*
X96497278Y-108251670D01*
X96619799Y-108458000D01*
X97663000Y-108458000D01*
X97663000Y-107415626D01*
X97917000Y-107415626D01*
X97917000Y-108458000D01*
X98960201Y-108458000D01*
X99082722Y-108251670D01*
X98992853Y-108005877D01*
X98856759Y-107782340D01*
X98679670Y-107589649D01*
X98468392Y-107435208D01*
X98231044Y-107324953D01*
X98123329Y-107292284D01*
X97917000Y-107415626D01*
X97663000Y-107415626D01*
X97456671Y-107292284D01*
X97348956Y-107324953D01*
X97111608Y-107435208D01*
X96900330Y-107589649D01*
X96723241Y-107782340D01*
X96587147Y-108005877D01*
X96497278Y-108251670D01*
X95676244Y-108251670D01*
X95823331Y-108173051D01*
X95979712Y-108044712D01*
X96011877Y-108005519D01*
X99390399Y-104626999D01*
X102810451Y-104626999D01*
X102810451Y-106210000D01*
X102820626Y-106313310D01*
X102850761Y-106412650D01*
X102899696Y-106504202D01*
X102965552Y-106584448D01*
X103045798Y-106650304D01*
X103050105Y-106652606D01*
X102964028Y-106781430D01*
X102863996Y-107022928D01*
X102813000Y-107279302D01*
X102813000Y-107540698D01*
X102863996Y-107797072D01*
X102964028Y-108038570D01*
X103109252Y-108255913D01*
X103294087Y-108440748D01*
X103511430Y-108585972D01*
X103752928Y-108686004D01*
X104009302Y-108737000D01*
X104270698Y-108737000D01*
X104527072Y-108686004D01*
X104768570Y-108585972D01*
X104985913Y-108440748D01*
X105170748Y-108255913D01*
X105315972Y-108038570D01*
X105416004Y-107797072D01*
X105467000Y-107540698D01*
X105467000Y-107279302D01*
X105416004Y-107022928D01*
X105315972Y-106781430D01*
X105229895Y-106652606D01*
X105234202Y-106650304D01*
X105314448Y-106584448D01*
X105380304Y-106504202D01*
X105429239Y-106412650D01*
X105459374Y-106313310D01*
X105469549Y-106210000D01*
X105469549Y-104626999D01*
X107840451Y-104626999D01*
X107840451Y-106260000D01*
X107850626Y-106363310D01*
X107880761Y-106462650D01*
X107929696Y-106554202D01*
X107995552Y-106634448D01*
X108075798Y-106700304D01*
X108167350Y-106749239D01*
X108266690Y-106779374D01*
X108370000Y-106789549D01*
X110070000Y-106789549D01*
X110173310Y-106779374D01*
X110272650Y-106749239D01*
X110364202Y-106700304D01*
X110444448Y-106634448D01*
X110510304Y-106554202D01*
X110559239Y-106462650D01*
X110589374Y-106363310D01*
X110599549Y-106260000D01*
X110599549Y-106151798D01*
X110690414Y-106287787D01*
X110882213Y-106479586D01*
X111107746Y-106630282D01*
X111358344Y-106734083D01*
X111624377Y-106787000D01*
X111895623Y-106787000D01*
X112161656Y-106734083D01*
X112412254Y-106630282D01*
X112637787Y-106479586D01*
X112829586Y-106287787D01*
X112980282Y-106062254D01*
X113030000Y-105942224D01*
X113079718Y-106062254D01*
X113230414Y-106287787D01*
X113422213Y-106479586D01*
X113647746Y-106630282D01*
X113898344Y-106734083D01*
X114164377Y-106787000D01*
X114435623Y-106787000D01*
X114701656Y-106734083D01*
X114952254Y-106630282D01*
X115177787Y-106479586D01*
X115369586Y-106287787D01*
X115520282Y-106062254D01*
X115624083Y-105811656D01*
X115628289Y-105790509D01*
X117873000Y-105790509D01*
X117873000Y-106209491D01*
X117954739Y-106620423D01*
X118115077Y-107007512D01*
X118347851Y-107355884D01*
X118644116Y-107652149D01*
X118992488Y-107884923D01*
X119379577Y-108045261D01*
X119790509Y-108127000D01*
X120209491Y-108127000D01*
X120620423Y-108045261D01*
X121007512Y-107884923D01*
X121355884Y-107652149D01*
X121652149Y-107355884D01*
X121884923Y-107007512D01*
X122045261Y-106620423D01*
X122127000Y-106209491D01*
X122127000Y-105790509D01*
X122045261Y-105379577D01*
X121884923Y-104992488D01*
X121652149Y-104644116D01*
X121355884Y-104347851D01*
X121007512Y-104115077D01*
X120620423Y-103954739D01*
X120209491Y-103873000D01*
X119790509Y-103873000D01*
X119379577Y-103954739D01*
X118992488Y-104115077D01*
X118644116Y-104347851D01*
X118347851Y-104644116D01*
X118115077Y-104992488D01*
X117954739Y-105379577D01*
X117873000Y-105790509D01*
X115628289Y-105790509D01*
X115677000Y-105545623D01*
X115677000Y-105274377D01*
X115624083Y-105008344D01*
X115520282Y-104757746D01*
X115432920Y-104626999D01*
X116694560Y-104626999D01*
X116745001Y-104631967D01*
X116795442Y-104626999D01*
X116795452Y-104626999D01*
X116946328Y-104612139D01*
X117139918Y-104553414D01*
X117318332Y-104458050D01*
X117474713Y-104329711D01*
X117506878Y-104290518D01*
X118535397Y-103262000D01*
X121494604Y-103262000D01*
X125673128Y-107440525D01*
X125705288Y-107479712D01*
X125861669Y-107608051D01*
X126040083Y-107703415D01*
X126233673Y-107762140D01*
X126384549Y-107777000D01*
X126384558Y-107777000D01*
X126434999Y-107781968D01*
X126485440Y-107777000D01*
X128895255Y-107777000D01*
X128931854Y-107831774D01*
X129168226Y-108068146D01*
X129446169Y-108253862D01*
X129755003Y-108381785D01*
X130082860Y-108447000D01*
X130417140Y-108447000D01*
X130744997Y-108381785D01*
X131053831Y-108253862D01*
X131331774Y-108068146D01*
X131448001Y-107951919D01*
X131448001Y-109448000D01*
X98801305Y-109448000D01*
X98856759Y-109387660D01*
X98992853Y-109164123D01*
X99082722Y-108918330D01*
X98960201Y-108712000D01*
X97917000Y-108712000D01*
X97917000Y-108732000D01*
X97663000Y-108732000D01*
X97663000Y-108712000D01*
X96619799Y-108712000D01*
X96497278Y-108918330D01*
X96587147Y-109164123D01*
X96723241Y-109387660D01*
X96778695Y-109448000D01*
X76027002Y-109448000D01*
X75330791Y-109379736D01*
X74687080Y-109185388D01*
X74093373Y-108869709D01*
X73572289Y-108444724D01*
X73143674Y-107926619D01*
X72823856Y-107335128D01*
X72625017Y-106692782D01*
X72552000Y-105998073D01*
X72552000Y-105790509D01*
X73873000Y-105790509D01*
X73873000Y-106209491D01*
X73954739Y-106620423D01*
X74115077Y-107007512D01*
X74347851Y-107355884D01*
X74644116Y-107652149D01*
X74992488Y-107884923D01*
X75379577Y-108045261D01*
X75790509Y-108127000D01*
X76209491Y-108127000D01*
X76620423Y-108045261D01*
X77007512Y-107884923D01*
X77355884Y-107652149D01*
X77652149Y-107355884D01*
X77884923Y-107007512D01*
X78045261Y-106620423D01*
X78127000Y-106209491D01*
X78127000Y-105924151D01*
X79418000Y-105924151D01*
X79418000Y-106165849D01*
X79465153Y-106402903D01*
X79557647Y-106626202D01*
X79691927Y-106827167D01*
X79862833Y-106998073D01*
X80063798Y-107132353D01*
X80287097Y-107224847D01*
X80524151Y-107272000D01*
X80765849Y-107272000D01*
X81002903Y-107224847D01*
X81226202Y-107132353D01*
X81427167Y-106998073D01*
X81598073Y-106827167D01*
X81732353Y-106626202D01*
X81824847Y-106402903D01*
X81872000Y-106165849D01*
X81872000Y-105924151D01*
X81824847Y-105687097D01*
X81765989Y-105545000D01*
X82155451Y-105545000D01*
X82155451Y-106545000D01*
X82165626Y-106648310D01*
X82195761Y-106747650D01*
X82244696Y-106839202D01*
X82310552Y-106919448D01*
X82390798Y-106985304D01*
X82482350Y-107034239D01*
X82581690Y-107064374D01*
X82685000Y-107074549D01*
X83685000Y-107074549D01*
X83788310Y-107064374D01*
X83887650Y-107034239D01*
X83979202Y-106985304D01*
X84059448Y-106919448D01*
X84125304Y-106839202D01*
X84174239Y-106747650D01*
X84204374Y-106648310D01*
X84214549Y-106545000D01*
X84214549Y-105545000D01*
X84204374Y-105441690D01*
X84174239Y-105342350D01*
X84125304Y-105250798D01*
X84059448Y-105170552D01*
X83979202Y-105104696D01*
X83887650Y-105055761D01*
X83788310Y-105025626D01*
X83685000Y-105015451D01*
X82685000Y-105015451D01*
X82581690Y-105025626D01*
X82482350Y-105055761D01*
X82390798Y-105104696D01*
X82310552Y-105170552D01*
X82244696Y-105250798D01*
X82195761Y-105342350D01*
X82165626Y-105441690D01*
X82155451Y-105545000D01*
X81765989Y-105545000D01*
X81732353Y-105463798D01*
X81598073Y-105262833D01*
X81427167Y-105091927D01*
X81226202Y-104957647D01*
X81002903Y-104865153D01*
X80904162Y-104845512D01*
X89999783Y-104845512D01*
X90041213Y-105125130D01*
X90136397Y-105391292D01*
X90203329Y-105516514D01*
X90447298Y-105588097D01*
X91260395Y-104775000D01*
X91619605Y-104775000D01*
X92432702Y-105588097D01*
X92676671Y-105516514D01*
X92748197Y-105365351D01*
X92764028Y-105403570D01*
X92909252Y-105620913D01*
X93094087Y-105805748D01*
X93311430Y-105950972D01*
X93552928Y-106051004D01*
X93809302Y-106102000D01*
X94070698Y-106102000D01*
X94327072Y-106051004D01*
X94568570Y-105950972D01*
X94785913Y-105805748D01*
X94970748Y-105620913D01*
X95115972Y-105403570D01*
X95216004Y-105162072D01*
X95267000Y-104905698D01*
X95267000Y-104644302D01*
X95216004Y-104387928D01*
X95115972Y-104146430D01*
X94970748Y-103929087D01*
X94785913Y-103744252D01*
X94568570Y-103599028D01*
X94327072Y-103498996D01*
X94070698Y-103448000D01*
X93809302Y-103448000D01*
X93552928Y-103498996D01*
X93311430Y-103599028D01*
X93094087Y-103744252D01*
X92909252Y-103929087D01*
X92764028Y-104146430D01*
X92750710Y-104178582D01*
X92743603Y-104158708D01*
X92676671Y-104033486D01*
X92432702Y-103961903D01*
X91619605Y-104775000D01*
X91260395Y-104775000D01*
X90447298Y-103961903D01*
X90203329Y-104033486D01*
X90082429Y-104288996D01*
X90013700Y-104563184D01*
X89999783Y-104845512D01*
X80904162Y-104845512D01*
X80765849Y-104818000D01*
X80524151Y-104818000D01*
X80287097Y-104865153D01*
X80063798Y-104957647D01*
X79862833Y-105091927D01*
X79691927Y-105262833D01*
X79557647Y-105463798D01*
X79465153Y-105687097D01*
X79418000Y-105924151D01*
X78127000Y-105924151D01*
X78127000Y-105790509D01*
X78045261Y-105379577D01*
X77884923Y-104992488D01*
X77652149Y-104644116D01*
X77355884Y-104347851D01*
X77007512Y-104115077D01*
X76620423Y-103954739D01*
X76209491Y-103873000D01*
X75790509Y-103873000D01*
X75379577Y-103954739D01*
X74992488Y-104115077D01*
X74644116Y-104347851D01*
X74347851Y-104644116D01*
X74115077Y-104992488D01*
X73954739Y-105379577D01*
X73873000Y-105790509D01*
X72552000Y-105790509D01*
X72552000Y-102749151D01*
X81958000Y-102749151D01*
X81958000Y-102990849D01*
X82005153Y-103227903D01*
X82097647Y-103451202D01*
X82231927Y-103652167D01*
X82402833Y-103823073D01*
X82603798Y-103957353D01*
X82827097Y-104049847D01*
X83064151Y-104097000D01*
X83305849Y-104097000D01*
X83542903Y-104049847D01*
X83766202Y-103957353D01*
X83967167Y-103823073D01*
X84007942Y-103782298D01*
X90626903Y-103782298D01*
X91440000Y-104595395D01*
X92253097Y-103782298D01*
X92181514Y-103538329D01*
X91926004Y-103417429D01*
X91651816Y-103348700D01*
X91369488Y-103334783D01*
X91089870Y-103376213D01*
X90823708Y-103471397D01*
X90698486Y-103538329D01*
X90626903Y-103782298D01*
X84007942Y-103782298D01*
X84138073Y-103652167D01*
X84272353Y-103451202D01*
X84364847Y-103227903D01*
X84412000Y-102990849D01*
X84412000Y-102749151D01*
X84364847Y-102512097D01*
X84272353Y-102288798D01*
X84138073Y-102087833D01*
X83967167Y-101916927D01*
X83766202Y-101782647D01*
X83542903Y-101690153D01*
X83305849Y-101643000D01*
X83064151Y-101643000D01*
X82827097Y-101690153D01*
X82603798Y-101782647D01*
X82402833Y-101916927D01*
X82231927Y-102087833D01*
X82097647Y-102288798D01*
X82005153Y-102512097D01*
X81958000Y-102749151D01*
X72552000Y-102749151D01*
X72552000Y-101750000D01*
X73861928Y-101750000D01*
X73874188Y-101874482D01*
X73910498Y-101994180D01*
X73969463Y-102104494D01*
X74048815Y-102201185D01*
X74145506Y-102280537D01*
X74255820Y-102339502D01*
X74375518Y-102375812D01*
X74500000Y-102388072D01*
X74714250Y-102385000D01*
X74873000Y-102226250D01*
X74873000Y-101377000D01*
X75127000Y-101377000D01*
X75127000Y-102226250D01*
X75285750Y-102385000D01*
X75500000Y-102388072D01*
X75624482Y-102375812D01*
X75744180Y-102339502D01*
X75854494Y-102280537D01*
X75951185Y-102201185D01*
X76030537Y-102104494D01*
X76089502Y-101994180D01*
X76125812Y-101874482D01*
X76138072Y-101750000D01*
X76135000Y-101535750D01*
X75976250Y-101377000D01*
X75127000Y-101377000D01*
X74873000Y-101377000D01*
X74023750Y-101377000D01*
X73865000Y-101535750D01*
X73861928Y-101750000D01*
X72552000Y-101750000D01*
X72552000Y-100750000D01*
X73861928Y-100750000D01*
X73865000Y-100964250D01*
X74023750Y-101123000D01*
X74873000Y-101123000D01*
X74873000Y-100273750D01*
X75127000Y-100273750D01*
X75127000Y-101123000D01*
X75976250Y-101123000D01*
X76135000Y-100964250D01*
X76138072Y-100750000D01*
X76125812Y-100625518D01*
X76089502Y-100505820D01*
X76030537Y-100395506D01*
X75951185Y-100298815D01*
X75854494Y-100219463D01*
X75744180Y-100160498D01*
X75624482Y-100124188D01*
X75500000Y-100111928D01*
X75285750Y-100115000D01*
X75127000Y-100273750D01*
X74873000Y-100273750D01*
X74714250Y-100115000D01*
X74500000Y-100111928D01*
X74375518Y-100124188D01*
X74255820Y-100160498D01*
X74145506Y-100219463D01*
X74048815Y-100298815D01*
X73969463Y-100395506D01*
X73910498Y-100505820D01*
X73874188Y-100625518D01*
X73861928Y-100750000D01*
X72552000Y-100750000D01*
X72552000Y-98461302D01*
X76905000Y-98461302D01*
X76905000Y-98722698D01*
X76955996Y-98979072D01*
X77056028Y-99220570D01*
X77201252Y-99437913D01*
X77386087Y-99622748D01*
X77603430Y-99767972D01*
X77782149Y-99842000D01*
X77603430Y-99916028D01*
X77386087Y-100061252D01*
X77201252Y-100246087D01*
X77056028Y-100463430D01*
X76955996Y-100704928D01*
X76905000Y-100961302D01*
X76905000Y-101222698D01*
X76955996Y-101479072D01*
X77056028Y-101720570D01*
X77201252Y-101937913D01*
X77386087Y-102122748D01*
X77603430Y-102267972D01*
X77844928Y-102368004D01*
X78101302Y-102419000D01*
X78362698Y-102419000D01*
X78619072Y-102368004D01*
X78860570Y-102267972D01*
X79077913Y-102122748D01*
X79262748Y-101937913D01*
X79407972Y-101720570D01*
X79508004Y-101479072D01*
X79559000Y-101222698D01*
X79559000Y-100961302D01*
X79508004Y-100704928D01*
X79407972Y-100463430D01*
X79262748Y-100246087D01*
X79077913Y-100061252D01*
X78860570Y-99916028D01*
X78681851Y-99842000D01*
X78860570Y-99767972D01*
X79077913Y-99622748D01*
X79262748Y-99437913D01*
X79407972Y-99220570D01*
X79508004Y-98979072D01*
X79520464Y-98916434D01*
X79557647Y-99006202D01*
X79691927Y-99207167D01*
X79862833Y-99378073D01*
X80063798Y-99512353D01*
X80287097Y-99604847D01*
X80524151Y-99652000D01*
X80765849Y-99652000D01*
X81002903Y-99604847D01*
X81226202Y-99512353D01*
X81427167Y-99378073D01*
X81598073Y-99207167D01*
X81732353Y-99006202D01*
X81824847Y-98782903D01*
X81872000Y-98545849D01*
X81872000Y-98304151D01*
X81824847Y-98067097D01*
X81732353Y-97843798D01*
X81598073Y-97642833D01*
X81427167Y-97471927D01*
X81226202Y-97337647D01*
X81002903Y-97245153D01*
X80765849Y-97198000D01*
X80524151Y-97198000D01*
X80287097Y-97245153D01*
X80063798Y-97337647D01*
X79862833Y-97471927D01*
X79691927Y-97642833D01*
X79557647Y-97843798D01*
X79465153Y-98067097D01*
X79460533Y-98090323D01*
X79407972Y-97963430D01*
X79262748Y-97746087D01*
X79077913Y-97561252D01*
X78860570Y-97416028D01*
X78619072Y-97315996D01*
X78362698Y-97265000D01*
X78101302Y-97265000D01*
X77844928Y-97315996D01*
X77603430Y-97416028D01*
X77386087Y-97561252D01*
X77201252Y-97746087D01*
X77056028Y-97963430D01*
X76955996Y-98204928D01*
X76905000Y-98461302D01*
X72552000Y-98461302D01*
X72552000Y-97354080D01*
X74115525Y-97354080D01*
X74199208Y-97608261D01*
X74471775Y-97739158D01*
X74764642Y-97814365D01*
X75066553Y-97830991D01*
X75365907Y-97788397D01*
X75651199Y-97688222D01*
X75800792Y-97608261D01*
X75884475Y-97354080D01*
X75000000Y-96469605D01*
X74115525Y-97354080D01*
X72552000Y-97354080D01*
X72552000Y-96356553D01*
X73459009Y-96356553D01*
X73501603Y-96655907D01*
X73601778Y-96941199D01*
X73681739Y-97090792D01*
X73935920Y-97174475D01*
X74820395Y-96290000D01*
X75179605Y-96290000D01*
X76064080Y-97174475D01*
X76318261Y-97090792D01*
X76449158Y-96818225D01*
X76524365Y-96525358D01*
X76540991Y-96223447D01*
X76498397Y-95924093D01*
X76398222Y-95638801D01*
X76318261Y-95489208D01*
X76064080Y-95405525D01*
X75179605Y-96290000D01*
X74820395Y-96290000D01*
X73935920Y-95405525D01*
X73681739Y-95489208D01*
X73550842Y-95761775D01*
X73475635Y-96054642D01*
X73459009Y-96356553D01*
X72552000Y-96356553D01*
X72552000Y-92850000D01*
X73570451Y-92850000D01*
X73570451Y-94650000D01*
X73580626Y-94753310D01*
X73610761Y-94852650D01*
X73659696Y-94944202D01*
X73725552Y-95024448D01*
X73805798Y-95090304D01*
X73897350Y-95139239D01*
X73996690Y-95169374D01*
X74100000Y-95179549D01*
X74130792Y-95179549D01*
X74115525Y-95225920D01*
X75000000Y-96110395D01*
X75725395Y-95385000D01*
X78980451Y-95385000D01*
X78980451Y-96385000D01*
X78990626Y-96488310D01*
X79020761Y-96587650D01*
X79069696Y-96679202D01*
X79135552Y-96759448D01*
X79215798Y-96825304D01*
X79307350Y-96874239D01*
X79406690Y-96904374D01*
X79510000Y-96914549D01*
X80510000Y-96914549D01*
X80613310Y-96904374D01*
X80712650Y-96874239D01*
X80804202Y-96825304D01*
X80884448Y-96759448D01*
X80950304Y-96679202D01*
X80999239Y-96587650D01*
X81029374Y-96488310D01*
X81039549Y-96385000D01*
X81039549Y-95385000D01*
X81029374Y-95281690D01*
X80999239Y-95182350D01*
X80950304Y-95090798D01*
X80884448Y-95010552D01*
X80804202Y-94944696D01*
X80712650Y-94895761D01*
X80613310Y-94865626D01*
X80510000Y-94855451D01*
X79510000Y-94855451D01*
X79406690Y-94865626D01*
X79307350Y-94895761D01*
X79215798Y-94944696D01*
X79135552Y-95010552D01*
X79069696Y-95090798D01*
X79020761Y-95182350D01*
X78990626Y-95281690D01*
X78980451Y-95385000D01*
X75725395Y-95385000D01*
X75884475Y-95225920D01*
X75869208Y-95179549D01*
X75900000Y-95179549D01*
X76003310Y-95169374D01*
X76102650Y-95139239D01*
X76194202Y-95090304D01*
X76274448Y-95024448D01*
X76340304Y-94944202D01*
X76389239Y-94852650D01*
X76419374Y-94753310D01*
X76429549Y-94650000D01*
X76429549Y-93119302D01*
X79358000Y-93119302D01*
X79358000Y-93380698D01*
X79408996Y-93637072D01*
X79509028Y-93878570D01*
X79654252Y-94095913D01*
X79839087Y-94280748D01*
X80056430Y-94425972D01*
X80297928Y-94526004D01*
X80554302Y-94577000D01*
X80815698Y-94577000D01*
X81072072Y-94526004D01*
X81313570Y-94425972D01*
X81530913Y-94280748D01*
X81715748Y-94095913D01*
X81860972Y-93878570D01*
X81935000Y-93699851D01*
X82009028Y-93878570D01*
X82154252Y-94095913D01*
X82339087Y-94280748D01*
X82386999Y-94312761D01*
X82231927Y-94467833D01*
X82097647Y-94668798D01*
X82005153Y-94892097D01*
X81958000Y-95129151D01*
X81958000Y-95370849D01*
X82005153Y-95607903D01*
X82097647Y-95831202D01*
X82231927Y-96032167D01*
X82402833Y-96203073D01*
X82603798Y-96337353D01*
X82827097Y-96429847D01*
X83064151Y-96477000D01*
X83305849Y-96477000D01*
X83542903Y-96429847D01*
X83766202Y-96337353D01*
X83967167Y-96203073D01*
X84138073Y-96032167D01*
X84272353Y-95831202D01*
X84364847Y-95607903D01*
X84412000Y-95370849D01*
X84412000Y-95129151D01*
X84364847Y-94892097D01*
X84272353Y-94668798D01*
X84138073Y-94467833D01*
X83983001Y-94312761D01*
X84030913Y-94280748D01*
X84215748Y-94095913D01*
X84293198Y-93980000D01*
X85896580Y-93980000D01*
X85922201Y-94240137D01*
X85998081Y-94490278D01*
X86121302Y-94720808D01*
X86287130Y-94922870D01*
X86489192Y-95088698D01*
X86719722Y-95211919D01*
X86845257Y-95250000D01*
X86719722Y-95288081D01*
X86489192Y-95411302D01*
X86287130Y-95577130D01*
X86121302Y-95779192D01*
X85998081Y-96009722D01*
X85922201Y-96259863D01*
X85896580Y-96520000D01*
X85922201Y-96780137D01*
X85998081Y-97030278D01*
X86121302Y-97260808D01*
X86287130Y-97462870D01*
X86489192Y-97628698D01*
X86719722Y-97751919D01*
X86845257Y-97790000D01*
X86719722Y-97828081D01*
X86489192Y-97951302D01*
X86287130Y-98117130D01*
X86121302Y-98319192D01*
X85998081Y-98549722D01*
X85922201Y-98799863D01*
X85896580Y-99060000D01*
X85922201Y-99320137D01*
X85998081Y-99570278D01*
X86121302Y-99800808D01*
X86287130Y-100002870D01*
X86489192Y-100168698D01*
X86719722Y-100291919D01*
X86845257Y-100330000D01*
X86719722Y-100368081D01*
X86489192Y-100491302D01*
X86287130Y-100657130D01*
X86121302Y-100859192D01*
X85998081Y-101089722D01*
X85922201Y-101339863D01*
X85896580Y-101600000D01*
X85922201Y-101860137D01*
X85998081Y-102110278D01*
X86121302Y-102340808D01*
X86287130Y-102542870D01*
X86489192Y-102708698D01*
X86719722Y-102831919D01*
X86969863Y-102907799D01*
X87164816Y-102927000D01*
X88095184Y-102927000D01*
X88290137Y-102907799D01*
X88540278Y-102831919D01*
X88770808Y-102708698D01*
X88972870Y-102542870D01*
X89138698Y-102340808D01*
X89261919Y-102110278D01*
X89337799Y-101860137D01*
X89363420Y-101600000D01*
X89337799Y-101339863D01*
X89261919Y-101089722D01*
X89138698Y-100859192D01*
X88972870Y-100657130D01*
X88770808Y-100491302D01*
X88540278Y-100368081D01*
X88414743Y-100330000D01*
X88540278Y-100291919D01*
X88770808Y-100168698D01*
X88972870Y-100002870D01*
X89138698Y-99800808D01*
X89261919Y-99570278D01*
X89337799Y-99320137D01*
X89363420Y-99060000D01*
X89337799Y-98799863D01*
X89261919Y-98549722D01*
X89138698Y-98319192D01*
X88972870Y-98117130D01*
X88770808Y-97951302D01*
X88540278Y-97828081D01*
X88414743Y-97790000D01*
X88540278Y-97751919D01*
X88770808Y-97628698D01*
X88972870Y-97462870D01*
X89138698Y-97260808D01*
X89261919Y-97030278D01*
X89337799Y-96780137D01*
X89363420Y-96520000D01*
X89337799Y-96259863D01*
X89261919Y-96009722D01*
X89138698Y-95779192D01*
X88972870Y-95577130D01*
X88770808Y-95411302D01*
X88540278Y-95288081D01*
X88414743Y-95250000D01*
X88540278Y-95211919D01*
X88770808Y-95088698D01*
X88870357Y-95007000D01*
X89109604Y-95007000D01*
X93594219Y-99491616D01*
X93618081Y-99570278D01*
X93741302Y-99800808D01*
X93907130Y-100002870D01*
X94109192Y-100168698D01*
X94299558Y-100270451D01*
X94050000Y-100270451D01*
X93946690Y-100280626D01*
X93847350Y-100310761D01*
X93755798Y-100359696D01*
X93675552Y-100425552D01*
X93609696Y-100505798D01*
X93560761Y-100597350D01*
X93530626Y-100696690D01*
X93520451Y-100800000D01*
X93520451Y-102400000D01*
X93530626Y-102503310D01*
X93560761Y-102602650D01*
X93609696Y-102694202D01*
X93675552Y-102774448D01*
X93755798Y-102840304D01*
X93847350Y-102889239D01*
X93946690Y-102919374D01*
X94050000Y-102929549D01*
X96450000Y-102929549D01*
X96553310Y-102919374D01*
X96652650Y-102889239D01*
X96744202Y-102840304D01*
X96824448Y-102774448D01*
X96890304Y-102694202D01*
X96939239Y-102602650D01*
X96969374Y-102503310D01*
X96979549Y-102400000D01*
X96979549Y-101889789D01*
X97007833Y-101918073D01*
X97208798Y-102052353D01*
X97432097Y-102144847D01*
X97669151Y-102192000D01*
X97910849Y-102192000D01*
X98147903Y-102144847D01*
X98371202Y-102052353D01*
X98572167Y-101918073D01*
X98743073Y-101747167D01*
X98877353Y-101546202D01*
X98969847Y-101322903D01*
X99017000Y-101085849D01*
X99017000Y-100844151D01*
X98969847Y-100607097D01*
X98877353Y-100383798D01*
X98743073Y-100182833D01*
X98572740Y-100012500D01*
X98743073Y-99842167D01*
X98877353Y-99641202D01*
X98969847Y-99417903D01*
X99017000Y-99180849D01*
X99017000Y-98939151D01*
X98969847Y-98702097D01*
X98877353Y-98478798D01*
X98743073Y-98277833D01*
X98572167Y-98106927D01*
X98371202Y-97972647D01*
X98147903Y-97880153D01*
X97910849Y-97833000D01*
X97669151Y-97833000D01*
X97432097Y-97880153D01*
X97208798Y-97972647D01*
X97007833Y-98106927D01*
X96836927Y-98277833D01*
X96781184Y-98361259D01*
X96758698Y-98319192D01*
X96592870Y-98117130D01*
X96390808Y-97951302D01*
X96160278Y-97828081D01*
X96034743Y-97790000D01*
X96160278Y-97751919D01*
X96390808Y-97628698D01*
X96592870Y-97462870D01*
X96758698Y-97260808D01*
X96881919Y-97030278D01*
X96957799Y-96780137D01*
X96983420Y-96520000D01*
X96957799Y-96259863D01*
X96881919Y-96009722D01*
X96758698Y-95779192D01*
X96592870Y-95577130D01*
X96390808Y-95411302D01*
X96194404Y-95306322D01*
X96316483Y-95257166D01*
X96552839Y-95102601D01*
X96754500Y-94904895D01*
X96913715Y-94671646D01*
X97024367Y-94411818D01*
X97041904Y-94329039D01*
X96919915Y-94107000D01*
X95377000Y-94107000D01*
X95377000Y-94127000D01*
X95123000Y-94127000D01*
X95123000Y-94107000D01*
X93580085Y-94107000D01*
X93458096Y-94329039D01*
X93475633Y-94411818D01*
X93586285Y-94671646D01*
X93745500Y-94904895D01*
X93947161Y-95102601D01*
X94183517Y-95257166D01*
X94305596Y-95306322D01*
X94109192Y-95411302D01*
X93907130Y-95577130D01*
X93741302Y-95779192D01*
X93618081Y-96009722D01*
X93542201Y-96259863D01*
X93517550Y-96510153D01*
X90638358Y-93630961D01*
X93458096Y-93630961D01*
X93580085Y-93853000D01*
X95123000Y-93853000D01*
X95123000Y-92545000D01*
X95377000Y-92545000D01*
X95377000Y-93853000D01*
X96919915Y-93853000D01*
X97041904Y-93630961D01*
X97024367Y-93548182D01*
X96913715Y-93288354D01*
X96754500Y-93055105D01*
X96552839Y-92857399D01*
X96316483Y-92702834D01*
X96054514Y-92597350D01*
X95777000Y-92545000D01*
X95377000Y-92545000D01*
X95123000Y-92545000D01*
X94723000Y-92545000D01*
X94445486Y-92597350D01*
X94183517Y-92702834D01*
X93947161Y-92857399D01*
X93745500Y-93055105D01*
X93586285Y-93288354D01*
X93475633Y-93548182D01*
X93458096Y-93630961D01*
X90638358Y-93630961D01*
X90296877Y-93289481D01*
X90264712Y-93250288D01*
X90108331Y-93121949D01*
X89929917Y-93026585D01*
X89736327Y-92967860D01*
X89585451Y-92953000D01*
X89585441Y-92953000D01*
X89535000Y-92948032D01*
X89484559Y-92953000D01*
X88870357Y-92953000D01*
X88770808Y-92871302D01*
X88540278Y-92748081D01*
X88290137Y-92672201D01*
X88095184Y-92653000D01*
X87164816Y-92653000D01*
X86969863Y-92672201D01*
X86719722Y-92748081D01*
X86489192Y-92871302D01*
X86287130Y-93037130D01*
X86121302Y-93239192D01*
X85998081Y-93469722D01*
X85922201Y-93719863D01*
X85896580Y-93980000D01*
X84293198Y-93980000D01*
X84360972Y-93878570D01*
X84461004Y-93637072D01*
X84512000Y-93380698D01*
X84512000Y-93119302D01*
X84461004Y-92862928D01*
X84360972Y-92621430D01*
X84215748Y-92404087D01*
X84030913Y-92219252D01*
X83813570Y-92074028D01*
X83572072Y-91973996D01*
X83315698Y-91923000D01*
X83054302Y-91923000D01*
X82797928Y-91973996D01*
X82556430Y-92074028D01*
X82339087Y-92219252D01*
X82154252Y-92404087D01*
X82009028Y-92621430D01*
X81935000Y-92800149D01*
X81860972Y-92621430D01*
X81715748Y-92404087D01*
X81530913Y-92219252D01*
X81313570Y-92074028D01*
X81072072Y-91973996D01*
X80815698Y-91923000D01*
X80554302Y-91923000D01*
X80297928Y-91973996D01*
X80056430Y-92074028D01*
X79839087Y-92219252D01*
X79654252Y-92404087D01*
X79509028Y-92621430D01*
X79408996Y-92862928D01*
X79358000Y-93119302D01*
X76429549Y-93119302D01*
X76429549Y-92850000D01*
X76419374Y-92746690D01*
X76389239Y-92647350D01*
X76340304Y-92555798D01*
X76274448Y-92475552D01*
X76194202Y-92409696D01*
X76102650Y-92360761D01*
X76003310Y-92330626D01*
X75900000Y-92320451D01*
X74100000Y-92320451D01*
X73996690Y-92330626D01*
X73897350Y-92360761D01*
X73805798Y-92409696D01*
X73725552Y-92475552D01*
X73659696Y-92555798D01*
X73610761Y-92647350D01*
X73580626Y-92746690D01*
X73570451Y-92850000D01*
X72552000Y-92850000D01*
X72552000Y-90629151D01*
X73773000Y-90629151D01*
X73773000Y-90870849D01*
X73820153Y-91107903D01*
X73912647Y-91331202D01*
X74046927Y-91532167D01*
X74217833Y-91703073D01*
X74418798Y-91837353D01*
X74642097Y-91929847D01*
X74879151Y-91977000D01*
X75120849Y-91977000D01*
X75357903Y-91929847D01*
X75581202Y-91837353D01*
X75782167Y-91703073D01*
X75953073Y-91532167D01*
X76087353Y-91331202D01*
X76179847Y-91107903D01*
X76227000Y-90870849D01*
X76227000Y-90629151D01*
X81393000Y-90629151D01*
X81393000Y-90870849D01*
X81440153Y-91107903D01*
X81532647Y-91331202D01*
X81666927Y-91532167D01*
X81837833Y-91703073D01*
X82038798Y-91837353D01*
X82262097Y-91929847D01*
X82499151Y-91977000D01*
X82740849Y-91977000D01*
X82977903Y-91929847D01*
X83201202Y-91837353D01*
X83402167Y-91703073D01*
X83573073Y-91532167D01*
X83707353Y-91331202D01*
X83799847Y-91107903D01*
X83847000Y-90870849D01*
X83847000Y-90629151D01*
X83799847Y-90392097D01*
X83763771Y-90305000D01*
X85330451Y-90305000D01*
X85330451Y-91305000D01*
X85340626Y-91408310D01*
X85370761Y-91507650D01*
X85419696Y-91599202D01*
X85485552Y-91679448D01*
X85565798Y-91745304D01*
X85657350Y-91794239D01*
X85756690Y-91824374D01*
X85860000Y-91834549D01*
X86860000Y-91834549D01*
X86963310Y-91824374D01*
X87062650Y-91794239D01*
X87154202Y-91745304D01*
X87234448Y-91679448D01*
X87300304Y-91599202D01*
X87349239Y-91507650D01*
X87379374Y-91408310D01*
X87389549Y-91305000D01*
X87389549Y-90674302D01*
X87613000Y-90674302D01*
X87613000Y-90935698D01*
X87663996Y-91192072D01*
X87764028Y-91433570D01*
X87909252Y-91650913D01*
X88094087Y-91835748D01*
X88311430Y-91980972D01*
X88552928Y-92081004D01*
X88809302Y-92132000D01*
X89070698Y-92132000D01*
X89327072Y-92081004D01*
X89568570Y-91980972D01*
X89785913Y-91835748D01*
X89970748Y-91650913D01*
X90115972Y-91433570D01*
X90190000Y-91254851D01*
X90264028Y-91433570D01*
X90409252Y-91650913D01*
X90594087Y-91835748D01*
X90811430Y-91980972D01*
X91052928Y-92081004D01*
X91309302Y-92132000D01*
X91570698Y-92132000D01*
X91827072Y-92081004D01*
X92068570Y-91980972D01*
X92285913Y-91835748D01*
X92470748Y-91650913D01*
X92615972Y-91433570D01*
X92663366Y-91319151D01*
X96563000Y-91319151D01*
X96563000Y-91560849D01*
X96610153Y-91797903D01*
X96702647Y-92021202D01*
X96836927Y-92222167D01*
X97007833Y-92393073D01*
X97208798Y-92527353D01*
X97432097Y-92619847D01*
X97669151Y-92667000D01*
X97910849Y-92667000D01*
X98147903Y-92619847D01*
X98371202Y-92527353D01*
X98572167Y-92393073D01*
X98743073Y-92222167D01*
X98877353Y-92021202D01*
X98969847Y-91797903D01*
X99017000Y-91560849D01*
X99017000Y-91319151D01*
X98969847Y-91082097D01*
X98877353Y-90858798D01*
X98743073Y-90657833D01*
X98572167Y-90486927D01*
X98371202Y-90352647D01*
X98256173Y-90305000D01*
X101205451Y-90305000D01*
X101205451Y-91305000D01*
X101215626Y-91408310D01*
X101245761Y-91507650D01*
X101294696Y-91599202D01*
X101360552Y-91679448D01*
X101440798Y-91745304D01*
X101532350Y-91794239D01*
X101631690Y-91824374D01*
X101735000Y-91834549D01*
X102735000Y-91834549D01*
X102838310Y-91824374D01*
X102918658Y-91800000D01*
X120365128Y-91800000D01*
X120396542Y-92118948D01*
X120489575Y-92425638D01*
X120640654Y-92708286D01*
X120843971Y-92956029D01*
X121091714Y-93159346D01*
X121374362Y-93310425D01*
X121681052Y-93403458D01*
X121920075Y-93427000D01*
X123879925Y-93427000D01*
X124118948Y-93403458D01*
X124425638Y-93310425D01*
X124708286Y-93159346D01*
X124956029Y-92956029D01*
X125159346Y-92708286D01*
X125310425Y-92425638D01*
X125403458Y-92118948D01*
X125434872Y-91800000D01*
X125403458Y-91481052D01*
X125310425Y-91174362D01*
X125159346Y-90891714D01*
X125024169Y-90727000D01*
X125079925Y-90727000D01*
X125318948Y-90703458D01*
X125625638Y-90610425D01*
X125908286Y-90459346D01*
X126156029Y-90256029D01*
X126359346Y-90008286D01*
X126510425Y-89725638D01*
X126603458Y-89418948D01*
X126634872Y-89100000D01*
X126603458Y-88781052D01*
X126510425Y-88474362D01*
X126359346Y-88191714D01*
X126156029Y-87943971D01*
X125908286Y-87740654D01*
X125625638Y-87589575D01*
X125318948Y-87496542D01*
X125079925Y-87473000D01*
X123120075Y-87473000D01*
X122881052Y-87496542D01*
X122574362Y-87589575D01*
X122291714Y-87740654D01*
X122043971Y-87943971D01*
X121840654Y-88191714D01*
X121689575Y-88474362D01*
X121596542Y-88781052D01*
X121565128Y-89100000D01*
X121596542Y-89418948D01*
X121689575Y-89725638D01*
X121840654Y-90008286D01*
X121975831Y-90173000D01*
X121920075Y-90173000D01*
X121681052Y-90196542D01*
X121374362Y-90289575D01*
X121091714Y-90440654D01*
X120843971Y-90643971D01*
X120640654Y-90891714D01*
X120489575Y-91174362D01*
X120396542Y-91481052D01*
X120365128Y-91800000D01*
X102918658Y-91800000D01*
X102937650Y-91794239D01*
X103029202Y-91745304D01*
X103109448Y-91679448D01*
X103175304Y-91599202D01*
X103224239Y-91507650D01*
X103254374Y-91408310D01*
X103264549Y-91305000D01*
X103264549Y-90305000D01*
X103254374Y-90201690D01*
X103224239Y-90102350D01*
X103175304Y-90010798D01*
X103109448Y-89930552D01*
X103029202Y-89864696D01*
X102937650Y-89815761D01*
X102838310Y-89785626D01*
X102735000Y-89775451D01*
X101735000Y-89775451D01*
X101631690Y-89785626D01*
X101532350Y-89815761D01*
X101440798Y-89864696D01*
X101360552Y-89930552D01*
X101294696Y-90010798D01*
X101245761Y-90102350D01*
X101215626Y-90201690D01*
X101205451Y-90305000D01*
X98256173Y-90305000D01*
X98147903Y-90260153D01*
X97910849Y-90213000D01*
X97669151Y-90213000D01*
X97432097Y-90260153D01*
X97208798Y-90352647D01*
X97007833Y-90486927D01*
X96836927Y-90657833D01*
X96702647Y-90858798D01*
X96610153Y-91082097D01*
X96563000Y-91319151D01*
X92663366Y-91319151D01*
X92716004Y-91192072D01*
X92767000Y-90935698D01*
X92767000Y-90674302D01*
X92716004Y-90417928D01*
X92615972Y-90176430D01*
X92470748Y-89959087D01*
X92285913Y-89774252D01*
X92068570Y-89629028D01*
X91827072Y-89528996D01*
X91570698Y-89478000D01*
X91309302Y-89478000D01*
X91052928Y-89528996D01*
X90811430Y-89629028D01*
X90594087Y-89774252D01*
X90409252Y-89959087D01*
X90264028Y-90176430D01*
X90190000Y-90355149D01*
X90115972Y-90176430D01*
X89970748Y-89959087D01*
X89785913Y-89774252D01*
X89568570Y-89629028D01*
X89327072Y-89528996D01*
X89070698Y-89478000D01*
X88809302Y-89478000D01*
X88552928Y-89528996D01*
X88311430Y-89629028D01*
X88094087Y-89774252D01*
X87909252Y-89959087D01*
X87764028Y-90176430D01*
X87663996Y-90417928D01*
X87613000Y-90674302D01*
X87389549Y-90674302D01*
X87389549Y-90305000D01*
X87379374Y-90201690D01*
X87349239Y-90102350D01*
X87300304Y-90010798D01*
X87234448Y-89930552D01*
X87154202Y-89864696D01*
X87062650Y-89815761D01*
X86963310Y-89785626D01*
X86860000Y-89775451D01*
X85860000Y-89775451D01*
X85756690Y-89785626D01*
X85657350Y-89815761D01*
X85565798Y-89864696D01*
X85485552Y-89930552D01*
X85419696Y-90010798D01*
X85370761Y-90102350D01*
X85340626Y-90201690D01*
X85330451Y-90305000D01*
X83763771Y-90305000D01*
X83707353Y-90168798D01*
X83573073Y-89967833D01*
X83402167Y-89796927D01*
X83201202Y-89662647D01*
X82977903Y-89570153D01*
X82740849Y-89523000D01*
X82499151Y-89523000D01*
X82262097Y-89570153D01*
X82038798Y-89662647D01*
X81837833Y-89796927D01*
X81666927Y-89967833D01*
X81532647Y-90168798D01*
X81440153Y-90392097D01*
X81393000Y-90629151D01*
X76227000Y-90629151D01*
X76179847Y-90392097D01*
X76087353Y-90168798D01*
X75953073Y-89967833D01*
X75782167Y-89796927D01*
X75581202Y-89662647D01*
X75357903Y-89570153D01*
X75153773Y-89529549D01*
X75500000Y-89529549D01*
X75603310Y-89519374D01*
X75702650Y-89489239D01*
X75794202Y-89440304D01*
X75874448Y-89374448D01*
X75940304Y-89294202D01*
X75989239Y-89202650D01*
X76019374Y-89103310D01*
X76029549Y-89000000D01*
X76029549Y-88717702D01*
X89356903Y-88717702D01*
X89428486Y-88961671D01*
X89683996Y-89082571D01*
X89958184Y-89151300D01*
X90240512Y-89165217D01*
X90520130Y-89123787D01*
X90786292Y-89028603D01*
X90911514Y-88961671D01*
X90961734Y-88790509D01*
X104873000Y-88790509D01*
X104873000Y-89209491D01*
X104954739Y-89620423D01*
X105115077Y-90007512D01*
X105347851Y-90355884D01*
X105644116Y-90652149D01*
X105992488Y-90884923D01*
X106379577Y-91045261D01*
X106790509Y-91127000D01*
X107209491Y-91127000D01*
X107620423Y-91045261D01*
X108007512Y-90884923D01*
X108355884Y-90652149D01*
X108652149Y-90355884D01*
X108884923Y-90007512D01*
X109045261Y-89620423D01*
X109127000Y-89209491D01*
X109127000Y-88790509D01*
X109045261Y-88379577D01*
X108884923Y-87992488D01*
X108652149Y-87644116D01*
X108473033Y-87465000D01*
X112335451Y-87465000D01*
X112335451Y-89065000D01*
X112345626Y-89168310D01*
X112375761Y-89267650D01*
X112424696Y-89359202D01*
X112490552Y-89439448D01*
X112570798Y-89505304D01*
X112575105Y-89507606D01*
X112489028Y-89636430D01*
X112388996Y-89877928D01*
X112338000Y-90134302D01*
X112338000Y-90395698D01*
X112388996Y-90652072D01*
X112489028Y-90893570D01*
X112634252Y-91110913D01*
X112819087Y-91295748D01*
X113036430Y-91440972D01*
X113277928Y-91541004D01*
X113534302Y-91592000D01*
X113795698Y-91592000D01*
X114052072Y-91541004D01*
X114293570Y-91440972D01*
X114510913Y-91295748D01*
X114695748Y-91110913D01*
X114840972Y-90893570D01*
X114941004Y-90652072D01*
X114992000Y-90395698D01*
X114992000Y-90134302D01*
X114941004Y-89877928D01*
X114840972Y-89636430D01*
X114754895Y-89507606D01*
X114759202Y-89505304D01*
X114839448Y-89439448D01*
X114905304Y-89359202D01*
X114954239Y-89267650D01*
X114984374Y-89168310D01*
X114994549Y-89065000D01*
X114994549Y-87465000D01*
X114984374Y-87361690D01*
X114954239Y-87262350D01*
X114905304Y-87170798D01*
X114839448Y-87090552D01*
X114759202Y-87024696D01*
X114667650Y-86975761D01*
X114568310Y-86945626D01*
X114465000Y-86935451D01*
X112865000Y-86935451D01*
X112761690Y-86945626D01*
X112662350Y-86975761D01*
X112570798Y-87024696D01*
X112490552Y-87090552D01*
X112424696Y-87170798D01*
X112375761Y-87262350D01*
X112345626Y-87361690D01*
X112335451Y-87465000D01*
X108473033Y-87465000D01*
X108355884Y-87347851D01*
X108007512Y-87115077D01*
X107620423Y-86954739D01*
X107209491Y-86873000D01*
X106790509Y-86873000D01*
X106379577Y-86954739D01*
X105992488Y-87115077D01*
X105644116Y-87347851D01*
X105347851Y-87644116D01*
X105115077Y-87992488D01*
X104954739Y-88379577D01*
X104873000Y-88790509D01*
X90961734Y-88790509D01*
X90983097Y-88717702D01*
X90170000Y-87904605D01*
X89356903Y-88717702D01*
X76029549Y-88717702D01*
X76029549Y-88000000D01*
X76019374Y-87896690D01*
X75989239Y-87797350D01*
X75988257Y-87795512D01*
X88729783Y-87795512D01*
X88771213Y-88075130D01*
X88866397Y-88341292D01*
X88933329Y-88466514D01*
X89177298Y-88538097D01*
X89990395Y-87725000D01*
X89976253Y-87710858D01*
X90155858Y-87531253D01*
X90170000Y-87545395D01*
X90184143Y-87531253D01*
X90363748Y-87710858D01*
X90349605Y-87725000D01*
X91162702Y-88538097D01*
X91406671Y-88466514D01*
X91479450Y-88312702D01*
X96976903Y-88312702D01*
X97048486Y-88556671D01*
X97303996Y-88677571D01*
X97578184Y-88746300D01*
X97860512Y-88760217D01*
X98140130Y-88718787D01*
X98406292Y-88623603D01*
X98531514Y-88556671D01*
X98603097Y-88312702D01*
X97790000Y-87499605D01*
X96976903Y-88312702D01*
X91479450Y-88312702D01*
X91527571Y-88211004D01*
X91596300Y-87936816D01*
X91610217Y-87654488D01*
X91571105Y-87390512D01*
X96349783Y-87390512D01*
X96391213Y-87670130D01*
X96486397Y-87936292D01*
X96553329Y-88061514D01*
X96797298Y-88133097D01*
X97610395Y-87320000D01*
X97969605Y-87320000D01*
X98782702Y-88133097D01*
X99026671Y-88061514D01*
X99147571Y-87806004D01*
X99216300Y-87531816D01*
X99230217Y-87249488D01*
X99188787Y-86969870D01*
X99101933Y-86727000D01*
X129165000Y-86727000D01*
X129165000Y-87627000D01*
X129223114Y-87963041D01*
X129345670Y-88281288D01*
X129527958Y-88569511D01*
X129762973Y-88816633D01*
X130041683Y-89013157D01*
X130353378Y-89151531D01*
X130503878Y-89189175D01*
X130773000Y-89071125D01*
X130773000Y-86727000D01*
X129165000Y-86727000D01*
X99101933Y-86727000D01*
X99093603Y-86703708D01*
X99026671Y-86578486D01*
X98782702Y-86506903D01*
X97969605Y-87320000D01*
X97610395Y-87320000D01*
X96797298Y-86506903D01*
X96553329Y-86578486D01*
X96432429Y-86833996D01*
X96363700Y-87108184D01*
X96349783Y-87390512D01*
X91571105Y-87390512D01*
X91568787Y-87374870D01*
X91473603Y-87108708D01*
X91406671Y-86983486D01*
X91285403Y-86947905D01*
X91344448Y-86899448D01*
X91410304Y-86819202D01*
X91459239Y-86727650D01*
X91489374Y-86628310D01*
X91499549Y-86525000D01*
X91499549Y-86327298D01*
X96976903Y-86327298D01*
X97790000Y-87140395D01*
X98603097Y-86327298D01*
X98531514Y-86083329D01*
X98276004Y-85962429D01*
X98001816Y-85893700D01*
X97719488Y-85879783D01*
X97439870Y-85921213D01*
X97173708Y-86016397D01*
X97048486Y-86083329D01*
X96976903Y-86327298D01*
X91499549Y-86327298D01*
X91499549Y-85573000D01*
X129165000Y-85573000D01*
X129165000Y-86473000D01*
X130773000Y-86473000D01*
X130773000Y-84128875D01*
X130503878Y-84010825D01*
X130353378Y-84048469D01*
X130041683Y-84186843D01*
X129762973Y-84383367D01*
X129527958Y-84630489D01*
X129345670Y-84918712D01*
X129223114Y-85236959D01*
X129165000Y-85573000D01*
X91499549Y-85573000D01*
X91499549Y-84925000D01*
X91489374Y-84821690D01*
X91459239Y-84722350D01*
X91410304Y-84630798D01*
X91344448Y-84550552D01*
X91264202Y-84484696D01*
X91172650Y-84435761D01*
X91073310Y-84405626D01*
X90970000Y-84395451D01*
X89370000Y-84395451D01*
X89266690Y-84405626D01*
X89167350Y-84435761D01*
X89075798Y-84484696D01*
X88995552Y-84550552D01*
X88929696Y-84630798D01*
X88880761Y-84722350D01*
X88850626Y-84821690D01*
X88840451Y-84925000D01*
X88840451Y-86525000D01*
X88850626Y-86628310D01*
X88880761Y-86727650D01*
X88929696Y-86819202D01*
X88995552Y-86899448D01*
X89054597Y-86947905D01*
X88933329Y-86983486D01*
X88812429Y-87238996D01*
X88743700Y-87513184D01*
X88729783Y-87795512D01*
X75988257Y-87795512D01*
X75940304Y-87705798D01*
X75874448Y-87625552D01*
X75794202Y-87559696D01*
X75702650Y-87510761D01*
X75603310Y-87480626D01*
X75500000Y-87470451D01*
X74500000Y-87470451D01*
X74396690Y-87480626D01*
X74297350Y-87510761D01*
X74205798Y-87559696D01*
X74125552Y-87625552D01*
X74059696Y-87705798D01*
X74010761Y-87797350D01*
X73980626Y-87896690D01*
X73970451Y-88000000D01*
X73970451Y-89000000D01*
X73980626Y-89103310D01*
X74010761Y-89202650D01*
X74059696Y-89294202D01*
X74125552Y-89374448D01*
X74205798Y-89440304D01*
X74297350Y-89489239D01*
X74396690Y-89519374D01*
X74500000Y-89529549D01*
X74846227Y-89529549D01*
X74642097Y-89570153D01*
X74418798Y-89662647D01*
X74217833Y-89796927D01*
X74046927Y-89967833D01*
X73912647Y-90168798D01*
X73820153Y-90392097D01*
X73773000Y-90629151D01*
X72552000Y-90629151D01*
X72552000Y-84027002D01*
X72575188Y-83790509D01*
X73873000Y-83790509D01*
X73873000Y-84209491D01*
X73954739Y-84620423D01*
X74115077Y-85007512D01*
X74347851Y-85355884D01*
X74644116Y-85652149D01*
X74992488Y-85884923D01*
X75379577Y-86045261D01*
X75790509Y-86127000D01*
X76209491Y-86127000D01*
X76620423Y-86045261D01*
X77007512Y-85884923D01*
X77355884Y-85652149D01*
X77652149Y-85355884D01*
X77884923Y-85007512D01*
X78045261Y-84620423D01*
X78127000Y-84209491D01*
X78127000Y-83790509D01*
X78045261Y-83379577D01*
X77884923Y-82992488D01*
X77652149Y-82644116D01*
X77355884Y-82347851D01*
X77007512Y-82115077D01*
X76850403Y-82050000D01*
X80885451Y-82050000D01*
X80885451Y-83050000D01*
X80895626Y-83153310D01*
X80925761Y-83252650D01*
X80974696Y-83344202D01*
X81040552Y-83424448D01*
X81120798Y-83490304D01*
X81212350Y-83539239D01*
X81311690Y-83569374D01*
X81415000Y-83579549D01*
X82415000Y-83579549D01*
X82518310Y-83569374D01*
X82617650Y-83539239D01*
X82709202Y-83490304D01*
X82789448Y-83424448D01*
X82855304Y-83344202D01*
X82904239Y-83252650D01*
X82934374Y-83153310D01*
X82944549Y-83050000D01*
X82944549Y-82429151D01*
X83863000Y-82429151D01*
X83863000Y-82670849D01*
X83910153Y-82907903D01*
X84002647Y-83131202D01*
X84136927Y-83332167D01*
X84307833Y-83503073D01*
X84508798Y-83637353D01*
X84732097Y-83729847D01*
X84969151Y-83777000D01*
X85210849Y-83777000D01*
X85447903Y-83729847D01*
X85671202Y-83637353D01*
X85872167Y-83503073D01*
X86043073Y-83332167D01*
X86177353Y-83131202D01*
X86269847Y-82907903D01*
X86317000Y-82670849D01*
X86317000Y-82429151D01*
X91483000Y-82429151D01*
X91483000Y-82670849D01*
X91530153Y-82907903D01*
X91622647Y-83131202D01*
X91756927Y-83332167D01*
X91927833Y-83503073D01*
X92128798Y-83637353D01*
X92352097Y-83729847D01*
X92589151Y-83777000D01*
X92830849Y-83777000D01*
X93067903Y-83729847D01*
X93291202Y-83637353D01*
X93492167Y-83503073D01*
X93663073Y-83332167D01*
X93797353Y-83131202D01*
X93843414Y-83020000D01*
X96460451Y-83020000D01*
X96460451Y-84620000D01*
X96470626Y-84723310D01*
X96500761Y-84822650D01*
X96549696Y-84914202D01*
X96615552Y-84994448D01*
X96695798Y-85060304D01*
X96787350Y-85109239D01*
X96886690Y-85139374D01*
X96990000Y-85149549D01*
X98590000Y-85149549D01*
X98693310Y-85139374D01*
X98792650Y-85109239D01*
X98884202Y-85060304D01*
X98964448Y-84994448D01*
X99030304Y-84914202D01*
X99079239Y-84822650D01*
X99109374Y-84723310D01*
X99119549Y-84620000D01*
X99119549Y-83020000D01*
X99109374Y-82916690D01*
X99079239Y-82817350D01*
X99030304Y-82725798D01*
X98964448Y-82645552D01*
X98884202Y-82579696D01*
X98792650Y-82530761D01*
X98693310Y-82500626D01*
X98590000Y-82490451D01*
X96990000Y-82490451D01*
X96886690Y-82500626D01*
X96787350Y-82530761D01*
X96695798Y-82579696D01*
X96615552Y-82645552D01*
X96549696Y-82725798D01*
X96500761Y-82817350D01*
X96470626Y-82916690D01*
X96460451Y-83020000D01*
X93843414Y-83020000D01*
X93889847Y-82907903D01*
X93937000Y-82670849D01*
X93937000Y-82429151D01*
X93934062Y-82414377D01*
X102763000Y-82414377D01*
X102763000Y-82685623D01*
X102815917Y-82951656D01*
X102919718Y-83202254D01*
X103070414Y-83427787D01*
X103262213Y-83619586D01*
X103487746Y-83770282D01*
X103738344Y-83874083D01*
X104004377Y-83927000D01*
X104275623Y-83927000D01*
X104541656Y-83874083D01*
X104792254Y-83770282D01*
X105017787Y-83619586D01*
X105209586Y-83427787D01*
X105300451Y-83291798D01*
X105300451Y-83400000D01*
X105310626Y-83503310D01*
X105340761Y-83602650D01*
X105389696Y-83694202D01*
X105455552Y-83774448D01*
X105535798Y-83840304D01*
X105627350Y-83889239D01*
X105726690Y-83919374D01*
X105830000Y-83929549D01*
X107530000Y-83929549D01*
X107633310Y-83919374D01*
X107732650Y-83889239D01*
X107824202Y-83840304D01*
X107904448Y-83774448D01*
X107970304Y-83694202D01*
X108019239Y-83602650D01*
X108027020Y-83577000D01*
X110412980Y-83577000D01*
X110420761Y-83602650D01*
X110469696Y-83694202D01*
X110535552Y-83774448D01*
X110615798Y-83840304D01*
X110707350Y-83889239D01*
X110806690Y-83919374D01*
X110910000Y-83929549D01*
X112610000Y-83929549D01*
X112713310Y-83919374D01*
X112812650Y-83889239D01*
X112904202Y-83840304D01*
X112984448Y-83774448D01*
X113050304Y-83694202D01*
X113099239Y-83602650D01*
X113129374Y-83503310D01*
X113133344Y-83462998D01*
X113299731Y-83647588D01*
X113533080Y-83821641D01*
X113795901Y-83946825D01*
X113943110Y-83991476D01*
X114173000Y-83870155D01*
X114173000Y-82677000D01*
X114427000Y-82677000D01*
X114427000Y-83870155D01*
X114656890Y-83991476D01*
X114804099Y-83946825D01*
X115066920Y-83821641D01*
X115300269Y-83647588D01*
X115495178Y-83431355D01*
X115644157Y-83181252D01*
X115741481Y-82906891D01*
X115620814Y-82677000D01*
X114427000Y-82677000D01*
X114173000Y-82677000D01*
X114153000Y-82677000D01*
X114153000Y-82423000D01*
X114173000Y-82423000D01*
X114173000Y-81229845D01*
X114427000Y-81229845D01*
X114427000Y-82423000D01*
X115620814Y-82423000D01*
X115741481Y-82193109D01*
X115644157Y-81918748D01*
X115495178Y-81668645D01*
X115300269Y-81452412D01*
X115066920Y-81278359D01*
X114804099Y-81153175D01*
X114656890Y-81108524D01*
X114427000Y-81229845D01*
X114173000Y-81229845D01*
X113943110Y-81108524D01*
X113795901Y-81153175D01*
X113533080Y-81278359D01*
X113299731Y-81452412D01*
X113133344Y-81637002D01*
X113129374Y-81596690D01*
X113099239Y-81497350D01*
X113050304Y-81405798D01*
X112984448Y-81325552D01*
X112904202Y-81259696D01*
X112812650Y-81210761D01*
X112713310Y-81180626D01*
X112610000Y-81170451D01*
X110910000Y-81170451D01*
X110806690Y-81180626D01*
X110707350Y-81210761D01*
X110615798Y-81259696D01*
X110535552Y-81325552D01*
X110469696Y-81405798D01*
X110420761Y-81497350D01*
X110412980Y-81523000D01*
X108027020Y-81523000D01*
X108019239Y-81497350D01*
X107970304Y-81405798D01*
X107904448Y-81325552D01*
X107824202Y-81259696D01*
X107732650Y-81210761D01*
X107633310Y-81180626D01*
X107530000Y-81170451D01*
X105830000Y-81170451D01*
X105726690Y-81180626D01*
X105627350Y-81210761D01*
X105535798Y-81259696D01*
X105455552Y-81325552D01*
X105389696Y-81405798D01*
X105340761Y-81497350D01*
X105310626Y-81596690D01*
X105300451Y-81700000D01*
X105300451Y-81808202D01*
X105209586Y-81672213D01*
X105017787Y-81480414D01*
X104792254Y-81329718D01*
X104541656Y-81225917D01*
X104275623Y-81173000D01*
X104004377Y-81173000D01*
X103738344Y-81225917D01*
X103487746Y-81329718D01*
X103262213Y-81480414D01*
X103070414Y-81672213D01*
X102919718Y-81897746D01*
X102815917Y-82148344D01*
X102763000Y-82414377D01*
X93934062Y-82414377D01*
X93889847Y-82192097D01*
X93797353Y-81968798D01*
X93663073Y-81767833D01*
X93492167Y-81596927D01*
X93291202Y-81462647D01*
X93067903Y-81370153D01*
X92830849Y-81323000D01*
X92589151Y-81323000D01*
X92352097Y-81370153D01*
X92128798Y-81462647D01*
X91927833Y-81596927D01*
X91756927Y-81767833D01*
X91622647Y-81968798D01*
X91530153Y-82192097D01*
X91483000Y-82429151D01*
X86317000Y-82429151D01*
X86269847Y-82192097D01*
X86177353Y-81968798D01*
X86043073Y-81767833D01*
X85872167Y-81596927D01*
X85671202Y-81462647D01*
X85447903Y-81370153D01*
X85210849Y-81323000D01*
X84969151Y-81323000D01*
X84732097Y-81370153D01*
X84508798Y-81462647D01*
X84307833Y-81596927D01*
X84136927Y-81767833D01*
X84002647Y-81968798D01*
X83910153Y-82192097D01*
X83863000Y-82429151D01*
X82944549Y-82429151D01*
X82944549Y-82050000D01*
X82934374Y-81946690D01*
X82904239Y-81847350D01*
X82855304Y-81755798D01*
X82789448Y-81675552D01*
X82709202Y-81609696D01*
X82617650Y-81560761D01*
X82518310Y-81530626D01*
X82415000Y-81520451D01*
X81415000Y-81520451D01*
X81311690Y-81530626D01*
X81212350Y-81560761D01*
X81120798Y-81609696D01*
X81040552Y-81675552D01*
X80974696Y-81755798D01*
X80925761Y-81847350D01*
X80895626Y-81946690D01*
X80885451Y-82050000D01*
X76850403Y-82050000D01*
X76620423Y-81954739D01*
X76209491Y-81873000D01*
X75790509Y-81873000D01*
X75379577Y-81954739D01*
X74992488Y-82115077D01*
X74644116Y-82347851D01*
X74347851Y-82644116D01*
X74115077Y-82992488D01*
X73954739Y-83379577D01*
X73873000Y-83790509D01*
X72575188Y-83790509D01*
X72620264Y-83330791D01*
X72814613Y-82687078D01*
X73130293Y-82093370D01*
X73555278Y-81572287D01*
X74073381Y-81143675D01*
X74664872Y-80823856D01*
X75307216Y-80625017D01*
X76001927Y-80552000D01*
X118455315Y-80552000D01*
X118340655Y-80691714D01*
%TA.AperFunction,Conductor*%
D28*
G36*
X118340655Y-80691714D02*
G01*
X118189576Y-80974362D01*
X118096543Y-81281052D01*
X118073000Y-81520075D01*
X118073000Y-83479924D01*
X118096542Y-83718947D01*
X118189575Y-84025637D01*
X118340654Y-84308285D01*
X118543971Y-84556029D01*
X118791714Y-84759346D01*
X119074362Y-84910425D01*
X119381052Y-85003458D01*
X119700000Y-85034872D01*
X120018947Y-85003458D01*
X120325637Y-84910425D01*
X120608285Y-84759346D01*
X120856029Y-84556029D01*
X121059346Y-84308286D01*
X121210425Y-84025638D01*
X121303458Y-83718948D01*
X121327000Y-83479925D01*
X121327000Y-81520075D01*
X121303458Y-81281052D01*
X121210425Y-80974362D01*
X121059346Y-80691714D01*
X120944686Y-80552000D01*
X124603847Y-80552000D01*
X124559696Y-80605798D01*
X124510761Y-80697350D01*
X124480626Y-80796690D01*
X124470451Y-80900000D01*
X124470451Y-83100000D01*
X124480626Y-83203310D01*
X124510761Y-83302650D01*
X124559696Y-83394202D01*
X124625552Y-83474448D01*
X124705798Y-83540304D01*
X124797350Y-83589239D01*
X124896690Y-83619374D01*
X125000000Y-83629549D01*
X129000000Y-83629549D01*
X129103310Y-83619374D01*
X129202650Y-83589239D01*
X129294202Y-83540304D01*
X129374448Y-83474448D01*
X129440304Y-83394202D01*
X129489239Y-83302650D01*
X129519374Y-83203310D01*
X129529549Y-83100000D01*
X129529549Y-80900000D01*
X129519374Y-80796690D01*
X129489239Y-80697350D01*
X129440304Y-80605798D01*
X129396153Y-80552000D01*
X131448000Y-80552000D01*
X131448000Y-84049081D01*
X131446622Y-84048469D01*
X131296122Y-84010825D01*
X131027000Y-84128875D01*
X131027000Y-86473000D01*
X131047000Y-86473000D01*
X131047000Y-86727000D01*
X131027000Y-86727000D01*
X131027000Y-89071125D01*
X131296122Y-89189175D01*
X131446622Y-89151531D01*
X131448000Y-89150919D01*
X131448001Y-95383863D01*
X131442265Y-95378127D01*
X131326996Y-95493396D01*
X131210725Y-95211611D01*
X130892140Y-95053743D01*
X130548878Y-94961062D01*
X130194131Y-94937127D01*
X129841530Y-94982861D01*
X129504627Y-95096505D01*
X129289275Y-95211611D01*
X129173003Y-95493398D01*
X130250000Y-96570395D01*
X130264143Y-96556253D01*
X130443748Y-96735858D01*
X130429605Y-96750000D01*
X130443748Y-96764143D01*
X130264143Y-96943748D01*
X130250000Y-96929605D01*
X129173003Y-98006602D01*
X129289275Y-98288389D01*
X129607860Y-98446257D01*
X129951122Y-98538938D01*
X130305869Y-98562873D01*
X130658470Y-98517139D01*
X130995373Y-98403495D01*
X131210725Y-98288389D01*
X131326996Y-98006604D01*
X131442265Y-98121873D01*
X131448001Y-98116137D01*
X131448001Y-100548081D01*
X131331774Y-100431854D01*
X131053831Y-100246138D01*
X130744997Y-100118215D01*
X130417140Y-100053000D01*
X130082860Y-100053000D01*
X129755003Y-100118215D01*
X129446169Y-100246138D01*
X129168226Y-100431854D01*
X128931854Y-100668226D01*
X128746138Y-100946169D01*
X128618215Y-101255003D01*
X128553000Y-101582860D01*
X128553000Y-101917140D01*
X128618215Y-102244997D01*
X128746138Y-102553831D01*
X128931854Y-102831774D01*
X129168226Y-103068146D01*
X129446169Y-103253862D01*
X129755003Y-103381785D01*
X130082860Y-103447000D01*
X130417140Y-103447000D01*
X130744997Y-103381785D01*
X131053831Y-103253862D01*
X131331774Y-103068146D01*
X131448001Y-102951919D01*
X131448001Y-105548081D01*
X131331774Y-105431854D01*
X131053831Y-105246138D01*
X130744997Y-105118215D01*
X130417140Y-105053000D01*
X130082860Y-105053000D01*
X129755003Y-105118215D01*
X129446169Y-105246138D01*
X129168226Y-105431854D01*
X128931854Y-105668226D01*
X128895255Y-105723000D01*
X126860397Y-105723000D01*
X122681877Y-101544481D01*
X122649712Y-101505288D01*
X122493331Y-101376949D01*
X122314917Y-101281585D01*
X122121327Y-101222860D01*
X121970451Y-101208000D01*
X121970441Y-101208000D01*
X121920000Y-101203032D01*
X121869559Y-101208000D01*
X118160440Y-101208000D01*
X118109999Y-101203032D01*
X118059558Y-101208000D01*
X118059549Y-101208000D01*
X117908673Y-101222860D01*
X117715083Y-101281585D01*
X117536669Y-101376949D01*
X117380288Y-101505288D01*
X117348128Y-101544476D01*
X116319605Y-102572999D01*
X114398033Y-102572999D01*
X114459202Y-102540304D01*
X114539448Y-102474448D01*
X114605304Y-102394202D01*
X114654239Y-102302650D01*
X114684374Y-102203310D01*
X114694549Y-102100000D01*
X114694549Y-101100000D01*
X114684374Y-100996690D01*
X114654239Y-100897350D01*
X114605304Y-100805798D01*
X114539448Y-100725552D01*
X114459202Y-100659696D01*
X114367650Y-100610761D01*
X114268310Y-100580626D01*
X114165000Y-100570451D01*
X113165000Y-100570451D01*
X113061690Y-100580626D01*
X112962350Y-100610761D01*
X112870798Y-100659696D01*
X112790552Y-100725552D01*
X112724696Y-100805798D01*
X112675761Y-100897350D01*
X112645626Y-100996690D01*
X112635451Y-101100000D01*
X112635451Y-102100000D01*
X112645626Y-102203310D01*
X112675761Y-102302650D01*
X112724696Y-102394202D01*
X112790552Y-102474448D01*
X112870798Y-102540304D01*
X112931967Y-102572999D01*
X111553234Y-102572999D01*
X111574374Y-102503310D01*
X111584549Y-102400000D01*
X111584549Y-100800000D01*
X111574374Y-100696690D01*
X111544239Y-100597350D01*
X111495304Y-100505798D01*
X111429448Y-100425552D01*
X111349202Y-100359696D01*
X111257650Y-100310761D01*
X111158310Y-100280626D01*
X111055000Y-100270451D01*
X110805442Y-100270451D01*
X110995808Y-100168698D01*
X111197870Y-100002870D01*
X111215597Y-99981269D01*
X112923336Y-99981269D01*
X112982797Y-100215037D01*
X113221242Y-100325934D01*
X113476740Y-100388183D01*
X113739473Y-100399390D01*
X113999344Y-100359125D01*
X114246366Y-100268935D01*
X114347203Y-100215037D01*
X114406664Y-99981269D01*
X113665000Y-99239605D01*
X112923336Y-99981269D01*
X111215597Y-99981269D01*
X111363698Y-99800808D01*
X111486919Y-99570278D01*
X111562799Y-99320137D01*
X111581085Y-99134473D01*
X112325610Y-99134473D01*
X112365875Y-99394344D01*
X112456065Y-99641366D01*
X112509963Y-99742203D01*
X112743731Y-99801664D01*
X113485395Y-99060000D01*
X113844605Y-99060000D01*
X114586269Y-99801664D01*
X114820037Y-99742203D01*
X114930934Y-99503758D01*
X114993183Y-99248260D01*
X115004390Y-98985527D01*
X114997205Y-98939151D01*
X120058000Y-98939151D01*
X120058000Y-99180849D01*
X120105153Y-99417903D01*
X120197647Y-99641202D01*
X120331927Y-99842167D01*
X120502833Y-100013073D01*
X120703798Y-100147353D01*
X120927097Y-100239847D01*
X121164151Y-100287000D01*
X121405849Y-100287000D01*
X121642903Y-100239847D01*
X121866202Y-100147353D01*
X122067167Y-100013073D01*
X122238073Y-99842167D01*
X122372353Y-99641202D01*
X122464847Y-99417903D01*
X122512000Y-99180849D01*
X122512000Y-98939151D01*
X122464847Y-98702097D01*
X122372353Y-98478798D01*
X122238073Y-98277833D01*
X122067167Y-98106927D01*
X121866202Y-97972647D01*
X121642903Y-97880153D01*
X121405849Y-97833000D01*
X121164151Y-97833000D01*
X120927097Y-97880153D01*
X120703798Y-97972647D01*
X120502833Y-98106927D01*
X120331927Y-98277833D01*
X120197647Y-98478798D01*
X120105153Y-98702097D01*
X120058000Y-98939151D01*
X114997205Y-98939151D01*
X114964125Y-98725656D01*
X114873935Y-98478634D01*
X114820037Y-98377797D01*
X114586269Y-98318336D01*
X113844605Y-99060000D01*
X113485395Y-99060000D01*
X112743731Y-98318336D01*
X112509963Y-98377797D01*
X112399066Y-98616242D01*
X112336817Y-98871740D01*
X112325610Y-99134473D01*
X111581085Y-99134473D01*
X111588420Y-99060000D01*
X111562799Y-98799863D01*
X111486919Y-98549722D01*
X111363698Y-98319192D01*
X111197870Y-98117130D01*
X110995808Y-97951302D01*
X110799404Y-97846322D01*
X110921483Y-97797166D01*
X111157839Y-97642601D01*
X111359500Y-97444895D01*
X111518715Y-97211646D01*
X111629367Y-96951818D01*
X111646904Y-96869039D01*
X111524915Y-96647000D01*
X109982000Y-96647000D01*
X109982000Y-96667000D01*
X109728000Y-96667000D01*
X109728000Y-96647000D01*
X108185085Y-96647000D01*
X108063096Y-96869039D01*
X108080633Y-96951818D01*
X108191285Y-97211646D01*
X108350500Y-97444895D01*
X108552161Y-97642601D01*
X108788517Y-97797166D01*
X108910596Y-97846322D01*
X108714192Y-97951302D01*
X108512130Y-98117130D01*
X108346302Y-98319192D01*
X108223081Y-98549722D01*
X108147201Y-98799863D01*
X108121580Y-99060000D01*
X108147201Y-99320137D01*
X108223081Y-99570278D01*
X108346302Y-99800808D01*
X108512130Y-100002870D01*
X108714192Y-100168698D01*
X108904558Y-100270451D01*
X108655000Y-100270451D01*
X108551690Y-100280626D01*
X108452350Y-100310761D01*
X108360798Y-100359696D01*
X108280552Y-100425552D01*
X108214696Y-100505798D01*
X108165761Y-100597350D01*
X108135626Y-100696690D01*
X108125451Y-100800000D01*
X108125451Y-102400000D01*
X108135626Y-102503310D01*
X108156766Y-102572999D01*
X103541158Y-102572999D01*
X103577870Y-102542870D01*
X103743698Y-102340808D01*
X103866919Y-102110278D01*
X103942799Y-101860137D01*
X103968420Y-101600000D01*
X103942799Y-101339863D01*
X103866919Y-101089722D01*
X103743698Y-100859192D01*
X103577870Y-100657130D01*
X103375808Y-100491302D01*
X103145278Y-100368081D01*
X103019743Y-100330000D01*
X103145278Y-100291919D01*
X103375808Y-100168698D01*
X103577870Y-100002870D01*
X103743698Y-99800808D01*
X103866919Y-99570278D01*
X103942799Y-99320137D01*
X103968420Y-99060000D01*
X103942799Y-98799863D01*
X103866919Y-98549722D01*
X103743698Y-98319192D01*
X103577870Y-98117130D01*
X103375808Y-97951302D01*
X103145278Y-97828081D01*
X103019743Y-97790000D01*
X103145278Y-97751919D01*
X103375808Y-97628698D01*
X103577870Y-97462870D01*
X103743698Y-97260808D01*
X103866919Y-97030278D01*
X103942799Y-96780137D01*
X103968420Y-96520000D01*
X103942799Y-96259863D01*
X103866919Y-96009722D01*
X103743698Y-95779192D01*
X103577870Y-95577130D01*
X103375808Y-95411302D01*
X103145278Y-95288081D01*
X103019743Y-95250000D01*
X103145278Y-95211919D01*
X103375808Y-95088698D01*
X103577870Y-94922870D01*
X103743698Y-94720808D01*
X103866919Y-94490278D01*
X103915830Y-94329039D01*
X108063096Y-94329039D01*
X108080633Y-94411818D01*
X108191285Y-94671646D01*
X108350500Y-94904895D01*
X108552161Y-95102601D01*
X108777559Y-95250000D01*
X108552161Y-95397399D01*
X108350500Y-95595105D01*
X108191285Y-95828354D01*
X108080633Y-96088182D01*
X108063096Y-96170961D01*
X108185085Y-96393000D01*
X109728000Y-96393000D01*
X109728000Y-94107000D01*
X109982000Y-94107000D01*
X109982000Y-96393000D01*
X111524915Y-96393000D01*
X111646904Y-96170961D01*
X111629367Y-96088182D01*
X111518715Y-95828354D01*
X111359500Y-95595105D01*
X111157839Y-95397399D01*
X110932441Y-95250000D01*
X111157839Y-95102601D01*
X111359500Y-94904895D01*
X111518715Y-94671646D01*
X111629367Y-94411818D01*
X111646904Y-94329039D01*
X111524915Y-94107000D01*
X109982000Y-94107000D01*
X109728000Y-94107000D01*
X108185085Y-94107000D01*
X108063096Y-94329039D01*
X103915830Y-94329039D01*
X103942799Y-94240137D01*
X103968420Y-93980000D01*
X103942799Y-93719863D01*
X103915831Y-93630961D01*
X108063096Y-93630961D01*
X108185085Y-93853000D01*
X109728000Y-93853000D01*
X109728000Y-92545000D01*
X109982000Y-92545000D01*
X109982000Y-93853000D01*
X111524915Y-93853000D01*
X111526946Y-93849302D01*
X112338000Y-93849302D01*
X112338000Y-94110698D01*
X112388996Y-94367072D01*
X112489028Y-94608570D01*
X112634252Y-94825913D01*
X112819087Y-95010748D01*
X113036430Y-95155972D01*
X113215149Y-95230000D01*
X113036430Y-95304028D01*
X112819087Y-95449252D01*
X112634252Y-95634087D01*
X112489028Y-95851430D01*
X112388996Y-96092928D01*
X112338000Y-96349302D01*
X112338000Y-96610698D01*
X112388996Y-96867072D01*
X112489028Y-97108570D01*
X112634252Y-97325913D01*
X112819087Y-97510748D01*
X113036430Y-97655972D01*
X113277928Y-97756004D01*
X113320697Y-97764511D01*
X113083634Y-97851065D01*
X112982797Y-97904963D01*
X112923336Y-98138731D01*
X113665000Y-98880395D01*
X114406664Y-98138731D01*
X114347203Y-97904963D01*
X114108758Y-97794066D01*
X113997273Y-97766904D01*
X114052072Y-97756004D01*
X114293570Y-97655972D01*
X114510913Y-97510748D01*
X114695748Y-97325913D01*
X114840972Y-97108570D01*
X114941004Y-96867072D01*
X114953178Y-96805869D01*
X128437127Y-96805869D01*
X128482861Y-97158470D01*
X128596505Y-97495373D01*
X128711611Y-97710725D01*
X128993398Y-97826997D01*
X130070395Y-96750000D01*
X128993398Y-95673003D01*
X128711611Y-95789275D01*
X128553743Y-96107860D01*
X128461062Y-96451122D01*
X128437127Y-96805869D01*
X114953178Y-96805869D01*
X114992000Y-96610698D01*
X114992000Y-96349302D01*
X114941004Y-96092928D01*
X114840972Y-95851430D01*
X114695748Y-95634087D01*
X114510913Y-95449252D01*
X114293570Y-95304028D01*
X114114851Y-95230000D01*
X114293570Y-95155972D01*
X114510913Y-95010748D01*
X114695748Y-94825913D01*
X114840972Y-94608570D01*
X114941004Y-94367072D01*
X114992000Y-94110698D01*
X114992000Y-93849302D01*
X114941004Y-93592928D01*
X114894228Y-93480000D01*
X115810451Y-93480000D01*
X115810451Y-94480000D01*
X115820626Y-94583310D01*
X115850761Y-94682650D01*
X115899696Y-94774202D01*
X115965552Y-94854448D01*
X116045798Y-94920304D01*
X116137350Y-94969239D01*
X116236690Y-94999374D01*
X116340000Y-95009549D01*
X117340000Y-95009549D01*
X117443310Y-94999374D01*
X117542650Y-94969239D01*
X117634202Y-94920304D01*
X117714448Y-94854448D01*
X117780304Y-94774202D01*
X117829239Y-94682650D01*
X117859374Y-94583310D01*
X117869549Y-94480000D01*
X117869549Y-93480000D01*
X117859374Y-93376690D01*
X117829239Y-93277350D01*
X117780304Y-93185798D01*
X117714448Y-93105552D01*
X117634202Y-93039696D01*
X117542650Y-92990761D01*
X117443310Y-92960626D01*
X117340000Y-92950451D01*
X116340000Y-92950451D01*
X116236690Y-92960626D01*
X116137350Y-92990761D01*
X116045798Y-93039696D01*
X115965552Y-93105552D01*
X115899696Y-93185798D01*
X115850761Y-93277350D01*
X115820626Y-93376690D01*
X115810451Y-93480000D01*
X114894228Y-93480000D01*
X114840972Y-93351430D01*
X114695748Y-93134087D01*
X114510913Y-92949252D01*
X114293570Y-92804028D01*
X114052072Y-92703996D01*
X113795698Y-92653000D01*
X113534302Y-92653000D01*
X113277928Y-92703996D01*
X113036430Y-92804028D01*
X112819087Y-92949252D01*
X112634252Y-93134087D01*
X112489028Y-93351430D01*
X112388996Y-93592928D01*
X112338000Y-93849302D01*
X111526946Y-93849302D01*
X111646904Y-93630961D01*
X111629367Y-93548182D01*
X111518715Y-93288354D01*
X111359500Y-93055105D01*
X111157839Y-92857399D01*
X110921483Y-92702834D01*
X110659514Y-92597350D01*
X110382000Y-92545000D01*
X109982000Y-92545000D01*
X109728000Y-92545000D01*
X109328000Y-92545000D01*
X109050486Y-92597350D01*
X108788517Y-92702834D01*
X108552161Y-92857399D01*
X108350500Y-93055105D01*
X108191285Y-93288354D01*
X108080633Y-93548182D01*
X108063096Y-93630961D01*
X103915831Y-93630961D01*
X103866919Y-93469722D01*
X103743698Y-93239192D01*
X103577870Y-93037130D01*
X103375808Y-92871302D01*
X103145278Y-92748081D01*
X102895137Y-92672201D01*
X102700184Y-92653000D01*
X101769816Y-92653000D01*
X101574863Y-92672201D01*
X101324722Y-92748081D01*
X101094192Y-92871302D01*
X100892130Y-93037130D01*
X100726302Y-93239192D01*
X100603081Y-93469722D01*
X100527201Y-93719863D01*
X100501580Y-93980000D01*
X100527201Y-94240137D01*
X100603081Y-94490278D01*
X100726302Y-94720808D01*
X100892130Y-94922870D01*
X101094192Y-95088698D01*
X101324722Y-95211919D01*
X101450257Y-95250000D01*
X101324722Y-95288081D01*
X101094192Y-95411302D01*
X100892130Y-95577130D01*
X100726302Y-95779192D01*
X100603081Y-96009722D01*
X100527201Y-96259863D01*
X100501580Y-96520000D01*
X100527201Y-96780137D01*
X100603081Y-97030278D01*
X100726302Y-97260808D01*
X100892130Y-97462870D01*
X101094192Y-97628698D01*
X101324722Y-97751919D01*
X101450257Y-97790000D01*
X101324722Y-97828081D01*
X101094192Y-97951302D01*
X100892130Y-98117130D01*
X100726302Y-98319192D01*
X100603081Y-98549722D01*
X100527201Y-98799863D01*
X100501580Y-99060000D01*
X100527201Y-99320137D01*
X100603081Y-99570278D01*
X100726302Y-99800808D01*
X100892130Y-100002870D01*
X101094192Y-100168698D01*
X101324722Y-100291919D01*
X101450257Y-100330000D01*
X101324722Y-100368081D01*
X101094192Y-100491302D01*
X100892130Y-100657130D01*
X100726302Y-100859192D01*
X100603081Y-101089722D01*
X100527201Y-101339863D01*
X100501580Y-101600000D01*
X100527201Y-101860137D01*
X100603081Y-102110278D01*
X100726302Y-102340808D01*
X100892130Y-102542870D01*
X100928842Y-102572999D01*
X99015444Y-102572999D01*
X98965001Y-102568031D01*
X98914557Y-102572999D01*
X98914550Y-102572999D01*
X98781832Y-102586071D01*
X98763673Y-102587859D01*
X98714915Y-102602650D01*
X98570084Y-102646584D01*
X98391670Y-102741948D01*
X98391668Y-102741949D01*
X98391669Y-102741949D01*
X98274476Y-102838126D01*
X98274471Y-102838131D01*
X98235289Y-102870287D01*
X98203133Y-102909469D01*
X94824604Y-106288000D01*
X92289661Y-106288000D01*
X92285913Y-106284252D01*
X92068570Y-106139028D01*
X91984593Y-106104244D01*
X92056292Y-106078603D01*
X92181514Y-106011671D01*
X92253097Y-105767702D01*
X91440000Y-104954605D01*
X90626903Y-105767702D01*
X90698486Y-106011671D01*
X90894725Y-106104526D01*
X90811430Y-106139028D01*
X90594087Y-106284252D01*
X90409252Y-106469087D01*
X90264028Y-106686430D01*
X90190000Y-106865149D01*
X90115972Y-106686430D01*
X89970748Y-106469087D01*
X89785913Y-106284252D01*
X89568570Y-106139028D01*
X89327072Y-106038996D01*
X89070698Y-105988000D01*
X88809302Y-105988000D01*
X88552928Y-106038996D01*
X88311430Y-106139028D01*
X88094087Y-106284252D01*
X87909252Y-106469087D01*
X87764028Y-106686430D01*
X87663996Y-106927928D01*
X87613000Y-107184302D01*
X87613000Y-107445698D01*
X87663996Y-107702072D01*
X87764028Y-107943570D01*
X87909252Y-108160913D01*
X88094087Y-108345748D01*
X88311430Y-108490972D01*
X88552928Y-108591004D01*
X88809302Y-108642000D01*
X89070698Y-108642000D01*
X89327072Y-108591004D01*
X89568570Y-108490972D01*
X89785913Y-108345748D01*
X89970748Y-108160913D01*
X90115972Y-107943570D01*
X90190000Y-107764851D01*
X90264028Y-107943570D01*
X90409252Y-108160913D01*
X90594087Y-108345748D01*
X90811430Y-108490972D01*
X91052928Y-108591004D01*
X91309302Y-108642000D01*
X91570698Y-108642000D01*
X91827072Y-108591004D01*
X92068570Y-108490972D01*
X92285913Y-108345748D01*
X92289661Y-108342000D01*
X95199559Y-108342000D01*
X95250000Y-108346968D01*
X95300441Y-108342000D01*
X95300451Y-108342000D01*
X95451327Y-108327140D01*
X95644917Y-108268415D01*
X95676244Y-108251670D01*
X96497278Y-108251670D01*
X96619799Y-108458000D01*
X97663000Y-108458000D01*
X97663000Y-107415626D01*
X97917000Y-107415626D01*
X97917000Y-108458000D01*
X98960201Y-108458000D01*
X99082722Y-108251670D01*
X98992853Y-108005877D01*
X98856759Y-107782340D01*
X98679670Y-107589649D01*
X98468392Y-107435208D01*
X98231044Y-107324953D01*
X98123329Y-107292284D01*
X97917000Y-107415626D01*
X97663000Y-107415626D01*
X97456671Y-107292284D01*
X97348956Y-107324953D01*
X97111608Y-107435208D01*
X96900330Y-107589649D01*
X96723241Y-107782340D01*
X96587147Y-108005877D01*
X96497278Y-108251670D01*
X95676244Y-108251670D01*
X95823331Y-108173051D01*
X95979712Y-108044712D01*
X96011877Y-108005519D01*
X99390399Y-104626999D01*
X102810451Y-104626999D01*
X102810451Y-106210000D01*
X102820626Y-106313310D01*
X102850761Y-106412650D01*
X102899696Y-106504202D01*
X102965552Y-106584448D01*
X103045798Y-106650304D01*
X103050105Y-106652606D01*
X102964028Y-106781430D01*
X102863996Y-107022928D01*
X102813000Y-107279302D01*
X102813000Y-107540698D01*
X102863996Y-107797072D01*
X102964028Y-108038570D01*
X103109252Y-108255913D01*
X103294087Y-108440748D01*
X103511430Y-108585972D01*
X103752928Y-108686004D01*
X104009302Y-108737000D01*
X104270698Y-108737000D01*
X104527072Y-108686004D01*
X104768570Y-108585972D01*
X104985913Y-108440748D01*
X105170748Y-108255913D01*
X105315972Y-108038570D01*
X105416004Y-107797072D01*
X105467000Y-107540698D01*
X105467000Y-107279302D01*
X105416004Y-107022928D01*
X105315972Y-106781430D01*
X105229895Y-106652606D01*
X105234202Y-106650304D01*
X105314448Y-106584448D01*
X105380304Y-106504202D01*
X105429239Y-106412650D01*
X105459374Y-106313310D01*
X105469549Y-106210000D01*
X105469549Y-104626999D01*
X107840451Y-104626999D01*
X107840451Y-106260000D01*
X107850626Y-106363310D01*
X107880761Y-106462650D01*
X107929696Y-106554202D01*
X107995552Y-106634448D01*
X108075798Y-106700304D01*
X108167350Y-106749239D01*
X108266690Y-106779374D01*
X108370000Y-106789549D01*
X110070000Y-106789549D01*
X110173310Y-106779374D01*
X110272650Y-106749239D01*
X110364202Y-106700304D01*
X110444448Y-106634448D01*
X110510304Y-106554202D01*
X110559239Y-106462650D01*
X110589374Y-106363310D01*
X110599549Y-106260000D01*
X110599549Y-106151798D01*
X110690414Y-106287787D01*
X110882213Y-106479586D01*
X111107746Y-106630282D01*
X111358344Y-106734083D01*
X111624377Y-106787000D01*
X111895623Y-106787000D01*
X112161656Y-106734083D01*
X112412254Y-106630282D01*
X112637787Y-106479586D01*
X112829586Y-106287787D01*
X112980282Y-106062254D01*
X113030000Y-105942224D01*
X113079718Y-106062254D01*
X113230414Y-106287787D01*
X113422213Y-106479586D01*
X113647746Y-106630282D01*
X113898344Y-106734083D01*
X114164377Y-106787000D01*
X114435623Y-106787000D01*
X114701656Y-106734083D01*
X114952254Y-106630282D01*
X115177787Y-106479586D01*
X115369586Y-106287787D01*
X115520282Y-106062254D01*
X115624083Y-105811656D01*
X115628289Y-105790509D01*
X117873000Y-105790509D01*
X117873000Y-106209491D01*
X117954739Y-106620423D01*
X118115077Y-107007512D01*
X118347851Y-107355884D01*
X118644116Y-107652149D01*
X118992488Y-107884923D01*
X119379577Y-108045261D01*
X119790509Y-108127000D01*
X120209491Y-108127000D01*
X120620423Y-108045261D01*
X121007512Y-107884923D01*
X121355884Y-107652149D01*
X121652149Y-107355884D01*
X121884923Y-107007512D01*
X122045261Y-106620423D01*
X122127000Y-106209491D01*
X122127000Y-105790509D01*
X122045261Y-105379577D01*
X121884923Y-104992488D01*
X121652149Y-104644116D01*
X121355884Y-104347851D01*
X121007512Y-104115077D01*
X120620423Y-103954739D01*
X120209491Y-103873000D01*
X119790509Y-103873000D01*
X119379577Y-103954739D01*
X118992488Y-104115077D01*
X118644116Y-104347851D01*
X118347851Y-104644116D01*
X118115077Y-104992488D01*
X117954739Y-105379577D01*
X117873000Y-105790509D01*
X115628289Y-105790509D01*
X115677000Y-105545623D01*
X115677000Y-105274377D01*
X115624083Y-105008344D01*
X115520282Y-104757746D01*
X115432920Y-104626999D01*
X116694560Y-104626999D01*
X116745001Y-104631967D01*
X116795442Y-104626999D01*
X116795452Y-104626999D01*
X116946328Y-104612139D01*
X117139918Y-104553414D01*
X117318332Y-104458050D01*
X117474713Y-104329711D01*
X117506878Y-104290518D01*
X118535397Y-103262000D01*
X121494604Y-103262000D01*
X125673128Y-107440525D01*
X125705288Y-107479712D01*
X125861669Y-107608051D01*
X126040083Y-107703415D01*
X126233673Y-107762140D01*
X126384549Y-107777000D01*
X126384558Y-107777000D01*
X126434999Y-107781968D01*
X126485440Y-107777000D01*
X128895255Y-107777000D01*
X128931854Y-107831774D01*
X129168226Y-108068146D01*
X129446169Y-108253862D01*
X129755003Y-108381785D01*
X130082860Y-108447000D01*
X130417140Y-108447000D01*
X130744997Y-108381785D01*
X131053831Y-108253862D01*
X131331774Y-108068146D01*
X131448001Y-107951919D01*
X131448001Y-109448000D01*
X98801305Y-109448000D01*
X98856759Y-109387660D01*
X98992853Y-109164123D01*
X99082722Y-108918330D01*
X98960201Y-108712000D01*
X97917000Y-108712000D01*
X97917000Y-108732000D01*
X97663000Y-108732000D01*
X97663000Y-108712000D01*
X96619799Y-108712000D01*
X96497278Y-108918330D01*
X96587147Y-109164123D01*
X96723241Y-109387660D01*
X96778695Y-109448000D01*
X76027002Y-109448000D01*
X75330791Y-109379736D01*
X74687080Y-109185388D01*
X74093373Y-108869709D01*
X73572289Y-108444724D01*
X73143674Y-107926619D01*
X72823856Y-107335128D01*
X72625017Y-106692782D01*
X72552000Y-105998073D01*
X72552000Y-105790509D01*
X73873000Y-105790509D01*
X73873000Y-106209491D01*
X73954739Y-106620423D01*
X74115077Y-107007512D01*
X74347851Y-107355884D01*
X74644116Y-107652149D01*
X74992488Y-107884923D01*
X75379577Y-108045261D01*
X75790509Y-108127000D01*
X76209491Y-108127000D01*
X76620423Y-108045261D01*
X77007512Y-107884923D01*
X77355884Y-107652149D01*
X77652149Y-107355884D01*
X77884923Y-107007512D01*
X78045261Y-106620423D01*
X78127000Y-106209491D01*
X78127000Y-105924151D01*
X79418000Y-105924151D01*
X79418000Y-106165849D01*
X79465153Y-106402903D01*
X79557647Y-106626202D01*
X79691927Y-106827167D01*
X79862833Y-106998073D01*
X80063798Y-107132353D01*
X80287097Y-107224847D01*
X80524151Y-107272000D01*
X80765849Y-107272000D01*
X81002903Y-107224847D01*
X81226202Y-107132353D01*
X81427167Y-106998073D01*
X81598073Y-106827167D01*
X81732353Y-106626202D01*
X81824847Y-106402903D01*
X81872000Y-106165849D01*
X81872000Y-105924151D01*
X81824847Y-105687097D01*
X81765989Y-105545000D01*
X82155451Y-105545000D01*
X82155451Y-106545000D01*
X82165626Y-106648310D01*
X82195761Y-106747650D01*
X82244696Y-106839202D01*
X82310552Y-106919448D01*
X82390798Y-106985304D01*
X82482350Y-107034239D01*
X82581690Y-107064374D01*
X82685000Y-107074549D01*
X83685000Y-107074549D01*
X83788310Y-107064374D01*
X83887650Y-107034239D01*
X83979202Y-106985304D01*
X84059448Y-106919448D01*
X84125304Y-106839202D01*
X84174239Y-106747650D01*
X84204374Y-106648310D01*
X84214549Y-106545000D01*
X84214549Y-105545000D01*
X84204374Y-105441690D01*
X84174239Y-105342350D01*
X84125304Y-105250798D01*
X84059448Y-105170552D01*
X83979202Y-105104696D01*
X83887650Y-105055761D01*
X83788310Y-105025626D01*
X83685000Y-105015451D01*
X82685000Y-105015451D01*
X82581690Y-105025626D01*
X82482350Y-105055761D01*
X82390798Y-105104696D01*
X82310552Y-105170552D01*
X82244696Y-105250798D01*
X82195761Y-105342350D01*
X82165626Y-105441690D01*
X82155451Y-105545000D01*
X81765989Y-105545000D01*
X81732353Y-105463798D01*
X81598073Y-105262833D01*
X81427167Y-105091927D01*
X81226202Y-104957647D01*
X81002903Y-104865153D01*
X80904162Y-104845512D01*
X89999783Y-104845512D01*
X90041213Y-105125130D01*
X90136397Y-105391292D01*
X90203329Y-105516514D01*
X90447298Y-105588097D01*
X91260395Y-104775000D01*
X91619605Y-104775000D01*
X92432702Y-105588097D01*
X92676671Y-105516514D01*
X92748197Y-105365351D01*
X92764028Y-105403570D01*
X92909252Y-105620913D01*
X93094087Y-105805748D01*
X93311430Y-105950972D01*
X93552928Y-106051004D01*
X93809302Y-106102000D01*
X94070698Y-106102000D01*
X94327072Y-106051004D01*
X94568570Y-105950972D01*
X94785913Y-105805748D01*
X94970748Y-105620913D01*
X95115972Y-105403570D01*
X95216004Y-105162072D01*
X95267000Y-104905698D01*
X95267000Y-104644302D01*
X95216004Y-104387928D01*
X95115972Y-104146430D01*
X94970748Y-103929087D01*
X94785913Y-103744252D01*
X94568570Y-103599028D01*
X94327072Y-103498996D01*
X94070698Y-103448000D01*
X93809302Y-103448000D01*
X93552928Y-103498996D01*
X93311430Y-103599028D01*
X93094087Y-103744252D01*
X92909252Y-103929087D01*
X92764028Y-104146430D01*
X92750710Y-104178582D01*
X92743603Y-104158708D01*
X92676671Y-104033486D01*
X92432702Y-103961903D01*
X91619605Y-104775000D01*
X91260395Y-104775000D01*
X90447298Y-103961903D01*
X90203329Y-104033486D01*
X90082429Y-104288996D01*
X90013700Y-104563184D01*
X89999783Y-104845512D01*
X80904162Y-104845512D01*
X80765849Y-104818000D01*
X80524151Y-104818000D01*
X80287097Y-104865153D01*
X80063798Y-104957647D01*
X79862833Y-105091927D01*
X79691927Y-105262833D01*
X79557647Y-105463798D01*
X79465153Y-105687097D01*
X79418000Y-105924151D01*
X78127000Y-105924151D01*
X78127000Y-105790509D01*
X78045261Y-105379577D01*
X77884923Y-104992488D01*
X77652149Y-104644116D01*
X77355884Y-104347851D01*
X77007512Y-104115077D01*
X76620423Y-103954739D01*
X76209491Y-103873000D01*
X75790509Y-103873000D01*
X75379577Y-103954739D01*
X74992488Y-104115077D01*
X74644116Y-104347851D01*
X74347851Y-104644116D01*
X74115077Y-104992488D01*
X73954739Y-105379577D01*
X73873000Y-105790509D01*
X72552000Y-105790509D01*
X72552000Y-102749151D01*
X81958000Y-102749151D01*
X81958000Y-102990849D01*
X82005153Y-103227903D01*
X82097647Y-103451202D01*
X82231927Y-103652167D01*
X82402833Y-103823073D01*
X82603798Y-103957353D01*
X82827097Y-104049847D01*
X83064151Y-104097000D01*
X83305849Y-104097000D01*
X83542903Y-104049847D01*
X83766202Y-103957353D01*
X83967167Y-103823073D01*
X84007942Y-103782298D01*
X90626903Y-103782298D01*
X91440000Y-104595395D01*
X92253097Y-103782298D01*
X92181514Y-103538329D01*
X91926004Y-103417429D01*
X91651816Y-103348700D01*
X91369488Y-103334783D01*
X91089870Y-103376213D01*
X90823708Y-103471397D01*
X90698486Y-103538329D01*
X90626903Y-103782298D01*
X84007942Y-103782298D01*
X84138073Y-103652167D01*
X84272353Y-103451202D01*
X84364847Y-103227903D01*
X84412000Y-102990849D01*
X84412000Y-102749151D01*
X84364847Y-102512097D01*
X84272353Y-102288798D01*
X84138073Y-102087833D01*
X83967167Y-101916927D01*
X83766202Y-101782647D01*
X83542903Y-101690153D01*
X83305849Y-101643000D01*
X83064151Y-101643000D01*
X82827097Y-101690153D01*
X82603798Y-101782647D01*
X82402833Y-101916927D01*
X82231927Y-102087833D01*
X82097647Y-102288798D01*
X82005153Y-102512097D01*
X81958000Y-102749151D01*
X72552000Y-102749151D01*
X72552000Y-101750000D01*
X73861928Y-101750000D01*
X73874188Y-101874482D01*
X73910498Y-101994180D01*
X73969463Y-102104494D01*
X74048815Y-102201185D01*
X74145506Y-102280537D01*
X74255820Y-102339502D01*
X74375518Y-102375812D01*
X74500000Y-102388072D01*
X74714250Y-102385000D01*
X74873000Y-102226250D01*
X74873000Y-101377000D01*
X75127000Y-101377000D01*
X75127000Y-102226250D01*
X75285750Y-102385000D01*
X75500000Y-102388072D01*
X75624482Y-102375812D01*
X75744180Y-102339502D01*
X75854494Y-102280537D01*
X75951185Y-102201185D01*
X76030537Y-102104494D01*
X76089502Y-101994180D01*
X76125812Y-101874482D01*
X76138072Y-101750000D01*
X76135000Y-101535750D01*
X75976250Y-101377000D01*
X75127000Y-101377000D01*
X74873000Y-101377000D01*
X74023750Y-101377000D01*
X73865000Y-101535750D01*
X73861928Y-101750000D01*
X72552000Y-101750000D01*
X72552000Y-100750000D01*
X73861928Y-100750000D01*
X73865000Y-100964250D01*
X74023750Y-101123000D01*
X74873000Y-101123000D01*
X74873000Y-100273750D01*
X75127000Y-100273750D01*
X75127000Y-101123000D01*
X75976250Y-101123000D01*
X76135000Y-100964250D01*
X76138072Y-100750000D01*
X76125812Y-100625518D01*
X76089502Y-100505820D01*
X76030537Y-100395506D01*
X75951185Y-100298815D01*
X75854494Y-100219463D01*
X75744180Y-100160498D01*
X75624482Y-100124188D01*
X75500000Y-100111928D01*
X75285750Y-100115000D01*
X75127000Y-100273750D01*
X74873000Y-100273750D01*
X74714250Y-100115000D01*
X74500000Y-100111928D01*
X74375518Y-100124188D01*
X74255820Y-100160498D01*
X74145506Y-100219463D01*
X74048815Y-100298815D01*
X73969463Y-100395506D01*
X73910498Y-100505820D01*
X73874188Y-100625518D01*
X73861928Y-100750000D01*
X72552000Y-100750000D01*
X72552000Y-98461302D01*
X76905000Y-98461302D01*
X76905000Y-98722698D01*
X76955996Y-98979072D01*
X77056028Y-99220570D01*
X77201252Y-99437913D01*
X77386087Y-99622748D01*
X77603430Y-99767972D01*
X77782149Y-99842000D01*
X77603430Y-99916028D01*
X77386087Y-100061252D01*
X77201252Y-100246087D01*
X77056028Y-100463430D01*
X76955996Y-100704928D01*
X76905000Y-100961302D01*
X76905000Y-101222698D01*
X76955996Y-101479072D01*
X77056028Y-101720570D01*
X77201252Y-101937913D01*
X77386087Y-102122748D01*
X77603430Y-102267972D01*
X77844928Y-102368004D01*
X78101302Y-102419000D01*
X78362698Y-102419000D01*
X78619072Y-102368004D01*
X78860570Y-102267972D01*
X79077913Y-102122748D01*
X79262748Y-101937913D01*
X79407972Y-101720570D01*
X79508004Y-101479072D01*
X79559000Y-101222698D01*
X79559000Y-100961302D01*
X79508004Y-100704928D01*
X79407972Y-100463430D01*
X79262748Y-100246087D01*
X79077913Y-100061252D01*
X78860570Y-99916028D01*
X78681851Y-99842000D01*
X78860570Y-99767972D01*
X79077913Y-99622748D01*
X79262748Y-99437913D01*
X79407972Y-99220570D01*
X79508004Y-98979072D01*
X79520464Y-98916434D01*
X79557647Y-99006202D01*
X79691927Y-99207167D01*
X79862833Y-99378073D01*
X80063798Y-99512353D01*
X80287097Y-99604847D01*
X80524151Y-99652000D01*
X80765849Y-99652000D01*
X81002903Y-99604847D01*
X81226202Y-99512353D01*
X81427167Y-99378073D01*
X81598073Y-99207167D01*
X81732353Y-99006202D01*
X81824847Y-98782903D01*
X81872000Y-98545849D01*
X81872000Y-98304151D01*
X81824847Y-98067097D01*
X81732353Y-97843798D01*
X81598073Y-97642833D01*
X81427167Y-97471927D01*
X81226202Y-97337647D01*
X81002903Y-97245153D01*
X80765849Y-97198000D01*
X80524151Y-97198000D01*
X80287097Y-97245153D01*
X80063798Y-97337647D01*
X79862833Y-97471927D01*
X79691927Y-97642833D01*
X79557647Y-97843798D01*
X79465153Y-98067097D01*
X79460533Y-98090323D01*
X79407972Y-97963430D01*
X79262748Y-97746087D01*
X79077913Y-97561252D01*
X78860570Y-97416028D01*
X78619072Y-97315996D01*
X78362698Y-97265000D01*
X78101302Y-97265000D01*
X77844928Y-97315996D01*
X77603430Y-97416028D01*
X77386087Y-97561252D01*
X77201252Y-97746087D01*
X77056028Y-97963430D01*
X76955996Y-98204928D01*
X76905000Y-98461302D01*
X72552000Y-98461302D01*
X72552000Y-97354080D01*
X74115525Y-97354080D01*
X74199208Y-97608261D01*
X74471775Y-97739158D01*
X74764642Y-97814365D01*
X75066553Y-97830991D01*
X75365907Y-97788397D01*
X75651199Y-97688222D01*
X75800792Y-97608261D01*
X75884475Y-97354080D01*
X75000000Y-96469605D01*
X74115525Y-97354080D01*
X72552000Y-97354080D01*
X72552000Y-96356553D01*
X73459009Y-96356553D01*
X73501603Y-96655907D01*
X73601778Y-96941199D01*
X73681739Y-97090792D01*
X73935920Y-97174475D01*
X74820395Y-96290000D01*
X75179605Y-96290000D01*
X76064080Y-97174475D01*
X76318261Y-97090792D01*
X76449158Y-96818225D01*
X76524365Y-96525358D01*
X76540991Y-96223447D01*
X76498397Y-95924093D01*
X76398222Y-95638801D01*
X76318261Y-95489208D01*
X76064080Y-95405525D01*
X75179605Y-96290000D01*
X74820395Y-96290000D01*
X73935920Y-95405525D01*
X73681739Y-95489208D01*
X73550842Y-95761775D01*
X73475635Y-96054642D01*
X73459009Y-96356553D01*
X72552000Y-96356553D01*
X72552000Y-92850000D01*
X73570451Y-92850000D01*
X73570451Y-94650000D01*
X73580626Y-94753310D01*
X73610761Y-94852650D01*
X73659696Y-94944202D01*
X73725552Y-95024448D01*
X73805798Y-95090304D01*
X73897350Y-95139239D01*
X73996690Y-95169374D01*
X74100000Y-95179549D01*
X74130792Y-95179549D01*
X74115525Y-95225920D01*
X75000000Y-96110395D01*
X75725395Y-95385000D01*
X78980451Y-95385000D01*
X78980451Y-96385000D01*
X78990626Y-96488310D01*
X79020761Y-96587650D01*
X79069696Y-96679202D01*
X79135552Y-96759448D01*
X79215798Y-96825304D01*
X79307350Y-96874239D01*
X79406690Y-96904374D01*
X79510000Y-96914549D01*
X80510000Y-96914549D01*
X80613310Y-96904374D01*
X80712650Y-96874239D01*
X80804202Y-96825304D01*
X80884448Y-96759448D01*
X80950304Y-96679202D01*
X80999239Y-96587650D01*
X81029374Y-96488310D01*
X81039549Y-96385000D01*
X81039549Y-95385000D01*
X81029374Y-95281690D01*
X80999239Y-95182350D01*
X80950304Y-95090798D01*
X80884448Y-95010552D01*
X80804202Y-94944696D01*
X80712650Y-94895761D01*
X80613310Y-94865626D01*
X80510000Y-94855451D01*
X79510000Y-94855451D01*
X79406690Y-94865626D01*
X79307350Y-94895761D01*
X79215798Y-94944696D01*
X79135552Y-95010552D01*
X79069696Y-95090798D01*
X79020761Y-95182350D01*
X78990626Y-95281690D01*
X78980451Y-95385000D01*
X75725395Y-95385000D01*
X75884475Y-95225920D01*
X75869208Y-95179549D01*
X75900000Y-95179549D01*
X76003310Y-95169374D01*
X76102650Y-95139239D01*
X76194202Y-95090304D01*
X76274448Y-95024448D01*
X76340304Y-94944202D01*
X76389239Y-94852650D01*
X76419374Y-94753310D01*
X76429549Y-94650000D01*
X76429549Y-93119302D01*
X79358000Y-93119302D01*
X79358000Y-93380698D01*
X79408996Y-93637072D01*
X79509028Y-93878570D01*
X79654252Y-94095913D01*
X79839087Y-94280748D01*
X80056430Y-94425972D01*
X80297928Y-94526004D01*
X80554302Y-94577000D01*
X80815698Y-94577000D01*
X81072072Y-94526004D01*
X81313570Y-94425972D01*
X81530913Y-94280748D01*
X81715748Y-94095913D01*
X81860972Y-93878570D01*
X81935000Y-93699851D01*
X82009028Y-93878570D01*
X82154252Y-94095913D01*
X82339087Y-94280748D01*
X82386999Y-94312761D01*
X82231927Y-94467833D01*
X82097647Y-94668798D01*
X82005153Y-94892097D01*
X81958000Y-95129151D01*
X81958000Y-95370849D01*
X82005153Y-95607903D01*
X82097647Y-95831202D01*
X82231927Y-96032167D01*
X82402833Y-96203073D01*
X82603798Y-96337353D01*
X82827097Y-96429847D01*
X83064151Y-96477000D01*
X83305849Y-96477000D01*
X83542903Y-96429847D01*
X83766202Y-96337353D01*
X83967167Y-96203073D01*
X84138073Y-96032167D01*
X84272353Y-95831202D01*
X84364847Y-95607903D01*
X84412000Y-95370849D01*
X84412000Y-95129151D01*
X84364847Y-94892097D01*
X84272353Y-94668798D01*
X84138073Y-94467833D01*
X83983001Y-94312761D01*
X84030913Y-94280748D01*
X84215748Y-94095913D01*
X84293198Y-93980000D01*
X85896580Y-93980000D01*
X85922201Y-94240137D01*
X85998081Y-94490278D01*
X86121302Y-94720808D01*
X86287130Y-94922870D01*
X86489192Y-95088698D01*
X86719722Y-95211919D01*
X86845257Y-95250000D01*
X86719722Y-95288081D01*
X86489192Y-95411302D01*
X86287130Y-95577130D01*
X86121302Y-95779192D01*
X85998081Y-96009722D01*
X85922201Y-96259863D01*
X85896580Y-96520000D01*
X85922201Y-96780137D01*
X85998081Y-97030278D01*
X86121302Y-97260808D01*
X86287130Y-97462870D01*
X86489192Y-97628698D01*
X86719722Y-97751919D01*
X86845257Y-97790000D01*
X86719722Y-97828081D01*
X86489192Y-97951302D01*
X86287130Y-98117130D01*
X86121302Y-98319192D01*
X85998081Y-98549722D01*
X85922201Y-98799863D01*
X85896580Y-99060000D01*
X85922201Y-99320137D01*
X85998081Y-99570278D01*
X86121302Y-99800808D01*
X86287130Y-100002870D01*
X86489192Y-100168698D01*
X86719722Y-100291919D01*
X86845257Y-100330000D01*
X86719722Y-100368081D01*
X86489192Y-100491302D01*
X86287130Y-100657130D01*
X86121302Y-100859192D01*
X85998081Y-101089722D01*
X85922201Y-101339863D01*
X85896580Y-101600000D01*
X85922201Y-101860137D01*
X85998081Y-102110278D01*
X86121302Y-102340808D01*
X86287130Y-102542870D01*
X86489192Y-102708698D01*
X86719722Y-102831919D01*
X86969863Y-102907799D01*
X87164816Y-102927000D01*
X88095184Y-102927000D01*
X88290137Y-102907799D01*
X88540278Y-102831919D01*
X88770808Y-102708698D01*
X88972870Y-102542870D01*
X89138698Y-102340808D01*
X89261919Y-102110278D01*
X89337799Y-101860137D01*
X89363420Y-101600000D01*
X89337799Y-101339863D01*
X89261919Y-101089722D01*
X89138698Y-100859192D01*
X88972870Y-100657130D01*
X88770808Y-100491302D01*
X88540278Y-100368081D01*
X88414743Y-100330000D01*
X88540278Y-100291919D01*
X88770808Y-100168698D01*
X88972870Y-100002870D01*
X89138698Y-99800808D01*
X89261919Y-99570278D01*
X89337799Y-99320137D01*
X89363420Y-99060000D01*
X89337799Y-98799863D01*
X89261919Y-98549722D01*
X89138698Y-98319192D01*
X88972870Y-98117130D01*
X88770808Y-97951302D01*
X88540278Y-97828081D01*
X88414743Y-97790000D01*
X88540278Y-97751919D01*
X88770808Y-97628698D01*
X88972870Y-97462870D01*
X89138698Y-97260808D01*
X89261919Y-97030278D01*
X89337799Y-96780137D01*
X89363420Y-96520000D01*
X89337799Y-96259863D01*
X89261919Y-96009722D01*
X89138698Y-95779192D01*
X88972870Y-95577130D01*
X88770808Y-95411302D01*
X88540278Y-95288081D01*
X88414743Y-95250000D01*
X88540278Y-95211919D01*
X88770808Y-95088698D01*
X88870357Y-95007000D01*
X89109604Y-95007000D01*
X93594219Y-99491616D01*
X93618081Y-99570278D01*
X93741302Y-99800808D01*
X93907130Y-100002870D01*
X94109192Y-100168698D01*
X94299558Y-100270451D01*
X94050000Y-100270451D01*
X93946690Y-100280626D01*
X93847350Y-100310761D01*
X93755798Y-100359696D01*
X93675552Y-100425552D01*
X93609696Y-100505798D01*
X93560761Y-100597350D01*
X93530626Y-100696690D01*
X93520451Y-100800000D01*
X93520451Y-102400000D01*
X93530626Y-102503310D01*
X93560761Y-102602650D01*
X93609696Y-102694202D01*
X93675552Y-102774448D01*
X93755798Y-102840304D01*
X93847350Y-102889239D01*
X93946690Y-102919374D01*
X94050000Y-102929549D01*
X96450000Y-102929549D01*
X96553310Y-102919374D01*
X96652650Y-102889239D01*
X96744202Y-102840304D01*
X96824448Y-102774448D01*
X96890304Y-102694202D01*
X96939239Y-102602650D01*
X96969374Y-102503310D01*
X96979549Y-102400000D01*
X96979549Y-101889789D01*
X97007833Y-101918073D01*
X97208798Y-102052353D01*
X97432097Y-102144847D01*
X97669151Y-102192000D01*
X97910849Y-102192000D01*
X98147903Y-102144847D01*
X98371202Y-102052353D01*
X98572167Y-101918073D01*
X98743073Y-101747167D01*
X98877353Y-101546202D01*
X98969847Y-101322903D01*
X99017000Y-101085849D01*
X99017000Y-100844151D01*
X98969847Y-100607097D01*
X98877353Y-100383798D01*
X98743073Y-100182833D01*
X98572740Y-100012500D01*
X98743073Y-99842167D01*
X98877353Y-99641202D01*
X98969847Y-99417903D01*
X99017000Y-99180849D01*
X99017000Y-98939151D01*
X98969847Y-98702097D01*
X98877353Y-98478798D01*
X98743073Y-98277833D01*
X98572167Y-98106927D01*
X98371202Y-97972647D01*
X98147903Y-97880153D01*
X97910849Y-97833000D01*
X97669151Y-97833000D01*
X97432097Y-97880153D01*
X97208798Y-97972647D01*
X97007833Y-98106927D01*
X96836927Y-98277833D01*
X96781184Y-98361259D01*
X96758698Y-98319192D01*
X96592870Y-98117130D01*
X96390808Y-97951302D01*
X96160278Y-97828081D01*
X96034743Y-97790000D01*
X96160278Y-97751919D01*
X96390808Y-97628698D01*
X96592870Y-97462870D01*
X96758698Y-97260808D01*
X96881919Y-97030278D01*
X96957799Y-96780137D01*
X96983420Y-96520000D01*
X96957799Y-96259863D01*
X96881919Y-96009722D01*
X96758698Y-95779192D01*
X96592870Y-95577130D01*
X96390808Y-95411302D01*
X96194404Y-95306322D01*
X96316483Y-95257166D01*
X96552839Y-95102601D01*
X96754500Y-94904895D01*
X96913715Y-94671646D01*
X97024367Y-94411818D01*
X97041904Y-94329039D01*
X96919915Y-94107000D01*
X95377000Y-94107000D01*
X95377000Y-94127000D01*
X95123000Y-94127000D01*
X95123000Y-94107000D01*
X93580085Y-94107000D01*
X93458096Y-94329039D01*
X93475633Y-94411818D01*
X93586285Y-94671646D01*
X93745500Y-94904895D01*
X93947161Y-95102601D01*
X94183517Y-95257166D01*
X94305596Y-95306322D01*
X94109192Y-95411302D01*
X93907130Y-95577130D01*
X93741302Y-95779192D01*
X93618081Y-96009722D01*
X93542201Y-96259863D01*
X93517550Y-96510153D01*
X90638358Y-93630961D01*
X93458096Y-93630961D01*
X93580085Y-93853000D01*
X95123000Y-93853000D01*
X95123000Y-92545000D01*
X95377000Y-92545000D01*
X95377000Y-93853000D01*
X96919915Y-93853000D01*
X97041904Y-93630961D01*
X97024367Y-93548182D01*
X96913715Y-93288354D01*
X96754500Y-93055105D01*
X96552839Y-92857399D01*
X96316483Y-92702834D01*
X96054514Y-92597350D01*
X95777000Y-92545000D01*
X95377000Y-92545000D01*
X95123000Y-92545000D01*
X94723000Y-92545000D01*
X94445486Y-92597350D01*
X94183517Y-92702834D01*
X93947161Y-92857399D01*
X93745500Y-93055105D01*
X93586285Y-93288354D01*
X93475633Y-93548182D01*
X93458096Y-93630961D01*
X90638358Y-93630961D01*
X90296877Y-93289481D01*
X90264712Y-93250288D01*
X90108331Y-93121949D01*
X89929917Y-93026585D01*
X89736327Y-92967860D01*
X89585451Y-92953000D01*
X89585441Y-92953000D01*
X89535000Y-92948032D01*
X89484559Y-92953000D01*
X88870357Y-92953000D01*
X88770808Y-92871302D01*
X88540278Y-92748081D01*
X88290137Y-92672201D01*
X88095184Y-92653000D01*
X87164816Y-92653000D01*
X86969863Y-92672201D01*
X86719722Y-92748081D01*
X86489192Y-92871302D01*
X86287130Y-93037130D01*
X86121302Y-93239192D01*
X85998081Y-93469722D01*
X85922201Y-93719863D01*
X85896580Y-93980000D01*
X84293198Y-93980000D01*
X84360972Y-93878570D01*
X84461004Y-93637072D01*
X84512000Y-93380698D01*
X84512000Y-93119302D01*
X84461004Y-92862928D01*
X84360972Y-92621430D01*
X84215748Y-92404087D01*
X84030913Y-92219252D01*
X83813570Y-92074028D01*
X83572072Y-91973996D01*
X83315698Y-91923000D01*
X83054302Y-91923000D01*
X82797928Y-91973996D01*
X82556430Y-92074028D01*
X82339087Y-92219252D01*
X82154252Y-92404087D01*
X82009028Y-92621430D01*
X81935000Y-92800149D01*
X81860972Y-92621430D01*
X81715748Y-92404087D01*
X81530913Y-92219252D01*
X81313570Y-92074028D01*
X81072072Y-91973996D01*
X80815698Y-91923000D01*
X80554302Y-91923000D01*
X80297928Y-91973996D01*
X80056430Y-92074028D01*
X79839087Y-92219252D01*
X79654252Y-92404087D01*
X79509028Y-92621430D01*
X79408996Y-92862928D01*
X79358000Y-93119302D01*
X76429549Y-93119302D01*
X76429549Y-92850000D01*
X76419374Y-92746690D01*
X76389239Y-92647350D01*
X76340304Y-92555798D01*
X76274448Y-92475552D01*
X76194202Y-92409696D01*
X76102650Y-92360761D01*
X76003310Y-92330626D01*
X75900000Y-92320451D01*
X74100000Y-92320451D01*
X73996690Y-92330626D01*
X73897350Y-92360761D01*
X73805798Y-92409696D01*
X73725552Y-92475552D01*
X73659696Y-92555798D01*
X73610761Y-92647350D01*
X73580626Y-92746690D01*
X73570451Y-92850000D01*
X72552000Y-92850000D01*
X72552000Y-90629151D01*
X73773000Y-90629151D01*
X73773000Y-90870849D01*
X73820153Y-91107903D01*
X73912647Y-91331202D01*
X74046927Y-91532167D01*
X74217833Y-91703073D01*
X74418798Y-91837353D01*
X74642097Y-91929847D01*
X74879151Y-91977000D01*
X75120849Y-91977000D01*
X75357903Y-91929847D01*
X75581202Y-91837353D01*
X75782167Y-91703073D01*
X75953073Y-91532167D01*
X76087353Y-91331202D01*
X76179847Y-91107903D01*
X76227000Y-90870849D01*
X76227000Y-90629151D01*
X81393000Y-90629151D01*
X81393000Y-90870849D01*
X81440153Y-91107903D01*
X81532647Y-91331202D01*
X81666927Y-91532167D01*
X81837833Y-91703073D01*
X82038798Y-91837353D01*
X82262097Y-91929847D01*
X82499151Y-91977000D01*
X82740849Y-91977000D01*
X82977903Y-91929847D01*
X83201202Y-91837353D01*
X83402167Y-91703073D01*
X83573073Y-91532167D01*
X83707353Y-91331202D01*
X83799847Y-91107903D01*
X83847000Y-90870849D01*
X83847000Y-90629151D01*
X83799847Y-90392097D01*
X83763771Y-90305000D01*
X85330451Y-90305000D01*
X85330451Y-91305000D01*
X85340626Y-91408310D01*
X85370761Y-91507650D01*
X85419696Y-91599202D01*
X85485552Y-91679448D01*
X85565798Y-91745304D01*
X85657350Y-91794239D01*
X85756690Y-91824374D01*
X85860000Y-91834549D01*
X86860000Y-91834549D01*
X86963310Y-91824374D01*
X87062650Y-91794239D01*
X87154202Y-91745304D01*
X87234448Y-91679448D01*
X87300304Y-91599202D01*
X87349239Y-91507650D01*
X87379374Y-91408310D01*
X87389549Y-91305000D01*
X87389549Y-90674302D01*
X87613000Y-90674302D01*
X87613000Y-90935698D01*
X87663996Y-91192072D01*
X87764028Y-91433570D01*
X87909252Y-91650913D01*
X88094087Y-91835748D01*
X88311430Y-91980972D01*
X88552928Y-92081004D01*
X88809302Y-92132000D01*
X89070698Y-92132000D01*
X89327072Y-92081004D01*
X89568570Y-91980972D01*
X89785913Y-91835748D01*
X89970748Y-91650913D01*
X90115972Y-91433570D01*
X90190000Y-91254851D01*
X90264028Y-91433570D01*
X90409252Y-91650913D01*
X90594087Y-91835748D01*
X90811430Y-91980972D01*
X91052928Y-92081004D01*
X91309302Y-92132000D01*
X91570698Y-92132000D01*
X91827072Y-92081004D01*
X92068570Y-91980972D01*
X92285913Y-91835748D01*
X92470748Y-91650913D01*
X92615972Y-91433570D01*
X92663366Y-91319151D01*
X96563000Y-91319151D01*
X96563000Y-91560849D01*
X96610153Y-91797903D01*
X96702647Y-92021202D01*
X96836927Y-92222167D01*
X97007833Y-92393073D01*
X97208798Y-92527353D01*
X97432097Y-92619847D01*
X97669151Y-92667000D01*
X97910849Y-92667000D01*
X98147903Y-92619847D01*
X98371202Y-92527353D01*
X98572167Y-92393073D01*
X98743073Y-92222167D01*
X98877353Y-92021202D01*
X98969847Y-91797903D01*
X99017000Y-91560849D01*
X99017000Y-91319151D01*
X98969847Y-91082097D01*
X98877353Y-90858798D01*
X98743073Y-90657833D01*
X98572167Y-90486927D01*
X98371202Y-90352647D01*
X98256173Y-90305000D01*
X101205451Y-90305000D01*
X101205451Y-91305000D01*
X101215626Y-91408310D01*
X101245761Y-91507650D01*
X101294696Y-91599202D01*
X101360552Y-91679448D01*
X101440798Y-91745304D01*
X101532350Y-91794239D01*
X101631690Y-91824374D01*
X101735000Y-91834549D01*
X102735000Y-91834549D01*
X102838310Y-91824374D01*
X102918658Y-91800000D01*
X120365128Y-91800000D01*
X120396542Y-92118948D01*
X120489575Y-92425638D01*
X120640654Y-92708286D01*
X120843971Y-92956029D01*
X121091714Y-93159346D01*
X121374362Y-93310425D01*
X121681052Y-93403458D01*
X121920075Y-93427000D01*
X123879925Y-93427000D01*
X124118948Y-93403458D01*
X124425638Y-93310425D01*
X124708286Y-93159346D01*
X124956029Y-92956029D01*
X125159346Y-92708286D01*
X125310425Y-92425638D01*
X125403458Y-92118948D01*
X125434872Y-91800000D01*
X125403458Y-91481052D01*
X125310425Y-91174362D01*
X125159346Y-90891714D01*
X125024169Y-90727000D01*
X125079925Y-90727000D01*
X125318948Y-90703458D01*
X125625638Y-90610425D01*
X125908286Y-90459346D01*
X126156029Y-90256029D01*
X126359346Y-90008286D01*
X126510425Y-89725638D01*
X126603458Y-89418948D01*
X126634872Y-89100000D01*
X126603458Y-88781052D01*
X126510425Y-88474362D01*
X126359346Y-88191714D01*
X126156029Y-87943971D01*
X125908286Y-87740654D01*
X125625638Y-87589575D01*
X125318948Y-87496542D01*
X125079925Y-87473000D01*
X123120075Y-87473000D01*
X122881052Y-87496542D01*
X122574362Y-87589575D01*
X122291714Y-87740654D01*
X122043971Y-87943971D01*
X121840654Y-88191714D01*
X121689575Y-88474362D01*
X121596542Y-88781052D01*
X121565128Y-89100000D01*
X121596542Y-89418948D01*
X121689575Y-89725638D01*
X121840654Y-90008286D01*
X121975831Y-90173000D01*
X121920075Y-90173000D01*
X121681052Y-90196542D01*
X121374362Y-90289575D01*
X121091714Y-90440654D01*
X120843971Y-90643971D01*
X120640654Y-90891714D01*
X120489575Y-91174362D01*
X120396542Y-91481052D01*
X120365128Y-91800000D01*
X102918658Y-91800000D01*
X102937650Y-91794239D01*
X103029202Y-91745304D01*
X103109448Y-91679448D01*
X103175304Y-91599202D01*
X103224239Y-91507650D01*
X103254374Y-91408310D01*
X103264549Y-91305000D01*
X103264549Y-90305000D01*
X103254374Y-90201690D01*
X103224239Y-90102350D01*
X103175304Y-90010798D01*
X103109448Y-89930552D01*
X103029202Y-89864696D01*
X102937650Y-89815761D01*
X102838310Y-89785626D01*
X102735000Y-89775451D01*
X101735000Y-89775451D01*
X101631690Y-89785626D01*
X101532350Y-89815761D01*
X101440798Y-89864696D01*
X101360552Y-89930552D01*
X101294696Y-90010798D01*
X101245761Y-90102350D01*
X101215626Y-90201690D01*
X101205451Y-90305000D01*
X98256173Y-90305000D01*
X98147903Y-90260153D01*
X97910849Y-90213000D01*
X97669151Y-90213000D01*
X97432097Y-90260153D01*
X97208798Y-90352647D01*
X97007833Y-90486927D01*
X96836927Y-90657833D01*
X96702647Y-90858798D01*
X96610153Y-91082097D01*
X96563000Y-91319151D01*
X92663366Y-91319151D01*
X92716004Y-91192072D01*
X92767000Y-90935698D01*
X92767000Y-90674302D01*
X92716004Y-90417928D01*
X92615972Y-90176430D01*
X92470748Y-89959087D01*
X92285913Y-89774252D01*
X92068570Y-89629028D01*
X91827072Y-89528996D01*
X91570698Y-89478000D01*
X91309302Y-89478000D01*
X91052928Y-89528996D01*
X90811430Y-89629028D01*
X90594087Y-89774252D01*
X90409252Y-89959087D01*
X90264028Y-90176430D01*
X90190000Y-90355149D01*
X90115972Y-90176430D01*
X89970748Y-89959087D01*
X89785913Y-89774252D01*
X89568570Y-89629028D01*
X89327072Y-89528996D01*
X89070698Y-89478000D01*
X88809302Y-89478000D01*
X88552928Y-89528996D01*
X88311430Y-89629028D01*
X88094087Y-89774252D01*
X87909252Y-89959087D01*
X87764028Y-90176430D01*
X87663996Y-90417928D01*
X87613000Y-90674302D01*
X87389549Y-90674302D01*
X87389549Y-90305000D01*
X87379374Y-90201690D01*
X87349239Y-90102350D01*
X87300304Y-90010798D01*
X87234448Y-89930552D01*
X87154202Y-89864696D01*
X87062650Y-89815761D01*
X86963310Y-89785626D01*
X86860000Y-89775451D01*
X85860000Y-89775451D01*
X85756690Y-89785626D01*
X85657350Y-89815761D01*
X85565798Y-89864696D01*
X85485552Y-89930552D01*
X85419696Y-90010798D01*
X85370761Y-90102350D01*
X85340626Y-90201690D01*
X85330451Y-90305000D01*
X83763771Y-90305000D01*
X83707353Y-90168798D01*
X83573073Y-89967833D01*
X83402167Y-89796927D01*
X83201202Y-89662647D01*
X82977903Y-89570153D01*
X82740849Y-89523000D01*
X82499151Y-89523000D01*
X82262097Y-89570153D01*
X82038798Y-89662647D01*
X81837833Y-89796927D01*
X81666927Y-89967833D01*
X81532647Y-90168798D01*
X81440153Y-90392097D01*
X81393000Y-90629151D01*
X76227000Y-90629151D01*
X76179847Y-90392097D01*
X76087353Y-90168798D01*
X75953073Y-89967833D01*
X75782167Y-89796927D01*
X75581202Y-89662647D01*
X75357903Y-89570153D01*
X75153773Y-89529549D01*
X75500000Y-89529549D01*
X75603310Y-89519374D01*
X75702650Y-89489239D01*
X75794202Y-89440304D01*
X75874448Y-89374448D01*
X75940304Y-89294202D01*
X75989239Y-89202650D01*
X76019374Y-89103310D01*
X76029549Y-89000000D01*
X76029549Y-88717702D01*
X89356903Y-88717702D01*
X89428486Y-88961671D01*
X89683996Y-89082571D01*
X89958184Y-89151300D01*
X90240512Y-89165217D01*
X90520130Y-89123787D01*
X90786292Y-89028603D01*
X90911514Y-88961671D01*
X90961734Y-88790509D01*
X104873000Y-88790509D01*
X104873000Y-89209491D01*
X104954739Y-89620423D01*
X105115077Y-90007512D01*
X105347851Y-90355884D01*
X105644116Y-90652149D01*
X105992488Y-90884923D01*
X106379577Y-91045261D01*
X106790509Y-91127000D01*
X107209491Y-91127000D01*
X107620423Y-91045261D01*
X108007512Y-90884923D01*
X108355884Y-90652149D01*
X108652149Y-90355884D01*
X108884923Y-90007512D01*
X109045261Y-89620423D01*
X109127000Y-89209491D01*
X109127000Y-88790509D01*
X109045261Y-88379577D01*
X108884923Y-87992488D01*
X108652149Y-87644116D01*
X108473033Y-87465000D01*
X112335451Y-87465000D01*
X112335451Y-89065000D01*
X112345626Y-89168310D01*
X112375761Y-89267650D01*
X112424696Y-89359202D01*
X112490552Y-89439448D01*
X112570798Y-89505304D01*
X112575105Y-89507606D01*
X112489028Y-89636430D01*
X112388996Y-89877928D01*
X112338000Y-90134302D01*
X112338000Y-90395698D01*
X112388996Y-90652072D01*
X112489028Y-90893570D01*
X112634252Y-91110913D01*
X112819087Y-91295748D01*
X113036430Y-91440972D01*
X113277928Y-91541004D01*
X113534302Y-91592000D01*
X113795698Y-91592000D01*
X114052072Y-91541004D01*
X114293570Y-91440972D01*
X114510913Y-91295748D01*
X114695748Y-91110913D01*
X114840972Y-90893570D01*
X114941004Y-90652072D01*
X114992000Y-90395698D01*
X114992000Y-90134302D01*
X114941004Y-89877928D01*
X114840972Y-89636430D01*
X114754895Y-89507606D01*
X114759202Y-89505304D01*
X114839448Y-89439448D01*
X114905304Y-89359202D01*
X114954239Y-89267650D01*
X114984374Y-89168310D01*
X114994549Y-89065000D01*
X114994549Y-87465000D01*
X114984374Y-87361690D01*
X114954239Y-87262350D01*
X114905304Y-87170798D01*
X114839448Y-87090552D01*
X114759202Y-87024696D01*
X114667650Y-86975761D01*
X114568310Y-86945626D01*
X114465000Y-86935451D01*
X112865000Y-86935451D01*
X112761690Y-86945626D01*
X112662350Y-86975761D01*
X112570798Y-87024696D01*
X112490552Y-87090552D01*
X112424696Y-87170798D01*
X112375761Y-87262350D01*
X112345626Y-87361690D01*
X112335451Y-87465000D01*
X108473033Y-87465000D01*
X108355884Y-87347851D01*
X108007512Y-87115077D01*
X107620423Y-86954739D01*
X107209491Y-86873000D01*
X106790509Y-86873000D01*
X106379577Y-86954739D01*
X105992488Y-87115077D01*
X105644116Y-87347851D01*
X105347851Y-87644116D01*
X105115077Y-87992488D01*
X104954739Y-88379577D01*
X104873000Y-88790509D01*
X90961734Y-88790509D01*
X90983097Y-88717702D01*
X90170000Y-87904605D01*
X89356903Y-88717702D01*
X76029549Y-88717702D01*
X76029549Y-88000000D01*
X76019374Y-87896690D01*
X75989239Y-87797350D01*
X75988257Y-87795512D01*
X88729783Y-87795512D01*
X88771213Y-88075130D01*
X88866397Y-88341292D01*
X88933329Y-88466514D01*
X89177298Y-88538097D01*
X89990395Y-87725000D01*
X89976253Y-87710858D01*
X90155858Y-87531253D01*
X90170000Y-87545395D01*
X90184143Y-87531253D01*
X90363748Y-87710858D01*
X90349605Y-87725000D01*
X91162702Y-88538097D01*
X91406671Y-88466514D01*
X91479450Y-88312702D01*
X96976903Y-88312702D01*
X97048486Y-88556671D01*
X97303996Y-88677571D01*
X97578184Y-88746300D01*
X97860512Y-88760217D01*
X98140130Y-88718787D01*
X98406292Y-88623603D01*
X98531514Y-88556671D01*
X98603097Y-88312702D01*
X97790000Y-87499605D01*
X96976903Y-88312702D01*
X91479450Y-88312702D01*
X91527571Y-88211004D01*
X91596300Y-87936816D01*
X91610217Y-87654488D01*
X91571105Y-87390512D01*
X96349783Y-87390512D01*
X96391213Y-87670130D01*
X96486397Y-87936292D01*
X96553329Y-88061514D01*
X96797298Y-88133097D01*
X97610395Y-87320000D01*
X97969605Y-87320000D01*
X98782702Y-88133097D01*
X99026671Y-88061514D01*
X99147571Y-87806004D01*
X99216300Y-87531816D01*
X99230217Y-87249488D01*
X99188787Y-86969870D01*
X99101933Y-86727000D01*
X129165000Y-86727000D01*
X129165000Y-87627000D01*
X129223114Y-87963041D01*
X129345670Y-88281288D01*
X129527958Y-88569511D01*
X129762973Y-88816633D01*
X130041683Y-89013157D01*
X130353378Y-89151531D01*
X130503878Y-89189175D01*
X130773000Y-89071125D01*
X130773000Y-86727000D01*
X129165000Y-86727000D01*
X99101933Y-86727000D01*
X99093603Y-86703708D01*
X99026671Y-86578486D01*
X98782702Y-86506903D01*
X97969605Y-87320000D01*
X97610395Y-87320000D01*
X96797298Y-86506903D01*
X96553329Y-86578486D01*
X96432429Y-86833996D01*
X96363700Y-87108184D01*
X96349783Y-87390512D01*
X91571105Y-87390512D01*
X91568787Y-87374870D01*
X91473603Y-87108708D01*
X91406671Y-86983486D01*
X91285403Y-86947905D01*
X91344448Y-86899448D01*
X91410304Y-86819202D01*
X91459239Y-86727650D01*
X91489374Y-86628310D01*
X91499549Y-86525000D01*
X91499549Y-86327298D01*
X96976903Y-86327298D01*
X97790000Y-87140395D01*
X98603097Y-86327298D01*
X98531514Y-86083329D01*
X98276004Y-85962429D01*
X98001816Y-85893700D01*
X97719488Y-85879783D01*
X97439870Y-85921213D01*
X97173708Y-86016397D01*
X97048486Y-86083329D01*
X96976903Y-86327298D01*
X91499549Y-86327298D01*
X91499549Y-85573000D01*
X129165000Y-85573000D01*
X129165000Y-86473000D01*
X130773000Y-86473000D01*
X130773000Y-84128875D01*
X130503878Y-84010825D01*
X130353378Y-84048469D01*
X130041683Y-84186843D01*
X129762973Y-84383367D01*
X129527958Y-84630489D01*
X129345670Y-84918712D01*
X129223114Y-85236959D01*
X129165000Y-85573000D01*
X91499549Y-85573000D01*
X91499549Y-84925000D01*
X91489374Y-84821690D01*
X91459239Y-84722350D01*
X91410304Y-84630798D01*
X91344448Y-84550552D01*
X91264202Y-84484696D01*
X91172650Y-84435761D01*
X91073310Y-84405626D01*
X90970000Y-84395451D01*
X89370000Y-84395451D01*
X89266690Y-84405626D01*
X89167350Y-84435761D01*
X89075798Y-84484696D01*
X88995552Y-84550552D01*
X88929696Y-84630798D01*
X88880761Y-84722350D01*
X88850626Y-84821690D01*
X88840451Y-84925000D01*
X88840451Y-86525000D01*
X88850626Y-86628310D01*
X88880761Y-86727650D01*
X88929696Y-86819202D01*
X88995552Y-86899448D01*
X89054597Y-86947905D01*
X88933329Y-86983486D01*
X88812429Y-87238996D01*
X88743700Y-87513184D01*
X88729783Y-87795512D01*
X75988257Y-87795512D01*
X75940304Y-87705798D01*
X75874448Y-87625552D01*
X75794202Y-87559696D01*
X75702650Y-87510761D01*
X75603310Y-87480626D01*
X75500000Y-87470451D01*
X74500000Y-87470451D01*
X74396690Y-87480626D01*
X74297350Y-87510761D01*
X74205798Y-87559696D01*
X74125552Y-87625552D01*
X74059696Y-87705798D01*
X74010761Y-87797350D01*
X73980626Y-87896690D01*
X73970451Y-88000000D01*
X73970451Y-89000000D01*
X73980626Y-89103310D01*
X74010761Y-89202650D01*
X74059696Y-89294202D01*
X74125552Y-89374448D01*
X74205798Y-89440304D01*
X74297350Y-89489239D01*
X74396690Y-89519374D01*
X74500000Y-89529549D01*
X74846227Y-89529549D01*
X74642097Y-89570153D01*
X74418798Y-89662647D01*
X74217833Y-89796927D01*
X74046927Y-89967833D01*
X73912647Y-90168798D01*
X73820153Y-90392097D01*
X73773000Y-90629151D01*
X72552000Y-90629151D01*
X72552000Y-84027002D01*
X72575188Y-83790509D01*
X73873000Y-83790509D01*
X73873000Y-84209491D01*
X73954739Y-84620423D01*
X74115077Y-85007512D01*
X74347851Y-85355884D01*
X74644116Y-85652149D01*
X74992488Y-85884923D01*
X75379577Y-86045261D01*
X75790509Y-86127000D01*
X76209491Y-86127000D01*
X76620423Y-86045261D01*
X77007512Y-85884923D01*
X77355884Y-85652149D01*
X77652149Y-85355884D01*
X77884923Y-85007512D01*
X78045261Y-84620423D01*
X78127000Y-84209491D01*
X78127000Y-83790509D01*
X78045261Y-83379577D01*
X77884923Y-82992488D01*
X77652149Y-82644116D01*
X77355884Y-82347851D01*
X77007512Y-82115077D01*
X76850403Y-82050000D01*
X80885451Y-82050000D01*
X80885451Y-83050000D01*
X80895626Y-83153310D01*
X80925761Y-83252650D01*
X80974696Y-83344202D01*
X81040552Y-83424448D01*
X81120798Y-83490304D01*
X81212350Y-83539239D01*
X81311690Y-83569374D01*
X81415000Y-83579549D01*
X82415000Y-83579549D01*
X82518310Y-83569374D01*
X82617650Y-83539239D01*
X82709202Y-83490304D01*
X82789448Y-83424448D01*
X82855304Y-83344202D01*
X82904239Y-83252650D01*
X82934374Y-83153310D01*
X82944549Y-83050000D01*
X82944549Y-82429151D01*
X83863000Y-82429151D01*
X83863000Y-82670849D01*
X83910153Y-82907903D01*
X84002647Y-83131202D01*
X84136927Y-83332167D01*
X84307833Y-83503073D01*
X84508798Y-83637353D01*
X84732097Y-83729847D01*
X84969151Y-83777000D01*
X85210849Y-83777000D01*
X85447903Y-83729847D01*
X85671202Y-83637353D01*
X85872167Y-83503073D01*
X86043073Y-83332167D01*
X86177353Y-83131202D01*
X86269847Y-82907903D01*
X86317000Y-82670849D01*
X86317000Y-82429151D01*
X91483000Y-82429151D01*
X91483000Y-82670849D01*
X91530153Y-82907903D01*
X91622647Y-83131202D01*
X91756927Y-83332167D01*
X91927833Y-83503073D01*
X92128798Y-83637353D01*
X92352097Y-83729847D01*
X92589151Y-83777000D01*
X92830849Y-83777000D01*
X93067903Y-83729847D01*
X93291202Y-83637353D01*
X93492167Y-83503073D01*
X93663073Y-83332167D01*
X93797353Y-83131202D01*
X93843414Y-83020000D01*
X96460451Y-83020000D01*
X96460451Y-84620000D01*
X96470626Y-84723310D01*
X96500761Y-84822650D01*
X96549696Y-84914202D01*
X96615552Y-84994448D01*
X96695798Y-85060304D01*
X96787350Y-85109239D01*
X96886690Y-85139374D01*
X96990000Y-85149549D01*
X98590000Y-85149549D01*
X98693310Y-85139374D01*
X98792650Y-85109239D01*
X98884202Y-85060304D01*
X98964448Y-84994448D01*
X99030304Y-84914202D01*
X99079239Y-84822650D01*
X99109374Y-84723310D01*
X99119549Y-84620000D01*
X99119549Y-83020000D01*
X99109374Y-82916690D01*
X99079239Y-82817350D01*
X99030304Y-82725798D01*
X98964448Y-82645552D01*
X98884202Y-82579696D01*
X98792650Y-82530761D01*
X98693310Y-82500626D01*
X98590000Y-82490451D01*
X96990000Y-82490451D01*
X96886690Y-82500626D01*
X96787350Y-82530761D01*
X96695798Y-82579696D01*
X96615552Y-82645552D01*
X96549696Y-82725798D01*
X96500761Y-82817350D01*
X96470626Y-82916690D01*
X96460451Y-83020000D01*
X93843414Y-83020000D01*
X93889847Y-82907903D01*
X93937000Y-82670849D01*
X93937000Y-82429151D01*
X93934062Y-82414377D01*
X102763000Y-82414377D01*
X102763000Y-82685623D01*
X102815917Y-82951656D01*
X102919718Y-83202254D01*
X103070414Y-83427787D01*
X103262213Y-83619586D01*
X103487746Y-83770282D01*
X103738344Y-83874083D01*
X104004377Y-83927000D01*
X104275623Y-83927000D01*
X104541656Y-83874083D01*
X104792254Y-83770282D01*
X105017787Y-83619586D01*
X105209586Y-83427787D01*
X105300451Y-83291798D01*
X105300451Y-83400000D01*
X105310626Y-83503310D01*
X105340761Y-83602650D01*
X105389696Y-83694202D01*
X105455552Y-83774448D01*
X105535798Y-83840304D01*
X105627350Y-83889239D01*
X105726690Y-83919374D01*
X105830000Y-83929549D01*
X107530000Y-83929549D01*
X107633310Y-83919374D01*
X107732650Y-83889239D01*
X107824202Y-83840304D01*
X107904448Y-83774448D01*
X107970304Y-83694202D01*
X108019239Y-83602650D01*
X108027020Y-83577000D01*
X110412980Y-83577000D01*
X110420761Y-83602650D01*
X110469696Y-83694202D01*
X110535552Y-83774448D01*
X110615798Y-83840304D01*
X110707350Y-83889239D01*
X110806690Y-83919374D01*
X110910000Y-83929549D01*
X112610000Y-83929549D01*
X112713310Y-83919374D01*
X112812650Y-83889239D01*
X112904202Y-83840304D01*
X112984448Y-83774448D01*
X113050304Y-83694202D01*
X113099239Y-83602650D01*
X113129374Y-83503310D01*
X113133344Y-83462998D01*
X113299731Y-83647588D01*
X113533080Y-83821641D01*
X113795901Y-83946825D01*
X113943110Y-83991476D01*
X114173000Y-83870155D01*
X114173000Y-82677000D01*
X114427000Y-82677000D01*
X114427000Y-83870155D01*
X114656890Y-83991476D01*
X114804099Y-83946825D01*
X115066920Y-83821641D01*
X115300269Y-83647588D01*
X115495178Y-83431355D01*
X115644157Y-83181252D01*
X115741481Y-82906891D01*
X115620814Y-82677000D01*
X114427000Y-82677000D01*
X114173000Y-82677000D01*
X114153000Y-82677000D01*
X114153000Y-82423000D01*
X114173000Y-82423000D01*
X114173000Y-81229845D01*
X114427000Y-81229845D01*
X114427000Y-82423000D01*
X115620814Y-82423000D01*
X115741481Y-82193109D01*
X115644157Y-81918748D01*
X115495178Y-81668645D01*
X115300269Y-81452412D01*
X115066920Y-81278359D01*
X114804099Y-81153175D01*
X114656890Y-81108524D01*
X114427000Y-81229845D01*
X114173000Y-81229845D01*
X113943110Y-81108524D01*
X113795901Y-81153175D01*
X113533080Y-81278359D01*
X113299731Y-81452412D01*
X113133344Y-81637002D01*
X113129374Y-81596690D01*
X113099239Y-81497350D01*
X113050304Y-81405798D01*
X112984448Y-81325552D01*
X112904202Y-81259696D01*
X112812650Y-81210761D01*
X112713310Y-81180626D01*
X112610000Y-81170451D01*
X110910000Y-81170451D01*
X110806690Y-81180626D01*
X110707350Y-81210761D01*
X110615798Y-81259696D01*
X110535552Y-81325552D01*
X110469696Y-81405798D01*
X110420761Y-81497350D01*
X110412980Y-81523000D01*
X108027020Y-81523000D01*
X108019239Y-81497350D01*
X107970304Y-81405798D01*
X107904448Y-81325552D01*
X107824202Y-81259696D01*
X107732650Y-81210761D01*
X107633310Y-81180626D01*
X107530000Y-81170451D01*
X105830000Y-81170451D01*
X105726690Y-81180626D01*
X105627350Y-81210761D01*
X105535798Y-81259696D01*
X105455552Y-81325552D01*
X105389696Y-81405798D01*
X105340761Y-81497350D01*
X105310626Y-81596690D01*
X105300451Y-81700000D01*
X105300451Y-81808202D01*
X105209586Y-81672213D01*
X105017787Y-81480414D01*
X104792254Y-81329718D01*
X104541656Y-81225917D01*
X104275623Y-81173000D01*
X104004377Y-81173000D01*
X103738344Y-81225917D01*
X103487746Y-81329718D01*
X103262213Y-81480414D01*
X103070414Y-81672213D01*
X102919718Y-81897746D01*
X102815917Y-82148344D01*
X102763000Y-82414377D01*
X93934062Y-82414377D01*
X93889847Y-82192097D01*
X93797353Y-81968798D01*
X93663073Y-81767833D01*
X93492167Y-81596927D01*
X93291202Y-81462647D01*
X93067903Y-81370153D01*
X92830849Y-81323000D01*
X92589151Y-81323000D01*
X92352097Y-81370153D01*
X92128798Y-81462647D01*
X91927833Y-81596927D01*
X91756927Y-81767833D01*
X91622647Y-81968798D01*
X91530153Y-82192097D01*
X91483000Y-82429151D01*
X86317000Y-82429151D01*
X86269847Y-82192097D01*
X86177353Y-81968798D01*
X86043073Y-81767833D01*
X85872167Y-81596927D01*
X85671202Y-81462647D01*
X85447903Y-81370153D01*
X85210849Y-81323000D01*
X84969151Y-81323000D01*
X84732097Y-81370153D01*
X84508798Y-81462647D01*
X84307833Y-81596927D01*
X84136927Y-81767833D01*
X84002647Y-81968798D01*
X83910153Y-82192097D01*
X83863000Y-82429151D01*
X82944549Y-82429151D01*
X82944549Y-82050000D01*
X82934374Y-81946690D01*
X82904239Y-81847350D01*
X82855304Y-81755798D01*
X82789448Y-81675552D01*
X82709202Y-81609696D01*
X82617650Y-81560761D01*
X82518310Y-81530626D01*
X82415000Y-81520451D01*
X81415000Y-81520451D01*
X81311690Y-81530626D01*
X81212350Y-81560761D01*
X81120798Y-81609696D01*
X81040552Y-81675552D01*
X80974696Y-81755798D01*
X80925761Y-81847350D01*
X80895626Y-81946690D01*
X80885451Y-82050000D01*
X76850403Y-82050000D01*
X76620423Y-81954739D01*
X76209491Y-81873000D01*
X75790509Y-81873000D01*
X75379577Y-81954739D01*
X74992488Y-82115077D01*
X74644116Y-82347851D01*
X74347851Y-82644116D01*
X74115077Y-82992488D01*
X73954739Y-83379577D01*
X73873000Y-83790509D01*
X72575188Y-83790509D01*
X72620264Y-83330791D01*
X72814613Y-82687078D01*
X73130293Y-82093370D01*
X73555278Y-81572287D01*
X74073381Y-81143675D01*
X74664872Y-80823856D01*
X75307216Y-80625017D01*
X76001927Y-80552000D01*
X118455315Y-80552000D01*
X118340655Y-80691714D01*
G37*
%TD.AperFunction*%
%TD*%
M02*
