  0
SECTION
  2
HEADER
  9
$ANGBASE
  50
0.0
  9
$ANGDIR
  70
1
  9
$MEASUREMENT
  70
0
  0
ENDSEC
  0
SECTION
  2
TABLES
  0
TABLE
  2
LTYPE
  70
4
  0
LTYPE
  5
40F
  2
CONTINUOUS
  70
0
  3
Solid line
  72
65
  73
0
  40
0.0
  0
LTYPE
  5
410
  2
DASHDOT
 70
0
  3
Dash Dot ____ _ ____ _
 72
65
 73
4
 40
2.0
 49
1.25
 49
-0.25
 49
0.25
 49
-0.25
  0
LTYPE
  5
411
  2
DASHED
 70
0
  3
Dashed __ __ __ __ __
 72
65
 73
2
 40
0.75
 49
0.5
 49
-0.25
  0
LTYPE
  5
43B
  2
DOTTED
 70
0
  3
Dotted .  .  .  .
 72
65
 73
2
 40
0.2
 49
0.0
 49
-0.2
  0
ENDTAB
  0
TABLE
  2
STYLE
  70
4
  0
STYLE
  2
KICAD
  70
0
  40
0
  41
1
  42
1
  50
0
  71
0
  3
isocp.shx
  0
STYLE
  2
KICADB
  70
0
  40
0
  41
1
  42
1
  50
0
  71
0
  3
isocp.shx
  0
STYLE
  2
KICADI
  70
0
  40
0
  41
1
  42
1
  50
15
  71
0
  3
isocp.shx
  0
STYLE
  2
KICADBI
  70
0
  40
0
  41
1
  42
1
  50
15
  71
0
  3
isocp.shx
  0
ENDTAB
  0
TABLE
  2
LAYER
  70
1
  0
LAYER
  2
BLACK
  70
0
  62
7
  6
CONTINUOUS
  0
ENDTAB
  0
ENDSEC
  0
SECTION
  2
ENTITIES
0
LINE
8
BLACK
6
CONTINUOUS
10
5.1969
20
-3.14862
11
5.1969
21
-3.14862
0
LINE
8
BLACK
6
CONTINUOUS
10
5.1969
20
-3.14862
11
5.19704
21
-3.14864
0
LINE
8
BLACK
6
CONTINUOUS
10
5.19704
20
-3.14864
11
5.19723
21
-3.14869
0
LINE
8
BLACK
6
CONTINUOUS
10
5.19723
20
-3.14869
11
5.1974
21
-3.14878
0
LINE
8
BLACK
6
CONTINUOUS
10
5.1974
20
-3.14878
11
5.19755
21
-3.14891
0
LINE
8
BLACK
6
CONTINUOUS
10
5.19755
20
-3.14891
11
5.19767
21
-3.14906
0
LINE
8
BLACK
6
CONTINUOUS
10
5.19767
20
-3.14906
11
5.19776
21
-3.14923
0
LINE
8
BLACK
6
CONTINUOUS
10
5.19776
20
-3.14923
11
5.19782
21
-3.14941
0
LINE
8
BLACK
6
CONTINUOUS
10
5.19782
20
-3.14941
11
5.19784
21
-3.14961
0
LINE
8
BLACK
6
CONTINUOUS
10
5.19784
20
-3.14961
11
5.19783
21
-3.14965
0
LINE
8
BLACK
6
CONTINUOUS
10
5.19783
20
-3.14965
11
5.19783
21
-4.33066
0
LINE
8
BLACK
6
CONTINUOUS
10
5.19783
20
-4.33066
11
5.19784
21
-4.33071
0
LINE
8
BLACK
6
CONTINUOUS
10
5.19784
20
-4.33071
11
5.19783
21
-4.33076
0
LINE
8
BLACK
6
CONTINUOUS
10
5.19783
20
-4.33076
11
5.19782
21
-4.3309
0
LINE
8
BLACK
6
CONTINUOUS
10
5.19782
20
-4.3309
11
5.19776
21
-4.33109
0
LINE
8
BLACK
6
CONTINUOUS
10
5.19776
20
-4.33109
11
5.19767
21
-4.33126
0
LINE
8
BLACK
6
CONTINUOUS
10
5.19767
20
-4.33126
11
5.19755
21
-4.33141
0
LINE
8
BLACK
6
CONTINUOUS
10
5.19755
20
-4.33141
11
5.1974
21
-4.33153
0
LINE
8
BLACK
6
CONTINUOUS
10
5.1974
20
-4.33153
11
5.19723
21
-4.33162
0
LINE
8
BLACK
6
CONTINUOUS
10
5.19723
20
-4.33162
11
5.19704
21
-4.33168
0
LINE
8
BLACK
6
CONTINUOUS
10
5.19704
20
-4.33168
11
5.19685
21
-4.3317
0
LINE
8
BLACK
6
CONTINUOUS
10
5.19685
20
-4.3317
11
5.1968
21
-4.33169
0
LINE
8
BLACK
6
CONTINUOUS
10
5.1968
20
-4.33169
11
2.99208
21
-4.33169
0
LINE
8
BLACK
6
CONTINUOUS
10
2.99208
20
-4.33169
11
2.99203
21
-4.33169
0
LINE
8
BLACK
6
CONTINUOUS
10
2.99203
20
-4.33169
11
2.99203
21
-4.33169
0
LINE
8
BLACK
6
CONTINUOUS
10
2.99203
20
-4.33169
11
2.96144
21
-4.32869
0
LINE
8
BLACK
6
CONTINUOUS
10
2.96144
20
-4.32869
11
2.96143
21
-4.32869
0
LINE
8
BLACK
6
CONTINUOUS
10
2.96143
20
-4.32869
11
2.96134
21
-4.32867
0
LINE
8
BLACK
6
CONTINUOUS
10
2.96134
20
-4.32867
11
2.96125
21
-4.32865
0
LINE
8
BLACK
6
CONTINUOUS
10
2.96125
20
-4.32865
11
2.93183
21
-4.31977
0
LINE
8
BLACK
6
CONTINUOUS
10
2.93183
20
-4.31977
11
2.93182
21
-4.31976
0
LINE
8
BLACK
6
CONTINUOUS
10
2.93182
20
-4.31976
11
2.93173
21
-4.31973
0
LINE
8
BLACK
6
CONTINUOUS
10
2.93173
20
-4.31973
11
2.93165
21
-4.3197
0
LINE
8
BLACK
6
CONTINUOUS
10
2.93165
20
-4.3197
11
2.90452
21
-4.30527
0
LINE
8
BLACK
6
CONTINUOUS
10
2.90452
20
-4.30527
11
2.9045
21
-4.30526
0
LINE
8
BLACK
6
CONTINUOUS
10
2.9045
20
-4.30526
11
2.90443
21
-4.30521
0
LINE
8
BLACK
6
CONTINUOUS
10
2.90443
20
-4.30521
11
2.90436
21
-4.30516
0
LINE
8
BLACK
6
CONTINUOUS
10
2.90436
20
-4.30516
11
2.88054
21
-4.28573
0
LINE
8
BLACK
6
CONTINUOUS
10
2.88054
20
-4.28573
11
2.88053
21
-4.28573
0
LINE
8
BLACK
6
CONTINUOUS
10
2.88053
20
-4.28573
11
2.88047
21
-4.28566
0
LINE
8
BLACK
6
CONTINUOUS
10
2.88047
20
-4.28566
11
2.8804
21
-4.2856
0
LINE
8
BLACK
6
CONTINUOUS
10
2.8804
20
-4.2856
11
2.86081
21
-4.26192
0
LINE
8
BLACK
6
CONTINUOUS
10
2.86081
20
-4.26192
11
2.8608
21
-4.26191
0
LINE
8
BLACK
6
CONTINUOUS
10
2.8608
20
-4.26191
11
2.86075
21
-4.26183
0
LINE
8
BLACK
6
CONTINUOUS
10
2.86075
20
-4.26183
11
2.8607
21
-4.26176
0
LINE
8
BLACK
6
CONTINUOUS
10
2.8607
20
-4.26176
11
2.84608
21
-4.23472
0
LINE
8
BLACK
6
CONTINUOUS
10
2.84608
20
-4.23472
11
2.84608
21
-4.23471
0
LINE
8
BLACK
6
CONTINUOUS
10
2.84608
20
-4.23471
11
2.84604
21
-4.23463
0
LINE
8
BLACK
6
CONTINUOUS
10
2.84604
20
-4.23463
11
2.84601
21
-4.23455
0
LINE
8
BLACK
6
CONTINUOUS
10
2.84601
20
-4.23455
11
2.83692
21
-4.20519
0
LINE
8
BLACK
6
CONTINUOUS
10
2.83692
20
-4.20519
11
2.83692
21
-4.20517
0
LINE
8
BLACK
6
CONTINUOUS
10
2.83692
20
-4.20517
11
2.8369
21
-4.20508
0
LINE
8
BLACK
6
CONTINUOUS
10
2.8369
20
-4.20508
11
2.83688
21
-4.205
0
LINE
8
BLACK
6
CONTINUOUS
10
2.83688
20
-4.205
11
2.83367
21
-4.17443
0
LINE
8
BLACK
6
CONTINUOUS
10
2.83367
20
-4.17443
11
2.83367
21
-4.17442
0
LINE
8
BLACK
6
CONTINUOUS
10
2.83367
20
-4.17442
11
2.83367
21
-4.17437
0
LINE
8
BLACK
6
CONTINUOUS
10
2.83367
20
-4.17437
11
2.83367
21
-4.17433
0
LINE
8
BLACK
6
CONTINUOUS
10
2.83367
20
-4.17433
11
2.83366
21
-4.17328
0
LINE
8
BLACK
6
CONTINUOUS
10
2.83366
20
-4.17328
11
2.83366
21
-4.17328
0
LINE
8
BLACK
6
CONTINUOUS
10
2.83366
20
-4.17328
11
2.83366
21
-3.30704
0
LINE
8
BLACK
6
CONTINUOUS
10
2.83366
20
-3.30704
11
2.83367
21
-3.30699
0
LINE
8
BLACK
6
CONTINUOUS
10
2.83367
20
-3.30699
11
2.83367
21
-3.30699
0
LINE
8
BLACK
6
CONTINUOUS
10
2.83367
20
-3.30699
11
2.83667
21
-3.2764
0
LINE
8
BLACK
6
CONTINUOUS
10
2.83667
20
-3.2764
11
2.83667
21
-3.27639
0
LINE
8
BLACK
6
CONTINUOUS
10
2.83667
20
-3.27639
11
2.83669
21
-3.2763
0
LINE
8
BLACK
6
CONTINUOUS
10
2.83669
20
-3.2763
11
2.8367
21
-3.27621
0
LINE
8
BLACK
6
CONTINUOUS
10
2.8367
20
-3.27621
11
2.84559
21
-3.24679
0
LINE
8
BLACK
6
CONTINUOUS
10
2.84559
20
-3.24679
11
2.84559
21
-3.24678
0
LINE
8
BLACK
6
CONTINUOUS
10
2.84559
20
-3.24678
11
2.84563
21
-3.2467
0
LINE
8
BLACK
6
CONTINUOUS
10
2.84563
20
-3.2467
11
2.84566
21
-3.24661
0
LINE
8
BLACK
6
CONTINUOUS
10
2.84566
20
-3.24661
11
2.86009
21
-3.21948
0
LINE
8
BLACK
6
CONTINUOUS
10
2.86009
20
-3.21948
11
2.86009
21
-3.21948
0
LINE
8
BLACK
6
CONTINUOUS
10
2.86009
20
-3.21948
11
2.86009
21
-3.21948
0
LINE
8
BLACK
6
CONTINUOUS
10
2.86009
20
-3.21948
11
2.86009
21
-3.21946
0
LINE
8
BLACK
6
CONTINUOUS
10
2.86009
20
-3.21946
11
2.86014
21
-3.21939
0
LINE
8
BLACK
6
CONTINUOUS
10
2.86014
20
-3.21939
11
2.86019
21
-3.21932
0
LINE
8
BLACK
6
CONTINUOUS
10
2.86019
20
-3.21932
11
2.87962
21
-3.1955
0
LINE
8
BLACK
6
CONTINUOUS
10
2.87962
20
-3.1955
11
2.87962
21
-3.1955
0
LINE
8
BLACK
6
CONTINUOUS
10
2.87962
20
-3.1955
11
2.87962
21
-3.1955
0
LINE
8
BLACK
6
CONTINUOUS
10
2.87962
20
-3.1955
11
2.87963
21
-3.19549
0
LINE
8
BLACK
6
CONTINUOUS
10
2.87963
20
-3.19549
11
2.87969
21
-3.19543
0
LINE
8
BLACK
6
CONTINUOUS
10
2.87969
20
-3.19543
11
2.87976
21
-3.19536
0
LINE
8
BLACK
6
CONTINUOUS
10
2.87976
20
-3.19536
11
2.90344
21
-3.17577
0
LINE
8
BLACK
6
CONTINUOUS
10
2.90344
20
-3.17577
11
2.90344
21
-3.17577
0
LINE
8
BLACK
6
CONTINUOUS
10
2.90344
20
-3.17577
11
2.90344
21
-3.17577
0
LINE
8
BLACK
6
CONTINUOUS
10
2.90344
20
-3.17577
11
2.90345
21
-3.17576
0
LINE
8
BLACK
6
CONTINUOUS
10
2.90345
20
-3.17576
11
2.90352
21
-3.17571
0
LINE
8
BLACK
6
CONTINUOUS
10
2.90352
20
-3.17571
11
2.9036
21
-3.17566
0
LINE
8
BLACK
6
CONTINUOUS
10
2.9036
20
-3.17566
11
2.93063
21
-3.16105
0
LINE
8
BLACK
6
CONTINUOUS
10
2.93063
20
-3.16105
11
2.93064
21
-3.16104
0
LINE
8
BLACK
6
CONTINUOUS
10
2.93064
20
-3.16104
11
2.93073
21
-3.16101
0
LINE
8
BLACK
6
CONTINUOUS
10
2.93073
20
-3.16101
11
2.93081
21
-3.16097
0
LINE
8
BLACK
6
CONTINUOUS
10
2.93081
20
-3.16097
11
2.96017
21
-3.15188
0
LINE
8
BLACK
6
CONTINUOUS
10
2.96017
20
-3.15188
11
2.96018
21
-3.15188
0
LINE
8
BLACK
6
CONTINUOUS
10
2.96018
20
-3.15188
11
2.96027
21
-3.15186
0
LINE
8
BLACK
6
CONTINUOUS
10
2.96027
20
-3.15186
11
2.96036
21
-3.15184
0
LINE
8
BLACK
6
CONTINUOUS
10
2.96036
20
-3.15184
11
2.99092
21
-3.14863
0
LINE
8
BLACK
6
CONTINUOUS
10
2.99092
20
-3.14863
11
2.99094
21
-3.14863
0
LINE
8
BLACK
6
CONTINUOUS
10
2.99094
20
-3.14863
11
2.99098
21
-3.14863
0
LINE
8
BLACK
6
CONTINUOUS
10
2.99098
20
-3.14863
11
2.99102
21
-3.14863
0
LINE
8
BLACK
6
CONTINUOUS
10
2.99102
20
-3.14863
11
2.99208
21
-3.14862
0
LINE
8
BLACK
6
CONTINUOUS
10
2.99208
20
-3.14862
11
2.99208
21
-3.14862
0
LINE
8
BLACK
6
CONTINUOUS
10
2.99208
20
-3.14862
11
5.1968
21
-3.14862
0
LINE
8
BLACK
6
CONTINUOUS
10
5.1968
20
-3.14862
11
5.19685
21
-3.14862
0
LINE
8
BLACK
6
CONTINUOUS
10
5.19685
20
-3.14862
11
5.1969
21
-3.14862
0
LINE
8
BLACK
6
CONTINUOUS
10
2.99213
20
-3.15059
11
2.99108
21
-3.15059
0
LINE
8
BLACK
6
CONTINUOUS
10
2.99108
20
-3.15059
11
2.96066
21
-3.15379
0
LINE
8
BLACK
6
CONTINUOUS
10
2.96066
20
-3.15379
11
2.93148
21
-3.16282
0
LINE
8
BLACK
6
CONTINUOUS
10
2.93148
20
-3.16282
11
2.90462
21
-3.17735
0
LINE
8
BLACK
6
CONTINUOUS
10
2.90462
20
-3.17735
11
2.88108
21
-3.19682
0
LINE
8
BLACK
6
CONTINUOUS
10
2.88108
20
-3.19682
11
2.86178
21
-3.22049
0
LINE
8
BLACK
6
CONTINUOUS
10
2.86178
20
-3.22049
11
2.84744
21
-3.24745
0
LINE
8
BLACK
6
CONTINUOUS
10
2.84744
20
-3.24745
11
2.83861
21
-3.27669
0
LINE
8
BLACK
6
CONTINUOUS
10
2.83861
20
-3.27669
11
2.83563
21
-3.30713
0
LINE
8
BLACK
6
CONTINUOUS
10
2.83563
20
-3.30713
11
2.83563
21
-4.17322
0
LINE
8
BLACK
6
CONTINUOUS
10
2.83563
20
-4.17322
11
2.83563
21
-4.17427
0
LINE
8
BLACK
6
CONTINUOUS
10
2.83563
20
-4.17427
11
2.83883
21
-4.2047
0
LINE
8
BLACK
6
CONTINUOUS
10
2.83883
20
-4.2047
11
2.84786
21
-4.23387
0
LINE
8
BLACK
6
CONTINUOUS
10
2.84786
20
-4.23387
11
2.86239
21
-4.26074
0
LINE
8
BLACK
6
CONTINUOUS
10
2.86239
20
-4.26074
11
2.88186
21
-4.28427
0
LINE
8
BLACK
6
CONTINUOUS
10
2.88186
20
-4.28427
11
2.90552
21
-4.30357
0
LINE
8
BLACK
6
CONTINUOUS
10
2.90552
20
-4.30357
11
2.93249
21
-4.31791
0
LINE
8
BLACK
6
CONTINUOUS
10
2.93249
20
-4.31791
11
2.96173
21
-4.32674
0
LINE
8
BLACK
6
CONTINUOUS
10
2.96173
20
-4.32674
11
2.99217
21
-4.32972
0
LINE
8
BLACK
6
CONTINUOUS
10
2.99217
20
-4.32972
11
5.19587
21
-4.32972
0
LINE
8
BLACK
6
CONTINUOUS
10
5.19587
20
-4.32972
11
5.19587
21
-3.15059
0
LINE
8
BLACK
6
CONTINUOUS
10
5.19587
20
-3.15059
11
2.99213
21
-3.15059
  0
ENDSEC
  0
EOF
