M48
; DRILL file {KiCad 5.1.9+dfsg1-1} date Thu Oct 14 18:45:47 2021
; FORMAT={3:3/ absolute / metric / suppress leading zeros}
; #@! TF.CreationDate,2021-10-14T18:45:47+00:00
; #@! TF.GenerationSoftware,Kicad,Pcbnew,5.1.9+dfsg1-1
FMAT,2
METRIC,TZ
T1C0.400
T2C0.650
T3C0.700
T4C0.800
T5C0.900
T6C1.000
T7C1.300
T8C3.200
%
G90
G05
T1
X73152Y-87122
X73152Y-91821
X73152Y-95123
X73279Y-103124
X76708Y-91821
X76708Y-95123
X78359Y-103124
X78486Y-96393
X78867Y-81153
X79121Y-108839
X79502Y-104267
X79629Y-100330
X80772Y-84582
X81026Y-86995
X81788Y-101346
X81915Y-92202
X81915Y-94361
X82042Y-104267
X82677Y-98171
X83820Y-84328
X83947Y-87122
X84963Y-106934
X85598Y-95250
X86741Y-84074
X86995Y-104267
X87249Y-108839
X88392Y-87122
X90170Y-101854
X91440Y-92964
X91440Y-98044
X92202Y-85344
X92583Y-108839
X92710Y-103124
X93091Y-99949
X93345Y-95377
X93726Y-89408
X94488Y-81026
X95758Y-83947
X96774Y-103378
X99314Y-99949
X99695Y-105283
X100076Y-101854
X100203Y-97917
X100330Y-83947
X101981Y-81153
X104267Y-97790
X104394Y-90678
X104521Y-102362
X104775Y-93472
X105918Y-106934
X107315Y-102362
X107315Y-106934
X107569Y-93472
X109220Y-81153
X109220Y-84074
X110490Y-90805
X114000Y-92000
X115316Y-94869
X115951Y-88265
X116332Y-105156
X117856Y-85217
X117983Y-88392
X119507Y-91567
X121412Y-85090
X121412Y-87503
X122047Y-81153
X123190Y-99822
X123698Y-106172
X123952Y-81153
X124968Y-103124
X126111Y-91186
X128270Y-105029
X128397Y-108458
X130683Y-81153
X130683Y-99314
X130810Y-104140
X130810Y-108966
T2
X75000Y-88500
X75000Y-101250
X80010Y-95885
X81915Y-82550
X83185Y-106045
X86360Y-90805
X102235Y-90805
X113665Y-101600
X116840Y-93980
T3
X75000Y-90750
X80645Y-98425
X80645Y-106045
X82620Y-90750
X83185Y-95250
X83185Y-102870
X85090Y-82550
X92710Y-82550
X97790Y-91440
X97790Y-99060
X97790Y-100965
X97790Y-108585
X113665Y-99060
X121285Y-99060
T4
X78232Y-98592
X78232Y-101092
X80685Y-93250
X83185Y-93250
X87630Y-93980
X87630Y-96520
X87630Y-99060
X87630Y-101600
X88940Y-90805
X88940Y-107315
X90170Y-85725
X90170Y-87725
X91440Y-90805
X91440Y-104775
X91440Y-107315
X93940Y-104775
X95250Y-93980
X95250Y-96520
X95250Y-99060
X95250Y-101600
X97790Y-83820
X97790Y-87320
X102235Y-93980
X102235Y-96520
X102235Y-99060
X102235Y-101600
X104140Y-105410
X104140Y-107410
X109855Y-93980
X109855Y-96520
X109855Y-99060
X109855Y-101600
X113665Y-88265
X113665Y-90265
X113665Y-93980
X113665Y-96480
T5
X75000Y-93750
X75000Y-96290
T6
X104140Y-82550
X106680Y-82550
X109220Y-105410
X111760Y-82550
X111760Y-105410
X114300Y-82550
X114300Y-105410
T7
X119700Y-82500
X122900Y-91800
X124100Y-89100
X127000Y-82000
X130250Y-96750
X130250Y-101750
X130250Y-106750
X130900Y-86600
T8
X76000Y-84000
X76000Y-106000
X107000Y-89000
X120000Y-106000
T0
M30
