%TF.GenerationSoftware,KiCad,Pcbnew,5.1.9+dfsg1-1*%
%TF.CreationDate,2021-10-11T12:45:34+00:00*%
%TF.ProjectId,LiRX_tht,4c695258-5f74-4687-942e-6b696361645f,rev?*%
%TF.SameCoordinates,Original*%
%TF.FileFunction,Legend,Top*%
%TF.FilePolarity,Positive*%
%FSLAX46Y46*%
G04 Gerber Fmt 4.6, Leading zero omitted, Abs format (unit mm)*
G04 Created by KiCad (PCBNEW 5.1.9+dfsg1-1) date 2021-10-11 12:45:34*
%MOMM*%
%LPD*%
G01*
G04 APERTURE LIST*
%ADD10C,0.150000*%
%ADD11C,0.120000*%
G04 APERTURE END LIST*
D10*
X109347047Y-84653428D02*
X110108952Y-84653428D01*
X109728000Y-85034380D02*
X109728000Y-84272476D01*
D11*
%TO.C,U2*%
X103795000Y-102930000D02*
X105045000Y-102930000D01*
X103795000Y-92650000D02*
X103795000Y-102930000D01*
X108295000Y-92650000D02*
X103795000Y-92650000D01*
X108295000Y-102930000D02*
X108295000Y-92650000D01*
X107045000Y-102930000D02*
X108295000Y-102930000D01*
X105045000Y-102930000D02*
G75*
G02*
X107045000Y-102930000I1000000J0D01*
G01*
%TO.C,C11*%
X115390000Y-86710225D02*
X114890000Y-86710225D01*
X115140000Y-86460225D02*
X115140000Y-86960225D01*
X113949000Y-91866000D02*
X113381000Y-91866000D01*
X114183000Y-91826000D02*
X113147000Y-91826000D01*
X114342000Y-91786000D02*
X112988000Y-91786000D01*
X114470000Y-91746000D02*
X112860000Y-91746000D01*
X114580000Y-91706000D02*
X112750000Y-91706000D01*
X114676000Y-91666000D02*
X112654000Y-91666000D01*
X114763000Y-91626000D02*
X112567000Y-91626000D01*
X114843000Y-91586000D02*
X112487000Y-91586000D01*
X114916000Y-91546000D02*
X112414000Y-91546000D01*
X114984000Y-91506000D02*
X112346000Y-91506000D01*
X115048000Y-91466000D02*
X112282000Y-91466000D01*
X115108000Y-91426000D02*
X112222000Y-91426000D01*
X115165000Y-91386000D02*
X112165000Y-91386000D01*
X115219000Y-91346000D02*
X112111000Y-91346000D01*
X115270000Y-91306000D02*
X112060000Y-91306000D01*
X112625000Y-91266000D02*
X112012000Y-91266000D01*
X115318000Y-91266000D02*
X114705000Y-91266000D01*
X112625000Y-91226000D02*
X111966000Y-91226000D01*
X115364000Y-91226000D02*
X114705000Y-91226000D01*
X112625000Y-91186000D02*
X111922000Y-91186000D01*
X115408000Y-91186000D02*
X114705000Y-91186000D01*
X112625000Y-91146000D02*
X111880000Y-91146000D01*
X115450000Y-91146000D02*
X114705000Y-91146000D01*
X112625000Y-91106000D02*
X111839000Y-91106000D01*
X115491000Y-91106000D02*
X114705000Y-91106000D01*
X112625000Y-91066000D02*
X111801000Y-91066000D01*
X115529000Y-91066000D02*
X114705000Y-91066000D01*
X112625000Y-91026000D02*
X111764000Y-91026000D01*
X115566000Y-91026000D02*
X114705000Y-91026000D01*
X112625000Y-90986000D02*
X111728000Y-90986000D01*
X115602000Y-90986000D02*
X114705000Y-90986000D01*
X112625000Y-90946000D02*
X111694000Y-90946000D01*
X115636000Y-90946000D02*
X114705000Y-90946000D01*
X112625000Y-90906000D02*
X111661000Y-90906000D01*
X115669000Y-90906000D02*
X114705000Y-90906000D01*
X112625000Y-90866000D02*
X111630000Y-90866000D01*
X115700000Y-90866000D02*
X114705000Y-90866000D01*
X112625000Y-90826000D02*
X111600000Y-90826000D01*
X115730000Y-90826000D02*
X114705000Y-90826000D01*
X112625000Y-90786000D02*
X111570000Y-90786000D01*
X115760000Y-90786000D02*
X114705000Y-90786000D01*
X112625000Y-90746000D02*
X111543000Y-90746000D01*
X115787000Y-90746000D02*
X114705000Y-90746000D01*
X112625000Y-90706000D02*
X111516000Y-90706000D01*
X115814000Y-90706000D02*
X114705000Y-90706000D01*
X112625000Y-90666000D02*
X111490000Y-90666000D01*
X115840000Y-90666000D02*
X114705000Y-90666000D01*
X112625000Y-90626000D02*
X111465000Y-90626000D01*
X115865000Y-90626000D02*
X114705000Y-90626000D01*
X112625000Y-90586000D02*
X111441000Y-90586000D01*
X115889000Y-90586000D02*
X114705000Y-90586000D01*
X112625000Y-90546000D02*
X111418000Y-90546000D01*
X115912000Y-90546000D02*
X114705000Y-90546000D01*
X112625000Y-90506000D02*
X111397000Y-90506000D01*
X115933000Y-90506000D02*
X114705000Y-90506000D01*
X112625000Y-90466000D02*
X111375000Y-90466000D01*
X115955000Y-90466000D02*
X114705000Y-90466000D01*
X112625000Y-90426000D02*
X111355000Y-90426000D01*
X115975000Y-90426000D02*
X114705000Y-90426000D01*
X112625000Y-90386000D02*
X111336000Y-90386000D01*
X115994000Y-90386000D02*
X114705000Y-90386000D01*
X112625000Y-90346000D02*
X111317000Y-90346000D01*
X116013000Y-90346000D02*
X114705000Y-90346000D01*
X112625000Y-90306000D02*
X111300000Y-90306000D01*
X116030000Y-90306000D02*
X114705000Y-90306000D01*
X112625000Y-90266000D02*
X111283000Y-90266000D01*
X116047000Y-90266000D02*
X114705000Y-90266000D01*
X112625000Y-90226000D02*
X111267000Y-90226000D01*
X116063000Y-90226000D02*
X114705000Y-90226000D01*
X112625000Y-90186000D02*
X111251000Y-90186000D01*
X116079000Y-90186000D02*
X114705000Y-90186000D01*
X112625000Y-90146000D02*
X111237000Y-90146000D01*
X116093000Y-90146000D02*
X114705000Y-90146000D01*
X112625000Y-90106000D02*
X111223000Y-90106000D01*
X116107000Y-90106000D02*
X114705000Y-90106000D01*
X112625000Y-90066000D02*
X111210000Y-90066000D01*
X116120000Y-90066000D02*
X114705000Y-90066000D01*
X112625000Y-90026000D02*
X111197000Y-90026000D01*
X116133000Y-90026000D02*
X114705000Y-90026000D01*
X112625000Y-89986000D02*
X111185000Y-89986000D01*
X116145000Y-89986000D02*
X114705000Y-89986000D01*
X112625000Y-89945000D02*
X111174000Y-89945000D01*
X116156000Y-89945000D02*
X114705000Y-89945000D01*
X112625000Y-89905000D02*
X111164000Y-89905000D01*
X116166000Y-89905000D02*
X114705000Y-89905000D01*
X112625000Y-89865000D02*
X111154000Y-89865000D01*
X116176000Y-89865000D02*
X114705000Y-89865000D01*
X112625000Y-89825000D02*
X111145000Y-89825000D01*
X116185000Y-89825000D02*
X114705000Y-89825000D01*
X112625000Y-89785000D02*
X111137000Y-89785000D01*
X116193000Y-89785000D02*
X114705000Y-89785000D01*
X112625000Y-89745000D02*
X111129000Y-89745000D01*
X116201000Y-89745000D02*
X114705000Y-89745000D01*
X112625000Y-89705000D02*
X111122000Y-89705000D01*
X116208000Y-89705000D02*
X114705000Y-89705000D01*
X112625000Y-89665000D02*
X111115000Y-89665000D01*
X116215000Y-89665000D02*
X114705000Y-89665000D01*
X112625000Y-89625000D02*
X111109000Y-89625000D01*
X116221000Y-89625000D02*
X114705000Y-89625000D01*
X112625000Y-89585000D02*
X111104000Y-89585000D01*
X116226000Y-89585000D02*
X114705000Y-89585000D01*
X112625000Y-89545000D02*
X111100000Y-89545000D01*
X116230000Y-89545000D02*
X114705000Y-89545000D01*
X112625000Y-89505000D02*
X111096000Y-89505000D01*
X116234000Y-89505000D02*
X114705000Y-89505000D01*
X112625000Y-89465000D02*
X111092000Y-89465000D01*
X116238000Y-89465000D02*
X114705000Y-89465000D01*
X112625000Y-89425000D02*
X111089000Y-89425000D01*
X116241000Y-89425000D02*
X114705000Y-89425000D01*
X112625000Y-89385000D02*
X111087000Y-89385000D01*
X116243000Y-89385000D02*
X114705000Y-89385000D01*
X112625000Y-89345000D02*
X111086000Y-89345000D01*
X116244000Y-89345000D02*
X114705000Y-89345000D01*
X116245000Y-89305000D02*
X114705000Y-89305000D01*
X112625000Y-89305000D02*
X111085000Y-89305000D01*
X116245000Y-89265000D02*
X114705000Y-89265000D01*
X112625000Y-89265000D02*
X111085000Y-89265000D01*
X116285000Y-89265000D02*
G75*
G03*
X116285000Y-89265000I-2620000J0D01*
G01*
%TO.C,BT1*%
X115630000Y-83880000D02*
X115630000Y-81220000D01*
X113030000Y-83880000D02*
X115630000Y-83880000D01*
X113030000Y-81220000D02*
X115630000Y-81220000D01*
X113030000Y-83880000D02*
X113030000Y-81220000D01*
X111760000Y-83880000D02*
X110430000Y-83880000D01*
X110430000Y-83880000D02*
X110430000Y-82550000D01*
%TO.C,C9*%
X82564000Y-94170000D02*
X81306000Y-94170000D01*
X82564000Y-92330000D02*
X81306000Y-92330000D01*
%TO.C,C10*%
X90819000Y-108235000D02*
X89561000Y-108235000D01*
X90819000Y-106395000D02*
X89561000Y-106395000D01*
%TO.C,C12*%
X112745000Y-94601000D02*
X112745000Y-95859000D01*
X114585000Y-94601000D02*
X114585000Y-95859000D01*
%TO.C,J4*%
X126500000Y-79950000D02*
X127000000Y-80500000D01*
X127500000Y-79950000D02*
X126500000Y-79950000D01*
X127000000Y-80500000D02*
X127500000Y-79950000D01*
D10*
X132800000Y-92800000D02*
X125050000Y-92800000D01*
X120700000Y-92800000D02*
X118300000Y-92800000D01*
X118300000Y-92800000D02*
X118300000Y-81000000D01*
X118300000Y-81000000D02*
X118400000Y-81000000D01*
X121000000Y-81000000D02*
X124750000Y-81000000D01*
X129250000Y-81000000D02*
X132800000Y-81000000D01*
X132800000Y-81000000D02*
X132800000Y-92800000D01*
X132800000Y-89700000D02*
X136400000Y-89700000D01*
X136400000Y-89700000D02*
X136400000Y-83500000D01*
X136400000Y-83500000D02*
X132800000Y-83500000D01*
D11*
%TO.C,JP2*%
X115630000Y-106740000D02*
X115630000Y-104080000D01*
X110490000Y-106740000D02*
X115630000Y-106740000D01*
X110490000Y-104080000D02*
X115630000Y-104080000D01*
X110490000Y-106740000D02*
X110490000Y-104080000D01*
X109220000Y-106740000D02*
X107890000Y-106740000D01*
X107890000Y-106740000D02*
X107890000Y-105410000D01*
%TO.C,R1*%
X83185000Y-96190000D02*
X83185000Y-97140000D01*
X83185000Y-101930000D02*
X83185000Y-100980000D01*
X82265000Y-97140000D02*
X82265000Y-100980000D01*
X84105000Y-97140000D02*
X82265000Y-97140000D01*
X84105000Y-100980000D02*
X84105000Y-97140000D01*
X82265000Y-100980000D02*
X84105000Y-100980000D01*
%TO.C,R14*%
X86030000Y-82550000D02*
X86980000Y-82550000D01*
X91770000Y-82550000D02*
X90820000Y-82550000D01*
X86980000Y-83470000D02*
X90820000Y-83470000D01*
X86980000Y-81630000D02*
X86980000Y-83470000D01*
X90820000Y-81630000D02*
X86980000Y-81630000D01*
X90820000Y-83470000D02*
X90820000Y-81630000D01*
%TO.C,R15*%
X115555000Y-98140000D02*
X115555000Y-99980000D01*
X115555000Y-99980000D02*
X119395000Y-99980000D01*
X119395000Y-99980000D02*
X119395000Y-98140000D01*
X119395000Y-98140000D02*
X115555000Y-98140000D01*
X114605000Y-99060000D02*
X115555000Y-99060000D01*
X120345000Y-99060000D02*
X119395000Y-99060000D01*
%TO.C,R17*%
X80645000Y-99365000D02*
X80645000Y-100315000D01*
X80645000Y-105105000D02*
X80645000Y-104155000D01*
X79725000Y-100315000D02*
X79725000Y-104155000D01*
X81565000Y-100315000D02*
X79725000Y-100315000D01*
X81565000Y-104155000D02*
X81565000Y-100315000D01*
X79725000Y-104155000D02*
X81565000Y-104155000D01*
%TO.C,R18*%
X98710000Y-93330000D02*
X96870000Y-93330000D01*
X96870000Y-93330000D02*
X96870000Y-97170000D01*
X96870000Y-97170000D02*
X98710000Y-97170000D01*
X98710000Y-97170000D02*
X98710000Y-93330000D01*
X97790000Y-92380000D02*
X97790000Y-93330000D01*
X97790000Y-98120000D02*
X97790000Y-97170000D01*
%TO.C,R19*%
X98710000Y-102855000D02*
X96870000Y-102855000D01*
X96870000Y-102855000D02*
X96870000Y-106695000D01*
X96870000Y-106695000D02*
X98710000Y-106695000D01*
X98710000Y-106695000D02*
X98710000Y-102855000D01*
X97790000Y-101905000D02*
X97790000Y-102855000D01*
X97790000Y-107645000D02*
X97790000Y-106695000D01*
%TO.C,R20*%
X80730000Y-91670000D02*
X80730000Y-89830000D01*
X80730000Y-89830000D02*
X76890000Y-89830000D01*
X76890000Y-89830000D02*
X76890000Y-91670000D01*
X76890000Y-91670000D02*
X80730000Y-91670000D01*
X81680000Y-90750000D02*
X80730000Y-90750000D01*
X75940000Y-90750000D02*
X76890000Y-90750000D01*
%TO.C,RV3*%
X124130000Y-93630000D02*
X131870000Y-93630000D01*
X124130000Y-109870000D02*
X131870000Y-109870000D01*
X124130000Y-93630000D02*
X124130000Y-109870000D01*
X131870000Y-93630000D02*
X131870000Y-109870000D01*
X131870000Y-98130000D02*
X136870000Y-98130000D01*
X131870000Y-105370000D02*
X136870000Y-105370000D01*
X131870000Y-98130000D02*
X131870000Y-105370000D01*
X136870000Y-98130000D02*
X136870000Y-105370000D01*
X136870000Y-99630000D02*
X146870000Y-99630000D01*
X136870000Y-103870000D02*
X146870000Y-103870000D01*
X136870000Y-99630000D02*
X136870000Y-103870000D01*
X146870000Y-99630000D02*
X146870000Y-103870000D01*
%TO.C,J10*%
X102810000Y-81220000D02*
X102810000Y-83880000D01*
X105410000Y-81220000D02*
X102810000Y-81220000D01*
X105410000Y-83880000D02*
X102810000Y-83880000D01*
X105410000Y-81220000D02*
X105410000Y-83880000D01*
X106680000Y-81220000D02*
X108010000Y-81220000D01*
X108010000Y-81220000D02*
X108010000Y-82550000D01*
%TO.C,U3*%
X92440000Y-102930000D02*
X93690000Y-102930000D01*
X93690000Y-102930000D02*
X93690000Y-92650000D01*
X93690000Y-92650000D02*
X89190000Y-92650000D01*
X89190000Y-92650000D02*
X89190000Y-102930000D01*
X89190000Y-102930000D02*
X90440000Y-102930000D01*
X90440000Y-102930000D02*
G75*
G02*
X92440000Y-102930000I1000000J0D01*
G01*
%TO.C,C8*%
X100505000Y-81560302D02*
X99705000Y-81560302D01*
X100105000Y-81160302D02*
X100105000Y-81960302D01*
X98323000Y-89651000D02*
X97257000Y-89651000D01*
X98558000Y-89611000D02*
X97022000Y-89611000D01*
X98738000Y-89571000D02*
X96842000Y-89571000D01*
X98888000Y-89531000D02*
X96692000Y-89531000D01*
X99019000Y-89491000D02*
X96561000Y-89491000D01*
X99136000Y-89451000D02*
X96444000Y-89451000D01*
X99243000Y-89411000D02*
X96337000Y-89411000D01*
X99342000Y-89371000D02*
X96238000Y-89371000D01*
X99435000Y-89331000D02*
X96145000Y-89331000D01*
X99521000Y-89291000D02*
X96059000Y-89291000D01*
X99603000Y-89251000D02*
X95977000Y-89251000D01*
X99680000Y-89211000D02*
X95900000Y-89211000D01*
X99754000Y-89171000D02*
X95826000Y-89171000D01*
X99824000Y-89131000D02*
X95756000Y-89131000D01*
X99892000Y-89091000D02*
X95688000Y-89091000D01*
X99956000Y-89051000D02*
X95624000Y-89051000D01*
X100018000Y-89011000D02*
X95562000Y-89011000D01*
X100077000Y-88971000D02*
X95503000Y-88971000D01*
X100135000Y-88931000D02*
X95445000Y-88931000D01*
X100190000Y-88891000D02*
X95390000Y-88891000D01*
X100244000Y-88851000D02*
X95336000Y-88851000D01*
X100295000Y-88811000D02*
X95285000Y-88811000D01*
X100346000Y-88771000D02*
X95234000Y-88771000D01*
X100394000Y-88731000D02*
X95186000Y-88731000D01*
X100441000Y-88691000D02*
X95139000Y-88691000D01*
X100487000Y-88651000D02*
X95093000Y-88651000D01*
X100531000Y-88611000D02*
X95049000Y-88611000D01*
X100574000Y-88571000D02*
X95006000Y-88571000D01*
X100616000Y-88531000D02*
X94964000Y-88531000D01*
X100657000Y-88491000D02*
X94923000Y-88491000D01*
X100697000Y-88451000D02*
X94883000Y-88451000D01*
X100735000Y-88411000D02*
X94845000Y-88411000D01*
X100773000Y-88371000D02*
X94807000Y-88371000D01*
X96750000Y-88331000D02*
X94771000Y-88331000D01*
X100809000Y-88331000D02*
X98830000Y-88331000D01*
X96750000Y-88291000D02*
X94735000Y-88291000D01*
X100845000Y-88291000D02*
X98830000Y-88291000D01*
X96750000Y-88251000D02*
X94700000Y-88251000D01*
X100880000Y-88251000D02*
X98830000Y-88251000D01*
X96750000Y-88211000D02*
X94666000Y-88211000D01*
X100914000Y-88211000D02*
X98830000Y-88211000D01*
X96750000Y-88171000D02*
X94634000Y-88171000D01*
X100946000Y-88171000D02*
X98830000Y-88171000D01*
X96750000Y-88131000D02*
X94601000Y-88131000D01*
X100979000Y-88131000D02*
X98830000Y-88131000D01*
X96750000Y-88091000D02*
X94570000Y-88091000D01*
X101010000Y-88091000D02*
X98830000Y-88091000D01*
X96750000Y-88051000D02*
X94540000Y-88051000D01*
X101040000Y-88051000D02*
X98830000Y-88051000D01*
X96750000Y-88011000D02*
X94510000Y-88011000D01*
X101070000Y-88011000D02*
X98830000Y-88011000D01*
X96750000Y-87971000D02*
X94481000Y-87971000D01*
X101099000Y-87971000D02*
X98830000Y-87971000D01*
X96750000Y-87931000D02*
X94452000Y-87931000D01*
X101128000Y-87931000D02*
X98830000Y-87931000D01*
X96750000Y-87891000D02*
X94425000Y-87891000D01*
X101155000Y-87891000D02*
X98830000Y-87891000D01*
X96750000Y-87851000D02*
X94398000Y-87851000D01*
X101182000Y-87851000D02*
X98830000Y-87851000D01*
X96750000Y-87811000D02*
X94372000Y-87811000D01*
X101208000Y-87811000D02*
X98830000Y-87811000D01*
X96750000Y-87771000D02*
X94346000Y-87771000D01*
X101234000Y-87771000D02*
X98830000Y-87771000D01*
X96750000Y-87731000D02*
X94321000Y-87731000D01*
X101259000Y-87731000D02*
X98830000Y-87731000D01*
X96750000Y-87691000D02*
X94297000Y-87691000D01*
X101283000Y-87691000D02*
X98830000Y-87691000D01*
X96750000Y-87651000D02*
X94273000Y-87651000D01*
X101307000Y-87651000D02*
X98830000Y-87651000D01*
X96750000Y-87611000D02*
X94250000Y-87611000D01*
X101330000Y-87611000D02*
X98830000Y-87611000D01*
X96750000Y-87571000D02*
X94228000Y-87571000D01*
X101352000Y-87571000D02*
X98830000Y-87571000D01*
X96750000Y-87531000D02*
X94206000Y-87531000D01*
X101374000Y-87531000D02*
X98830000Y-87531000D01*
X96750000Y-87491000D02*
X94184000Y-87491000D01*
X101396000Y-87491000D02*
X98830000Y-87491000D01*
X96750000Y-87451000D02*
X94163000Y-87451000D01*
X101417000Y-87451000D02*
X98830000Y-87451000D01*
X96750000Y-87411000D02*
X94143000Y-87411000D01*
X101437000Y-87411000D02*
X98830000Y-87411000D01*
X96750000Y-87371000D02*
X94124000Y-87371000D01*
X101456000Y-87371000D02*
X98830000Y-87371000D01*
X96750000Y-87331000D02*
X94104000Y-87331000D01*
X101476000Y-87331000D02*
X98830000Y-87331000D01*
X96750000Y-87291000D02*
X94086000Y-87291000D01*
X101494000Y-87291000D02*
X98830000Y-87291000D01*
X96750000Y-87251000D02*
X94068000Y-87251000D01*
X101512000Y-87251000D02*
X98830000Y-87251000D01*
X96750000Y-87211000D02*
X94050000Y-87211000D01*
X101530000Y-87211000D02*
X98830000Y-87211000D01*
X96750000Y-87171000D02*
X94033000Y-87171000D01*
X101547000Y-87171000D02*
X98830000Y-87171000D01*
X96750000Y-87131000D02*
X94016000Y-87131000D01*
X101564000Y-87131000D02*
X98830000Y-87131000D01*
X96750000Y-87091000D02*
X94000000Y-87091000D01*
X101580000Y-87091000D02*
X98830000Y-87091000D01*
X96750000Y-87051000D02*
X93985000Y-87051000D01*
X101595000Y-87051000D02*
X98830000Y-87051000D01*
X96750000Y-87011000D02*
X93969000Y-87011000D01*
X101611000Y-87011000D02*
X98830000Y-87011000D01*
X96750000Y-86971000D02*
X93955000Y-86971000D01*
X101625000Y-86971000D02*
X98830000Y-86971000D01*
X96750000Y-86931000D02*
X93940000Y-86931000D01*
X101640000Y-86931000D02*
X98830000Y-86931000D01*
X96750000Y-86891000D02*
X93927000Y-86891000D01*
X101653000Y-86891000D02*
X98830000Y-86891000D01*
X96750000Y-86851000D02*
X93913000Y-86851000D01*
X101667000Y-86851000D02*
X98830000Y-86851000D01*
X96750000Y-86811000D02*
X93901000Y-86811000D01*
X101679000Y-86811000D02*
X98830000Y-86811000D01*
X96750000Y-86771000D02*
X93888000Y-86771000D01*
X101692000Y-86771000D02*
X98830000Y-86771000D01*
X96750000Y-86731000D02*
X93876000Y-86731000D01*
X101704000Y-86731000D02*
X98830000Y-86731000D01*
X96750000Y-86691000D02*
X93865000Y-86691000D01*
X101715000Y-86691000D02*
X98830000Y-86691000D01*
X96750000Y-86651000D02*
X93854000Y-86651000D01*
X101726000Y-86651000D02*
X98830000Y-86651000D01*
X96750000Y-86611000D02*
X93843000Y-86611000D01*
X101737000Y-86611000D02*
X98830000Y-86611000D01*
X96750000Y-86571000D02*
X93833000Y-86571000D01*
X101747000Y-86571000D02*
X98830000Y-86571000D01*
X96750000Y-86531000D02*
X93823000Y-86531000D01*
X101757000Y-86531000D02*
X98830000Y-86531000D01*
X96750000Y-86491000D02*
X93814000Y-86491000D01*
X101766000Y-86491000D02*
X98830000Y-86491000D01*
X96750000Y-86451000D02*
X93805000Y-86451000D01*
X101775000Y-86451000D02*
X98830000Y-86451000D01*
X96750000Y-86411000D02*
X93796000Y-86411000D01*
X101784000Y-86411000D02*
X98830000Y-86411000D01*
X96750000Y-86371000D02*
X93788000Y-86371000D01*
X101792000Y-86371000D02*
X98830000Y-86371000D01*
X96750000Y-86331000D02*
X93780000Y-86331000D01*
X101800000Y-86331000D02*
X98830000Y-86331000D01*
X96750000Y-86291000D02*
X93773000Y-86291000D01*
X101807000Y-86291000D02*
X98830000Y-86291000D01*
X101814000Y-86250000D02*
X93766000Y-86250000D01*
X101820000Y-86210000D02*
X93760000Y-86210000D01*
X101827000Y-86170000D02*
X93753000Y-86170000D01*
X101832000Y-86130000D02*
X93748000Y-86130000D01*
X101838000Y-86090000D02*
X93742000Y-86090000D01*
X101842000Y-86050000D02*
X93738000Y-86050000D01*
X101847000Y-86010000D02*
X93733000Y-86010000D01*
X101851000Y-85970000D02*
X93729000Y-85970000D01*
X101855000Y-85930000D02*
X93725000Y-85930000D01*
X101858000Y-85890000D02*
X93722000Y-85890000D01*
X101861000Y-85850000D02*
X93719000Y-85850000D01*
X101864000Y-85810000D02*
X93716000Y-85810000D01*
X101866000Y-85770000D02*
X93714000Y-85770000D01*
X101867000Y-85730000D02*
X93713000Y-85730000D01*
X101869000Y-85690000D02*
X93711000Y-85690000D01*
X101870000Y-85650000D02*
X93710000Y-85650000D01*
X101870000Y-85610000D02*
X93710000Y-85610000D01*
X101870000Y-85570000D02*
X93710000Y-85570000D01*
X101910000Y-85570000D02*
G75*
G03*
X101910000Y-85570000I-4120000J0D01*
G01*
%TO.C,C13*%
X106760000Y-106410000D02*
G75*
G03*
X106760000Y-106410000I-2620000J0D01*
G01*
X103100000Y-106410000D02*
X101560000Y-106410000D01*
X106720000Y-106410000D02*
X105180000Y-106410000D01*
X103100000Y-106450000D02*
X101560000Y-106450000D01*
X106720000Y-106450000D02*
X105180000Y-106450000D01*
X106719000Y-106490000D02*
X105180000Y-106490000D01*
X103100000Y-106490000D02*
X101561000Y-106490000D01*
X106718000Y-106530000D02*
X105180000Y-106530000D01*
X103100000Y-106530000D02*
X101562000Y-106530000D01*
X106716000Y-106570000D02*
X105180000Y-106570000D01*
X103100000Y-106570000D02*
X101564000Y-106570000D01*
X106713000Y-106610000D02*
X105180000Y-106610000D01*
X103100000Y-106610000D02*
X101567000Y-106610000D01*
X106709000Y-106650000D02*
X105180000Y-106650000D01*
X103100000Y-106650000D02*
X101571000Y-106650000D01*
X106705000Y-106690000D02*
X105180000Y-106690000D01*
X103100000Y-106690000D02*
X101575000Y-106690000D01*
X106701000Y-106730000D02*
X105180000Y-106730000D01*
X103100000Y-106730000D02*
X101579000Y-106730000D01*
X106696000Y-106770000D02*
X105180000Y-106770000D01*
X103100000Y-106770000D02*
X101584000Y-106770000D01*
X106690000Y-106810000D02*
X105180000Y-106810000D01*
X103100000Y-106810000D02*
X101590000Y-106810000D01*
X106683000Y-106850000D02*
X105180000Y-106850000D01*
X103100000Y-106850000D02*
X101597000Y-106850000D01*
X106676000Y-106890000D02*
X105180000Y-106890000D01*
X103100000Y-106890000D02*
X101604000Y-106890000D01*
X106668000Y-106930000D02*
X105180000Y-106930000D01*
X103100000Y-106930000D02*
X101612000Y-106930000D01*
X106660000Y-106970000D02*
X105180000Y-106970000D01*
X103100000Y-106970000D02*
X101620000Y-106970000D01*
X106651000Y-107010000D02*
X105180000Y-107010000D01*
X103100000Y-107010000D02*
X101629000Y-107010000D01*
X106641000Y-107050000D02*
X105180000Y-107050000D01*
X103100000Y-107050000D02*
X101639000Y-107050000D01*
X106631000Y-107090000D02*
X105180000Y-107090000D01*
X103100000Y-107090000D02*
X101649000Y-107090000D01*
X106620000Y-107131000D02*
X105180000Y-107131000D01*
X103100000Y-107131000D02*
X101660000Y-107131000D01*
X106608000Y-107171000D02*
X105180000Y-107171000D01*
X103100000Y-107171000D02*
X101672000Y-107171000D01*
X106595000Y-107211000D02*
X105180000Y-107211000D01*
X103100000Y-107211000D02*
X101685000Y-107211000D01*
X106582000Y-107251000D02*
X105180000Y-107251000D01*
X103100000Y-107251000D02*
X101698000Y-107251000D01*
X106568000Y-107291000D02*
X105180000Y-107291000D01*
X103100000Y-107291000D02*
X101712000Y-107291000D01*
X106554000Y-107331000D02*
X105180000Y-107331000D01*
X103100000Y-107331000D02*
X101726000Y-107331000D01*
X106538000Y-107371000D02*
X105180000Y-107371000D01*
X103100000Y-107371000D02*
X101742000Y-107371000D01*
X106522000Y-107411000D02*
X105180000Y-107411000D01*
X103100000Y-107411000D02*
X101758000Y-107411000D01*
X106505000Y-107451000D02*
X105180000Y-107451000D01*
X103100000Y-107451000D02*
X101775000Y-107451000D01*
X106488000Y-107491000D02*
X105180000Y-107491000D01*
X103100000Y-107491000D02*
X101792000Y-107491000D01*
X106469000Y-107531000D02*
X105180000Y-107531000D01*
X103100000Y-107531000D02*
X101811000Y-107531000D01*
X106450000Y-107571000D02*
X105180000Y-107571000D01*
X103100000Y-107571000D02*
X101830000Y-107571000D01*
X106430000Y-107611000D02*
X105180000Y-107611000D01*
X103100000Y-107611000D02*
X101850000Y-107611000D01*
X106408000Y-107651000D02*
X105180000Y-107651000D01*
X103100000Y-107651000D02*
X101872000Y-107651000D01*
X106387000Y-107691000D02*
X105180000Y-107691000D01*
X103100000Y-107691000D02*
X101893000Y-107691000D01*
X106364000Y-107731000D02*
X105180000Y-107731000D01*
X103100000Y-107731000D02*
X101916000Y-107731000D01*
X106340000Y-107771000D02*
X105180000Y-107771000D01*
X103100000Y-107771000D02*
X101940000Y-107771000D01*
X106315000Y-107811000D02*
X105180000Y-107811000D01*
X103100000Y-107811000D02*
X101965000Y-107811000D01*
X106289000Y-107851000D02*
X105180000Y-107851000D01*
X103100000Y-107851000D02*
X101991000Y-107851000D01*
X106262000Y-107891000D02*
X105180000Y-107891000D01*
X103100000Y-107891000D02*
X102018000Y-107891000D01*
X106235000Y-107931000D02*
X105180000Y-107931000D01*
X103100000Y-107931000D02*
X102045000Y-107931000D01*
X106205000Y-107971000D02*
X105180000Y-107971000D01*
X103100000Y-107971000D02*
X102075000Y-107971000D01*
X106175000Y-108011000D02*
X105180000Y-108011000D01*
X103100000Y-108011000D02*
X102105000Y-108011000D01*
X106144000Y-108051000D02*
X105180000Y-108051000D01*
X103100000Y-108051000D02*
X102136000Y-108051000D01*
X106111000Y-108091000D02*
X105180000Y-108091000D01*
X103100000Y-108091000D02*
X102169000Y-108091000D01*
X106077000Y-108131000D02*
X105180000Y-108131000D01*
X103100000Y-108131000D02*
X102203000Y-108131000D01*
X106041000Y-108171000D02*
X105180000Y-108171000D01*
X103100000Y-108171000D02*
X102239000Y-108171000D01*
X106004000Y-108211000D02*
X105180000Y-108211000D01*
X103100000Y-108211000D02*
X102276000Y-108211000D01*
X105966000Y-108251000D02*
X105180000Y-108251000D01*
X103100000Y-108251000D02*
X102314000Y-108251000D01*
X105925000Y-108291000D02*
X105180000Y-108291000D01*
X103100000Y-108291000D02*
X102355000Y-108291000D01*
X105883000Y-108331000D02*
X105180000Y-108331000D01*
X103100000Y-108331000D02*
X102397000Y-108331000D01*
X105839000Y-108371000D02*
X105180000Y-108371000D01*
X103100000Y-108371000D02*
X102441000Y-108371000D01*
X105793000Y-108411000D02*
X105180000Y-108411000D01*
X103100000Y-108411000D02*
X102487000Y-108411000D01*
X105745000Y-108451000D02*
X102535000Y-108451000D01*
X105694000Y-108491000D02*
X102586000Y-108491000D01*
X105640000Y-108531000D02*
X102640000Y-108531000D01*
X105583000Y-108571000D02*
X102697000Y-108571000D01*
X105523000Y-108611000D02*
X102757000Y-108611000D01*
X105459000Y-108651000D02*
X102821000Y-108651000D01*
X105391000Y-108691000D02*
X102889000Y-108691000D01*
X105318000Y-108731000D02*
X102962000Y-108731000D01*
X105238000Y-108771000D02*
X103042000Y-108771000D01*
X105151000Y-108811000D02*
X103129000Y-108811000D01*
X105055000Y-108851000D02*
X103225000Y-108851000D01*
X104945000Y-108891000D02*
X103335000Y-108891000D01*
X104817000Y-108931000D02*
X103463000Y-108931000D01*
X104658000Y-108971000D02*
X103622000Y-108971000D01*
X104424000Y-109011000D02*
X103856000Y-109011000D01*
X105615000Y-103605225D02*
X105615000Y-104105225D01*
X105865000Y-103855225D02*
X105365000Y-103855225D01*
%TO.C,C14*%
X91895000Y-84170225D02*
X91395000Y-84170225D01*
X91645000Y-83920225D02*
X91645000Y-84420225D01*
X90454000Y-89326000D02*
X89886000Y-89326000D01*
X90688000Y-89286000D02*
X89652000Y-89286000D01*
X90847000Y-89246000D02*
X89493000Y-89246000D01*
X90975000Y-89206000D02*
X89365000Y-89206000D01*
X91085000Y-89166000D02*
X89255000Y-89166000D01*
X91181000Y-89126000D02*
X89159000Y-89126000D01*
X91268000Y-89086000D02*
X89072000Y-89086000D01*
X91348000Y-89046000D02*
X88992000Y-89046000D01*
X91421000Y-89006000D02*
X88919000Y-89006000D01*
X91489000Y-88966000D02*
X88851000Y-88966000D01*
X91553000Y-88926000D02*
X88787000Y-88926000D01*
X91613000Y-88886000D02*
X88727000Y-88886000D01*
X91670000Y-88846000D02*
X88670000Y-88846000D01*
X91724000Y-88806000D02*
X88616000Y-88806000D01*
X91775000Y-88766000D02*
X88565000Y-88766000D01*
X89130000Y-88726000D02*
X88517000Y-88726000D01*
X91823000Y-88726000D02*
X91210000Y-88726000D01*
X89130000Y-88686000D02*
X88471000Y-88686000D01*
X91869000Y-88686000D02*
X91210000Y-88686000D01*
X89130000Y-88646000D02*
X88427000Y-88646000D01*
X91913000Y-88646000D02*
X91210000Y-88646000D01*
X89130000Y-88606000D02*
X88385000Y-88606000D01*
X91955000Y-88606000D02*
X91210000Y-88606000D01*
X89130000Y-88566000D02*
X88344000Y-88566000D01*
X91996000Y-88566000D02*
X91210000Y-88566000D01*
X89130000Y-88526000D02*
X88306000Y-88526000D01*
X92034000Y-88526000D02*
X91210000Y-88526000D01*
X89130000Y-88486000D02*
X88269000Y-88486000D01*
X92071000Y-88486000D02*
X91210000Y-88486000D01*
X89130000Y-88446000D02*
X88233000Y-88446000D01*
X92107000Y-88446000D02*
X91210000Y-88446000D01*
X89130000Y-88406000D02*
X88199000Y-88406000D01*
X92141000Y-88406000D02*
X91210000Y-88406000D01*
X89130000Y-88366000D02*
X88166000Y-88366000D01*
X92174000Y-88366000D02*
X91210000Y-88366000D01*
X89130000Y-88326000D02*
X88135000Y-88326000D01*
X92205000Y-88326000D02*
X91210000Y-88326000D01*
X89130000Y-88286000D02*
X88105000Y-88286000D01*
X92235000Y-88286000D02*
X91210000Y-88286000D01*
X89130000Y-88246000D02*
X88075000Y-88246000D01*
X92265000Y-88246000D02*
X91210000Y-88246000D01*
X89130000Y-88206000D02*
X88048000Y-88206000D01*
X92292000Y-88206000D02*
X91210000Y-88206000D01*
X89130000Y-88166000D02*
X88021000Y-88166000D01*
X92319000Y-88166000D02*
X91210000Y-88166000D01*
X89130000Y-88126000D02*
X87995000Y-88126000D01*
X92345000Y-88126000D02*
X91210000Y-88126000D01*
X89130000Y-88086000D02*
X87970000Y-88086000D01*
X92370000Y-88086000D02*
X91210000Y-88086000D01*
X89130000Y-88046000D02*
X87946000Y-88046000D01*
X92394000Y-88046000D02*
X91210000Y-88046000D01*
X89130000Y-88006000D02*
X87923000Y-88006000D01*
X92417000Y-88006000D02*
X91210000Y-88006000D01*
X89130000Y-87966000D02*
X87902000Y-87966000D01*
X92438000Y-87966000D02*
X91210000Y-87966000D01*
X89130000Y-87926000D02*
X87880000Y-87926000D01*
X92460000Y-87926000D02*
X91210000Y-87926000D01*
X89130000Y-87886000D02*
X87860000Y-87886000D01*
X92480000Y-87886000D02*
X91210000Y-87886000D01*
X89130000Y-87846000D02*
X87841000Y-87846000D01*
X92499000Y-87846000D02*
X91210000Y-87846000D01*
X89130000Y-87806000D02*
X87822000Y-87806000D01*
X92518000Y-87806000D02*
X91210000Y-87806000D01*
X89130000Y-87766000D02*
X87805000Y-87766000D01*
X92535000Y-87766000D02*
X91210000Y-87766000D01*
X89130000Y-87726000D02*
X87788000Y-87726000D01*
X92552000Y-87726000D02*
X91210000Y-87726000D01*
X89130000Y-87686000D02*
X87772000Y-87686000D01*
X92568000Y-87686000D02*
X91210000Y-87686000D01*
X89130000Y-87646000D02*
X87756000Y-87646000D01*
X92584000Y-87646000D02*
X91210000Y-87646000D01*
X89130000Y-87606000D02*
X87742000Y-87606000D01*
X92598000Y-87606000D02*
X91210000Y-87606000D01*
X89130000Y-87566000D02*
X87728000Y-87566000D01*
X92612000Y-87566000D02*
X91210000Y-87566000D01*
X89130000Y-87526000D02*
X87715000Y-87526000D01*
X92625000Y-87526000D02*
X91210000Y-87526000D01*
X89130000Y-87486000D02*
X87702000Y-87486000D01*
X92638000Y-87486000D02*
X91210000Y-87486000D01*
X89130000Y-87446000D02*
X87690000Y-87446000D01*
X92650000Y-87446000D02*
X91210000Y-87446000D01*
X89130000Y-87405000D02*
X87679000Y-87405000D01*
X92661000Y-87405000D02*
X91210000Y-87405000D01*
X89130000Y-87365000D02*
X87669000Y-87365000D01*
X92671000Y-87365000D02*
X91210000Y-87365000D01*
X89130000Y-87325000D02*
X87659000Y-87325000D01*
X92681000Y-87325000D02*
X91210000Y-87325000D01*
X89130000Y-87285000D02*
X87650000Y-87285000D01*
X92690000Y-87285000D02*
X91210000Y-87285000D01*
X89130000Y-87245000D02*
X87642000Y-87245000D01*
X92698000Y-87245000D02*
X91210000Y-87245000D01*
X89130000Y-87205000D02*
X87634000Y-87205000D01*
X92706000Y-87205000D02*
X91210000Y-87205000D01*
X89130000Y-87165000D02*
X87627000Y-87165000D01*
X92713000Y-87165000D02*
X91210000Y-87165000D01*
X89130000Y-87125000D02*
X87620000Y-87125000D01*
X92720000Y-87125000D02*
X91210000Y-87125000D01*
X89130000Y-87085000D02*
X87614000Y-87085000D01*
X92726000Y-87085000D02*
X91210000Y-87085000D01*
X89130000Y-87045000D02*
X87609000Y-87045000D01*
X92731000Y-87045000D02*
X91210000Y-87045000D01*
X89130000Y-87005000D02*
X87605000Y-87005000D01*
X92735000Y-87005000D02*
X91210000Y-87005000D01*
X89130000Y-86965000D02*
X87601000Y-86965000D01*
X92739000Y-86965000D02*
X91210000Y-86965000D01*
X89130000Y-86925000D02*
X87597000Y-86925000D01*
X92743000Y-86925000D02*
X91210000Y-86925000D01*
X89130000Y-86885000D02*
X87594000Y-86885000D01*
X92746000Y-86885000D02*
X91210000Y-86885000D01*
X89130000Y-86845000D02*
X87592000Y-86845000D01*
X92748000Y-86845000D02*
X91210000Y-86845000D01*
X89130000Y-86805000D02*
X87591000Y-86805000D01*
X92749000Y-86805000D02*
X91210000Y-86805000D01*
X92750000Y-86765000D02*
X91210000Y-86765000D01*
X89130000Y-86765000D02*
X87590000Y-86765000D01*
X92750000Y-86725000D02*
X91210000Y-86725000D01*
X89130000Y-86725000D02*
X87590000Y-86725000D01*
X92790000Y-86725000D02*
G75*
G03*
X92790000Y-86725000I-2620000J0D01*
G01*
%TO.C,C1*%
X89561000Y-89885000D02*
X90819000Y-89885000D01*
X89561000Y-91725000D02*
X90819000Y-91725000D01*
%TO.C,C2*%
X92061000Y-105695000D02*
X93319000Y-105695000D01*
X92061000Y-103855000D02*
X93319000Y-103855000D01*
%TO.C,Q3*%
X73790000Y-92460000D02*
X67630000Y-92460000D01*
X73790000Y-97580000D02*
X67630000Y-97580000D01*
X73790000Y-92460000D02*
X73790000Y-97580000D01*
X73790000Y-97980000D02*
X72670000Y-97980000D01*
X72670000Y-97980000D02*
X72670000Y-97580000D01*
X72670000Y-97580000D02*
X73790000Y-97580000D01*
X73790000Y-97580000D02*
X73790000Y-97980000D01*
X73920000Y-93750000D02*
X73790000Y-93750000D01*
X73790000Y-93750000D02*
X73790000Y-93750000D01*
X73790000Y-93750000D02*
X73920000Y-93750000D01*
X73920000Y-93750000D02*
X73920000Y-93750000D01*
X73920000Y-96290000D02*
X73790000Y-96290000D01*
X73790000Y-96290000D02*
X73790000Y-96290000D01*
X73790000Y-96290000D02*
X73920000Y-96290000D01*
X73920000Y-96290000D02*
X73920000Y-96290000D01*
X67630000Y-97580000D02*
G75*
G02*
X67630000Y-92460000I0J2560000D01*
G01*
%TO.C,C3*%
X77312000Y-100471000D02*
X77312000Y-99213000D01*
X79152000Y-100471000D02*
X79152000Y-99213000D01*
%TO.C,C11*%
D10*
X117197142Y-91447857D02*
X117244761Y-91495476D01*
X117292380Y-91638333D01*
X117292380Y-91733571D01*
X117244761Y-91876428D01*
X117149523Y-91971666D01*
X117054285Y-92019285D01*
X116863809Y-92066904D01*
X116720952Y-92066904D01*
X116530476Y-92019285D01*
X116435238Y-91971666D01*
X116340000Y-91876428D01*
X116292380Y-91733571D01*
X116292380Y-91638333D01*
X116340000Y-91495476D01*
X116387619Y-91447857D01*
X117292380Y-90495476D02*
X117292380Y-91066904D01*
X117292380Y-90781190D02*
X116292380Y-90781190D01*
X116435238Y-90876428D01*
X116530476Y-90971666D01*
X116578095Y-91066904D01*
X117292380Y-89543095D02*
X117292380Y-90114523D01*
X117292380Y-89828809D02*
X116292380Y-89828809D01*
X116435238Y-89924047D01*
X116530476Y-90019285D01*
X116578095Y-90114523D01*
%TO.C,C9*%
X80732333Y-95893142D02*
X80684714Y-95940761D01*
X80541857Y-95988380D01*
X80446619Y-95988380D01*
X80303761Y-95940761D01*
X80208523Y-95845523D01*
X80160904Y-95750285D01*
X80113285Y-95559809D01*
X80113285Y-95416952D01*
X80160904Y-95226476D01*
X80208523Y-95131238D01*
X80303761Y-95036000D01*
X80446619Y-94988380D01*
X80541857Y-94988380D01*
X80684714Y-95036000D01*
X80732333Y-95083619D01*
X81208523Y-95988380D02*
X81399000Y-95988380D01*
X81494238Y-95940761D01*
X81541857Y-95893142D01*
X81637095Y-95750285D01*
X81684714Y-95559809D01*
X81684714Y-95178857D01*
X81637095Y-95083619D01*
X81589476Y-95036000D01*
X81494238Y-94988380D01*
X81303761Y-94988380D01*
X81208523Y-95036000D01*
X81160904Y-95083619D01*
X81113285Y-95178857D01*
X81113285Y-95416952D01*
X81160904Y-95512190D01*
X81208523Y-95559809D01*
X81303761Y-95607428D01*
X81494238Y-95607428D01*
X81589476Y-95559809D01*
X81637095Y-95512190D01*
X81684714Y-95416952D01*
%TO.C,C10*%
X89547142Y-109722142D02*
X89499523Y-109769761D01*
X89356666Y-109817380D01*
X89261428Y-109817380D01*
X89118571Y-109769761D01*
X89023333Y-109674523D01*
X88975714Y-109579285D01*
X88928095Y-109388809D01*
X88928095Y-109245952D01*
X88975714Y-109055476D01*
X89023333Y-108960238D01*
X89118571Y-108865000D01*
X89261428Y-108817380D01*
X89356666Y-108817380D01*
X89499523Y-108865000D01*
X89547142Y-108912619D01*
X90499523Y-109817380D02*
X89928095Y-109817380D01*
X90213809Y-109817380D02*
X90213809Y-108817380D01*
X90118571Y-108960238D01*
X90023333Y-109055476D01*
X89928095Y-109103095D01*
X91118571Y-108817380D02*
X91213809Y-108817380D01*
X91309047Y-108865000D01*
X91356666Y-108912619D01*
X91404285Y-109007857D01*
X91451904Y-109198333D01*
X91451904Y-109436428D01*
X91404285Y-109626904D01*
X91356666Y-109722142D01*
X91309047Y-109769761D01*
X91213809Y-109817380D01*
X91118571Y-109817380D01*
X91023333Y-109769761D01*
X90975714Y-109722142D01*
X90928095Y-109626904D01*
X90880476Y-109436428D01*
X90880476Y-109198333D01*
X90928095Y-109007857D01*
X90975714Y-108912619D01*
X91023333Y-108865000D01*
X91118571Y-108817380D01*
%TO.C,C12*%
X115927142Y-97162857D02*
X115974761Y-97210476D01*
X116022380Y-97353333D01*
X116022380Y-97448571D01*
X115974761Y-97591428D01*
X115879523Y-97686666D01*
X115784285Y-97734285D01*
X115593809Y-97781904D01*
X115450952Y-97781904D01*
X115260476Y-97734285D01*
X115165238Y-97686666D01*
X115070000Y-97591428D01*
X115022380Y-97448571D01*
X115022380Y-97353333D01*
X115070000Y-97210476D01*
X115117619Y-97162857D01*
X116022380Y-96210476D02*
X116022380Y-96781904D01*
X116022380Y-96496190D02*
X115022380Y-96496190D01*
X115165238Y-96591428D01*
X115260476Y-96686666D01*
X115308095Y-96781904D01*
X115117619Y-95829523D02*
X115070000Y-95781904D01*
X115022380Y-95686666D01*
X115022380Y-95448571D01*
X115070000Y-95353333D01*
X115117619Y-95305714D01*
X115212857Y-95258095D01*
X115308095Y-95258095D01*
X115450952Y-95305714D01*
X116022380Y-95877142D01*
X116022380Y-95258095D01*
%TO.C,J4*%
X130166666Y-79152380D02*
X130166666Y-79866666D01*
X130119047Y-80009523D01*
X130023809Y-80104761D01*
X129880952Y-80152380D01*
X129785714Y-80152380D01*
X131071428Y-79485714D02*
X131071428Y-80152380D01*
X130833333Y-79104761D02*
X130595238Y-79819047D01*
X131214285Y-79819047D01*
%TO.C,JP2*%
X116546380Y-106751333D02*
X117260666Y-106751333D01*
X117403523Y-106798952D01*
X117498761Y-106894190D01*
X117546380Y-107037047D01*
X117546380Y-107132285D01*
X117546380Y-106275142D02*
X116546380Y-106275142D01*
X116546380Y-105894190D01*
X116594000Y-105798952D01*
X116641619Y-105751333D01*
X116736857Y-105703714D01*
X116879714Y-105703714D01*
X116974952Y-105751333D01*
X117022571Y-105798952D01*
X117070190Y-105894190D01*
X117070190Y-106275142D01*
X116641619Y-105322761D02*
X116594000Y-105275142D01*
X116546380Y-105179904D01*
X116546380Y-104941809D01*
X116594000Y-104846571D01*
X116641619Y-104798952D01*
X116736857Y-104751333D01*
X116832095Y-104751333D01*
X116974952Y-104798952D01*
X117546380Y-105370380D01*
X117546380Y-104751333D01*
%TO.C,R1*%
X85415380Y-101512666D02*
X84939190Y-101846000D01*
X85415380Y-102084095D02*
X84415380Y-102084095D01*
X84415380Y-101703142D01*
X84463000Y-101607904D01*
X84510619Y-101560285D01*
X84605857Y-101512666D01*
X84748714Y-101512666D01*
X84843952Y-101560285D01*
X84891571Y-101607904D01*
X84939190Y-101703142D01*
X84939190Y-102084095D01*
X85415380Y-100560285D02*
X85415380Y-101131714D01*
X85415380Y-100846000D02*
X84415380Y-100846000D01*
X84558238Y-100941238D01*
X84653476Y-101036476D01*
X84701095Y-101131714D01*
%TO.C,R14*%
X85717142Y-85034380D02*
X85383809Y-84558190D01*
X85145714Y-85034380D02*
X85145714Y-84034380D01*
X85526666Y-84034380D01*
X85621904Y-84082000D01*
X85669523Y-84129619D01*
X85717142Y-84224857D01*
X85717142Y-84367714D01*
X85669523Y-84462952D01*
X85621904Y-84510571D01*
X85526666Y-84558190D01*
X85145714Y-84558190D01*
X86669523Y-85034380D02*
X86098095Y-85034380D01*
X86383809Y-85034380D02*
X86383809Y-84034380D01*
X86288571Y-84177238D01*
X86193333Y-84272476D01*
X86098095Y-84320095D01*
X87526666Y-84367714D02*
X87526666Y-85034380D01*
X87288571Y-83986761D02*
X87050476Y-84701047D01*
X87669523Y-84701047D01*
%TO.C,R15*%
X116197142Y-101417380D02*
X115863809Y-100941190D01*
X115625714Y-101417380D02*
X115625714Y-100417380D01*
X116006666Y-100417380D01*
X116101904Y-100465000D01*
X116149523Y-100512619D01*
X116197142Y-100607857D01*
X116197142Y-100750714D01*
X116149523Y-100845952D01*
X116101904Y-100893571D01*
X116006666Y-100941190D01*
X115625714Y-100941190D01*
X117149523Y-101417380D02*
X116578095Y-101417380D01*
X116863809Y-101417380D02*
X116863809Y-100417380D01*
X116768571Y-100560238D01*
X116673333Y-100655476D01*
X116578095Y-100703095D01*
X118054285Y-100417380D02*
X117578095Y-100417380D01*
X117530476Y-100893571D01*
X117578095Y-100845952D01*
X117673333Y-100798333D01*
X117911428Y-100798333D01*
X118006666Y-100845952D01*
X118054285Y-100893571D01*
X118101904Y-100988809D01*
X118101904Y-101226904D01*
X118054285Y-101322142D01*
X118006666Y-101369761D01*
X117911428Y-101417380D01*
X117673333Y-101417380D01*
X117578095Y-101369761D01*
X117530476Y-101322142D01*
%TO.C,R17*%
X81097380Y-109227857D02*
X80621190Y-109561190D01*
X81097380Y-109799285D02*
X80097380Y-109799285D01*
X80097380Y-109418333D01*
X80145000Y-109323095D01*
X80192619Y-109275476D01*
X80287857Y-109227857D01*
X80430714Y-109227857D01*
X80525952Y-109275476D01*
X80573571Y-109323095D01*
X80621190Y-109418333D01*
X80621190Y-109799285D01*
X81097380Y-108275476D02*
X81097380Y-108846904D01*
X81097380Y-108561190D02*
X80097380Y-108561190D01*
X80240238Y-108656428D01*
X80335476Y-108751666D01*
X80383095Y-108846904D01*
X80097380Y-107942142D02*
X80097380Y-107275476D01*
X81097380Y-107704047D01*
%TO.C,R18*%
X100020380Y-97162857D02*
X99544190Y-97496190D01*
X100020380Y-97734285D02*
X99020380Y-97734285D01*
X99020380Y-97353333D01*
X99068000Y-97258095D01*
X99115619Y-97210476D01*
X99210857Y-97162857D01*
X99353714Y-97162857D01*
X99448952Y-97210476D01*
X99496571Y-97258095D01*
X99544190Y-97353333D01*
X99544190Y-97734285D01*
X100020380Y-96210476D02*
X100020380Y-96781904D01*
X100020380Y-96496190D02*
X99020380Y-96496190D01*
X99163238Y-96591428D01*
X99258476Y-96686666D01*
X99306095Y-96781904D01*
X99448952Y-95639047D02*
X99401333Y-95734285D01*
X99353714Y-95781904D01*
X99258476Y-95829523D01*
X99210857Y-95829523D01*
X99115619Y-95781904D01*
X99068000Y-95734285D01*
X99020380Y-95639047D01*
X99020380Y-95448571D01*
X99068000Y-95353333D01*
X99115619Y-95305714D01*
X99210857Y-95258095D01*
X99258476Y-95258095D01*
X99353714Y-95305714D01*
X99401333Y-95353333D01*
X99448952Y-95448571D01*
X99448952Y-95639047D01*
X99496571Y-95734285D01*
X99544190Y-95781904D01*
X99639428Y-95829523D01*
X99829904Y-95829523D01*
X99925142Y-95781904D01*
X99972761Y-95734285D01*
X100020380Y-95639047D01*
X100020380Y-95448571D01*
X99972761Y-95353333D01*
X99925142Y-95305714D01*
X99829904Y-95258095D01*
X99639428Y-95258095D01*
X99544190Y-95305714D01*
X99496571Y-95353333D01*
X99448952Y-95448571D01*
%TO.C,R19*%
X100162380Y-107957857D02*
X99686190Y-108291190D01*
X100162380Y-108529285D02*
X99162380Y-108529285D01*
X99162380Y-108148333D01*
X99210000Y-108053095D01*
X99257619Y-108005476D01*
X99352857Y-107957857D01*
X99495714Y-107957857D01*
X99590952Y-108005476D01*
X99638571Y-108053095D01*
X99686190Y-108148333D01*
X99686190Y-108529285D01*
X100162380Y-107005476D02*
X100162380Y-107576904D01*
X100162380Y-107291190D02*
X99162380Y-107291190D01*
X99305238Y-107386428D01*
X99400476Y-107481666D01*
X99448095Y-107576904D01*
X100162380Y-106529285D02*
X100162380Y-106338809D01*
X100114761Y-106243571D01*
X100067142Y-106195952D01*
X99924285Y-106100714D01*
X99733809Y-106053095D01*
X99352857Y-106053095D01*
X99257619Y-106100714D01*
X99210000Y-106148333D01*
X99162380Y-106243571D01*
X99162380Y-106434047D01*
X99210000Y-106529285D01*
X99257619Y-106576904D01*
X99352857Y-106624523D01*
X99590952Y-106624523D01*
X99686190Y-106576904D01*
X99733809Y-106529285D01*
X99781428Y-106434047D01*
X99781428Y-106243571D01*
X99733809Y-106148333D01*
X99686190Y-106100714D01*
X99590952Y-106053095D01*
%TO.C,R20*%
X78097142Y-89297380D02*
X77763809Y-88821190D01*
X77525714Y-89297380D02*
X77525714Y-88297380D01*
X77906666Y-88297380D01*
X78001904Y-88345000D01*
X78049523Y-88392619D01*
X78097142Y-88487857D01*
X78097142Y-88630714D01*
X78049523Y-88725952D01*
X78001904Y-88773571D01*
X77906666Y-88821190D01*
X77525714Y-88821190D01*
X78478095Y-88392619D02*
X78525714Y-88345000D01*
X78620952Y-88297380D01*
X78859047Y-88297380D01*
X78954285Y-88345000D01*
X79001904Y-88392619D01*
X79049523Y-88487857D01*
X79049523Y-88583095D01*
X79001904Y-88725952D01*
X78430476Y-89297380D01*
X79049523Y-89297380D01*
X79668571Y-88297380D02*
X79763809Y-88297380D01*
X79859047Y-88345000D01*
X79906666Y-88392619D01*
X79954285Y-88487857D01*
X80001904Y-88678333D01*
X80001904Y-88916428D01*
X79954285Y-89106904D01*
X79906666Y-89202142D01*
X79859047Y-89249761D01*
X79763809Y-89297380D01*
X79668571Y-89297380D01*
X79573333Y-89249761D01*
X79525714Y-89202142D01*
X79478095Y-89106904D01*
X79430476Y-88916428D01*
X79430476Y-88678333D01*
X79478095Y-88487857D01*
X79525714Y-88392619D01*
X79573333Y-88345000D01*
X79668571Y-88297380D01*
%TO.C,C8*%
X96623142Y-91352666D02*
X96670761Y-91400285D01*
X96718380Y-91543142D01*
X96718380Y-91638380D01*
X96670761Y-91781238D01*
X96575523Y-91876476D01*
X96480285Y-91924095D01*
X96289809Y-91971714D01*
X96146952Y-91971714D01*
X95956476Y-91924095D01*
X95861238Y-91876476D01*
X95766000Y-91781238D01*
X95718380Y-91638380D01*
X95718380Y-91543142D01*
X95766000Y-91400285D01*
X95813619Y-91352666D01*
X96146952Y-90781238D02*
X96099333Y-90876476D01*
X96051714Y-90924095D01*
X95956476Y-90971714D01*
X95908857Y-90971714D01*
X95813619Y-90924095D01*
X95766000Y-90876476D01*
X95718380Y-90781238D01*
X95718380Y-90590761D01*
X95766000Y-90495523D01*
X95813619Y-90447904D01*
X95908857Y-90400285D01*
X95956476Y-90400285D01*
X96051714Y-90447904D01*
X96099333Y-90495523D01*
X96146952Y-90590761D01*
X96146952Y-90781238D01*
X96194571Y-90876476D01*
X96242190Y-90924095D01*
X96337428Y-90971714D01*
X96527904Y-90971714D01*
X96623142Y-90924095D01*
X96670761Y-90876476D01*
X96718380Y-90781238D01*
X96718380Y-90590761D01*
X96670761Y-90495523D01*
X96623142Y-90447904D01*
X96527904Y-90400285D01*
X96337428Y-90400285D01*
X96242190Y-90447904D01*
X96194571Y-90495523D01*
X96146952Y-90590761D01*
%TO.C,C13*%
X108053142Y-106052857D02*
X108100761Y-106100476D01*
X108148380Y-106243333D01*
X108148380Y-106338571D01*
X108100761Y-106481428D01*
X108005523Y-106576666D01*
X107910285Y-106624285D01*
X107719809Y-106671904D01*
X107576952Y-106671904D01*
X107386476Y-106624285D01*
X107291238Y-106576666D01*
X107196000Y-106481428D01*
X107148380Y-106338571D01*
X107148380Y-106243333D01*
X107196000Y-106100476D01*
X107243619Y-106052857D01*
X108148380Y-105100476D02*
X108148380Y-105671904D01*
X108148380Y-105386190D02*
X107148380Y-105386190D01*
X107291238Y-105481428D01*
X107386476Y-105576666D01*
X107434095Y-105671904D01*
X107148380Y-104767142D02*
X107148380Y-104148095D01*
X107529333Y-104481428D01*
X107529333Y-104338571D01*
X107576952Y-104243333D01*
X107624571Y-104195714D01*
X107719809Y-104148095D01*
X107957904Y-104148095D01*
X108053142Y-104195714D01*
X108100761Y-104243333D01*
X108148380Y-104338571D01*
X108148380Y-104624285D01*
X108100761Y-104719523D01*
X108053142Y-104767142D01*
%TO.C,C14*%
X85447142Y-88272857D02*
X85494761Y-88320476D01*
X85542380Y-88463333D01*
X85542380Y-88558571D01*
X85494761Y-88701428D01*
X85399523Y-88796666D01*
X85304285Y-88844285D01*
X85113809Y-88891904D01*
X84970952Y-88891904D01*
X84780476Y-88844285D01*
X84685238Y-88796666D01*
X84590000Y-88701428D01*
X84542380Y-88558571D01*
X84542380Y-88463333D01*
X84590000Y-88320476D01*
X84637619Y-88272857D01*
X85542380Y-87320476D02*
X85542380Y-87891904D01*
X85542380Y-87606190D02*
X84542380Y-87606190D01*
X84685238Y-87701428D01*
X84780476Y-87796666D01*
X84828095Y-87891904D01*
X84875714Y-86463333D02*
X85542380Y-86463333D01*
X84494761Y-86701428D02*
X85209047Y-86939523D01*
X85209047Y-86320476D01*
%TO.C,C1*%
X90023333Y-89112142D02*
X89975714Y-89159761D01*
X89832857Y-89207380D01*
X89737619Y-89207380D01*
X89594761Y-89159761D01*
X89499523Y-89064523D01*
X89451904Y-88969285D01*
X89404285Y-88778809D01*
X89404285Y-88635952D01*
X89451904Y-88445476D01*
X89499523Y-88350238D01*
X89594761Y-88255000D01*
X89737619Y-88207380D01*
X89832857Y-88207380D01*
X89975714Y-88255000D01*
X90023333Y-88302619D01*
X90975714Y-89207380D02*
X90404285Y-89207380D01*
X90690000Y-89207380D02*
X90690000Y-88207380D01*
X90594761Y-88350238D01*
X90499523Y-88445476D01*
X90404285Y-88493095D01*
%TO.C,C2*%
X95718333Y-105132142D02*
X95670714Y-105179761D01*
X95527857Y-105227380D01*
X95432619Y-105227380D01*
X95289761Y-105179761D01*
X95194523Y-105084523D01*
X95146904Y-104989285D01*
X95099285Y-104798809D01*
X95099285Y-104655952D01*
X95146904Y-104465476D01*
X95194523Y-104370238D01*
X95289761Y-104275000D01*
X95432619Y-104227380D01*
X95527857Y-104227380D01*
X95670714Y-104275000D01*
X95718333Y-104322619D01*
X96099285Y-104322619D02*
X96146904Y-104275000D01*
X96242142Y-104227380D01*
X96480238Y-104227380D01*
X96575476Y-104275000D01*
X96623095Y-104322619D01*
X96670714Y-104417857D01*
X96670714Y-104513095D01*
X96623095Y-104655952D01*
X96051666Y-105227380D01*
X96670714Y-105227380D01*
%TO.C,Q3*%
X77507619Y-95115238D02*
X77460000Y-95210476D01*
X77364761Y-95305714D01*
X77221904Y-95448571D01*
X77174285Y-95543809D01*
X77174285Y-95639047D01*
X77412380Y-95591428D02*
X77364761Y-95686666D01*
X77269523Y-95781904D01*
X77079047Y-95829523D01*
X76745714Y-95829523D01*
X76555238Y-95781904D01*
X76460000Y-95686666D01*
X76412380Y-95591428D01*
X76412380Y-95400952D01*
X76460000Y-95305714D01*
X76555238Y-95210476D01*
X76745714Y-95162857D01*
X77079047Y-95162857D01*
X77269523Y-95210476D01*
X77364761Y-95305714D01*
X77412380Y-95400952D01*
X77412380Y-95591428D01*
X76412380Y-94829523D02*
X76412380Y-94210476D01*
X76793333Y-94543809D01*
X76793333Y-94400952D01*
X76840952Y-94305714D01*
X76888571Y-94258095D01*
X76983809Y-94210476D01*
X77221904Y-94210476D01*
X77317142Y-94258095D01*
X77364761Y-94305714D01*
X77412380Y-94400952D01*
X77412380Y-94686666D01*
X77364761Y-94781904D01*
X77317142Y-94829523D01*
%TO.C,C3*%
X76811142Y-99226666D02*
X76858761Y-99274285D01*
X76906380Y-99417142D01*
X76906380Y-99512380D01*
X76858761Y-99655238D01*
X76763523Y-99750476D01*
X76668285Y-99798095D01*
X76477809Y-99845714D01*
X76334952Y-99845714D01*
X76144476Y-99798095D01*
X76049238Y-99750476D01*
X75954000Y-99655238D01*
X75906380Y-99512380D01*
X75906380Y-99417142D01*
X75954000Y-99274285D01*
X76001619Y-99226666D01*
X75906380Y-98893333D02*
X75906380Y-98274285D01*
X76287333Y-98607619D01*
X76287333Y-98464761D01*
X76334952Y-98369523D01*
X76382571Y-98321904D01*
X76477809Y-98274285D01*
X76715904Y-98274285D01*
X76811142Y-98321904D01*
X76858761Y-98369523D01*
X76906380Y-98464761D01*
X76906380Y-98750476D01*
X76858761Y-98845714D01*
X76811142Y-98893333D01*
%TD*%
M02*
