M48
; DRILL file {KiCad 6.0.0~rc2+dfsg1-1} date Wed 05 Jan 2022 20:23:10 UTC
; FORMAT={3:3/ absolute / metric / suppress leading zeros}
; #@! TF.CreationDate,2022-01-05T20:23:10+00:00
; #@! TF.GenerationSoftware,Kicad,Pcbnew,6.0.0~rc2+dfsg1-1
; #@! TF.FileFunction,MixedPlating,1,2
FMAT,2
METRIC,TZ
; #@! TA.AperFunction,Plated,PTH,ViaDrill
T1C0.400
; #@! TA.AperFunction,Plated,PTH,ComponentDrill
T2C0.700
; #@! TA.AperFunction,Plated,PTH,ComponentDrill
T3C0.800
; #@! TA.AperFunction,Plated,PTH,ComponentDrill
T4C0.900
; #@! TA.AperFunction,Plated,PTH,ComponentDrill
T5C1.000
; #@! TA.AperFunction,Plated,PTH,ComponentDrill
T6C1.300
; #@! TA.AperFunction,Plated,PTH,ComponentDrill
T7C1.500
; #@! TA.AperFunction,NonPlated,NPTH,ComponentDrill
T8C3.200
%
G90
G05
T1
X63500Y-87630
X63500Y-102870
X69850Y-81280
X69850Y-107950
X113030Y-85090
X118110Y-85090
X119380Y-107950
X130810Y-82550
T2
X70525Y-99695
X72390Y-82550
X72390Y-90170
X74930Y-82550
X76240Y-93980
X78145Y-99695
X82550Y-82550
X82590Y-97790
X82590Y-105410
X83860Y-93980
X85090Y-82550
X85090Y-90170
X101600Y-87630
X107950Y-90170
X109220Y-87630
X111760Y-100330
X115570Y-90170
X119380Y-100330
T3
X68660Y-93980
X69910Y-93980
X72410Y-93980
X73660Y-93980
X74335Y-104180
X74335Y-106680
X78740Y-87630
X78740Y-89630
X86440Y-106680
X87685Y-93970
X87685Y-96510
X87685Y-99050
X87685Y-101590
X87690Y-106680
X90190Y-106680
X91440Y-106680
X91745Y-87626
X93345Y-84455
X93345Y-86955
X94945Y-83784
X95305Y-93970
X95305Y-96510
X95305Y-99050
X95305Y-101590
X100345Y-93970
X100345Y-96510
X100345Y-99050
X100345Y-101590
X101600Y-90170
X104100Y-90170
X107965Y-93970
X107965Y-96510
X107965Y-99050
X107965Y-101590
X114300Y-93980
X114300Y-95980
X115570Y-104140
X115570Y-106140
T4
X64770Y-93750
X64770Y-96290
X102680Y-83820
X102870Y-106045
X104680Y-83820
X104870Y-106045
X106680Y-83820
X106870Y-106045
T5
X112395Y-82550
X114935Y-82550
T6
X118975Y-82500
X122175Y-91800
X123375Y-89100
X124065Y-96750
X124065Y-101750
X124065Y-106750
X126275Y-82000
X129370Y-96680
X129370Y-101680
X129370Y-106680
X130175Y-86600
T7
X100580Y-83820
X100770Y-106045
X108780Y-83820
X108970Y-106045
T8
X66000Y-84000
X66000Y-106000
T0
M30
