%TF.GenerationSoftware,KiCad,Pcbnew,5.1.9+dfsg1-1*%
%TF.CreationDate,2021-10-11T12:45:34+00:00*%
%TF.ProjectId,LiRX_tht,4c695258-5f74-4687-942e-6b696361645f,rev?*%
%TF.SameCoordinates,Original*%
%TF.FileFunction,Legend,Bot*%
%TF.FilePolarity,Positive*%
%FSLAX46Y46*%
G04 Gerber Fmt 4.6, Leading zero omitted, Abs format (unit mm)*
G04 Created by KiCad (PCBNEW 5.1.9+dfsg1-1) date 2021-10-11 12:45:34*
%MOMM*%
%LPD*%
G01*
G04 APERTURE LIST*
%ADD10C,0.120000*%
%ADD11C,0.150000*%
G04 APERTURE END LIST*
D10*
%TO.C,J1*%
X101125000Y-90045000D02*
X103345000Y-90045000D01*
X101125000Y-90045000D02*
X101125000Y-90110000D01*
X103345000Y-90045000D02*
X103345000Y-90110000D01*
X101125000Y-90045000D02*
X101671529Y-90045000D01*
X102798471Y-90045000D02*
X103345000Y-90045000D01*
X101125000Y-90805000D02*
X101125000Y-91565000D01*
X101125000Y-91565000D02*
X102235000Y-91565000D01*
%TO.C,J2*%
X85250000Y-90045000D02*
X87470000Y-90045000D01*
X85250000Y-90045000D02*
X85250000Y-90110000D01*
X87470000Y-90045000D02*
X87470000Y-90110000D01*
X85250000Y-90045000D02*
X85796529Y-90045000D01*
X86923471Y-90045000D02*
X87470000Y-90045000D01*
X85250000Y-90805000D02*
X85250000Y-91565000D01*
X85250000Y-91565000D02*
X86360000Y-91565000D01*
%TO.C,J3*%
X73890000Y-89260000D02*
X75000000Y-89260000D01*
X73890000Y-88500000D02*
X73890000Y-89260000D01*
X75563471Y-87740000D02*
X76110000Y-87740000D01*
X73890000Y-87740000D02*
X74436529Y-87740000D01*
X76110000Y-87740000D02*
X76110000Y-87805000D01*
X73890000Y-87740000D02*
X73890000Y-87805000D01*
X73890000Y-87740000D02*
X76110000Y-87740000D01*
%TO.C,J5*%
X80805000Y-83310000D02*
X81915000Y-83310000D01*
X80805000Y-82550000D02*
X80805000Y-83310000D01*
X82478471Y-81790000D02*
X83025000Y-81790000D01*
X80805000Y-81790000D02*
X81351529Y-81790000D01*
X83025000Y-81790000D02*
X83025000Y-81855000D01*
X80805000Y-81790000D02*
X80805000Y-81855000D01*
X80805000Y-81790000D02*
X83025000Y-81790000D01*
%TO.C,J6*%
X78900000Y-95125000D02*
X81120000Y-95125000D01*
X78900000Y-95125000D02*
X78900000Y-95190000D01*
X81120000Y-95125000D02*
X81120000Y-95190000D01*
X78900000Y-95125000D02*
X79446529Y-95125000D01*
X80573471Y-95125000D02*
X81120000Y-95125000D01*
X78900000Y-95885000D02*
X78900000Y-96645000D01*
X78900000Y-96645000D02*
X80010000Y-96645000D01*
%TO.C,J7*%
X112555000Y-102360000D02*
X113665000Y-102360000D01*
X112555000Y-101600000D02*
X112555000Y-102360000D01*
X114228471Y-100840000D02*
X114775000Y-100840000D01*
X112555000Y-100840000D02*
X113101529Y-100840000D01*
X114775000Y-100840000D02*
X114775000Y-100905000D01*
X112555000Y-100840000D02*
X112555000Y-100905000D01*
X112555000Y-100840000D02*
X114775000Y-100840000D01*
%TO.C,J8*%
X73890000Y-100490000D02*
X76110000Y-100490000D01*
X73890000Y-100490000D02*
X73890000Y-100555000D01*
X76110000Y-100490000D02*
X76110000Y-100555000D01*
X73890000Y-100490000D02*
X74436529Y-100490000D01*
X75563471Y-100490000D02*
X76110000Y-100490000D01*
X73890000Y-101250000D02*
X73890000Y-102010000D01*
X73890000Y-102010000D02*
X75000000Y-102010000D01*
%TO.C,J9*%
X82425000Y-107155000D02*
X82425000Y-104935000D01*
X82425000Y-107155000D02*
X82490000Y-107155000D01*
X82425000Y-104935000D02*
X82490000Y-104935000D01*
X82425000Y-107155000D02*
X82425000Y-106608471D01*
X82425000Y-105481529D02*
X82425000Y-104935000D01*
X83185000Y-107155000D02*
X83945000Y-107155000D01*
X83945000Y-107155000D02*
X83945000Y-106045000D01*
%TO.C,J11*%
X115730000Y-94740000D02*
X116840000Y-94740000D01*
X115730000Y-93980000D02*
X115730000Y-94740000D01*
X117403471Y-93220000D02*
X117950000Y-93220000D01*
X115730000Y-93220000D02*
X116276529Y-93220000D01*
X117950000Y-93220000D02*
X117950000Y-93285000D01*
X115730000Y-93220000D02*
X115730000Y-93285000D01*
X115730000Y-93220000D02*
X117950000Y-93220000D01*
%TO.C,J2*%
D11*
X86693333Y-91952380D02*
X86693333Y-92666666D01*
X86740952Y-92809523D01*
X86836190Y-92904761D01*
X86979047Y-92952380D01*
X87074285Y-92952380D01*
X86264761Y-92047619D02*
X86217142Y-92000000D01*
X86121904Y-91952380D01*
X85883809Y-91952380D01*
X85788571Y-92000000D01*
X85740952Y-92047619D01*
X85693333Y-92142857D01*
X85693333Y-92238095D01*
X85740952Y-92380952D01*
X86312380Y-92952380D01*
X85693333Y-92952380D01*
%TD*%
M02*
