  0
SECTION
  2
HEADER
  9
$ANGBASE
  50
0.0
  9
$ANGDIR
  70
1
  9
$MEASUREMENT
  70
0
  0
ENDSEC
  0
SECTION
  2
TABLES
  0
TABLE
  2
LTYPE
  70
4
  0
LTYPE
  5
40F
  2
CONTINUOUS
  70
0
  3
Solid line
  72
65
  73
0
  40
0.0
  0
LTYPE
  5
410
  2
DASHDOT
 70
0
  3
Dash Dot ____ _ ____ _
 72
65
 73
4
 40
2.0
 49
1.25
 49
-0.25
 49
0.25
 49
-0.25
  0
LTYPE
  5
411
  2
DASHED
 70
0
  3
Dashed __ __ __ __ __
 72
65
 73
2
 40
0.75
 49
0.5
 49
-0.25
  0
LTYPE
  5
43B
  2
DOTTED
 70
0
  3
Dotted .  .  .  .
 72
65
 73
2
 40
0.2
 49
0.0
 49
-0.2
  0
ENDTAB
  0
TABLE
  2
STYLE
  70
4
  0
STYLE
  2
KICAD
  70
0
  40
0
  41
1
  42
1
  50
0
  71
0
  3
isocp.shx
  0
STYLE
  2
KICADB
  70
0
  40
0
  41
1
  42
1
  50
0
  71
0
  3
isocp.shx
  0
STYLE
  2
KICADI
  70
0
  40
0
  41
1
  42
1
  50
15
  71
0
  3
isocp.shx
  0
STYLE
  2
KICADBI
  70
0
  40
0
  41
1
  42
1
  50
15
  71
0
  3
isocp.shx
  0
ENDTAB
  0
TABLE
  2
LAYER
  70
1
  0
LAYER
  2
BLACK
  70
0
  62
7
  6
CONTINUOUS
  0
ENDTAB
  0
ENDSEC
  0
SECTION
  2
ENTITIES
0
LINE
8
BLACK
6
CONTINUOUS
10
3.30538
20
-4.17267
11
3.30583
21
-4.17281
0
LINE
8
BLACK
6
CONTINUOUS
10
3.30583
20
-4.17281
11
3.30624
21
-4.17303
0
LINE
8
BLACK
6
CONTINUOUS
10
3.30624
20
-4.17303
11
3.3066
21
-4.17332
0
LINE
8
BLACK
6
CONTINUOUS
10
3.3066
20
-4.17332
11
3.30689
21
-4.17368
0
LINE
8
BLACK
6
CONTINUOUS
10
3.30689
20
-4.17368
11
3.30711
21
-4.17409
0
LINE
8
BLACK
6
CONTINUOUS
10
3.30711
20
-4.17409
11
3.30725
21
-4.17454
0
LINE
8
BLACK
6
CONTINUOUS
10
3.30725
20
-4.17454
11
3.30728
21
-4.17488
0
LINE
8
BLACK
6
CONTINUOUS
10
3.30728
20
-4.17488
11
3.30728
21
-4.21858
0
LINE
8
BLACK
6
CONTINUOUS
10
3.30728
20
-4.21858
11
3.30729
21
-4.2187
0
LINE
8
BLACK
6
CONTINUOUS
10
3.30729
20
-4.2187
11
3.30725
21
-4.21916
0
LINE
8
BLACK
6
CONTINUOUS
10
3.30725
20
-4.21916
11
3.30711
21
-4.21961
0
LINE
8
BLACK
6
CONTINUOUS
10
3.30711
20
-4.21961
11
3.30689
21
-4.22002
0
LINE
8
BLACK
6
CONTINUOUS
10
3.30689
20
-4.22002
11
3.3066
21
-4.22038
0
LINE
8
BLACK
6
CONTINUOUS
10
3.3066
20
-4.22038
11
3.30624
21
-4.22067
0
LINE
8
BLACK
6
CONTINUOUS
10
3.30624
20
-4.22067
11
3.30583
21
-4.22089
0
LINE
8
BLACK
6
CONTINUOUS
10
3.30583
20
-4.22089
11
3.30538
21
-4.22103
0
LINE
8
BLACK
6
CONTINUOUS
10
3.30538
20
-4.22103
11
3.30504
21
-4.22106
0
LINE
8
BLACK
6
CONTINUOUS
10
3.30504
20
-4.22106
11
3.30504
21
-4.22106
0
LINE
8
BLACK
6
CONTINUOUS
10
3.30504
20
-4.22106
11
3.30492
21
-4.22107
0
LINE
8
BLACK
6
CONTINUOUS
10
3.30492
20
-4.22107
11
3.30481
21
-4.22106
0
LINE
8
BLACK
6
CONTINUOUS
10
3.30481
20
-4.22106
11
3.27488
21
-4.22106
0
LINE
8
BLACK
6
CONTINUOUS
10
3.27488
20
-4.22106
11
3.27454
21
-4.22103
0
LINE
8
BLACK
6
CONTINUOUS
10
3.27454
20
-4.22103
11
3.27409
21
-4.22089
0
LINE
8
BLACK
6
CONTINUOUS
10
3.27409
20
-4.22089
11
3.27368
21
-4.22067
0
LINE
8
BLACK
6
CONTINUOUS
10
3.27368
20
-4.22067
11
3.27332
21
-4.22038
0
LINE
8
BLACK
6
CONTINUOUS
10
3.27332
20
-4.22038
11
3.27303
21
-4.22002
0
LINE
8
BLACK
6
CONTINUOUS
10
3.27303
20
-4.22002
11
3.27281
21
-4.21961
0
LINE
8
BLACK
6
CONTINUOUS
10
3.27281
20
-4.21961
11
3.27267
21
-4.21916
0
LINE
8
BLACK
6
CONTINUOUS
10
3.27267
20
-4.21916
11
3.27263
21
-4.2187
0
LINE
8
BLACK
6
CONTINUOUS
10
3.27263
20
-4.2187
11
3.27267
21
-4.21824
0
LINE
8
BLACK
6
CONTINUOUS
10
3.27267
20
-4.21824
11
3.27281
21
-4.21779
0
LINE
8
BLACK
6
CONTINUOUS
10
3.27281
20
-4.21779
11
3.27303
21
-4.21738
0
LINE
8
BLACK
6
CONTINUOUS
10
3.27303
20
-4.21738
11
3.27332
21
-4.21702
0
LINE
8
BLACK
6
CONTINUOUS
10
3.27332
20
-4.21702
11
3.27368
21
-4.21673
0
LINE
8
BLACK
6
CONTINUOUS
10
3.27368
20
-4.21673
11
3.27409
21
-4.21651
0
LINE
8
BLACK
6
CONTINUOUS
10
3.27409
20
-4.21651
11
3.27454
21
-4.21637
0
LINE
8
BLACK
6
CONTINUOUS
10
3.27454
20
-4.21637
11
3.27488
21
-4.21634
0
LINE
8
BLACK
6
CONTINUOUS
10
3.27488
20
-4.21634
11
3.30256
21
-4.21634
0
LINE
8
BLACK
6
CONTINUOUS
10
3.30256
20
-4.21634
11
3.30256
21
-4.17488
0
LINE
8
BLACK
6
CONTINUOUS
10
3.30256
20
-4.17488
11
3.30259
21
-4.17454
0
LINE
8
BLACK
6
CONTINUOUS
10
3.30259
20
-4.17454
11
3.30273
21
-4.17409
0
LINE
8
BLACK
6
CONTINUOUS
10
3.30273
20
-4.17409
11
3.30295
21
-4.17368
0
LINE
8
BLACK
6
CONTINUOUS
10
3.30295
20
-4.17368
11
3.30324
21
-4.17332
0
LINE
8
BLACK
6
CONTINUOUS
10
3.30324
20
-4.17332
11
3.3036
21
-4.17303
0
LINE
8
BLACK
6
CONTINUOUS
10
3.3036
20
-4.17303
11
3.30401
21
-4.17281
0
LINE
8
BLACK
6
CONTINUOUS
10
3.30401
20
-4.17281
11
3.30446
21
-4.17267
0
LINE
8
BLACK
6
CONTINUOUS
10
3.30446
20
-4.17267
11
3.30492
21
-4.17263
0
LINE
8
BLACK
6
CONTINUOUS
10
3.30492
20
-4.17263
11
3.30538
21
-4.17267
0
LINE
8
BLACK
6
CONTINUOUS
10
3.24775
20
-4.21634
11
3.2481
21
-4.21637
0
LINE
8
BLACK
6
CONTINUOUS
10
3.2481
20
-4.21637
11
3.24855
21
-4.21651
0
LINE
8
BLACK
6
CONTINUOUS
10
3.24855
20
-4.21651
11
3.24896
21
-4.21673
0
LINE
8
BLACK
6
CONTINUOUS
10
3.24896
20
-4.21673
11
3.24932
21
-4.21702
0
LINE
8
BLACK
6
CONTINUOUS
10
3.24932
20
-4.21702
11
3.24961
21
-4.21738
0
LINE
8
BLACK
6
CONTINUOUS
10
3.24961
20
-4.21738
11
3.24983
21
-4.21779
0
LINE
8
BLACK
6
CONTINUOUS
10
3.24983
20
-4.21779
11
3.24997
21
-4.21824
0
LINE
8
BLACK
6
CONTINUOUS
10
3.24997
20
-4.21824
11
3.25001
21
-4.2187
0
LINE
8
BLACK
6
CONTINUOUS
10
3.25001
20
-4.2187
11
3.24997
21
-4.21916
0
LINE
8
BLACK
6
CONTINUOUS
10
3.24997
20
-4.21916
11
3.24983
21
-4.21961
0
LINE
8
BLACK
6
CONTINUOUS
10
3.24983
20
-4.21961
11
3.24961
21
-4.22002
0
LINE
8
BLACK
6
CONTINUOUS
10
3.24961
20
-4.22002
11
3.24932
21
-4.22038
0
LINE
8
BLACK
6
CONTINUOUS
10
3.24932
20
-4.22038
11
3.24896
21
-4.22067
0
LINE
8
BLACK
6
CONTINUOUS
10
3.24896
20
-4.22067
11
3.24855
21
-4.22089
0
LINE
8
BLACK
6
CONTINUOUS
10
3.24855
20
-4.22089
11
3.2481
21
-4.22103
0
LINE
8
BLACK
6
CONTINUOUS
10
3.2481
20
-4.22103
11
3.24775
21
-4.22106
0
LINE
8
BLACK
6
CONTINUOUS
10
3.24775
20
-4.22106
11
3.24519
21
-4.22106
0
LINE
8
BLACK
6
CONTINUOUS
10
3.24519
20
-4.22106
11
3.24508
21
-4.22107
0
LINE
8
BLACK
6
CONTINUOUS
10
3.24508
20
-4.22107
11
3.24462
21
-4.22103
0
LINE
8
BLACK
6
CONTINUOUS
10
3.24462
20
-4.22103
11
3.24417
21
-4.22089
0
LINE
8
BLACK
6
CONTINUOUS
10
3.24417
20
-4.22089
11
3.24376
21
-4.22067
0
LINE
8
BLACK
6
CONTINUOUS
10
3.24376
20
-4.22067
11
3.2434
21
-4.22038
0
LINE
8
BLACK
6
CONTINUOUS
10
3.2434
20
-4.22038
11
3.24311
21
-4.22002
0
LINE
8
BLACK
6
CONTINUOUS
10
3.24311
20
-4.22002
11
3.24289
21
-4.21961
0
LINE
8
BLACK
6
CONTINUOUS
10
3.24289
20
-4.21961
11
3.24275
21
-4.21916
0
LINE
8
BLACK
6
CONTINUOUS
10
3.24275
20
-4.21916
11
3.24271
21
-4.2187
0
LINE
8
BLACK
6
CONTINUOUS
10
3.24271
20
-4.2187
11
3.24272
21
-4.21858
0
LINE
8
BLACK
6
CONTINUOUS
10
3.24272
20
-4.21858
11
3.24272
21
-4.15293
0
LINE
8
BLACK
6
CONTINUOUS
10
3.24272
20
-4.15293
11
3.24272
21
-4.15293
0
LINE
8
BLACK
6
CONTINUOUS
10
3.24272
20
-4.15293
11
3.24272
21
-4.13142
0
LINE
8
BLACK
6
CONTINUOUS
10
3.24272
20
-4.13142
11
3.24271
21
-4.1313
0
LINE
8
BLACK
6
CONTINUOUS
10
3.24271
20
-4.1313
11
3.24275
21
-4.13084
0
LINE
8
BLACK
6
CONTINUOUS
10
3.24275
20
-4.13084
11
3.24289
21
-4.13039
0
LINE
8
BLACK
6
CONTINUOUS
10
3.24289
20
-4.13039
11
3.24311
21
-4.12998
0
LINE
8
BLACK
6
CONTINUOUS
10
3.24311
20
-4.12998
11
3.2434
21
-4.12962
0
LINE
8
BLACK
6
CONTINUOUS
10
3.2434
20
-4.12962
11
3.24376
21
-4.12933
0
LINE
8
BLACK
6
CONTINUOUS
10
3.24376
20
-4.12933
11
3.24417
21
-4.12911
0
LINE
8
BLACK
6
CONTINUOUS
10
3.24417
20
-4.12911
11
3.24462
21
-4.12897
0
LINE
8
BLACK
6
CONTINUOUS
10
3.24462
20
-4.12897
11
3.24496
21
-4.12894
0
LINE
8
BLACK
6
CONTINUOUS
10
3.24496
20
-4.12894
11
3.24496
21
-4.12894
0
LINE
8
BLACK
6
CONTINUOUS
10
3.24496
20
-4.12894
11
3.24508
21
-4.12893
0
LINE
8
BLACK
6
CONTINUOUS
10
3.24508
20
-4.12893
11
3.24519
21
-4.12894
0
LINE
8
BLACK
6
CONTINUOUS
10
3.24519
20
-4.12894
11
3.24775
21
-4.12894
0
LINE
8
BLACK
6
CONTINUOUS
10
3.24775
20
-4.12894
11
3.2481
21
-4.12897
0
LINE
8
BLACK
6
CONTINUOUS
10
3.2481
20
-4.12897
11
3.24855
21
-4.12911
0
LINE
8
BLACK
6
CONTINUOUS
10
3.24855
20
-4.12911
11
3.24896
21
-4.12933
0
LINE
8
BLACK
6
CONTINUOUS
10
3.24896
20
-4.12933
11
3.24932
21
-4.12962
0
LINE
8
BLACK
6
CONTINUOUS
10
3.24932
20
-4.12962
11
3.24961
21
-4.12998
0
LINE
8
BLACK
6
CONTINUOUS
10
3.24961
20
-4.12998
11
3.24983
21
-4.13039
0
LINE
8
BLACK
6
CONTINUOUS
10
3.24983
20
-4.13039
11
3.24997
21
-4.13084
0
LINE
8
BLACK
6
CONTINUOUS
10
3.24997
20
-4.13084
11
3.25001
21
-4.1313
0
LINE
8
BLACK
6
CONTINUOUS
10
3.25001
20
-4.1313
11
3.24997
21
-4.13176
0
LINE
8
BLACK
6
CONTINUOUS
10
3.24997
20
-4.13176
11
3.24983
21
-4.13221
0
LINE
8
BLACK
6
CONTINUOUS
10
3.24983
20
-4.13221
11
3.24961
21
-4.13262
0
LINE
8
BLACK
6
CONTINUOUS
10
3.24961
20
-4.13262
11
3.24932
21
-4.13298
0
LINE
8
BLACK
6
CONTINUOUS
10
3.24932
20
-4.13298
11
3.24896
21
-4.13327
0
LINE
8
BLACK
6
CONTINUOUS
10
3.24896
20
-4.13327
11
3.24855
21
-4.13349
0
LINE
8
BLACK
6
CONTINUOUS
10
3.24855
20
-4.13349
11
3.2481
21
-4.13363
0
LINE
8
BLACK
6
CONTINUOUS
10
3.2481
20
-4.13363
11
3.24775
21
-4.13366
0
LINE
8
BLACK
6
CONTINUOUS
10
3.24775
20
-4.13366
11
3.24744
21
-4.13366
0
LINE
8
BLACK
6
CONTINUOUS
10
3.24744
20
-4.13366
11
3.24744
21
-4.21634
0
LINE
8
BLACK
6
CONTINUOUS
10
3.24744
20
-4.21634
11
3.24775
21
-4.21634
0
LINE
8
BLACK
6
CONTINUOUS
10
4.43176
20
-3.99767
11
4.43221
21
-3.99781
0
LINE
8
BLACK
6
CONTINUOUS
10
4.43221
20
-3.99781
11
4.43262
21
-3.99803
0
LINE
8
BLACK
6
CONTINUOUS
10
4.43262
20
-3.99803
11
4.43298
21
-3.99832
0
LINE
8
BLACK
6
CONTINUOUS
10
4.43298
20
-3.99832
11
4.43327
21
-3.99868
0
LINE
8
BLACK
6
CONTINUOUS
10
4.43327
20
-3.99868
11
4.43349
21
-3.99909
0
LINE
8
BLACK
6
CONTINUOUS
10
4.43349
20
-3.99909
11
4.43363
21
-3.99954
0
LINE
8
BLACK
6
CONTINUOUS
10
4.43363
20
-3.99954
11
4.43366
21
-3.99988
0
LINE
8
BLACK
6
CONTINUOUS
10
4.43366
20
-3.99988
11
4.43366
21
-4.02756
0
LINE
8
BLACK
6
CONTINUOUS
10
4.43366
20
-4.02756
11
4.47512
21
-4.02756
0
LINE
8
BLACK
6
CONTINUOUS
10
4.47512
20
-4.02756
11
4.47546
21
-4.02759
0
LINE
8
BLACK
6
CONTINUOUS
10
4.47546
20
-4.02759
11
4.47591
21
-4.02773
0
LINE
8
BLACK
6
CONTINUOUS
10
4.47591
20
-4.02773
11
4.47632
21
-4.02795
0
LINE
8
BLACK
6
CONTINUOUS
10
4.47632
20
-4.02795
11
4.47668
21
-4.02824
0
LINE
8
BLACK
6
CONTINUOUS
10
4.47668
20
-4.02824
11
4.47697
21
-4.0286
0
LINE
8
BLACK
6
CONTINUOUS
10
4.47697
20
-4.0286
11
4.47719
21
-4.02901
0
LINE
8
BLACK
6
CONTINUOUS
10
4.47719
20
-4.02901
11
4.47733
21
-4.02946
0
LINE
8
BLACK
6
CONTINUOUS
10
4.47733
20
-4.02946
11
4.47737
21
-4.02992
0
LINE
8
BLACK
6
CONTINUOUS
10
4.47737
20
-4.02992
11
4.47733
21
-4.03038
0
LINE
8
BLACK
6
CONTINUOUS
10
4.47733
20
-4.03038
11
4.47719
21
-4.03083
0
LINE
8
BLACK
6
CONTINUOUS
10
4.47719
20
-4.03083
11
4.47697
21
-4.03124
0
LINE
8
BLACK
6
CONTINUOUS
10
4.47697
20
-4.03124
11
4.47668
21
-4.0316
0
LINE
8
BLACK
6
CONTINUOUS
10
4.47668
20
-4.0316
11
4.47632
21
-4.03189
0
LINE
8
BLACK
6
CONTINUOUS
10
4.47632
20
-4.03189
11
4.47591
21
-4.03211
0
LINE
8
BLACK
6
CONTINUOUS
10
4.47591
20
-4.03211
11
4.47546
21
-4.03225
0
LINE
8
BLACK
6
CONTINUOUS
10
4.47546
20
-4.03225
11
4.47512
21
-4.03228
0
LINE
8
BLACK
6
CONTINUOUS
10
4.47512
20
-4.03228
11
4.43142
21
-4.03228
0
LINE
8
BLACK
6
CONTINUOUS
10
4.43142
20
-4.03228
11
4.4313
21
-4.03229
0
LINE
8
BLACK
6
CONTINUOUS
10
4.4313
20
-4.03229
11
4.43118
21
-4.03228
0
LINE
8
BLACK
6
CONTINUOUS
10
4.43118
20
-4.03228
11
4.43118
21
-4.03228
0
LINE
8
BLACK
6
CONTINUOUS
10
4.43118
20
-4.03228
11
4.43084
21
-4.03225
0
LINE
8
BLACK
6
CONTINUOUS
10
4.43084
20
-4.03225
11
4.43039
21
-4.03211
0
LINE
8
BLACK
6
CONTINUOUS
10
4.43039
20
-4.03211
11
4.42998
21
-4.03189
0
LINE
8
BLACK
6
CONTINUOUS
10
4.42998
20
-4.03189
11
4.42962
21
-4.0316
0
LINE
8
BLACK
6
CONTINUOUS
10
4.42962
20
-4.0316
11
4.42933
21
-4.03124
0
LINE
8
BLACK
6
CONTINUOUS
10
4.42933
20
-4.03124
11
4.42911
21
-4.03083
0
LINE
8
BLACK
6
CONTINUOUS
10
4.42911
20
-4.03083
11
4.42897
21
-4.03038
0
LINE
8
BLACK
6
CONTINUOUS
10
4.42897
20
-4.03038
11
4.42893
21
-4.02992
0
LINE
8
BLACK
6
CONTINUOUS
10
4.42893
20
-4.02992
11
4.42894
21
-4.0298
0
LINE
8
BLACK
6
CONTINUOUS
10
4.42894
20
-4.0298
11
4.42894
21
-3.99988
0
LINE
8
BLACK
6
CONTINUOUS
10
4.42894
20
-3.99988
11
4.42897
21
-3.99954
0
LINE
8
BLACK
6
CONTINUOUS
10
4.42897
20
-3.99954
11
4.42911
21
-3.99909
0
LINE
8
BLACK
6
CONTINUOUS
10
4.42911
20
-3.99909
11
4.42933
21
-3.99868
0
LINE
8
BLACK
6
CONTINUOUS
10
4.42933
20
-3.99868
11
4.42962
21
-3.99832
0
LINE
8
BLACK
6
CONTINUOUS
10
4.42962
20
-3.99832
11
4.42998
21
-3.99803
0
LINE
8
BLACK
6
CONTINUOUS
10
4.42998
20
-3.99803
11
4.43039
21
-3.99781
0
LINE
8
BLACK
6
CONTINUOUS
10
4.43039
20
-3.99781
11
4.43084
21
-3.99767
0
LINE
8
BLACK
6
CONTINUOUS
10
4.43084
20
-3.99767
11
4.4313
21
-3.99763
0
LINE
8
BLACK
6
CONTINUOUS
10
4.4313
20
-3.99763
11
4.43176
21
-3.99767
0
LINE
8
BLACK
6
CONTINUOUS
10
2.90952
20
-3.98389
11
2.90996
21
-3.98403
0
LINE
8
BLACK
6
CONTINUOUS
10
2.90996
20
-3.98403
11
2.91037
21
-3.98425
0
LINE
8
BLACK
6
CONTINUOUS
10
2.91037
20
-3.98425
11
2.91073
21
-3.98454
0
LINE
8
BLACK
6
CONTINUOUS
10
2.91073
20
-3.98454
11
2.91103
21
-3.9849
0
LINE
8
BLACK
6
CONTINUOUS
10
2.91103
20
-3.9849
11
2.91125
21
-3.98531
0
LINE
8
BLACK
6
CONTINUOUS
10
2.91125
20
-3.98531
11
2.91138
21
-3.98576
0
LINE
8
BLACK
6
CONTINUOUS
10
2.91138
20
-3.98576
11
2.91142
21
-3.9861
0
LINE
8
BLACK
6
CONTINUOUS
10
2.91142
20
-3.9861
11
2.91142
21
-4.01378
0
LINE
8
BLACK
6
CONTINUOUS
10
2.91142
20
-4.01378
11
2.95287
21
-4.01378
0
LINE
8
BLACK
6
CONTINUOUS
10
2.95287
20
-4.01378
11
2.95322
21
-4.01381
0
LINE
8
BLACK
6
CONTINUOUS
10
2.95322
20
-4.01381
11
2.95366
21
-4.01395
0
LINE
8
BLACK
6
CONTINUOUS
10
2.95366
20
-4.01395
11
2.95407
21
-4.01417
0
LINE
8
BLACK
6
CONTINUOUS
10
2.95407
20
-4.01417
11
2.95443
21
-4.01446
0
LINE
8
BLACK
6
CONTINUOUS
10
2.95443
20
-4.01446
11
2.95473
21
-4.01482
0
LINE
8
BLACK
6
CONTINUOUS
10
2.95473
20
-4.01482
11
2.95495
21
-4.01523
0
LINE
8
BLACK
6
CONTINUOUS
10
2.95495
20
-4.01523
11
2.95508
21
-4.01568
0
LINE
8
BLACK
6
CONTINUOUS
10
2.95508
20
-4.01568
11
2.95513
21
-4.01614
0
LINE
8
BLACK
6
CONTINUOUS
10
2.95513
20
-4.01614
11
2.95508
21
-4.0166
0
LINE
8
BLACK
6
CONTINUOUS
10
2.95508
20
-4.0166
11
2.95495
21
-4.01705
0
LINE
8
BLACK
6
CONTINUOUS
10
2.95495
20
-4.01705
11
2.95473
21
-4.01746
0
LINE
8
BLACK
6
CONTINUOUS
10
2.95473
20
-4.01746
11
2.95443
21
-4.01782
0
LINE
8
BLACK
6
CONTINUOUS
10
2.95443
20
-4.01782
11
2.95407
21
-4.01812
0
LINE
8
BLACK
6
CONTINUOUS
10
2.95407
20
-4.01812
11
2.95366
21
-4.01833
0
LINE
8
BLACK
6
CONTINUOUS
10
2.95366
20
-4.01833
11
2.95322
21
-4.01847
0
LINE
8
BLACK
6
CONTINUOUS
10
2.95322
20
-4.01847
11
2.95287
21
-4.0185
0
LINE
8
BLACK
6
CONTINUOUS
10
2.95287
20
-4.0185
11
2.90917
21
-4.0185
0
LINE
8
BLACK
6
CONTINUOUS
10
2.90917
20
-4.0185
11
2.90906
21
-4.01852
0
LINE
8
BLACK
6
CONTINUOUS
10
2.90906
20
-4.01852
11
2.90894
21
-4.0185
0
LINE
8
BLACK
6
CONTINUOUS
10
2.90894
20
-4.0185
11
2.90894
21
-4.0185
0
LINE
8
BLACK
6
CONTINUOUS
10
2.90894
20
-4.0185
11
2.90859
21
-4.01847
0
LINE
8
BLACK
6
CONTINUOUS
10
2.90859
20
-4.01847
11
2.90815
21
-4.01833
0
LINE
8
BLACK
6
CONTINUOUS
10
2.90815
20
-4.01833
11
2.90774
21
-4.01812
0
LINE
8
BLACK
6
CONTINUOUS
10
2.90774
20
-4.01812
11
2.90738
21
-4.01782
0
LINE
8
BLACK
6
CONTINUOUS
10
2.90738
20
-4.01782
11
2.90708
21
-4.01746
0
LINE
8
BLACK
6
CONTINUOUS
10
2.90708
20
-4.01746
11
2.90686
21
-4.01705
0
LINE
8
BLACK
6
CONTINUOUS
10
2.90686
20
-4.01705
11
2.90673
21
-4.0166
0
LINE
8
BLACK
6
CONTINUOUS
10
2.90673
20
-4.0166
11
2.90668
21
-4.01614
0
LINE
8
BLACK
6
CONTINUOUS
10
2.90668
20
-4.01614
11
2.90669
21
-4.01603
0
LINE
8
BLACK
6
CONTINUOUS
10
2.90669
20
-4.01603
11
2.90669
21
-3.9861
0
LINE
8
BLACK
6
CONTINUOUS
10
2.90669
20
-3.9861
11
2.90673
21
-3.98576
0
LINE
8
BLACK
6
CONTINUOUS
10
2.90673
20
-3.98576
11
2.90686
21
-3.98531
0
LINE
8
BLACK
6
CONTINUOUS
10
2.90686
20
-3.98531
11
2.90708
21
-3.9849
0
LINE
8
BLACK
6
CONTINUOUS
10
2.90708
20
-3.9849
11
2.90738
21
-3.98454
0
LINE
8
BLACK
6
CONTINUOUS
10
2.90738
20
-3.98454
11
2.90774
21
-3.98425
0
LINE
8
BLACK
6
CONTINUOUS
10
2.90774
20
-3.98425
11
2.90815
21
-3.98403
0
LINE
8
BLACK
6
CONTINUOUS
10
2.90815
20
-3.98403
11
2.90859
21
-3.98389
0
LINE
8
BLACK
6
CONTINUOUS
10
2.90859
20
-3.98389
11
2.90906
21
-3.98385
0
LINE
8
BLACK
6
CONTINUOUS
10
2.90906
20
-3.98385
11
2.90952
21
-3.98389
0
LINE
8
BLACK
6
CONTINUOUS
10
4.43366
20
-3.97275
11
4.43363
21
-3.9731
0
LINE
8
BLACK
6
CONTINUOUS
10
4.43363
20
-3.9731
11
4.43349
21
-3.97355
0
LINE
8
BLACK
6
CONTINUOUS
10
4.43349
20
-3.97355
11
4.43327
21
-3.97396
0
LINE
8
BLACK
6
CONTINUOUS
10
4.43327
20
-3.97396
11
4.43298
21
-3.97432
0
LINE
8
BLACK
6
CONTINUOUS
10
4.43298
20
-3.97432
11
4.43262
21
-3.97461
0
LINE
8
BLACK
6
CONTINUOUS
10
4.43262
20
-3.97461
11
4.43221
21
-3.97483
0
LINE
8
BLACK
6
CONTINUOUS
10
4.43221
20
-3.97483
11
4.43176
21
-3.97497
0
LINE
8
BLACK
6
CONTINUOUS
10
4.43176
20
-3.97497
11
4.4313
21
-3.97501
0
LINE
8
BLACK
6
CONTINUOUS
10
4.4313
20
-3.97501
11
4.43084
21
-3.97497
0
LINE
8
BLACK
6
CONTINUOUS
10
4.43084
20
-3.97497
11
4.43039
21
-3.97483
0
LINE
8
BLACK
6
CONTINUOUS
10
4.43039
20
-3.97483
11
4.42998
21
-3.97461
0
LINE
8
BLACK
6
CONTINUOUS
10
4.42998
20
-3.97461
11
4.42962
21
-3.97432
0
LINE
8
BLACK
6
CONTINUOUS
10
4.42962
20
-3.97432
11
4.42933
21
-3.97396
0
LINE
8
BLACK
6
CONTINUOUS
10
4.42933
20
-3.97396
11
4.42911
21
-3.97355
0
LINE
8
BLACK
6
CONTINUOUS
10
4.42911
20
-3.97355
11
4.42897
21
-3.9731
0
LINE
8
BLACK
6
CONTINUOUS
10
4.42897
20
-3.9731
11
4.42894
21
-3.97275
0
LINE
8
BLACK
6
CONTINUOUS
10
4.42894
20
-3.97275
11
4.42894
21
-3.97019
0
LINE
8
BLACK
6
CONTINUOUS
10
4.42894
20
-3.97019
11
4.42893
21
-3.97008
0
LINE
8
BLACK
6
CONTINUOUS
10
4.42893
20
-3.97008
11
4.42897
21
-3.96962
0
LINE
8
BLACK
6
CONTINUOUS
10
4.42897
20
-3.96962
11
4.42911
21
-3.96917
0
LINE
8
BLACK
6
CONTINUOUS
10
4.42911
20
-3.96917
11
4.42933
21
-3.96876
0
LINE
8
BLACK
6
CONTINUOUS
10
4.42933
20
-3.96876
11
4.42962
21
-3.9684
0
LINE
8
BLACK
6
CONTINUOUS
10
4.42962
20
-3.9684
11
4.42998
21
-3.96811
0
LINE
8
BLACK
6
CONTINUOUS
10
4.42998
20
-3.96811
11
4.43039
21
-3.96789
0
LINE
8
BLACK
6
CONTINUOUS
10
4.43039
20
-3.96789
11
4.43084
21
-3.96775
0
LINE
8
BLACK
6
CONTINUOUS
10
4.43084
20
-3.96775
11
4.43118
21
-3.96772
0
LINE
8
BLACK
6
CONTINUOUS
10
4.43118
20
-3.96772
11
4.4313
21
-3.96771
0
LINE
8
BLACK
6
CONTINUOUS
10
4.4313
20
-3.96771
11
4.43142
21
-3.96772
0
LINE
8
BLACK
6
CONTINUOUS
10
4.43142
20
-3.96772
11
4.51858
21
-3.96772
0
LINE
8
BLACK
6
CONTINUOUS
10
4.51858
20
-3.96772
11
4.5187
21
-3.96771
0
LINE
8
BLACK
6
CONTINUOUS
10
4.5187
20
-3.96771
11
4.51882
21
-3.96772
0
LINE
8
BLACK
6
CONTINUOUS
10
4.51882
20
-3.96772
11
4.51882
21
-3.96772
0
LINE
8
BLACK
6
CONTINUOUS
10
4.51882
20
-3.96772
11
4.51916
21
-3.96775
0
LINE
8
BLACK
6
CONTINUOUS
10
4.51916
20
-3.96775
11
4.51961
21
-3.96789
0
LINE
8
BLACK
6
CONTINUOUS
10
4.51961
20
-3.96789
11
4.52002
21
-3.96811
0
LINE
8
BLACK
6
CONTINUOUS
10
4.52002
20
-3.96811
11
4.52038
21
-3.9684
0
LINE
8
BLACK
6
CONTINUOUS
10
4.52038
20
-3.9684
11
4.52067
21
-3.96876
0
LINE
8
BLACK
6
CONTINUOUS
10
4.52067
20
-3.96876
11
4.52089
21
-3.96917
0
LINE
8
BLACK
6
CONTINUOUS
10
4.52089
20
-3.96917
11
4.52103
21
-3.96962
0
LINE
8
BLACK
6
CONTINUOUS
10
4.52103
20
-3.96962
11
4.52107
21
-3.97008
0
LINE
8
BLACK
6
CONTINUOUS
10
4.52107
20
-3.97008
11
4.52106
21
-3.97019
0
LINE
8
BLACK
6
CONTINUOUS
10
4.52106
20
-3.97019
11
4.52106
21
-3.97275
0
LINE
8
BLACK
6
CONTINUOUS
10
4.52106
20
-3.97275
11
4.52103
21
-3.9731
0
LINE
8
BLACK
6
CONTINUOUS
10
4.52103
20
-3.9731
11
4.52089
21
-3.97355
0
LINE
8
BLACK
6
CONTINUOUS
10
4.52089
20
-3.97355
11
4.52067
21
-3.97396
0
LINE
8
BLACK
6
CONTINUOUS
10
4.52067
20
-3.97396
11
4.52038
21
-3.97432
0
LINE
8
BLACK
6
CONTINUOUS
10
4.52038
20
-3.97432
11
4.52002
21
-3.97461
0
LINE
8
BLACK
6
CONTINUOUS
10
4.52002
20
-3.97461
11
4.51961
21
-3.97483
0
LINE
8
BLACK
6
CONTINUOUS
10
4.51961
20
-3.97483
11
4.51916
21
-3.97497
0
LINE
8
BLACK
6
CONTINUOUS
10
4.51916
20
-3.97497
11
4.5187
21
-3.97501
0
LINE
8
BLACK
6
CONTINUOUS
10
4.5187
20
-3.97501
11
4.51824
21
-3.97497
0
LINE
8
BLACK
6
CONTINUOUS
10
4.51824
20
-3.97497
11
4.51779
21
-3.97483
0
LINE
8
BLACK
6
CONTINUOUS
10
4.51779
20
-3.97483
11
4.51738
21
-3.97461
0
LINE
8
BLACK
6
CONTINUOUS
10
4.51738
20
-3.97461
11
4.51702
21
-3.97432
0
LINE
8
BLACK
6
CONTINUOUS
10
4.51702
20
-3.97432
11
4.51673
21
-3.97396
0
LINE
8
BLACK
6
CONTINUOUS
10
4.51673
20
-3.97396
11
4.51651
21
-3.97355
0
LINE
8
BLACK
6
CONTINUOUS
10
4.51651
20
-3.97355
11
4.51637
21
-3.9731
0
LINE
8
BLACK
6
CONTINUOUS
10
4.51637
20
-3.9731
11
4.51634
21
-3.97275
0
LINE
8
BLACK
6
CONTINUOUS
10
4.51634
20
-3.97275
11
4.51634
21
-3.97244
0
LINE
8
BLACK
6
CONTINUOUS
10
4.51634
20
-3.97244
11
4.43366
21
-3.97244
0
LINE
8
BLACK
6
CONTINUOUS
10
4.43366
20
-3.97244
11
4.43366
21
-3.97275
0
LINE
8
BLACK
6
CONTINUOUS
10
2.99737
20
-3.95411
11
2.99778
21
-3.95433
0
LINE
8
BLACK
6
CONTINUOUS
10
2.99778
20
-3.95433
11
2.99814
21
-3.95462
0
LINE
8
BLACK
6
CONTINUOUS
10
2.99814
20
-3.95462
11
2.99843
21
-3.95498
0
LINE
8
BLACK
6
CONTINUOUS
10
2.99843
20
-3.95498
11
2.99865
21
-3.95539
0
LINE
8
BLACK
6
CONTINUOUS
10
2.99865
20
-3.95539
11
2.99878
21
-3.95584
0
LINE
8
BLACK
6
CONTINUOUS
10
2.99878
20
-3.95584
11
2.99883
21
-3.9563
0
LINE
8
BLACK
6
CONTINUOUS
10
2.99883
20
-3.9563
11
2.99882
21
-3.95642
0
LINE
8
BLACK
6
CONTINUOUS
10
2.99882
20
-3.95642
11
2.99882
21
-3.95897
0
LINE
8
BLACK
6
CONTINUOUS
10
2.99882
20
-3.95897
11
2.99878
21
-3.95932
0
LINE
8
BLACK
6
CONTINUOUS
10
2.99878
20
-3.95932
11
2.99865
21
-3.95977
0
LINE
8
BLACK
6
CONTINUOUS
10
2.99865
20
-3.95977
11
2.99843
21
-3.96018
0
LINE
8
BLACK
6
CONTINUOUS
10
2.99843
20
-3.96018
11
2.99814
21
-3.96054
0
LINE
8
BLACK
6
CONTINUOUS
10
2.99814
20
-3.96054
11
2.99778
21
-3.96083
0
LINE
8
BLACK
6
CONTINUOUS
10
2.99778
20
-3.96083
11
2.99737
21
-3.96105
0
LINE
8
BLACK
6
CONTINUOUS
10
2.99737
20
-3.96105
11
2.99692
21
-3.96119
0
LINE
8
BLACK
6
CONTINUOUS
10
2.99692
20
-3.96119
11
2.99646
21
-3.96123
0
LINE
8
BLACK
6
CONTINUOUS
10
2.99646
20
-3.96123
11
2.99599
21
-3.96119
0
LINE
8
BLACK
6
CONTINUOUS
10
2.99599
20
-3.96119
11
2.99555
21
-3.96105
0
LINE
8
BLACK
6
CONTINUOUS
10
2.99555
20
-3.96105
11
2.99514
21
-3.96083
0
LINE
8
BLACK
6
CONTINUOUS
10
2.99514
20
-3.96083
11
2.99478
21
-3.96054
0
LINE
8
BLACK
6
CONTINUOUS
10
2.99478
20
-3.96054
11
2.99448
21
-3.96018
0
LINE
8
BLACK
6
CONTINUOUS
10
2.99448
20
-3.96018
11
2.99426
21
-3.95977
0
LINE
8
BLACK
6
CONTINUOUS
10
2.99426
20
-3.95977
11
2.99413
21
-3.95932
0
LINE
8
BLACK
6
CONTINUOUS
10
2.99413
20
-3.95932
11
2.99409
21
-3.95897
0
LINE
8
BLACK
6
CONTINUOUS
10
2.99409
20
-3.95897
11
2.99409
21
-3.95866
0
LINE
8
BLACK
6
CONTINUOUS
10
2.99409
20
-3.95866
11
2.91142
21
-3.95866
0
LINE
8
BLACK
6
CONTINUOUS
10
2.91142
20
-3.95866
11
2.91142
21
-3.95897
0
LINE
8
BLACK
6
CONTINUOUS
10
2.91142
20
-3.95897
11
2.91138
21
-3.95932
0
LINE
8
BLACK
6
CONTINUOUS
10
2.91138
20
-3.95932
11
2.91125
21
-3.95977
0
LINE
8
BLACK
6
CONTINUOUS
10
2.91125
20
-3.95977
11
2.91103
21
-3.96018
0
LINE
8
BLACK
6
CONTINUOUS
10
2.91103
20
-3.96018
11
2.91073
21
-3.96054
0
LINE
8
BLACK
6
CONTINUOUS
10
2.91073
20
-3.96054
11
2.91037
21
-3.96083
0
LINE
8
BLACK
6
CONTINUOUS
10
2.91037
20
-3.96083
11
2.90996
21
-3.96105
0
LINE
8
BLACK
6
CONTINUOUS
10
2.90996
20
-3.96105
11
2.90952
21
-3.96119
0
LINE
8
BLACK
6
CONTINUOUS
10
2.90952
20
-3.96119
11
2.90906
21
-3.96123
0
LINE
8
BLACK
6
CONTINUOUS
10
2.90906
20
-3.96123
11
2.90859
21
-3.96119
0
LINE
8
BLACK
6
CONTINUOUS
10
2.90859
20
-3.96119
11
2.90815
21
-3.96105
0
LINE
8
BLACK
6
CONTINUOUS
10
2.90815
20
-3.96105
11
2.90774
21
-3.96083
0
LINE
8
BLACK
6
CONTINUOUS
10
2.90774
20
-3.96083
11
2.90738
21
-3.96054
0
LINE
8
BLACK
6
CONTINUOUS
10
2.90738
20
-3.96054
11
2.90708
21
-3.96018
0
LINE
8
BLACK
6
CONTINUOUS
10
2.90708
20
-3.96018
11
2.90686
21
-3.95977
0
LINE
8
BLACK
6
CONTINUOUS
10
2.90686
20
-3.95977
11
2.90673
21
-3.95932
0
LINE
8
BLACK
6
CONTINUOUS
10
2.90673
20
-3.95932
11
2.90669
21
-3.95897
0
LINE
8
BLACK
6
CONTINUOUS
10
2.90669
20
-3.95897
11
2.90669
21
-3.95642
0
LINE
8
BLACK
6
CONTINUOUS
10
2.90669
20
-3.95642
11
2.90668
21
-3.9563
0
LINE
8
BLACK
6
CONTINUOUS
10
2.90668
20
-3.9563
11
2.90673
21
-3.95584
0
LINE
8
BLACK
6
CONTINUOUS
10
2.90673
20
-3.95584
11
2.90686
21
-3.95539
0
LINE
8
BLACK
6
CONTINUOUS
10
2.90686
20
-3.95539
11
2.90708
21
-3.95498
0
LINE
8
BLACK
6
CONTINUOUS
10
2.90708
20
-3.95498
11
2.90738
21
-3.95462
0
LINE
8
BLACK
6
CONTINUOUS
10
2.90738
20
-3.95462
11
2.90774
21
-3.95433
0
LINE
8
BLACK
6
CONTINUOUS
10
2.90774
20
-3.95433
11
2.90815
21
-3.95411
0
LINE
8
BLACK
6
CONTINUOUS
10
2.90815
20
-3.95411
11
2.90859
21
-3.95397
0
LINE
8
BLACK
6
CONTINUOUS
10
2.90859
20
-3.95397
11
2.90894
21
-3.95394
0
LINE
8
BLACK
6
CONTINUOUS
10
2.90894
20
-3.95394
11
2.90906
21
-3.95393
0
LINE
8
BLACK
6
CONTINUOUS
10
2.90906
20
-3.95393
11
2.90917
21
-3.95394
0
LINE
8
BLACK
6
CONTINUOUS
10
2.90917
20
-3.95394
11
2.99634
21
-3.95394
0
LINE
8
BLACK
6
CONTINUOUS
10
2.99634
20
-3.95394
11
2.99646
21
-3.95393
0
LINE
8
BLACK
6
CONTINUOUS
10
2.99646
20
-3.95393
11
2.99657
21
-3.95394
0
LINE
8
BLACK
6
CONTINUOUS
10
2.99657
20
-3.95394
11
2.99657
21
-3.95394
0
LINE
8
BLACK
6
CONTINUOUS
10
2.99657
20
-3.95394
11
2.99692
21
-3.95397
0
LINE
8
BLACK
6
CONTINUOUS
10
2.99692
20
-3.95397
11
2.99737
21
-3.95411
0
LINE
8
BLACK
6
CONTINUOUS
10
3.10676
20
-3.77267
11
3.10721
21
-3.77281
0
LINE
8
BLACK
6
CONTINUOUS
10
3.10721
20
-3.77281
11
3.10762
21
-3.77303
0
LINE
8
BLACK
6
CONTINUOUS
10
3.10762
20
-3.77303
11
3.10798
21
-3.77332
0
LINE
8
BLACK
6
CONTINUOUS
10
3.10798
20
-3.77332
11
3.10827
21
-3.77368
0
LINE
8
BLACK
6
CONTINUOUS
10
3.10827
20
-3.77368
11
3.10849
21
-3.77409
0
LINE
8
BLACK
6
CONTINUOUS
10
3.10849
20
-3.77409
11
3.10863
21
-3.77454
0
LINE
8
BLACK
6
CONTINUOUS
10
3.10863
20
-3.77454
11
3.10866
21
-3.77488
0
LINE
8
BLACK
6
CONTINUOUS
10
3.10866
20
-3.77488
11
3.10866
21
-3.80256
0
LINE
8
BLACK
6
CONTINUOUS
10
3.10866
20
-3.80256
11
3.15012
21
-3.80256
0
LINE
8
BLACK
6
CONTINUOUS
10
3.15012
20
-3.80256
11
3.15046
21
-3.80259
0
LINE
8
BLACK
6
CONTINUOUS
10
3.15046
20
-3.80259
11
3.15091
21
-3.80273
0
LINE
8
BLACK
6
CONTINUOUS
10
3.15091
20
-3.80273
11
3.15132
21
-3.80295
0
LINE
8
BLACK
6
CONTINUOUS
10
3.15132
20
-3.80295
11
3.15168
21
-3.80324
0
LINE
8
BLACK
6
CONTINUOUS
10
3.15168
20
-3.80324
11
3.15197
21
-3.8036
0
LINE
8
BLACK
6
CONTINUOUS
10
3.15197
20
-3.8036
11
3.15219
21
-3.80401
0
LINE
8
BLACK
6
CONTINUOUS
10
3.15219
20
-3.80401
11
3.15233
21
-3.80446
0
LINE
8
BLACK
6
CONTINUOUS
10
3.15233
20
-3.80446
11
3.15237
21
-3.80492
0
LINE
8
BLACK
6
CONTINUOUS
10
3.15237
20
-3.80492
11
3.15233
21
-3.80538
0
LINE
8
BLACK
6
CONTINUOUS
10
3.15233
20
-3.80538
11
3.15219
21
-3.80583
0
LINE
8
BLACK
6
CONTINUOUS
10
3.15219
20
-3.80583
11
3.15197
21
-3.80624
0
LINE
8
BLACK
6
CONTINUOUS
10
3.15197
20
-3.80624
11
3.15168
21
-3.8066
0
LINE
8
BLACK
6
CONTINUOUS
10
3.15168
20
-3.8066
11
3.15132
21
-3.80689
0
LINE
8
BLACK
6
CONTINUOUS
10
3.15132
20
-3.80689
11
3.15091
21
-3.80711
0
LINE
8
BLACK
6
CONTINUOUS
10
3.15091
20
-3.80711
11
3.15046
21
-3.80725
0
LINE
8
BLACK
6
CONTINUOUS
10
3.15046
20
-3.80725
11
3.15012
21
-3.80728
0
LINE
8
BLACK
6
CONTINUOUS
10
3.15012
20
-3.80728
11
3.10642
21
-3.80728
0
LINE
8
BLACK
6
CONTINUOUS
10
3.10642
20
-3.80728
11
3.1063
21
-3.80729
0
LINE
8
BLACK
6
CONTINUOUS
10
3.1063
20
-3.80729
11
3.10618
21
-3.80728
0
LINE
8
BLACK
6
CONTINUOUS
10
3.10618
20
-3.80728
11
3.10618
21
-3.80728
0
LINE
8
BLACK
6
CONTINUOUS
10
3.10618
20
-3.80728
11
3.10584
21
-3.80725
0
LINE
8
BLACK
6
CONTINUOUS
10
3.10584
20
-3.80725
11
3.10539
21
-3.80711
0
LINE
8
BLACK
6
CONTINUOUS
10
3.10539
20
-3.80711
11
3.10498
21
-3.80689
0
LINE
8
BLACK
6
CONTINUOUS
10
3.10498
20
-3.80689
11
3.10462
21
-3.8066
0
LINE
8
BLACK
6
CONTINUOUS
10
3.10462
20
-3.8066
11
3.10433
21
-3.80624
0
LINE
8
BLACK
6
CONTINUOUS
10
3.10433
20
-3.80624
11
3.10411
21
-3.80583
0
LINE
8
BLACK
6
CONTINUOUS
10
3.10411
20
-3.80583
11
3.10397
21
-3.80538
0
LINE
8
BLACK
6
CONTINUOUS
10
3.10397
20
-3.80538
11
3.10393
21
-3.80492
0
LINE
8
BLACK
6
CONTINUOUS
10
3.10393
20
-3.80492
11
3.10394
21
-3.8048
0
LINE
8
BLACK
6
CONTINUOUS
10
3.10394
20
-3.8048
11
3.10394
21
-3.77488
0
LINE
8
BLACK
6
CONTINUOUS
10
3.10394
20
-3.77488
11
3.10397
21
-3.77454
0
LINE
8
BLACK
6
CONTINUOUS
10
3.10397
20
-3.77454
11
3.10411
21
-3.77409
0
LINE
8
BLACK
6
CONTINUOUS
10
3.10411
20
-3.77409
11
3.10433
21
-3.77368
0
LINE
8
BLACK
6
CONTINUOUS
10
3.10433
20
-3.77368
11
3.10462
21
-3.77332
0
LINE
8
BLACK
6
CONTINUOUS
10
3.10462
20
-3.77332
11
3.10498
21
-3.77303
0
LINE
8
BLACK
6
CONTINUOUS
10
3.10498
20
-3.77303
11
3.10539
21
-3.77281
0
LINE
8
BLACK
6
CONTINUOUS
10
3.10539
20
-3.77281
11
3.10584
21
-3.77267
0
LINE
8
BLACK
6
CONTINUOUS
10
3.10584
20
-3.77267
11
3.1063
21
-3.77263
0
LINE
8
BLACK
6
CONTINUOUS
10
3.1063
20
-3.77263
11
3.10676
21
-3.77267
0
LINE
8
BLACK
6
CONTINUOUS
10
3.19461
20
-3.74289
11
3.19502
21
-3.74311
0
LINE
8
BLACK
6
CONTINUOUS
10
3.19502
20
-3.74311
11
3.19538
21
-3.7434
0
LINE
8
BLACK
6
CONTINUOUS
10
3.19538
20
-3.7434
11
3.19567
21
-3.74376
0
LINE
8
BLACK
6
CONTINUOUS
10
3.19567
20
-3.74376
11
3.19589
21
-3.74417
0
LINE
8
BLACK
6
CONTINUOUS
10
3.19589
20
-3.74417
11
3.19603
21
-3.74462
0
LINE
8
BLACK
6
CONTINUOUS
10
3.19603
20
-3.74462
11
3.19607
21
-3.74508
0
LINE
8
BLACK
6
CONTINUOUS
10
3.19607
20
-3.74508
11
3.19606
21
-3.74519
0
LINE
8
BLACK
6
CONTINUOUS
10
3.19606
20
-3.74519
11
3.19606
21
-3.74775
0
LINE
8
BLACK
6
CONTINUOUS
10
3.19606
20
-3.74775
11
3.19603
21
-3.7481
0
LINE
8
BLACK
6
CONTINUOUS
10
3.19603
20
-3.7481
11
3.19589
21
-3.74855
0
LINE
8
BLACK
6
CONTINUOUS
10
3.19589
20
-3.74855
11
3.19567
21
-3.74896
0
LINE
8
BLACK
6
CONTINUOUS
10
3.19567
20
-3.74896
11
3.19538
21
-3.74932
0
LINE
8
BLACK
6
CONTINUOUS
10
3.19538
20
-3.74932
11
3.19502
21
-3.74961
0
LINE
8
BLACK
6
CONTINUOUS
10
3.19502
20
-3.74961
11
3.19461
21
-3.74983
0
LINE
8
BLACK
6
CONTINUOUS
10
3.19461
20
-3.74983
11
3.19416
21
-3.74997
0
LINE
8
BLACK
6
CONTINUOUS
10
3.19416
20
-3.74997
11
3.1937
21
-3.75001
0
LINE
8
BLACK
6
CONTINUOUS
10
3.1937
20
-3.75001
11
3.19324
21
-3.74997
0
LINE
8
BLACK
6
CONTINUOUS
10
3.19324
20
-3.74997
11
3.19279
21
-3.74983
0
LINE
8
BLACK
6
CONTINUOUS
10
3.19279
20
-3.74983
11
3.19238
21
-3.74961
0
LINE
8
BLACK
6
CONTINUOUS
10
3.19238
20
-3.74961
11
3.19202
21
-3.74932
0
LINE
8
BLACK
6
CONTINUOUS
10
3.19202
20
-3.74932
11
3.19173
21
-3.74896
0
LINE
8
BLACK
6
CONTINUOUS
10
3.19173
20
-3.74896
11
3.19151
21
-3.74855
0
LINE
8
BLACK
6
CONTINUOUS
10
3.19151
20
-3.74855
11
3.19137
21
-3.7481
0
LINE
8
BLACK
6
CONTINUOUS
10
3.19137
20
-3.7481
11
3.19134
21
-3.74775
0
LINE
8
BLACK
6
CONTINUOUS
10
3.19134
20
-3.74775
11
3.19134
21
-3.74744
0
LINE
8
BLACK
6
CONTINUOUS
10
3.19134
20
-3.74744
11
3.10866
21
-3.74744
0
LINE
8
BLACK
6
CONTINUOUS
10
3.10866
20
-3.74744
11
3.10866
21
-3.74775
0
LINE
8
BLACK
6
CONTINUOUS
10
3.10866
20
-3.74775
11
3.10863
21
-3.7481
0
LINE
8
BLACK
6
CONTINUOUS
10
3.10863
20
-3.7481
11
3.10849
21
-3.74855
0
LINE
8
BLACK
6
CONTINUOUS
10
3.10849
20
-3.74855
11
3.10827
21
-3.74896
0
LINE
8
BLACK
6
CONTINUOUS
10
3.10827
20
-3.74896
11
3.10798
21
-3.74932
0
LINE
8
BLACK
6
CONTINUOUS
10
3.10798
20
-3.74932
11
3.10762
21
-3.74961
0
LINE
8
BLACK
6
CONTINUOUS
10
3.10762
20
-3.74961
11
3.10721
21
-3.74983
0
LINE
8
BLACK
6
CONTINUOUS
10
3.10721
20
-3.74983
11
3.10676
21
-3.74997
0
LINE
8
BLACK
6
CONTINUOUS
10
3.10676
20
-3.74997
11
3.1063
21
-3.75001
0
LINE
8
BLACK
6
CONTINUOUS
10
3.1063
20
-3.75001
11
3.10584
21
-3.74997
0
LINE
8
BLACK
6
CONTINUOUS
10
3.10584
20
-3.74997
11
3.10539
21
-3.74983
0
LINE
8
BLACK
6
CONTINUOUS
10
3.10539
20
-3.74983
11
3.10498
21
-3.74961
0
LINE
8
BLACK
6
CONTINUOUS
10
3.10498
20
-3.74961
11
3.10462
21
-3.74932
0
LINE
8
BLACK
6
CONTINUOUS
10
3.10462
20
-3.74932
11
3.10433
21
-3.74896
0
LINE
8
BLACK
6
CONTINUOUS
10
3.10433
20
-3.74896
11
3.10411
21
-3.74855
0
LINE
8
BLACK
6
CONTINUOUS
10
3.10411
20
-3.74855
11
3.10397
21
-3.7481
0
LINE
8
BLACK
6
CONTINUOUS
10
3.10397
20
-3.7481
11
3.10394
21
-3.74775
0
LINE
8
BLACK
6
CONTINUOUS
10
3.10394
20
-3.74775
11
3.10394
21
-3.74519
0
LINE
8
BLACK
6
CONTINUOUS
10
3.10394
20
-3.74519
11
3.10393
21
-3.74508
0
LINE
8
BLACK
6
CONTINUOUS
10
3.10393
20
-3.74508
11
3.10397
21
-3.74462
0
LINE
8
BLACK
6
CONTINUOUS
10
3.10397
20
-3.74462
11
3.10411
21
-3.74417
0
LINE
8
BLACK
6
CONTINUOUS
10
3.10411
20
-3.74417
11
3.10433
21
-3.74376
0
LINE
8
BLACK
6
CONTINUOUS
10
3.10433
20
-3.74376
11
3.10462
21
-3.7434
0
LINE
8
BLACK
6
CONTINUOUS
10
3.10462
20
-3.7434
11
3.10498
21
-3.74311
0
LINE
8
BLACK
6
CONTINUOUS
10
3.10498
20
-3.74311
11
3.10539
21
-3.74289
0
LINE
8
BLACK
6
CONTINUOUS
10
3.10539
20
-3.74289
11
3.10584
21
-3.74275
0
LINE
8
BLACK
6
CONTINUOUS
10
3.10584
20
-3.74275
11
3.10618
21
-3.74272
0
LINE
8
BLACK
6
CONTINUOUS
10
3.10618
20
-3.74272
11
3.1063
21
-3.74271
0
LINE
8
BLACK
6
CONTINUOUS
10
3.1063
20
-3.74271
11
3.10642
21
-3.74272
0
LINE
8
BLACK
6
CONTINUOUS
10
3.10642
20
-3.74272
11
3.19358
21
-3.74272
0
LINE
8
BLACK
6
CONTINUOUS
10
3.19358
20
-3.74272
11
3.1937
21
-3.74271
0
LINE
8
BLACK
6
CONTINUOUS
10
3.1937
20
-3.74271
11
3.19382
21
-3.74272
0
LINE
8
BLACK
6
CONTINUOUS
10
3.19382
20
-3.74272
11
3.19382
21
-3.74272
0
LINE
8
BLACK
6
CONTINUOUS
10
3.19382
20
-3.74272
11
3.19416
21
-3.74275
0
LINE
8
BLACK
6
CONTINUOUS
10
3.19416
20
-3.74275
11
3.19461
21
-3.74289
0
LINE
8
BLACK
6
CONTINUOUS
10
4.55676
20
-3.69767
11
4.55721
21
-3.69781
0
LINE
8
BLACK
6
CONTINUOUS
10
4.55721
20
-3.69781
11
4.55762
21
-3.69803
0
LINE
8
BLACK
6
CONTINUOUS
10
4.55762
20
-3.69803
11
4.55798
21
-3.69832
0
LINE
8
BLACK
6
CONTINUOUS
10
4.55798
20
-3.69832
11
4.55827
21
-3.69868
0
LINE
8
BLACK
6
CONTINUOUS
10
4.55827
20
-3.69868
11
4.55849
21
-3.69909
0
LINE
8
BLACK
6
CONTINUOUS
10
4.55849
20
-3.69909
11
4.55863
21
-3.69954
0
LINE
8
BLACK
6
CONTINUOUS
10
4.55863
20
-3.69954
11
4.55866
21
-3.69988
0
LINE
8
BLACK
6
CONTINUOUS
10
4.55866
20
-3.69988
11
4.55866
21
-3.72756
0
LINE
8
BLACK
6
CONTINUOUS
10
4.55866
20
-3.72756
11
4.60012
21
-3.72756
0
LINE
8
BLACK
6
CONTINUOUS
10
4.60012
20
-3.72756
11
4.60046
21
-3.72759
0
LINE
8
BLACK
6
CONTINUOUS
10
4.60046
20
-3.72759
11
4.60091
21
-3.72773
0
LINE
8
BLACK
6
CONTINUOUS
10
4.60091
20
-3.72773
11
4.60132
21
-3.72795
0
LINE
8
BLACK
6
CONTINUOUS
10
4.60132
20
-3.72795
11
4.60168
21
-3.72824
0
LINE
8
BLACK
6
CONTINUOUS
10
4.60168
20
-3.72824
11
4.60197
21
-3.7286
0
LINE
8
BLACK
6
CONTINUOUS
10
4.60197
20
-3.7286
11
4.60219
21
-3.72901
0
LINE
8
BLACK
6
CONTINUOUS
10
4.60219
20
-3.72901
11
4.60233
21
-3.72946
0
LINE
8
BLACK
6
CONTINUOUS
10
4.60233
20
-3.72946
11
4.60237
21
-3.72992
0
LINE
8
BLACK
6
CONTINUOUS
10
4.60237
20
-3.72992
11
4.60233
21
-3.73038
0
LINE
8
BLACK
6
CONTINUOUS
10
4.60233
20
-3.73038
11
4.60219
21
-3.73083
0
LINE
8
BLACK
6
CONTINUOUS
10
4.60219
20
-3.73083
11
4.60197
21
-3.73124
0
LINE
8
BLACK
6
CONTINUOUS
10
4.60197
20
-3.73124
11
4.60168
21
-3.7316
0
LINE
8
BLACK
6
CONTINUOUS
10
4.60168
20
-3.7316
11
4.60132
21
-3.73189
0
LINE
8
BLACK
6
CONTINUOUS
10
4.60132
20
-3.73189
11
4.60091
21
-3.73211
0
LINE
8
BLACK
6
CONTINUOUS
10
4.60091
20
-3.73211
11
4.60046
21
-3.73225
0
LINE
8
BLACK
6
CONTINUOUS
10
4.60046
20
-3.73225
11
4.60012
21
-3.73228
0
LINE
8
BLACK
6
CONTINUOUS
10
4.60012
20
-3.73228
11
4.55642
21
-3.73228
0
LINE
8
BLACK
6
CONTINUOUS
10
4.55642
20
-3.73228
11
4.5563
21
-3.73229
0
LINE
8
BLACK
6
CONTINUOUS
10
4.5563
20
-3.73229
11
4.55618
21
-3.73228
0
LINE
8
BLACK
6
CONTINUOUS
10
4.55618
20
-3.73228
11
4.55618
21
-3.73228
0
LINE
8
BLACK
6
CONTINUOUS
10
4.55618
20
-3.73228
11
4.55584
21
-3.73225
0
LINE
8
BLACK
6
CONTINUOUS
10
4.55584
20
-3.73225
11
4.55539
21
-3.73211
0
LINE
8
BLACK
6
CONTINUOUS
10
4.55539
20
-3.73211
11
4.55498
21
-3.73189
0
LINE
8
BLACK
6
CONTINUOUS
10
4.55498
20
-3.73189
11
4.55462
21
-3.7316
0
LINE
8
BLACK
6
CONTINUOUS
10
4.55462
20
-3.7316
11
4.55433
21
-3.73124
0
LINE
8
BLACK
6
CONTINUOUS
10
4.55433
20
-3.73124
11
4.55411
21
-3.73083
0
LINE
8
BLACK
6
CONTINUOUS
10
4.55411
20
-3.73083
11
4.55397
21
-3.73038
0
LINE
8
BLACK
6
CONTINUOUS
10
4.55397
20
-3.73038
11
4.55393
21
-3.72992
0
LINE
8
BLACK
6
CONTINUOUS
10
4.55393
20
-3.72992
11
4.55394
21
-3.7298
0
LINE
8
BLACK
6
CONTINUOUS
10
4.55394
20
-3.7298
11
4.55394
21
-3.69988
0
LINE
8
BLACK
6
CONTINUOUS
10
4.55394
20
-3.69988
11
4.55397
21
-3.69954
0
LINE
8
BLACK
6
CONTINUOUS
10
4.55397
20
-3.69954
11
4.55411
21
-3.69909
0
LINE
8
BLACK
6
CONTINUOUS
10
4.55411
20
-3.69909
11
4.55433
21
-3.69868
0
LINE
8
BLACK
6
CONTINUOUS
10
4.55433
20
-3.69868
11
4.55462
21
-3.69832
0
LINE
8
BLACK
6
CONTINUOUS
10
4.55462
20
-3.69832
11
4.55498
21
-3.69803
0
LINE
8
BLACK
6
CONTINUOUS
10
4.55498
20
-3.69803
11
4.55539
21
-3.69781
0
LINE
8
BLACK
6
CONTINUOUS
10
4.55539
20
-3.69781
11
4.55584
21
-3.69767
0
LINE
8
BLACK
6
CONTINUOUS
10
4.55584
20
-3.69767
11
4.5563
21
-3.69763
0
LINE
8
BLACK
6
CONTINUOUS
10
4.5563
20
-3.69763
11
4.55676
21
-3.69767
0
LINE
8
BLACK
6
CONTINUOUS
10
4.64461
20
-3.66789
11
4.64502
21
-3.66811
0
LINE
8
BLACK
6
CONTINUOUS
10
4.64502
20
-3.66811
11
4.64538
21
-3.6684
0
LINE
8
BLACK
6
CONTINUOUS
10
4.64538
20
-3.6684
11
4.64567
21
-3.66876
0
LINE
8
BLACK
6
CONTINUOUS
10
4.64567
20
-3.66876
11
4.64589
21
-3.66917
0
LINE
8
BLACK
6
CONTINUOUS
10
4.64589
20
-3.66917
11
4.64603
21
-3.66962
0
LINE
8
BLACK
6
CONTINUOUS
10
4.64603
20
-3.66962
11
4.64607
21
-3.67008
0
LINE
8
BLACK
6
CONTINUOUS
10
4.64607
20
-3.67008
11
4.64606
21
-3.67019
0
LINE
8
BLACK
6
CONTINUOUS
10
4.64606
20
-3.67019
11
4.64606
21
-3.67275
0
LINE
8
BLACK
6
CONTINUOUS
10
4.64606
20
-3.67275
11
4.64603
21
-3.6731
0
LINE
8
BLACK
6
CONTINUOUS
10
4.64603
20
-3.6731
11
4.64589
21
-3.67355
0
LINE
8
BLACK
6
CONTINUOUS
10
4.64589
20
-3.67355
11
4.64567
21
-3.67396
0
LINE
8
BLACK
6
CONTINUOUS
10
4.64567
20
-3.67396
11
4.64538
21
-3.67432
0
LINE
8
BLACK
6
CONTINUOUS
10
4.64538
20
-3.67432
11
4.64502
21
-3.67461
0
LINE
8
BLACK
6
CONTINUOUS
10
4.64502
20
-3.67461
11
4.64461
21
-3.67483
0
LINE
8
BLACK
6
CONTINUOUS
10
4.64461
20
-3.67483
11
4.64416
21
-3.67497
0
LINE
8
BLACK
6
CONTINUOUS
10
4.64416
20
-3.67497
11
4.6437
21
-3.67501
0
LINE
8
BLACK
6
CONTINUOUS
10
4.6437
20
-3.67501
11
4.64324
21
-3.67497
0
LINE
8
BLACK
6
CONTINUOUS
10
4.64324
20
-3.67497
11
4.64279
21
-3.67483
0
LINE
8
BLACK
6
CONTINUOUS
10
4.64279
20
-3.67483
11
4.64238
21
-3.67461
0
LINE
8
BLACK
6
CONTINUOUS
10
4.64238
20
-3.67461
11
4.64202
21
-3.67432
0
LINE
8
BLACK
6
CONTINUOUS
10
4.64202
20
-3.67432
11
4.64173
21
-3.67396
0
LINE
8
BLACK
6
CONTINUOUS
10
4.64173
20
-3.67396
11
4.64151
21
-3.67355
0
LINE
8
BLACK
6
CONTINUOUS
10
4.64151
20
-3.67355
11
4.64137
21
-3.6731
0
LINE
8
BLACK
6
CONTINUOUS
10
4.64137
20
-3.6731
11
4.64134
21
-3.67275
0
LINE
8
BLACK
6
CONTINUOUS
10
4.64134
20
-3.67275
11
4.64134
21
-3.67244
0
LINE
8
BLACK
6
CONTINUOUS
10
4.64134
20
-3.67244
11
4.55866
21
-3.67244
0
LINE
8
BLACK
6
CONTINUOUS
10
4.55866
20
-3.67244
11
4.55866
21
-3.67275
0
LINE
8
BLACK
6
CONTINUOUS
10
4.55866
20
-3.67275
11
4.55863
21
-3.6731
0
LINE
8
BLACK
6
CONTINUOUS
10
4.55863
20
-3.6731
11
4.55849
21
-3.67355
0
LINE
8
BLACK
6
CONTINUOUS
10
4.55849
20
-3.67355
11
4.55827
21
-3.67396
0
LINE
8
BLACK
6
CONTINUOUS
10
4.55827
20
-3.67396
11
4.55798
21
-3.67432
0
LINE
8
BLACK
6
CONTINUOUS
10
4.55798
20
-3.67432
11
4.55762
21
-3.67461
0
LINE
8
BLACK
6
CONTINUOUS
10
4.55762
20
-3.67461
11
4.55721
21
-3.67483
0
LINE
8
BLACK
6
CONTINUOUS
10
4.55721
20
-3.67483
11
4.55676
21
-3.67497
0
LINE
8
BLACK
6
CONTINUOUS
10
4.55676
20
-3.67497
11
4.5563
21
-3.67501
0
LINE
8
BLACK
6
CONTINUOUS
10
4.5563
20
-3.67501
11
4.55584
21
-3.67497
0
LINE
8
BLACK
6
CONTINUOUS
10
4.55584
20
-3.67497
11
4.55539
21
-3.67483
0
LINE
8
BLACK
6
CONTINUOUS
10
4.55539
20
-3.67483
11
4.55498
21
-3.67461
0
LINE
8
BLACK
6
CONTINUOUS
10
4.55498
20
-3.67461
11
4.55462
21
-3.67432
0
LINE
8
BLACK
6
CONTINUOUS
10
4.55462
20
-3.67432
11
4.55433
21
-3.67396
0
LINE
8
BLACK
6
CONTINUOUS
10
4.55433
20
-3.67396
11
4.55411
21
-3.67355
0
LINE
8
BLACK
6
CONTINUOUS
10
4.55411
20
-3.67355
11
4.55397
21
-3.6731
0
LINE
8
BLACK
6
CONTINUOUS
10
4.55397
20
-3.6731
11
4.55394
21
-3.67275
0
LINE
8
BLACK
6
CONTINUOUS
10
4.55394
20
-3.67275
11
4.55394
21
-3.67019
0
LINE
8
BLACK
6
CONTINUOUS
10
4.55394
20
-3.67019
11
4.55393
21
-3.67008
0
LINE
8
BLACK
6
CONTINUOUS
10
4.55393
20
-3.67008
11
4.55397
21
-3.66962
0
LINE
8
BLACK
6
CONTINUOUS
10
4.55397
20
-3.66962
11
4.55411
21
-3.66917
0
LINE
8
BLACK
6
CONTINUOUS
10
4.55411
20
-3.66917
11
4.55433
21
-3.66876
0
LINE
8
BLACK
6
CONTINUOUS
10
4.55433
20
-3.66876
11
4.55462
21
-3.6684
0
LINE
8
BLACK
6
CONTINUOUS
10
4.55462
20
-3.6684
11
4.55498
21
-3.66811
0
LINE
8
BLACK
6
CONTINUOUS
10
4.55498
20
-3.66811
11
4.55539
21
-3.66789
0
LINE
8
BLACK
6
CONTINUOUS
10
4.55539
20
-3.66789
11
4.55584
21
-3.66775
0
LINE
8
BLACK
6
CONTINUOUS
10
4.55584
20
-3.66775
11
4.55618
21
-3.66772
0
LINE
8
BLACK
6
CONTINUOUS
10
4.55618
20
-3.66772
11
4.5563
21
-3.66771
0
LINE
8
BLACK
6
CONTINUOUS
10
4.5563
20
-3.66771
11
4.55642
21
-3.66772
0
LINE
8
BLACK
6
CONTINUOUS
10
4.55642
20
-3.66772
11
4.64358
21
-3.66772
0
LINE
8
BLACK
6
CONTINUOUS
10
4.64358
20
-3.66772
11
4.6437
21
-3.66771
0
LINE
8
BLACK
6
CONTINUOUS
10
4.6437
20
-3.66771
11
4.64382
21
-3.66772
0
LINE
8
BLACK
6
CONTINUOUS
10
4.64382
20
-3.66772
11
4.64382
21
-3.66772
0
LINE
8
BLACK
6
CONTINUOUS
10
4.64382
20
-3.66772
11
4.64416
21
-3.66775
0
LINE
8
BLACK
6
CONTINUOUS
10
4.64416
20
-3.66775
11
4.64461
21
-3.66789
0
LINE
8
BLACK
6
CONTINUOUS
10
3.37371
20
-3.66249
11
3.37314
21
-3.66243
0
LINE
8
BLACK
6
CONTINUOUS
10
3.37314
20
-3.66243
11
3.37259
21
-3.66226
0
LINE
8
BLACK
6
CONTINUOUS
10
3.37259
20
-3.66226
11
3.37209
21
-3.66198
0
LINE
8
BLACK
6
CONTINUOUS
10
3.37209
20
-3.66198
11
3.37164
21
-3.66161
0
LINE
8
BLACK
6
CONTINUOUS
10
3.37164
20
-3.66161
11
3.37128
21
-3.66116
0
LINE
8
BLACK
6
CONTINUOUS
10
3.37128
20
-3.66116
11
3.37102
21
-3.66065
0
LINE
8
BLACK
6
CONTINUOUS
10
3.37102
20
-3.66065
11
3.37085
21
-3.6601
0
LINE
8
BLACK
6
CONTINUOUS
10
3.37085
20
-3.6601
11
3.3708
21
-3.65952
0
LINE
8
BLACK
6
CONTINUOUS
10
3.3708
20
-3.65952
11
3.37086
21
-3.65895
0
LINE
8
BLACK
6
CONTINUOUS
10
3.37086
20
-3.65895
11
3.37103
21
-3.6584
0
LINE
8
BLACK
6
CONTINUOUS
10
3.37103
20
-3.6584
11
3.37131
21
-3.65789
0
LINE
8
BLACK
6
CONTINUOUS
10
3.37131
20
-3.65789
11
3.37167
21
-3.65745
0
LINE
8
BLACK
6
CONTINUOUS
10
3.37167
20
-3.65745
11
3.37212
21
-3.65708
0
LINE
8
BLACK
6
CONTINUOUS
10
3.37212
20
-3.65708
11
3.37263
21
-3.65681
0
LINE
8
BLACK
6
CONTINUOUS
10
3.37263
20
-3.65681
11
3.37318
21
-3.65665
0
LINE
8
BLACK
6
CONTINUOUS
10
3.37318
20
-3.65665
11
3.37375
21
-3.65659
0
LINE
8
BLACK
6
CONTINUOUS
10
3.37375
20
-3.65659
11
3.391
21
-3.65659
0
LINE
8
BLACK
6
CONTINUOUS
10
3.391
20
-3.65659
11
3.37354
21
-3.63913
0
LINE
8
BLACK
6
CONTINUOUS
10
3.37354
20
-3.63913
11
3.37351
21
-3.6391
0
LINE
8
BLACK
6
CONTINUOUS
10
3.37351
20
-3.6391
11
3.37346
21
-3.63904
0
LINE
8
BLACK
6
CONTINUOUS
10
3.37346
20
-3.63904
11
3.37339
21
-3.63898
0
LINE
8
BLACK
6
CONTINUOUS
10
3.37339
20
-3.63898
11
3.37328
21
-3.63881
0
LINE
8
BLACK
6
CONTINUOUS
10
3.37328
20
-3.63881
11
3.37315
21
-3.63865
0
LINE
8
BLACK
6
CONTINUOUS
10
3.37315
20
-3.63865
11
3.37311
21
-3.63858
0
LINE
8
BLACK
6
CONTINUOUS
10
3.37311
20
-3.63858
11
3.37306
21
-3.63851
0
LINE
8
BLACK
6
CONTINUOUS
10
3.37306
20
-3.63851
11
3.37298
21
-3.63832
0
LINE
8
BLACK
6
CONTINUOUS
10
3.37298
20
-3.63832
11
3.37289
21
-3.63814
0
LINE
8
BLACK
6
CONTINUOUS
10
3.37289
20
-3.63814
11
3.37286
21
-3.63806
0
LINE
8
BLACK
6
CONTINUOUS
10
3.37286
20
-3.63806
11
3.37283
21
-3.63798
0
LINE
8
BLACK
6
CONTINUOUS
10
3.37283
20
-3.63798
11
3.37095
21
-3.63235
0
LINE
8
BLACK
6
CONTINUOUS
10
3.37095
20
-3.63235
11
3.37094
21
-3.63232
0
LINE
8
BLACK
6
CONTINUOUS
10
3.37094
20
-3.63232
11
3.3709
21
-3.63215
0
LINE
8
BLACK
6
CONTINUOUS
10
3.3709
20
-3.63215
11
3.37086
21
-3.63199
0
LINE
8
BLACK
6
CONTINUOUS
10
3.37086
20
-3.63199
11
3.37084
21
-3.63187
0
LINE
8
BLACK
6
CONTINUOUS
10
3.37084
20
-3.63187
11
3.37082
21
-3.63175
0
LINE
8
BLACK
6
CONTINUOUS
10
3.37082
20
-3.63175
11
3.37082
21
-3.63159
0
LINE
8
BLACK
6
CONTINUOUS
10
3.37082
20
-3.63159
11
3.3708
21
-3.63142
0
LINE
8
BLACK
6
CONTINUOUS
10
3.3708
20
-3.63142
11
3.3708
21
-3.62767
0
LINE
8
BLACK
6
CONTINUOUS
10
3.3708
20
-3.62767
11
3.3708
21
-3.62763
0
LINE
8
BLACK
6
CONTINUOUS
10
3.3708
20
-3.62763
11
3.37081
21
-3.62754
0
LINE
8
BLACK
6
CONTINUOUS
10
3.37081
20
-3.62754
11
3.37081
21
-3.62746
0
LINE
8
BLACK
6
CONTINUOUS
10
3.37081
20
-3.62746
11
3.37084
21
-3.62726
0
LINE
8
BLACK
6
CONTINUOUS
10
3.37084
20
-3.62726
11
3.37087
21
-3.62706
0
LINE
8
BLACK
6
CONTINUOUS
10
3.37087
20
-3.62706
11
3.37089
21
-3.62697
0
LINE
8
BLACK
6
CONTINUOUS
10
3.37089
20
-3.62697
11
3.37091
21
-3.62689
0
LINE
8
BLACK
6
CONTINUOUS
10
3.37091
20
-3.62689
11
3.37098
21
-3.6267
0
LINE
8
BLACK
6
CONTINUOUS
10
3.37098
20
-3.6267
11
3.37104
21
-3.62651
0
LINE
8
BLACK
6
CONTINUOUS
10
3.37104
20
-3.62651
11
3.37108
21
-3.62643
0
LINE
8
BLACK
6
CONTINUOUS
10
3.37108
20
-3.62643
11
3.37111
21
-3.62635
0
LINE
8
BLACK
6
CONTINUOUS
10
3.37111
20
-3.62635
11
3.37299
21
-3.6226
0
LINE
8
BLACK
6
CONTINUOUS
10
3.37299
20
-3.6226
11
3.37301
21
-3.62256
0
LINE
8
BLACK
6
CONTINUOUS
10
3.37301
20
-3.62256
11
3.3731
21
-3.62243
0
LINE
8
BLACK
6
CONTINUOUS
10
3.3731
20
-3.62243
11
3.37317
21
-3.62228
0
LINE
8
BLACK
6
CONTINUOUS
10
3.37317
20
-3.62228
11
3.37325
21
-3.62218
0
LINE
8
BLACK
6
CONTINUOUS
10
3.37325
20
-3.62218
11
3.37332
21
-3.62208
0
LINE
8
BLACK
6
CONTINUOUS
10
3.37332
20
-3.62208
11
3.37343
21
-3.62196
0
LINE
8
BLACK
6
CONTINUOUS
10
3.37343
20
-3.62196
11
3.37354
21
-3.62183
0
LINE
8
BLACK
6
CONTINUOUS
10
3.37354
20
-3.62183
11
3.37541
21
-3.61996
0
LINE
8
BLACK
6
CONTINUOUS
10
3.37541
20
-3.61996
11
3.37544
21
-3.61993
0
LINE
8
BLACK
6
CONTINUOUS
10
3.37544
20
-3.61993
11
3.37557
21
-3.61983
0
LINE
8
BLACK
6
CONTINUOUS
10
3.37557
20
-3.61983
11
3.37569
21
-3.61971
0
LINE
8
BLACK
6
CONTINUOUS
10
3.37569
20
-3.61971
11
3.3758
21
-3.61965
0
LINE
8
BLACK
6
CONTINUOUS
10
3.3758
20
-3.61965
11
3.37589
21
-3.61957
0
LINE
8
BLACK
6
CONTINUOUS
10
3.37589
20
-3.61957
11
3.37604
21
-3.61949
0
LINE
8
BLACK
6
CONTINUOUS
10
3.37604
20
-3.61949
11
3.37618
21
-3.61941
0
LINE
8
BLACK
6
CONTINUOUS
10
3.37618
20
-3.61941
11
3.37993
21
-3.61753
0
LINE
8
BLACK
6
CONTINUOUS
10
3.37993
20
-3.61753
11
3.37997
21
-3.61751
0
LINE
8
BLACK
6
CONTINUOUS
10
3.37997
20
-3.61751
11
3.38005
21
-3.61748
0
LINE
8
BLACK
6
CONTINUOUS
10
3.38005
20
-3.61748
11
3.38013
21
-3.61744
0
LINE
8
BLACK
6
CONTINUOUS
10
3.38013
20
-3.61744
11
3.38032
21
-3.61738
0
LINE
8
BLACK
6
CONTINUOUS
10
3.38032
20
-3.61738
11
3.38051
21
-3.61731
0
LINE
8
BLACK
6
CONTINUOUS
10
3.38051
20
-3.61731
11
3.3806
21
-3.6173
0
LINE
8
BLACK
6
CONTINUOUS
10
3.3806
20
-3.6173
11
3.38068
21
-3.61728
0
LINE
8
BLACK
6
CONTINUOUS
10
3.38068
20
-3.61728
11
3.38088
21
-3.61726
0
LINE
8
BLACK
6
CONTINUOUS
10
3.38088
20
-3.61726
11
3.38108
21
-3.61722
0
LINE
8
BLACK
6
CONTINUOUS
10
3.38108
20
-3.61722
11
3.38117
21
-3.61723
0
LINE
8
BLACK
6
CONTINUOUS
10
3.38117
20
-3.61723
11
3.38125
21
-3.61722
0
LINE
8
BLACK
6
CONTINUOUS
10
3.38125
20
-3.61722
11
3.39063
21
-3.61722
0
LINE
8
BLACK
6
CONTINUOUS
10
3.39063
20
-3.61722
11
3.39067
21
-3.61722
0
LINE
8
BLACK
6
CONTINUOUS
10
3.39067
20
-3.61722
11
3.39075
21
-3.61723
0
LINE
8
BLACK
6
CONTINUOUS
10
3.39075
20
-3.61723
11
3.39084
21
-3.61723
0
LINE
8
BLACK
6
CONTINUOUS
10
3.39084
20
-3.61723
11
3.39104
21
-3.61726
0
LINE
8
BLACK
6
CONTINUOUS
10
3.39104
20
-3.61726
11
3.39124
21
-3.61728
0
LINE
8
BLACK
6
CONTINUOUS
10
3.39124
20
-3.61728
11
3.39132
21
-3.61731
0
LINE
8
BLACK
6
CONTINUOUS
10
3.39132
20
-3.61731
11
3.39141
21
-3.61733
0
LINE
8
BLACK
6
CONTINUOUS
10
3.39141
20
-3.61733
11
3.3916
21
-3.6174
0
LINE
8
BLACK
6
CONTINUOUS
10
3.3916
20
-3.6174
11
3.39179
21
-3.61746
0
LINE
8
BLACK
6
CONTINUOUS
10
3.39179
20
-3.61746
11
3.39187
21
-3.6175
0
LINE
8
BLACK
6
CONTINUOUS
10
3.39187
20
-3.6175
11
3.39195
21
-3.61753
0
LINE
8
BLACK
6
CONTINUOUS
10
3.39195
20
-3.61753
11
3.3957
21
-3.61941
0
LINE
8
BLACK
6
CONTINUOUS
10
3.3957
20
-3.61941
11
3.39573
21
-3.61942
0
LINE
8
BLACK
6
CONTINUOUS
10
3.39573
20
-3.61942
11
3.39587
21
-3.61952
0
LINE
8
BLACK
6
CONTINUOUS
10
3.39587
20
-3.61952
11
3.39602
21
-3.61959
0
LINE
8
BLACK
6
CONTINUOUS
10
3.39602
20
-3.61959
11
3.39611
21
-3.61967
0
LINE
8
BLACK
6
CONTINUOUS
10
3.39611
20
-3.61967
11
3.39622
21
-3.61974
0
LINE
8
BLACK
6
CONTINUOUS
10
3.39622
20
-3.61974
11
3.39634
21
-3.61985
0
LINE
8
BLACK
6
CONTINUOUS
10
3.39634
20
-3.61985
11
3.39646
21
-3.61996
0
LINE
8
BLACK
6
CONTINUOUS
10
3.39646
20
-3.61996
11
3.39834
21
-3.62183
0
LINE
8
BLACK
6
CONTINUOUS
10
3.39834
20
-3.62183
11
3.39837
21
-3.62186
0
LINE
8
BLACK
6
CONTINUOUS
10
3.39837
20
-3.62186
11
3.39873
21
-3.62231
0
LINE
8
BLACK
6
CONTINUOUS
10
3.39873
20
-3.62231
11
3.39899
21
-3.62283
0
LINE
8
BLACK
6
CONTINUOUS
10
3.39899
20
-3.62283
11
3.39915
21
-3.62338
0
LINE
8
BLACK
6
CONTINUOUS
10
3.39915
20
-3.62338
11
3.3992
21
-3.62395
0
LINE
8
BLACK
6
CONTINUOUS
10
3.3992
20
-3.62395
11
3.39914
21
-3.62453
0
LINE
8
BLACK
6
CONTINUOUS
10
3.39914
20
-3.62453
11
3.39897
21
-3.62508
0
LINE
8
BLACK
6
CONTINUOUS
10
3.39897
20
-3.62508
11
3.39869
21
-3.62558
0
LINE
8
BLACK
6
CONTINUOUS
10
3.39869
20
-3.62558
11
3.39832
21
-3.62602
0
LINE
8
BLACK
6
CONTINUOUS
10
3.39832
20
-3.62602
11
3.39788
21
-3.62639
0
LINE
8
BLACK
6
CONTINUOUS
10
3.39788
20
-3.62639
11
3.39737
21
-3.62666
0
LINE
8
BLACK
6
CONTINUOUS
10
3.39737
20
-3.62666
11
3.39681
21
-3.62682
0
LINE
8
BLACK
6
CONTINUOUS
10
3.39681
20
-3.62682
11
3.39624
21
-3.62687
0
LINE
8
BLACK
6
CONTINUOUS
10
3.39624
20
-3.62687
11
3.39567
21
-3.62682
0
LINE
8
BLACK
6
CONTINUOUS
10
3.39567
20
-3.62682
11
3.39512
21
-3.62665
0
LINE
8
BLACK
6
CONTINUOUS
10
3.39512
20
-3.62665
11
3.39461
21
-3.62638
0
LINE
8
BLACK
6
CONTINUOUS
10
3.39461
20
-3.62638
11
3.39416
21
-3.62601
0
LINE
8
BLACK
6
CONTINUOUS
10
3.39416
20
-3.62601
11
3.39263
21
-3.62447
0
LINE
8
BLACK
6
CONTINUOUS
10
3.39263
20
-3.62447
11
3.38993
21
-3.62313
0
LINE
8
BLACK
6
CONTINUOUS
10
3.38993
20
-3.62313
11
3.38195
21
-3.62313
0
LINE
8
BLACK
6
CONTINUOUS
10
3.38195
20
-3.62313
11
3.37925
21
-3.62447
0
LINE
8
BLACK
6
CONTINUOUS
10
3.37925
20
-3.62447
11
3.37805
21
-3.62567
0
LINE
8
BLACK
6
CONTINUOUS
10
3.37805
20
-3.62567
11
3.37671
21
-3.62837
0
LINE
8
BLACK
6
CONTINUOUS
10
3.37671
20
-3.62837
11
3.37671
21
-3.63094
0
LINE
8
BLACK
6
CONTINUOUS
10
3.37671
20
-3.63094
11
3.37821
21
-3.63545
0
LINE
8
BLACK
6
CONTINUOUS
10
3.37821
20
-3.63545
11
3.40021
21
-3.65745
0
LINE
8
BLACK
6
CONTINUOUS
10
3.40021
20
-3.65745
11
3.40023
21
-3.65748
0
LINE
8
BLACK
6
CONTINUOUS
10
3.40023
20
-3.65748
11
3.40023
21
-3.65748
0
LINE
8
BLACK
6
CONTINUOUS
10
3.40023
20
-3.65748
11
3.40024
21
-3.65748
0
LINE
8
BLACK
6
CONTINUOUS
10
3.40024
20
-3.65748
11
3.40024
21
-3.65748
0
LINE
8
BLACK
6
CONTINUOUS
10
3.40024
20
-3.65748
11
3.40042
21
-3.65771
0
LINE
8
BLACK
6
CONTINUOUS
10
3.40042
20
-3.65771
11
3.4006
21
-3.65793
0
LINE
8
BLACK
6
CONTINUOUS
10
3.4006
20
-3.65793
11
3.4006
21
-3.65793
0
LINE
8
BLACK
6
CONTINUOUS
10
3.4006
20
-3.65793
11
3.4006
21
-3.65793
0
LINE
8
BLACK
6
CONTINUOUS
10
3.4006
20
-3.65793
11
3.40073
21
-3.65818
0
LINE
8
BLACK
6
CONTINUOUS
10
3.40073
20
-3.65818
11
3.40086
21
-3.65844
0
LINE
8
BLACK
6
CONTINUOUS
10
3.40086
20
-3.65844
11
3.40086
21
-3.65844
0
LINE
8
BLACK
6
CONTINUOUS
10
3.40086
20
-3.65844
11
3.40087
21
-3.65845
0
LINE
8
BLACK
6
CONTINUOUS
10
3.40087
20
-3.65845
11
3.40095
21
-3.65872
0
LINE
8
BLACK
6
CONTINUOUS
10
3.40095
20
-3.65872
11
3.40103
21
-3.65899
0
LINE
8
BLACK
6
CONTINUOUS
10
3.40103
20
-3.65899
11
3.40103
21
-3.65899
0
LINE
8
BLACK
6
CONTINUOUS
10
3.40103
20
-3.65899
11
3.40103
21
-3.659
0
LINE
8
BLACK
6
CONTINUOUS
10
3.40103
20
-3.659
11
3.40105
21
-3.65929
0
LINE
8
BLACK
6
CONTINUOUS
10
3.40105
20
-3.65929
11
3.40108
21
-3.65956
0
LINE
8
BLACK
6
CONTINUOUS
10
3.40108
20
-3.65956
11
3.40108
21
-3.65957
0
LINE
8
BLACK
6
CONTINUOUS
10
3.40108
20
-3.65957
11
3.40108
21
-3.65957
0
LINE
8
BLACK
6
CONTINUOUS
10
3.40108
20
-3.65957
11
3.40105
21
-3.65985
0
LINE
8
BLACK
6
CONTINUOUS
10
3.40105
20
-3.65985
11
3.40102
21
-3.66014
0
LINE
8
BLACK
6
CONTINUOUS
10
3.40102
20
-3.66014
11
3.40102
21
-3.66014
0
LINE
8
BLACK
6
CONTINUOUS
10
3.40102
20
-3.66014
11
3.40102
21
-3.66015
0
LINE
8
BLACK
6
CONTINUOUS
10
3.40102
20
-3.66015
11
3.40094
21
-3.6604
0
LINE
8
BLACK
6
CONTINUOUS
10
3.40094
20
-3.6604
11
3.40085
21
-3.66069
0
LINE
8
BLACK
6
CONTINUOUS
10
3.40085
20
-3.66069
11
3.40084
21
-3.66069
0
LINE
8
BLACK
6
CONTINUOUS
10
3.40084
20
-3.66069
11
3.40084
21
-3.6607
0
LINE
8
BLACK
6
CONTINUOUS
10
3.40084
20
-3.6607
11
3.40071
21
-3.66094
0
LINE
8
BLACK
6
CONTINUOUS
10
3.40071
20
-3.66094
11
3.40057
21
-3.66119
0
LINE
8
BLACK
6
CONTINUOUS
10
3.40057
20
-3.66119
11
3.40057
21
-3.6612
0
LINE
8
BLACK
6
CONTINUOUS
10
3.40057
20
-3.6612
11
3.40057
21
-3.6612
0
LINE
8
BLACK
6
CONTINUOUS
10
3.40057
20
-3.6612
11
3.40039
21
-3.66142
0
LINE
8
BLACK
6
CONTINUOUS
10
3.40039
20
-3.66142
11
3.40021
21
-3.66164
0
LINE
8
BLACK
6
CONTINUOUS
10
3.40021
20
-3.66164
11
3.4002
21
-3.66164
0
LINE
8
BLACK
6
CONTINUOUS
10
3.4002
20
-3.66164
11
3.4002
21
-3.66164
0
LINE
8
BLACK
6
CONTINUOUS
10
3.4002
20
-3.66164
11
3.39998
21
-3.66182
0
LINE
8
BLACK
6
CONTINUOUS
10
3.39998
20
-3.66182
11
3.39976
21
-3.662
0
LINE
8
BLACK
6
CONTINUOUS
10
3.39976
20
-3.662
11
3.39975
21
-3.662
0
LINE
8
BLACK
6
CONTINUOUS
10
3.39975
20
-3.662
11
3.39975
21
-3.66201
0
LINE
8
BLACK
6
CONTINUOUS
10
3.39975
20
-3.66201
11
3.3995
21
-3.66214
0
LINE
8
BLACK
6
CONTINUOUS
10
3.3995
20
-3.66214
11
3.39925
21
-3.66227
0
LINE
8
BLACK
6
CONTINUOUS
10
3.39925
20
-3.66227
11
3.39925
21
-3.66227
0
LINE
8
BLACK
6
CONTINUOUS
10
3.39925
20
-3.66227
11
3.39924
21
-3.66228
0
LINE
8
BLACK
6
CONTINUOUS
10
3.39924
20
-3.66228
11
3.39897
21
-3.66236
0
LINE
8
BLACK
6
CONTINUOUS
10
3.39897
20
-3.66236
11
3.3987
21
-3.66244
0
LINE
8
BLACK
6
CONTINUOUS
10
3.3987
20
-3.66244
11
3.39869
21
-3.66244
0
LINE
8
BLACK
6
CONTINUOUS
10
3.39869
20
-3.66244
11
3.39869
21
-3.66244
0
LINE
8
BLACK
6
CONTINUOUS
10
3.39869
20
-3.66244
11
3.39841
21
-3.66247
0
LINE
8
BLACK
6
CONTINUOUS
10
3.39841
20
-3.66247
11
3.39813
21
-3.6625
0
LINE
8
BLACK
6
CONTINUOUS
10
3.39813
20
-3.6625
11
3.37375
21
-3.6625
0
LINE
8
BLACK
6
CONTINUOUS
10
3.37375
20
-3.6625
11
3.37371
21
-3.66249
0
LINE
8
BLACK
6
CONTINUOUS
10
3.41372
20
-3.61728
11
3.41427
21
-3.61745
0
LINE
8
BLACK
6
CONTINUOUS
10
3.41427
20
-3.61745
11
3.41477
21
-3.61772
0
LINE
8
BLACK
6
CONTINUOUS
10
3.41477
20
-3.61772
11
3.41522
21
-3.61809
0
LINE
8
BLACK
6
CONTINUOUS
10
3.41522
20
-3.61809
11
3.41558
21
-3.61854
0
LINE
8
BLACK
6
CONTINUOUS
10
3.41558
20
-3.61854
11
3.41585
21
-3.61905
0
LINE
8
BLACK
6
CONTINUOUS
10
3.41585
20
-3.61905
11
3.41602
21
-3.6196
0
LINE
8
BLACK
6
CONTINUOUS
10
3.41602
20
-3.6196
11
3.41608
21
-3.62017
0
LINE
8
BLACK
6
CONTINUOUS
10
3.41608
20
-3.62017
11
3.41608
21
-3.64781
0
LINE
8
BLACK
6
CONTINUOUS
10
3.41608
20
-3.64781
11
3.41758
21
-3.65232
0
LINE
8
BLACK
6
CONTINUOUS
10
3.41758
20
-3.65232
11
3.42034
21
-3.65509
0
LINE
8
BLACK
6
CONTINUOUS
10
3.42034
20
-3.65509
11
3.42485
21
-3.65659
0
LINE
8
BLACK
6
CONTINUOUS
10
3.42485
20
-3.65659
11
3.42812
21
-3.65659
0
LINE
8
BLACK
6
CONTINUOUS
10
3.42812
20
-3.65659
11
3.42816
21
-3.65659
0
LINE
8
BLACK
6
CONTINUOUS
10
3.42816
20
-3.65659
11
3.42874
21
-3.65665
0
LINE
8
BLACK
6
CONTINUOUS
10
3.42874
20
-3.65665
11
3.42928
21
-3.65683
0
LINE
8
BLACK
6
CONTINUOUS
10
3.42928
20
-3.65683
11
3.42979
21
-3.65711
0
LINE
8
BLACK
6
CONTINUOUS
10
3.42979
20
-3.65711
11
3.43023
21
-3.65748
0
LINE
8
BLACK
6
CONTINUOUS
10
3.43023
20
-3.65748
11
3.43059
21
-3.65793
0
LINE
8
BLACK
6
CONTINUOUS
10
3.43059
20
-3.65793
11
3.43086
21
-3.65844
0
LINE
8
BLACK
6
CONTINUOUS
10
3.43086
20
-3.65844
11
3.43102
21
-3.65899
0
LINE
8
BLACK
6
CONTINUOUS
10
3.43102
20
-3.65899
11
3.43107
21
-3.65956
0
LINE
8
BLACK
6
CONTINUOUS
10
3.43107
20
-3.65956
11
3.43101
21
-3.66014
0
LINE
8
BLACK
6
CONTINUOUS
10
3.43101
20
-3.66014
11
3.43084
21
-3.66069
0
LINE
8
BLACK
6
CONTINUOUS
10
3.43084
20
-3.66069
11
3.43057
21
-3.66119
0
LINE
8
BLACK
6
CONTINUOUS
10
3.43057
20
-3.66119
11
3.4302
21
-3.66164
0
LINE
8
BLACK
6
CONTINUOUS
10
3.4302
20
-3.66164
11
3.42976
21
-3.662
0
LINE
8
BLACK
6
CONTINUOUS
10
3.42976
20
-3.662
11
3.42925
21
-3.66227
0
LINE
8
BLACK
6
CONTINUOUS
10
3.42925
20
-3.66227
11
3.42869
21
-3.66244
0
LINE
8
BLACK
6
CONTINUOUS
10
3.42869
20
-3.66244
11
3.42812
21
-3.6625
0
LINE
8
BLACK
6
CONTINUOUS
10
3.42812
20
-3.6625
11
3.42437
21
-3.6625
0
LINE
8
BLACK
6
CONTINUOUS
10
3.42437
20
-3.6625
11
3.42433
21
-3.66249
0
LINE
8
BLACK
6
CONTINUOUS
10
3.42433
20
-3.66249
11
3.42417
21
-3.66248
0
LINE
8
BLACK
6
CONTINUOUS
10
3.42417
20
-3.66248
11
3.424
21
-3.66247
0
LINE
8
BLACK
6
CONTINUOUS
10
3.424
20
-3.66247
11
3.42388
21
-3.66244
0
LINE
8
BLACK
6
CONTINUOUS
10
3.42388
20
-3.66244
11
3.42376
21
-3.66243
0
LINE
8
BLACK
6
CONTINUOUS
10
3.42376
20
-3.66243
11
3.4236
21
-3.66238
0
LINE
8
BLACK
6
CONTINUOUS
10
3.4236
20
-3.66238
11
3.42344
21
-3.66234
0
LINE
8
BLACK
6
CONTINUOUS
10
3.42344
20
-3.66234
11
3.41781
21
-3.66047
0
LINE
8
BLACK
6
CONTINUOUS
10
3.41781
20
-3.66047
11
3.41777
21
-3.66046
0
LINE
8
BLACK
6
CONTINUOUS
10
3.41777
20
-3.66046
11
3.4177
21
-3.66042
0
LINE
8
BLACK
6
CONTINUOUS
10
3.4177
20
-3.66042
11
3.41761
21
-3.66039
0
LINE
8
BLACK
6
CONTINUOUS
10
3.41761
20
-3.66039
11
3.41743
21
-3.6603
0
LINE
8
BLACK
6
CONTINUOUS
10
3.41743
20
-3.6603
11
3.41725
21
-3.66021
0
LINE
8
BLACK
6
CONTINUOUS
10
3.41725
20
-3.66021
11
3.41718
21
-3.66016
0
LINE
8
BLACK
6
CONTINUOUS
10
3.41718
20
-3.66016
11
3.41711
21
-3.66012
0
LINE
8
BLACK
6
CONTINUOUS
10
3.41711
20
-3.66012
11
3.41695
21
-3.65999
0
LINE
8
BLACK
6
CONTINUOUS
10
3.41695
20
-3.65999
11
3.41679
21
-3.65987
0
LINE
8
BLACK
6
CONTINUOUS
10
3.41679
20
-3.65987
11
3.41673
21
-3.65981
0
LINE
8
BLACK
6
CONTINUOUS
10
3.41673
20
-3.65981
11
3.41666
21
-3.65976
0
LINE
8
BLACK
6
CONTINUOUS
10
3.41666
20
-3.65976
11
3.41291
21
-3.65601
0
LINE
8
BLACK
6
CONTINUOUS
10
3.41291
20
-3.65601
11
3.41288
21
-3.65598
0
LINE
8
BLACK
6
CONTINUOUS
10
3.41288
20
-3.65598
11
3.41283
21
-3.65591
0
LINE
8
BLACK
6
CONTINUOUS
10
3.41283
20
-3.65591
11
3.41276
21
-3.65585
0
LINE
8
BLACK
6
CONTINUOUS
10
3.41276
20
-3.65585
11
3.41265
21
-3.65568
0
LINE
8
BLACK
6
CONTINUOUS
10
3.41265
20
-3.65568
11
3.41252
21
-3.65553
0
LINE
8
BLACK
6
CONTINUOUS
10
3.41252
20
-3.65553
11
3.41248
21
-3.65545
0
LINE
8
BLACK
6
CONTINUOUS
10
3.41248
20
-3.65545
11
3.41243
21
-3.65538
0
LINE
8
BLACK
6
CONTINUOUS
10
3.41243
20
-3.65538
11
3.41235
21
-3.65519
0
LINE
8
BLACK
6
CONTINUOUS
10
3.41235
20
-3.65519
11
3.41226
21
-3.65501
0
LINE
8
BLACK
6
CONTINUOUS
10
3.41226
20
-3.65501
11
3.41223
21
-3.65493
0
LINE
8
BLACK
6
CONTINUOUS
10
3.41223
20
-3.65493
11
3.4122
21
-3.65485
0
LINE
8
BLACK
6
CONTINUOUS
10
3.4122
20
-3.65485
11
3.41032
21
-3.64923
0
LINE
8
BLACK
6
CONTINUOUS
10
3.41032
20
-3.64923
11
3.41031
21
-3.64919
0
LINE
8
BLACK
6
CONTINUOUS
10
3.41031
20
-3.64919
11
3.41027
21
-3.64903
0
LINE
8
BLACK
6
CONTINUOUS
10
3.41027
20
-3.64903
11
3.41023
21
-3.64887
0
LINE
8
BLACK
6
CONTINUOUS
10
3.41023
20
-3.64887
11
3.41021
21
-3.64874
0
LINE
8
BLACK
6
CONTINUOUS
10
3.41021
20
-3.64874
11
3.41019
21
-3.64862
0
LINE
8
BLACK
6
CONTINUOUS
10
3.41019
20
-3.64862
11
3.41019
21
-3.64846
0
LINE
8
BLACK
6
CONTINUOUS
10
3.41019
20
-3.64846
11
3.41017
21
-3.64829
0
LINE
8
BLACK
6
CONTINUOUS
10
3.41017
20
-3.64829
11
3.41017
21
-3.62017
0
LINE
8
BLACK
6
CONTINUOUS
10
3.41017
20
-3.62017
11
3.41017
21
-3.62013
0
LINE
8
BLACK
6
CONTINUOUS
10
3.41017
20
-3.62013
11
3.41024
21
-3.61956
0
LINE
8
BLACK
6
CONTINUOUS
10
3.41024
20
-3.61956
11
3.41041
21
-3.61901
0
LINE
8
BLACK
6
CONTINUOUS
10
3.41041
20
-3.61901
11
3.41069
21
-3.6185
0
LINE
8
BLACK
6
CONTINUOUS
10
3.41069
20
-3.6185
11
3.41106
21
-3.61806
0
LINE
8
BLACK
6
CONTINUOUS
10
3.41106
20
-3.61806
11
3.41151
21
-3.6177
0
LINE
8
BLACK
6
CONTINUOUS
10
3.41151
20
-3.6177
11
3.41202
21
-3.61743
0
LINE
8
BLACK
6
CONTINUOUS
10
3.41202
20
-3.61743
11
3.41257
21
-3.61727
0
LINE
8
BLACK
6
CONTINUOUS
10
3.41257
20
-3.61727
11
3.41314
21
-3.61722
0
LINE
8
BLACK
6
CONTINUOUS
10
3.41314
20
-3.61722
11
3.41372
21
-3.61728
0
LINE
8
BLACK
6
CONTINUOUS
10
3.98176
20
-3.57267
11
3.98221
21
-3.57281
0
LINE
8
BLACK
6
CONTINUOUS
10
3.98221
20
-3.57281
11
3.98262
21
-3.57303
0
LINE
8
BLACK
6
CONTINUOUS
10
3.98262
20
-3.57303
11
3.98298
21
-3.57332
0
LINE
8
BLACK
6
CONTINUOUS
10
3.98298
20
-3.57332
11
3.98327
21
-3.57368
0
LINE
8
BLACK
6
CONTINUOUS
10
3.98327
20
-3.57368
11
3.98349
21
-3.57409
0
LINE
8
BLACK
6
CONTINUOUS
10
3.98349
20
-3.57409
11
3.98363
21
-3.57454
0
LINE
8
BLACK
6
CONTINUOUS
10
3.98363
20
-3.57454
11
3.98366
21
-3.57488
0
LINE
8
BLACK
6
CONTINUOUS
10
3.98366
20
-3.57488
11
3.98366
21
-3.60256
0
LINE
8
BLACK
6
CONTINUOUS
10
3.98366
20
-3.60256
11
4.02512
21
-3.60256
0
LINE
8
BLACK
6
CONTINUOUS
10
4.02512
20
-3.60256
11
4.02546
21
-3.60259
0
LINE
8
BLACK
6
CONTINUOUS
10
4.02546
20
-3.60259
11
4.02591
21
-3.60273
0
LINE
8
BLACK
6
CONTINUOUS
10
4.02591
20
-3.60273
11
4.02632
21
-3.60295
0
LINE
8
BLACK
6
CONTINUOUS
10
4.02632
20
-3.60295
11
4.02668
21
-3.60324
0
LINE
8
BLACK
6
CONTINUOUS
10
4.02668
20
-3.60324
11
4.02697
21
-3.6036
0
LINE
8
BLACK
6
CONTINUOUS
10
4.02697
20
-3.6036
11
4.02719
21
-3.60401
0
LINE
8
BLACK
6
CONTINUOUS
10
4.02719
20
-3.60401
11
4.02733
21
-3.60446
0
LINE
8
BLACK
6
CONTINUOUS
10
4.02733
20
-3.60446
11
4.02737
21
-3.60492
0
LINE
8
BLACK
6
CONTINUOUS
10
4.02737
20
-3.60492
11
4.02733
21
-3.60538
0
LINE
8
BLACK
6
CONTINUOUS
10
4.02733
20
-3.60538
11
4.02719
21
-3.60583
0
LINE
8
BLACK
6
CONTINUOUS
10
4.02719
20
-3.60583
11
4.02697
21
-3.60624
0
LINE
8
BLACK
6
CONTINUOUS
10
4.02697
20
-3.60624
11
4.02668
21
-3.6066
0
LINE
8
BLACK
6
CONTINUOUS
10
4.02668
20
-3.6066
11
4.02632
21
-3.60689
0
LINE
8
BLACK
6
CONTINUOUS
10
4.02632
20
-3.60689
11
4.02591
21
-3.60711
0
LINE
8
BLACK
6
CONTINUOUS
10
4.02591
20
-3.60711
11
4.02546
21
-3.60725
0
LINE
8
BLACK
6
CONTINUOUS
10
4.02546
20
-3.60725
11
4.02512
21
-3.60728
0
LINE
8
BLACK
6
CONTINUOUS
10
4.02512
20
-3.60728
11
3.98142
21
-3.60728
0
LINE
8
BLACK
6
CONTINUOUS
10
3.98142
20
-3.60728
11
3.9813
21
-3.60729
0
LINE
8
BLACK
6
CONTINUOUS
10
3.9813
20
-3.60729
11
3.98118
21
-3.60728
0
LINE
8
BLACK
6
CONTINUOUS
10
3.98118
20
-3.60728
11
3.98118
21
-3.60728
0
LINE
8
BLACK
6
CONTINUOUS
10
3.98118
20
-3.60728
11
3.98084
21
-3.60725
0
LINE
8
BLACK
6
CONTINUOUS
10
3.98084
20
-3.60725
11
3.98039
21
-3.60711
0
LINE
8
BLACK
6
CONTINUOUS
10
3.98039
20
-3.60711
11
3.97998
21
-3.60689
0
LINE
8
BLACK
6
CONTINUOUS
10
3.97998
20
-3.60689
11
3.97962
21
-3.6066
0
LINE
8
BLACK
6
CONTINUOUS
10
3.97962
20
-3.6066
11
3.97933
21
-3.60624
0
LINE
8
BLACK
6
CONTINUOUS
10
3.97933
20
-3.60624
11
3.97911
21
-3.60583
0
LINE
8
BLACK
6
CONTINUOUS
10
3.97911
20
-3.60583
11
3.97897
21
-3.60538
0
LINE
8
BLACK
6
CONTINUOUS
10
3.97897
20
-3.60538
11
3.97893
21
-3.60492
0
LINE
8
BLACK
6
CONTINUOUS
10
3.97893
20
-3.60492
11
3.97894
21
-3.6048
0
LINE
8
BLACK
6
CONTINUOUS
10
3.97894
20
-3.6048
11
3.97894
21
-3.57488
0
LINE
8
BLACK
6
CONTINUOUS
10
3.97894
20
-3.57488
11
3.97897
21
-3.57454
0
LINE
8
BLACK
6
CONTINUOUS
10
3.97897
20
-3.57454
11
3.97911
21
-3.57409
0
LINE
8
BLACK
6
CONTINUOUS
10
3.97911
20
-3.57409
11
3.97933
21
-3.57368
0
LINE
8
BLACK
6
CONTINUOUS
10
3.97933
20
-3.57368
11
3.97962
21
-3.57332
0
LINE
8
BLACK
6
CONTINUOUS
10
3.97962
20
-3.57332
11
3.97998
21
-3.57303
0
LINE
8
BLACK
6
CONTINUOUS
10
3.97998
20
-3.57303
11
3.98039
21
-3.57281
0
LINE
8
BLACK
6
CONTINUOUS
10
3.98039
20
-3.57281
11
3.98084
21
-3.57267
0
LINE
8
BLACK
6
CONTINUOUS
10
3.98084
20
-3.57267
11
3.9813
21
-3.57263
0
LINE
8
BLACK
6
CONTINUOUS
10
3.9813
20
-3.57263
11
3.98176
21
-3.57267
0
LINE
8
BLACK
6
CONTINUOUS
10
3.35676
20
-3.57267
11
3.35721
21
-3.57281
0
LINE
8
BLACK
6
CONTINUOUS
10
3.35721
20
-3.57281
11
3.35762
21
-3.57303
0
LINE
8
BLACK
6
CONTINUOUS
10
3.35762
20
-3.57303
11
3.35798
21
-3.57332
0
LINE
8
BLACK
6
CONTINUOUS
10
3.35798
20
-3.57332
11
3.35827
21
-3.57368
0
LINE
8
BLACK
6
CONTINUOUS
10
3.35827
20
-3.57368
11
3.35849
21
-3.57409
0
LINE
8
BLACK
6
CONTINUOUS
10
3.35849
20
-3.57409
11
3.35863
21
-3.57454
0
LINE
8
BLACK
6
CONTINUOUS
10
3.35863
20
-3.57454
11
3.35866
21
-3.57488
0
LINE
8
BLACK
6
CONTINUOUS
10
3.35866
20
-3.57488
11
3.35866
21
-3.60256
0
LINE
8
BLACK
6
CONTINUOUS
10
3.35866
20
-3.60256
11
3.40012
21
-3.60256
0
LINE
8
BLACK
6
CONTINUOUS
10
3.40012
20
-3.60256
11
3.40046
21
-3.60259
0
LINE
8
BLACK
6
CONTINUOUS
10
3.40046
20
-3.60259
11
3.40091
21
-3.60273
0
LINE
8
BLACK
6
CONTINUOUS
10
3.40091
20
-3.60273
11
3.40132
21
-3.60295
0
LINE
8
BLACK
6
CONTINUOUS
10
3.40132
20
-3.60295
11
3.40168
21
-3.60324
0
LINE
8
BLACK
6
CONTINUOUS
10
3.40168
20
-3.60324
11
3.40197
21
-3.6036
0
LINE
8
BLACK
6
CONTINUOUS
10
3.40197
20
-3.6036
11
3.40219
21
-3.60401
0
LINE
8
BLACK
6
CONTINUOUS
10
3.40219
20
-3.60401
11
3.40233
21
-3.60446
0
LINE
8
BLACK
6
CONTINUOUS
10
3.40233
20
-3.60446
11
3.40237
21
-3.60492
0
LINE
8
BLACK
6
CONTINUOUS
10
3.40237
20
-3.60492
11
3.40233
21
-3.60538
0
LINE
8
BLACK
6
CONTINUOUS
10
3.40233
20
-3.60538
11
3.40219
21
-3.60583
0
LINE
8
BLACK
6
CONTINUOUS
10
3.40219
20
-3.60583
11
3.40197
21
-3.60624
0
LINE
8
BLACK
6
CONTINUOUS
10
3.40197
20
-3.60624
11
3.40168
21
-3.6066
0
LINE
8
BLACK
6
CONTINUOUS
10
3.40168
20
-3.6066
11
3.40132
21
-3.60689
0
LINE
8
BLACK
6
CONTINUOUS
10
3.40132
20
-3.60689
11
3.40091
21
-3.60711
0
LINE
8
BLACK
6
CONTINUOUS
10
3.40091
20
-3.60711
11
3.40046
21
-3.60725
0
LINE
8
BLACK
6
CONTINUOUS
10
3.40046
20
-3.60725
11
3.40012
21
-3.60728
0
LINE
8
BLACK
6
CONTINUOUS
10
3.40012
20
-3.60728
11
3.35642
21
-3.60728
0
LINE
8
BLACK
6
CONTINUOUS
10
3.35642
20
-3.60728
11
3.3563
21
-3.60729
0
LINE
8
BLACK
6
CONTINUOUS
10
3.3563
20
-3.60729
11
3.35618
21
-3.60728
0
LINE
8
BLACK
6
CONTINUOUS
10
3.35618
20
-3.60728
11
3.35618
21
-3.60728
0
LINE
8
BLACK
6
CONTINUOUS
10
3.35618
20
-3.60728
11
3.35584
21
-3.60725
0
LINE
8
BLACK
6
CONTINUOUS
10
3.35584
20
-3.60725
11
3.35539
21
-3.60711
0
LINE
8
BLACK
6
CONTINUOUS
10
3.35539
20
-3.60711
11
3.35498
21
-3.60689
0
LINE
8
BLACK
6
CONTINUOUS
10
3.35498
20
-3.60689
11
3.35462
21
-3.6066
0
LINE
8
BLACK
6
CONTINUOUS
10
3.35462
20
-3.6066
11
3.35433
21
-3.60624
0
LINE
8
BLACK
6
CONTINUOUS
10
3.35433
20
-3.60624
11
3.35411
21
-3.60583
0
LINE
8
BLACK
6
CONTINUOUS
10
3.35411
20
-3.60583
11
3.35397
21
-3.60538
0
LINE
8
BLACK
6
CONTINUOUS
10
3.35397
20
-3.60538
11
3.35393
21
-3.60492
0
LINE
8
BLACK
6
CONTINUOUS
10
3.35393
20
-3.60492
11
3.35394
21
-3.6048
0
LINE
8
BLACK
6
CONTINUOUS
10
3.35394
20
-3.6048
11
3.35394
21
-3.57488
0
LINE
8
BLACK
6
CONTINUOUS
10
3.35394
20
-3.57488
11
3.35397
21
-3.57454
0
LINE
8
BLACK
6
CONTINUOUS
10
3.35397
20
-3.57454
11
3.35411
21
-3.57409
0
LINE
8
BLACK
6
CONTINUOUS
10
3.35411
20
-3.57409
11
3.35433
21
-3.57368
0
LINE
8
BLACK
6
CONTINUOUS
10
3.35433
20
-3.57368
11
3.35462
21
-3.57332
0
LINE
8
BLACK
6
CONTINUOUS
10
3.35462
20
-3.57332
11
3.35498
21
-3.57303
0
LINE
8
BLACK
6
CONTINUOUS
10
3.35498
20
-3.57303
11
3.35539
21
-3.57281
0
LINE
8
BLACK
6
CONTINUOUS
10
3.35539
20
-3.57281
11
3.35584
21
-3.57267
0
LINE
8
BLACK
6
CONTINUOUS
10
3.35584
20
-3.57267
11
3.3563
21
-3.57263
0
LINE
8
BLACK
6
CONTINUOUS
10
3.3563
20
-3.57263
11
3.35676
21
-3.57267
0
LINE
8
BLACK
6
CONTINUOUS
10
3.98366
20
-3.54775
11
3.98363
21
-3.5481
0
LINE
8
BLACK
6
CONTINUOUS
10
3.98363
20
-3.5481
11
3.98349
21
-3.54855
0
LINE
8
BLACK
6
CONTINUOUS
10
3.98349
20
-3.54855
11
3.98327
21
-3.54896
0
LINE
8
BLACK
6
CONTINUOUS
10
3.98327
20
-3.54896
11
3.98298
21
-3.54932
0
LINE
8
BLACK
6
CONTINUOUS
10
3.98298
20
-3.54932
11
3.98262
21
-3.54961
0
LINE
8
BLACK
6
CONTINUOUS
10
3.98262
20
-3.54961
11
3.98221
21
-3.54983
0
LINE
8
BLACK
6
CONTINUOUS
10
3.98221
20
-3.54983
11
3.98176
21
-3.54997
0
LINE
8
BLACK
6
CONTINUOUS
10
3.98176
20
-3.54997
11
3.9813
21
-3.55001
0
LINE
8
BLACK
6
CONTINUOUS
10
3.9813
20
-3.55001
11
3.98084
21
-3.54997
0
LINE
8
BLACK
6
CONTINUOUS
10
3.98084
20
-3.54997
11
3.98039
21
-3.54983
0
LINE
8
BLACK
6
CONTINUOUS
10
3.98039
20
-3.54983
11
3.97998
21
-3.54961
0
LINE
8
BLACK
6
CONTINUOUS
10
3.97998
20
-3.54961
11
3.97962
21
-3.54932
0
LINE
8
BLACK
6
CONTINUOUS
10
3.97962
20
-3.54932
11
3.97933
21
-3.54896
0
LINE
8
BLACK
6
CONTINUOUS
10
3.97933
20
-3.54896
11
3.97911
21
-3.54855
0
LINE
8
BLACK
6
CONTINUOUS
10
3.97911
20
-3.54855
11
3.97897
21
-3.5481
0
LINE
8
BLACK
6
CONTINUOUS
10
3.97897
20
-3.5481
11
3.97894
21
-3.54775
0
LINE
8
BLACK
6
CONTINUOUS
10
3.97894
20
-3.54775
11
3.97894
21
-3.54519
0
LINE
8
BLACK
6
CONTINUOUS
10
3.97894
20
-3.54519
11
3.97893
21
-3.54508
0
LINE
8
BLACK
6
CONTINUOUS
10
3.97893
20
-3.54508
11
3.97897
21
-3.54462
0
LINE
8
BLACK
6
CONTINUOUS
10
3.97897
20
-3.54462
11
3.97911
21
-3.54417
0
LINE
8
BLACK
6
CONTINUOUS
10
3.97911
20
-3.54417
11
3.97933
21
-3.54376
0
LINE
8
BLACK
6
CONTINUOUS
10
3.97933
20
-3.54376
11
3.97962
21
-3.5434
0
LINE
8
BLACK
6
CONTINUOUS
10
3.97962
20
-3.5434
11
3.97998
21
-3.54311
0
LINE
8
BLACK
6
CONTINUOUS
10
3.97998
20
-3.54311
11
3.98039
21
-3.54289
0
LINE
8
BLACK
6
CONTINUOUS
10
3.98039
20
-3.54289
11
3.98084
21
-3.54275
0
LINE
8
BLACK
6
CONTINUOUS
10
3.98084
20
-3.54275
11
3.98118
21
-3.54272
0
LINE
8
BLACK
6
CONTINUOUS
10
3.98118
20
-3.54272
11
3.9813
21
-3.54271
0
LINE
8
BLACK
6
CONTINUOUS
10
3.9813
20
-3.54271
11
3.98142
21
-3.54272
0
LINE
8
BLACK
6
CONTINUOUS
10
3.98142
20
-3.54272
11
4.06858
21
-3.54272
0
LINE
8
BLACK
6
CONTINUOUS
10
4.06858
20
-3.54272
11
4.0687
21
-3.54271
0
LINE
8
BLACK
6
CONTINUOUS
10
4.0687
20
-3.54271
11
4.06882
21
-3.54272
0
LINE
8
BLACK
6
CONTINUOUS
10
4.06882
20
-3.54272
11
4.06882
21
-3.54272
0
LINE
8
BLACK
6
CONTINUOUS
10
4.06882
20
-3.54272
11
4.06916
21
-3.54275
0
LINE
8
BLACK
6
CONTINUOUS
10
4.06916
20
-3.54275
11
4.06961
21
-3.54289
0
LINE
8
BLACK
6
CONTINUOUS
10
4.06961
20
-3.54289
11
4.07002
21
-3.54311
0
LINE
8
BLACK
6
CONTINUOUS
10
4.07002
20
-3.54311
11
4.07038
21
-3.5434
0
LINE
8
BLACK
6
CONTINUOUS
10
4.07038
20
-3.5434
11
4.07067
21
-3.54376
0
LINE
8
BLACK
6
CONTINUOUS
10
4.07067
20
-3.54376
11
4.07089
21
-3.54417
0
LINE
8
BLACK
6
CONTINUOUS
10
4.07089
20
-3.54417
11
4.07103
21
-3.54462
0
LINE
8
BLACK
6
CONTINUOUS
10
4.07103
20
-3.54462
11
4.07107
21
-3.54508
0
LINE
8
BLACK
6
CONTINUOUS
10
4.07107
20
-3.54508
11
4.07106
21
-3.54519
0
LINE
8
BLACK
6
CONTINUOUS
10
4.07106
20
-3.54519
11
4.07106
21
-3.54775
0
LINE
8
BLACK
6
CONTINUOUS
10
4.07106
20
-3.54775
11
4.07103
21
-3.5481
0
LINE
8
BLACK
6
CONTINUOUS
10
4.07103
20
-3.5481
11
4.07089
21
-3.54855
0
LINE
8
BLACK
6
CONTINUOUS
10
4.07089
20
-3.54855
11
4.07067
21
-3.54896
0
LINE
8
BLACK
6
CONTINUOUS
10
4.07067
20
-3.54896
11
4.07038
21
-3.54932
0
LINE
8
BLACK
6
CONTINUOUS
10
4.07038
20
-3.54932
11
4.07002
21
-3.54961
0
LINE
8
BLACK
6
CONTINUOUS
10
4.07002
20
-3.54961
11
4.06961
21
-3.54983
0
LINE
8
BLACK
6
CONTINUOUS
10
4.06961
20
-3.54983
11
4.06916
21
-3.54997
0
LINE
8
BLACK
6
CONTINUOUS
10
4.06916
20
-3.54997
11
4.0687
21
-3.55001
0
LINE
8
BLACK
6
CONTINUOUS
10
4.0687
20
-3.55001
11
4.06824
21
-3.54997
0
LINE
8
BLACK
6
CONTINUOUS
10
4.06824
20
-3.54997
11
4.06779
21
-3.54983
0
LINE
8
BLACK
6
CONTINUOUS
10
4.06779
20
-3.54983
11
4.06738
21
-3.54961
0
LINE
8
BLACK
6
CONTINUOUS
10
4.06738
20
-3.54961
11
4.06702
21
-3.54932
0
LINE
8
BLACK
6
CONTINUOUS
10
4.06702
20
-3.54932
11
4.06673
21
-3.54896
0
LINE
8
BLACK
6
CONTINUOUS
10
4.06673
20
-3.54896
11
4.06651
21
-3.54855
0
LINE
8
BLACK
6
CONTINUOUS
10
4.06651
20
-3.54855
11
4.06637
21
-3.5481
0
LINE
8
BLACK
6
CONTINUOUS
10
4.06637
20
-3.5481
11
4.06634
21
-3.54775
0
LINE
8
BLACK
6
CONTINUOUS
10
4.06634
20
-3.54775
11
4.06634
21
-3.54744
0
LINE
8
BLACK
6
CONTINUOUS
10
4.06634
20
-3.54744
11
3.98366
21
-3.54744
0
LINE
8
BLACK
6
CONTINUOUS
10
3.98366
20
-3.54744
11
3.98366
21
-3.54775
0
LINE
8
BLACK
6
CONTINUOUS
10
3.44461
20
-3.54289
11
3.44502
21
-3.54311
0
LINE
8
BLACK
6
CONTINUOUS
10
3.44502
20
-3.54311
11
3.44538
21
-3.5434
0
LINE
8
BLACK
6
CONTINUOUS
10
3.44538
20
-3.5434
11
3.44567
21
-3.54376
0
LINE
8
BLACK
6
CONTINUOUS
10
3.44567
20
-3.54376
11
3.44589
21
-3.54417
0
LINE
8
BLACK
6
CONTINUOUS
10
3.44589
20
-3.54417
11
3.44603
21
-3.54462
0
LINE
8
BLACK
6
CONTINUOUS
10
3.44603
20
-3.54462
11
3.44607
21
-3.54508
0
LINE
8
BLACK
6
CONTINUOUS
10
3.44607
20
-3.54508
11
3.44606
21
-3.54519
0
LINE
8
BLACK
6
CONTINUOUS
10
3.44606
20
-3.54519
11
3.44606
21
-3.54775
0
LINE
8
BLACK
6
CONTINUOUS
10
3.44606
20
-3.54775
11
3.44603
21
-3.5481
0
LINE
8
BLACK
6
CONTINUOUS
10
3.44603
20
-3.5481
11
3.44589
21
-3.54855
0
LINE
8
BLACK
6
CONTINUOUS
10
3.44589
20
-3.54855
11
3.44567
21
-3.54896
0
LINE
8
BLACK
6
CONTINUOUS
10
3.44567
20
-3.54896
11
3.44538
21
-3.54932
0
LINE
8
BLACK
6
CONTINUOUS
10
3.44538
20
-3.54932
11
3.44502
21
-3.54961
0
LINE
8
BLACK
6
CONTINUOUS
10
3.44502
20
-3.54961
11
3.44461
21
-3.54983
0
LINE
8
BLACK
6
CONTINUOUS
10
3.44461
20
-3.54983
11
3.44416
21
-3.54997
0
LINE
8
BLACK
6
CONTINUOUS
10
3.44416
20
-3.54997
11
3.4437
21
-3.55001
0
LINE
8
BLACK
6
CONTINUOUS
10
3.4437
20
-3.55001
11
3.44324
21
-3.54997
0
LINE
8
BLACK
6
CONTINUOUS
10
3.44324
20
-3.54997
11
3.44279
21
-3.54983
0
LINE
8
BLACK
6
CONTINUOUS
10
3.44279
20
-3.54983
11
3.44238
21
-3.54961
0
LINE
8
BLACK
6
CONTINUOUS
10
3.44238
20
-3.54961
11
3.44202
21
-3.54932
0
LINE
8
BLACK
6
CONTINUOUS
10
3.44202
20
-3.54932
11
3.44173
21
-3.54896
0
LINE
8
BLACK
6
CONTINUOUS
10
3.44173
20
-3.54896
11
3.44151
21
-3.54855
0
LINE
8
BLACK
6
CONTINUOUS
10
3.44151
20
-3.54855
11
3.44137
21
-3.5481
0
LINE
8
BLACK
6
CONTINUOUS
10
3.44137
20
-3.5481
11
3.44134
21
-3.54775
0
LINE
8
BLACK
6
CONTINUOUS
10
3.44134
20
-3.54775
11
3.44134
21
-3.54744
0
LINE
8
BLACK
6
CONTINUOUS
10
3.44134
20
-3.54744
11
3.35866
21
-3.54744
0
LINE
8
BLACK
6
CONTINUOUS
10
3.35866
20
-3.54744
11
3.35866
21
-3.54775
0
LINE
8
BLACK
6
CONTINUOUS
10
3.35866
20
-3.54775
11
3.35863
21
-3.5481
0
LINE
8
BLACK
6
CONTINUOUS
10
3.35863
20
-3.5481
11
3.35849
21
-3.54855
0
LINE
8
BLACK
6
CONTINUOUS
10
3.35849
20
-3.54855
11
3.35827
21
-3.54896
0
LINE
8
BLACK
6
CONTINUOUS
10
3.35827
20
-3.54896
11
3.35798
21
-3.54932
0
LINE
8
BLACK
6
CONTINUOUS
10
3.35798
20
-3.54932
11
3.35762
21
-3.54961
0
LINE
8
BLACK
6
CONTINUOUS
10
3.35762
20
-3.54961
11
3.35721
21
-3.54983
0
LINE
8
BLACK
6
CONTINUOUS
10
3.35721
20
-3.54983
11
3.35676
21
-3.54997
0
LINE
8
BLACK
6
CONTINUOUS
10
3.35676
20
-3.54997
11
3.3563
21
-3.55001
0
LINE
8
BLACK
6
CONTINUOUS
10
3.3563
20
-3.55001
11
3.35584
21
-3.54997
0
LINE
8
BLACK
6
CONTINUOUS
10
3.35584
20
-3.54997
11
3.35539
21
-3.54983
0
LINE
8
BLACK
6
CONTINUOUS
10
3.35539
20
-3.54983
11
3.35498
21
-3.54961
0
LINE
8
BLACK
6
CONTINUOUS
10
3.35498
20
-3.54961
11
3.35462
21
-3.54932
0
LINE
8
BLACK
6
CONTINUOUS
10
3.35462
20
-3.54932
11
3.35433
21
-3.54896
0
LINE
8
BLACK
6
CONTINUOUS
10
3.35433
20
-3.54896
11
3.35411
21
-3.54855
0
LINE
8
BLACK
6
CONTINUOUS
10
3.35411
20
-3.54855
11
3.35397
21
-3.5481
0
LINE
8
BLACK
6
CONTINUOUS
10
3.35397
20
-3.5481
11
3.35394
21
-3.54775
0
LINE
8
BLACK
6
CONTINUOUS
10
3.35394
20
-3.54775
11
3.35394
21
-3.54519
0
LINE
8
BLACK
6
CONTINUOUS
10
3.35394
20
-3.54519
11
3.35393
21
-3.54508
0
LINE
8
BLACK
6
CONTINUOUS
10
3.35393
20
-3.54508
11
3.35397
21
-3.54462
0
LINE
8
BLACK
6
CONTINUOUS
10
3.35397
20
-3.54462
11
3.35411
21
-3.54417
0
LINE
8
BLACK
6
CONTINUOUS
10
3.35411
20
-3.54417
11
3.35433
21
-3.54376
0
LINE
8
BLACK
6
CONTINUOUS
10
3.35433
20
-3.54376
11
3.35462
21
-3.5434
0
LINE
8
BLACK
6
CONTINUOUS
10
3.35462
20
-3.5434
11
3.35498
21
-3.54311
0
LINE
8
BLACK
6
CONTINUOUS
10
3.35498
20
-3.54311
11
3.35539
21
-3.54289
0
LINE
8
BLACK
6
CONTINUOUS
10
3.35539
20
-3.54289
11
3.35584
21
-3.54275
0
LINE
8
BLACK
6
CONTINUOUS
10
3.35584
20
-3.54275
11
3.35618
21
-3.54272
0
LINE
8
BLACK
6
CONTINUOUS
10
3.35618
20
-3.54272
11
3.3563
21
-3.54271
0
LINE
8
BLACK
6
CONTINUOUS
10
3.3563
20
-3.54271
11
3.35642
21
-3.54272
0
LINE
8
BLACK
6
CONTINUOUS
10
3.35642
20
-3.54272
11
3.44358
21
-3.54272
0
LINE
8
BLACK
6
CONTINUOUS
10
3.44358
20
-3.54272
11
3.4437
21
-3.54271
0
LINE
8
BLACK
6
CONTINUOUS
10
3.4437
20
-3.54271
11
3.44382
21
-3.54272
0
LINE
8
BLACK
6
CONTINUOUS
10
3.44382
20
-3.54272
11
3.44382
21
-3.54272
0
LINE
8
BLACK
6
CONTINUOUS
10
3.44382
20
-3.54272
11
3.44416
21
-3.54275
0
LINE
8
BLACK
6
CONTINUOUS
10
3.44416
20
-3.54275
11
3.44461
21
-3.54289
0
LINE
8
BLACK
6
CONTINUOUS
10
2.90952
20
-3.48192
11
2.90996
21
-3.48206
0
LINE
8
BLACK
6
CONTINUOUS
10
2.90996
20
-3.48206
11
2.91037
21
-3.48228
0
LINE
8
BLACK
6
CONTINUOUS
10
2.91037
20
-3.48228
11
2.91073
21
-3.48257
0
LINE
8
BLACK
6
CONTINUOUS
10
2.91073
20
-3.48257
11
2.91103
21
-3.48293
0
LINE
8
BLACK
6
CONTINUOUS
10
2.91103
20
-3.48293
11
2.91125
21
-3.48334
0
LINE
8
BLACK
6
CONTINUOUS
10
2.91125
20
-3.48334
11
2.91138
21
-3.48379
0
LINE
8
BLACK
6
CONTINUOUS
10
2.91138
20
-3.48379
11
2.91142
21
-3.48414
0
LINE
8
BLACK
6
CONTINUOUS
10
2.91142
20
-3.48414
11
2.91142
21
-3.51181
0
LINE
8
BLACK
6
CONTINUOUS
10
2.91142
20
-3.51181
11
2.95287
21
-3.51181
0
LINE
8
BLACK
6
CONTINUOUS
10
2.95287
20
-3.51181
11
2.95322
21
-3.51185
0
LINE
8
BLACK
6
CONTINUOUS
10
2.95322
20
-3.51185
11
2.95366
21
-3.51198
0
LINE
8
BLACK
6
CONTINUOUS
10
2.95366
20
-3.51198
11
2.95407
21
-3.5122
0
LINE
8
BLACK
6
CONTINUOUS
10
2.95407
20
-3.5122
11
2.95443
21
-3.51249
0
LINE
8
BLACK
6
CONTINUOUS
10
2.95443
20
-3.51249
11
2.95473
21
-3.51285
0
LINE
8
BLACK
6
CONTINUOUS
10
2.95473
20
-3.51285
11
2.95495
21
-3.51326
0
LINE
8
BLACK
6
CONTINUOUS
10
2.95495
20
-3.51326
11
2.95508
21
-3.51371
0
LINE
8
BLACK
6
CONTINUOUS
10
2.95508
20
-3.51371
11
2.95513
21
-3.51417
0
LINE
8
BLACK
6
CONTINUOUS
10
2.95513
20
-3.51417
11
2.95508
21
-3.51464
0
LINE
8
BLACK
6
CONTINUOUS
10
2.95508
20
-3.51464
11
2.95495
21
-3.51508
0
LINE
8
BLACK
6
CONTINUOUS
10
2.95495
20
-3.51508
11
2.95473
21
-3.51549
0
LINE
8
BLACK
6
CONTINUOUS
10
2.95473
20
-3.51549
11
2.95443
21
-3.51585
0
LINE
8
BLACK
6
CONTINUOUS
10
2.95443
20
-3.51585
11
2.95407
21
-3.51615
0
LINE
8
BLACK
6
CONTINUOUS
10
2.95407
20
-3.51615
11
2.95366
21
-3.51637
0
LINE
8
BLACK
6
CONTINUOUS
10
2.95366
20
-3.51637
11
2.95322
21
-3.5165
0
LINE
8
BLACK
6
CONTINUOUS
10
2.95322
20
-3.5165
11
2.95287
21
-3.51654
0
LINE
8
BLACK
6
CONTINUOUS
10
2.95287
20
-3.51654
11
2.90917
21
-3.51654
0
LINE
8
BLACK
6
CONTINUOUS
10
2.90917
20
-3.51654
11
2.90906
21
-3.51655
0
LINE
8
BLACK
6
CONTINUOUS
10
2.90906
20
-3.51655
11
2.90894
21
-3.51654
0
LINE
8
BLACK
6
CONTINUOUS
10
2.90894
20
-3.51654
11
2.90894
21
-3.51654
0
LINE
8
BLACK
6
CONTINUOUS
10
2.90894
20
-3.51654
11
2.90859
21
-3.5165
0
LINE
8
BLACK
6
CONTINUOUS
10
2.90859
20
-3.5165
11
2.90815
21
-3.51637
0
LINE
8
BLACK
6
CONTINUOUS
10
2.90815
20
-3.51637
11
2.90774
21
-3.51615
0
LINE
8
BLACK
6
CONTINUOUS
10
2.90774
20
-3.51615
11
2.90738
21
-3.51585
0
LINE
8
BLACK
6
CONTINUOUS
10
2.90738
20
-3.51585
11
2.90708
21
-3.51549
0
LINE
8
BLACK
6
CONTINUOUS
10
2.90708
20
-3.51549
11
2.90686
21
-3.51508
0
LINE
8
BLACK
6
CONTINUOUS
10
2.90686
20
-3.51508
11
2.90673
21
-3.51464
0
LINE
8
BLACK
6
CONTINUOUS
10
2.90673
20
-3.51464
11
2.90668
21
-3.51417
0
LINE
8
BLACK
6
CONTINUOUS
10
2.90668
20
-3.51417
11
2.90669
21
-3.51406
0
LINE
8
BLACK
6
CONTINUOUS
10
2.90669
20
-3.51406
11
2.90669
21
-3.48414
0
LINE
8
BLACK
6
CONTINUOUS
10
2.90669
20
-3.48414
11
2.90673
21
-3.48379
0
LINE
8
BLACK
6
CONTINUOUS
10
2.90673
20
-3.48379
11
2.90686
21
-3.48334
0
LINE
8
BLACK
6
CONTINUOUS
10
2.90686
20
-3.48334
11
2.90708
21
-3.48293
0
LINE
8
BLACK
6
CONTINUOUS
10
2.90708
20
-3.48293
11
2.90738
21
-3.48257
0
LINE
8
BLACK
6
CONTINUOUS
10
2.90738
20
-3.48257
11
2.90774
21
-3.48228
0
LINE
8
BLACK
6
CONTINUOUS
10
2.90774
20
-3.48228
11
2.90815
21
-3.48206
0
LINE
8
BLACK
6
CONTINUOUS
10
2.90815
20
-3.48206
11
2.90859
21
-3.48192
0
LINE
8
BLACK
6
CONTINUOUS
10
2.90859
20
-3.48192
11
2.90906
21
-3.48188
0
LINE
8
BLACK
6
CONTINUOUS
10
2.90906
20
-3.48188
11
2.90952
21
-3.48192
0
LINE
8
BLACK
6
CONTINUOUS
10
2.91142
20
-3.45701
11
2.91138
21
-3.45735
0
LINE
8
BLACK
6
CONTINUOUS
10
2.91138
20
-3.45735
11
2.91125
21
-3.4578
0
LINE
8
BLACK
6
CONTINUOUS
10
2.91125
20
-3.4578
11
2.91103
21
-3.45821
0
LINE
8
BLACK
6
CONTINUOUS
10
2.91103
20
-3.45821
11
2.91073
21
-3.45857
0
LINE
8
BLACK
6
CONTINUOUS
10
2.91073
20
-3.45857
11
2.91037
21
-3.45886
0
LINE
8
BLACK
6
CONTINUOUS
10
2.91037
20
-3.45886
11
2.90996
21
-3.45908
0
LINE
8
BLACK
6
CONTINUOUS
10
2.90996
20
-3.45908
11
2.90952
21
-3.45922
0
LINE
8
BLACK
6
CONTINUOUS
10
2.90952
20
-3.45922
11
2.90906
21
-3.45926
0
LINE
8
BLACK
6
CONTINUOUS
10
2.90906
20
-3.45926
11
2.90859
21
-3.45922
0
LINE
8
BLACK
6
CONTINUOUS
10
2.90859
20
-3.45922
11
2.90815
21
-3.45908
0
LINE
8
BLACK
6
CONTINUOUS
10
2.90815
20
-3.45908
11
2.90774
21
-3.45886
0
LINE
8
BLACK
6
CONTINUOUS
10
2.90774
20
-3.45886
11
2.90738
21
-3.45857
0
LINE
8
BLACK
6
CONTINUOUS
10
2.90738
20
-3.45857
11
2.90708
21
-3.45821
0
LINE
8
BLACK
6
CONTINUOUS
10
2.90708
20
-3.45821
11
2.90686
21
-3.4578
0
LINE
8
BLACK
6
CONTINUOUS
10
2.90686
20
-3.4578
11
2.90673
21
-3.45735
0
LINE
8
BLACK
6
CONTINUOUS
10
2.90673
20
-3.45735
11
2.90669
21
-3.45701
0
LINE
8
BLACK
6
CONTINUOUS
10
2.90669
20
-3.45701
11
2.90669
21
-3.45445
0
LINE
8
BLACK
6
CONTINUOUS
10
2.90669
20
-3.45445
11
2.90668
21
-3.45433
0
LINE
8
BLACK
6
CONTINUOUS
10
2.90668
20
-3.45433
11
2.90673
21
-3.45387
0
LINE
8
BLACK
6
CONTINUOUS
10
2.90673
20
-3.45387
11
2.90686
21
-3.45342
0
LINE
8
BLACK
6
CONTINUOUS
10
2.90686
20
-3.45342
11
2.90708
21
-3.45301
0
LINE
8
BLACK
6
CONTINUOUS
10
2.90708
20
-3.45301
11
2.90738
21
-3.45265
0
LINE
8
BLACK
6
CONTINUOUS
10
2.90738
20
-3.45265
11
2.90774
21
-3.45236
0
LINE
8
BLACK
6
CONTINUOUS
10
2.90774
20
-3.45236
11
2.90815
21
-3.45214
0
LINE
8
BLACK
6
CONTINUOUS
10
2.90815
20
-3.45214
11
2.90859
21
-3.452
0
LINE
8
BLACK
6
CONTINUOUS
10
2.90859
20
-3.452
11
2.90894
21
-3.45197
0
LINE
8
BLACK
6
CONTINUOUS
10
2.90894
20
-3.45197
11
2.90906
21
-3.45196
0
LINE
8
BLACK
6
CONTINUOUS
10
2.90906
20
-3.45196
11
2.90917
21
-3.45197
0
LINE
8
BLACK
6
CONTINUOUS
10
2.90917
20
-3.45197
11
2.99634
21
-3.45197
0
LINE
8
BLACK
6
CONTINUOUS
10
2.99634
20
-3.45197
11
2.99646
21
-3.45196
0
LINE
8
BLACK
6
CONTINUOUS
10
2.99646
20
-3.45196
11
2.99657
21
-3.45197
0
LINE
8
BLACK
6
CONTINUOUS
10
2.99657
20
-3.45197
11
2.99657
21
-3.45197
0
LINE
8
BLACK
6
CONTINUOUS
10
2.99657
20
-3.45197
11
2.99692
21
-3.452
0
LINE
8
BLACK
6
CONTINUOUS
10
2.99692
20
-3.452
11
2.99737
21
-3.45214
0
LINE
8
BLACK
6
CONTINUOUS
10
2.99737
20
-3.45214
11
2.99778
21
-3.45236
0
LINE
8
BLACK
6
CONTINUOUS
10
2.99778
20
-3.45236
11
2.99814
21
-3.45265
0
LINE
8
BLACK
6
CONTINUOUS
10
2.99814
20
-3.45265
11
2.99843
21
-3.45301
0
LINE
8
BLACK
6
CONTINUOUS
10
2.99843
20
-3.45301
11
2.99865
21
-3.45342
0
LINE
8
BLACK
6
CONTINUOUS
10
2.99865
20
-3.45342
11
2.99878
21
-3.45387
0
LINE
8
BLACK
6
CONTINUOUS
10
2.99878
20
-3.45387
11
2.99883
21
-3.45433
0
LINE
8
BLACK
6
CONTINUOUS
10
2.99883
20
-3.45433
11
2.99882
21
-3.45445
0
LINE
8
BLACK
6
CONTINUOUS
10
2.99882
20
-3.45445
11
2.99882
21
-3.45701
0
LINE
8
BLACK
6
CONTINUOUS
10
2.99882
20
-3.45701
11
2.99878
21
-3.45735
0
LINE
8
BLACK
6
CONTINUOUS
10
2.99878
20
-3.45735
11
2.99865
21
-3.4578
0
LINE
8
BLACK
6
CONTINUOUS
10
2.99865
20
-3.4578
11
2.99843
21
-3.45821
0
LINE
8
BLACK
6
CONTINUOUS
10
2.99843
20
-3.45821
11
2.99814
21
-3.45857
0
LINE
8
BLACK
6
CONTINUOUS
10
2.99814
20
-3.45857
11
2.99778
21
-3.45886
0
LINE
8
BLACK
6
CONTINUOUS
10
2.99778
20
-3.45886
11
2.99737
21
-3.45908
0
LINE
8
BLACK
6
CONTINUOUS
10
2.99737
20
-3.45908
11
2.99692
21
-3.45922
0
LINE
8
BLACK
6
CONTINUOUS
10
2.99692
20
-3.45922
11
2.99646
21
-3.45926
0
LINE
8
BLACK
6
CONTINUOUS
10
2.99646
20
-3.45926
11
2.99599
21
-3.45922
0
LINE
8
BLACK
6
CONTINUOUS
10
2.99599
20
-3.45922
11
2.99555
21
-3.45908
0
LINE
8
BLACK
6
CONTINUOUS
10
2.99555
20
-3.45908
11
2.99514
21
-3.45886
0
LINE
8
BLACK
6
CONTINUOUS
10
2.99514
20
-3.45886
11
2.99478
21
-3.45857
0
LINE
8
BLACK
6
CONTINUOUS
10
2.99478
20
-3.45857
11
2.99448
21
-3.45821
0
LINE
8
BLACK
6
CONTINUOUS
10
2.99448
20
-3.45821
11
2.99426
21
-3.4578
0
LINE
8
BLACK
6
CONTINUOUS
10
2.99426
20
-3.4578
11
2.99413
21
-3.45735
0
LINE
8
BLACK
6
CONTINUOUS
10
2.99413
20
-3.45735
11
2.99409
21
-3.45701
0
LINE
8
BLACK
6
CONTINUOUS
10
2.99409
20
-3.45701
11
2.99409
21
-3.45669
0
LINE
8
BLACK
6
CONTINUOUS
10
2.99409
20
-3.45669
11
2.91142
21
-3.45669
0
LINE
8
BLACK
6
CONTINUOUS
10
2.91142
20
-3.45669
11
2.91142
21
-3.45701
0
LINE
8
BLACK
6
CONTINUOUS
10
3.18176
20
-3.24767
11
3.18221
21
-3.24781
0
LINE
8
BLACK
6
CONTINUOUS
10
3.18221
20
-3.24781
11
3.18262
21
-3.24803
0
LINE
8
BLACK
6
CONTINUOUS
10
3.18262
20
-3.24803
11
3.18298
21
-3.24832
0
LINE
8
BLACK
6
CONTINUOUS
10
3.18298
20
-3.24832
11
3.18327
21
-3.24868
0
LINE
8
BLACK
6
CONTINUOUS
10
3.18327
20
-3.24868
11
3.18349
21
-3.24909
0
LINE
8
BLACK
6
CONTINUOUS
10
3.18349
20
-3.24909
11
3.18363
21
-3.24954
0
LINE
8
BLACK
6
CONTINUOUS
10
3.18363
20
-3.24954
11
3.18366
21
-3.24988
0
LINE
8
BLACK
6
CONTINUOUS
10
3.18366
20
-3.24988
11
3.18366
21
-3.27756
0
LINE
8
BLACK
6
CONTINUOUS
10
3.18366
20
-3.27756
11
3.22512
21
-3.27756
0
LINE
8
BLACK
6
CONTINUOUS
10
3.22512
20
-3.27756
11
3.22546
21
-3.27759
0
LINE
8
BLACK
6
CONTINUOUS
10
3.22546
20
-3.27759
11
3.22591
21
-3.27773
0
LINE
8
BLACK
6
CONTINUOUS
10
3.22591
20
-3.27773
11
3.22632
21
-3.27795
0
LINE
8
BLACK
6
CONTINUOUS
10
3.22632
20
-3.27795
11
3.22668
21
-3.27824
0
LINE
8
BLACK
6
CONTINUOUS
10
3.22668
20
-3.27824
11
3.22697
21
-3.2786
0
LINE
8
BLACK
6
CONTINUOUS
10
3.22697
20
-3.2786
11
3.22719
21
-3.27901
0
LINE
8
BLACK
6
CONTINUOUS
10
3.22719
20
-3.27901
11
3.22733
21
-3.27946
0
LINE
8
BLACK
6
CONTINUOUS
10
3.22733
20
-3.27946
11
3.22737
21
-3.27992
0
LINE
8
BLACK
6
CONTINUOUS
10
3.22737
20
-3.27992
11
3.22733
21
-3.28038
0
LINE
8
BLACK
6
CONTINUOUS
10
3.22733
20
-3.28038
11
3.22719
21
-3.28083
0
LINE
8
BLACK
6
CONTINUOUS
10
3.22719
20
-3.28083
11
3.22697
21
-3.28124
0
LINE
8
BLACK
6
CONTINUOUS
10
3.22697
20
-3.28124
11
3.22668
21
-3.2816
0
LINE
8
BLACK
6
CONTINUOUS
10
3.22668
20
-3.2816
11
3.22632
21
-3.28189
0
LINE
8
BLACK
6
CONTINUOUS
10
3.22632
20
-3.28189
11
3.22591
21
-3.28211
0
LINE
8
BLACK
6
CONTINUOUS
10
3.22591
20
-3.28211
11
3.22546
21
-3.28225
0
LINE
8
BLACK
6
CONTINUOUS
10
3.22546
20
-3.28225
11
3.22512
21
-3.28228
0
LINE
8
BLACK
6
CONTINUOUS
10
3.22512
20
-3.28228
11
3.18142
21
-3.28228
0
LINE
8
BLACK
6
CONTINUOUS
10
3.18142
20
-3.28228
11
3.1813
21
-3.28229
0
LINE
8
BLACK
6
CONTINUOUS
10
3.1813
20
-3.28229
11
3.18118
21
-3.28228
0
LINE
8
BLACK
6
CONTINUOUS
10
3.18118
20
-3.28228
11
3.18118
21
-3.28228
0
LINE
8
BLACK
6
CONTINUOUS
10
3.18118
20
-3.28228
11
3.18084
21
-3.28225
0
LINE
8
BLACK
6
CONTINUOUS
10
3.18084
20
-3.28225
11
3.18039
21
-3.28211
0
LINE
8
BLACK
6
CONTINUOUS
10
3.18039
20
-3.28211
11
3.17998
21
-3.28189
0
LINE
8
BLACK
6
CONTINUOUS
10
3.17998
20
-3.28189
11
3.17962
21
-3.2816
0
LINE
8
BLACK
6
CONTINUOUS
10
3.17962
20
-3.2816
11
3.17933
21
-3.28124
0
LINE
8
BLACK
6
CONTINUOUS
10
3.17933
20
-3.28124
11
3.17911
21
-3.28083
0
LINE
8
BLACK
6
CONTINUOUS
10
3.17911
20
-3.28083
11
3.17897
21
-3.28038
0
LINE
8
BLACK
6
CONTINUOUS
10
3.17897
20
-3.28038
11
3.17893
21
-3.27992
0
LINE
8
BLACK
6
CONTINUOUS
10
3.17893
20
-3.27992
11
3.17894
21
-3.2798
0
LINE
8
BLACK
6
CONTINUOUS
10
3.17894
20
-3.2798
11
3.17894
21
-3.24988
0
LINE
8
BLACK
6
CONTINUOUS
10
3.17894
20
-3.24988
11
3.17897
21
-3.24954
0
LINE
8
BLACK
6
CONTINUOUS
10
3.17897
20
-3.24954
11
3.17911
21
-3.24909
0
LINE
8
BLACK
6
CONTINUOUS
10
3.17911
20
-3.24909
11
3.17933
21
-3.24868
0
LINE
8
BLACK
6
CONTINUOUS
10
3.17933
20
-3.24868
11
3.17962
21
-3.24832
0
LINE
8
BLACK
6
CONTINUOUS
10
3.17962
20
-3.24832
11
3.17998
21
-3.24803
0
LINE
8
BLACK
6
CONTINUOUS
10
3.17998
20
-3.24803
11
3.18039
21
-3.24781
0
LINE
8
BLACK
6
CONTINUOUS
10
3.18039
20
-3.24781
11
3.18084
21
-3.24767
0
LINE
8
BLACK
6
CONTINUOUS
10
3.18084
20
-3.24767
11
3.1813
21
-3.24763
0
LINE
8
BLACK
6
CONTINUOUS
10
3.1813
20
-3.24763
11
3.18176
21
-3.24767
0
LINE
8
BLACK
6
CONTINUOUS
10
3.18366
20
-3.22275
11
3.18363
21
-3.2231
0
LINE
8
BLACK
6
CONTINUOUS
10
3.18363
20
-3.2231
11
3.18349
21
-3.22355
0
LINE
8
BLACK
6
CONTINUOUS
10
3.18349
20
-3.22355
11
3.18327
21
-3.22396
0
LINE
8
BLACK
6
CONTINUOUS
10
3.18327
20
-3.22396
11
3.18298
21
-3.22432
0
LINE
8
BLACK
6
CONTINUOUS
10
3.18298
20
-3.22432
11
3.18262
21
-3.22461
0
LINE
8
BLACK
6
CONTINUOUS
10
3.18262
20
-3.22461
11
3.18221
21
-3.22483
0
LINE
8
BLACK
6
CONTINUOUS
10
3.18221
20
-3.22483
11
3.18176
21
-3.22497
0
LINE
8
BLACK
6
CONTINUOUS
10
3.18176
20
-3.22497
11
3.1813
21
-3.22501
0
LINE
8
BLACK
6
CONTINUOUS
10
3.1813
20
-3.22501
11
3.18084
21
-3.22497
0
LINE
8
BLACK
6
CONTINUOUS
10
3.18084
20
-3.22497
11
3.18039
21
-3.22483
0
LINE
8
BLACK
6
CONTINUOUS
10
3.18039
20
-3.22483
11
3.17998
21
-3.22461
0
LINE
8
BLACK
6
CONTINUOUS
10
3.17998
20
-3.22461
11
3.17962
21
-3.22432
0
LINE
8
BLACK
6
CONTINUOUS
10
3.17962
20
-3.22432
11
3.17933
21
-3.22396
0
LINE
8
BLACK
6
CONTINUOUS
10
3.17933
20
-3.22396
11
3.17911
21
-3.22355
0
LINE
8
BLACK
6
CONTINUOUS
10
3.17911
20
-3.22355
11
3.17897
21
-3.2231
0
LINE
8
BLACK
6
CONTINUOUS
10
3.17897
20
-3.2231
11
3.17894
21
-3.22275
0
LINE
8
BLACK
6
CONTINUOUS
10
3.17894
20
-3.22275
11
3.17894
21
-3.22019
0
LINE
8
BLACK
6
CONTINUOUS
10
3.17894
20
-3.22019
11
3.17893
21
-3.22008
0
LINE
8
BLACK
6
CONTINUOUS
10
3.17893
20
-3.22008
11
3.17897
21
-3.21962
0
LINE
8
BLACK
6
CONTINUOUS
10
3.17897
20
-3.21962
11
3.17911
21
-3.21917
0
LINE
8
BLACK
6
CONTINUOUS
10
3.17911
20
-3.21917
11
3.17933
21
-3.21876
0
LINE
8
BLACK
6
CONTINUOUS
10
3.17933
20
-3.21876
11
3.17962
21
-3.2184
0
LINE
8
BLACK
6
CONTINUOUS
10
3.17962
20
-3.2184
11
3.17998
21
-3.21811
0
LINE
8
BLACK
6
CONTINUOUS
10
3.17998
20
-3.21811
11
3.18039
21
-3.21789
0
LINE
8
BLACK
6
CONTINUOUS
10
3.18039
20
-3.21789
11
3.18084
21
-3.21775
0
LINE
8
BLACK
6
CONTINUOUS
10
3.18084
20
-3.21775
11
3.18118
21
-3.21772
0
LINE
8
BLACK
6
CONTINUOUS
10
3.18118
20
-3.21772
11
3.1813
21
-3.21771
0
LINE
8
BLACK
6
CONTINUOUS
10
3.1813
20
-3.21771
11
3.18142
21
-3.21772
0
LINE
8
BLACK
6
CONTINUOUS
10
3.18142
20
-3.21772
11
3.26858
21
-3.21772
0
LINE
8
BLACK
6
CONTINUOUS
10
3.26858
20
-3.21772
11
3.2687
21
-3.21771
0
LINE
8
BLACK
6
CONTINUOUS
10
3.2687
20
-3.21771
11
3.26882
21
-3.21772
0
LINE
8
BLACK
6
CONTINUOUS
10
3.26882
20
-3.21772
11
3.26882
21
-3.21772
0
LINE
8
BLACK
6
CONTINUOUS
10
3.26882
20
-3.21772
11
3.26916
21
-3.21775
0
LINE
8
BLACK
6
CONTINUOUS
10
3.26916
20
-3.21775
11
3.26961
21
-3.21789
0
LINE
8
BLACK
6
CONTINUOUS
10
3.26961
20
-3.21789
11
3.27002
21
-3.21811
0
LINE
8
BLACK
6
CONTINUOUS
10
3.27002
20
-3.21811
11
3.27038
21
-3.2184
0
LINE
8
BLACK
6
CONTINUOUS
10
3.27038
20
-3.2184
11
3.27067
21
-3.21876
0
LINE
8
BLACK
6
CONTINUOUS
10
3.27067
20
-3.21876
11
3.27089
21
-3.21917
0
LINE
8
BLACK
6
CONTINUOUS
10
3.27089
20
-3.21917
11
3.27103
21
-3.21962
0
LINE
8
BLACK
6
CONTINUOUS
10
3.27103
20
-3.21962
11
3.27107
21
-3.22008
0
LINE
8
BLACK
6
CONTINUOUS
10
3.27107
20
-3.22008
11
3.27106
21
-3.22019
0
LINE
8
BLACK
6
CONTINUOUS
10
3.27106
20
-3.22019
11
3.27106
21
-3.22275
0
LINE
8
BLACK
6
CONTINUOUS
10
3.27106
20
-3.22275
11
3.27103
21
-3.2231
0
LINE
8
BLACK
6
CONTINUOUS
10
3.27103
20
-3.2231
11
3.27089
21
-3.22355
0
LINE
8
BLACK
6
CONTINUOUS
10
3.27089
20
-3.22355
11
3.27067
21
-3.22396
0
LINE
8
BLACK
6
CONTINUOUS
10
3.27067
20
-3.22396
11
3.27038
21
-3.22432
0
LINE
8
BLACK
6
CONTINUOUS
10
3.27038
20
-3.22432
11
3.27002
21
-3.22461
0
LINE
8
BLACK
6
CONTINUOUS
10
3.27002
20
-3.22461
11
3.26961
21
-3.22483
0
LINE
8
BLACK
6
CONTINUOUS
10
3.26961
20
-3.22483
11
3.26916
21
-3.22497
0
LINE
8
BLACK
6
CONTINUOUS
10
3.26916
20
-3.22497
11
3.2687
21
-3.22501
0
LINE
8
BLACK
6
CONTINUOUS
10
3.2687
20
-3.22501
11
3.26824
21
-3.22497
0
LINE
8
BLACK
6
CONTINUOUS
10
3.26824
20
-3.22497
11
3.26779
21
-3.22483
0
LINE
8
BLACK
6
CONTINUOUS
10
3.26779
20
-3.22483
11
3.26738
21
-3.22461
0
LINE
8
BLACK
6
CONTINUOUS
10
3.26738
20
-3.22461
11
3.26702
21
-3.22432
0
LINE
8
BLACK
6
CONTINUOUS
10
3.26702
20
-3.22432
11
3.26673
21
-3.22396
0
LINE
8
BLACK
6
CONTINUOUS
10
3.26673
20
-3.22396
11
3.26651
21
-3.22355
0
LINE
8
BLACK
6
CONTINUOUS
10
3.26651
20
-3.22355
11
3.26637
21
-3.2231
0
LINE
8
BLACK
6
CONTINUOUS
10
3.26637
20
-3.2231
11
3.26634
21
-3.22275
0
LINE
8
BLACK
6
CONTINUOUS
10
3.26634
20
-3.22275
11
3.26634
21
-3.22244
0
LINE
8
BLACK
6
CONTINUOUS
10
3.26634
20
-3.22244
11
3.18366
21
-3.22244
0
LINE
8
BLACK
6
CONTINUOUS
10
3.18366
20
-3.22244
11
3.18366
21
-3.22275
  0
ENDSEC
  0
EOF
