%TF.GenerationSoftware,KiCad,Pcbnew,6.0.0~rc2+dfsg1-1*%
%TF.CreationDate,2022-01-05T20:23:20+00:00*%
%TF.ProjectId,LiRX_tht,4c695258-5f74-4687-942e-6b696361645f,rev?*%
%TF.SameCoordinates,Original*%
%TF.FileFunction,Copper,L2,Bot*%
%TF.FilePolarity,Positive*%
%FSLAX46Y46*%
G04 Gerber Fmt 4.6, Leading zero omitted, Abs format (unit mm)*
G04 Created by KiCad (PCBNEW 6.0.0~rc2+dfsg1-1) date 2022-01-05 20:23:20*
%MOMM*%
%LPD*%
G01*
G04 APERTURE LIST*
%TA.AperFunction,ComponentPad*%
%ADD10C,1.400000*%
%TD*%
%TA.AperFunction,ComponentPad*%
%ADD11O,1.400000X1.400000*%
%TD*%
%TA.AperFunction,ComponentPad*%
%ADD12O,2.400000X1.600000*%
%TD*%
%TA.AperFunction,ComponentPad*%
%ADD13R,2.400000X1.600000*%
%TD*%
%TA.AperFunction,ComponentPad*%
%ADD14R,1.600000X1.600000*%
%TD*%
%TA.AperFunction,ComponentPad*%
%ADD15C,1.600000*%
%TD*%
%TA.AperFunction,ComponentPad*%
%ADD16R,1.700000X1.700000*%
%TD*%
%TA.AperFunction,ComponentPad*%
%ADD17O,1.700000X1.700000*%
%TD*%
%TA.AperFunction,ComponentPad*%
%ADD18R,4.000000X2.200000*%
%TD*%
%TA.AperFunction,ComponentPad*%
%ADD19O,2.200000X4.000000*%
%TD*%
%TA.AperFunction,ComponentPad*%
%ADD20O,4.000000X2.200000*%
%TD*%
%TA.AperFunction,ComponentPad*%
%ADD21R,1.800000X1.800000*%
%TD*%
%TA.AperFunction,ComponentPad*%
%ADD22C,1.800000*%
%TD*%
%TA.AperFunction,ComponentPad*%
%ADD23C,2.340000*%
%TD*%
%TA.AperFunction,ComponentPad*%
%ADD24O,2.200000X3.500000*%
%TD*%
%TA.AperFunction,ComponentPad*%
%ADD25O,1.500000X2.500000*%
%TD*%
%TA.AperFunction,ComponentPad*%
%ADD26R,1.500000X2.500000*%
%TD*%
%TA.AperFunction,ViaPad*%
%ADD27C,0.800000*%
%TD*%
%TA.AperFunction,Conductor*%
%ADD28C,1.000000*%
%TD*%
G04 APERTURE END LIST*
D10*
%TO.P,R20,1*%
%TO.N,TP2*%
X72390000Y-82550000D03*
D11*
%TO.P,R20,2*%
%TO.N,TP4*%
X72390000Y-90170000D03*
%TD*%
D10*
%TO.P,R19,1*%
%TO.N,Net-(R18-Pad2)*%
X82590000Y-97790000D03*
D11*
%TO.P,R19,2*%
%TO.N,GND*%
X82590000Y-105410000D03*
%TD*%
D10*
%TO.P,R18,1*%
%TO.N,TP2*%
X85090000Y-82550000D03*
D11*
%TO.P,R18,2*%
%TO.N,Net-(R18-Pad2)*%
X85090000Y-90170000D03*
%TD*%
D10*
%TO.P,R17,1*%
%TO.N,TP6*%
X78145000Y-99695000D03*
D11*
%TO.P,R17,2*%
%TO.N,TP5*%
X70525000Y-99695000D03*
%TD*%
D10*
%TO.P,R15,1*%
%TO.N,GND*%
X101600000Y-87630000D03*
D11*
%TO.P,R15,2*%
%TO.N,Net-(C12-Pad2)*%
X109220000Y-87630000D03*
%TD*%
D10*
%TO.P,R14,1*%
%TO.N,Net-(C8-Pad1)*%
X82550000Y-82550000D03*
D11*
%TO.P,R14,2*%
%TO.N,TP2*%
X74930000Y-82550000D03*
%TD*%
D10*
%TO.P,R3,1*%
%TO.N,Net-(C12-Pad1)*%
X107950000Y-90170000D03*
D11*
%TO.P,R3,2*%
%TO.N,Net-(C11-Pad1)*%
X115570000Y-90170000D03*
%TD*%
D10*
%TO.P,R2,1*%
%TO.N,Net-(R2-Pad1)*%
X119380000Y-100330000D03*
D11*
%TO.P,R2,2*%
%TO.N,GND*%
X111760000Y-100330000D03*
%TD*%
D10*
%TO.P,R1,1*%
%TO.N,TP5*%
X83860000Y-93980000D03*
D11*
%TO.P,R1,2*%
%TO.N,Net-(C9-Pad1)*%
X76240000Y-93980000D03*
%TD*%
D12*
%TO.P,U2,8,GAIN*%
%TO.N,Net-(C13-Pad2)*%
X100345000Y-101590000D03*
%TO.P,U2,4,GND*%
%TO.N,GND*%
X107965000Y-93970000D03*
%TO.P,U2,7,BYPASS*%
%TO.N,unconnected-(U2-Pad7)*%
X100345000Y-99050000D03*
%TO.P,U2,3,+*%
%TO.N,GND*%
X107965000Y-96510000D03*
%TO.P,U2,6,V+*%
%TO.N,Net-(C8-Pad1)*%
X100345000Y-96510000D03*
%TO.P,U2,2,-*%
%TO.N,Net-(R2-Pad1)*%
X107965000Y-99050000D03*
%TO.P,U2,5*%
%TO.N,Net-(C12-Pad1)*%
X100345000Y-93970000D03*
D13*
%TO.P,U2,1,GAIN*%
%TO.N,Net-(SW1-Pad2)*%
X107965000Y-101590000D03*
%TD*%
D14*
%TO.P,C11,1*%
%TO.N,Net-(C11-Pad1)*%
X114300000Y-93980000D03*
D15*
%TO.P,C11,2*%
%TO.N,Net-(C11-Pad2)*%
X114300000Y-95980000D03*
%TD*%
D16*
%TO.P,BT1,1,+*%
%TO.N,VCC*%
X112395000Y-82550000D03*
D17*
%TO.P,BT1,2,-*%
%TO.N,GND*%
X114935000Y-82550000D03*
%TD*%
D15*
%TO.P,C12,2*%
%TO.N,Net-(C12-Pad2)*%
X104100000Y-90170000D03*
%TO.P,C12,1*%
%TO.N,Net-(C12-Pad1)*%
X101600000Y-90170000D03*
%TD*%
D18*
%TO.P,J4,T*%
%TO.N,Net-(C11-Pad2)*%
X126275000Y-82000000D03*
D19*
%TO.P,J4,TN*%
X118975000Y-82500000D03*
D20*
%TO.P,J4,RN*%
X123375000Y-89100000D03*
%TO.P,J4,R*%
X122175000Y-91800000D03*
D19*
%TO.P,J4,S*%
%TO.N,GND*%
X130175000Y-86600000D03*
%TD*%
D13*
%TO.P,U3,1*%
%TO.N,Net-(U3-Pad1)*%
X95305000Y-101590000D03*
D12*
%TO.P,U3,5,+*%
%TO.N,Net-(R18-Pad2)*%
X87685000Y-93970000D03*
%TO.P,U3,2,-*%
%TO.N,Net-(U3-Pad1)*%
X95305000Y-99050000D03*
%TO.P,U3,6,-*%
%TO.N,TP5*%
X87685000Y-96510000D03*
%TO.P,U3,3,+*%
%TO.N,GND*%
X95305000Y-96510000D03*
%TO.P,U3,7*%
%TO.N,TP6*%
X87685000Y-99050000D03*
%TO.P,U3,4,V-*%
%TO.N,GND*%
X95305000Y-93970000D03*
%TO.P,U3,8,V+*%
%TO.N,TP2*%
X87685000Y-101590000D03*
%TD*%
D15*
%TO.P,C13,2*%
%TO.N,Net-(C13-Pad2)*%
X115570000Y-106140000D03*
D14*
%TO.P,C13,1*%
%TO.N,Net-(C13-Pad1)*%
X115570000Y-104140000D03*
%TD*%
%TO.P,C14,1*%
%TO.N,TP2*%
X78740000Y-87630000D03*
D15*
%TO.P,C14,2*%
%TO.N,GND*%
X78740000Y-89630000D03*
%TD*%
D21*
%TO.P,Q3,1,C*%
%TO.N,TP4*%
X64770000Y-93750000D03*
D22*
%TO.P,Q3,2,E*%
%TO.N,GND*%
X64770000Y-96290000D03*
%TD*%
D15*
%TO.P,C3,1*%
%TO.N,TP6*%
X74335000Y-106680000D03*
%TO.P,C3,2*%
%TO.N,TP5*%
X74335000Y-104180000D03*
%TD*%
%TO.P,C9,2*%
%TO.N,TP4*%
X68660000Y-93980000D03*
%TO.P,C9,1*%
%TO.N,Net-(C9-Pad1)*%
X73660000Y-93980000D03*
%TO.P,C9,2*%
%TO.N,TP4*%
X69910000Y-93980000D03*
%TO.P,C9,1*%
%TO.N,Net-(C9-Pad1)*%
X72410000Y-93980000D03*
%TD*%
%TO.P,C10,1*%
%TO.N,Net-(C10-Pad1)*%
X90190000Y-106680000D03*
%TO.P,C10,2*%
%TO.N,TP6*%
X87690000Y-106680000D03*
%TO.P,C10,1*%
%TO.N,Net-(C10-Pad1)*%
X91440000Y-106680000D03*
%TO.P,C10,2*%
%TO.N,TP6*%
X86440000Y-106680000D03*
%TD*%
D23*
%TO.P,RV1,3,3*%
%TO.N,Net-(C10-Pad1)*%
X129370000Y-96680000D03*
%TO.P,RV1,2,2*%
%TO.N,Net-(R2-Pad1)*%
X129370000Y-101680000D03*
%TO.P,RV1,1,1*%
%TO.N,GND*%
X129370000Y-106680000D03*
%TD*%
%TO.P,RV3,3,3*%
%TO.N,Net-(C10-Pad1)*%
X124065000Y-96750000D03*
%TO.P,RV3,2,2*%
%TO.N,Net-(R2-Pad1)*%
X124065000Y-101750000D03*
%TO.P,RV3,1,1*%
%TO.N,GND*%
X124065000Y-106750000D03*
%TD*%
D24*
%TO.P,SW1,*%
%TO.N,*%
X108970000Y-106045000D03*
X100770000Y-106045000D03*
D25*
%TO.P,SW1,3,C*%
%TO.N,Net-(C13-Pad1)*%
X106870000Y-106045000D03*
%TO.P,SW1,2,B*%
%TO.N,Net-(SW1-Pad2)*%
X104870000Y-106045000D03*
D26*
%TO.P,SW1,1,A*%
%TO.N,unconnected-(SW1-Pad1)*%
X102870000Y-106045000D03*
%TD*%
%TO.P,SW2,1,A*%
%TO.N,unconnected-(SW2-Pad1)*%
X106680000Y-83820000D03*
D25*
%TO.P,SW2,2,B*%
%TO.N,VCC*%
X104680000Y-83820000D03*
%TO.P,SW2,3,C*%
%TO.N,Net-(C8-Pad1)*%
X102680000Y-83820000D03*
D24*
%TO.P,SW2,*%
%TO.N,*%
X108780000Y-83820000D03*
X100580000Y-83820000D03*
%TD*%
D14*
%TO.P,C8,1*%
%TO.N,Net-(C8-Pad1)*%
X93345000Y-84455000D03*
D15*
%TO.P,C8,2*%
%TO.N,GND*%
X93345000Y-86955000D03*
D14*
%TO.P,C8,1*%
%TO.N,Net-(C8-Pad1)*%
X94945000Y-83784063D03*
D15*
%TO.P,C8,2*%
%TO.N,GND*%
X91745000Y-87625937D03*
%TD*%
D27*
%TO.N,GND*%
X118110000Y-85090000D03*
X113030000Y-85090000D03*
X130810000Y-82550000D03*
X119380000Y-107950000D03*
X69850000Y-107950000D03*
X63500000Y-102870000D03*
X63500000Y-87630000D03*
X69850000Y-81280000D03*
%TD*%
D28*
%TO.N,Net-(C10-Pad1)*%
X124065000Y-96750000D02*
X129300000Y-96750000D01*
X129300000Y-96750000D02*
X129370000Y-96680000D01*
X91440000Y-106680000D02*
X93354520Y-108594520D01*
X93354520Y-108594520D02*
X115377531Y-108594520D01*
X115377531Y-108594520D02*
X121285000Y-102687051D01*
X121285000Y-102687051D02*
X121285000Y-99530000D01*
X121285000Y-99530000D02*
X124065000Y-96750000D01*
%TO.N,Net-(C8-Pad1)*%
X100345000Y-96510000D02*
X98945000Y-96510000D01*
X98945000Y-96510000D02*
X98345480Y-95910480D01*
X98345480Y-95910480D02*
X98345480Y-87184543D01*
X98345480Y-87184543D02*
X94945000Y-83784063D01*
%TO.N,TP2*%
X87685000Y-101590000D02*
X84269370Y-101590000D01*
X84269370Y-101590000D02*
X80339511Y-97660141D01*
X80339511Y-97660141D02*
X80339511Y-88594511D01*
X80339511Y-88594511D02*
X79375000Y-87630000D01*
X79375000Y-87630000D02*
X78740000Y-87630000D01*
%TO.N,Net-(R18-Pad2)*%
X82590000Y-97790000D02*
X86410000Y-93970000D01*
X86410000Y-93970000D02*
X87685000Y-93970000D01*
%TO.N,Net-(SW1-Pad2)*%
X104870000Y-106045000D02*
X104870000Y-104685000D01*
X104870000Y-104685000D02*
X107965000Y-101590000D01*
%TO.N,Net-(R2-Pad1)*%
X107965000Y-99050000D02*
X108184511Y-98830489D01*
X117880489Y-98830489D02*
X119380000Y-100330000D01*
X108184511Y-98830489D02*
X117880489Y-98830489D01*
%TO.N,Net-(C10-Pad1)*%
X90190000Y-106680000D02*
X91440000Y-106680000D01*
%TD*%
%TA.AperFunction,Conductor*%
%TO.N,GND*%
G36*
X111190622Y-80678954D02*
G01*
X111271404Y-80732930D01*
X111325380Y-80813712D01*
X111344334Y-80909000D01*
X111325380Y-81004288D01*
X111271404Y-81085070D01*
X111224323Y-81121986D01*
X111147289Y-81168639D01*
X111147286Y-81168641D01*
X111134455Y-81176412D01*
X111021412Y-81289455D01*
X110938597Y-81426199D01*
X110890790Y-81578749D01*
X110889581Y-81591903D01*
X110889581Y-81591905D01*
X110885991Y-81630981D01*
X110884500Y-81647205D01*
X110884500Y-82396788D01*
X110865546Y-82492076D01*
X110811570Y-82572858D01*
X110730788Y-82626834D01*
X110635500Y-82645788D01*
X110540212Y-82626834D01*
X110459430Y-82572858D01*
X110403430Y-82487035D01*
X110376808Y-82418577D01*
X110373457Y-82409960D01*
X110349766Y-82368508D01*
X110248197Y-82190799D01*
X110243614Y-82182780D01*
X110237900Y-82175531D01*
X110237896Y-82175526D01*
X110161494Y-82078612D01*
X110081617Y-81977288D01*
X109891026Y-81797998D01*
X109883438Y-81792734D01*
X109883433Y-81792730D01*
X109748769Y-81699311D01*
X109676027Y-81648848D01*
X109560558Y-81591905D01*
X109449630Y-81537201D01*
X109449628Y-81537200D01*
X109441344Y-81533115D01*
X109308513Y-81490596D01*
X109200931Y-81456158D01*
X109200928Y-81456157D01*
X109192133Y-81453342D01*
X109066002Y-81432800D01*
X108942983Y-81412765D01*
X108942977Y-81412764D01*
X108933868Y-81411281D01*
X108924638Y-81411160D01*
X108924636Y-81411160D01*
X108749966Y-81408874D01*
X108672223Y-81407856D01*
X108618587Y-81415156D01*
X108422091Y-81441897D01*
X108422087Y-81441898D01*
X108412945Y-81443142D01*
X108161731Y-81516364D01*
X108153346Y-81520229D01*
X108153342Y-81520231D01*
X107997870Y-81591905D01*
X107924099Y-81625914D01*
X107889119Y-81648848D01*
X107728213Y-81754343D01*
X107705270Y-81769385D01*
X107657451Y-81812065D01*
X107619128Y-81846269D01*
X107535416Y-81895579D01*
X107453324Y-81909500D01*
X106137608Y-81909501D01*
X105877206Y-81909501D01*
X105808749Y-81915790D01*
X105656199Y-81963597D01*
X105531945Y-82038848D01*
X105440620Y-82071997D01*
X105343561Y-82067674D01*
X105290111Y-82047823D01*
X105212583Y-82008406D01*
X105084557Y-81968653D01*
X104994047Y-81940549D01*
X104994045Y-81940549D01*
X104983979Y-81937423D01*
X104809237Y-81914262D01*
X104757134Y-81907356D01*
X104757133Y-81907356D01*
X104746684Y-81905971D01*
X104736158Y-81906366D01*
X104736153Y-81906366D01*
X104638762Y-81910023D01*
X104507482Y-81914952D01*
X104497172Y-81917115D01*
X104497166Y-81917116D01*
X104283529Y-81961941D01*
X104283526Y-81961942D01*
X104273212Y-81964106D01*
X104263408Y-81967978D01*
X104263404Y-81967979D01*
X104090521Y-82036254D01*
X104050574Y-82052030D01*
X104017670Y-82071997D01*
X103884674Y-82152702D01*
X103845934Y-82176210D01*
X103837972Y-82183119D01*
X103829449Y-82189334D01*
X103828430Y-82187936D01*
X103755676Y-82229431D01*
X103659286Y-82241603D01*
X103565576Y-82215963D01*
X103528256Y-82193003D01*
X103425959Y-82116892D01*
X103416563Y-82112115D01*
X103416560Y-82112113D01*
X103221985Y-82013186D01*
X103221983Y-82013185D01*
X103212583Y-82008406D01*
X103084557Y-81968653D01*
X102994047Y-81940549D01*
X102994045Y-81940549D01*
X102983979Y-81937423D01*
X102809237Y-81914262D01*
X102757134Y-81907356D01*
X102757133Y-81907356D01*
X102746684Y-81905971D01*
X102736158Y-81906366D01*
X102736153Y-81906366D01*
X102638762Y-81910023D01*
X102507482Y-81914952D01*
X102497172Y-81917115D01*
X102497166Y-81917116D01*
X102283529Y-81961941D01*
X102283526Y-81961942D01*
X102273212Y-81964106D01*
X102263399Y-81967981D01*
X102263400Y-81967981D01*
X102134508Y-82018882D01*
X102038919Y-82036254D01*
X101943958Y-82015722D01*
X101872438Y-81968653D01*
X101697756Y-81804329D01*
X101691026Y-81797998D01*
X101683438Y-81792734D01*
X101683433Y-81792730D01*
X101548769Y-81699311D01*
X101476027Y-81648848D01*
X101360558Y-81591905D01*
X101249630Y-81537201D01*
X101249628Y-81537200D01*
X101241344Y-81533115D01*
X101108513Y-81490596D01*
X101000931Y-81456158D01*
X101000928Y-81456157D01*
X100992133Y-81453342D01*
X100866002Y-81432800D01*
X100742983Y-81412765D01*
X100742977Y-81412764D01*
X100733868Y-81411281D01*
X100724638Y-81411160D01*
X100724636Y-81411160D01*
X100549966Y-81408874D01*
X100472223Y-81407856D01*
X100418587Y-81415156D01*
X100222091Y-81441897D01*
X100222087Y-81441898D01*
X100212945Y-81443142D01*
X99961731Y-81516364D01*
X99953346Y-81520229D01*
X99953342Y-81520231D01*
X99797870Y-81591905D01*
X99724099Y-81625914D01*
X99689119Y-81648848D01*
X99528213Y-81754343D01*
X99505270Y-81769385D01*
X99498381Y-81775534D01*
X99498378Y-81775536D01*
X99381431Y-81879915D01*
X99310051Y-81943624D01*
X99142730Y-82144806D01*
X99103123Y-82210076D01*
X99011773Y-82360615D01*
X99011770Y-82360621D01*
X99006984Y-82368508D01*
X99003415Y-82377019D01*
X99003413Y-82377023D01*
X98955168Y-82492076D01*
X98905794Y-82609819D01*
X98903520Y-82618773D01*
X98903519Y-82618776D01*
X98897748Y-82641500D01*
X98841384Y-82863435D01*
X98840458Y-82872626D01*
X98840458Y-82872629D01*
X98823236Y-83043667D01*
X98819500Y-83080765D01*
X98819500Y-84536435D01*
X98819843Y-84541044D01*
X98819843Y-84541057D01*
X98825656Y-84619270D01*
X98833955Y-84730948D01*
X98835994Y-84739961D01*
X98835995Y-84739965D01*
X98848327Y-84794464D01*
X98891704Y-84986164D01*
X98912137Y-85038706D01*
X98969853Y-85187121D01*
X98986543Y-85230040D01*
X98991129Y-85238064D01*
X98991130Y-85238066D01*
X99014746Y-85279385D01*
X99116386Y-85457220D01*
X99122100Y-85464469D01*
X99122104Y-85464474D01*
X99145253Y-85493838D01*
X99278383Y-85662712D01*
X99468974Y-85842002D01*
X99476562Y-85847266D01*
X99476567Y-85847270D01*
X99574921Y-85915500D01*
X99683973Y-85991152D01*
X99703979Y-86001018D01*
X99781056Y-86060162D01*
X99829633Y-86144301D01*
X99842314Y-86240625D01*
X99817168Y-86334469D01*
X99800882Y-86362676D01*
X99704356Y-86507136D01*
X99635657Y-86575835D01*
X99545897Y-86613014D01*
X99448742Y-86613013D01*
X99358983Y-86575833D01*
X99301775Y-86522950D01*
X99289842Y-86507812D01*
X99268295Y-86480479D01*
X99264338Y-86475322D01*
X99232203Y-86432289D01*
X99211594Y-86404690D01*
X99187595Y-86382505D01*
X99152091Y-86349686D01*
X99145042Y-86342910D01*
X96478429Y-83676297D01*
X96424453Y-83595515D01*
X96405499Y-83500227D01*
X96405499Y-82931269D01*
X96399210Y-82862812D01*
X96351403Y-82710262D01*
X96268588Y-82573518D01*
X96155545Y-82460475D01*
X96018801Y-82377660D01*
X95866251Y-82329853D01*
X95853097Y-82328644D01*
X95853095Y-82328644D01*
X95803468Y-82324084D01*
X95803462Y-82324084D01*
X95797795Y-82323563D01*
X94945225Y-82323563D01*
X94092206Y-82323564D01*
X94023749Y-82329853D01*
X93871199Y-82377660D01*
X93734455Y-82460475D01*
X93621412Y-82573518D01*
X93538597Y-82710262D01*
X93534110Y-82724580D01*
X93534109Y-82724582D01*
X93504219Y-82819961D01*
X93457637Y-82905221D01*
X93381974Y-82966165D01*
X93288747Y-82993514D01*
X93266613Y-82994500D01*
X92517525Y-82994501D01*
X92492206Y-82994501D01*
X92423749Y-83000790D01*
X92271199Y-83048597D01*
X92134455Y-83131412D01*
X92021412Y-83244455D01*
X91938597Y-83381199D01*
X91890790Y-83533749D01*
X91889581Y-83546903D01*
X91889581Y-83546905D01*
X91885115Y-83595515D01*
X91884500Y-83602205D01*
X91884501Y-84432295D01*
X91884501Y-85078645D01*
X91865547Y-85173933D01*
X91811571Y-85254714D01*
X91730789Y-85308691D01*
X91651786Y-85327112D01*
X91452277Y-85340188D01*
X91436150Y-85342312D01*
X91156431Y-85397951D01*
X91140730Y-85402158D01*
X90870648Y-85493838D01*
X90855637Y-85500056D01*
X90759856Y-85547290D01*
X90743309Y-85559987D01*
X90743328Y-85560057D01*
X90752297Y-85572574D01*
X91727659Y-86547936D01*
X91745001Y-86559523D01*
X91762340Y-86547938D01*
X91802466Y-86507812D01*
X91814055Y-86490468D01*
X91802471Y-86473131D01*
X91336110Y-86006770D01*
X91282134Y-85925988D01*
X91263180Y-85830700D01*
X91282134Y-85735412D01*
X91336110Y-85654630D01*
X91536936Y-85453804D01*
X91617718Y-85399828D01*
X91713006Y-85380874D01*
X91808294Y-85399828D01*
X91889076Y-85453804D01*
X91936679Y-85522679D01*
X91938597Y-85528801D01*
X91946368Y-85541632D01*
X91946370Y-85541637D01*
X91971116Y-85582497D01*
X92021412Y-85665545D01*
X92134455Y-85778588D01*
X92271199Y-85861403D01*
X92423749Y-85909210D01*
X92436903Y-85910419D01*
X92436905Y-85910419D01*
X92486532Y-85914979D01*
X92486538Y-85914979D01*
X92492205Y-85915500D01*
X93263022Y-85915500D01*
X93358307Y-85934453D01*
X93439089Y-85988429D01*
X95395459Y-87944799D01*
X95412800Y-87956386D01*
X95412861Y-87956345D01*
X95421830Y-87943828D01*
X95470881Y-87844363D01*
X95477099Y-87829352D01*
X95568779Y-87559270D01*
X95572986Y-87543569D01*
X95628625Y-87263850D01*
X95630749Y-87247723D01*
X95649402Y-86963132D01*
X95649402Y-86946868D01*
X95635352Y-86732502D01*
X95648034Y-86636178D01*
X95696611Y-86552040D01*
X95773689Y-86492896D01*
X95867534Y-86467750D01*
X95963858Y-86480432D01*
X96047996Y-86529009D01*
X96059889Y-86540147D01*
X97112050Y-87592308D01*
X97166026Y-87673090D01*
X97184980Y-87768378D01*
X97184980Y-91734955D01*
X97166026Y-91830243D01*
X97112050Y-91911025D01*
X97031268Y-91965001D01*
X96935980Y-91983955D01*
X96840692Y-91965001D01*
X96825850Y-91958276D01*
X96594377Y-91844126D01*
X96579341Y-91837898D01*
X96309272Y-91746222D01*
X96293573Y-91742015D01*
X96079051Y-91699344D01*
X96058197Y-91699344D01*
X96055000Y-91707063D01*
X96055000Y-97011000D01*
X96036046Y-97106288D01*
X95982070Y-97187070D01*
X95901288Y-97241046D01*
X95806000Y-97260000D01*
X92755217Y-97260000D01*
X92734759Y-97264069D01*
X92734744Y-97264144D01*
X92737252Y-97279330D01*
X92772898Y-97384341D01*
X92779125Y-97399375D01*
X92905265Y-97655161D01*
X92913395Y-97669242D01*
X93071836Y-97906368D01*
X93081750Y-97919289D01*
X93269790Y-98133706D01*
X93281301Y-98145217D01*
X93455563Y-98298041D01*
X93514707Y-98375119D01*
X93539853Y-98468964D01*
X93526103Y-98568368D01*
X93491527Y-98666006D01*
X93491525Y-98666013D01*
X93488115Y-98675643D01*
X93445999Y-98912084D01*
X93445874Y-98922305D01*
X93445874Y-98922306D01*
X93444874Y-99004189D01*
X93443065Y-99152228D01*
X93479392Y-99389628D01*
X93482567Y-99399342D01*
X93482568Y-99399346D01*
X93498916Y-99449361D01*
X93554005Y-99617906D01*
X93664900Y-99830933D01*
X93671037Y-99839106D01*
X93671039Y-99839110D01*
X93711952Y-99893601D01*
X93732789Y-99921352D01*
X93736334Y-99926074D01*
X93778390Y-100013655D01*
X93783729Y-100110663D01*
X93751538Y-100202330D01*
X93696342Y-100265269D01*
X93694455Y-100266412D01*
X93581412Y-100379455D01*
X93498597Y-100516199D01*
X93450790Y-100668749D01*
X93449581Y-100681903D01*
X93449581Y-100681905D01*
X93445117Y-100730495D01*
X93444500Y-100737205D01*
X93444501Y-102442794D01*
X93450790Y-102511251D01*
X93498597Y-102663801D01*
X93581412Y-102800545D01*
X93694455Y-102913588D01*
X93831199Y-102996403D01*
X93983749Y-103044210D01*
X93996903Y-103045419D01*
X93996905Y-103045419D01*
X94046532Y-103049979D01*
X94046538Y-103049979D01*
X94052205Y-103050500D01*
X95304670Y-103050500D01*
X96557794Y-103050499D01*
X96626251Y-103044210D01*
X96778801Y-102996403D01*
X96915545Y-102913588D01*
X97028588Y-102800545D01*
X97111403Y-102663801D01*
X97159210Y-102511251D01*
X97165500Y-102442795D01*
X97165499Y-100737206D01*
X97159210Y-100668749D01*
X97111403Y-100516199D01*
X97028588Y-100379455D01*
X96915545Y-100266412D01*
X96914185Y-100265588D01*
X96856279Y-100198149D01*
X96826014Y-100105828D01*
X96833382Y-100008953D01*
X96877800Y-99921587D01*
X96919319Y-99869015D01*
X96919321Y-99869012D01*
X96925650Y-99860998D01*
X97041717Y-99650744D01*
X97108512Y-99462123D01*
X97118475Y-99433987D01*
X97118475Y-99433985D01*
X97121885Y-99424357D01*
X97164001Y-99187916D01*
X97164248Y-99167748D01*
X97166810Y-98957998D01*
X97166935Y-98947772D01*
X97130608Y-98710372D01*
X97124032Y-98690252D01*
X97082228Y-98562352D01*
X97070640Y-98465891D01*
X97096848Y-98372338D01*
X97154728Y-98297787D01*
X97328698Y-98145218D01*
X97340210Y-98133706D01*
X97528257Y-97919281D01*
X97538155Y-97906380D01*
X97696607Y-97669241D01*
X97704735Y-97655161D01*
X97797793Y-97466459D01*
X97856937Y-97389381D01*
X97941076Y-97340803D01*
X98037399Y-97328122D01*
X98131244Y-97353268D01*
X98175266Y-97381044D01*
X98185842Y-97389381D01*
X98212027Y-97410024D01*
X98217066Y-97414104D01*
X98284869Y-97470495D01*
X98294836Y-97476076D01*
X98295759Y-97476711D01*
X98297145Y-97477732D01*
X98298856Y-97478876D01*
X98300307Y-97479752D01*
X98301274Y-97480380D01*
X98310238Y-97487447D01*
X98320339Y-97492762D01*
X98320346Y-97492766D01*
X98388299Y-97528518D01*
X98394017Y-97531622D01*
X98470960Y-97574712D01*
X98481771Y-97578381D01*
X98482799Y-97578839D01*
X98484326Y-97579580D01*
X98486247Y-97580405D01*
X98487850Y-97581008D01*
X98488879Y-97581434D01*
X98498993Y-97586756D01*
X98582638Y-97612728D01*
X98583224Y-97612910D01*
X98589416Y-97614921D01*
X98672926Y-97643269D01*
X98684220Y-97644907D01*
X98685329Y-97645173D01*
X98686994Y-97645631D01*
X98688968Y-97646077D01*
X98690645Y-97646377D01*
X98691782Y-97646619D01*
X98702685Y-97650004D01*
X98714022Y-97651346D01*
X98725187Y-97653719D01*
X98724604Y-97656462D01*
X98798297Y-97680403D01*
X98872177Y-97743498D01*
X98916287Y-97830062D01*
X98923913Y-97926917D01*
X98893894Y-98019318D01*
X98872053Y-98051977D01*
X98724350Y-98239002D01*
X98608283Y-98449256D01*
X98604875Y-98458879D01*
X98604874Y-98458882D01*
X98531525Y-98666013D01*
X98528115Y-98675643D01*
X98485999Y-98912084D01*
X98485874Y-98922305D01*
X98485874Y-98922306D01*
X98484874Y-99004189D01*
X98483065Y-99152228D01*
X98519392Y-99389628D01*
X98522567Y-99399342D01*
X98522568Y-99399346D01*
X98538916Y-99449361D01*
X98594005Y-99617906D01*
X98704900Y-99830933D01*
X98717557Y-99847791D01*
X98842964Y-100014818D01*
X98842968Y-100014822D01*
X98849098Y-100022987D01*
X98935787Y-100105828D01*
X98972028Y-100140461D01*
X99027824Y-100219997D01*
X99048935Y-100314830D01*
X99032148Y-100410524D01*
X98980018Y-100492509D01*
X98967589Y-100504638D01*
X98873197Y-100590528D01*
X98866861Y-100598551D01*
X98749064Y-100747709D01*
X98724350Y-100779002D01*
X98608283Y-100989256D01*
X98604875Y-100998879D01*
X98604874Y-100998882D01*
X98531525Y-101206013D01*
X98528115Y-101215643D01*
X98485999Y-101452084D01*
X98485874Y-101462305D01*
X98485874Y-101462306D01*
X98484729Y-101555991D01*
X98483065Y-101692228D01*
X98519392Y-101929628D01*
X98522567Y-101939342D01*
X98522568Y-101939346D01*
X98590828Y-102148186D01*
X98594005Y-102157906D01*
X98598725Y-102166973D01*
X98657192Y-102279286D01*
X98704900Y-102370933D01*
X98711038Y-102379108D01*
X98842964Y-102554818D01*
X98842968Y-102554822D01*
X98849098Y-102562987D01*
X99022728Y-102728911D01*
X99104529Y-102784712D01*
X99212680Y-102858488D01*
X99212684Y-102858490D01*
X99221126Y-102864249D01*
X99278304Y-102890790D01*
X99429702Y-102961067D01*
X99429705Y-102961068D01*
X99438964Y-102965366D01*
X99448799Y-102968093D01*
X99448803Y-102968095D01*
X99660543Y-103026816D01*
X99660547Y-103026817D01*
X99670392Y-103029547D01*
X99798716Y-103043261D01*
X99859863Y-103049796D01*
X99859866Y-103049796D01*
X99866452Y-103050500D01*
X100805876Y-103050500D01*
X100984355Y-103035826D01*
X100994261Y-103033338D01*
X100994266Y-103033337D01*
X101207366Y-102979810D01*
X101207369Y-102979809D01*
X101217282Y-102977319D01*
X101388254Y-102902979D01*
X101428155Y-102885630D01*
X101428159Y-102885628D01*
X101437526Y-102881555D01*
X101639171Y-102751104D01*
X101650965Y-102740373D01*
X101809242Y-102596352D01*
X101816803Y-102589472D01*
X101893763Y-102492023D01*
X101959319Y-102409015D01*
X101959321Y-102409012D01*
X101965650Y-102400998D01*
X102081717Y-102190744D01*
X102088868Y-102170552D01*
X102158475Y-101973987D01*
X102158475Y-101973985D01*
X102161885Y-101964357D01*
X102204001Y-101727916D01*
X102204519Y-101685560D01*
X102206810Y-101497998D01*
X102206935Y-101487772D01*
X102170608Y-101250372D01*
X102162546Y-101225704D01*
X102099172Y-101031814D01*
X102095995Y-101022094D01*
X101985100Y-100809067D01*
X101962527Y-100779002D01*
X101847036Y-100625182D01*
X101847032Y-100625178D01*
X101840902Y-100617013D01*
X101717972Y-100499539D01*
X101662176Y-100420003D01*
X101641065Y-100325170D01*
X101657852Y-100229476D01*
X101709982Y-100147491D01*
X101722411Y-100135362D01*
X101816803Y-100049472D01*
X101868910Y-99983493D01*
X101959319Y-99869015D01*
X101959321Y-99869012D01*
X101965650Y-99860998D01*
X102081717Y-99650744D01*
X102148512Y-99462123D01*
X102158475Y-99433987D01*
X102158475Y-99433985D01*
X102161885Y-99424357D01*
X102204001Y-99187916D01*
X102204248Y-99167748D01*
X102206810Y-98957998D01*
X102206935Y-98947772D01*
X102170608Y-98710372D01*
X102163950Y-98690000D01*
X102099172Y-98491814D01*
X102095995Y-98482094D01*
X101998549Y-98294903D01*
X101989819Y-98278132D01*
X101985100Y-98269067D01*
X101907008Y-98165058D01*
X101847036Y-98085182D01*
X101847032Y-98085178D01*
X101840902Y-98077013D01*
X101717972Y-97959539D01*
X101662176Y-97880003D01*
X101641065Y-97785170D01*
X101657852Y-97689476D01*
X101709982Y-97607491D01*
X101722411Y-97595362D01*
X101816803Y-97509472D01*
X101915625Y-97384341D01*
X101959319Y-97329015D01*
X101959321Y-97329012D01*
X101965650Y-97320998D01*
X102081717Y-97110744D01*
X102088307Y-97092136D01*
X102158475Y-96893987D01*
X102158475Y-96893985D01*
X102161885Y-96884357D01*
X102204001Y-96647916D01*
X102206935Y-96407772D01*
X102170608Y-96170372D01*
X102166899Y-96159022D01*
X102099172Y-95951814D01*
X102095995Y-95942094D01*
X101999085Y-95755931D01*
X101989819Y-95738132D01*
X101985100Y-95729067D01*
X101928383Y-95653527D01*
X101847036Y-95545182D01*
X101847032Y-95545178D01*
X101840902Y-95537013D01*
X101717972Y-95419539D01*
X101662176Y-95340003D01*
X101641065Y-95245170D01*
X101657852Y-95149476D01*
X101709982Y-95067491D01*
X101722411Y-95055362D01*
X101816803Y-94969472D01*
X101910184Y-94851231D01*
X101959319Y-94789015D01*
X101959321Y-94789012D01*
X101965650Y-94780998D01*
X101997035Y-94724144D01*
X105394744Y-94724144D01*
X105397252Y-94739330D01*
X105432898Y-94844341D01*
X105439125Y-94859375D01*
X105565262Y-95115155D01*
X105565463Y-95115503D01*
X105565528Y-95115693D01*
X105568868Y-95122467D01*
X105567976Y-95122907D01*
X105596691Y-95207502D01*
X105590336Y-95304449D01*
X105568435Y-95357318D01*
X105568868Y-95357532D01*
X105565609Y-95364140D01*
X105565456Y-95364510D01*
X105565256Y-95364856D01*
X105439125Y-95620625D01*
X105432898Y-95635659D01*
X105398573Y-95736778D01*
X105395851Y-95757455D01*
X105395916Y-95757493D01*
X105411104Y-95760000D01*
X107190473Y-95760000D01*
X107210931Y-95755931D01*
X107215000Y-95735473D01*
X108715000Y-95735473D01*
X108719069Y-95755931D01*
X108739527Y-95760000D01*
X110514783Y-95760000D01*
X110535241Y-95755931D01*
X110535256Y-95755856D01*
X110532748Y-95740670D01*
X110497102Y-95635659D01*
X110490875Y-95620625D01*
X110364738Y-95364845D01*
X110364537Y-95364497D01*
X110364472Y-95364307D01*
X110361132Y-95357533D01*
X110362024Y-95357093D01*
X110333309Y-95272498D01*
X110339664Y-95175551D01*
X110361565Y-95122682D01*
X110361132Y-95122468D01*
X110364391Y-95115860D01*
X110364544Y-95115490D01*
X110364744Y-95115144D01*
X110490875Y-94859375D01*
X110497102Y-94844341D01*
X110531427Y-94743222D01*
X110534149Y-94722545D01*
X110534084Y-94722507D01*
X110518896Y-94720000D01*
X108739527Y-94720000D01*
X108719069Y-94724069D01*
X108715000Y-94744527D01*
X108715000Y-95735473D01*
X107215000Y-95735473D01*
X107215000Y-94744527D01*
X107210931Y-94724069D01*
X107190473Y-94720000D01*
X105415217Y-94720000D01*
X105394759Y-94724069D01*
X105394744Y-94724144D01*
X101997035Y-94724144D01*
X102081717Y-94570744D01*
X102087285Y-94555022D01*
X102158475Y-94353987D01*
X102158475Y-94353985D01*
X102161885Y-94344357D01*
X102204001Y-94107916D01*
X102206935Y-93867772D01*
X102170608Y-93630372D01*
X102147566Y-93559873D01*
X102099172Y-93411814D01*
X102095995Y-93402094D01*
X101999085Y-93215931D01*
X101989819Y-93198132D01*
X101985100Y-93189067D01*
X101938653Y-93127205D01*
X101847036Y-93005182D01*
X101847032Y-93005178D01*
X101840902Y-92997013D01*
X101667272Y-92831089D01*
X101533594Y-92739900D01*
X101477320Y-92701512D01*
X101477316Y-92701510D01*
X101468874Y-92695751D01*
X101318238Y-92625828D01*
X101260298Y-92598933D01*
X101260295Y-92598932D01*
X101251036Y-92594634D01*
X101241201Y-92591907D01*
X101241197Y-92591905D01*
X101029457Y-92533184D01*
X101029453Y-92533183D01*
X101019608Y-92530453D01*
X100889947Y-92516596D01*
X100830137Y-92510204D01*
X100830134Y-92510204D01*
X100823548Y-92509500D01*
X99884124Y-92509500D01*
X99839488Y-92513170D01*
X99775382Y-92518440D01*
X99678862Y-92507357D01*
X99593929Y-92460181D01*
X99533515Y-92384094D01*
X99506817Y-92290679D01*
X99505980Y-92270277D01*
X99505980Y-90134195D01*
X100134932Y-90134195D01*
X100148757Y-90373959D01*
X100151004Y-90383928D01*
X100151004Y-90383931D01*
X100196928Y-90587709D01*
X100201556Y-90608246D01*
X100291911Y-90830763D01*
X100297254Y-90839482D01*
X100381080Y-90976273D01*
X100417396Y-91035536D01*
X100424085Y-91043258D01*
X100536768Y-91173342D01*
X100574640Y-91217063D01*
X100582501Y-91223589D01*
X100731289Y-91347115D01*
X100759421Y-91370471D01*
X100768242Y-91375626D01*
X100768244Y-91375627D01*
X100803093Y-91395991D01*
X100966776Y-91491640D01*
X100976316Y-91495283D01*
X101181588Y-91573669D01*
X101181592Y-91573670D01*
X101191137Y-91577315D01*
X101305310Y-91600544D01*
X101416465Y-91623159D01*
X101416467Y-91623159D01*
X101426478Y-91625196D01*
X101526360Y-91628858D01*
X101656267Y-91633622D01*
X101656273Y-91633622D01*
X101666480Y-91633996D01*
X101676611Y-91632698D01*
X101676616Y-91632698D01*
X101803951Y-91616386D01*
X101904696Y-91603480D01*
X101914478Y-91600545D01*
X101914484Y-91600544D01*
X102124940Y-91537404D01*
X102124942Y-91537403D01*
X102134729Y-91534467D01*
X102143904Y-91529972D01*
X102143907Y-91529971D01*
X102325430Y-91441043D01*
X102350401Y-91428810D01*
X102545921Y-91289347D01*
X102674154Y-91161561D01*
X102755030Y-91107726D01*
X102850351Y-91088938D01*
X102945606Y-91108059D01*
X103026293Y-91162176D01*
X103038123Y-91174907D01*
X103074640Y-91217063D01*
X103082501Y-91223589D01*
X103231289Y-91347115D01*
X103259421Y-91370471D01*
X103268242Y-91375626D01*
X103268244Y-91375627D01*
X103303093Y-91395991D01*
X103466776Y-91491640D01*
X103476316Y-91495283D01*
X103681588Y-91573669D01*
X103681592Y-91573670D01*
X103691137Y-91577315D01*
X103805310Y-91600544D01*
X103916465Y-91623159D01*
X103916467Y-91623159D01*
X103926478Y-91625196D01*
X104026360Y-91628858D01*
X104156267Y-91633622D01*
X104156273Y-91633622D01*
X104166480Y-91633996D01*
X104176611Y-91632698D01*
X104176616Y-91632698D01*
X104303951Y-91616386D01*
X104404696Y-91603480D01*
X104414478Y-91600545D01*
X104414484Y-91600544D01*
X104624940Y-91537404D01*
X104624942Y-91537403D01*
X104634729Y-91534467D01*
X104643904Y-91529972D01*
X104643907Y-91529971D01*
X104825430Y-91441043D01*
X104850401Y-91428810D01*
X105045921Y-91289347D01*
X105216038Y-91119823D01*
X105356183Y-90924791D01*
X105462592Y-90709488D01*
X105506912Y-90563614D01*
X105529436Y-90489481D01*
X105529437Y-90489477D01*
X105532408Y-90479698D01*
X105551275Y-90336386D01*
X105562891Y-90248155D01*
X105562891Y-90248150D01*
X105563755Y-90241590D01*
X105565505Y-90170000D01*
X105563401Y-90144402D01*
X105550520Y-89987735D01*
X105545826Y-89930645D01*
X105540531Y-89909562D01*
X105489810Y-89707634D01*
X105489809Y-89707631D01*
X105487319Y-89697718D01*
X105416247Y-89534262D01*
X105395630Y-89486845D01*
X105395628Y-89486841D01*
X105391555Y-89477474D01*
X105261104Y-89275829D01*
X105235535Y-89247728D01*
X105106352Y-89105758D01*
X105099472Y-89098197D01*
X105017309Y-89033309D01*
X104919015Y-88955681D01*
X104919012Y-88955679D01*
X104910998Y-88949350D01*
X104700744Y-88833283D01*
X104691121Y-88829875D01*
X104691118Y-88829874D01*
X104483987Y-88756525D01*
X104483985Y-88756525D01*
X104474357Y-88753115D01*
X104237916Y-88710999D01*
X104227695Y-88710874D01*
X104227694Y-88710874D01*
X104086832Y-88709153D01*
X103997772Y-88708065D01*
X103979415Y-88710874D01*
X103938431Y-88717145D01*
X103841372Y-88712822D01*
X103753356Y-88671685D01*
X103687782Y-88599998D01*
X103654633Y-88508673D01*
X103658956Y-88411614D01*
X103664982Y-88390972D01*
X103726980Y-88208332D01*
X103731184Y-88192641D01*
X103784268Y-87925765D01*
X103786391Y-87909642D01*
X103804187Y-87638132D01*
X103804187Y-87621868D01*
X103786391Y-87350358D01*
X103784268Y-87334235D01*
X103731184Y-87067359D01*
X103726980Y-87051668D01*
X103639515Y-86794004D01*
X103633293Y-86778984D01*
X103580619Y-86672170D01*
X103567924Y-86655626D01*
X103567853Y-86655645D01*
X103555336Y-86664614D01*
X101600000Y-88619949D01*
X101572152Y-88647797D01*
X101491370Y-88701773D01*
X101433746Y-88717862D01*
X101335179Y-88732945D01*
X101260372Y-88744392D01*
X101250658Y-88747567D01*
X101250654Y-88747568D01*
X101100379Y-88796686D01*
X101032094Y-88819005D01*
X101023027Y-88823725D01*
X100828851Y-88924807D01*
X100819067Y-88929900D01*
X100810892Y-88936038D01*
X100635182Y-89067964D01*
X100635178Y-89067968D01*
X100627013Y-89074098D01*
X100461089Y-89247728D01*
X100325751Y-89446126D01*
X100295112Y-89512133D01*
X100240400Y-89630000D01*
X100224634Y-89663964D01*
X100221907Y-89673799D01*
X100221905Y-89673803D01*
X100180237Y-89824052D01*
X100160453Y-89895392D01*
X100153846Y-89957214D01*
X100136314Y-90121267D01*
X100134932Y-90134195D01*
X99505980Y-90134195D01*
X99505980Y-88822666D01*
X99524934Y-88727378D01*
X99578910Y-88646596D01*
X99609944Y-88620267D01*
X99644660Y-88595390D01*
X101600000Y-86640051D01*
X102433866Y-85806184D01*
X102514648Y-85752208D01*
X102608949Y-85733450D01*
X102613316Y-85734029D01*
X102852518Y-85725048D01*
X102862828Y-85722885D01*
X102862834Y-85722884D01*
X103076471Y-85678059D01*
X103076474Y-85678058D01*
X103086788Y-85675894D01*
X103096592Y-85672022D01*
X103096596Y-85672021D01*
X103299614Y-85591845D01*
X103299615Y-85591845D01*
X103309426Y-85587970D01*
X103436641Y-85510773D01*
X103505052Y-85469260D01*
X103505053Y-85469259D01*
X103514066Y-85463790D01*
X103522028Y-85456881D01*
X103530551Y-85450666D01*
X103531570Y-85452064D01*
X103604324Y-85410569D01*
X103700714Y-85398397D01*
X103794424Y-85424037D01*
X103831744Y-85446997D01*
X103934041Y-85523108D01*
X103943437Y-85527885D01*
X103943440Y-85527887D01*
X104138015Y-85626814D01*
X104147417Y-85631594D01*
X104157491Y-85634722D01*
X104365953Y-85699451D01*
X104365955Y-85699451D01*
X104376021Y-85702577D01*
X104509426Y-85720259D01*
X104602866Y-85732644D01*
X104602867Y-85732644D01*
X104613316Y-85734029D01*
X104623842Y-85733634D01*
X104623847Y-85733634D01*
X104723415Y-85729895D01*
X104852518Y-85725048D01*
X104862828Y-85722885D01*
X104862834Y-85722884D01*
X105076471Y-85678059D01*
X105076474Y-85678058D01*
X105086788Y-85675894D01*
X105096592Y-85672022D01*
X105096596Y-85672021D01*
X105309426Y-85587970D01*
X105310132Y-85589757D01*
X105390035Y-85568131D01*
X105486391Y-85580569D01*
X105535936Y-85603570D01*
X105615114Y-85651521D01*
X105656199Y-85676403D01*
X105808749Y-85724210D01*
X105821903Y-85725419D01*
X105821905Y-85725419D01*
X105871532Y-85729979D01*
X105871538Y-85729979D01*
X105877205Y-85730500D01*
X106126221Y-85730500D01*
X107451731Y-85730499D01*
X107547019Y-85749453D01*
X107622342Y-85798135D01*
X107668974Y-85842002D01*
X107676562Y-85847266D01*
X107676567Y-85847270D01*
X107774921Y-85915500D01*
X107883973Y-85991152D01*
X107989378Y-86043132D01*
X108086897Y-86091223D01*
X108118656Y-86106885D01*
X108127453Y-86109701D01*
X108127463Y-86109705D01*
X108265368Y-86153849D01*
X108350342Y-86200950D01*
X108410822Y-86276985D01*
X108437602Y-86370376D01*
X108426603Y-86466906D01*
X108379502Y-86551880D01*
X108338964Y-86590114D01*
X108313632Y-86609134D01*
X108306569Y-86616525D01*
X108191848Y-86736574D01*
X108159069Y-86770875D01*
X108153316Y-86779308D01*
X108153314Y-86779311D01*
X108083464Y-86881708D01*
X108032998Y-86955689D01*
X108028702Y-86964943D01*
X108028699Y-86964949D01*
X107981162Y-87067359D01*
X107938804Y-87158612D01*
X107936074Y-87168457D01*
X107882571Y-87361384D01*
X107879018Y-87374194D01*
X107877932Y-87384355D01*
X107877931Y-87384361D01*
X107856331Y-87586479D01*
X107856331Y-87586485D01*
X107855245Y-87596646D01*
X107868123Y-87819994D01*
X107917306Y-88038239D01*
X107921150Y-88047705D01*
X107921151Y-88047709D01*
X107967572Y-88162029D01*
X108001475Y-88245521D01*
X108114292Y-88429621D01*
X108147917Y-88520769D01*
X108144103Y-88617849D01*
X108103428Y-88706080D01*
X108032085Y-88772029D01*
X107940935Y-88805655D01*
X107898941Y-88808702D01*
X107854771Y-88808162D01*
X107844670Y-88809708D01*
X107844665Y-88809708D01*
X107696669Y-88832355D01*
X107633626Y-88842002D01*
X107623910Y-88845178D01*
X107623909Y-88845178D01*
X107526701Y-88876951D01*
X107420978Y-88911507D01*
X107222537Y-89014808D01*
X107043632Y-89149134D01*
X107036569Y-89156525D01*
X106922560Y-89275829D01*
X106889069Y-89310875D01*
X106762998Y-89495689D01*
X106758702Y-89504943D01*
X106758699Y-89504949D01*
X106696878Y-89638132D01*
X106668804Y-89698612D01*
X106663353Y-89718269D01*
X106616964Y-89885543D01*
X106609018Y-89914194D01*
X106607932Y-89924355D01*
X106607931Y-89924361D01*
X106586331Y-90126479D01*
X106586331Y-90126485D01*
X106585245Y-90136646D01*
X106598123Y-90359994D01*
X106620320Y-90458493D01*
X106642722Y-90557896D01*
X106647306Y-90578239D01*
X106651150Y-90587705D01*
X106651151Y-90587709D01*
X106681628Y-90662764D01*
X106731475Y-90785521D01*
X106736815Y-90794235D01*
X106736816Y-90794237D01*
X106813074Y-90918678D01*
X106848368Y-90976273D01*
X106994845Y-91145372D01*
X107002707Y-91151899D01*
X107002711Y-91151903D01*
X107166975Y-91288276D01*
X107165286Y-91290310D01*
X107220162Y-91347628D01*
X107255379Y-91438175D01*
X107253264Y-91535307D01*
X107214140Y-91624236D01*
X107143962Y-91691424D01*
X107058743Y-91725641D01*
X106976428Y-91742015D01*
X106960730Y-91746221D01*
X106690659Y-91837898D01*
X106675624Y-91844126D01*
X106419839Y-91970265D01*
X106405758Y-91978395D01*
X106168632Y-92136836D01*
X106155711Y-92146750D01*
X105941294Y-92334790D01*
X105929790Y-92346294D01*
X105741743Y-92560719D01*
X105731845Y-92573620D01*
X105573393Y-92810759D01*
X105565265Y-92824839D01*
X105439125Y-93080625D01*
X105432898Y-93095659D01*
X105398573Y-93196778D01*
X105395851Y-93217455D01*
X105395916Y-93217493D01*
X105411104Y-93220000D01*
X110514783Y-93220000D01*
X110535241Y-93215931D01*
X110535256Y-93215856D01*
X110532748Y-93200670D01*
X110497102Y-93095659D01*
X110490875Y-93080625D01*
X110364735Y-92824839D01*
X110356605Y-92810758D01*
X110198164Y-92573632D01*
X110188250Y-92560711D01*
X110000210Y-92346294D01*
X109988706Y-92334790D01*
X109774289Y-92146750D01*
X109761368Y-92136836D01*
X109524242Y-91978395D01*
X109510161Y-91970265D01*
X109383448Y-91907777D01*
X119512856Y-91907777D01*
X119516728Y-91936229D01*
X119546601Y-92155729D01*
X119548142Y-92167055D01*
X119621364Y-92418269D01*
X119625229Y-92426654D01*
X119625231Y-92426658D01*
X119701411Y-92591905D01*
X119730914Y-92655901D01*
X119798408Y-92758846D01*
X119863420Y-92858005D01*
X119874385Y-92874730D01*
X119880534Y-92881619D01*
X119880536Y-92881622D01*
X120027379Y-93046146D01*
X120048624Y-93069949D01*
X120249806Y-93237270D01*
X120343380Y-93294052D01*
X120465615Y-93368227D01*
X120465621Y-93368230D01*
X120473508Y-93373016D01*
X120482019Y-93376585D01*
X120482023Y-93376587D01*
X120634155Y-93440381D01*
X120714819Y-93474206D01*
X120723773Y-93476480D01*
X120723776Y-93476481D01*
X120778327Y-93490335D01*
X120968435Y-93538616D01*
X120977626Y-93539542D01*
X120977629Y-93539542D01*
X121179536Y-93559873D01*
X121179541Y-93559873D01*
X121185765Y-93560500D01*
X123141435Y-93560500D01*
X123146044Y-93560157D01*
X123146057Y-93560157D01*
X123283239Y-93549962D01*
X123335948Y-93546045D01*
X123344961Y-93544006D01*
X123344965Y-93544005D01*
X123582153Y-93490335D01*
X123591164Y-93488296D01*
X123741003Y-93430026D01*
X123826426Y-93396807D01*
X123826428Y-93396806D01*
X123835040Y-93393457D01*
X123862127Y-93377976D01*
X124054201Y-93268197D01*
X124062220Y-93263614D01*
X124069469Y-93257900D01*
X124069474Y-93257896D01*
X124167152Y-93180892D01*
X124267712Y-93101617D01*
X124447002Y-92911026D01*
X124452266Y-92903438D01*
X124452270Y-92903433D01*
X124536310Y-92782289D01*
X124596152Y-92696027D01*
X124680104Y-92525790D01*
X124707799Y-92469630D01*
X124707800Y-92469628D01*
X124711885Y-92461344D01*
X124779098Y-92251370D01*
X124788842Y-92220931D01*
X124788843Y-92220928D01*
X124791658Y-92212133D01*
X124816127Y-92061885D01*
X124832235Y-91962983D01*
X124832236Y-91962977D01*
X124833719Y-91953868D01*
X124837144Y-91692223D01*
X124815789Y-91535307D01*
X124803103Y-91442091D01*
X124803102Y-91442087D01*
X124801858Y-91432945D01*
X124728636Y-91181731D01*
X124719338Y-91161561D01*
X124695156Y-91109107D01*
X124672476Y-91014636D01*
X124687674Y-90918678D01*
X124738438Y-90835839D01*
X124817038Y-90778733D01*
X124831036Y-90772791D01*
X125026426Y-90696807D01*
X125026428Y-90696806D01*
X125035040Y-90693457D01*
X125262220Y-90563614D01*
X125269469Y-90557900D01*
X125269474Y-90557896D01*
X125368667Y-90479698D01*
X125467712Y-90401617D01*
X125647002Y-90211026D01*
X125652266Y-90203438D01*
X125652270Y-90203433D01*
X125790882Y-90003623D01*
X125796152Y-89996027D01*
X125911885Y-89761344D01*
X125959479Y-89612659D01*
X125988842Y-89520931D01*
X125988843Y-89520928D01*
X125991658Y-89512133D01*
X126021402Y-89329498D01*
X126032235Y-89262983D01*
X126032236Y-89262977D01*
X126033719Y-89253868D01*
X126033846Y-89244211D01*
X126037023Y-89001462D01*
X126037144Y-88992223D01*
X126017422Y-88847308D01*
X126003103Y-88742091D01*
X126003102Y-88742087D01*
X126001858Y-88732945D01*
X125928636Y-88481731D01*
X125904959Y-88430370D01*
X125822954Y-88252489D01*
X125822953Y-88252487D01*
X125819086Y-88244099D01*
X125706992Y-88073128D01*
X125680682Y-88032998D01*
X125680680Y-88032995D01*
X125675615Y-88025270D01*
X125640168Y-87985554D01*
X125507530Y-87836946D01*
X125501376Y-87830051D01*
X125300194Y-87662730D01*
X125191291Y-87596646D01*
X125158894Y-87576987D01*
X127575000Y-87576987D01*
X127575231Y-87584567D01*
X127589012Y-87809875D01*
X127590862Y-87824943D01*
X127646052Y-88122718D01*
X127649721Y-88137435D01*
X127740794Y-88426284D01*
X127746230Y-88440443D01*
X127871821Y-88716027D01*
X127878944Y-88729425D01*
X128037184Y-88987650D01*
X128045895Y-89000089D01*
X128234416Y-89237092D01*
X128244579Y-89248379D01*
X128460576Y-89460639D01*
X128472039Y-89470604D01*
X128712302Y-89654964D01*
X128724891Y-89663456D01*
X128985825Y-89817156D01*
X128999358Y-89824052D01*
X129277086Y-89944813D01*
X129291349Y-89950004D01*
X129401487Y-89982628D01*
X129422254Y-89984536D01*
X129423463Y-89982239D01*
X129425000Y-89971636D01*
X129425000Y-87374527D01*
X129420931Y-87354069D01*
X129400473Y-87350000D01*
X127599527Y-87350000D01*
X127579069Y-87354069D01*
X127575000Y-87374527D01*
X127575000Y-87576987D01*
X125158894Y-87576987D01*
X125084385Y-87531773D01*
X125084379Y-87531770D01*
X125076492Y-87526984D01*
X125067981Y-87523415D01*
X125067977Y-87523413D01*
X124843706Y-87429369D01*
X124835181Y-87425794D01*
X124826227Y-87423520D01*
X124826224Y-87423519D01*
X124722288Y-87397123D01*
X124581565Y-87361384D01*
X124572374Y-87360458D01*
X124572371Y-87360458D01*
X124370464Y-87340127D01*
X124370459Y-87340127D01*
X124364235Y-87339500D01*
X122408565Y-87339500D01*
X122403956Y-87339843D01*
X122403943Y-87339843D01*
X122271303Y-87349700D01*
X122214052Y-87353955D01*
X122205039Y-87355994D01*
X122205035Y-87355995D01*
X122023275Y-87397123D01*
X121958836Y-87411704D01*
X121714960Y-87506543D01*
X121487780Y-87636386D01*
X121480531Y-87642100D01*
X121480526Y-87642104D01*
X121411287Y-87696688D01*
X121282288Y-87798383D01*
X121102998Y-87988974D01*
X121097734Y-87996562D01*
X121097730Y-87996567D01*
X121046478Y-88070447D01*
X120953848Y-88203973D01*
X120949759Y-88212265D01*
X120842572Y-88429619D01*
X120838115Y-88438656D01*
X120758342Y-88687867D01*
X120740620Y-88796686D01*
X120717925Y-88936038D01*
X120716281Y-88946132D01*
X120716160Y-88955362D01*
X120716160Y-88955364D01*
X120714458Y-89085419D01*
X120712856Y-89207777D01*
X120731617Y-89345628D01*
X120745294Y-89446126D01*
X120748142Y-89467055D01*
X120821364Y-89718269D01*
X120825229Y-89726654D01*
X120825231Y-89726658D01*
X120854844Y-89790893D01*
X120877524Y-89885364D01*
X120862326Y-89981322D01*
X120811562Y-90064161D01*
X120732962Y-90121267D01*
X120718964Y-90127209D01*
X120537324Y-90197846D01*
X120514960Y-90206543D01*
X120506936Y-90211129D01*
X120506934Y-90211130D01*
X120401155Y-90271587D01*
X120287780Y-90336386D01*
X120280531Y-90342100D01*
X120280526Y-90342104D01*
X120213572Y-90394887D01*
X120082288Y-90498383D01*
X119902998Y-90688974D01*
X119897734Y-90696562D01*
X119897730Y-90696567D01*
X119822929Y-90804393D01*
X119753848Y-90903973D01*
X119749759Y-90912265D01*
X119651494Y-91111527D01*
X119638115Y-91138656D01*
X119613017Y-91217063D01*
X119571223Y-91347628D01*
X119558342Y-91387867D01*
X119542281Y-91486487D01*
X119518469Y-91632698D01*
X119516281Y-91646132D01*
X119512856Y-91907777D01*
X109383448Y-91907777D01*
X109254376Y-91844126D01*
X109239341Y-91837898D01*
X108969270Y-91746221D01*
X108953569Y-91742014D01*
X108842621Y-91719945D01*
X108752861Y-91682766D01*
X108684163Y-91614066D01*
X108646983Y-91524307D01*
X108646984Y-91427152D01*
X108684163Y-91337392D01*
X108746605Y-91273015D01*
X108822833Y-91218643D01*
X108822840Y-91218637D01*
X108831155Y-91212706D01*
X108989624Y-91054789D01*
X109120173Y-90873111D01*
X109205877Y-90699702D01*
X109214765Y-90681718D01*
X109214765Y-90681717D01*
X109219296Y-90672550D01*
X109284332Y-90458493D01*
X109313533Y-90236688D01*
X109315163Y-90170000D01*
X109313059Y-90144402D01*
X109312421Y-90136646D01*
X114205245Y-90136646D01*
X114218123Y-90359994D01*
X114240320Y-90458493D01*
X114262722Y-90557896D01*
X114267306Y-90578239D01*
X114271150Y-90587705D01*
X114271151Y-90587709D01*
X114301628Y-90662764D01*
X114351475Y-90785521D01*
X114356815Y-90794235D01*
X114356816Y-90794237D01*
X114433074Y-90918678D01*
X114468368Y-90976273D01*
X114614845Y-91145372D01*
X114622707Y-91151899D01*
X114622711Y-91151903D01*
X114764015Y-91269215D01*
X114786975Y-91288276D01*
X114980133Y-91401148D01*
X114989676Y-91404792D01*
X114989682Y-91404795D01*
X115179583Y-91477311D01*
X115179587Y-91477312D01*
X115189132Y-91480957D01*
X115308932Y-91505331D01*
X115398346Y-91523523D01*
X115398348Y-91523523D01*
X115408359Y-91525560D01*
X115506397Y-91529155D01*
X115621716Y-91533384D01*
X115621722Y-91533384D01*
X115631928Y-91533758D01*
X115642058Y-91532460D01*
X115642064Y-91532460D01*
X115742881Y-91519544D01*
X115853833Y-91505331D01*
X115863617Y-91502396D01*
X115863620Y-91502395D01*
X116058327Y-91443980D01*
X116058329Y-91443979D01*
X116068116Y-91441043D01*
X116077291Y-91436548D01*
X116077294Y-91436547D01*
X116165198Y-91393483D01*
X116269022Y-91342620D01*
X116451155Y-91212706D01*
X116609624Y-91054789D01*
X116740173Y-90873111D01*
X116825877Y-90699702D01*
X116834765Y-90681718D01*
X116834765Y-90681717D01*
X116839296Y-90672550D01*
X116904332Y-90458493D01*
X116933533Y-90236688D01*
X116935163Y-90170000D01*
X116933059Y-90144402D01*
X116917669Y-89957214D01*
X116916832Y-89947033D01*
X116908584Y-89914194D01*
X116877612Y-89790893D01*
X116862331Y-89730055D01*
X116857207Y-89718269D01*
X116777198Y-89534262D01*
X116777196Y-89534258D01*
X116773123Y-89524891D01*
X116767576Y-89516317D01*
X116767573Y-89516311D01*
X116657153Y-89345628D01*
X116651605Y-89337052D01*
X116501039Y-89171583D01*
X116325470Y-89032927D01*
X116129612Y-88924807D01*
X116119989Y-88921399D01*
X116119986Y-88921398D01*
X115928353Y-88853537D01*
X115928348Y-88853536D01*
X115918725Y-88850128D01*
X115908665Y-88848336D01*
X115708540Y-88812689D01*
X115708538Y-88812689D01*
X115698473Y-88810896D01*
X115688250Y-88810771D01*
X115688249Y-88810771D01*
X115571130Y-88809340D01*
X115474771Y-88808162D01*
X115464670Y-88809708D01*
X115464665Y-88809708D01*
X115316669Y-88832355D01*
X115253626Y-88842002D01*
X115243910Y-88845178D01*
X115243909Y-88845178D01*
X115146701Y-88876951D01*
X115040978Y-88911507D01*
X114842537Y-89014808D01*
X114663632Y-89149134D01*
X114656569Y-89156525D01*
X114542560Y-89275829D01*
X114509069Y-89310875D01*
X114382998Y-89495689D01*
X114378702Y-89504943D01*
X114378699Y-89504949D01*
X114316878Y-89638132D01*
X114288804Y-89698612D01*
X114283353Y-89718269D01*
X114236964Y-89885543D01*
X114229018Y-89914194D01*
X114227932Y-89924355D01*
X114227931Y-89924361D01*
X114206331Y-90126479D01*
X114206331Y-90126485D01*
X114205245Y-90136646D01*
X109312421Y-90136646D01*
X109297669Y-89957214D01*
X109296832Y-89947033D01*
X109288584Y-89914194D01*
X109257612Y-89790893D01*
X109242331Y-89730055D01*
X109237207Y-89718269D01*
X109157198Y-89534262D01*
X109157196Y-89534258D01*
X109153123Y-89524891D01*
X109147576Y-89516317D01*
X109147573Y-89516311D01*
X109057853Y-89377625D01*
X109022010Y-89287324D01*
X109023451Y-89190179D01*
X109061958Y-89100981D01*
X109131669Y-89033309D01*
X109221970Y-88997466D01*
X109261543Y-88994595D01*
X109261509Y-88993847D01*
X109271718Y-88993384D01*
X109281928Y-88993758D01*
X109292058Y-88992460D01*
X109292064Y-88992460D01*
X109392880Y-88979545D01*
X109503833Y-88965331D01*
X109513617Y-88962396D01*
X109513620Y-88962395D01*
X109708327Y-88903980D01*
X109708329Y-88903979D01*
X109718116Y-88901043D01*
X109727291Y-88896548D01*
X109727294Y-88896547D01*
X109838633Y-88842002D01*
X109919022Y-88802620D01*
X110101155Y-88672706D01*
X110259624Y-88514789D01*
X110390173Y-88333111D01*
X110489296Y-88132550D01*
X110554332Y-87918493D01*
X110583533Y-87696688D01*
X110585163Y-87630000D01*
X110584495Y-87621868D01*
X110567669Y-87417214D01*
X110566832Y-87407033D01*
X110558584Y-87374194D01*
X110526816Y-87247723D01*
X110512331Y-87190055D01*
X110498660Y-87158612D01*
X110427198Y-86994262D01*
X110427196Y-86994258D01*
X110423123Y-86984891D01*
X110417576Y-86976317D01*
X110417573Y-86976311D01*
X110307153Y-86805628D01*
X110301605Y-86797052D01*
X110151039Y-86631583D01*
X109975470Y-86492927D01*
X109779612Y-86384807D01*
X109771788Y-86382036D01*
X109693302Y-86326156D01*
X109641746Y-86243809D01*
X109625627Y-86148000D01*
X109647399Y-86053316D01*
X109703748Y-85974172D01*
X109737992Y-85947152D01*
X109847002Y-85875682D01*
X109847005Y-85875680D01*
X109854730Y-85870615D01*
X109865052Y-85861403D01*
X110043054Y-85702530D01*
X110049949Y-85696376D01*
X110217270Y-85495194D01*
X110305258Y-85350195D01*
X110348227Y-85279385D01*
X110348230Y-85279379D01*
X110353016Y-85271492D01*
X110370399Y-85230040D01*
X110420381Y-85110845D01*
X110454206Y-85030181D01*
X110518616Y-84776565D01*
X110521031Y-84752586D01*
X110539873Y-84565464D01*
X110539873Y-84565459D01*
X110540500Y-84559235D01*
X110540500Y-83908283D01*
X110559454Y-83812995D01*
X110613430Y-83732213D01*
X110694212Y-83678237D01*
X110789500Y-83659283D01*
X110884788Y-83678237D01*
X110965570Y-83732213D01*
X111002487Y-83779296D01*
X111011046Y-83793428D01*
X111021412Y-83810545D01*
X111134455Y-83923588D01*
X111271199Y-84006403D01*
X111423749Y-84054210D01*
X111436903Y-84055419D01*
X111436905Y-84055419D01*
X111486532Y-84059979D01*
X111486538Y-84059979D01*
X111492205Y-84060500D01*
X111528674Y-84060500D01*
X113021188Y-84060499D01*
X113116475Y-84079453D01*
X113197256Y-84133429D01*
X113208395Y-84145322D01*
X113264352Y-84209129D01*
X113275871Y-84220648D01*
X113495210Y-84413004D01*
X113508120Y-84422909D01*
X113750707Y-84585001D01*
X113764786Y-84593129D01*
X114026451Y-84722168D01*
X114041487Y-84728396D01*
X114161773Y-84769229D01*
X114182455Y-84771952D01*
X114182491Y-84771889D01*
X114185000Y-84756696D01*
X114185000Y-82049000D01*
X114203954Y-81953712D01*
X114257930Y-81872930D01*
X114338712Y-81818954D01*
X114434000Y-81800000D01*
X115436000Y-81800000D01*
X115531288Y-81818954D01*
X115612070Y-81872930D01*
X115666046Y-81953712D01*
X115685000Y-82049000D01*
X115685000Y-84752586D01*
X115689069Y-84773044D01*
X115689142Y-84773058D01*
X115704335Y-84770550D01*
X115828513Y-84728396D01*
X115843549Y-84722168D01*
X116105214Y-84593129D01*
X116119293Y-84585001D01*
X116361880Y-84422909D01*
X116374790Y-84413004D01*
X116594129Y-84220648D01*
X116605648Y-84209129D01*
X116798004Y-83989790D01*
X116807909Y-83976880D01*
X116859743Y-83899306D01*
X116928442Y-83830607D01*
X117018202Y-83793427D01*
X117115357Y-83793428D01*
X117205116Y-83830607D01*
X117273815Y-83899306D01*
X117298849Y-83947395D01*
X117340858Y-84055419D01*
X117381543Y-84160040D01*
X117386129Y-84168064D01*
X117386130Y-84168066D01*
X117409599Y-84209129D01*
X117511386Y-84387220D01*
X117517100Y-84394469D01*
X117517104Y-84394474D01*
X117539521Y-84422909D01*
X117673383Y-84592712D01*
X117863974Y-84772002D01*
X117871562Y-84777266D01*
X117871567Y-84777270D01*
X117969040Y-84844889D01*
X118078973Y-84921152D01*
X118133322Y-84947954D01*
X118300062Y-85030181D01*
X118313656Y-85036885D01*
X118374065Y-85056222D01*
X118554069Y-85113842D01*
X118554072Y-85113843D01*
X118562867Y-85116658D01*
X118688998Y-85137200D01*
X118812017Y-85157235D01*
X118812023Y-85157236D01*
X118821132Y-85158719D01*
X118830362Y-85158840D01*
X118830364Y-85158840D01*
X119005034Y-85161126D01*
X119082777Y-85162144D01*
X119164111Y-85151075D01*
X119332909Y-85128103D01*
X119332913Y-85128102D01*
X119342055Y-85126858D01*
X119593269Y-85053636D01*
X119601654Y-85049771D01*
X119601658Y-85049769D01*
X119822511Y-84947954D01*
X119822513Y-84947953D01*
X119830901Y-84944086D01*
X119987410Y-84841474D01*
X120042002Y-84805682D01*
X120042005Y-84805680D01*
X120049730Y-84800615D01*
X120081789Y-84772002D01*
X120238054Y-84632530D01*
X120244949Y-84626376D01*
X120412270Y-84425194D01*
X120469052Y-84331620D01*
X120543227Y-84209385D01*
X120543230Y-84209379D01*
X120548016Y-84201492D01*
X120565399Y-84160040D01*
X120629590Y-84006960D01*
X120649206Y-83960181D01*
X120651661Y-83950517D01*
X120674406Y-83860957D01*
X120713616Y-83706565D01*
X120714542Y-83697371D01*
X120734873Y-83495464D01*
X120734873Y-83495459D01*
X120735500Y-83489235D01*
X120735500Y-81533565D01*
X120734715Y-81522994D01*
X120721730Y-81348272D01*
X120721045Y-81339052D01*
X120714414Y-81309744D01*
X120665335Y-81092847D01*
X120663296Y-81083836D01*
X120659950Y-81075231D01*
X120659946Y-81075219D01*
X120630402Y-80999248D01*
X120613530Y-80903569D01*
X120634558Y-80808717D01*
X120690283Y-80729132D01*
X120772223Y-80676931D01*
X120862471Y-80660000D01*
X123365500Y-80660000D01*
X123460788Y-80678954D01*
X123541570Y-80732930D01*
X123595546Y-80813712D01*
X123614500Y-80909000D01*
X123614501Y-82028722D01*
X123614501Y-83152794D01*
X123620790Y-83221251D01*
X123668597Y-83373801D01*
X123751412Y-83510545D01*
X123864455Y-83623588D01*
X124001199Y-83706403D01*
X124153749Y-83754210D01*
X124166903Y-83755419D01*
X124166905Y-83755419D01*
X124216532Y-83759979D01*
X124216538Y-83759979D01*
X124222205Y-83760500D01*
X124274013Y-83760500D01*
X127881639Y-83760499D01*
X127976926Y-83779453D01*
X128057708Y-83833429D01*
X128111684Y-83914211D01*
X128130638Y-84009499D01*
X128111684Y-84104787D01*
X128081799Y-84157609D01*
X127994839Y-84275129D01*
X127986569Y-84287865D01*
X127837441Y-84551448D01*
X127830783Y-84565099D01*
X127714890Y-84844889D01*
X127709949Y-84859239D01*
X127629015Y-85151075D01*
X127625859Y-85165923D01*
X127580937Y-85466508D01*
X127579687Y-85479485D01*
X127575119Y-85584112D01*
X127575000Y-85589565D01*
X127575000Y-85825473D01*
X127579069Y-85845931D01*
X127599527Y-85850000D01*
X129400473Y-85850000D01*
X129420931Y-85845931D01*
X129425000Y-85825473D01*
X129425000Y-83233707D01*
X129420931Y-83213249D01*
X129420581Y-83213180D01*
X129405901Y-83215571D01*
X129263509Y-83263214D01*
X129167130Y-83275474D01*
X129073397Y-83249920D01*
X128996577Y-83190440D01*
X128948367Y-83106090D01*
X128935500Y-83027081D01*
X128935499Y-80909000D01*
X128954453Y-80813712D01*
X129008429Y-80732930D01*
X129089211Y-80678954D01*
X129184499Y-80660000D01*
X131091000Y-80660000D01*
X131186288Y-80678954D01*
X131267070Y-80732930D01*
X131321046Y-80813712D01*
X131340000Y-80909000D01*
X131340000Y-82999884D01*
X131321046Y-83095172D01*
X131267070Y-83175954D01*
X131186288Y-83229930D01*
X131091000Y-83248884D01*
X131020281Y-83238630D01*
X130948514Y-83217372D01*
X130927746Y-83215464D01*
X130926537Y-83217761D01*
X130925000Y-83228364D01*
X130925000Y-89966293D01*
X130929069Y-89986751D01*
X130929419Y-89986820D01*
X130944105Y-89984429D01*
X131011991Y-89961714D01*
X131108369Y-89949453D01*
X131202103Y-89975007D01*
X131278922Y-90034487D01*
X131327132Y-90118837D01*
X131340000Y-90197846D01*
X131340000Y-95504780D01*
X131321046Y-95600068D01*
X131267070Y-95680850D01*
X131186288Y-95734826D01*
X131091000Y-95753780D01*
X130995712Y-95734826D01*
X130914930Y-95680850D01*
X130892172Y-95653241D01*
X130891809Y-95653527D01*
X130723371Y-95439864D01*
X130525201Y-95253445D01*
X130301654Y-95098365D01*
X130133610Y-95015495D01*
X130065926Y-94982117D01*
X130065924Y-94982116D01*
X130057640Y-94978031D01*
X129885211Y-94922836D01*
X129807318Y-94897902D01*
X129807315Y-94897901D01*
X129798520Y-94895086D01*
X129656768Y-94872000D01*
X129539101Y-94852836D01*
X129539095Y-94852835D01*
X129529986Y-94851352D01*
X129520756Y-94851231D01*
X129520754Y-94851231D01*
X129341835Y-94848889D01*
X129257937Y-94847791D01*
X128988350Y-94884480D01*
X128951963Y-94895086D01*
X128736015Y-94958029D01*
X128736009Y-94958031D01*
X128727148Y-94960614D01*
X128575305Y-95030614D01*
X128538219Y-95047711D01*
X128480067Y-95074519D01*
X128406934Y-95122467D01*
X128260263Y-95218628D01*
X128260257Y-95218632D01*
X128252537Y-95223694D01*
X128049556Y-95404862D01*
X128020445Y-95439864D01*
X127970662Y-95499721D01*
X127895158Y-95560862D01*
X127802004Y-95588455D01*
X127779221Y-95589500D01*
X125599978Y-95589500D01*
X125504690Y-95570546D01*
X125423908Y-95516570D01*
X125422488Y-95515087D01*
X125418371Y-95509864D01*
X125220201Y-95323445D01*
X124996654Y-95168365D01*
X124846416Y-95094276D01*
X124760926Y-95052117D01*
X124760924Y-95052116D01*
X124752640Y-95048031D01*
X124546725Y-94982117D01*
X124502318Y-94967902D01*
X124502315Y-94967901D01*
X124493520Y-94965086D01*
X124362249Y-94943707D01*
X124234101Y-94922836D01*
X124234095Y-94922835D01*
X124224986Y-94921352D01*
X124215756Y-94921231D01*
X124215754Y-94921231D01*
X124036835Y-94918889D01*
X123952937Y-94917791D01*
X123683350Y-94954480D01*
X123649042Y-94964480D01*
X123431015Y-95028029D01*
X123431009Y-95028031D01*
X123422148Y-95030614D01*
X123264197Y-95103430D01*
X123204167Y-95131104D01*
X123175067Y-95144519D01*
X123130658Y-95173635D01*
X122955263Y-95288628D01*
X122955257Y-95288632D01*
X122947537Y-95293694D01*
X122744556Y-95474862D01*
X122570583Y-95684042D01*
X122536220Y-95740670D01*
X122434228Y-95908747D01*
X122434225Y-95908753D01*
X122429439Y-95916640D01*
X122425870Y-95925151D01*
X122425868Y-95925155D01*
X122372850Y-96051590D01*
X122324226Y-96167545D01*
X122257254Y-96431246D01*
X122256328Y-96440443D01*
X122231166Y-96690333D01*
X122229996Y-96701949D01*
X122233223Y-96769134D01*
X122235793Y-96822639D01*
X122221433Y-96918726D01*
X122171394Y-97002005D01*
X122163150Y-97010655D01*
X120497918Y-98675887D01*
X120486025Y-98687025D01*
X120448177Y-98720216D01*
X120448173Y-98720220D01*
X120439596Y-98727742D01*
X120384983Y-98797019D01*
X120380907Y-98802052D01*
X120324504Y-98869869D01*
X120318926Y-98879829D01*
X120318277Y-98880774D01*
X120317270Y-98882141D01*
X120316119Y-98883864D01*
X120315234Y-98885329D01*
X120314621Y-98886272D01*
X120307553Y-98895238D01*
X120302237Y-98905341D01*
X120302235Y-98905345D01*
X120266484Y-98973297D01*
X120263402Y-98978975D01*
X120261901Y-98981654D01*
X120198795Y-99055518D01*
X120112222Y-99099612D01*
X120015366Y-99107219D01*
X119944822Y-99087683D01*
X119939612Y-99084807D01*
X119784698Y-99029949D01*
X119739411Y-99013912D01*
X119655915Y-98964237D01*
X119646459Y-98955264D01*
X118734602Y-98043407D01*
X118723464Y-98031514D01*
X118690273Y-97993666D01*
X118690269Y-97993662D01*
X118682747Y-97985085D01*
X118613448Y-97930454D01*
X118608437Y-97926396D01*
X118540620Y-97869993D01*
X118530660Y-97864415D01*
X118529715Y-97863766D01*
X118528348Y-97862759D01*
X118526625Y-97861608D01*
X118525160Y-97860723D01*
X118524217Y-97860110D01*
X118515251Y-97853042D01*
X118505148Y-97847726D01*
X118505144Y-97847724D01*
X118437192Y-97811973D01*
X118431519Y-97808893D01*
X118354529Y-97765777D01*
X118343714Y-97762106D01*
X118342689Y-97761650D01*
X118341153Y-97760905D01*
X118339245Y-97760085D01*
X118337639Y-97759481D01*
X118336610Y-97759055D01*
X118326496Y-97753733D01*
X118242257Y-97727576D01*
X118236065Y-97725565D01*
X118152563Y-97697220D01*
X118141269Y-97695582D01*
X118140160Y-97695316D01*
X118138495Y-97694858D01*
X118136521Y-97694412D01*
X118134844Y-97694112D01*
X118133707Y-97693870D01*
X118122804Y-97690485D01*
X118111467Y-97689143D01*
X118111466Y-97689143D01*
X118093416Y-97687007D01*
X118035159Y-97680112D01*
X118028767Y-97679271D01*
X117941485Y-97666615D01*
X117930077Y-97667063D01*
X117930074Y-97667063D01*
X117860492Y-97669797D01*
X117850717Y-97669989D01*
X115223786Y-97669989D01*
X115128498Y-97651035D01*
X115047716Y-97597059D01*
X114993740Y-97516277D01*
X114974786Y-97420989D01*
X114993740Y-97325701D01*
X115047716Y-97244919D01*
X115079191Y-97218274D01*
X115096393Y-97206004D01*
X115245921Y-97099347D01*
X115416038Y-96929823D01*
X115556183Y-96734791D01*
X115662592Y-96519488D01*
X115694889Y-96413188D01*
X115729436Y-96299481D01*
X115729437Y-96299477D01*
X115732408Y-96289698D01*
X115748117Y-96170372D01*
X115762891Y-96058155D01*
X115762891Y-96058150D01*
X115763755Y-96051590D01*
X115765505Y-95980000D01*
X115763401Y-95954402D01*
X115747083Y-95755931D01*
X115745826Y-95740645D01*
X115740865Y-95720892D01*
X115689810Y-95517634D01*
X115689809Y-95517631D01*
X115687319Y-95507718D01*
X115683244Y-95498347D01*
X115683241Y-95498337D01*
X115631766Y-95379952D01*
X115611152Y-95285009D01*
X115628441Y-95189405D01*
X115647128Y-95151677D01*
X115698628Y-95066639D01*
X115706403Y-95053801D01*
X115754210Y-94901251D01*
X115755751Y-94884480D01*
X115759979Y-94838468D01*
X115759979Y-94838462D01*
X115760500Y-94832795D01*
X115760499Y-93127206D01*
X115754210Y-93058749D01*
X115706403Y-92906199D01*
X115623588Y-92769455D01*
X115510545Y-92656412D01*
X115373801Y-92573597D01*
X115221251Y-92525790D01*
X115208097Y-92524581D01*
X115208095Y-92524581D01*
X115158468Y-92520021D01*
X115158462Y-92520021D01*
X115152795Y-92519500D01*
X114300225Y-92519500D01*
X113447206Y-92519501D01*
X113378749Y-92525790D01*
X113226199Y-92573597D01*
X113089455Y-92656412D01*
X112976412Y-92769455D01*
X112893597Y-92906199D01*
X112845790Y-93058749D01*
X112844581Y-93071903D01*
X112844581Y-93071905D01*
X112840082Y-93120875D01*
X112839500Y-93127205D01*
X112839501Y-94832794D01*
X112845790Y-94901251D01*
X112893597Y-95053801D01*
X112901370Y-95066636D01*
X112901372Y-95066640D01*
X112952847Y-95151636D01*
X112985996Y-95242961D01*
X112981673Y-95340020D01*
X112965715Y-95385461D01*
X112928935Y-95464697D01*
X112928933Y-95464703D01*
X112924634Y-95473964D01*
X112921907Y-95483799D01*
X112921905Y-95483803D01*
X112868343Y-95676941D01*
X112860453Y-95705392D01*
X112855282Y-95753780D01*
X112836126Y-95933027D01*
X112834932Y-95944195D01*
X112848757Y-96183959D01*
X112851004Y-96193928D01*
X112851004Y-96193931D01*
X112899196Y-96407772D01*
X112901556Y-96418246D01*
X112991911Y-96640763D01*
X112997254Y-96649482D01*
X113103365Y-96822639D01*
X113117396Y-96845536D01*
X113274640Y-97027063D01*
X113459421Y-97180471D01*
X113468242Y-97185626D01*
X113468244Y-97185627D01*
X113503115Y-97206004D01*
X113575824Y-97270445D01*
X113618337Y-97357804D01*
X113624183Y-97454783D01*
X113592472Y-97546617D01*
X113528031Y-97619326D01*
X113440672Y-97661839D01*
X113377487Y-97669989D01*
X110747617Y-97669989D01*
X110652329Y-97651035D01*
X110571547Y-97597059D01*
X110517571Y-97516277D01*
X110498617Y-97420989D01*
X110511831Y-97340951D01*
X110531427Y-97283222D01*
X110534149Y-97262545D01*
X110534084Y-97262507D01*
X110518896Y-97260000D01*
X105415217Y-97260000D01*
X105394759Y-97264069D01*
X105394744Y-97264144D01*
X105397252Y-97279330D01*
X105432898Y-97384341D01*
X105439125Y-97399375D01*
X105565265Y-97655161D01*
X105573395Y-97669242D01*
X105731836Y-97906368D01*
X105741750Y-97919289D01*
X105929790Y-98133706D01*
X105941301Y-98145217D01*
X106115563Y-98298041D01*
X106174707Y-98375119D01*
X106199853Y-98468964D01*
X106186103Y-98568368D01*
X106151527Y-98666006D01*
X106151525Y-98666013D01*
X106148115Y-98675643D01*
X106105999Y-98912084D01*
X106105874Y-98922305D01*
X106105874Y-98922306D01*
X106104874Y-99004189D01*
X106103065Y-99152228D01*
X106139392Y-99389628D01*
X106142567Y-99399342D01*
X106142568Y-99399346D01*
X106158916Y-99449361D01*
X106214005Y-99617906D01*
X106324900Y-99830933D01*
X106331037Y-99839106D01*
X106331039Y-99839110D01*
X106371952Y-99893601D01*
X106392789Y-99921352D01*
X106396334Y-99926074D01*
X106438390Y-100013655D01*
X106443729Y-100110663D01*
X106411538Y-100202330D01*
X106356342Y-100265269D01*
X106354455Y-100266412D01*
X106241412Y-100379455D01*
X106158597Y-100516199D01*
X106110790Y-100668749D01*
X106109581Y-100681903D01*
X106109581Y-100681905D01*
X106105117Y-100730495D01*
X106104500Y-100737205D01*
X106104501Y-101260476D01*
X106104501Y-101706164D01*
X106085547Y-101801452D01*
X106031571Y-101882234D01*
X104082918Y-103830887D01*
X104071025Y-103842025D01*
X104033177Y-103875216D01*
X104033173Y-103875220D01*
X104024596Y-103882742D01*
X103969983Y-103952019D01*
X103965907Y-103957052D01*
X103909504Y-104024869D01*
X103906591Y-104030070D01*
X103838829Y-104096078D01*
X103748590Y-104132078D01*
X103684192Y-104135030D01*
X103684180Y-104135283D01*
X103681426Y-104135157D01*
X103680439Y-104135202D01*
X103678901Y-104135061D01*
X103672795Y-104134500D01*
X103423779Y-104134500D01*
X102098269Y-104134501D01*
X102002981Y-104115547D01*
X101927658Y-104066865D01*
X101901467Y-104042227D01*
X101881026Y-104022998D01*
X101873438Y-104017734D01*
X101873433Y-104017730D01*
X101748028Y-103930734D01*
X101666027Y-103873848D01*
X101540744Y-103812065D01*
X101439630Y-103762201D01*
X101439628Y-103762200D01*
X101431344Y-103758115D01*
X101244613Y-103698342D01*
X101190931Y-103681158D01*
X101190928Y-103681157D01*
X101182133Y-103678342D01*
X101047091Y-103656349D01*
X100932983Y-103637765D01*
X100932977Y-103637764D01*
X100923868Y-103636281D01*
X100914638Y-103636160D01*
X100914636Y-103636160D01*
X100739966Y-103633874D01*
X100662223Y-103632856D01*
X100626152Y-103637765D01*
X100412091Y-103666897D01*
X100412087Y-103666898D01*
X100402945Y-103668142D01*
X100151731Y-103741364D01*
X100143346Y-103745229D01*
X100143342Y-103745231D01*
X99925526Y-103845646D01*
X99914099Y-103850914D01*
X99804684Y-103922650D01*
X99705259Y-103987836D01*
X99695270Y-103994385D01*
X99688381Y-104000534D01*
X99688378Y-104000536D01*
X99538284Y-104134500D01*
X99500051Y-104168624D01*
X99332730Y-104369806D01*
X99308722Y-104409370D01*
X99201773Y-104585615D01*
X99201770Y-104585621D01*
X99196984Y-104593508D01*
X99193415Y-104602019D01*
X99193413Y-104602023D01*
X99152657Y-104699216D01*
X99095794Y-104834819D01*
X99031384Y-105088435D01*
X99030458Y-105097626D01*
X99030458Y-105097629D01*
X99013795Y-105263115D01*
X99009500Y-105305765D01*
X99009500Y-106761435D01*
X99009843Y-106766044D01*
X99009843Y-106766057D01*
X99013107Y-106809972D01*
X99023955Y-106955948D01*
X99058423Y-107108273D01*
X99063354Y-107130066D01*
X99065897Y-107227188D01*
X99031080Y-107317890D01*
X98964203Y-107388364D01*
X98875448Y-107427880D01*
X98820494Y-107434020D01*
X93938355Y-107434020D01*
X93843067Y-107415066D01*
X93762285Y-107361090D01*
X92949243Y-106548048D01*
X92895267Y-106467266D01*
X92883815Y-106432638D01*
X92829810Y-106217634D01*
X92829809Y-106217631D01*
X92827319Y-106207718D01*
X92777061Y-106092132D01*
X92735630Y-105996845D01*
X92735628Y-105996841D01*
X92731555Y-105987474D01*
X92704033Y-105944931D01*
X92606652Y-105794405D01*
X92601104Y-105785829D01*
X92588102Y-105771539D01*
X92446352Y-105615758D01*
X92446346Y-105615752D01*
X92439472Y-105608197D01*
X92341727Y-105531003D01*
X92259015Y-105465681D01*
X92259012Y-105465679D01*
X92250998Y-105459350D01*
X92040744Y-105343283D01*
X92031121Y-105339875D01*
X92031118Y-105339874D01*
X91823987Y-105266525D01*
X91823985Y-105266525D01*
X91814357Y-105263115D01*
X91577916Y-105220999D01*
X91567695Y-105220874D01*
X91567694Y-105220874D01*
X91426832Y-105219153D01*
X91337772Y-105218065D01*
X91100372Y-105254392D01*
X91090658Y-105257567D01*
X91090654Y-105257568D01*
X90962832Y-105299347D01*
X90889395Y-105323350D01*
X90792934Y-105334938D01*
X90728918Y-105321389D01*
X90573994Y-105266527D01*
X90573987Y-105266525D01*
X90564357Y-105263115D01*
X90327916Y-105220999D01*
X90317695Y-105220874D01*
X90317694Y-105220874D01*
X90176832Y-105219153D01*
X90087772Y-105218065D01*
X89850372Y-105254392D01*
X89840658Y-105257567D01*
X89840654Y-105257568D01*
X89675234Y-105311636D01*
X89622094Y-105329005D01*
X89409067Y-105439900D01*
X89389737Y-105454413D01*
X89225182Y-105577964D01*
X89225178Y-105577968D01*
X89217013Y-105584098D01*
X89120027Y-105685589D01*
X89040493Y-105741382D01*
X88945659Y-105762493D01*
X88849966Y-105745706D01*
X88767980Y-105693576D01*
X88755856Y-105681152D01*
X88689472Y-105608197D01*
X88591727Y-105531003D01*
X88509015Y-105465681D01*
X88509012Y-105465679D01*
X88500998Y-105459350D01*
X88290744Y-105343283D01*
X88281121Y-105339875D01*
X88281118Y-105339874D01*
X88073987Y-105266525D01*
X88073985Y-105266525D01*
X88064357Y-105263115D01*
X87827916Y-105220999D01*
X87817695Y-105220874D01*
X87817694Y-105220874D01*
X87676832Y-105219153D01*
X87587772Y-105218065D01*
X87350372Y-105254392D01*
X87340658Y-105257567D01*
X87340654Y-105257568D01*
X87212832Y-105299347D01*
X87139395Y-105323350D01*
X87042934Y-105334938D01*
X86978918Y-105321389D01*
X86823994Y-105266527D01*
X86823987Y-105266525D01*
X86814357Y-105263115D01*
X86577916Y-105220999D01*
X86567695Y-105220874D01*
X86567694Y-105220874D01*
X86426832Y-105219153D01*
X86337772Y-105218065D01*
X86100372Y-105254392D01*
X86090658Y-105257567D01*
X86090654Y-105257568D01*
X85925234Y-105311636D01*
X85872094Y-105329005D01*
X85659067Y-105439900D01*
X85639737Y-105454413D01*
X85475182Y-105577964D01*
X85475178Y-105577968D01*
X85467013Y-105584098D01*
X85301089Y-105757728D01*
X85282158Y-105785480D01*
X85173388Y-105944931D01*
X85165751Y-105956126D01*
X85161449Y-105965394D01*
X85161445Y-105965401D01*
X85107363Y-106081912D01*
X85050052Y-106160363D01*
X84967081Y-106210909D01*
X84871083Y-106225857D01*
X84776672Y-106202929D01*
X84698221Y-106145618D01*
X84683964Y-106128657D01*
X84672462Y-106113668D01*
X84670453Y-106112507D01*
X84655265Y-106110000D01*
X83314527Y-106110000D01*
X83294069Y-106114069D01*
X83290000Y-106134527D01*
X83290000Y-107471152D01*
X83294069Y-107491610D01*
X83294144Y-107491625D01*
X83309330Y-107489117D01*
X83425990Y-107449517D01*
X83441025Y-107443289D01*
X83685053Y-107322947D01*
X83699132Y-107314819D01*
X83925369Y-107163651D01*
X83938278Y-107153746D01*
X84142835Y-106974354D01*
X84154354Y-106962835D01*
X84333746Y-106758278D01*
X84343651Y-106745369D01*
X84494819Y-106519132D01*
X84502944Y-106505059D01*
X84504665Y-106501569D01*
X84505852Y-106500022D01*
X84507024Y-106497992D01*
X84507291Y-106498146D01*
X84563810Y-106424490D01*
X84647948Y-106375913D01*
X84744272Y-106363231D01*
X84838116Y-106388376D01*
X84915195Y-106447521D01*
X84963772Y-106531659D01*
X84975905Y-106623810D01*
X84976268Y-106623819D01*
X84976211Y-106626140D01*
X84976454Y-106627983D01*
X84976052Y-106632646D01*
X84976018Y-106634029D01*
X84974932Y-106644195D01*
X84988757Y-106883959D01*
X84991004Y-106893928D01*
X84991004Y-106893931D01*
X85038892Y-107106424D01*
X85041556Y-107118246D01*
X85131911Y-107340763D01*
X85137254Y-107349482D01*
X85198556Y-107449517D01*
X85257396Y-107545536D01*
X85264085Y-107553258D01*
X85392484Y-107701485D01*
X85414640Y-107727063D01*
X85422501Y-107733589D01*
X85553237Y-107842128D01*
X85599421Y-107880471D01*
X85608242Y-107885626D01*
X85608244Y-107885627D01*
X85634261Y-107900830D01*
X85806776Y-108001640D01*
X85816316Y-108005283D01*
X86021588Y-108083669D01*
X86021592Y-108083670D01*
X86031137Y-108087315D01*
X86145310Y-108110544D01*
X86256465Y-108133159D01*
X86256467Y-108133159D01*
X86266478Y-108135196D01*
X86366360Y-108138858D01*
X86496267Y-108143622D01*
X86496273Y-108143622D01*
X86506480Y-108143996D01*
X86516611Y-108142698D01*
X86516616Y-108142698D01*
X86648328Y-108125825D01*
X86744696Y-108113480D01*
X86754478Y-108110545D01*
X86754484Y-108110544D01*
X86964948Y-108047402D01*
X86964954Y-108047400D01*
X86974729Y-108044467D01*
X86981035Y-108041378D01*
X87075349Y-108024491D01*
X87159397Y-108040827D01*
X87281137Y-108087315D01*
X87395310Y-108110544D01*
X87506465Y-108133159D01*
X87506467Y-108133159D01*
X87516478Y-108135196D01*
X87616360Y-108138858D01*
X87746267Y-108143622D01*
X87746273Y-108143622D01*
X87756480Y-108143996D01*
X87766611Y-108142698D01*
X87766616Y-108142698D01*
X87898328Y-108125825D01*
X87994696Y-108113480D01*
X88004478Y-108110545D01*
X88004484Y-108110544D01*
X88214940Y-108047404D01*
X88214942Y-108047403D01*
X88224729Y-108044467D01*
X88233904Y-108039972D01*
X88233907Y-108039971D01*
X88329031Y-107993370D01*
X88440401Y-107938810D01*
X88635921Y-107799347D01*
X88764154Y-107671561D01*
X88845030Y-107617726D01*
X88940351Y-107598938D01*
X89035606Y-107618059D01*
X89116293Y-107672176D01*
X89128123Y-107684907D01*
X89142484Y-107701485D01*
X89164640Y-107727063D01*
X89172501Y-107733589D01*
X89303237Y-107842128D01*
X89349421Y-107880471D01*
X89358242Y-107885626D01*
X89358244Y-107885627D01*
X89384261Y-107900830D01*
X89556776Y-108001640D01*
X89566316Y-108005283D01*
X89771588Y-108083669D01*
X89771592Y-108083670D01*
X89781137Y-108087315D01*
X89895310Y-108110544D01*
X90006465Y-108133159D01*
X90006467Y-108133159D01*
X90016478Y-108135196D01*
X90116360Y-108138858D01*
X90246267Y-108143622D01*
X90246273Y-108143622D01*
X90256480Y-108143996D01*
X90266611Y-108142698D01*
X90266616Y-108142698D01*
X90398328Y-108125825D01*
X90494696Y-108113480D01*
X90504478Y-108110545D01*
X90504484Y-108110544D01*
X90714948Y-108047402D01*
X90714954Y-108047400D01*
X90724729Y-108044467D01*
X90731035Y-108041378D01*
X90825349Y-108024491D01*
X90909397Y-108040827D01*
X91031137Y-108087315D01*
X91166121Y-108114778D01*
X91177377Y-108117068D01*
X91266973Y-108154639D01*
X91303804Y-108184999D01*
X92033735Y-108914930D01*
X92087711Y-108995712D01*
X92106665Y-109091000D01*
X92087711Y-109186288D01*
X92033735Y-109267070D01*
X91952953Y-109321046D01*
X91857665Y-109340000D01*
X66059827Y-109340000D01*
X66027326Y-109337870D01*
X66006962Y-109335189D01*
X65992046Y-109336836D01*
X65985270Y-109336765D01*
X65954947Y-109337639D01*
X65931430Y-109336407D01*
X65663893Y-109322385D01*
X65637987Y-109319662D01*
X65318466Y-109269055D01*
X65292978Y-109263637D01*
X64980480Y-109179903D01*
X64955692Y-109171849D01*
X64653690Y-109055921D01*
X64629881Y-109045321D01*
X64341623Y-108898447D01*
X64319056Y-108885418D01*
X64047741Y-108709224D01*
X64026655Y-108693904D01*
X63775250Y-108490320D01*
X63755881Y-108472881D01*
X63527119Y-108244119D01*
X63509680Y-108224750D01*
X63306096Y-107973345D01*
X63290776Y-107952259D01*
X63139516Y-107719339D01*
X63114582Y-107680944D01*
X63101553Y-107658377D01*
X62954679Y-107370119D01*
X62944079Y-107346310D01*
X62828151Y-107044308D01*
X62820097Y-107019520D01*
X62736363Y-106707022D01*
X62730944Y-106681528D01*
X62729656Y-106673394D01*
X62680338Y-106362013D01*
X62677614Y-106336099D01*
X62671054Y-106210909D01*
X62662969Y-106056643D01*
X62663077Y-106047446D01*
X63734938Y-106047446D01*
X63761110Y-106346598D01*
X63826618Y-106639661D01*
X63930309Y-106921486D01*
X63934157Y-106928785D01*
X63934160Y-106928791D01*
X63988638Y-107032117D01*
X64070362Y-107187121D01*
X64075141Y-107193845D01*
X64075143Y-107193849D01*
X64236778Y-107421290D01*
X64244318Y-107431900D01*
X64249953Y-107437943D01*
X64249954Y-107437944D01*
X64417604Y-107617726D01*
X64449118Y-107651521D01*
X64471615Y-107670000D01*
X64674310Y-107836496D01*
X64681166Y-107842128D01*
X64936384Y-108000370D01*
X64983151Y-108021388D01*
X65190953Y-108114778D01*
X65210289Y-108123468D01*
X65218193Y-108125824D01*
X65218195Y-108125825D01*
X65490165Y-108206902D01*
X65490169Y-108206903D01*
X65498069Y-108209258D01*
X65794667Y-108256235D01*
X65801608Y-108256550D01*
X65801616Y-108256551D01*
X65841965Y-108258383D01*
X65888591Y-108260500D01*
X66076166Y-108260500D01*
X66080256Y-108260228D01*
X66080266Y-108260228D01*
X66178479Y-108253704D01*
X66299635Y-108245657D01*
X66594005Y-108186302D01*
X66877939Y-108088535D01*
X67146449Y-107954076D01*
X67153272Y-107949439D01*
X67153279Y-107949435D01*
X67319462Y-107836496D01*
X67394817Y-107785285D01*
X67400971Y-107779783D01*
X67612528Y-107590630D01*
X67612532Y-107590626D01*
X67618680Y-107585129D01*
X67703694Y-107485942D01*
X67808728Y-107363396D01*
X67808732Y-107363391D01*
X67814104Y-107357123D01*
X67880306Y-107255181D01*
X67973154Y-107112208D01*
X67973156Y-107112204D01*
X67977656Y-107105275D01*
X68068605Y-106913736D01*
X68102918Y-106841474D01*
X68102919Y-106841473D01*
X68106463Y-106834008D01*
X68167405Y-106644195D01*
X72869932Y-106644195D01*
X72883757Y-106883959D01*
X72886004Y-106893928D01*
X72886004Y-106893931D01*
X72933892Y-107106424D01*
X72936556Y-107118246D01*
X73026911Y-107340763D01*
X73032254Y-107349482D01*
X73093556Y-107449517D01*
X73152396Y-107545536D01*
X73159085Y-107553258D01*
X73287484Y-107701485D01*
X73309640Y-107727063D01*
X73317501Y-107733589D01*
X73448237Y-107842128D01*
X73494421Y-107880471D01*
X73503242Y-107885626D01*
X73503244Y-107885627D01*
X73529261Y-107900830D01*
X73701776Y-108001640D01*
X73711316Y-108005283D01*
X73916588Y-108083669D01*
X73916592Y-108083670D01*
X73926137Y-108087315D01*
X74040310Y-108110544D01*
X74151465Y-108133159D01*
X74151467Y-108133159D01*
X74161478Y-108135196D01*
X74261360Y-108138858D01*
X74391267Y-108143622D01*
X74391273Y-108143622D01*
X74401480Y-108143996D01*
X74411611Y-108142698D01*
X74411616Y-108142698D01*
X74543328Y-108125825D01*
X74639696Y-108113480D01*
X74649478Y-108110545D01*
X74649484Y-108110544D01*
X74859940Y-108047404D01*
X74859942Y-108047403D01*
X74869729Y-108044467D01*
X74878904Y-108039972D01*
X74878907Y-108039971D01*
X74974031Y-107993370D01*
X75085401Y-107938810D01*
X75280921Y-107799347D01*
X75451038Y-107629823D01*
X75591183Y-107434791D01*
X75667533Y-107280308D01*
X75693061Y-107228656D01*
X75693061Y-107228655D01*
X75697592Y-107219488D01*
X75757597Y-107021990D01*
X75764436Y-106999481D01*
X75764437Y-106999477D01*
X75767408Y-106989698D01*
X75787905Y-106834008D01*
X75797891Y-106758155D01*
X75797891Y-106758150D01*
X75798755Y-106751590D01*
X75799845Y-106707022D01*
X75800343Y-106686626D01*
X75800505Y-106680000D01*
X75798401Y-106654402D01*
X75785708Y-106500022D01*
X75780826Y-106440645D01*
X75776769Y-106424490D01*
X75724810Y-106217634D01*
X75724809Y-106217631D01*
X75722319Y-106207718D01*
X75681632Y-106114144D01*
X80508375Y-106114144D01*
X80510883Y-106129330D01*
X80550483Y-106245990D01*
X80556711Y-106261025D01*
X80677053Y-106505053D01*
X80685181Y-106519132D01*
X80836349Y-106745369D01*
X80846254Y-106758278D01*
X81025646Y-106962835D01*
X81037165Y-106974354D01*
X81241722Y-107153746D01*
X81254631Y-107163651D01*
X81480868Y-107314819D01*
X81494947Y-107322947D01*
X81738975Y-107443289D01*
X81754010Y-107449517D01*
X81866778Y-107487796D01*
X81887455Y-107490518D01*
X81887493Y-107490453D01*
X81890000Y-107475265D01*
X81890000Y-106134527D01*
X81885931Y-106114069D01*
X81865473Y-106110000D01*
X80528848Y-106110000D01*
X80508390Y-106114069D01*
X80508375Y-106114144D01*
X75681632Y-106114144D01*
X75672061Y-106092132D01*
X75630630Y-105996845D01*
X75630628Y-105996841D01*
X75626555Y-105987474D01*
X75599033Y-105944931D01*
X75501652Y-105794405D01*
X75496104Y-105785829D01*
X75483102Y-105771539D01*
X75341354Y-105615760D01*
X75341352Y-105615758D01*
X75334472Y-105608197D01*
X75332975Y-105607015D01*
X75278254Y-105531003D01*
X75255985Y-105436434D01*
X75271601Y-105340542D01*
X75329071Y-105251365D01*
X75359543Y-105220999D01*
X75451038Y-105129823D01*
X75591183Y-104934791D01*
X75697592Y-104719488D01*
X75701248Y-104707455D01*
X80509482Y-104707455D01*
X80509547Y-104707493D01*
X80524735Y-104710000D01*
X81865473Y-104710000D01*
X81885931Y-104705931D01*
X81890000Y-104685473D01*
X83290000Y-104685473D01*
X83294069Y-104705931D01*
X83314527Y-104710000D01*
X84651152Y-104710000D01*
X84671610Y-104705931D01*
X84671625Y-104705856D01*
X84669117Y-104690670D01*
X84629517Y-104574010D01*
X84623289Y-104558975D01*
X84502947Y-104314947D01*
X84494819Y-104300868D01*
X84343651Y-104074631D01*
X84333746Y-104061722D01*
X84154354Y-103857165D01*
X84142835Y-103845646D01*
X83938278Y-103666254D01*
X83925369Y-103656349D01*
X83699132Y-103505181D01*
X83685053Y-103497053D01*
X83441025Y-103376711D01*
X83425990Y-103370483D01*
X83313222Y-103332204D01*
X83292545Y-103329482D01*
X83292507Y-103329547D01*
X83290000Y-103344735D01*
X83290000Y-104685473D01*
X81890000Y-104685473D01*
X81890000Y-103348848D01*
X81885931Y-103328390D01*
X81885856Y-103328375D01*
X81870670Y-103330883D01*
X81754010Y-103370483D01*
X81738975Y-103376711D01*
X81494947Y-103497053D01*
X81480868Y-103505181D01*
X81254631Y-103656349D01*
X81241722Y-103666254D01*
X81037165Y-103845646D01*
X81025646Y-103857165D01*
X80846254Y-104061722D01*
X80836349Y-104074631D01*
X80685181Y-104300868D01*
X80677053Y-104314947D01*
X80556711Y-104558975D01*
X80550483Y-104574010D01*
X80512204Y-104686778D01*
X80509482Y-104707455D01*
X75701248Y-104707455D01*
X75743401Y-104568715D01*
X75764436Y-104499481D01*
X75764437Y-104499477D01*
X75767408Y-104489698D01*
X75792268Y-104300868D01*
X75797891Y-104258155D01*
X75797891Y-104258150D01*
X75798755Y-104251590D01*
X75799022Y-104240695D01*
X75800343Y-104186626D01*
X75800505Y-104180000D01*
X75798401Y-104154402D01*
X75787597Y-104022998D01*
X75780826Y-103940645D01*
X75774668Y-103916126D01*
X75724810Y-103717634D01*
X75724809Y-103717631D01*
X75722319Y-103707718D01*
X75666981Y-103580449D01*
X75630630Y-103496845D01*
X75630625Y-103496835D01*
X75626555Y-103487474D01*
X75593536Y-103436434D01*
X75534212Y-103344735D01*
X75496104Y-103285829D01*
X75470535Y-103257728D01*
X75341352Y-103115758D01*
X75334472Y-103108197D01*
X75252248Y-103043261D01*
X75154015Y-102965681D01*
X75154012Y-102965679D01*
X75145998Y-102959350D01*
X74935744Y-102843283D01*
X74926121Y-102839875D01*
X74926118Y-102839874D01*
X74718987Y-102766525D01*
X74718985Y-102766525D01*
X74709357Y-102763115D01*
X74472916Y-102720999D01*
X74462695Y-102720874D01*
X74462694Y-102720874D01*
X74321832Y-102719153D01*
X74232772Y-102718065D01*
X73995372Y-102754392D01*
X73985658Y-102757567D01*
X73985654Y-102757568D01*
X73821709Y-102811154D01*
X73767094Y-102829005D01*
X73554067Y-102939900D01*
X73545892Y-102946038D01*
X73370182Y-103077964D01*
X73370178Y-103077968D01*
X73362013Y-103084098D01*
X73196089Y-103257728D01*
X73136737Y-103344735D01*
X73085373Y-103420032D01*
X73060751Y-103456126D01*
X73033648Y-103514515D01*
X72967811Y-103656349D01*
X72959634Y-103673964D01*
X72956907Y-103683799D01*
X72956905Y-103683803D01*
X72898184Y-103895543D01*
X72895453Y-103905392D01*
X72890470Y-103952019D01*
X72871324Y-104131171D01*
X72869932Y-104144195D01*
X72883757Y-104383959D01*
X72886004Y-104393928D01*
X72886004Y-104393931D01*
X72925394Y-104568715D01*
X72936556Y-104618246D01*
X73026911Y-104840763D01*
X73032254Y-104849482D01*
X73120076Y-104992794D01*
X73152396Y-105045536D01*
X73159085Y-105053258D01*
X73301846Y-105218065D01*
X73309640Y-105227063D01*
X73317502Y-105233590D01*
X73317508Y-105233596D01*
X73323653Y-105238698D01*
X73384859Y-105314149D01*
X73412532Y-105407280D01*
X73402459Y-105503911D01*
X73356173Y-105589332D01*
X73344615Y-105602304D01*
X73196089Y-105757728D01*
X73177158Y-105785480D01*
X73068388Y-105944931D01*
X73060751Y-105956126D01*
X73022187Y-106039206D01*
X72987402Y-106114144D01*
X72959634Y-106173964D01*
X72956907Y-106183799D01*
X72956905Y-106183803D01*
X72907481Y-106362020D01*
X72895453Y-106405392D01*
X72886564Y-106488571D01*
X72871279Y-106631595D01*
X72869932Y-106644195D01*
X68167405Y-106644195D01*
X68198262Y-106548088D01*
X68206632Y-106501569D01*
X68249979Y-106260662D01*
X68249980Y-106260654D01*
X68251440Y-106252539D01*
X68261349Y-106034318D01*
X68264688Y-105960794D01*
X68264688Y-105960791D01*
X68265062Y-105952554D01*
X68238890Y-105653402D01*
X68173382Y-105360339D01*
X68069691Y-105078514D01*
X68060590Y-105061251D01*
X67962541Y-104875286D01*
X67929638Y-104812879D01*
X67863269Y-104719488D01*
X67760470Y-104574837D01*
X67760468Y-104574835D01*
X67755682Y-104568100D01*
X67550882Y-104348479D01*
X67372907Y-104202288D01*
X67325221Y-104163118D01*
X67325218Y-104163116D01*
X67318834Y-104157872D01*
X67063616Y-103999630D01*
X66910316Y-103930734D01*
X66797239Y-103879915D01*
X66797236Y-103879914D01*
X66789711Y-103876532D01*
X66780708Y-103873848D01*
X66509835Y-103793098D01*
X66509831Y-103793097D01*
X66501931Y-103790742D01*
X66205333Y-103743765D01*
X66198392Y-103743450D01*
X66198384Y-103743449D01*
X66158035Y-103741617D01*
X66111409Y-103739500D01*
X65923834Y-103739500D01*
X65919744Y-103739772D01*
X65919734Y-103739772D01*
X65821521Y-103746296D01*
X65700365Y-103754343D01*
X65405995Y-103813698D01*
X65122061Y-103911465D01*
X64853551Y-104045924D01*
X64846728Y-104050561D01*
X64846721Y-104050565D01*
X64777515Y-104097598D01*
X64605183Y-104214715D01*
X64599032Y-104220215D01*
X64599029Y-104220217D01*
X64387472Y-104409370D01*
X64387468Y-104409374D01*
X64381320Y-104414871D01*
X64325872Y-104479564D01*
X64191272Y-104636604D01*
X64191268Y-104636609D01*
X64185896Y-104642877D01*
X64181397Y-104649805D01*
X64055431Y-104843776D01*
X64022344Y-104894725D01*
X64018800Y-104902189D01*
X63914651Y-105121527D01*
X63893537Y-105165992D01*
X63801738Y-105451912D01*
X63800275Y-105460043D01*
X63750021Y-105739338D01*
X63750020Y-105739346D01*
X63748560Y-105747461D01*
X63734938Y-106047446D01*
X62663077Y-106047446D01*
X62663345Y-106024732D01*
X62663554Y-106021986D01*
X62664701Y-106013924D01*
X62664847Y-106000000D01*
X62661803Y-105974844D01*
X62660000Y-105944931D01*
X62660000Y-99661646D01*
X69160245Y-99661646D01*
X69173123Y-99884994D01*
X69193455Y-99975216D01*
X69216976Y-100079586D01*
X69222306Y-100103239D01*
X69226150Y-100112705D01*
X69226151Y-100112709D01*
X69248751Y-100168365D01*
X69306475Y-100310521D01*
X69311815Y-100319235D01*
X69311816Y-100319237D01*
X69390184Y-100447122D01*
X69423368Y-100501273D01*
X69569845Y-100670372D01*
X69577707Y-100676899D01*
X69577711Y-100676903D01*
X69670311Y-100753780D01*
X69741975Y-100813276D01*
X69935133Y-100926148D01*
X69944676Y-100929792D01*
X69944682Y-100929795D01*
X70134583Y-101002311D01*
X70134587Y-101002312D01*
X70144132Y-101005957D01*
X70263932Y-101030331D01*
X70353346Y-101048523D01*
X70353348Y-101048523D01*
X70363359Y-101050560D01*
X70461397Y-101054155D01*
X70576716Y-101058384D01*
X70576722Y-101058384D01*
X70586928Y-101058758D01*
X70597058Y-101057460D01*
X70597064Y-101057460D01*
X70697881Y-101044544D01*
X70808833Y-101030331D01*
X70818617Y-101027396D01*
X70818620Y-101027395D01*
X71013327Y-100968980D01*
X71013329Y-100968979D01*
X71023116Y-100966043D01*
X71032291Y-100961548D01*
X71032294Y-100961547D01*
X71120198Y-100918483D01*
X71224022Y-100867620D01*
X71406155Y-100737706D01*
X71564624Y-100579789D01*
X71695173Y-100398111D01*
X71794296Y-100197550D01*
X71859332Y-99983493D01*
X71888533Y-99761688D01*
X71890163Y-99695000D01*
X71887421Y-99661646D01*
X76780245Y-99661646D01*
X76793123Y-99884994D01*
X76813455Y-99975216D01*
X76836976Y-100079586D01*
X76842306Y-100103239D01*
X76846150Y-100112705D01*
X76846151Y-100112709D01*
X76868751Y-100168365D01*
X76926475Y-100310521D01*
X76931815Y-100319235D01*
X76931816Y-100319237D01*
X77010184Y-100447122D01*
X77043368Y-100501273D01*
X77189845Y-100670372D01*
X77197707Y-100676899D01*
X77197711Y-100676903D01*
X77290311Y-100753780D01*
X77361975Y-100813276D01*
X77555133Y-100926148D01*
X77564676Y-100929792D01*
X77564682Y-100929795D01*
X77754583Y-101002311D01*
X77754587Y-101002312D01*
X77764132Y-101005957D01*
X77883932Y-101030331D01*
X77973346Y-101048523D01*
X77973348Y-101048523D01*
X77983359Y-101050560D01*
X78081397Y-101054155D01*
X78196716Y-101058384D01*
X78196722Y-101058384D01*
X78206928Y-101058758D01*
X78217058Y-101057460D01*
X78217064Y-101057460D01*
X78317881Y-101044544D01*
X78428833Y-101030331D01*
X78438617Y-101027396D01*
X78438620Y-101027395D01*
X78633327Y-100968980D01*
X78633329Y-100968979D01*
X78643116Y-100966043D01*
X78652291Y-100961548D01*
X78652294Y-100961547D01*
X78740198Y-100918483D01*
X78844022Y-100867620D01*
X79026155Y-100737706D01*
X79184624Y-100579789D01*
X79315173Y-100398111D01*
X79414296Y-100197550D01*
X79479332Y-99983493D01*
X79508533Y-99761688D01*
X79510163Y-99695000D01*
X79491832Y-99472033D01*
X79483584Y-99439194D01*
X79439819Y-99264962D01*
X79437331Y-99255055D01*
X79423660Y-99223612D01*
X79352198Y-99059262D01*
X79352196Y-99059258D01*
X79348123Y-99049891D01*
X79342576Y-99041317D01*
X79342573Y-99041311D01*
X79268443Y-98926724D01*
X79232600Y-98836423D01*
X79234041Y-98739279D01*
X79258524Y-98682566D01*
X79237658Y-98693199D01*
X79140803Y-98700825D01*
X79048402Y-98670805D01*
X79015742Y-98648964D01*
X78900470Y-98557927D01*
X78704612Y-98449807D01*
X78694989Y-98446399D01*
X78694986Y-98446398D01*
X78503353Y-98378537D01*
X78503348Y-98378536D01*
X78493725Y-98375128D01*
X78478062Y-98372338D01*
X78283540Y-98337689D01*
X78283538Y-98337689D01*
X78273473Y-98335896D01*
X78263250Y-98335771D01*
X78263249Y-98335771D01*
X78146130Y-98334340D01*
X78049771Y-98333162D01*
X78039670Y-98334708D01*
X78039665Y-98334708D01*
X77885258Y-98358336D01*
X77828626Y-98367002D01*
X77818910Y-98370178D01*
X77818909Y-98370178D01*
X77793335Y-98378537D01*
X77615978Y-98436507D01*
X77417537Y-98539808D01*
X77238632Y-98674134D01*
X77231569Y-98681525D01*
X77121201Y-98797019D01*
X77084069Y-98835875D01*
X77078316Y-98844308D01*
X77078314Y-98844311D01*
X77038948Y-98902020D01*
X76957998Y-99020689D01*
X76953702Y-99029943D01*
X76953699Y-99029949D01*
X76875702Y-99197980D01*
X76863804Y-99223612D01*
X76861074Y-99233457D01*
X76808133Y-99424357D01*
X76804018Y-99439194D01*
X76802932Y-99449355D01*
X76802931Y-99449361D01*
X76781331Y-99651479D01*
X76781331Y-99651485D01*
X76780245Y-99661646D01*
X71887421Y-99661646D01*
X71871832Y-99472033D01*
X71863584Y-99439194D01*
X71819819Y-99264962D01*
X71817331Y-99255055D01*
X71803660Y-99223612D01*
X71732198Y-99059262D01*
X71732196Y-99059258D01*
X71728123Y-99049891D01*
X71722576Y-99041317D01*
X71722573Y-99041311D01*
X71612153Y-98870628D01*
X71606605Y-98862052D01*
X71477780Y-98720476D01*
X71462911Y-98704135D01*
X71462910Y-98704134D01*
X71456039Y-98696583D01*
X71280470Y-98557927D01*
X71084612Y-98449807D01*
X71074989Y-98446399D01*
X71074986Y-98446398D01*
X70883353Y-98378537D01*
X70883348Y-98378536D01*
X70873725Y-98375128D01*
X70858062Y-98372338D01*
X70663540Y-98337689D01*
X70663538Y-98337689D01*
X70653473Y-98335896D01*
X70643250Y-98335771D01*
X70643249Y-98335771D01*
X70526130Y-98334340D01*
X70429771Y-98333162D01*
X70419670Y-98334708D01*
X70419665Y-98334708D01*
X70265258Y-98358336D01*
X70208626Y-98367002D01*
X70198910Y-98370178D01*
X70198909Y-98370178D01*
X70173335Y-98378537D01*
X69995978Y-98436507D01*
X69797537Y-98539808D01*
X69618632Y-98674134D01*
X69611569Y-98681525D01*
X69501201Y-98797019D01*
X69464069Y-98835875D01*
X69458316Y-98844308D01*
X69458314Y-98844311D01*
X69418948Y-98902020D01*
X69337998Y-99020689D01*
X69333702Y-99029943D01*
X69333699Y-99029949D01*
X69255702Y-99197980D01*
X69243804Y-99223612D01*
X69241074Y-99233457D01*
X69188133Y-99424357D01*
X69184018Y-99439194D01*
X69182932Y-99449355D01*
X69182931Y-99449361D01*
X69161331Y-99651479D01*
X69161331Y-99651485D01*
X69160245Y-99661646D01*
X62660000Y-99661646D01*
X62660000Y-98433481D01*
X63692934Y-98433481D01*
X63694563Y-98435919D01*
X63702627Y-98441973D01*
X63739252Y-98462108D01*
X63753389Y-98468760D01*
X64019606Y-98574163D01*
X64034482Y-98578997D01*
X64311810Y-98650202D01*
X64327162Y-98653131D01*
X64611245Y-98689020D01*
X64626830Y-98690000D01*
X64913170Y-98690000D01*
X64928755Y-98689020D01*
X65212838Y-98653131D01*
X65228190Y-98650202D01*
X65505518Y-98578997D01*
X65520394Y-98574163D01*
X65786611Y-98468760D01*
X65800748Y-98462108D01*
X65831331Y-98445295D01*
X65847294Y-98431876D01*
X65846411Y-98429081D01*
X65840356Y-98421017D01*
X64787341Y-97368001D01*
X64770000Y-97356414D01*
X64752659Y-97368001D01*
X63704521Y-98416140D01*
X63692934Y-98433481D01*
X62660000Y-98433481D01*
X62660000Y-97442479D01*
X62678954Y-97347191D01*
X62732931Y-97266409D01*
X63691997Y-96307344D01*
X63703586Y-96290000D01*
X65836414Y-96290000D01*
X65848001Y-96307341D01*
X66895748Y-97355087D01*
X66912757Y-97366452D01*
X66922272Y-97352913D01*
X67002540Y-97182333D01*
X67008294Y-97167801D01*
X67096777Y-96895480D01*
X67100662Y-96880350D01*
X67154317Y-96599079D01*
X67156274Y-96583586D01*
X67174254Y-96297804D01*
X67174254Y-96282196D01*
X67156274Y-95996414D01*
X67154317Y-95980921D01*
X67100662Y-95699650D01*
X67096777Y-95684520D01*
X67008294Y-95412199D01*
X67002540Y-95397667D01*
X66923531Y-95229763D01*
X66911377Y-95213307D01*
X66897841Y-95222820D01*
X65848001Y-96272659D01*
X65836414Y-96290000D01*
X63703586Y-96290000D01*
X63691997Y-96272656D01*
X62732931Y-95313591D01*
X62678954Y-95232809D01*
X62660000Y-95137521D01*
X62660000Y-92797205D01*
X63209500Y-92797205D01*
X63209501Y-94702794D01*
X63215790Y-94771251D01*
X63263597Y-94923801D01*
X63346412Y-95060545D01*
X63459455Y-95173588D01*
X63596199Y-95256403D01*
X63748749Y-95304210D01*
X63761903Y-95305419D01*
X63761905Y-95305419D01*
X63811532Y-95309979D01*
X63811538Y-95309979D01*
X63817205Y-95310500D01*
X64769749Y-95310500D01*
X65722794Y-95310499D01*
X65791251Y-95304210D01*
X65943801Y-95256403D01*
X66080545Y-95173588D01*
X66193588Y-95060545D01*
X66276403Y-94923801D01*
X66324210Y-94771251D01*
X66326666Y-94744527D01*
X66329979Y-94708468D01*
X66329979Y-94708462D01*
X66330500Y-94702795D01*
X66330500Y-93944195D01*
X67194932Y-93944195D01*
X67208757Y-94183959D01*
X67211004Y-94193928D01*
X67211004Y-94193931D01*
X67256928Y-94397709D01*
X67261556Y-94418246D01*
X67351911Y-94640763D01*
X67357254Y-94649482D01*
X67469588Y-94832794D01*
X67477396Y-94845536D01*
X67484085Y-94853258D01*
X67589729Y-94975216D01*
X67634640Y-95027063D01*
X67682310Y-95066639D01*
X67798352Y-95162979D01*
X67819421Y-95180471D01*
X67828242Y-95185626D01*
X67828244Y-95185627D01*
X67891892Y-95222820D01*
X68026776Y-95301640D01*
X68036316Y-95305283D01*
X68241588Y-95383669D01*
X68241592Y-95383670D01*
X68251137Y-95387315D01*
X68337383Y-95404862D01*
X68476465Y-95433159D01*
X68476467Y-95433159D01*
X68486478Y-95435196D01*
X68586360Y-95438858D01*
X68716267Y-95443622D01*
X68716273Y-95443622D01*
X68726480Y-95443996D01*
X68736611Y-95442698D01*
X68736616Y-95442698D01*
X68863951Y-95426386D01*
X68964696Y-95413480D01*
X68974478Y-95410545D01*
X68974484Y-95410544D01*
X69184948Y-95347402D01*
X69184954Y-95347400D01*
X69194729Y-95344467D01*
X69201035Y-95341378D01*
X69295349Y-95324491D01*
X69379397Y-95340827D01*
X69501137Y-95387315D01*
X69587383Y-95404862D01*
X69726465Y-95433159D01*
X69726467Y-95433159D01*
X69736478Y-95435196D01*
X69836360Y-95438858D01*
X69966267Y-95443622D01*
X69966273Y-95443622D01*
X69976480Y-95443996D01*
X69986611Y-95442698D01*
X69986616Y-95442698D01*
X70113951Y-95426386D01*
X70214696Y-95413480D01*
X70224478Y-95410545D01*
X70224484Y-95410544D01*
X70434940Y-95347404D01*
X70434942Y-95347403D01*
X70444729Y-95344467D01*
X70453904Y-95339972D01*
X70453907Y-95339971D01*
X70624489Y-95256403D01*
X70660401Y-95238810D01*
X70855921Y-95099347D01*
X70984154Y-94971561D01*
X71065030Y-94917726D01*
X71160351Y-94898938D01*
X71255606Y-94918059D01*
X71336293Y-94972176D01*
X71348123Y-94984907D01*
X71384640Y-95027063D01*
X71432310Y-95066639D01*
X71548352Y-95162979D01*
X71569421Y-95180471D01*
X71578242Y-95185626D01*
X71578244Y-95185627D01*
X71641892Y-95222820D01*
X71776776Y-95301640D01*
X71786316Y-95305283D01*
X71991588Y-95383669D01*
X71991592Y-95383670D01*
X72001137Y-95387315D01*
X72087383Y-95404862D01*
X72226465Y-95433159D01*
X72226467Y-95433159D01*
X72236478Y-95435196D01*
X72336360Y-95438858D01*
X72466267Y-95443622D01*
X72466273Y-95443622D01*
X72476480Y-95443996D01*
X72486611Y-95442698D01*
X72486616Y-95442698D01*
X72613951Y-95426386D01*
X72714696Y-95413480D01*
X72724478Y-95410545D01*
X72724484Y-95410544D01*
X72934948Y-95347402D01*
X72934954Y-95347400D01*
X72944729Y-95344467D01*
X72951035Y-95341378D01*
X73045349Y-95324491D01*
X73129397Y-95340827D01*
X73251137Y-95387315D01*
X73337383Y-95404862D01*
X73476465Y-95433159D01*
X73476467Y-95433159D01*
X73486478Y-95435196D01*
X73586360Y-95438858D01*
X73716267Y-95443622D01*
X73716273Y-95443622D01*
X73726480Y-95443996D01*
X73736611Y-95442698D01*
X73736616Y-95442698D01*
X73863951Y-95426386D01*
X73964696Y-95413480D01*
X73974478Y-95410545D01*
X73974484Y-95410544D01*
X74184940Y-95347404D01*
X74184942Y-95347403D01*
X74194729Y-95344467D01*
X74203904Y-95339972D01*
X74203907Y-95339971D01*
X74374489Y-95256403D01*
X74410401Y-95238810D01*
X74605921Y-95099347D01*
X74776038Y-94929823D01*
X74781998Y-94921528D01*
X74782002Y-94921524D01*
X74812722Y-94878773D01*
X74883720Y-94812452D01*
X74974692Y-94778349D01*
X75071791Y-94781655D01*
X75160233Y-94821868D01*
X75203138Y-94861046D01*
X75217232Y-94877317D01*
X75278153Y-94947646D01*
X75284845Y-94955372D01*
X75292707Y-94961899D01*
X75292711Y-94961903D01*
X75380132Y-95034480D01*
X75456975Y-95098276D01*
X75650133Y-95211148D01*
X75659676Y-95214792D01*
X75659682Y-95214795D01*
X75849583Y-95287311D01*
X75849587Y-95287312D01*
X75859132Y-95290957D01*
X75970380Y-95313591D01*
X76068346Y-95333523D01*
X76068348Y-95333523D01*
X76078359Y-95335560D01*
X76176397Y-95339155D01*
X76291716Y-95343384D01*
X76291722Y-95343384D01*
X76301928Y-95343758D01*
X76312058Y-95342460D01*
X76312064Y-95342460D01*
X76412880Y-95329545D01*
X76523833Y-95315331D01*
X76533617Y-95312396D01*
X76533620Y-95312395D01*
X76728327Y-95253980D01*
X76728329Y-95253979D01*
X76738116Y-95251043D01*
X76747291Y-95246548D01*
X76747294Y-95246547D01*
X76835198Y-95203483D01*
X76939022Y-95152620D01*
X77121155Y-95022706D01*
X77279624Y-94864789D01*
X77410173Y-94683111D01*
X77509296Y-94482550D01*
X77574332Y-94268493D01*
X77603533Y-94046688D01*
X77605163Y-93980000D01*
X77603059Y-93954402D01*
X77587669Y-93767214D01*
X77586832Y-93757033D01*
X77578584Y-93724194D01*
X77552576Y-93620654D01*
X77532331Y-93540055D01*
X77518660Y-93508612D01*
X77447198Y-93344262D01*
X77447196Y-93344258D01*
X77443123Y-93334891D01*
X77437576Y-93326317D01*
X77437573Y-93326311D01*
X77327153Y-93155628D01*
X77321605Y-93147052D01*
X77171039Y-92981583D01*
X76995470Y-92842927D01*
X76799612Y-92734807D01*
X76789989Y-92731399D01*
X76789986Y-92731398D01*
X76598353Y-92663537D01*
X76598348Y-92663536D01*
X76588725Y-92660128D01*
X76578665Y-92658336D01*
X76378540Y-92622689D01*
X76378538Y-92622689D01*
X76368473Y-92620896D01*
X76358250Y-92620771D01*
X76358249Y-92620771D01*
X76241130Y-92619340D01*
X76144771Y-92618162D01*
X76134670Y-92619708D01*
X76134665Y-92619708D01*
X75980605Y-92643283D01*
X75923626Y-92652002D01*
X75710978Y-92721507D01*
X75512537Y-92824808D01*
X75333632Y-92959134D01*
X75326569Y-92966525D01*
X75195562Y-93103616D01*
X75116026Y-93159411D01*
X75021192Y-93180522D01*
X74925498Y-93163735D01*
X74843513Y-93111605D01*
X74823052Y-93088840D01*
X74821104Y-93085829D01*
X74808435Y-93071905D01*
X74666352Y-92915758D01*
X74666346Y-92915752D01*
X74659472Y-92908197D01*
X74584847Y-92849262D01*
X74479015Y-92765681D01*
X74479012Y-92765679D01*
X74470998Y-92759350D01*
X74260744Y-92643283D01*
X74251121Y-92639875D01*
X74251118Y-92639874D01*
X74043987Y-92566525D01*
X74043985Y-92566525D01*
X74034357Y-92563115D01*
X73797916Y-92520999D01*
X73787695Y-92520874D01*
X73787694Y-92520874D01*
X73646832Y-92519153D01*
X73557772Y-92518065D01*
X73320372Y-92554392D01*
X73310658Y-92557567D01*
X73310654Y-92557568D01*
X73241443Y-92580190D01*
X73109395Y-92623350D01*
X73012934Y-92634938D01*
X72948918Y-92621389D01*
X72793994Y-92566527D01*
X72793987Y-92566525D01*
X72784357Y-92563115D01*
X72547916Y-92520999D01*
X72537695Y-92520874D01*
X72537694Y-92520874D01*
X72396832Y-92519153D01*
X72307772Y-92518065D01*
X72070372Y-92554392D01*
X72060658Y-92557567D01*
X72060654Y-92557568D01*
X71934099Y-92598933D01*
X71842094Y-92629005D01*
X71833027Y-92633725D01*
X71638851Y-92734807D01*
X71629067Y-92739900D01*
X71620892Y-92746038D01*
X71445182Y-92877964D01*
X71445178Y-92877968D01*
X71437013Y-92884098D01*
X71340027Y-92985589D01*
X71260493Y-93041382D01*
X71165659Y-93062493D01*
X71069966Y-93045706D01*
X70987980Y-92993576D01*
X70975856Y-92981152D01*
X70909472Y-92908197D01*
X70834847Y-92849262D01*
X70729015Y-92765681D01*
X70729012Y-92765679D01*
X70720998Y-92759350D01*
X70510744Y-92643283D01*
X70501121Y-92639875D01*
X70501118Y-92639874D01*
X70293987Y-92566525D01*
X70293985Y-92566525D01*
X70284357Y-92563115D01*
X70047916Y-92520999D01*
X70037695Y-92520874D01*
X70037694Y-92520874D01*
X69896832Y-92519153D01*
X69807772Y-92518065D01*
X69570372Y-92554392D01*
X69560658Y-92557567D01*
X69560654Y-92557568D01*
X69491443Y-92580190D01*
X69359395Y-92623350D01*
X69262934Y-92634938D01*
X69198918Y-92621389D01*
X69043994Y-92566527D01*
X69043987Y-92566525D01*
X69034357Y-92563115D01*
X68797916Y-92520999D01*
X68787695Y-92520874D01*
X68787694Y-92520874D01*
X68646832Y-92519153D01*
X68557772Y-92518065D01*
X68320372Y-92554392D01*
X68310658Y-92557567D01*
X68310654Y-92557568D01*
X68184099Y-92598933D01*
X68092094Y-92629005D01*
X68083027Y-92633725D01*
X67888851Y-92734807D01*
X67879067Y-92739900D01*
X67870892Y-92746038D01*
X67695182Y-92877964D01*
X67695178Y-92877968D01*
X67687013Y-92884098D01*
X67521089Y-93057728D01*
X67469803Y-93132911D01*
X67398614Y-93237270D01*
X67385751Y-93256126D01*
X67284634Y-93473964D01*
X67281907Y-93483799D01*
X67281905Y-93483803D01*
X67260809Y-93559873D01*
X67220453Y-93705392D01*
X67219367Y-93715557D01*
X67202007Y-93877998D01*
X67194932Y-93944195D01*
X66330500Y-93944195D01*
X66330499Y-92797206D01*
X66324210Y-92728749D01*
X66276403Y-92576199D01*
X66193588Y-92439455D01*
X66080545Y-92326412D01*
X65943801Y-92243597D01*
X65791251Y-92195790D01*
X65778097Y-92194581D01*
X65778095Y-92194581D01*
X65728468Y-92190021D01*
X65728462Y-92190021D01*
X65722795Y-92189500D01*
X64770251Y-92189500D01*
X63817206Y-92189501D01*
X63748749Y-92195790D01*
X63596199Y-92243597D01*
X63459455Y-92326412D01*
X63346412Y-92439455D01*
X63263597Y-92576199D01*
X63215790Y-92728749D01*
X63214581Y-92741903D01*
X63214581Y-92741905D01*
X63210871Y-92782289D01*
X63209500Y-92797205D01*
X62660000Y-92797205D01*
X62660000Y-90136646D01*
X71025245Y-90136646D01*
X71038123Y-90359994D01*
X71060320Y-90458493D01*
X71082722Y-90557896D01*
X71087306Y-90578239D01*
X71091150Y-90587705D01*
X71091151Y-90587709D01*
X71121628Y-90662764D01*
X71171475Y-90785521D01*
X71176815Y-90794235D01*
X71176816Y-90794237D01*
X71253074Y-90918678D01*
X71288368Y-90976273D01*
X71434845Y-91145372D01*
X71442707Y-91151899D01*
X71442711Y-91151903D01*
X71584015Y-91269215D01*
X71606975Y-91288276D01*
X71800133Y-91401148D01*
X71809676Y-91404792D01*
X71809682Y-91404795D01*
X71999583Y-91477311D01*
X71999587Y-91477312D01*
X72009132Y-91480957D01*
X72128932Y-91505331D01*
X72218346Y-91523523D01*
X72218348Y-91523523D01*
X72228359Y-91525560D01*
X72326397Y-91529155D01*
X72441716Y-91533384D01*
X72441722Y-91533384D01*
X72451928Y-91533758D01*
X72462058Y-91532460D01*
X72462064Y-91532460D01*
X72562881Y-91519544D01*
X72673833Y-91505331D01*
X72683617Y-91502396D01*
X72683620Y-91502395D01*
X72878327Y-91443980D01*
X72878329Y-91443979D01*
X72888116Y-91441043D01*
X72897291Y-91436548D01*
X72897294Y-91436547D01*
X72985198Y-91393483D01*
X73089022Y-91342620D01*
X73271155Y-91212706D01*
X73429624Y-91054789D01*
X73560173Y-90873111D01*
X73645877Y-90699702D01*
X73654765Y-90681718D01*
X73654765Y-90681717D01*
X73659296Y-90672550D01*
X73724332Y-90458493D01*
X73753533Y-90236688D01*
X73755163Y-90170000D01*
X73753059Y-90144402D01*
X73737669Y-89957214D01*
X73736832Y-89947033D01*
X73728584Y-89914194D01*
X73697612Y-89790893D01*
X73682331Y-89730055D01*
X73677207Y-89718269D01*
X73642362Y-89638132D01*
X76435598Y-89638132D01*
X76454251Y-89922723D01*
X76456375Y-89938850D01*
X76512014Y-90218569D01*
X76516221Y-90234270D01*
X76607901Y-90504352D01*
X76614119Y-90519363D01*
X76661353Y-90615144D01*
X76674050Y-90631691D01*
X76674120Y-90631672D01*
X76686637Y-90622703D01*
X77661999Y-89647341D01*
X77673586Y-89630000D01*
X77661999Y-89612659D01*
X77537645Y-89488305D01*
X77483669Y-89407523D01*
X77464715Y-89312235D01*
X77483669Y-89216947D01*
X77537645Y-89136165D01*
X77618427Y-89082189D01*
X77713715Y-89063235D01*
X77788178Y-89074630D01*
X77806137Y-89080258D01*
X77806141Y-89080259D01*
X77818749Y-89084210D01*
X77831903Y-89085419D01*
X77831905Y-89085419D01*
X77881532Y-89089979D01*
X77881538Y-89089979D01*
X77887205Y-89090500D01*
X77916125Y-89090500D01*
X78930012Y-89090499D01*
X79025299Y-89109453D01*
X79106080Y-89163429D01*
X79160057Y-89244211D01*
X79179011Y-89339499D01*
X79179011Y-90148509D01*
X79160057Y-90243797D01*
X79106081Y-90324579D01*
X77750201Y-91680459D01*
X77738614Y-91697800D01*
X77738655Y-91697861D01*
X77751172Y-91706830D01*
X77850637Y-91755881D01*
X77865648Y-91762099D01*
X78135730Y-91853779D01*
X78151431Y-91857986D01*
X78431150Y-91913625D01*
X78447277Y-91915749D01*
X78731868Y-91934402D01*
X78748131Y-91934402D01*
X78913725Y-91923548D01*
X79010049Y-91936229D01*
X79094188Y-91984807D01*
X79153332Y-92061885D01*
X79178478Y-92155729D01*
X79179011Y-92172015D01*
X79179011Y-97612728D01*
X79178478Y-97629013D01*
X79174438Y-97690650D01*
X79175780Y-97701987D01*
X79175780Y-97701990D01*
X79184804Y-97778228D01*
X79185486Y-97784711D01*
X79193555Y-97872531D01*
X79196654Y-97883519D01*
X79196861Y-97884637D01*
X79197118Y-97886330D01*
X79197519Y-97888347D01*
X79197925Y-97889990D01*
X79198165Y-97891121D01*
X79199507Y-97902456D01*
X79202892Y-97913356D01*
X79202892Y-97913358D01*
X79225664Y-97986696D01*
X79227515Y-97992944D01*
X79251449Y-98077809D01*
X79256501Y-98088053D01*
X79256910Y-98089119D01*
X79257474Y-98090746D01*
X79258223Y-98092623D01*
X79258933Y-98094191D01*
X79259370Y-98095245D01*
X79262755Y-98106148D01*
X79268069Y-98116248D01*
X79268073Y-98116258D01*
X79303822Y-98184205D01*
X79306781Y-98190011D01*
X79345783Y-98269098D01*
X79352619Y-98278251D01*
X79353195Y-98279192D01*
X79354056Y-98280706D01*
X79355148Y-98282437D01*
X79356117Y-98283827D01*
X79356749Y-98284800D01*
X79362064Y-98294903D01*
X79369134Y-98303872D01*
X79375348Y-98313440D01*
X79373404Y-98314703D01*
X79409711Y-98385954D01*
X79417337Y-98482809D01*
X79391303Y-98562941D01*
X79432560Y-98546565D01*
X79529704Y-98548006D01*
X79618902Y-98586513D01*
X79653579Y-98615404D01*
X83415257Y-102377082D01*
X83426395Y-102388975D01*
X83459586Y-102426823D01*
X83459590Y-102426827D01*
X83467112Y-102435404D01*
X83536411Y-102490035D01*
X83541422Y-102494093D01*
X83609239Y-102550496D01*
X83619199Y-102556074D01*
X83620144Y-102556723D01*
X83621511Y-102557730D01*
X83623234Y-102558881D01*
X83624699Y-102559766D01*
X83625642Y-102560379D01*
X83634608Y-102567447D01*
X83644711Y-102572763D01*
X83644715Y-102572765D01*
X83712667Y-102608516D01*
X83718340Y-102611596D01*
X83795330Y-102654712D01*
X83806142Y-102658382D01*
X83807190Y-102658849D01*
X83808733Y-102659598D01*
X83810596Y-102660398D01*
X83812196Y-102661000D01*
X83813260Y-102661441D01*
X83823363Y-102666756D01*
X83834260Y-102670140D01*
X83834261Y-102670140D01*
X83907586Y-102692908D01*
X83913783Y-102694922D01*
X83986480Y-102719599D01*
X83986485Y-102719600D01*
X83997296Y-102723270D01*
X84008601Y-102724909D01*
X84009703Y-102725174D01*
X84011383Y-102725636D01*
X84013324Y-102726075D01*
X84015014Y-102726377D01*
X84016153Y-102726619D01*
X84027055Y-102730004D01*
X84038386Y-102731345D01*
X84038390Y-102731346D01*
X84114658Y-102740373D01*
X84121119Y-102741224D01*
X84191850Y-102751479D01*
X84208374Y-102753875D01*
X84219781Y-102753427D01*
X84219785Y-102753427D01*
X84289383Y-102750692D01*
X84299159Y-102750500D01*
X86317535Y-102750500D01*
X86412823Y-102769454D01*
X86457853Y-102793801D01*
X86561126Y-102864249D01*
X86618304Y-102890790D01*
X86769702Y-102961067D01*
X86769705Y-102961068D01*
X86778964Y-102965366D01*
X86788799Y-102968093D01*
X86788803Y-102968095D01*
X87000543Y-103026816D01*
X87000547Y-103026817D01*
X87010392Y-103029547D01*
X87138716Y-103043261D01*
X87199863Y-103049796D01*
X87199866Y-103049796D01*
X87206452Y-103050500D01*
X88145876Y-103050500D01*
X88324355Y-103035826D01*
X88334261Y-103033338D01*
X88334266Y-103033337D01*
X88547366Y-102979810D01*
X88547369Y-102979809D01*
X88557282Y-102977319D01*
X88728254Y-102902979D01*
X88768155Y-102885630D01*
X88768159Y-102885628D01*
X88777526Y-102881555D01*
X88979171Y-102751104D01*
X88990965Y-102740373D01*
X89149242Y-102596352D01*
X89156803Y-102589472D01*
X89233763Y-102492023D01*
X89299319Y-102409015D01*
X89299321Y-102409012D01*
X89305650Y-102400998D01*
X89421717Y-102190744D01*
X89428868Y-102170552D01*
X89498475Y-101973987D01*
X89498475Y-101973985D01*
X89501885Y-101964357D01*
X89544001Y-101727916D01*
X89544519Y-101685560D01*
X89546810Y-101497998D01*
X89546935Y-101487772D01*
X89510608Y-101250372D01*
X89502546Y-101225704D01*
X89439172Y-101031814D01*
X89435995Y-101022094D01*
X89325100Y-100809067D01*
X89302527Y-100779002D01*
X89187036Y-100625182D01*
X89187032Y-100625178D01*
X89180902Y-100617013D01*
X89057972Y-100499539D01*
X89002176Y-100420003D01*
X88981065Y-100325170D01*
X88997852Y-100229476D01*
X89049982Y-100147491D01*
X89062411Y-100135362D01*
X89156803Y-100049472D01*
X89208910Y-99983493D01*
X89299319Y-99869015D01*
X89299321Y-99869012D01*
X89305650Y-99860998D01*
X89421717Y-99650744D01*
X89488512Y-99462123D01*
X89498475Y-99433987D01*
X89498475Y-99433985D01*
X89501885Y-99424357D01*
X89544001Y-99187916D01*
X89544248Y-99167748D01*
X89546810Y-98957998D01*
X89546935Y-98947772D01*
X89510608Y-98710372D01*
X89503950Y-98690000D01*
X89439172Y-98491814D01*
X89435995Y-98482094D01*
X89338549Y-98294903D01*
X89329819Y-98278132D01*
X89325100Y-98269067D01*
X89247008Y-98165058D01*
X89187036Y-98085182D01*
X89187032Y-98085178D01*
X89180902Y-98077013D01*
X89057972Y-97959539D01*
X89002176Y-97880003D01*
X88981065Y-97785170D01*
X88997852Y-97689476D01*
X89049982Y-97607491D01*
X89062411Y-97595362D01*
X89156803Y-97509472D01*
X89255625Y-97384341D01*
X89299319Y-97329015D01*
X89299321Y-97329012D01*
X89305650Y-97320998D01*
X89421717Y-97110744D01*
X89428307Y-97092136D01*
X89498475Y-96893987D01*
X89498475Y-96893985D01*
X89501885Y-96884357D01*
X89544001Y-96647916D01*
X89546935Y-96407772D01*
X89510608Y-96170372D01*
X89506899Y-96159022D01*
X89439172Y-95951814D01*
X89435995Y-95942094D01*
X89339085Y-95755931D01*
X89329819Y-95738132D01*
X89325100Y-95729067D01*
X89268383Y-95653527D01*
X89187036Y-95545182D01*
X89187032Y-95545178D01*
X89180902Y-95537013D01*
X89057972Y-95419539D01*
X89002176Y-95340003D01*
X88981065Y-95245170D01*
X88997852Y-95149476D01*
X89049982Y-95067491D01*
X89062411Y-95055362D01*
X89156803Y-94969472D01*
X89250184Y-94851231D01*
X89299319Y-94789015D01*
X89299321Y-94789012D01*
X89305650Y-94780998D01*
X89337035Y-94724144D01*
X92734744Y-94724144D01*
X92737252Y-94739330D01*
X92772898Y-94844341D01*
X92779125Y-94859375D01*
X92905262Y-95115155D01*
X92905463Y-95115503D01*
X92905528Y-95115693D01*
X92908868Y-95122467D01*
X92907976Y-95122907D01*
X92936691Y-95207502D01*
X92930336Y-95304449D01*
X92908435Y-95357318D01*
X92908868Y-95357532D01*
X92905609Y-95364140D01*
X92905456Y-95364510D01*
X92905256Y-95364856D01*
X92779125Y-95620625D01*
X92772898Y-95635659D01*
X92738573Y-95736778D01*
X92735851Y-95757455D01*
X92735916Y-95757493D01*
X92751104Y-95760000D01*
X94530473Y-95760000D01*
X94550931Y-95755931D01*
X94555000Y-95735473D01*
X94555000Y-94744527D01*
X94550931Y-94724069D01*
X94530473Y-94720000D01*
X92755217Y-94720000D01*
X92734759Y-94724069D01*
X92734744Y-94724144D01*
X89337035Y-94724144D01*
X89421717Y-94570744D01*
X89427285Y-94555022D01*
X89498475Y-94353987D01*
X89498475Y-94353985D01*
X89501885Y-94344357D01*
X89544001Y-94107916D01*
X89546935Y-93867772D01*
X89510608Y-93630372D01*
X89487566Y-93559873D01*
X89439172Y-93411814D01*
X89435995Y-93402094D01*
X89339878Y-93217455D01*
X92735851Y-93217455D01*
X92735916Y-93217493D01*
X92751104Y-93220000D01*
X94530473Y-93220000D01*
X94550931Y-93215931D01*
X94555000Y-93195473D01*
X94555000Y-91719087D01*
X94550931Y-91698629D01*
X94542736Y-91696999D01*
X94316427Y-91742015D01*
X94300728Y-91746222D01*
X94030659Y-91837898D01*
X94015624Y-91844126D01*
X93759839Y-91970265D01*
X93745758Y-91978395D01*
X93508632Y-92136836D01*
X93495711Y-92146750D01*
X93281294Y-92334790D01*
X93269790Y-92346294D01*
X93081743Y-92560719D01*
X93071845Y-92573620D01*
X92913393Y-92810759D01*
X92905265Y-92824839D01*
X92779125Y-93080625D01*
X92772898Y-93095659D01*
X92738573Y-93196778D01*
X92735851Y-93217455D01*
X89339878Y-93217455D01*
X89339085Y-93215931D01*
X89329819Y-93198132D01*
X89325100Y-93189067D01*
X89278653Y-93127205D01*
X89187036Y-93005182D01*
X89187032Y-93005178D01*
X89180902Y-92997013D01*
X89007272Y-92831089D01*
X88873594Y-92739900D01*
X88817320Y-92701512D01*
X88817316Y-92701510D01*
X88808874Y-92695751D01*
X88658238Y-92625828D01*
X88600298Y-92598933D01*
X88600295Y-92598932D01*
X88591036Y-92594634D01*
X88581201Y-92591907D01*
X88581197Y-92591905D01*
X88369457Y-92533184D01*
X88369453Y-92533183D01*
X88359608Y-92530453D01*
X88229947Y-92516596D01*
X88170137Y-92510204D01*
X88170134Y-92510204D01*
X88163548Y-92509500D01*
X87224124Y-92509500D01*
X87045645Y-92524174D01*
X87035739Y-92526662D01*
X87035734Y-92526663D01*
X86822634Y-92580190D01*
X86822631Y-92580191D01*
X86812718Y-92582681D01*
X86785228Y-92594634D01*
X86601845Y-92674370D01*
X86601841Y-92674372D01*
X86592474Y-92678445D01*
X86497480Y-92739900D01*
X86449432Y-92770984D01*
X86359131Y-92806828D01*
X86343449Y-92809193D01*
X86291913Y-92815293D01*
X86285430Y-92815975D01*
X86197610Y-92824044D01*
X86186622Y-92827143D01*
X86185504Y-92827350D01*
X86183811Y-92827607D01*
X86181794Y-92828008D01*
X86180151Y-92828414D01*
X86179020Y-92828654D01*
X86167685Y-92829996D01*
X86156785Y-92833381D01*
X86156783Y-92833381D01*
X86083445Y-92856153D01*
X86077197Y-92858004D01*
X85992332Y-92881938D01*
X85982088Y-92886990D01*
X85981022Y-92887399D01*
X85979395Y-92887963D01*
X85977518Y-92888712D01*
X85975950Y-92889422D01*
X85974896Y-92889859D01*
X85963993Y-92893244D01*
X85953893Y-92898558D01*
X85953883Y-92898562D01*
X85885936Y-92934311D01*
X85880130Y-92937270D01*
X85801043Y-92976272D01*
X85791890Y-92983108D01*
X85790949Y-92983684D01*
X85789435Y-92984545D01*
X85787704Y-92985637D01*
X85786314Y-92986606D01*
X85785341Y-92987238D01*
X85775238Y-92992553D01*
X85766272Y-92999621D01*
X85766269Y-92999623D01*
X85705948Y-93047176D01*
X85700780Y-93051141D01*
X85630147Y-93103886D01*
X85622394Y-93112273D01*
X85622393Y-93112274D01*
X85575143Y-93163389D01*
X85568367Y-93170438D01*
X85414805Y-93324000D01*
X85334023Y-93377976D01*
X85238735Y-93396930D01*
X85143447Y-93377976D01*
X85062665Y-93324000D01*
X85029669Y-93283179D01*
X84947157Y-93155633D01*
X84947152Y-93155627D01*
X84941605Y-93147052D01*
X84791039Y-92981583D01*
X84615470Y-92842927D01*
X84419612Y-92734807D01*
X84409989Y-92731399D01*
X84409986Y-92731398D01*
X84218353Y-92663537D01*
X84218348Y-92663536D01*
X84208725Y-92660128D01*
X84198665Y-92658336D01*
X83998540Y-92622689D01*
X83998538Y-92622689D01*
X83988473Y-92620896D01*
X83978250Y-92620771D01*
X83978249Y-92620771D01*
X83861130Y-92619340D01*
X83764771Y-92618162D01*
X83754670Y-92619708D01*
X83754665Y-92619708D01*
X83600605Y-92643283D01*
X83543626Y-92652002D01*
X83330978Y-92721507D01*
X83132537Y-92824808D01*
X82953632Y-92959134D01*
X82946569Y-92966525D01*
X82807928Y-93111605D01*
X82799069Y-93120875D01*
X82793316Y-93129308D01*
X82793314Y-93129311D01*
X82758381Y-93180522D01*
X82672998Y-93305689D01*
X82668702Y-93314943D01*
X82668699Y-93314949D01*
X82632257Y-93393457D01*
X82578804Y-93508612D01*
X82547732Y-93620654D01*
X82526964Y-93695543D01*
X82519018Y-93724194D01*
X82517932Y-93734355D01*
X82517931Y-93734361D01*
X82496331Y-93936479D01*
X82496331Y-93936485D01*
X82495245Y-93946646D01*
X82508123Y-94169994D01*
X82530320Y-94268493D01*
X82545150Y-94334296D01*
X82557306Y-94388239D01*
X82561150Y-94397705D01*
X82561151Y-94397709D01*
X82591628Y-94472764D01*
X82641475Y-94595521D01*
X82646815Y-94604235D01*
X82646816Y-94604237D01*
X82749655Y-94772054D01*
X82758368Y-94786273D01*
X82904845Y-94955372D01*
X82912707Y-94961899D01*
X82912711Y-94961903D01*
X83000132Y-95034480D01*
X83076975Y-95098276D01*
X83149492Y-95140651D01*
X83154013Y-95143293D01*
X83226721Y-95207733D01*
X83269235Y-95295092D01*
X83275082Y-95392071D01*
X83243372Y-95483906D01*
X83204456Y-95534349D01*
X82320452Y-96418353D01*
X82239670Y-96472329D01*
X82221744Y-96478960D01*
X82060978Y-96531507D01*
X81863985Y-96634054D01*
X81770712Y-96661241D01*
X81674135Y-96650663D01*
X81588956Y-96603933D01*
X81528145Y-96528163D01*
X81500958Y-96434889D01*
X81500011Y-96413188D01*
X81500011Y-90136646D01*
X83725245Y-90136646D01*
X83738123Y-90359994D01*
X83760320Y-90458493D01*
X83782722Y-90557896D01*
X83787306Y-90578239D01*
X83791150Y-90587705D01*
X83791151Y-90587709D01*
X83821628Y-90662764D01*
X83871475Y-90785521D01*
X83876815Y-90794235D01*
X83876816Y-90794237D01*
X83953074Y-90918678D01*
X83988368Y-90976273D01*
X84134845Y-91145372D01*
X84142707Y-91151899D01*
X84142711Y-91151903D01*
X84284015Y-91269215D01*
X84306975Y-91288276D01*
X84500133Y-91401148D01*
X84509676Y-91404792D01*
X84509682Y-91404795D01*
X84699583Y-91477311D01*
X84699587Y-91477312D01*
X84709132Y-91480957D01*
X84828932Y-91505331D01*
X84918346Y-91523523D01*
X84918348Y-91523523D01*
X84928359Y-91525560D01*
X85026397Y-91529155D01*
X85141716Y-91533384D01*
X85141722Y-91533384D01*
X85151928Y-91533758D01*
X85162058Y-91532460D01*
X85162064Y-91532460D01*
X85262881Y-91519544D01*
X85373833Y-91505331D01*
X85383617Y-91502396D01*
X85383620Y-91502395D01*
X85578327Y-91443980D01*
X85578329Y-91443979D01*
X85588116Y-91441043D01*
X85597291Y-91436548D01*
X85597294Y-91436547D01*
X85685198Y-91393483D01*
X85789022Y-91342620D01*
X85971155Y-91212706D01*
X86129624Y-91054789D01*
X86260173Y-90873111D01*
X86345877Y-90699702D01*
X86354765Y-90681718D01*
X86354765Y-90681717D01*
X86359296Y-90672550D01*
X86424332Y-90458493D01*
X86453533Y-90236688D01*
X86455163Y-90170000D01*
X86453059Y-90144402D01*
X86437669Y-89957214D01*
X86436832Y-89947033D01*
X86428584Y-89914194D01*
X86397612Y-89790893D01*
X86382331Y-89730055D01*
X86377207Y-89718269D01*
X86366540Y-89693737D01*
X90743614Y-89693737D01*
X90743655Y-89693798D01*
X90756172Y-89702767D01*
X90855637Y-89751818D01*
X90870648Y-89758036D01*
X91140730Y-89849716D01*
X91156431Y-89853923D01*
X91436150Y-89909562D01*
X91452277Y-89911686D01*
X91736868Y-89930339D01*
X91753132Y-89930339D01*
X92037723Y-89911686D01*
X92053850Y-89909562D01*
X92333569Y-89853923D01*
X92349270Y-89849716D01*
X92619352Y-89758036D01*
X92634363Y-89751818D01*
X92730144Y-89704584D01*
X92746691Y-89691887D01*
X92746672Y-89691817D01*
X92737703Y-89679300D01*
X91762341Y-88703938D01*
X91745000Y-88692351D01*
X91727659Y-88703938D01*
X90755201Y-89676396D01*
X90743614Y-89693737D01*
X86366540Y-89693737D01*
X86297198Y-89534262D01*
X86297196Y-89534258D01*
X86293123Y-89524891D01*
X86287576Y-89516317D01*
X86287573Y-89516311D01*
X86177153Y-89345628D01*
X86171605Y-89337052D01*
X86021039Y-89171583D01*
X85845470Y-89032927D01*
X85649612Y-88924807D01*
X85639989Y-88921399D01*
X85639986Y-88921398D01*
X85448353Y-88853537D01*
X85448348Y-88853536D01*
X85438725Y-88850128D01*
X85428665Y-88848336D01*
X85228540Y-88812689D01*
X85228538Y-88812689D01*
X85218473Y-88810896D01*
X85208250Y-88810771D01*
X85208249Y-88810771D01*
X85091130Y-88809340D01*
X84994771Y-88808162D01*
X84984670Y-88809708D01*
X84984665Y-88809708D01*
X84836669Y-88832355D01*
X84773626Y-88842002D01*
X84763910Y-88845178D01*
X84763909Y-88845178D01*
X84666701Y-88876951D01*
X84560978Y-88911507D01*
X84362537Y-89014808D01*
X84183632Y-89149134D01*
X84176569Y-89156525D01*
X84062560Y-89275829D01*
X84029069Y-89310875D01*
X83902998Y-89495689D01*
X83898702Y-89504943D01*
X83898699Y-89504949D01*
X83836878Y-89638132D01*
X83808804Y-89698612D01*
X83803353Y-89718269D01*
X83756964Y-89885543D01*
X83749018Y-89914194D01*
X83747932Y-89924355D01*
X83747931Y-89924361D01*
X83726331Y-90126479D01*
X83726331Y-90126485D01*
X83725245Y-90136646D01*
X81500011Y-90136646D01*
X81500011Y-88641925D01*
X81500544Y-88625639D01*
X81503837Y-88575396D01*
X81504584Y-88564002D01*
X81494218Y-88476421D01*
X81493536Y-88469939D01*
X81486511Y-88393485D01*
X81485467Y-88382121D01*
X81482368Y-88371133D01*
X81482161Y-88370015D01*
X81481904Y-88368322D01*
X81481503Y-88366305D01*
X81481097Y-88364662D01*
X81480857Y-88363531D01*
X81479515Y-88352196D01*
X81470745Y-88323951D01*
X81453358Y-88267956D01*
X81451506Y-88261705D01*
X81437563Y-88212265D01*
X81427573Y-88176843D01*
X81422521Y-88166599D01*
X81422112Y-88165533D01*
X81421548Y-88163906D01*
X81420799Y-88162029D01*
X81420089Y-88160461D01*
X81419652Y-88159407D01*
X81416267Y-88148504D01*
X81410953Y-88138404D01*
X81410949Y-88138394D01*
X81375200Y-88070447D01*
X81372241Y-88064641D01*
X81356638Y-88033002D01*
X81333239Y-87985554D01*
X81326403Y-87976401D01*
X81325827Y-87975460D01*
X81324965Y-87973944D01*
X81323878Y-87972221D01*
X81322904Y-87970824D01*
X81322275Y-87969855D01*
X81316958Y-87959749D01*
X81262333Y-87890457D01*
X81258385Y-87885311D01*
X81212455Y-87823804D01*
X81212453Y-87823802D01*
X81205625Y-87814658D01*
X81146096Y-87759630D01*
X81139047Y-87752853D01*
X81020263Y-87634069D01*
X89440598Y-87634069D01*
X89459251Y-87918660D01*
X89461375Y-87934787D01*
X89517014Y-88214506D01*
X89521221Y-88230207D01*
X89612901Y-88500289D01*
X89619119Y-88515300D01*
X89666353Y-88611081D01*
X89679050Y-88627628D01*
X89679120Y-88627609D01*
X89691637Y-88618640D01*
X90219807Y-88090470D01*
X93275946Y-88090470D01*
X93287530Y-88107807D01*
X93753890Y-88574167D01*
X93807866Y-88654949D01*
X93826820Y-88750237D01*
X93807866Y-88845525D01*
X93753890Y-88926307D01*
X93442882Y-89237315D01*
X93433498Y-89251360D01*
X93443989Y-89253447D01*
X93637723Y-89240749D01*
X93653850Y-89238625D01*
X93933569Y-89182986D01*
X93949270Y-89178779D01*
X94219352Y-89087099D01*
X94234363Y-89080881D01*
X94330144Y-89033647D01*
X94346691Y-89020950D01*
X94346672Y-89020880D01*
X94337703Y-89008363D01*
X93362341Y-88033001D01*
X93345000Y-88021414D01*
X93327659Y-88033002D01*
X93287533Y-88073128D01*
X93275946Y-88090470D01*
X90219807Y-88090470D01*
X90666999Y-87643278D01*
X90678586Y-87625937D01*
X90666999Y-87608596D01*
X89694541Y-86636138D01*
X89677200Y-86624551D01*
X89677139Y-86624592D01*
X89668170Y-86637109D01*
X89619119Y-86736574D01*
X89612901Y-86751585D01*
X89521221Y-87021667D01*
X89517014Y-87037368D01*
X89461375Y-87317087D01*
X89459251Y-87333214D01*
X89440598Y-87617805D01*
X89440598Y-87634069D01*
X81020263Y-87634069D01*
X80267903Y-86881708D01*
X80213927Y-86800927D01*
X80196017Y-86728419D01*
X80194210Y-86708749D01*
X80146403Y-86556199D01*
X80063588Y-86419455D01*
X79950545Y-86306412D01*
X79813801Y-86223597D01*
X79661251Y-86175790D01*
X79648097Y-86174581D01*
X79648095Y-86174581D01*
X79598468Y-86170021D01*
X79598462Y-86170021D01*
X79592795Y-86169500D01*
X78740225Y-86169500D01*
X77887206Y-86169501D01*
X77818749Y-86175790D01*
X77666199Y-86223597D01*
X77529455Y-86306412D01*
X77416412Y-86419455D01*
X77333597Y-86556199D01*
X77285790Y-86708749D01*
X77284581Y-86721903D01*
X77284581Y-86721905D01*
X77280082Y-86770875D01*
X77279500Y-86777205D01*
X77279501Y-88482794D01*
X77285790Y-88551251D01*
X77289740Y-88563856D01*
X77289741Y-88563860D01*
X77295370Y-88581822D01*
X77305779Y-88678417D01*
X77278431Y-88771644D01*
X77217488Y-88847308D01*
X77132228Y-88893890D01*
X77035633Y-88904299D01*
X76942406Y-88876951D01*
X76881695Y-88832355D01*
X76689541Y-88640201D01*
X76672200Y-88628614D01*
X76672139Y-88628655D01*
X76663170Y-88641172D01*
X76614119Y-88740637D01*
X76607901Y-88755648D01*
X76516221Y-89025730D01*
X76512014Y-89041431D01*
X76456375Y-89321150D01*
X76454251Y-89337277D01*
X76435598Y-89621868D01*
X76435598Y-89638132D01*
X73642362Y-89638132D01*
X73597198Y-89534262D01*
X73597196Y-89534258D01*
X73593123Y-89524891D01*
X73587576Y-89516317D01*
X73587573Y-89516311D01*
X73477153Y-89345628D01*
X73471605Y-89337052D01*
X73321039Y-89171583D01*
X73145470Y-89032927D01*
X72949612Y-88924807D01*
X72939989Y-88921399D01*
X72939986Y-88921398D01*
X72748353Y-88853537D01*
X72748348Y-88853536D01*
X72738725Y-88850128D01*
X72728665Y-88848336D01*
X72528540Y-88812689D01*
X72528538Y-88812689D01*
X72518473Y-88810896D01*
X72508250Y-88810771D01*
X72508249Y-88810771D01*
X72391130Y-88809340D01*
X72294771Y-88808162D01*
X72284670Y-88809708D01*
X72284665Y-88809708D01*
X72136669Y-88832355D01*
X72073626Y-88842002D01*
X72063910Y-88845178D01*
X72063909Y-88845178D01*
X71966701Y-88876951D01*
X71860978Y-88911507D01*
X71662537Y-89014808D01*
X71483632Y-89149134D01*
X71476569Y-89156525D01*
X71362560Y-89275829D01*
X71329069Y-89310875D01*
X71202998Y-89495689D01*
X71198702Y-89504943D01*
X71198699Y-89504949D01*
X71136878Y-89638132D01*
X71108804Y-89698612D01*
X71103353Y-89718269D01*
X71056964Y-89885543D01*
X71049018Y-89914194D01*
X71047932Y-89924355D01*
X71047931Y-89924361D01*
X71026331Y-90126479D01*
X71026331Y-90126485D01*
X71025245Y-90136646D01*
X62660000Y-90136646D01*
X62660000Y-84064585D01*
X62661213Y-84047446D01*
X63734938Y-84047446D01*
X63761110Y-84346598D01*
X63826618Y-84639661D01*
X63930309Y-84921486D01*
X63934157Y-84928785D01*
X63934160Y-84928791D01*
X63968947Y-84994770D01*
X64070362Y-85187121D01*
X64075141Y-85193845D01*
X64075143Y-85193849D01*
X64223181Y-85402158D01*
X64244318Y-85431900D01*
X64249953Y-85437943D01*
X64249954Y-85437944D01*
X64375499Y-85572574D01*
X64449118Y-85651521D01*
X64681166Y-85842128D01*
X64936384Y-86000370D01*
X65054194Y-86053316D01*
X65138541Y-86091223D01*
X65210289Y-86123468D01*
X65218193Y-86125824D01*
X65218195Y-86125825D01*
X65490165Y-86206902D01*
X65490169Y-86206903D01*
X65498069Y-86209258D01*
X65794667Y-86256235D01*
X65801608Y-86256550D01*
X65801616Y-86256551D01*
X65841965Y-86258383D01*
X65888591Y-86260500D01*
X66076166Y-86260500D01*
X66080256Y-86260228D01*
X66080266Y-86260228D01*
X66178479Y-86253704D01*
X66299635Y-86245657D01*
X66594005Y-86186302D01*
X66877939Y-86088535D01*
X67146449Y-85954076D01*
X67153272Y-85949439D01*
X67153279Y-85949435D01*
X67282813Y-85861403D01*
X67394817Y-85785285D01*
X67400971Y-85779783D01*
X67612528Y-85590630D01*
X67612532Y-85590626D01*
X67618680Y-85585129D01*
X67703694Y-85485941D01*
X67808728Y-85363396D01*
X67808732Y-85363391D01*
X67814104Y-85357123D01*
X67902227Y-85221426D01*
X67973154Y-85112208D01*
X67973156Y-85112204D01*
X67977656Y-85105275D01*
X68068605Y-84913736D01*
X68102918Y-84841474D01*
X68102919Y-84841473D01*
X68106463Y-84834008D01*
X68198262Y-84548088D01*
X68220374Y-84425194D01*
X68249979Y-84260662D01*
X68249980Y-84260654D01*
X68251440Y-84252539D01*
X68262476Y-84009499D01*
X68264688Y-83960794D01*
X68264688Y-83960791D01*
X68265062Y-83952554D01*
X68238890Y-83653402D01*
X68173382Y-83360339D01*
X68069691Y-83078514D01*
X68051319Y-83043667D01*
X67962900Y-82875966D01*
X67929638Y-82812879D01*
X67884930Y-82749968D01*
X67760470Y-82574837D01*
X67760468Y-82574835D01*
X67755682Y-82568100D01*
X67738804Y-82550000D01*
X67707701Y-82516646D01*
X71025245Y-82516646D01*
X71038123Y-82739994D01*
X71087306Y-82958239D01*
X71091150Y-82967705D01*
X71091151Y-82967709D01*
X71104216Y-82999884D01*
X71171475Y-83165521D01*
X71176815Y-83174235D01*
X71176816Y-83174237D01*
X71272260Y-83329987D01*
X71288368Y-83356273D01*
X71434845Y-83525372D01*
X71442707Y-83531899D01*
X71442711Y-83531903D01*
X71562509Y-83631360D01*
X71606975Y-83668276D01*
X71800133Y-83781148D01*
X71809676Y-83784792D01*
X71809682Y-83784795D01*
X71999583Y-83857311D01*
X71999587Y-83857312D01*
X72009132Y-83860957D01*
X72128932Y-83885331D01*
X72218346Y-83903523D01*
X72218348Y-83903523D01*
X72228359Y-83905560D01*
X72326397Y-83909155D01*
X72441716Y-83913384D01*
X72441722Y-83913384D01*
X72451928Y-83913758D01*
X72462058Y-83912460D01*
X72462064Y-83912460D01*
X72564742Y-83899306D01*
X72673833Y-83885331D01*
X72683617Y-83882396D01*
X72683620Y-83882395D01*
X72878327Y-83823980D01*
X72878329Y-83823979D01*
X72888116Y-83821043D01*
X72897291Y-83816548D01*
X72897294Y-83816547D01*
X73069440Y-83732213D01*
X73089022Y-83722620D01*
X73271155Y-83592706D01*
X73429624Y-83434789D01*
X73435585Y-83426493D01*
X73435588Y-83426490D01*
X73457276Y-83396308D01*
X73528273Y-83329987D01*
X73619246Y-83295884D01*
X73716345Y-83299190D01*
X73804787Y-83339403D01*
X73847692Y-83378582D01*
X73968147Y-83517641D01*
X73968155Y-83517649D01*
X73974845Y-83525372D01*
X73982707Y-83531899D01*
X73982711Y-83531903D01*
X74102509Y-83631360D01*
X74146975Y-83668276D01*
X74340133Y-83781148D01*
X74349676Y-83784792D01*
X74349682Y-83784795D01*
X74539583Y-83857311D01*
X74539587Y-83857312D01*
X74549132Y-83860957D01*
X74668932Y-83885331D01*
X74758346Y-83903523D01*
X74758348Y-83903523D01*
X74768359Y-83905560D01*
X74866397Y-83909155D01*
X74981716Y-83913384D01*
X74981722Y-83913384D01*
X74991928Y-83913758D01*
X75002058Y-83912460D01*
X75002064Y-83912460D01*
X75104742Y-83899306D01*
X75213833Y-83885331D01*
X75223617Y-83882396D01*
X75223620Y-83882395D01*
X75418327Y-83823980D01*
X75418329Y-83823979D01*
X75428116Y-83821043D01*
X75437291Y-83816548D01*
X75437294Y-83816547D01*
X75609440Y-83732213D01*
X75629022Y-83722620D01*
X75811155Y-83592706D01*
X75969624Y-83434789D01*
X76100173Y-83253111D01*
X76199296Y-83052550D01*
X76264332Y-82838493D01*
X76293533Y-82616688D01*
X76294275Y-82586352D01*
X76295001Y-82556626D01*
X76295163Y-82550000D01*
X76292421Y-82516646D01*
X81185245Y-82516646D01*
X81198123Y-82739994D01*
X81247306Y-82958239D01*
X81251150Y-82967705D01*
X81251151Y-82967709D01*
X81264216Y-82999884D01*
X81331475Y-83165521D01*
X81336815Y-83174235D01*
X81336816Y-83174237D01*
X81432260Y-83329987D01*
X81448368Y-83356273D01*
X81594845Y-83525372D01*
X81602707Y-83531899D01*
X81602711Y-83531903D01*
X81722509Y-83631360D01*
X81766975Y-83668276D01*
X81960133Y-83781148D01*
X81969676Y-83784792D01*
X81969682Y-83784795D01*
X82159583Y-83857311D01*
X82159587Y-83857312D01*
X82169132Y-83860957D01*
X82288932Y-83885331D01*
X82378346Y-83903523D01*
X82378348Y-83903523D01*
X82388359Y-83905560D01*
X82486397Y-83909155D01*
X82601716Y-83913384D01*
X82601722Y-83913384D01*
X82611928Y-83913758D01*
X82622058Y-83912460D01*
X82622064Y-83912460D01*
X82724742Y-83899306D01*
X82833833Y-83885331D01*
X82843617Y-83882396D01*
X82843620Y-83882395D01*
X83038327Y-83823980D01*
X83038329Y-83823979D01*
X83048116Y-83821043D01*
X83057291Y-83816548D01*
X83057294Y-83816547D01*
X83229440Y-83732213D01*
X83249022Y-83722620D01*
X83431155Y-83592706D01*
X83589624Y-83434789D01*
X83595585Y-83426493D01*
X83595588Y-83426490D01*
X83617276Y-83396308D01*
X83688273Y-83329987D01*
X83779246Y-83295884D01*
X83876345Y-83299190D01*
X83964787Y-83339403D01*
X84007692Y-83378582D01*
X84128147Y-83517641D01*
X84128155Y-83517649D01*
X84134845Y-83525372D01*
X84142707Y-83531899D01*
X84142711Y-83531903D01*
X84262509Y-83631360D01*
X84306975Y-83668276D01*
X84500133Y-83781148D01*
X84509676Y-83784792D01*
X84509682Y-83784795D01*
X84699583Y-83857311D01*
X84699587Y-83857312D01*
X84709132Y-83860957D01*
X84828932Y-83885331D01*
X84918346Y-83903523D01*
X84918348Y-83903523D01*
X84928359Y-83905560D01*
X85026397Y-83909155D01*
X85141716Y-83913384D01*
X85141722Y-83913384D01*
X85151928Y-83913758D01*
X85162058Y-83912460D01*
X85162064Y-83912460D01*
X85264742Y-83899306D01*
X85373833Y-83885331D01*
X85383617Y-83882396D01*
X85383620Y-83882395D01*
X85578327Y-83823980D01*
X85578329Y-83823979D01*
X85588116Y-83821043D01*
X85597291Y-83816548D01*
X85597294Y-83816547D01*
X85769440Y-83732213D01*
X85789022Y-83722620D01*
X85971155Y-83592706D01*
X86129624Y-83434789D01*
X86260173Y-83253111D01*
X86359296Y-83052550D01*
X86424332Y-82838493D01*
X86453533Y-82616688D01*
X86454275Y-82586352D01*
X86455001Y-82556626D01*
X86455163Y-82550000D01*
X86436832Y-82327033D01*
X86428584Y-82294194D01*
X86418600Y-82254450D01*
X86382331Y-82110055D01*
X86376740Y-82097195D01*
X86297198Y-81914262D01*
X86297196Y-81914258D01*
X86293123Y-81904891D01*
X86287576Y-81896317D01*
X86287573Y-81896311D01*
X86177153Y-81725628D01*
X86171605Y-81717052D01*
X86021039Y-81551583D01*
X85845470Y-81412927D01*
X85649612Y-81304807D01*
X85639989Y-81301399D01*
X85639986Y-81301398D01*
X85448353Y-81233537D01*
X85448348Y-81233536D01*
X85438725Y-81230128D01*
X85428665Y-81228336D01*
X85228540Y-81192689D01*
X85228538Y-81192689D01*
X85218473Y-81190896D01*
X85208250Y-81190771D01*
X85208249Y-81190771D01*
X85091130Y-81189340D01*
X84994771Y-81188162D01*
X84984670Y-81189708D01*
X84984665Y-81189708D01*
X84830258Y-81213336D01*
X84773626Y-81222002D01*
X84763910Y-81225178D01*
X84763909Y-81225178D01*
X84738335Y-81233537D01*
X84560978Y-81291507D01*
X84362537Y-81394808D01*
X84183632Y-81529134D01*
X84176569Y-81536525D01*
X84064195Y-81654118D01*
X84029069Y-81690875D01*
X84023315Y-81699310D01*
X84016879Y-81707258D01*
X84015270Y-81705955D01*
X83956520Y-81763578D01*
X83866404Y-81799886D01*
X83769254Y-81798946D01*
X83679859Y-81760899D01*
X83632527Y-81716213D01*
X83631605Y-81717052D01*
X83487911Y-81559135D01*
X83487910Y-81559134D01*
X83481039Y-81551583D01*
X83305470Y-81412927D01*
X83109612Y-81304807D01*
X83099989Y-81301399D01*
X83099986Y-81301398D01*
X82908353Y-81233537D01*
X82908348Y-81233536D01*
X82898725Y-81230128D01*
X82888665Y-81228336D01*
X82688540Y-81192689D01*
X82688538Y-81192689D01*
X82678473Y-81190896D01*
X82668250Y-81190771D01*
X82668249Y-81190771D01*
X82551130Y-81189340D01*
X82454771Y-81188162D01*
X82444670Y-81189708D01*
X82444665Y-81189708D01*
X82290258Y-81213336D01*
X82233626Y-81222002D01*
X82223910Y-81225178D01*
X82223909Y-81225178D01*
X82198335Y-81233537D01*
X82020978Y-81291507D01*
X81822537Y-81394808D01*
X81643632Y-81529134D01*
X81636569Y-81536525D01*
X81524195Y-81654118D01*
X81489069Y-81690875D01*
X81483316Y-81699308D01*
X81483314Y-81699311D01*
X81401700Y-81818954D01*
X81362998Y-81875689D01*
X81358702Y-81884943D01*
X81358699Y-81884949D01*
X81273881Y-82067674D01*
X81268804Y-82078612D01*
X81209018Y-82294194D01*
X81207932Y-82304355D01*
X81207931Y-82304361D01*
X81186331Y-82506479D01*
X81186331Y-82506485D01*
X81185245Y-82516646D01*
X76292421Y-82516646D01*
X76276832Y-82327033D01*
X76268584Y-82294194D01*
X76258600Y-82254450D01*
X76222331Y-82110055D01*
X76216740Y-82097195D01*
X76137198Y-81914262D01*
X76137196Y-81914258D01*
X76133123Y-81904891D01*
X76127576Y-81896317D01*
X76127573Y-81896311D01*
X76017153Y-81725628D01*
X76011605Y-81717052D01*
X75861039Y-81551583D01*
X75685470Y-81412927D01*
X75489612Y-81304807D01*
X75479989Y-81301399D01*
X75479986Y-81301398D01*
X75288353Y-81233537D01*
X75288348Y-81233536D01*
X75278725Y-81230128D01*
X75268665Y-81228336D01*
X75068540Y-81192689D01*
X75068538Y-81192689D01*
X75058473Y-81190896D01*
X75048250Y-81190771D01*
X75048249Y-81190771D01*
X74931130Y-81189340D01*
X74834771Y-81188162D01*
X74824670Y-81189708D01*
X74824665Y-81189708D01*
X74670258Y-81213336D01*
X74613626Y-81222002D01*
X74603910Y-81225178D01*
X74603909Y-81225178D01*
X74578335Y-81233537D01*
X74400978Y-81291507D01*
X74202537Y-81394808D01*
X74023632Y-81529134D01*
X74016569Y-81536525D01*
X73904195Y-81654118D01*
X73869069Y-81690875D01*
X73863315Y-81699310D01*
X73856879Y-81707258D01*
X73855270Y-81705955D01*
X73796520Y-81763578D01*
X73706404Y-81799886D01*
X73609254Y-81798946D01*
X73519859Y-81760899D01*
X73472527Y-81716213D01*
X73471605Y-81717052D01*
X73327911Y-81559135D01*
X73327910Y-81559134D01*
X73321039Y-81551583D01*
X73145470Y-81412927D01*
X72949612Y-81304807D01*
X72939989Y-81301399D01*
X72939986Y-81301398D01*
X72748353Y-81233537D01*
X72748348Y-81233536D01*
X72738725Y-81230128D01*
X72728665Y-81228336D01*
X72528540Y-81192689D01*
X72528538Y-81192689D01*
X72518473Y-81190896D01*
X72508250Y-81190771D01*
X72508249Y-81190771D01*
X72391130Y-81189340D01*
X72294771Y-81188162D01*
X72284670Y-81189708D01*
X72284665Y-81189708D01*
X72130258Y-81213336D01*
X72073626Y-81222002D01*
X72063910Y-81225178D01*
X72063909Y-81225178D01*
X72038335Y-81233537D01*
X71860978Y-81291507D01*
X71662537Y-81394808D01*
X71483632Y-81529134D01*
X71476569Y-81536525D01*
X71364195Y-81654118D01*
X71329069Y-81690875D01*
X71323316Y-81699308D01*
X71323314Y-81699311D01*
X71241700Y-81818954D01*
X71202998Y-81875689D01*
X71198702Y-81884943D01*
X71198699Y-81884949D01*
X71113881Y-82067674D01*
X71108804Y-82078612D01*
X71049018Y-82294194D01*
X71047932Y-82304355D01*
X71047931Y-82304361D01*
X71026331Y-82506479D01*
X71026331Y-82506485D01*
X71025245Y-82516646D01*
X67707701Y-82516646D01*
X67556520Y-82354525D01*
X67550882Y-82348479D01*
X67442896Y-82259778D01*
X67325221Y-82163118D01*
X67325218Y-82163116D01*
X67318834Y-82157872D01*
X67063616Y-81999630D01*
X66885853Y-81919740D01*
X66797239Y-81879915D01*
X66797236Y-81879914D01*
X66789711Y-81876532D01*
X66781805Y-81874175D01*
X66509835Y-81793098D01*
X66509831Y-81793097D01*
X66501931Y-81790742D01*
X66205333Y-81743765D01*
X66198392Y-81743450D01*
X66198384Y-81743449D01*
X66158035Y-81741617D01*
X66111409Y-81739500D01*
X65923834Y-81739500D01*
X65919744Y-81739772D01*
X65919734Y-81739772D01*
X65821521Y-81746296D01*
X65700365Y-81754343D01*
X65405995Y-81813698D01*
X65122061Y-81911465D01*
X64853551Y-82045924D01*
X64846728Y-82050561D01*
X64846721Y-82050565D01*
X64739869Y-82123182D01*
X64605183Y-82214715D01*
X64599032Y-82220215D01*
X64599029Y-82220217D01*
X64387472Y-82409370D01*
X64387468Y-82409374D01*
X64381320Y-82414871D01*
X64375949Y-82421138D01*
X64191272Y-82636604D01*
X64191268Y-82636609D01*
X64185896Y-82642877D01*
X64181397Y-82649805D01*
X64043069Y-82862812D01*
X64022344Y-82894725D01*
X63993395Y-82955692D01*
X63921981Y-83106090D01*
X63893537Y-83165992D01*
X63801738Y-83451912D01*
X63800275Y-83460043D01*
X63750021Y-83739338D01*
X63750020Y-83739346D01*
X63748560Y-83747461D01*
X63734938Y-84047446D01*
X62661213Y-84047446D01*
X62662484Y-84029500D01*
X62663552Y-84021994D01*
X62664701Y-84013924D01*
X62664847Y-84000000D01*
X62663868Y-83991909D01*
X62663420Y-83983766D01*
X62663724Y-83983749D01*
X62662594Y-83950517D01*
X62672881Y-83754210D01*
X62677615Y-83663895D01*
X62680339Y-83637980D01*
X62682619Y-83623588D01*
X62730945Y-83318466D01*
X62736363Y-83292978D01*
X62820097Y-82980480D01*
X62828151Y-82955692D01*
X62944079Y-82653690D01*
X62954679Y-82629881D01*
X63101553Y-82341623D01*
X63114585Y-82319051D01*
X63130728Y-82294194D01*
X63275024Y-82071997D01*
X63290776Y-82047741D01*
X63306096Y-82026655D01*
X63509680Y-81775250D01*
X63527119Y-81755881D01*
X63755881Y-81527119D01*
X63775250Y-81509680D01*
X64026655Y-81306096D01*
X64047741Y-81290776D01*
X64205753Y-81188162D01*
X64319056Y-81114582D01*
X64341623Y-81101553D01*
X64629881Y-80954679D01*
X64653690Y-80944079D01*
X64955692Y-80828151D01*
X64980480Y-80820097D01*
X65292978Y-80736363D01*
X65318466Y-80730945D01*
X65637987Y-80680338D01*
X65663893Y-80677615D01*
X65946039Y-80662828D01*
X65963136Y-80663502D01*
X65963144Y-80662695D01*
X65978158Y-80662852D01*
X65993038Y-80664811D01*
X66007956Y-80663164D01*
X66022991Y-80661504D01*
X66050316Y-80660000D01*
X111095334Y-80660000D01*
X111190622Y-80678954D01*
G37*
%TD.AperFunction*%
%TA.AperFunction,Conductor*%
G36*
X131225702Y-97639134D02*
G01*
X131295590Y-97706623D01*
X131334330Y-97795720D01*
X131340000Y-97848553D01*
X131340000Y-100504780D01*
X131321046Y-100600068D01*
X131267070Y-100680850D01*
X131186288Y-100734826D01*
X131091000Y-100753780D01*
X130995712Y-100734826D01*
X130914930Y-100680850D01*
X130892172Y-100653241D01*
X130891809Y-100653527D01*
X130723371Y-100439864D01*
X130525201Y-100253445D01*
X130301654Y-100098365D01*
X130139799Y-100018547D01*
X130065926Y-99982117D01*
X130065924Y-99982116D01*
X130057640Y-99978031D01*
X129919613Y-99933848D01*
X129807318Y-99897902D01*
X129807315Y-99897901D01*
X129798520Y-99895086D01*
X129638440Y-99869015D01*
X129539101Y-99852836D01*
X129539095Y-99852835D01*
X129529986Y-99851352D01*
X129520756Y-99851231D01*
X129520754Y-99851231D01*
X129341835Y-99848889D01*
X129257937Y-99847791D01*
X128988350Y-99884480D01*
X128952368Y-99894968D01*
X128736015Y-99958029D01*
X128736009Y-99958031D01*
X128727148Y-99960614D01*
X128576537Y-100030046D01*
X128534399Y-100049472D01*
X128480067Y-100074519D01*
X128420100Y-100113835D01*
X128260263Y-100218628D01*
X128260257Y-100218632D01*
X128252537Y-100223694D01*
X128049556Y-100404862D01*
X127875583Y-100614042D01*
X127842386Y-100668749D01*
X127739228Y-100838747D01*
X127739225Y-100838753D01*
X127734439Y-100846640D01*
X127730870Y-100855151D01*
X127730868Y-100855155D01*
X127678385Y-100980313D01*
X127629226Y-101097545D01*
X127562254Y-101361246D01*
X127561328Y-101370443D01*
X127548019Y-101502620D01*
X127534996Y-101631949D01*
X127548050Y-101903707D01*
X127549849Y-101912752D01*
X127549850Y-101912759D01*
X127560114Y-101964357D01*
X127601128Y-102170552D01*
X127604248Y-102179241D01*
X127604248Y-102179242D01*
X127687683Y-102411625D01*
X127693066Y-102426619D01*
X127697437Y-102434753D01*
X127697437Y-102434754D01*
X127815625Y-102654712D01*
X127821843Y-102666285D01*
X127898883Y-102769454D01*
X127978448Y-102876005D01*
X127984630Y-102884284D01*
X127991193Y-102890790D01*
X128141973Y-103040259D01*
X128177852Y-103075826D01*
X128397263Y-103236705D01*
X128405428Y-103241001D01*
X128405433Y-103241004D01*
X128539816Y-103311706D01*
X128638043Y-103363386D01*
X128894903Y-103453085D01*
X129162200Y-103503833D01*
X129171422Y-103504195D01*
X129171428Y-103504196D01*
X129249297Y-103507255D01*
X129330594Y-103510450D01*
X129390952Y-103524940D01*
X129441798Y-103513668D01*
X129680970Y-103487474D01*
X129695333Y-103485901D01*
X129695334Y-103485901D01*
X129704518Y-103484895D01*
X129713454Y-103482542D01*
X129713456Y-103482542D01*
X129900163Y-103433386D01*
X129967624Y-103415625D01*
X130217601Y-103308226D01*
X130225453Y-103303367D01*
X130225457Y-103303365D01*
X130362194Y-103218749D01*
X130448958Y-103165058D01*
X130656612Y-102989266D01*
X130664905Y-102979810D01*
X130829909Y-102791660D01*
X130829911Y-102791658D01*
X130836002Y-102784712D01*
X130881581Y-102713851D01*
X130949070Y-102643963D01*
X131038167Y-102605223D01*
X131135307Y-102603527D01*
X131225702Y-102639134D01*
X131295590Y-102706623D01*
X131334330Y-102795720D01*
X131340000Y-102848553D01*
X131340000Y-104319715D01*
X131321046Y-104415003D01*
X131267070Y-104495785D01*
X131186288Y-104549761D01*
X131091000Y-104568715D01*
X130995712Y-104549761D01*
X130936846Y-104515260D01*
X130902472Y-104488162D01*
X130890183Y-104479621D01*
X130628064Y-104319937D01*
X130614825Y-104312927D01*
X130335421Y-104185889D01*
X130321439Y-104180522D01*
X130028784Y-104087968D01*
X130014281Y-104084325D01*
X129712623Y-104027598D01*
X129697765Y-104025721D01*
X129452625Y-104009654D01*
X129397397Y-103994856D01*
X129334500Y-104007881D01*
X129070037Y-104022435D01*
X129055176Y-104024155D01*
X128752946Y-104077718D01*
X128738389Y-104081213D01*
X128444791Y-104170695D01*
X128430749Y-104175917D01*
X128150021Y-104300026D01*
X128136723Y-104306890D01*
X128108163Y-104323882D01*
X128092661Y-104337840D01*
X128094366Y-104342656D01*
X128098042Y-104347382D01*
X130254590Y-106503930D01*
X130308566Y-106584712D01*
X130327520Y-106680000D01*
X130308566Y-106775288D01*
X130254590Y-106856070D01*
X128102544Y-109008116D01*
X128090282Y-109026468D01*
X128093456Y-109042424D01*
X128093455Y-109139579D01*
X128056275Y-109229338D01*
X127987576Y-109298037D01*
X127897816Y-109335216D01*
X127849240Y-109340000D01*
X125592112Y-109340000D01*
X125496824Y-109321046D01*
X125416042Y-109267070D01*
X125362066Y-109186288D01*
X125345255Y-109101773D01*
X125340292Y-109087277D01*
X125335870Y-109081530D01*
X124082341Y-107828001D01*
X124065000Y-107816414D01*
X124047659Y-107828001D01*
X122797544Y-109078116D01*
X122784710Y-109097323D01*
X122776306Y-109139576D01*
X122739127Y-109229336D01*
X122670428Y-109298035D01*
X122580669Y-109335215D01*
X122532090Y-109340000D01*
X116874386Y-109340000D01*
X116779098Y-109321046D01*
X116698316Y-109267070D01*
X116644340Y-109186288D01*
X116625386Y-109091000D01*
X116644340Y-108995712D01*
X116698316Y-108914930D01*
X118883772Y-106729474D01*
X121390640Y-106729474D01*
X121405901Y-107036034D01*
X121407544Y-107050915D01*
X121459524Y-107353428D01*
X121462941Y-107367993D01*
X121550886Y-107662060D01*
X121556032Y-107676122D01*
X121678672Y-107957505D01*
X121685462Y-107970830D01*
X121709334Y-108011437D01*
X121723207Y-108027008D01*
X121727716Y-108025438D01*
X121732952Y-108021388D01*
X122986999Y-106767341D01*
X122998586Y-106750000D01*
X125131414Y-106750000D01*
X125143001Y-106767341D01*
X126393371Y-108017711D01*
X126410432Y-108029110D01*
X126419872Y-108015715D01*
X126508154Y-107829375D01*
X126566081Y-107751378D01*
X126649446Y-107701485D01*
X126745559Y-107687292D01*
X126839787Y-107710960D01*
X126917784Y-107768887D01*
X126961439Y-107836496D01*
X126983668Y-107887497D01*
X126990462Y-107900830D01*
X127014334Y-107941437D01*
X127028207Y-107957008D01*
X127032716Y-107955438D01*
X127037952Y-107951388D01*
X128291999Y-106697341D01*
X128303586Y-106680000D01*
X128291999Y-106662659D01*
X127042432Y-105413092D01*
X127025091Y-105401505D01*
X127020008Y-105404902D01*
X127017474Y-105408107D01*
X127016555Y-105409597D01*
X127009476Y-105422799D01*
X126927784Y-105600005D01*
X126870678Y-105678606D01*
X126787840Y-105729369D01*
X126691881Y-105744568D01*
X126597411Y-105721888D01*
X126518810Y-105664782D01*
X126474449Y-105597633D01*
X126438551Y-105517569D01*
X126431628Y-105504328D01*
X126421619Y-105487702D01*
X126407581Y-105472276D01*
X126402460Y-105474120D01*
X126398242Y-105477418D01*
X125143001Y-106732659D01*
X125131414Y-106750000D01*
X122998586Y-106750000D01*
X122986999Y-106732659D01*
X121737432Y-105483092D01*
X121720091Y-105471505D01*
X121715008Y-105474902D01*
X121712474Y-105478107D01*
X121711555Y-105479597D01*
X121704479Y-105492793D01*
X121575977Y-105771539D01*
X121570541Y-105785480D01*
X121476450Y-106077661D01*
X121472734Y-106092132D01*
X121414426Y-106393507D01*
X121412475Y-106408332D01*
X121390796Y-106714512D01*
X121390640Y-106729474D01*
X118883772Y-106729474D01*
X121205406Y-104407840D01*
X122787661Y-104407840D01*
X122789366Y-104412656D01*
X122793042Y-104417382D01*
X124047659Y-105671999D01*
X124065000Y-105683586D01*
X124082341Y-105671999D01*
X125331412Y-104422928D01*
X125342999Y-104405587D01*
X125339790Y-104400784D01*
X125336072Y-104397862D01*
X125323062Y-104389936D01*
X125309829Y-104382929D01*
X125030421Y-104255889D01*
X125016439Y-104250522D01*
X124723784Y-104157968D01*
X124709281Y-104154325D01*
X124407623Y-104097598D01*
X124392765Y-104095721D01*
X124147625Y-104079654D01*
X124092397Y-104064856D01*
X124029500Y-104077881D01*
X123765037Y-104092435D01*
X123750176Y-104094155D01*
X123447946Y-104147718D01*
X123433389Y-104151213D01*
X123139791Y-104240695D01*
X123125749Y-104245917D01*
X122845021Y-104370026D01*
X122831723Y-104376890D01*
X122803163Y-104393882D01*
X122787661Y-104407840D01*
X121205406Y-104407840D01*
X122072082Y-103541164D01*
X122083975Y-103530026D01*
X122121823Y-103496835D01*
X122121827Y-103496831D01*
X122130404Y-103489309D01*
X122185035Y-103420010D01*
X122189093Y-103414999D01*
X122245496Y-103347182D01*
X122251074Y-103337222D01*
X122251723Y-103336277D01*
X122252730Y-103334910D01*
X122253881Y-103333187D01*
X122254766Y-103331722D01*
X122255379Y-103330779D01*
X122262447Y-103321813D01*
X122269596Y-103308226D01*
X122303516Y-103243754D01*
X122306596Y-103238081D01*
X122349712Y-103161091D01*
X122353382Y-103150279D01*
X122353849Y-103149231D01*
X122354598Y-103147688D01*
X122355397Y-103145826D01*
X122356000Y-103144224D01*
X122356439Y-103143165D01*
X122361756Y-103133058D01*
X122364556Y-103124039D01*
X122418019Y-103044028D01*
X122498800Y-102990052D01*
X122594088Y-102971098D01*
X122689377Y-102990052D01*
X122769387Y-103043261D01*
X122851651Y-103124809D01*
X122872852Y-103145826D01*
X123092263Y-103306705D01*
X123100428Y-103311001D01*
X123100433Y-103311004D01*
X123235131Y-103381872D01*
X123333043Y-103433386D01*
X123589903Y-103523085D01*
X123598977Y-103524808D01*
X123598978Y-103524808D01*
X123626462Y-103530026D01*
X123857200Y-103573833D01*
X123866422Y-103574195D01*
X123866428Y-103574196D01*
X123944297Y-103577255D01*
X124025594Y-103580450D01*
X124085952Y-103594940D01*
X124136798Y-103583668D01*
X124356395Y-103559618D01*
X124390333Y-103555901D01*
X124390334Y-103555901D01*
X124399518Y-103554895D01*
X124408454Y-103552542D01*
X124408456Y-103552542D01*
X124593465Y-103503833D01*
X124662624Y-103485625D01*
X124912601Y-103378226D01*
X124920453Y-103373367D01*
X124920457Y-103373365D01*
X125068857Y-103281532D01*
X125143958Y-103235058D01*
X125351612Y-103059266D01*
X125359300Y-103050500D01*
X125524909Y-102861660D01*
X125524911Y-102861658D01*
X125531002Y-102854712D01*
X125595862Y-102753875D01*
X125673186Y-102633662D01*
X125673188Y-102633658D01*
X125678186Y-102625888D01*
X125789931Y-102377823D01*
X125863782Y-102115966D01*
X125869153Y-102073752D01*
X125888459Y-101921989D01*
X125898117Y-101846070D01*
X125900633Y-101750000D01*
X125880470Y-101478676D01*
X125874758Y-101453430D01*
X125822464Y-101222324D01*
X125820425Y-101213313D01*
X125733293Y-100989256D01*
X125725165Y-100968354D01*
X125725164Y-100968352D01*
X125721815Y-100959740D01*
X125586809Y-100723527D01*
X125418371Y-100509864D01*
X125409239Y-100501273D01*
X125268464Y-100368846D01*
X125220201Y-100323445D01*
X124996654Y-100168365D01*
X124844374Y-100093269D01*
X124760926Y-100052117D01*
X124760924Y-100052116D01*
X124752640Y-100048031D01*
X124574441Y-99990989D01*
X124502318Y-99967902D01*
X124502315Y-99967901D01*
X124493520Y-99965086D01*
X124325765Y-99937765D01*
X124234101Y-99922836D01*
X124234095Y-99922835D01*
X124224986Y-99921352D01*
X124215756Y-99921231D01*
X124215754Y-99921231D01*
X124036835Y-99918889D01*
X123952937Y-99917791D01*
X123683350Y-99954480D01*
X123649042Y-99964480D01*
X123431015Y-100028029D01*
X123431009Y-100028031D01*
X123422148Y-100030614D01*
X123275184Y-100098365D01*
X123183870Y-100140461D01*
X123175067Y-100144519D01*
X123167339Y-100149586D01*
X122955263Y-100288628D01*
X122955257Y-100288632D01*
X122947537Y-100293694D01*
X122877091Y-100356570D01*
X122860305Y-100371552D01*
X122776594Y-100420862D01*
X122680384Y-100434384D01*
X122586324Y-100410058D01*
X122508732Y-100351589D01*
X122459422Y-100267878D01*
X122445500Y-100185784D01*
X122445500Y-100113835D01*
X122464454Y-100018547D01*
X122518430Y-99937765D01*
X123804397Y-98651798D01*
X123885179Y-98597822D01*
X123980467Y-98578868D01*
X123990225Y-98579060D01*
X124129063Y-98584515D01*
X124138238Y-98583510D01*
X124138243Y-98583510D01*
X124390333Y-98555901D01*
X124390334Y-98555901D01*
X124399518Y-98554895D01*
X124408454Y-98552542D01*
X124408456Y-98552542D01*
X124593465Y-98503833D01*
X124662624Y-98485625D01*
X124912601Y-98378226D01*
X124920453Y-98373367D01*
X124920457Y-98373365D01*
X125089000Y-98269067D01*
X125143958Y-98235058D01*
X125351612Y-98059266D01*
X125357701Y-98052323D01*
X125357709Y-98052315D01*
X125407691Y-97995322D01*
X125484769Y-97936178D01*
X125578614Y-97911033D01*
X125594898Y-97910500D01*
X127908573Y-97910500D01*
X128003861Y-97929454D01*
X128083872Y-97982663D01*
X128177852Y-98075826D01*
X128397263Y-98236705D01*
X128405428Y-98241001D01*
X128405433Y-98241004D01*
X128540131Y-98311872D01*
X128638043Y-98363386D01*
X128894903Y-98453085D01*
X129162200Y-98503833D01*
X129171422Y-98504195D01*
X129171428Y-98504196D01*
X129298131Y-98509174D01*
X129434063Y-98514515D01*
X129443238Y-98513510D01*
X129443243Y-98513510D01*
X129695333Y-98485901D01*
X129695334Y-98485901D01*
X129704518Y-98484895D01*
X129713454Y-98482542D01*
X129713456Y-98482542D01*
X129875064Y-98439994D01*
X129967624Y-98415625D01*
X130217601Y-98308226D01*
X130225453Y-98303367D01*
X130225457Y-98303365D01*
X130408634Y-98190011D01*
X130448958Y-98165058D01*
X130656612Y-97989266D01*
X130709066Y-97929454D01*
X130829909Y-97791660D01*
X130829911Y-97791658D01*
X130836002Y-97784712D01*
X130881581Y-97713851D01*
X130949070Y-97643963D01*
X131038167Y-97605223D01*
X131135307Y-97603527D01*
X131225702Y-97639134D01*
G37*
%TD.AperFunction*%
%TA.AperFunction,Conductor*%
G36*
X117391942Y-100009943D02*
G01*
X117472724Y-100063919D01*
X118006032Y-100597227D01*
X118060008Y-100678009D01*
X118072869Y-100718552D01*
X118075058Y-100728267D01*
X118075061Y-100728275D01*
X118077306Y-100738239D01*
X118081150Y-100747705D01*
X118081151Y-100747709D01*
X118109747Y-100818132D01*
X118161475Y-100945521D01*
X118166815Y-100954235D01*
X118166816Y-100954237D01*
X118273028Y-101127559D01*
X118278368Y-101136273D01*
X118424845Y-101305372D01*
X118432707Y-101311899D01*
X118432711Y-101311903D01*
X118492146Y-101361246D01*
X118596975Y-101448276D01*
X118790133Y-101561148D01*
X118799676Y-101564792D01*
X118799682Y-101564795D01*
X118989583Y-101637311D01*
X118989587Y-101637312D01*
X118999132Y-101640957D01*
X119118932Y-101665331D01*
X119208346Y-101683523D01*
X119208348Y-101683523D01*
X119218359Y-101685560D01*
X119316397Y-101689155D01*
X119431716Y-101693384D01*
X119431722Y-101693384D01*
X119441928Y-101693758D01*
X119452058Y-101692460D01*
X119452064Y-101692460D01*
X119562767Y-101678278D01*
X119663833Y-101665331D01*
X119673619Y-101662395D01*
X119673624Y-101662394D01*
X119803948Y-101623295D01*
X119900663Y-101614068D01*
X119993548Y-101642554D01*
X120068461Y-101704418D01*
X120113998Y-101790241D01*
X120124500Y-101861793D01*
X120124500Y-102103216D01*
X120105546Y-102198504D01*
X120051570Y-102279286D01*
X117455570Y-104875286D01*
X117374788Y-104929262D01*
X117279500Y-104948216D01*
X117184212Y-104929262D01*
X117103430Y-104875286D01*
X117049454Y-104794504D01*
X117030500Y-104699216D01*
X117030499Y-103292911D01*
X117030499Y-103287206D01*
X117024210Y-103218749D01*
X116976403Y-103066199D01*
X116893588Y-102929455D01*
X116780545Y-102816412D01*
X116643801Y-102733597D01*
X116491251Y-102685790D01*
X116478097Y-102684581D01*
X116478095Y-102684581D01*
X116428468Y-102680021D01*
X116428462Y-102680021D01*
X116422795Y-102679500D01*
X115570225Y-102679500D01*
X114717206Y-102679501D01*
X114648749Y-102685790D01*
X114496199Y-102733597D01*
X114359455Y-102816412D01*
X114246412Y-102929455D01*
X114163597Y-103066199D01*
X114115790Y-103218749D01*
X114114581Y-103231903D01*
X114114581Y-103231905D01*
X114110321Y-103278273D01*
X114109500Y-103287205D01*
X114109501Y-104992794D01*
X114115790Y-105061251D01*
X114163597Y-105213801D01*
X114171370Y-105226636D01*
X114171372Y-105226640D01*
X114222847Y-105311636D01*
X114255996Y-105402961D01*
X114251673Y-105500020D01*
X114235715Y-105545461D01*
X114198935Y-105624697D01*
X114198933Y-105624703D01*
X114194634Y-105633964D01*
X114191907Y-105643799D01*
X114191905Y-105643803D01*
X114133184Y-105855543D01*
X114130453Y-105865392D01*
X114129367Y-105875557D01*
X114107768Y-106077661D01*
X114104932Y-106104195D01*
X114118757Y-106343959D01*
X114121004Y-106353928D01*
X114121004Y-106353931D01*
X114164760Y-106548088D01*
X114171556Y-106578246D01*
X114261911Y-106800763D01*
X114267254Y-106809482D01*
X114368288Y-106974354D01*
X114387396Y-107005536D01*
X114394083Y-107013256D01*
X114394084Y-107013257D01*
X114401649Y-107021990D01*
X114449711Y-107106424D01*
X114461804Y-107202823D01*
X114436085Y-107296512D01*
X114376471Y-107373228D01*
X114292037Y-107421290D01*
X114213441Y-107434020D01*
X110918930Y-107434020D01*
X110823642Y-107415066D01*
X110742860Y-107361090D01*
X110688884Y-107280308D01*
X110669930Y-107185020D01*
X110677591Y-107123729D01*
X110706342Y-107010521D01*
X110706343Y-107010514D01*
X110708616Y-107001565D01*
X110709811Y-106989698D01*
X110729873Y-106790464D01*
X110729873Y-106790459D01*
X110730500Y-106784235D01*
X110730500Y-105328565D01*
X110730113Y-105323350D01*
X110719004Y-105173867D01*
X110716045Y-105134052D01*
X110707804Y-105097629D01*
X110660335Y-104887847D01*
X110658296Y-104878836D01*
X110563457Y-104634960D01*
X110539766Y-104593508D01*
X110442272Y-104422928D01*
X110433614Y-104407780D01*
X110427900Y-104400531D01*
X110427896Y-104400526D01*
X110349331Y-104300868D01*
X110271617Y-104202288D01*
X110081026Y-104022998D01*
X110073438Y-104017734D01*
X110073433Y-104017730D01*
X109948028Y-103930734D01*
X109866027Y-103873848D01*
X109740744Y-103812065D01*
X109639630Y-103762201D01*
X109639628Y-103762200D01*
X109631344Y-103758115D01*
X109444613Y-103698342D01*
X109390931Y-103681158D01*
X109390928Y-103681157D01*
X109382133Y-103678342D01*
X109247091Y-103656349D01*
X109132983Y-103637765D01*
X109132977Y-103637764D01*
X109123868Y-103636281D01*
X109114638Y-103636160D01*
X109114636Y-103636160D01*
X108939966Y-103633874D01*
X108862223Y-103632856D01*
X108826152Y-103637765D01*
X108612091Y-103666897D01*
X108612087Y-103666898D01*
X108602945Y-103668142D01*
X108351731Y-103741364D01*
X108343346Y-103745229D01*
X108343342Y-103745231D01*
X108125526Y-103845646D01*
X108114099Y-103850914D01*
X107908941Y-103985422D01*
X107905259Y-103987836D01*
X107815179Y-104024231D01*
X107718028Y-104023383D01*
X107628596Y-103985422D01*
X107560499Y-103916126D01*
X107524104Y-103826046D01*
X107524952Y-103728895D01*
X107562913Y-103639463D01*
X107592664Y-103603531D01*
X108072766Y-103123429D01*
X108153548Y-103069453D01*
X108248836Y-103050499D01*
X109217794Y-103050499D01*
X109286251Y-103044210D01*
X109438801Y-102996403D01*
X109575545Y-102913588D01*
X109688588Y-102800545D01*
X109771403Y-102663801D01*
X109819210Y-102511251D01*
X109825500Y-102442795D01*
X109825500Y-102109197D01*
X109844454Y-102013909D01*
X109898430Y-101933127D01*
X109979212Y-101879151D01*
X110074500Y-101860197D01*
X110169788Y-101879151D01*
X110238678Y-101921989D01*
X110411730Y-102073752D01*
X110424631Y-102083651D01*
X110650868Y-102234819D01*
X110664947Y-102242947D01*
X110908975Y-102363289D01*
X110924010Y-102369517D01*
X111036778Y-102407796D01*
X111057455Y-102410518D01*
X111057493Y-102410453D01*
X111060000Y-102395265D01*
X111060000Y-102391152D01*
X112460000Y-102391152D01*
X112464069Y-102411610D01*
X112464144Y-102411625D01*
X112479330Y-102409117D01*
X112595990Y-102369517D01*
X112611025Y-102363289D01*
X112855053Y-102242947D01*
X112869132Y-102234819D01*
X113095369Y-102083651D01*
X113108278Y-102073746D01*
X113312835Y-101894354D01*
X113324354Y-101882835D01*
X113503746Y-101678278D01*
X113513651Y-101665369D01*
X113664819Y-101439132D01*
X113672947Y-101425053D01*
X113793289Y-101181025D01*
X113799517Y-101165990D01*
X113837796Y-101053222D01*
X113840518Y-101032545D01*
X113840453Y-101032507D01*
X113825265Y-101030000D01*
X112484527Y-101030000D01*
X112464069Y-101034069D01*
X112460000Y-101054527D01*
X112460000Y-102391152D01*
X111060000Y-102391152D01*
X111060000Y-100239989D01*
X111078954Y-100144701D01*
X111132930Y-100063919D01*
X111213712Y-100009943D01*
X111309000Y-99990989D01*
X117296654Y-99990989D01*
X117391942Y-100009943D01*
G37*
%TD.AperFunction*%
%TD*%
M02*
